<svg width="295" height="173" viewBox="0 0 295 173" fill="none" xmlns="http://www.w3.org/2000/svg">
<path d="M56.1547 75.0469C66.6975 75.0469 66.6975 152.301 77.2404 152.301C87.7833 152.301 87.7833 152.301 98.3261 152.301C108.869 152.301 108.869 152.301 119.412 152.301C129.955 152.301 129.955 75.0469 140.498 75.0469C151.04 75.0469 151.04 152.301 161.583 152.301C172.126 152.301 172.126 75.0469 182.669 75.0469C193.212 75.0469 193.212 152.301 203.755 152.301C214.298 152.301 214.298 152.301 224.84 152.301C235.383 152.301 235.383 152.301 245.926 152.301C256.469 152.301 256.469 75.0469 267.012 75.0469C277.555 75.0469 277.555 75.0469 288.098 75.0469V152.301C277.555 152.301 277.555 152.301 267.012 152.301C256.469 152.301 256.469 152.301 245.926 152.301C235.383 152.301 235.383 152.301 224.84 152.301C214.298 152.301 214.298 152.301 203.755 152.301C193.212 152.301 193.212 152.301 182.669 152.301C172.126 152.301 172.126 152.301 161.583 152.301C151.04 152.301 151.04 152.301 140.498 152.301C129.955 152.301 129.955 152.301 119.412 152.301C108.869 152.301 108.869 152.301 98.3261 152.301C87.7833 152.301 87.7833 152.301 77.2404 152.301C66.6975 152.301 66.6975 152.301 56.1547 152.301V75.0469Z" fill="#F8E21D"/>
<path d="M56.1547 75.0469C66.6975 75.0469 66.6975 55.7334 77.2404 55.7334C87.7833 55.7334 87.7833 55.7334 98.3261 55.7334C108.869 55.7334 108.869 152.301 119.412 152.301C129.955 152.301 129.955 75.0469 140.498 75.0469C151.04 75.0469 151.04 55.7334 161.583 55.7334C172.126 55.7334 172.126 75.0469 182.669 75.0469C193.212 75.0469 193.212 55.7334 203.755 55.7334C214.298 55.7334 214.298 55.7334 224.84 55.7334C235.383 55.7334 235.383 152.301 245.926 152.301C256.469 152.301 256.469 75.0469 267.012 75.0469C277.555 75.0469 277.555 75.0469 288.098 75.0469C277.555 75.0469 277.555 75.0469 267.012 75.0469C256.469 75.0469 256.469 152.301 245.926 152.301C235.383 152.301 235.383 152.301 224.84 152.301C214.298 152.301 214.298 152.301 203.755 152.301C193.212 152.301 193.212 75.0469 182.669 75.0469C172.126 75.0469 172.126 152.301 161.583 152.301C151.04 152.301 151.04 75.0469 140.498 75.0469C129.955 75.0469 129.955 152.301 119.412 152.301C108.869 152.301 108.869 152.301 98.3261 152.301C87.7833 152.301 87.7833 152.301 77.2404 152.301C66.6975 152.301 66.6975 75.0469 56.1547 75.0469Z" fill="#F8E01D"/>
<path d="M56.1547 75.0469C66.6975 75.0469 66.6975 55.7333 77.2404 55.7333C87.7833 55.7333 87.7833 55.7333 98.3261 55.7333C108.869 55.7333 108.869 36.4198 119.412 36.4198C129.955 36.4198 129.955 75.0469 140.498 75.0469C151.04 75.0469 151.04 55.7333 161.583 55.7333C172.126 55.7333 172.126 75.0469 182.669 75.0469C193.212 75.0469 193.212 55.7333 203.755 55.7333C214.298 55.7333 214.298 55.7333 224.84 55.7333C235.383 55.7333 235.383 36.4198 245.926 36.4198C256.469 36.4198 256.469 75.0469 267.012 75.0469C277.555 75.0469 277.555 75.0469 288.098 75.0469C277.555 75.0469 277.555 75.0469 267.012 75.0469C256.469 75.0469 256.469 152.301 245.926 152.301C235.383 152.301 235.383 55.7333 224.84 55.7333C214.298 55.7333 214.298 55.7333 203.755 55.7333C193.212 55.7333 193.212 75.0469 182.669 75.0469C172.126 75.0469 172.126 55.7333 161.583 55.7333C151.04 55.7333 151.04 75.0469 140.498 75.0469C129.955 75.0469 129.955 152.301 119.412 152.301C108.869 152.301 108.869 55.7333 98.3261 55.7333C87.7833 55.7333 87.7833 55.7333 77.2404 55.7333C66.6975 55.7333 66.6975 75.0469 56.1547 75.0469Z" fill="#F8DF1D"/>
<path d="M56.1547 75.0469C66.6975 75.0469 66.6975 152.301 77.2404 152.301C87.7833 152.301 87.7833 152.301 98.3261 152.301C108.869 152.301 108.869 152.301 119.412 152.301C129.955 152.301 129.955 75.0469 140.498 75.0469C151.04 75.0469 151.04 152.301 161.583 152.301C172.126 152.301 172.126 75.0469 182.669 75.0469C193.212 75.0469 193.212 152.301 203.755 152.301C214.298 152.301 214.298 152.301 224.84 152.301C235.383 152.301 235.383 152.301 245.926 152.301C256.469 152.301 256.469 75.0469 267.012 75.0469C277.555 75.0469 277.555 75.0469 288.098 75.0469C277.555 75.0469 277.555 75.0469 267.012 75.0469C256.469 75.0469 256.469 152.301 245.926 152.301C235.383 152.301 235.383 152.301 224.84 152.301C214.298 152.301 214.298 152.301 203.755 152.301C193.212 152.301 193.212 75.0469 182.669 75.0469C172.126 75.0469 172.126 152.301 161.583 152.301C151.04 152.301 151.04 75.0469 140.498 75.0469C129.955 75.0469 129.955 152.301 119.412 152.301C108.869 152.301 108.869 152.301 98.3261 152.301C87.7833 152.301 87.7833 152.301 77.2404 152.301C66.6975 152.301 66.6975 75.0469 56.1547 75.0469Z" fill="#F8DE1D"/>
<path d="M56.1547 75.0469C66.6975 75.0469 66.6975 152.301 77.2404 152.301C87.7833 152.301 87.7833 152.301 98.3261 152.301C108.869 152.301 108.869 152.301 119.412 152.301C129.955 152.301 129.955 75.0469 140.498 75.0469C151.04 75.0469 151.04 152.301 161.583 152.301C172.126 152.301 172.126 75.0469 182.669 75.0469C193.212 75.0469 193.212 152.301 203.755 152.301C214.298 152.301 214.298 152.301 224.84 152.301C235.383 152.301 235.383 152.301 245.926 152.301C256.469 152.301 256.469 75.0469 267.012 75.0469C277.555 75.0469 277.555 75.0469 288.098 75.0469C277.555 75.0469 277.555 75.0469 267.012 75.0469C256.469 75.0469 256.469 152.301 245.926 152.301C235.383 152.301 235.383 152.301 224.84 152.301C214.298 152.301 214.298 152.301 203.755 152.301C193.212 152.301 193.212 75.0469 182.669 75.0469C172.126 75.0469 172.126 152.301 161.583 152.301C151.04 152.301 151.04 75.0469 140.498 75.0469C129.955 75.0469 129.955 152.301 119.412 152.301C108.869 152.301 108.869 152.301 98.3261 152.301C87.7833 152.301 87.7833 152.301 77.2404 152.301C66.6975 152.301 66.6975 75.0469 56.1547 75.0469Z" fill="#F8E31C"/>
<path d="M56.1547 75.0469C66.6975 75.0469 66.6975 152.301 77.2404 152.301C87.7833 152.301 87.7833 152.301 98.3261 152.301C108.869 152.301 108.869 152.301 119.412 152.301C129.955 152.301 129.955 75.0469 140.498 75.0469C151.04 75.0469 151.04 152.301 161.583 152.301C172.126 152.301 172.126 75.0469 182.669 75.0469C193.212 75.0469 193.212 152.301 203.755 152.301C214.298 152.301 214.298 152.301 224.84 152.301C235.383 152.301 235.383 152.301 245.926 152.301C256.469 152.301 256.469 75.0469 267.012 75.0469C277.555 75.0469 277.555 75.0469 288.098 75.0469C277.555 75.0469 277.555 75.0469 267.012 75.0469C256.469 75.0469 256.469 152.301 245.926 152.301C235.383 152.301 235.383 152.301 224.84 152.301C214.298 152.301 214.298 152.301 203.755 152.301C193.212 152.301 193.212 75.0469 182.669 75.0469C172.126 75.0469 172.126 152.301 161.583 152.301C151.04 152.301 151.04 75.0469 140.498 75.0469C129.955 75.0469 129.955 152.301 119.412 152.301C108.869 152.301 108.869 152.301 98.3261 152.301C87.7833 152.301 87.7833 152.301 77.2404 152.301C66.6975 152.301 66.6975 75.0469 56.1547 75.0469Z" fill="#F8E41C"/>
<path d="M56.1547 75.0469C66.6975 75.0469 66.6975 152.301 77.2404 152.301C87.7833 152.301 87.7833 152.301 98.3261 152.301C108.869 152.301 108.869 152.301 119.412 152.301C129.955 152.301 129.955 75.0469 140.498 75.0469C151.04 75.0469 151.04 152.301 161.583 152.301C172.126 152.301 172.126 75.0469 182.669 75.0469C193.212 75.0469 193.212 152.301 203.755 152.301C214.298 152.301 214.298 152.301 224.84 152.301C235.383 152.301 235.383 152.301 245.926 152.301C256.469 152.301 256.469 75.0469 267.012 75.0469C277.555 75.0469 277.555 75.0469 288.098 75.0469C277.555 75.0469 277.555 75.0469 267.012 75.0469C256.469 75.0469 256.469 152.301 245.926 152.301C235.383 152.301 235.383 152.301 224.84 152.301C214.298 152.301 214.298 152.301 203.755 152.301C193.212 152.301 193.212 75.0469 182.669 75.0469C172.126 75.0469 172.126 152.301 161.583 152.301C151.04 152.301 151.04 75.0469 140.498 75.0469C129.955 75.0469 129.955 152.301 119.412 152.301C108.869 152.301 108.869 152.301 98.3261 152.301C87.7833 152.301 87.7833 152.301 77.2404 152.301C66.6975 152.301 66.6975 75.0469 56.1547 75.0469Z" fill="#F7DD1D"/>
<path d="M56.1547 75.0469C66.6975 75.0469 66.6975 152.301 77.2404 152.301C87.7833 152.301 87.7833 152.301 98.3261 152.301C108.869 152.301 108.869 152.301 119.412 152.301C129.955 152.301 129.955 75.0469 140.498 75.0469C151.04 75.0469 151.04 152.301 161.583 152.301C172.126 152.301 172.126 75.0469 182.669 75.0469C193.212 75.0469 193.212 152.301 203.755 152.301C214.298 152.301 214.298 152.301 224.84 152.301C235.383 152.301 235.383 152.301 245.926 152.301C256.469 152.301 256.469 75.0469 267.012 75.0469C277.555 75.0469 277.555 75.0469 288.098 75.0469C277.555 75.0469 277.555 75.0469 267.012 75.0469C256.469 75.0469 256.469 152.301 245.926 152.301C235.383 152.301 235.383 152.301 224.84 152.301C214.298 152.301 214.298 152.301 203.755 152.301C193.212 152.301 193.212 75.0469 182.669 75.0469C172.126 75.0469 172.126 152.301 161.583 152.301C151.04 152.301 151.04 75.0469 140.498 75.0469C129.955 75.0469 129.955 152.301 119.412 152.301C108.869 152.301 108.869 152.301 98.3261 152.301C87.7833 152.301 87.7833 152.301 77.2404 152.301C66.6975 152.301 66.6975 75.0469 56.1547 75.0469Z" fill="#F7DB1D"/>
<path d="M56.1547 75.0469C66.6975 75.0469 66.6975 152.301 77.2404 152.301C87.7833 152.301 87.7833 152.301 98.3261 152.301C108.869 152.301 108.869 152.301 119.412 152.301C129.955 152.301 129.955 75.0469 140.498 75.0469C151.04 75.0469 151.04 152.301 161.583 152.301C172.126 152.301 172.126 75.0469 182.669 75.0469C193.212 75.0469 193.212 152.301 203.755 152.301C214.298 152.301 214.298 152.301 224.84 152.301C235.383 152.301 235.383 152.301 245.926 152.301C256.469 152.301 256.469 75.0469 267.012 75.0469C277.555 75.0469 277.555 75.0469 288.098 75.0469C277.555 75.0469 277.555 75.0469 267.012 75.0469C256.469 75.0469 256.469 152.301 245.926 152.301C235.383 152.301 235.383 152.301 224.84 152.301C214.298 152.301 214.298 152.301 203.755 152.301C193.212 152.301 193.212 75.0469 182.669 75.0469C172.126 75.0469 172.126 152.301 161.583 152.301C151.04 152.301 151.04 75.0469 140.498 75.0469C129.955 75.0469 129.955 152.301 119.412 152.301C108.869 152.301 108.869 152.301 98.3261 152.301C87.7833 152.301 87.7833 152.301 77.2404 152.301C66.6975 152.301 66.6975 75.0469 56.1547 75.0469Z" fill="#F7D71E"/>
<path d="M56.1547 75.0469C66.6975 75.0469 66.6975 152.301 77.2404 152.301C87.7833 152.301 87.7833 152.301 98.3261 152.301C108.869 152.301 108.869 152.301 119.412 152.301C129.955 152.301 129.955 75.0469 140.498 75.0469C151.04 75.0469 151.04 152.301 161.583 152.301C172.126 152.301 172.126 75.0469 182.669 75.0469C193.212 75.0469 193.212 152.301 203.755 152.301C214.298 152.301 214.298 152.301 224.84 152.301C235.383 152.301 235.383 152.301 245.926 152.301C256.469 152.301 256.469 75.0469 267.012 75.0469C277.555 75.0469 277.555 75.0469 288.098 75.0469C277.555 75.0469 277.555 75.0469 267.012 75.0469C256.469 75.0469 256.469 152.301 245.926 152.301C235.383 152.301 235.383 152.301 224.84 152.301C214.298 152.301 214.298 152.301 203.755 152.301C193.212 152.301 193.212 75.0469 182.669 75.0469C172.126 75.0469 172.126 152.301 161.583 152.301C151.04 152.301 151.04 75.0469 140.498 75.0469C129.955 75.0469 129.955 152.301 119.412 152.301C108.869 152.301 108.869 152.301 98.3261 152.301C87.7833 152.301 87.7833 152.301 77.2404 152.301C66.6975 152.301 66.6975 75.0469 56.1547 75.0469Z" fill="#F7D61E"/>
<path d="M56.1547 75.0469C66.6975 75.0469 66.6975 152.301 77.2404 152.301C87.7833 152.301 87.7833 152.301 98.3261 152.301C108.869 152.301 108.869 152.301 119.412 152.301C129.955 152.301 129.955 75.0469 140.498 75.0469C151.04 75.0469 151.04 152.301 161.583 152.301C172.126 152.301 172.126 75.0469 182.669 75.0469C193.212 75.0469 193.212 152.301 203.755 152.301C214.298 152.301 214.298 152.301 224.84 152.301C235.383 152.301 235.383 152.301 245.926 152.301C256.469 152.301 256.469 75.0469 267.012 75.0469C277.555 75.0469 277.555 75.0469 288.098 75.0469C277.555 75.0469 277.555 75.0469 267.012 75.0469C256.469 75.0469 256.469 152.301 245.926 152.301C235.383 152.301 235.383 152.301 224.84 152.301C214.298 152.301 214.298 152.301 203.755 152.301C193.212 152.301 193.212 75.0469 182.669 75.0469C172.126 75.0469 172.126 152.301 161.583 152.301C151.04 152.301 151.04 75.0469 140.498 75.0469C129.955 75.0469 129.955 152.301 119.412 152.301C108.869 152.301 108.869 152.301 98.3261 152.301C87.7833 152.301 87.7833 152.301 77.2404 152.301C66.6975 152.301 66.6975 75.0469 56.1547 75.0469Z" fill="#F7D91E"/>
<path d="M56.1547 75.0469C66.6975 75.0469 66.6975 152.301 77.2404 152.301C87.7833 152.301 87.7833 152.301 98.3261 152.301C108.869 152.301 108.869 152.301 119.412 152.301C129.955 152.301 129.955 75.0469 140.498 75.0469C151.04 75.0469 151.04 152.301 161.583 152.301C172.126 152.301 172.126 75.0469 182.669 75.0469C193.212 75.0469 193.212 152.301 203.755 152.301C214.298 152.301 214.298 152.301 224.84 152.301C235.383 152.301 235.383 152.301 245.926 152.301C256.469 152.301 256.469 75.0469 267.012 75.0469C277.555 75.0469 277.555 75.0469 288.098 75.0469C277.555 75.0469 277.555 75.0469 267.012 75.0469C256.469 75.0469 256.469 152.301 245.926 152.301C235.383 152.301 235.383 152.301 224.84 152.301C214.298 152.301 214.298 152.301 203.755 152.301C193.212 152.301 193.212 75.0469 182.669 75.0469C172.126 75.0469 172.126 152.301 161.583 152.301C151.04 152.301 151.04 75.0469 140.498 75.0469C129.955 75.0469 129.955 152.301 119.412 152.301C108.869 152.301 108.869 152.301 98.3261 152.301C87.7833 152.301 87.7833 152.301 77.2404 152.301C66.6975 152.301 66.6975 75.0469 56.1547 75.0469Z" fill="#F7D41E"/>
<path d="M56.1547 75.0469C66.6975 75.0469 66.6975 152.301 77.2404 152.301C87.7833 152.301 87.7833 152.301 98.3261 152.301C108.869 152.301 108.869 152.301 119.412 152.301C129.955 152.301 129.955 75.0469 140.498 75.0469C151.04 75.0469 151.04 152.301 161.583 152.301C172.126 152.301 172.126 75.0469 182.669 75.0469C193.212 75.0469 193.212 152.301 203.755 152.301C214.298 152.301 214.298 152.301 224.84 152.301C235.383 152.301 235.383 152.301 245.926 152.301C256.469 152.301 256.469 75.0469 267.012 75.0469C277.555 75.0469 277.555 75.0469 288.098 75.0469C277.555 75.0469 277.555 75.0469 267.012 75.0469C256.469 75.0469 256.469 152.301 245.926 152.301C235.383 152.301 235.383 152.301 224.84 152.301C214.298 152.301 214.298 152.301 203.755 152.301C193.212 152.301 193.212 75.0469 182.669 75.0469C172.126 75.0469 172.126 152.301 161.583 152.301C151.04 152.301 151.04 75.0469 140.498 75.0469C129.955 75.0469 129.955 152.301 119.412 152.301C108.869 152.301 108.869 152.301 98.3261 152.301C87.7833 152.301 87.7833 152.301 77.2404 152.301C66.6975 152.301 66.6975 75.0469 56.1547 75.0469Z" fill="#F7D31E"/>
<path d="M56.1547 75.0469C66.6975 75.0469 66.6975 152.301 77.2404 152.301C87.7833 152.301 87.7833 152.301 98.3261 152.301C108.869 152.301 108.869 152.301 119.412 152.301C129.955 152.301 129.955 75.0469 140.498 75.0469C151.04 75.0469 151.04 152.301 161.583 152.301C172.126 152.301 172.126 75.0469 182.669 75.0469C193.212 75.0469 193.212 152.301 203.755 152.301C214.298 152.301 214.298 152.301 224.84 152.301C235.383 152.301 235.383 152.301 245.926 152.301C256.469 152.301 256.469 75.0469 267.012 75.0469C277.555 75.0469 277.555 75.0469 288.098 75.0469C277.555 75.0469 277.555 75.0469 267.012 75.0469C256.469 75.0469 256.469 152.301 245.926 152.301C235.383 152.301 235.383 152.301 224.84 152.301C214.298 152.301 214.298 152.301 203.755 152.301C193.212 152.301 193.212 75.0469 182.669 75.0469C172.126 75.0469 172.126 152.301 161.583 152.301C151.04 152.301 151.04 75.0469 140.498 75.0469C129.955 75.0469 129.955 152.301 119.412 152.301C108.869 152.301 108.869 152.301 98.3261 152.301C87.7833 152.301 87.7833 152.301 77.2404 152.301C66.6975 152.301 66.6975 75.0469 56.1547 75.0469Z" fill="#F7D21E"/>
<path d="M56.1547 75.0469C66.6975 75.0469 66.6975 152.301 77.2404 152.301C87.7833 152.301 87.7833 152.301 98.3261 152.301C108.869 152.301 108.869 152.301 119.412 152.301C129.955 152.301 129.955 75.0469 140.498 75.0469C151.04 75.0469 151.04 152.301 161.583 152.301C172.126 152.301 172.126 75.0469 182.669 75.0469C193.212 75.0469 193.212 152.301 203.755 152.301C214.298 152.301 214.298 152.301 224.84 152.301C235.383 152.301 235.383 152.301 245.926 152.301C256.469 152.301 256.469 75.0469 267.012 75.0469C277.555 75.0469 277.555 75.0469 288.098 75.0469C277.555 75.0469 277.555 75.0469 267.012 75.0469C256.469 75.0469 256.469 152.301 245.926 152.301C235.383 152.301 235.383 152.301 224.84 152.301C214.298 152.301 214.298 152.301 203.755 152.301C193.212 152.301 193.212 75.0469 182.669 75.0469C172.126 75.0469 172.126 152.301 161.583 152.301C151.04 152.301 151.04 75.0469 140.498 75.0469C129.955 75.0469 129.955 152.301 119.412 152.301C108.869 152.301 108.869 152.301 98.3261 152.301C87.7833 152.301 87.7833 152.301 77.2404 152.301C66.6975 152.301 66.6975 75.0469 56.1547 75.0469Z" fill="#F7CD1F"/>
<path d="M56.1547 75.0469C66.6975 75.0469 66.6975 152.301 77.2404 152.301C87.7833 152.301 87.7833 152.301 98.3261 152.301C108.869 152.301 108.869 152.301 119.412 152.301C129.955 152.301 129.955 75.0469 140.498 75.0469C151.04 75.0469 151.04 152.301 161.583 152.301C172.126 152.301 172.126 75.0469 182.669 75.0469C193.212 75.0469 193.212 152.301 203.755 152.301C214.298 152.301 214.298 152.301 224.84 152.301C235.383 152.301 235.383 152.301 245.926 152.301C256.469 152.301 256.469 75.0469 267.012 75.0469C277.555 75.0469 277.555 75.0469 288.098 75.0469C277.555 75.0469 277.555 75.0469 267.012 75.0469C256.469 75.0469 256.469 152.301 245.926 152.301C235.383 152.301 235.383 152.301 224.84 152.301C214.298 152.301 214.298 152.301 203.755 152.301C193.212 152.301 193.212 75.0469 182.669 75.0469C172.126 75.0469 172.126 152.301 161.583 152.301C151.04 152.301 151.04 75.0469 140.498 75.0469C129.955 75.0469 129.955 152.301 119.412 152.301C108.869 152.301 108.869 152.301 98.3261 152.301C87.7833 152.301 87.7833 152.301 77.2404 152.301C66.6975 152.301 66.6975 75.0469 56.1547 75.0469Z" fill="#F7D01E"/>
<path d="M56.1547 75.0469C66.6975 75.0469 66.6975 152.301 77.2404 152.301C87.7833 152.301 87.7833 152.301 98.3261 152.301C108.869 152.301 108.869 152.301 119.412 152.301C129.955 152.301 129.955 75.0469 140.498 75.0469C151.04 75.0469 151.04 152.301 161.583 152.301C172.126 152.301 172.126 75.0469 182.669 75.0469C193.212 75.0469 193.212 152.301 203.755 152.301C214.298 152.301 214.298 152.301 224.84 152.301C235.383 152.301 235.383 152.301 245.926 152.301C256.469 152.301 256.469 75.0469 267.012 75.0469C277.555 75.0469 277.555 75.0469 288.098 75.0469C277.555 75.0469 277.555 75.0469 267.012 75.0469C256.469 75.0469 256.469 152.301 245.926 152.301C235.383 152.301 235.383 152.301 224.84 152.301C214.298 152.301 214.298 152.301 203.755 152.301C193.212 152.301 193.212 75.0469 182.669 75.0469C172.126 75.0469 172.126 152.301 161.583 152.301C151.04 152.301 151.04 75.0469 140.498 75.0469C129.955 75.0469 129.955 152.301 119.412 152.301C108.869 152.301 108.869 152.301 98.3261 152.301C87.7833 152.301 87.7833 152.301 77.2404 152.301C66.6975 152.301 66.6975 75.0469 56.1547 75.0469Z" fill="#F7CF1E"/>
<path d="M56.1547 75.0469C66.6975 75.0469 66.6975 152.301 77.2404 152.301C87.7833 152.301 87.7833 152.301 98.3261 152.301C108.869 152.301 108.869 152.301 119.412 152.301C129.955 152.301 129.955 75.0469 140.498 75.0469C151.04 75.0469 151.04 152.301 161.583 152.301C172.126 152.301 172.126 75.0469 182.669 75.0469C193.212 75.0469 193.212 152.301 203.755 152.301C214.298 152.301 214.298 152.301 224.84 152.301C235.383 152.301 235.383 152.301 245.926 152.301C256.469 152.301 256.469 75.0469 267.012 75.0469C277.555 75.0469 277.555 75.0469 288.098 75.0469C277.555 75.0469 277.555 75.0469 267.012 75.0469C256.469 75.0469 256.469 152.301 245.926 152.301C235.383 152.301 235.383 152.301 224.84 152.301C214.298 152.301 214.298 152.301 203.755 152.301C193.212 152.301 193.212 75.0469 182.669 75.0469C172.126 75.0469 172.126 152.301 161.583 152.301C151.04 152.301 151.04 75.0469 140.498 75.0469C129.955 75.0469 129.955 152.301 119.412 152.301C108.869 152.301 108.869 152.301 98.3261 152.301C87.7833 152.301 87.7833 152.301 77.2404 152.301C66.6975 152.301 66.6975 75.0469 56.1547 75.0469Z" fill="#F6CC1F"/>
<path d="M56.1547 75.0469C66.6975 75.0469 66.6975 152.301 77.2404 152.301C87.7833 152.301 87.7833 152.301 98.3261 152.301C108.869 152.301 108.869 152.301 119.412 152.301C129.955 152.301 129.955 75.0469 140.498 75.0469C151.04 75.0469 151.04 152.301 161.583 152.301C172.126 152.301 172.126 75.0469 182.669 75.0469C193.212 75.0469 193.212 152.301 203.755 152.301C214.298 152.301 214.298 152.301 224.84 152.301C235.383 152.301 235.383 152.301 245.926 152.301C256.469 152.301 256.469 75.0469 267.012 75.0469C277.555 75.0469 277.555 75.0469 288.098 75.0469C277.555 75.0469 277.555 75.0469 267.012 75.0469C256.469 75.0469 256.469 152.301 245.926 152.301C235.383 152.301 235.383 152.301 224.84 152.301C214.298 152.301 214.298 152.301 203.755 152.301C193.212 152.301 193.212 75.0469 182.669 75.0469C172.126 75.0469 172.126 152.301 161.583 152.301C151.04 152.301 151.04 75.0469 140.498 75.0469C129.955 75.0469 129.955 152.301 119.412 152.301C108.869 152.301 108.869 152.301 98.3261 152.301C87.7833 152.301 87.7833 152.301 77.2404 152.301C66.6975 152.301 66.6975 75.0469 56.1547 75.0469Z" fill="#F6C91F"/>
<path d="M56.1547 75.0469C66.6975 75.0469 66.6975 152.301 77.2404 152.301C87.7833 152.301 87.7833 152.301 98.3261 152.301C108.869 152.301 108.869 152.301 119.412 152.301C129.955 152.301 129.955 75.0469 140.498 75.0469C151.04 75.0469 151.04 152.301 161.583 152.301C172.126 152.301 172.126 75.0469 182.669 75.0469C193.212 75.0469 193.212 152.301 203.755 152.301C214.298 152.301 214.298 152.301 224.84 152.301C235.383 152.301 235.383 152.301 245.926 152.301C256.469 152.301 256.469 75.0469 267.012 75.0469C277.555 75.0469 277.555 75.0469 288.098 75.0469C277.555 75.0469 277.555 75.0469 267.012 75.0469C256.469 75.0469 256.469 152.301 245.926 152.301C235.383 152.301 235.383 152.301 224.84 152.301C214.298 152.301 214.298 152.301 203.755 152.301C193.212 152.301 193.212 75.0469 182.669 75.0469C172.126 75.0469 172.126 152.301 161.583 152.301C151.04 152.301 151.04 75.0469 140.498 75.0469C129.955 75.0469 129.955 152.301 119.412 152.301C108.869 152.301 108.869 152.301 98.3261 152.301C87.7833 152.301 87.7833 152.301 77.2404 152.301C66.6975 152.301 66.6975 75.0469 56.1547 75.0469Z" fill="#F6C61F"/>
<path d="M56.1547 75.0469C66.6975 75.0469 66.6975 152.301 77.2404 152.301C87.7833 152.301 87.7833 152.301 98.3261 152.301C108.869 152.301 108.869 152.301 119.412 152.301C129.955 152.301 129.955 75.0469 140.498 75.0469C151.04 75.0469 151.04 152.301 161.583 152.301C172.126 152.301 172.126 75.0469 182.669 75.0469C193.212 75.0469 193.212 152.301 203.755 152.301C214.298 152.301 214.298 152.301 224.84 152.301C235.383 152.301 235.383 152.301 245.926 152.301C256.469 152.301 256.469 75.0469 267.012 75.0469C277.555 75.0469 277.555 75.0469 288.098 75.0469C277.555 75.0469 277.555 75.0469 267.012 75.0469C256.469 75.0469 256.469 152.301 245.926 152.301C235.383 152.301 235.383 152.301 224.84 152.301C214.298 152.301 214.298 152.301 203.755 152.301C193.212 152.301 193.212 75.0469 182.669 75.0469C172.126 75.0469 172.126 152.301 161.583 152.301C151.04 152.301 151.04 75.0469 140.498 75.0469C129.955 75.0469 129.955 152.301 119.412 152.301C108.869 152.301 108.869 152.301 98.3261 152.301C87.7833 152.301 87.7833 152.301 77.2404 152.301C66.6975 152.301 66.6975 75.0469 56.1547 75.0469Z" fill="#F6C41F"/>
<path d="M56.1547 75.0469C66.6975 75.0469 66.6975 152.301 77.2404 152.301C87.7833 152.301 87.7833 152.301 98.3261 152.301C108.869 152.301 108.869 152.301 119.412 152.301C129.955 152.301 129.955 75.0469 140.498 75.0469C151.04 75.0469 151.04 152.301 161.583 152.301C172.126 152.301 172.126 75.0469 182.669 75.0469C193.212 75.0469 193.212 152.301 203.755 152.301C214.298 152.301 214.298 152.301 224.84 152.301C235.383 152.301 235.383 152.301 245.926 152.301C256.469 152.301 256.469 75.0469 267.012 75.0469C277.555 75.0469 277.555 75.0469 288.098 75.0469C277.555 75.0469 277.555 75.0469 267.012 75.0469C256.469 75.0469 256.469 152.301 245.926 152.301C235.383 152.301 235.383 152.301 224.84 152.301C214.298 152.301 214.298 152.301 203.755 152.301C193.212 152.301 193.212 75.0469 182.669 75.0469C172.126 75.0469 172.126 152.301 161.583 152.301C151.04 152.301 151.04 75.0469 140.498 75.0469C129.955 75.0469 129.955 152.301 119.412 152.301C108.869 152.301 108.869 152.301 98.3261 152.301C87.7833 152.301 87.7833 152.301 77.2404 152.301C66.6975 152.301 66.6975 75.0469 56.1547 75.0469Z" fill="#F5B920"/>
<path d="M56.1547 75.0469C66.6975 75.0469 66.6975 152.301 77.2404 152.301C87.7833 152.301 87.7833 152.301 98.3261 152.301C108.869 152.301 108.869 152.301 119.412 152.301C129.955 152.301 129.955 75.0469 140.498 75.0469C151.04 75.0469 151.04 152.301 161.583 152.301C172.126 152.301 172.126 75.0469 182.669 75.0469C193.212 75.0469 193.212 152.301 203.755 152.301C214.298 152.301 214.298 152.301 224.84 152.301C235.383 152.301 235.383 152.301 245.926 152.301C256.469 152.301 256.469 75.0469 267.012 75.0469C277.555 75.0469 277.555 75.0469 288.098 75.0469C277.555 75.0469 277.555 75.0469 267.012 75.0469C256.469 75.0469 256.469 152.301 245.926 152.301C235.383 152.301 235.383 152.301 224.84 152.301C214.298 152.301 214.298 152.301 203.755 152.301C193.212 152.301 193.212 75.0469 182.669 75.0469C172.126 75.0469 172.126 152.301 161.583 152.301C151.04 152.301 151.04 75.0469 140.498 75.0469C129.955 75.0469 129.955 152.301 119.412 152.301C108.869 152.301 108.869 152.301 98.3261 152.301C87.7833 152.301 87.7833 152.301 77.2404 152.301C66.6975 152.301 66.6975 75.0469 56.1547 75.0469Z" fill="#F3B020"/>
<path d="M56.1547 75.0469C66.6975 75.0469 66.6975 152.301 77.2404 152.301C87.7833 152.301 87.7833 152.301 98.3261 152.301C108.869 152.301 108.869 152.301 119.412 152.301C129.955 152.301 129.955 75.0469 140.498 75.0469C151.04 75.0469 151.04 152.301 161.583 152.301C172.126 152.301 172.126 75.0469 182.669 75.0469C193.212 75.0469 193.212 152.301 203.755 152.301C214.298 152.301 214.298 152.301 224.84 152.301C235.383 152.301 235.383 152.301 245.926 152.301C256.469 152.301 256.469 75.0469 267.012 75.0469C277.555 75.0469 277.555 75.0469 288.098 75.0469C277.555 75.0469 277.555 75.0469 267.012 75.0469C256.469 75.0469 256.469 152.301 245.926 152.301C235.383 152.301 235.383 152.301 224.84 152.301C214.298 152.301 214.298 152.301 203.755 152.301C193.212 152.301 193.212 75.0469 182.669 75.0469C172.126 75.0469 172.126 152.301 161.583 152.301C151.04 152.301 151.04 75.0469 140.498 75.0469C129.955 75.0469 129.955 152.301 119.412 152.301C108.869 152.301 108.869 152.301 98.3261 152.301C87.7833 152.301 87.7833 152.301 77.2404 152.301C66.6975 152.301 66.6975 75.0469 56.1547 75.0469Z" fill="#F4B220"/>
<path d="M56.1547 75.0469C66.6975 75.0469 66.6975 152.301 77.2404 152.301C87.7833 152.301 87.7833 152.301 98.3261 152.301C108.869 152.301 108.869 152.301 119.412 152.301C129.955 152.301 129.955 75.0469 140.498 75.0469C151.04 75.0469 151.04 152.301 161.583 152.301C172.126 152.301 172.126 75.0469 182.669 75.0469C193.212 75.0469 193.212 152.301 203.755 152.301C214.298 152.301 214.298 152.301 224.84 152.301C235.383 152.301 235.383 152.301 245.926 152.301C256.469 152.301 256.469 75.0469 267.012 75.0469C277.555 75.0469 277.555 75.0469 288.098 75.0469C277.555 75.0469 277.555 75.0469 267.012 75.0469C256.469 75.0469 256.469 152.301 245.926 152.301C235.383 152.301 235.383 152.301 224.84 152.301C214.298 152.301 214.298 152.301 203.755 152.301C193.212 152.301 193.212 75.0469 182.669 75.0469C172.126 75.0469 172.126 152.301 161.583 152.301C151.04 152.301 151.04 75.0469 140.498 75.0469C129.955 75.0469 129.955 152.301 119.412 152.301C108.869 152.301 108.869 152.301 98.3261 152.301C87.7833 152.301 87.7833 152.301 77.2404 152.301C66.6975 152.301 66.6975 75.0469 56.1547 75.0469Z" fill="#F3AB20"/>
<path d="M56.1547 75.0469C66.6975 75.0469 66.6975 152.301 77.2404 152.301C87.7833 152.301 87.7833 152.301 98.3261 152.301C108.869 152.301 108.869 152.301 119.412 152.301C129.955 152.301 129.955 75.0469 140.498 75.0469C151.04 75.0469 151.04 152.301 161.583 152.301C172.126 152.301 172.126 75.0469 182.669 75.0469C193.212 75.0469 193.212 152.301 203.755 152.301C214.298 152.301 214.298 152.301 224.84 152.301C235.383 152.301 235.383 152.301 245.926 152.301C256.469 152.301 256.469 75.0469 267.012 75.0469C277.555 75.0469 277.555 75.0469 288.098 75.0469C277.555 75.0469 277.555 75.0469 267.012 75.0469C256.469 75.0469 256.469 152.301 245.926 152.301C235.383 152.301 235.383 152.301 224.84 152.301C214.298 152.301 214.298 152.301 203.755 152.301C193.212 152.301 193.212 75.0469 182.669 75.0469C172.126 75.0469 172.126 152.301 161.583 152.301C151.04 152.301 151.04 75.0469 140.498 75.0469C129.955 75.0469 129.955 152.301 119.412 152.301C108.869 152.301 108.869 152.301 98.3261 152.301C87.7833 152.301 87.7833 152.301 77.2404 152.301C66.6975 152.301 66.6975 75.0469 56.1547 75.0469Z" fill="#F3AC20"/>
<path d="M56.1547 75.0469C66.6975 75.0469 66.6975 152.301 77.2404 152.301C87.7833 152.301 87.7833 152.301 98.3261 152.301C108.869 152.301 108.869 152.301 119.412 152.301C129.955 152.301 129.955 75.0469 140.498 75.0469C151.04 75.0469 151.04 152.301 161.583 152.301C172.126 152.301 172.126 75.0469 182.669 75.0469C193.212 75.0469 193.212 152.301 203.755 152.301C214.298 152.301 214.298 152.301 224.84 152.301C235.383 152.301 235.383 152.301 245.926 152.301C256.469 152.301 256.469 75.0469 267.012 75.0469C277.555 75.0469 277.555 75.0469 288.098 75.0469C277.555 75.0469 277.555 75.0469 267.012 75.0469C256.469 75.0469 256.469 152.301 245.926 152.301C235.383 152.301 235.383 152.301 224.84 152.301C214.298 152.301 214.298 152.301 203.755 152.301C193.212 152.301 193.212 75.0469 182.669 75.0469C172.126 75.0469 172.126 152.301 161.583 152.301C151.04 152.301 151.04 75.0469 140.498 75.0469C129.955 75.0469 129.955 152.301 119.412 152.301C108.869 152.301 108.869 152.301 98.3261 152.301C87.7833 152.301 87.7833 152.301 77.2404 152.301C66.6975 152.301 66.6975 75.0469 56.1547 75.0469Z" fill="#F3AE20"/>
<path d="M56.1547 75.0469C66.6975 75.0469 66.6975 152.301 77.2404 152.301C87.7833 152.301 87.7833 152.301 98.3261 152.301C108.869 152.301 108.869 152.301 119.412 152.301C129.955 152.301 129.955 75.0469 140.498 75.0469C151.04 75.0469 151.04 152.301 161.583 152.301C172.126 152.301 172.126 75.0469 182.669 75.0469C193.212 75.0469 193.212 152.301 203.755 152.301C214.298 152.301 214.298 152.301 224.84 152.301C235.383 152.301 235.383 152.301 245.926 152.301C256.469 152.301 256.469 75.0469 267.012 75.0469C277.555 75.0469 277.555 75.0469 288.098 75.0469C277.555 75.0469 277.555 75.0469 267.012 75.0469C256.469 75.0469 256.469 152.301 245.926 152.301C235.383 152.301 235.383 152.301 224.84 152.301C214.298 152.301 214.298 152.301 203.755 152.301C193.212 152.301 193.212 75.0469 182.669 75.0469C172.126 75.0469 172.126 152.301 161.583 152.301C151.04 152.301 151.04 75.0469 140.498 75.0469C129.955 75.0469 129.955 152.301 119.412 152.301C108.869 152.301 108.869 152.301 98.3261 152.301C87.7833 152.301 87.7833 152.301 77.2404 152.301C66.6975 152.301 66.6975 75.0469 56.1547 75.0469Z" fill="#F4B420"/>
<path d="M56.1547 75.0469C66.6975 75.0469 66.6975 152.301 77.2404 152.301C87.7833 152.301 87.7833 152.301 98.3261 152.301C108.869 152.301 108.869 152.301 119.412 152.301C129.955 152.301 129.955 75.0469 140.498 75.0469C151.04 75.0469 151.04 152.301 161.583 152.301C172.126 152.301 172.126 75.0469 182.669 75.0469C193.212 75.0469 193.212 152.301 203.755 152.301C214.298 152.301 214.298 152.301 224.84 152.301C235.383 152.301 235.383 152.301 245.926 152.301C256.469 152.301 256.469 75.0469 267.012 75.0469C277.555 75.0469 277.555 75.0469 288.098 75.0469C277.555 75.0469 277.555 75.0469 267.012 75.0469C256.469 75.0469 256.469 152.301 245.926 152.301C235.383 152.301 235.383 152.301 224.84 152.301C214.298 152.301 214.298 152.301 203.755 152.301C193.212 152.301 193.212 75.0469 182.669 75.0469C172.126 75.0469 172.126 152.301 161.583 152.301C151.04 152.301 151.04 75.0469 140.498 75.0469C129.955 75.0469 129.955 152.301 119.412 152.301C108.869 152.301 108.869 152.301 98.3261 152.301C87.7833 152.301 87.7833 152.301 77.2404 152.301C66.6975 152.301 66.6975 75.0469 56.1547 75.0469Z" fill="#F2A720"/>
<path d="M56.1547 75.0469C66.6975 75.0469 66.6975 152.301 77.2404 152.301C87.7833 152.301 87.7833 152.301 98.3261 152.301C108.869 152.301 108.869 152.301 119.412 152.301C129.955 152.301 129.955 75.0469 140.498 75.0469C151.04 75.0469 151.04 152.301 161.583 152.301C172.126 152.301 172.126 75.0469 182.669 75.0469C193.212 75.0469 193.212 152.301 203.755 152.301C214.298 152.301 214.298 152.301 224.84 152.301C235.383 152.301 235.383 152.301 245.926 152.301C256.469 152.301 256.469 75.0469 267.012 75.0469C277.555 75.0469 277.555 75.0469 288.098 75.0469C277.555 75.0469 277.555 75.0469 267.012 75.0469C256.469 75.0469 256.469 152.301 245.926 152.301C235.383 152.301 235.383 152.301 224.84 152.301C214.298 152.301 214.298 152.301 203.755 152.301C193.212 152.301 193.212 75.0469 182.669 75.0469C172.126 75.0469 172.126 152.301 161.583 152.301C151.04 152.301 151.04 75.0469 140.498 75.0469C129.955 75.0469 129.955 152.301 119.412 152.301C108.869 152.301 108.869 152.301 98.3261 152.301C87.7833 152.301 87.7833 152.301 77.2404 152.301C66.6975 152.301 66.6975 75.0469 56.1547 75.0469Z" fill="#F19E20"/>
<path d="M56.1547 75.0469C66.6975 75.0469 66.6975 152.301 77.2404 152.301C87.7833 152.301 87.7833 152.301 98.3261 152.301C108.869 152.301 108.869 152.301 119.412 152.301C129.955 152.301 129.955 75.0469 140.498 75.0469C151.04 75.0469 151.04 152.301 161.583 152.301C172.126 152.301 172.126 75.0469 182.669 75.0469C193.212 75.0469 193.212 152.301 203.755 152.301C214.298 152.301 214.298 152.301 224.84 152.301C235.383 152.301 235.383 152.301 245.926 152.301C256.469 152.301 256.469 75.0469 267.012 75.0469C277.555 75.0469 277.555 75.0469 288.098 75.0469C277.555 75.0469 277.555 75.0469 267.012 75.0469C256.469 75.0469 256.469 152.301 245.926 152.301C235.383 152.301 235.383 152.301 224.84 152.301C214.298 152.301 214.298 152.301 203.755 152.301C193.212 152.301 193.212 75.0469 182.669 75.0469C172.126 75.0469 172.126 152.301 161.583 152.301C151.04 152.301 151.04 75.0469 140.498 75.0469C129.955 75.0469 129.955 152.301 119.412 152.301C108.869 152.301 108.869 152.301 98.3261 152.301C87.7833 152.301 87.7833 152.301 77.2404 152.301C66.6975 152.301 66.6975 75.0469 56.1547 75.0469Z" fill="#F1A020"/>
<path d="M56.1547 75.0469C66.6975 75.0469 66.6975 152.301 77.2404 152.301C87.7833 152.301 87.7833 152.301 98.3261 152.301C108.869 152.301 108.869 152.301 119.412 152.301C129.955 152.301 129.955 75.0469 140.498 75.0469C151.04 75.0469 151.04 152.301 161.583 152.301C172.126 152.301 172.126 75.0469 182.669 75.0469C193.212 75.0469 193.212 152.301 203.755 152.301C214.298 152.301 214.298 152.301 224.84 152.301C235.383 152.301 235.383 152.301 245.926 152.301C256.469 152.301 256.469 75.0469 267.012 75.0469C277.555 75.0469 277.555 75.0469 288.098 75.0469C277.555 75.0469 277.555 75.0469 267.012 75.0469C256.469 75.0469 256.469 152.301 245.926 152.301C235.383 152.301 235.383 152.301 224.84 152.301C214.298 152.301 214.298 152.301 203.755 152.301C193.212 152.301 193.212 75.0469 182.669 75.0469C172.126 75.0469 172.126 152.301 161.583 152.301C151.04 152.301 151.04 75.0469 140.498 75.0469C129.955 75.0469 129.955 152.301 119.412 152.301C108.869 152.301 108.869 152.301 98.3261 152.301C87.7833 152.301 87.7833 152.301 77.2404 152.301C66.6975 152.301 66.6975 75.0469 56.1547 75.0469Z" fill="#EC8520"/>
<path d="M56.1547 75.0469C66.6975 75.0469 66.6975 152.301 77.2404 152.301C87.7833 152.301 87.7833 152.301 98.3261 152.301C108.869 152.301 108.869 152.301 119.412 152.301C129.955 152.301 129.955 75.0469 140.498 75.0469C151.04 75.0469 151.04 152.301 161.583 152.301C172.126 152.301 172.126 75.0469 182.669 75.0469C193.212 75.0469 193.212 152.301 203.755 152.301C214.298 152.301 214.298 152.301 224.84 152.301C235.383 152.301 235.383 152.301 245.926 152.301C256.469 152.301 256.469 75.0469 267.012 75.0469C277.555 75.0469 277.555 75.0469 288.098 75.0469C277.555 75.0469 277.555 75.0469 267.012 75.0469C256.469 75.0469 256.469 152.301 245.926 152.301C235.383 152.301 235.383 152.301 224.84 152.301C214.298 152.301 214.298 152.301 203.755 152.301C193.212 152.301 193.212 75.0469 182.669 75.0469C172.126 75.0469 172.126 152.301 161.583 152.301C151.04 152.301 151.04 75.0469 140.498 75.0469C129.955 75.0469 129.955 152.301 119.412 152.301C108.869 152.301 108.869 152.301 98.3261 152.301C87.7833 152.301 87.7833 152.301 77.2404 152.301C66.6975 152.301 66.6975 75.0469 56.1547 75.0469Z" fill="#EE8C20"/>
<path d="M56.1547 75.0469C66.6975 75.0469 66.6975 152.301 77.2404 152.301C87.7833 152.301 87.7833 152.301 98.3261 152.301C108.869 152.301 108.869 152.301 119.412 152.301C129.955 152.301 129.955 75.0469 140.498 75.0469C151.04 75.0469 151.04 152.301 161.583 152.301C172.126 152.301 172.126 75.0469 182.669 75.0469C193.212 75.0469 193.212 152.301 203.755 152.301C214.298 152.301 214.298 152.301 224.84 152.301C235.383 152.301 235.383 152.301 245.926 152.301C256.469 152.301 256.469 75.0469 267.012 75.0469C277.555 75.0469 277.555 75.0469 288.098 75.0469C277.555 75.0469 277.555 75.0469 267.012 75.0469C256.469 75.0469 256.469 152.301 245.926 152.301C235.383 152.301 235.383 152.301 224.84 152.301C214.298 152.301 214.298 152.301 203.755 152.301C193.212 152.301 193.212 75.0469 182.669 75.0469C172.126 75.0469 172.126 152.301 161.583 152.301C151.04 152.301 151.04 75.0469 140.498 75.0469C129.955 75.0469 129.955 152.301 119.412 152.301C108.869 152.301 108.869 152.301 98.3261 152.301C87.7833 152.301 87.7833 152.301 77.2404 152.301C66.6975 152.301 66.6975 75.0469 56.1547 75.0469Z" fill="#E6641F"/>
<path d="M56.1547 75.0469C66.6975 75.0469 66.6975 152.301 77.2404 152.301C87.7833 152.301 87.7833 152.301 98.3261 152.301C108.869 152.301 108.869 152.301 119.412 152.301C129.955 152.301 129.955 75.0469 140.498 75.0469C151.04 75.0469 151.04 152.301 161.583 152.301C172.126 152.301 172.126 75.0469 182.669 75.0469C193.212 75.0469 193.212 152.301 203.755 152.301C214.298 152.301 214.298 152.301 224.84 152.301C235.383 152.301 235.383 152.301 245.926 152.301C256.469 152.301 256.469 75.0469 267.012 75.0469C277.555 75.0469 277.555 75.0469 288.098 75.0469C277.555 75.0469 277.555 75.0469 267.012 75.0469C256.469 75.0469 256.469 152.301 245.926 152.301C235.383 152.301 235.383 152.301 224.84 152.301C214.298 152.301 214.298 152.301 203.755 152.301C193.212 152.301 193.212 75.0469 182.669 75.0469C172.126 75.0469 172.126 152.301 161.583 152.301C151.04 152.301 151.04 75.0469 140.498 75.0469C129.955 75.0469 129.955 152.301 119.412 152.301C108.869 152.301 108.869 152.301 98.3261 152.301C87.7833 152.301 87.7833 152.301 77.2404 152.301C66.6975 152.301 66.6975 75.0469 56.1547 75.0469Z" fill="#E0491E"/>
<path d="M56.1547 75.0469C66.6975 75.0469 66.6975 152.301 77.2404 152.301C87.7833 152.301 87.7833 152.301 98.3261 152.301C108.869 152.301 108.869 152.301 119.412 152.301C129.955 152.301 129.955 75.0469 140.498 75.0469C151.04 75.0469 151.04 152.301 161.583 152.301C172.126 152.301 172.126 75.0469 182.669 75.0469C193.212 75.0469 193.212 152.301 203.755 152.301C214.298 152.301 214.298 152.301 224.84 152.301C235.383 152.301 235.383 152.301 245.926 152.301C256.469 152.301 256.469 75.0469 267.012 75.0469C277.555 75.0469 277.555 75.0469 288.098 75.0469C277.555 75.0469 277.555 75.0469 267.012 75.0469C256.469 75.0469 256.469 152.301 245.926 152.301C235.383 152.301 235.383 152.301 224.84 152.301C214.298 152.301 214.298 152.301 203.755 152.301C193.212 152.301 193.212 75.0469 182.669 75.0469C172.126 75.0469 172.126 152.301 161.583 152.301C151.04 152.301 151.04 75.0469 140.498 75.0469C129.955 75.0469 129.955 152.301 119.412 152.301C108.869 152.301 108.869 152.301 98.3261 152.301C87.7833 152.301 87.7833 152.301 77.2404 152.301C66.6975 152.301 66.6975 75.0469 56.1547 75.0469Z" fill="#E04C1E"/>
<path d="M56.1547 75.0469C66.6975 75.0469 66.6975 152.301 77.2404 152.301C87.7833 152.301 87.7833 152.301 98.3261 152.301C108.869 152.301 108.869 152.301 119.412 152.301C129.955 152.301 129.955 75.0469 140.498 75.0469C151.04 75.0469 151.04 152.301 161.583 152.301C172.126 152.301 172.126 75.0469 182.669 75.0469C193.212 75.0469 193.212 152.301 203.755 152.301C214.298 152.301 214.298 152.301 224.84 152.301C235.383 152.301 235.383 152.301 245.926 152.301C256.469 152.301 256.469 75.0469 267.012 75.0469C277.555 75.0469 277.555 75.0469 288.098 75.0469C277.555 75.0469 277.555 75.0469 267.012 75.0469C256.469 75.0469 256.469 152.301 245.926 152.301C235.383 152.301 235.383 152.301 224.84 152.301C214.298 152.301 214.298 152.301 203.755 152.301C193.212 152.301 193.212 75.0469 182.669 75.0469C172.126 75.0469 172.126 152.301 161.583 152.301C151.04 152.301 151.04 75.0469 140.498 75.0469C129.955 75.0469 129.955 152.301 119.412 152.301C108.869 152.301 108.869 152.301 98.3261 152.301C87.7833 152.301 87.7833 152.301 77.2404 152.301C66.6975 152.301 66.6975 75.0469 56.1547 75.0469Z" fill="#D0021B"/>
<path d="M56.1547 75.0469C66.6975 75.0469 66.6975 152.301 77.2404 152.301C87.7833 152.301 87.7833 152.301 98.3261 152.301C108.869 152.301 108.869 152.301 119.412 152.301C129.955 152.301 129.955 75.0469 140.498 75.0469C151.04 75.0469 151.04 152.301 161.583 152.301C172.126 152.301 172.126 75.0469 182.669 75.0469C193.212 75.0469 193.212 152.301 203.755 152.301C214.298 152.301 214.298 152.301 224.84 152.301C235.383 152.301 235.383 152.301 245.926 152.301C256.469 152.301 256.469 75.0469 267.012 75.0469C277.555 75.0469 277.555 75.0469 288.098 75.0469C277.555 75.0469 277.555 75.0469 267.012 75.0469C256.469 75.0469 256.469 152.301 245.926 152.301C235.383 152.301 235.383 152.301 224.84 152.301C214.298 152.301 214.298 152.301 203.755 152.301C193.212 152.301 193.212 75.0469 182.669 75.0469C172.126 75.0469 172.126 152.301 161.583 152.301C151.04 152.301 151.04 75.0469 140.498 75.0469C129.955 75.0469 129.955 152.301 119.412 152.301C108.869 152.301 108.869 152.301 98.3261 152.301C87.7833 152.301 87.7833 152.301 77.2404 152.301C66.6975 152.301 66.6975 75.0469 56.1547 75.0469Z" fill="#D5191C"/>
<path d="M56.1547 75.0469C66.6975 75.0469 66.6975 152.301 77.2404 152.301C87.7833 152.301 87.7833 152.301 98.3261 152.301C108.869 152.301 108.869 152.301 119.412 152.301C129.955 152.301 129.955 75.0469 140.498 75.0469C151.04 75.0469 151.04 152.301 161.583 152.301C172.126 152.301 172.126 75.0469 182.669 75.0469C193.212 75.0469 193.212 152.301 203.755 152.301C214.298 152.301 214.298 152.301 224.84 152.301C235.383 152.301 235.383 152.301 245.926 152.301C256.469 152.301 256.469 75.0469 267.012 75.0469C277.555 75.0469 277.555 75.0469 288.098 75.0469C277.555 75.0469 277.555 75.0469 267.012 75.0469C256.469 75.0469 256.469 152.301 245.926 152.301C235.383 152.301 235.383 152.301 224.84 152.301C214.298 152.301 214.298 152.301 203.755 152.301C193.212 152.301 193.212 75.0469 182.669 75.0469C172.126 75.0469 172.126 152.301 161.583 152.301C151.04 152.301 151.04 75.0469 140.498 75.0469C129.955 75.0469 129.955 152.301 119.412 152.301C108.869 152.301 108.869 152.301 98.3261 152.301C87.7833 152.301 87.7833 152.301 77.2404 152.301C66.6975 152.301 66.6975 75.0469 56.1547 75.0469Z" fill="#E2521F"/>
<path d="M56.1547 75.0469C66.6975 75.0469 66.6975 152.301 77.2404 152.301C87.7833 152.301 87.7833 152.301 98.3261 152.301C108.869 152.301 108.869 152.301 119.412 152.301C129.955 152.301 129.955 75.0469 140.498 75.0469C151.04 75.0469 151.04 152.301 161.583 152.301C172.126 152.301 172.126 75.0469 182.669 75.0469C193.212 75.0469 193.212 152.301 203.755 152.301C214.298 152.301 214.298 152.301 224.84 152.301C235.383 152.301 235.383 152.301 245.926 152.301C256.469 152.301 256.469 75.0469 267.012 75.0469C277.555 75.0469 277.555 75.0469 288.098 75.0469C277.555 75.0469 277.555 75.0469 267.012 75.0469C256.469 75.0469 256.469 152.301 245.926 152.301C235.383 152.301 235.383 152.301 224.84 152.301C214.298 152.301 214.298 152.301 203.755 152.301C193.212 152.301 193.212 75.0469 182.669 75.0469C172.126 75.0469 172.126 152.301 161.583 152.301C151.04 152.301 151.04 75.0469 140.498 75.0469C129.955 75.0469 129.955 152.301 119.412 152.301C108.869 152.301 108.869 152.301 98.3261 152.301C87.7833 152.301 87.7833 152.301 77.2404 152.301C66.6975 152.301 66.6975 75.0469 56.1547 75.0469Z" fill="#E6671F"/>
<path d="M56.1547 75.0469C66.6975 75.0469 66.6975 152.301 77.2404 152.301C87.7833 152.301 87.7833 152.301 98.3261 152.301C108.869 152.301 108.869 152.301 119.412 152.301C129.955 152.301 129.955 75.0469 140.498 75.0469C151.04 75.0469 151.04 152.301 161.583 152.301C172.126 152.301 172.126 75.0469 182.669 75.0469C193.212 75.0469 193.212 152.301 203.755 152.301C214.298 152.301 214.298 152.301 224.84 152.301C235.383 152.301 235.383 152.301 245.926 152.301C256.469 152.301 256.469 75.0469 267.012 75.0469C277.555 75.0469 277.555 75.0469 288.098 75.0469C277.555 75.0469 277.555 75.0469 267.012 75.0469C256.469 75.0469 256.469 152.301 245.926 152.301C235.383 152.301 235.383 152.301 224.84 152.301C214.298 152.301 214.298 152.301 203.755 152.301C193.212 152.301 193.212 75.0469 182.669 75.0469C172.126 75.0469 172.126 152.301 161.583 152.301C151.04 152.301 151.04 75.0469 140.498 75.0469C129.955 75.0469 129.955 152.301 119.412 152.301C108.869 152.301 108.869 152.301 98.3261 152.301C87.7833 152.301 87.7833 152.301 77.2404 152.301C66.6975 152.301 66.6975 75.0469 56.1547 75.0469Z" fill="#F09821"/>
<path d="M56.1547 75.0469C66.6975 75.0469 66.6975 152.301 77.2404 152.301C87.7833 152.301 87.7833 152.301 98.3261 152.301C108.869 152.301 108.869 152.301 119.412 152.301C129.955 152.301 129.955 75.0469 140.498 75.0469C151.04 75.0469 151.04 152.301 161.583 152.301C172.126 152.301 172.126 75.0469 182.669 75.0469C193.212 75.0469 193.212 152.301 203.755 152.301C214.298 152.301 214.298 152.301 224.84 152.301C235.383 152.301 235.383 152.301 245.926 152.301C256.469 152.301 256.469 75.0469 267.012 75.0469C277.555 75.0469 277.555 75.0469 288.098 75.0469C277.555 75.0469 277.555 75.0469 267.012 75.0469C256.469 75.0469 256.469 152.301 245.926 152.301C235.383 152.301 235.383 152.301 224.84 152.301C214.298 152.301 214.298 152.301 203.755 152.301C193.212 152.301 193.212 75.0469 182.669 75.0469C172.126 75.0469 172.126 152.301 161.583 152.301C151.04 152.301 151.04 75.0469 140.498 75.0469C129.955 75.0469 129.955 152.301 119.412 152.301C108.869 152.301 108.869 152.301 98.3261 152.301C87.7833 152.301 87.7833 152.301 77.2404 152.301C66.6975 152.301 66.6975 75.0469 56.1547 75.0469Z" fill="#E97520"/>
<path d="M56.1547 75.0469C66.6975 75.0469 66.6975 152.301 77.2404 152.301C87.7833 152.301 87.7833 152.301 98.3261 152.301C108.869 152.301 108.869 152.301 119.412 152.301C129.955 152.301 129.955 75.0469 140.498 75.0469C151.04 75.0469 151.04 152.301 161.583 152.301C172.126 152.301 172.126 75.0469 182.669 75.0469C193.212 75.0469 193.212 152.301 203.755 152.301C214.298 152.301 214.298 152.301 224.84 152.301C235.383 152.301 235.383 152.301 245.926 152.301C256.469 152.301 256.469 75.0469 267.012 75.0469C277.555 75.0469 277.555 75.0469 288.098 75.0469C277.555 75.0469 277.555 75.0469 267.012 75.0469C256.469 75.0469 256.469 152.301 245.926 152.301C235.383 152.301 235.383 152.301 224.84 152.301C214.298 152.301 214.298 152.301 203.755 152.301C193.212 152.301 193.212 75.0469 182.669 75.0469C172.126 75.0469 172.126 152.301 161.583 152.301C151.04 152.301 151.04 75.0469 140.498 75.0469C129.955 75.0469 129.955 152.301 119.412 152.301C108.869 152.301 108.869 152.301 98.3261 152.301C87.7833 152.301 87.7833 152.301 77.2404 152.301C66.6975 152.301 66.6975 75.0469 56.1547 75.0469Z" fill="#E45E1F"/>
<path d="M56.1547 75.0469C66.6975 75.0469 66.6975 152.301 77.2404 152.301C87.7833 152.301 87.7833 152.301 98.3261 152.301C108.869 152.301 108.869 152.301 119.412 152.301C129.955 152.301 129.955 75.0469 140.498 75.0469C151.04 75.0469 151.04 152.301 161.583 152.301C172.126 152.301 172.126 75.0469 182.669 75.0469C193.212 75.0469 193.212 152.301 203.755 152.301C214.298 152.301 214.298 152.301 224.84 152.301C235.383 152.301 235.383 152.301 245.926 152.301C256.469 152.301 256.469 75.0469 267.012 75.0469C277.555 75.0469 277.555 75.0469 288.098 75.0469C277.555 75.0469 277.555 75.0469 267.012 75.0469C256.469 75.0469 256.469 152.301 245.926 152.301C235.383 152.301 235.383 152.301 224.84 152.301C214.298 152.301 214.298 152.301 203.755 152.301C193.212 152.301 193.212 75.0469 182.669 75.0469C172.126 75.0469 172.126 152.301 161.583 152.301C151.04 152.301 151.04 75.0469 140.498 75.0469C129.955 75.0469 129.955 152.301 119.412 152.301C108.869 152.301 108.869 152.301 98.3261 152.301C87.7833 152.301 87.7833 152.301 77.2404 152.301C66.6975 152.301 66.6975 75.0469 56.1547 75.0469Z" fill="#E2551F"/>
<path d="M56.1547 75.0469C66.6975 75.0469 66.6975 152.301 77.2404 152.301C87.7833 152.301 87.7833 152.301 98.3261 152.301C108.869 152.301 108.869 152.301 119.412 152.301C129.955 152.301 129.955 75.0469 140.498 75.0469C151.04 75.0469 151.04 152.301 161.583 152.301C172.126 152.301 172.126 75.0469 182.669 75.0469C193.212 75.0469 193.212 152.301 203.755 152.301C214.298 152.301 214.298 152.301 224.84 152.301C235.383 152.301 235.383 152.301 245.926 152.301C256.469 152.301 256.469 75.0469 267.012 75.0469C277.555 75.0469 277.555 75.0469 288.098 75.0469C277.555 75.0469 277.555 75.0469 267.012 75.0469C256.469 75.0469 256.469 152.301 245.926 152.301C235.383 152.301 235.383 152.301 224.84 152.301C214.298 152.301 214.298 152.301 203.755 152.301C193.212 152.301 193.212 75.0469 182.669 75.0469C172.126 75.0469 172.126 152.301 161.583 152.301C151.04 152.301 151.04 75.0469 140.498 75.0469C129.955 75.0469 129.955 152.301 119.412 152.301C108.869 152.301 108.869 152.301 98.3261 152.301C87.7833 152.301 87.7833 152.301 77.2404 152.301C66.6975 152.301 66.6975 75.0469 56.1547 75.0469Z" fill="#EF9120"/>
<path d="M56.1547 75.0469C66.6975 75.0469 66.6975 152.301 77.2404 152.301C87.7833 152.301 87.7833 152.301 98.3261 152.301C108.869 152.301 108.869 152.301 119.412 152.301C129.955 152.301 129.955 75.0469 140.498 75.0469C151.04 75.0469 151.04 152.301 161.583 152.301C172.126 152.301 172.126 75.0469 182.669 75.0469C193.212 75.0469 193.212 152.301 203.755 152.301C214.298 152.301 214.298 152.301 224.84 152.301C235.383 152.301 235.383 152.301 245.926 152.301C256.469 152.301 256.469 75.0469 267.012 75.0469C277.555 75.0469 277.555 75.0469 288.098 75.0469C277.555 75.0469 277.555 75.0469 267.012 75.0469C256.469 75.0469 256.469 152.301 245.926 152.301C235.383 152.301 235.383 152.301 224.84 152.301C214.298 152.301 214.298 152.301 203.755 152.301C193.212 152.301 193.212 75.0469 182.669 75.0469C172.126 75.0469 172.126 152.301 161.583 152.301C151.04 152.301 151.04 75.0469 140.498 75.0469C129.955 75.0469 129.955 152.301 119.412 152.301C108.869 152.301 108.869 152.301 98.3261 152.301C87.7833 152.301 87.7833 152.301 77.2404 152.301C66.6975 152.301 66.6975 75.0469 56.1547 75.0469Z" fill="#F09C21"/>
<path d="M56.1547 75.0469C66.6975 75.0469 66.6975 152.301 77.2404 152.301C87.7833 152.301 87.7833 152.301 98.3261 152.301C108.869 152.301 108.869 152.301 119.412 152.301C129.955 152.301 129.955 75.0469 140.498 75.0469C151.04 75.0469 151.04 152.301 161.583 152.301C172.126 152.301 172.126 75.0469 182.669 75.0469C193.212 75.0469 193.212 152.301 203.755 152.301C214.298 152.301 214.298 152.301 224.84 152.301C235.383 152.301 235.383 152.301 245.926 152.301C256.469 152.301 256.469 75.0469 267.012 75.0469C277.555 75.0469 277.555 75.0469 288.098 75.0469C277.555 75.0469 277.555 75.0469 267.012 75.0469C256.469 75.0469 256.469 152.301 245.926 152.301C235.383 152.301 235.383 152.301 224.84 152.301C214.298 152.301 214.298 152.301 203.755 152.301C193.212 152.301 193.212 75.0469 182.669 75.0469C172.126 75.0469 172.126 152.301 161.583 152.301C151.04 152.301 151.04 75.0469 140.498 75.0469C129.955 75.0469 129.955 152.301 119.412 152.301C108.869 152.301 108.869 152.301 98.3261 152.301C87.7833 152.301 87.7833 152.301 77.2404 152.301C66.6975 152.301 66.6975 75.0469 56.1547 75.0469Z" fill="#F2A920"/>
<path d="M56.1547 75.0469C66.6975 75.0469 66.6975 152.301 77.2404 152.301C87.7833 152.301 87.7833 152.301 98.3261 152.301C108.869 152.301 108.869 152.301 119.412 152.301C129.955 152.301 129.955 75.0469 140.498 75.0469C151.04 75.0469 151.04 152.301 161.583 152.301C172.126 152.301 172.126 75.0469 182.669 75.0469C193.212 75.0469 193.212 152.301 203.755 152.301C214.298 152.301 214.298 152.301 224.84 152.301C235.383 152.301 235.383 152.301 245.926 152.301C256.469 152.301 256.469 75.0469 267.012 75.0469C277.555 75.0469 277.555 75.0469 288.098 75.0469C277.555 75.0469 277.555 75.0469 267.012 75.0469C256.469 75.0469 256.469 152.301 245.926 152.301C235.383 152.301 235.383 152.301 224.84 152.301C214.298 152.301 214.298 152.301 203.755 152.301C193.212 152.301 193.212 75.0469 182.669 75.0469C172.126 75.0469 172.126 152.301 161.583 152.301C151.04 152.301 151.04 75.0469 140.498 75.0469C129.955 75.0469 129.955 152.301 119.412 152.301C108.869 152.301 108.869 152.301 98.3261 152.301C87.7833 152.301 87.7833 152.301 77.2404 152.301C66.6975 152.301 66.6975 75.0469 56.1547 75.0469Z" fill="#F4B720"/>
<path d="M56.1547 75.0469C66.6975 75.0469 66.6975 152.301 77.2404 152.301C87.7833 152.301 87.7833 152.301 98.3261 152.301C108.869 152.301 108.869 152.301 119.412 152.301C129.955 152.301 129.955 75.0469 140.498 75.0469C151.04 75.0469 151.04 152.301 161.583 152.301C172.126 152.301 172.126 75.0469 182.669 75.0469C193.212 75.0469 193.212 152.301 203.755 152.301C214.298 152.301 214.298 152.301 224.84 152.301C235.383 152.301 235.383 152.301 245.926 152.301C256.469 152.301 256.469 75.0469 267.012 75.0469C277.555 75.0469 277.555 75.0469 288.098 75.0469C277.555 75.0469 277.555 75.0469 267.012 75.0469C256.469 75.0469 256.469 152.301 245.926 152.301C235.383 152.301 235.383 152.301 224.84 152.301C214.298 152.301 214.298 152.301 203.755 152.301C193.212 152.301 193.212 75.0469 182.669 75.0469C172.126 75.0469 172.126 152.301 161.583 152.301C151.04 152.301 151.04 75.0469 140.498 75.0469C129.955 75.0469 129.955 152.301 119.412 152.301C108.869 152.301 108.869 152.301 98.3261 152.301C87.7833 152.301 87.7833 152.301 77.2404 152.301C66.6975 152.301 66.6975 75.0469 56.1547 75.0469Z" fill="#F2A520"/>
<path d="M56.1546 152.301H288.098" stroke="black"/>
<path d="M56.1546 152.301V158.923" stroke="black"/>
<path d="M57.14 161.76V169.033H56.2594V162.684H56.2167L54.4412 163.863V162.968L56.2594 161.76H57.14Z" fill="black"/>
<path d="M77.2404 152.301V158.923" stroke="black"/>
<path d="M74.9658 169.033V168.394L77.3664 165.766C77.6481 165.458 77.8801 165.191 78.0624 164.964C78.2447 164.734 78.3797 164.519 78.4673 164.317C78.5572 164.114 78.6022 163.901 78.6022 163.678C78.6022 163.422 78.5407 163.201 78.4175 163.014C78.2968 162.827 78.1311 162.683 77.9204 162.581C77.7097 162.479 77.4729 162.428 77.2102 162.428C76.9308 162.428 76.687 162.486 76.4786 162.602C76.2727 162.716 76.1129 162.876 75.9992 163.081C75.888 163.287 75.8323 163.529 75.8323 163.806H74.9943C74.9943 163.38 75.0925 163.006 75.289 162.684C75.4855 162.362 75.753 162.111 76.0916 161.931C76.4325 161.751 76.8148 161.661 77.2386 161.661C77.6647 161.661 78.0423 161.751 78.3714 161.931C78.7005 162.111 78.9585 162.353 79.1455 162.659C79.3326 162.964 79.4261 163.304 79.4261 163.678C79.4261 163.946 79.3775 164.207 79.2805 164.463C79.1858 164.716 79.0201 164.999 78.7833 165.312C78.5489 165.622 78.2234 166.001 77.8068 166.448L76.1732 168.195V168.252H79.5539V169.033H74.9658Z" fill="black"/>
<path d="M98.3261 152.301V158.923" stroke="black"/>
<path d="M98.3527 169.133C97.884 169.133 97.4661 169.052 97.0992 168.891C96.7346 168.73 96.4446 168.506 96.2292 168.22C96.0161 167.931 95.9001 167.596 95.8811 167.215H96.776C96.795 167.449 96.8755 167.652 97.0175 167.822C97.1596 167.99 97.3454 168.121 97.575 168.213C97.8047 168.305 98.0592 168.351 98.3385 168.351C98.651 168.351 98.928 168.297 99.1695 168.188C99.411 168.079 99.6004 167.928 99.7377 167.733C99.875 167.539 99.9436 167.314 99.9436 167.059C99.9436 166.791 99.8774 166.556 99.7448 166.352C99.6122 166.146 99.4181 165.985 99.1624 165.869C98.9067 165.753 98.5942 165.695 98.2249 165.695H97.6425V164.914H98.2249C98.5137 164.914 98.767 164.862 98.9848 164.758C99.205 164.653 99.3766 164.507 99.4998 164.317C99.6252 164.128 99.688 163.905 99.688 163.65C99.688 163.403 99.6335 163.189 99.5246 163.007C99.4157 162.825 99.2618 162.683 99.063 162.581C98.8665 162.479 98.6345 162.428 98.3669 162.428C98.116 162.428 97.8793 162.474 97.6567 162.567C97.4365 162.657 97.2566 162.788 97.1169 162.961C96.9773 163.131 96.9015 163.337 96.8897 163.579H96.0374C96.0516 163.197 96.1664 162.864 96.3819 162.577C96.5973 162.288 96.879 162.063 97.227 161.903C97.5774 161.742 97.9621 161.661 98.3811 161.661C98.831 161.661 99.2168 161.752 99.5388 161.934C99.8608 162.114 100.108 162.352 100.281 162.648C100.454 162.944 100.54 163.264 100.54 163.607C100.54 164.017 100.433 164.366 100.217 164.655C100.004 164.943 99.714 165.144 99.3471 165.255V165.312C99.8063 165.387 100.165 165.583 100.423 165.898C100.681 166.21 100.81 166.597 100.81 167.059C100.81 167.454 100.702 167.809 100.487 168.124C100.274 168.437 99.9827 168.683 99.6134 168.863C99.2441 169.043 98.8239 169.133 98.3527 169.133Z" fill="black"/>
<path d="M119.412 152.301V158.923" stroke="black"/>
<path d="M116.786 167.542V166.817L119.982 161.76H120.508V162.883H120.153L117.738 166.704V166.76H122.042V167.542H116.786ZM120.209 169.033V167.322V166.984V161.76H121.048V169.033H120.209Z" fill="black"/>
<path d="M140.498 152.301V158.923" stroke="black"/>
<path d="M140.481 169.133C140.064 169.133 139.689 169.05 139.355 168.884C139.022 168.718 138.754 168.491 138.553 168.202C138.352 167.913 138.241 167.584 138.223 167.215H139.075C139.108 167.544 139.257 167.816 139.522 168.032C139.79 168.245 140.109 168.351 140.481 168.351C140.779 168.351 141.045 168.282 141.277 168.142C141.511 168.002 141.694 167.81 141.827 167.567C141.962 167.32 142.029 167.042 142.029 166.732C142.029 166.415 141.96 166.132 141.82 165.883C141.683 165.632 141.493 165.435 141.252 165.29C141.01 165.146 140.734 165.072 140.424 165.07C140.202 165.068 139.973 165.102 139.739 165.173C139.505 165.242 139.312 165.331 139.16 165.439L138.336 165.34L138.777 161.76H142.555V162.542H139.515L139.259 164.687H139.302C139.451 164.568 139.638 164.47 139.863 164.392C140.088 164.314 140.322 164.275 140.566 164.275C141.011 164.275 141.408 164.381 141.756 164.594C142.106 164.805 142.381 165.094 142.58 165.461C142.781 165.828 142.882 166.247 142.882 166.718C142.882 167.182 142.777 167.596 142.569 167.961C142.363 168.323 142.079 168.609 141.717 168.82C141.355 169.028 140.943 169.133 140.481 169.133Z" fill="black"/>
<path d="M161.583 152.301V158.923" stroke="black"/>
<path d="M161.631 169.133C161.333 169.128 161.034 169.071 160.736 168.962C160.438 168.853 160.165 168.67 159.919 168.412C159.673 168.151 159.475 167.8 159.326 167.357C159.177 166.912 159.102 166.353 159.102 165.681C159.102 165.037 159.163 164.466 159.283 163.969C159.404 163.47 159.579 163.05 159.809 162.709C160.039 162.365 160.316 162.105 160.64 161.927C160.967 161.75 161.335 161.661 161.744 161.661C162.152 161.661 162.514 161.743 162.831 161.906C163.151 162.067 163.411 162.292 163.612 162.581C163.814 162.87 163.944 163.202 164.003 163.579H163.136C163.056 163.252 162.9 162.981 162.668 162.765C162.436 162.55 162.128 162.442 161.744 162.442C161.181 162.442 160.737 162.687 160.413 163.177C160.091 163.667 159.929 164.355 159.926 165.241H159.983C160.116 165.039 160.273 164.868 160.455 164.726C160.64 164.581 160.844 164.47 161.066 164.392C161.289 164.314 161.524 164.275 161.773 164.275C162.19 164.275 162.571 164.379 162.916 164.587C163.262 164.793 163.539 165.078 163.747 165.443C163.956 165.805 164.06 166.221 164.06 166.689C164.06 167.139 163.959 167.551 163.758 167.925C163.557 168.297 163.274 168.593 162.909 168.813C162.547 169.031 162.121 169.137 161.631 169.133ZM161.631 168.351C161.929 168.351 162.197 168.277 162.433 168.128C162.672 167.979 162.861 167.778 162.998 167.528C163.138 167.277 163.208 166.997 163.208 166.689C163.208 166.389 163.14 166.115 163.005 165.869C162.873 165.621 162.689 165.423 162.455 165.276C162.223 165.129 161.958 165.056 161.659 165.056C161.434 165.056 161.225 165.101 161.031 165.191C160.837 165.278 160.666 165.399 160.519 165.553C160.375 165.707 160.261 165.883 160.178 166.082C160.096 166.279 160.054 166.486 160.054 166.704C160.054 166.992 160.122 167.262 160.257 167.513C160.394 167.764 160.581 167.967 160.818 168.121C161.057 168.274 161.328 168.351 161.631 168.351Z" fill="black"/>
<path d="M182.669 152.301V158.923" stroke="black"/>
<path d="M180.793 169.033L184.045 162.599V162.542H180.295V161.76H184.955V162.584L181.716 169.033H180.793Z" fill="black"/>
<path d="M203.755 152.301V158.923" stroke="black"/>
<path d="M203.756 169.133C203.268 169.133 202.837 169.046 202.463 168.873C202.092 168.698 201.802 168.458 201.593 168.153C201.385 167.845 201.282 167.494 201.284 167.101C201.282 166.794 201.342 166.51 201.466 166.249C201.589 165.986 201.757 165.767 201.97 165.592C202.185 165.415 202.426 165.302 202.691 165.255V165.212C202.343 165.122 202.066 164.927 201.86 164.626C201.654 164.323 201.552 163.979 201.554 163.593C201.552 163.224 201.645 162.893 201.835 162.602C202.024 162.311 202.285 162.081 202.616 161.913C202.95 161.745 203.33 161.661 203.756 161.661C204.177 161.661 204.554 161.745 204.885 161.913C205.217 162.081 205.477 162.311 205.667 162.602C205.858 162.893 205.955 163.224 205.958 163.593C205.955 163.979 205.85 164.323 205.642 164.626C205.436 164.927 205.162 165.122 204.821 165.212V165.255C205.084 165.302 205.321 165.415 205.532 165.592C205.742 165.767 205.91 165.986 206.036 166.249C206.161 166.51 206.225 166.794 206.228 167.101C206.225 167.494 206.119 167.845 205.908 168.153C205.7 168.458 205.41 168.698 205.038 168.873C204.669 169.046 204.241 169.133 203.756 169.133ZM203.756 168.351C204.085 168.351 204.369 168.298 204.608 168.192C204.847 168.085 205.032 167.935 205.162 167.741C205.292 167.546 205.359 167.319 205.361 167.059C205.359 166.784 205.288 166.541 205.148 166.331C205.008 166.12 204.818 165.954 204.576 165.834C204.337 165.713 204.064 165.653 203.756 165.653C203.446 165.653 203.169 165.713 202.925 165.834C202.684 165.954 202.493 166.12 202.353 166.331C202.216 166.541 202.149 166.784 202.151 167.059C202.149 167.319 202.211 167.546 202.339 167.741C202.469 167.935 202.655 168.085 202.897 168.192C203.138 168.298 203.425 168.351 203.756 168.351ZM203.756 164.9C204.016 164.9 204.247 164.848 204.448 164.743C204.652 164.639 204.812 164.494 204.928 164.307C205.044 164.12 205.103 163.901 205.105 163.65C205.103 163.403 205.045 163.189 204.931 163.007C204.818 162.822 204.66 162.68 204.459 162.581C204.258 162.479 204.024 162.428 203.756 162.428C203.484 162.428 203.246 162.479 203.042 162.581C202.839 162.68 202.681 162.822 202.57 163.007C202.459 163.189 202.404 163.403 202.407 163.65C202.404 163.901 202.46 164.12 202.573 164.307C202.689 164.494 202.849 164.639 203.053 164.743C203.256 164.848 203.491 164.9 203.756 164.9Z" fill="black"/>
<path d="M224.84 152.301V158.923" stroke="black"/>
<path d="M224.788 161.661C225.087 161.663 225.385 161.72 225.683 161.831C225.982 161.943 226.254 162.127 226.5 162.385C226.746 162.641 226.944 162.99 227.093 163.433C227.242 163.876 227.317 164.431 227.317 165.099C227.317 165.745 227.255 166.319 227.132 166.821C227.011 167.32 226.836 167.742 226.607 168.085C226.379 168.428 226.102 168.689 225.776 168.866C225.451 169.044 225.084 169.133 224.675 169.133C224.268 169.133 223.904 169.052 223.585 168.891C223.267 168.728 223.007 168.502 222.803 168.213C222.602 167.922 222.473 167.584 222.416 167.201H223.283C223.361 167.535 223.516 167.81 223.748 168.028C223.982 168.244 224.291 168.351 224.675 168.351C225.236 168.351 225.679 168.106 226.003 167.616C226.33 167.126 226.493 166.434 226.493 165.539H226.436C226.304 165.738 226.146 165.909 225.964 166.054C225.782 166.198 225.579 166.309 225.357 166.388C225.134 166.466 224.897 166.505 224.646 166.505C224.23 166.505 223.847 166.402 223.499 166.196C223.154 165.987 222.877 165.702 222.668 165.34C222.462 164.975 222.359 164.559 222.359 164.09C222.359 163.645 222.459 163.238 222.658 162.868C222.859 162.497 223.141 162.201 223.503 161.981C223.868 161.76 224.296 161.654 224.788 161.661ZM224.788 162.442C224.49 162.442 224.221 162.517 223.982 162.666C223.746 162.813 223.557 163.012 223.418 163.263C223.28 163.511 223.212 163.787 223.212 164.09C223.212 164.393 223.278 164.669 223.411 164.917C223.546 165.164 223.729 165.36 223.961 165.507C224.195 165.651 224.462 165.724 224.76 165.724C224.985 165.724 225.194 165.68 225.389 165.592C225.583 165.502 225.752 165.38 225.896 165.226C226.043 165.07 226.158 164.894 226.241 164.697C226.324 164.498 226.365 164.291 226.365 164.076C226.365 163.792 226.296 163.525 226.159 163.277C226.024 163.028 225.837 162.827 225.598 162.673C225.361 162.519 225.091 162.442 224.788 162.442Z" fill="black"/>
<path d="M245.926 152.301V158.923" stroke="black"/>
<path d="M243.787 161.76V169.033H242.906V162.684H242.863L241.088 163.863V162.968L242.906 161.76H243.787ZM248.25 169.133C247.715 169.133 247.26 168.987 246.883 168.696C246.507 168.402 246.219 167.977 246.02 167.421C245.821 166.862 245.722 166.188 245.722 165.397C245.722 164.611 245.821 163.94 246.02 163.383C246.222 162.825 246.51 162.398 246.887 162.105C247.266 161.809 247.72 161.661 248.25 161.661C248.781 161.661 249.234 161.809 249.61 162.105C249.989 162.398 250.278 162.825 250.477 163.383C250.678 163.94 250.779 164.611 250.779 165.397C250.779 166.188 250.679 166.862 250.481 167.421C250.282 167.977 249.994 168.402 249.618 168.696C249.241 168.987 248.785 169.133 248.25 169.133ZM248.25 168.351C248.781 168.351 249.193 168.096 249.486 167.584C249.78 167.073 249.927 166.344 249.927 165.397C249.927 164.767 249.859 164.231 249.724 163.788C249.592 163.345 249.4 163.008 249.149 162.776C248.9 162.544 248.601 162.428 248.25 162.428C247.725 162.428 247.314 162.687 247.018 163.206C246.722 163.722 246.574 164.452 246.574 165.397C246.574 166.027 246.641 166.562 246.773 167.002C246.906 167.442 247.096 167.777 247.345 168.007C247.596 168.237 247.898 168.351 248.25 168.351Z" fill="black"/>
<path d="M267.012 152.301V158.923" stroke="black"/>
<path d="M265.673 161.76V169.033H264.793V162.684H264.75L262.974 163.863V162.968L264.793 161.76H265.673ZM270.322 161.76V169.033H269.441V162.684H269.398L267.623 163.863V162.968L269.441 161.76H270.322Z" fill="black"/>
<path d="M288.098 152.301V158.923" stroke="black"/>
<path d="M286.056 161.76V169.033H285.175V162.684H285.132L283.357 163.863V162.968L285.175 161.76H286.056ZM288.147 169.033V168.394L290.548 165.766C290.83 165.458 291.062 165.191 291.244 164.964C291.426 164.734 291.561 164.519 291.649 164.317C291.739 164.114 291.784 163.901 291.784 163.678C291.784 163.422 291.722 163.201 291.599 163.014C291.478 162.827 291.313 162.683 291.102 162.581C290.891 162.479 290.655 162.428 290.392 162.428C290.112 162.428 289.869 162.486 289.66 162.602C289.454 162.716 289.294 162.876 289.181 163.081C289.07 163.287 289.014 163.529 289.014 163.806H288.176C288.176 163.38 288.274 163.006 288.471 162.684C288.667 162.362 288.935 162.111 289.273 161.931C289.614 161.751 289.996 161.661 290.42 161.661C290.846 161.661 291.224 161.751 291.553 161.931C291.882 162.111 292.14 162.353 292.327 162.659C292.514 162.964 292.608 163.304 292.608 163.678C292.608 163.946 292.559 164.207 292.462 164.463C292.367 164.716 292.202 164.999 291.965 165.312C291.73 165.622 291.405 166.001 290.988 166.448L289.355 168.195V168.252H292.735V169.033H288.147Z" fill="black"/>
<path d="M56.1547 152.301V36.4198" stroke="black"/>
<path d="M56.1547 152.301H48.8301" stroke="black"/>
<path d="M42.0429 154.896C41.5078 154.896 41.0521 154.75 40.6757 154.459C40.2993 154.165 40.0116 153.741 39.8127 153.184C39.6139 152.625 39.5145 151.951 39.5145 151.16C39.5145 150.374 39.6139 149.703 39.8127 149.147C40.014 148.588 40.3028 148.162 40.6792 147.868C41.058 147.572 41.5126 147.424 42.0429 147.424C42.5732 147.424 43.0265 147.572 43.4029 147.868C43.7817 148.162 44.0706 148.588 44.2694 149.147C44.4707 149.703 44.5713 150.374 44.5713 151.16C44.5713 151.951 44.4718 152.625 44.273 153.184C44.0741 153.741 43.7865 154.165 43.41 154.459C43.0336 154.75 42.5779 154.896 42.0429 154.896ZM42.0429 154.115C42.5732 154.115 42.9851 153.859 43.2787 153.348C43.5722 152.836 43.719 152.107 43.719 151.16C43.719 150.53 43.6515 149.994 43.5166 149.551C43.384 149.109 43.1922 148.771 42.9413 148.539C42.6927 148.307 42.3932 148.191 42.0429 148.191C41.5173 148.191 41.1065 148.451 40.8106 148.969C40.5147 149.485 40.3667 150.215 40.3667 151.16C40.3667 151.79 40.433 152.325 40.5656 152.765C40.6982 153.205 40.8887 153.54 41.1373 153.77C41.3883 154 41.6901 154.115 42.0429 154.115Z" fill="black"/>
<path d="M56.1547 94.3604H48.8301" stroke="black"/>
<path d="M42.0109 96.9551C41.5422 96.9551 41.1243 96.8747 40.7573 96.7137C40.3928 96.5527 40.1028 96.329 39.8873 96.0425C39.6743 95.7537 39.5582 95.4187 39.5393 95.0375H40.4342C40.4531 95.2719 40.5336 95.4743 40.6757 95.6448C40.8177 95.8129 41.0036 95.9431 41.2332 96.0354C41.4628 96.1277 41.7173 96.1739 41.9967 96.1739C42.3092 96.1739 42.5862 96.1194 42.8277 96.0105C43.0691 95.9016 43.2585 95.7501 43.3958 95.556C43.5332 95.3619 43.6018 95.137 43.6018 94.8813C43.6018 94.6138 43.5355 94.3782 43.4029 94.1746C43.2704 93.9686 43.0762 93.8077 42.8206 93.6917C42.5649 93.5756 42.2524 93.5176 41.8831 93.5176H41.3007V92.7364H41.8831C42.1719 92.7364 42.4252 92.6843 42.643 92.5801C42.8632 92.476 43.0348 92.3292 43.1579 92.1398C43.2834 91.9504 43.3461 91.7279 43.3461 91.4722C43.3461 91.226 43.2917 91.0117 43.1828 90.8294C43.0739 90.6471 42.92 90.5051 42.7211 90.4033C42.5246 90.3015 42.2926 90.2506 42.0251 90.2506C41.7742 90.2506 41.5374 90.2968 41.3149 90.3891C41.0947 90.4791 40.9148 90.6104 40.7751 90.7833C40.6354 90.9537 40.5597 91.1597 40.5478 91.4012H39.6956C39.7098 91.02 39.8246 90.6862 40.04 90.3997C40.2555 90.1109 40.5372 89.886 40.8852 89.725C41.2356 89.564 41.6203 89.4836 42.0393 89.4836C42.4891 89.4836 42.875 89.5747 43.197 89.757C43.5189 89.9369 43.7663 90.1748 43.9392 90.4708C44.112 90.7667 44.1984 91.0863 44.1984 91.4296C44.1984 91.8391 44.0907 92.1883 43.8752 92.4772C43.6622 92.766 43.3722 92.966 43.0052 93.0773V93.1341C43.4645 93.2099 43.8232 93.4052 44.0812 93.7201C44.3393 94.0326 44.4683 94.4196 44.4683 94.8813C44.4683 95.2766 44.3606 95.6318 44.1451 95.9466C43.9321 96.2591 43.6409 96.5053 43.2716 96.6853C42.9022 96.8652 42.482 96.9551 42.0109 96.9551Z" fill="black"/>
<path d="M56.1547 75.047H48.8301" stroke="black"/>
<path d="M39.3342 76.0507V75.3263L42.5303 70.2695H43.0558V71.3916H42.7007L40.2859 75.2127V75.2695H44.5899V76.0507H39.3342ZM42.7575 77.5422V75.8306V75.4932V70.2695H43.5956V77.5422H42.7575Z" fill="black"/>
<path d="M56.1547 55.7333H48.8301" stroke="black"/>
<path d="M42.1094 58.3281C41.6928 58.3281 41.3175 58.2453 40.9837 58.0795C40.6499 57.9138 40.3824 57.6866 40.1812 57.3977C39.9799 57.1089 39.8699 56.7798 39.8509 56.4105H40.7032C40.7363 56.7396 40.8855 57.0118 41.1506 57.2273C41.4182 57.4403 41.7378 57.5469 42.1094 57.5469C42.4077 57.5469 42.6729 57.477 42.9049 57.3374C43.1393 57.1977 43.3227 57.0059 43.4553 56.7621C43.5903 56.5159 43.6577 56.2377 43.6577 55.9276C43.6577 55.6103 43.5879 55.3274 43.4482 55.0788C43.3109 54.8279 43.1215 54.6302 42.88 54.4858C42.6386 54.3414 42.3628 54.268 42.0526 54.2656C41.8301 54.2633 41.6016 54.2976 41.3673 54.3686C41.1329 54.4373 40.9399 54.526 40.7884 54.6349L39.9646 54.5355L40.4049 50.956H44.1833V51.7372H41.1435L40.8879 53.8821H40.9305C41.0796 53.7637 41.2666 53.6655 41.4915 53.5874C41.7165 53.5092 41.9508 53.4702 42.1947 53.4702C42.6397 53.4702 43.0363 53.5767 43.3843 53.7898C43.7347 54.0005 44.0093 54.2893 44.2082 54.6562C44.4094 55.0232 44.51 55.4422 44.51 55.9134C44.51 56.3774 44.4058 56.7917 44.1975 57.1562C43.9915 57.5185 43.7075 57.8049 43.3452 58.0156C42.983 58.224 42.5711 58.3281 42.1094 58.3281Z" fill="black"/>
<path d="M56.1547 36.4198H48.8301" stroke="black"/>
<path d="M42.0952 39.0145C41.7969 39.0098 41.4986 38.953 41.2004 38.8441C40.9021 38.7352 40.6298 38.5517 40.3836 38.2937C40.1374 38.0332 39.9397 37.6817 39.7906 37.239C39.6414 36.7939 39.5668 36.2352 39.5668 35.5628C39.5668 34.9189 39.6272 34.3483 39.7479 33.8512C39.8687 33.3517 40.0439 32.9314 40.2735 32.5905C40.5031 32.2473 40.7801 31.9868 41.1045 31.8093C41.4312 31.6317 41.7993 31.5429 42.2089 31.5429C42.6161 31.5429 42.9783 31.6246 43.2955 31.788C43.6151 31.949 43.8755 32.1739 44.0768 32.4627C44.278 32.7515 44.4082 33.0841 44.4674 33.4606H43.6009C43.5204 33.1339 43.3642 32.8628 43.1322 32.6474C42.9002 32.4319 42.5924 32.3242 42.2089 32.3242C41.6454 32.3242 41.2015 32.5692 40.8772 33.0593C40.5552 33.5493 40.3931 34.2371 40.3907 35.1225H40.4475C40.5801 34.9213 40.7375 34.7496 40.9198 34.6076C41.1045 34.4632 41.3081 34.3519 41.5306 34.2738C41.7531 34.1956 41.9887 34.1566 42.2373 34.1566C42.654 34.1566 43.0351 34.2608 43.3808 34.4691C43.7264 34.6751 44.0034 34.9603 44.2117 35.3249C44.4201 35.6871 44.5242 36.1026 44.5242 36.5714C44.5242 37.0212 44.4236 37.4331 44.2224 37.8072C44.0211 38.1788 43.7382 38.4748 43.3736 38.6949C43.0114 38.9127 42.5853 39.0193 42.0952 39.0145ZM42.0952 38.2333C42.3935 38.2333 42.6611 38.1587 42.8978 38.0096C43.1369 37.8604 43.3251 37.6604 43.4624 37.4094C43.6021 37.1585 43.6719 36.8791 43.6719 36.5714C43.6719 36.2707 43.6045 35.9973 43.4695 35.751C43.337 35.5025 43.1535 35.3048 42.9191 35.158C42.6871 35.0112 42.4219 34.9378 42.1236 34.9378C41.8987 34.9378 41.6892 34.9828 41.4951 35.0728C41.301 35.1604 41.1305 35.2811 40.9837 35.435C40.8393 35.5889 40.7257 35.7652 40.6428 35.9641C40.56 36.1606 40.5185 36.3678 40.5185 36.5856C40.5185 36.8744 40.586 37.1443 40.7209 37.3952C40.8583 37.6462 41.0453 37.8486 41.282 38.0025C41.5211 38.1563 41.7922 38.2333 42.0952 38.2333Z" fill="black"/>
<path d="M6.04102 9.98633V11H0.363281C0.355469 10.7461 0.396484 10.502 0.486328 10.2676C0.630859 9.88086 0.861328 9.5 1.17773 9.125C1.49805 8.75 1.95898 8.31641 2.56055 7.82422C3.49414 7.05859 4.125 6.45312 4.45312 6.00781C4.78125 5.55859 4.94531 5.13477 4.94531 4.73633C4.94531 4.31836 4.79492 3.9668 4.49414 3.68164C4.19727 3.39258 3.80859 3.24805 3.32812 3.24805C2.82031 3.24805 2.41406 3.40039 2.10938 3.70508C1.80469 4.00977 1.65039 4.43164 1.64648 4.9707L0.5625 4.85938C0.636719 4.05078 0.916016 3.43555 1.40039 3.01367C1.88477 2.58789 2.53516 2.375 3.35156 2.375C4.17578 2.375 4.82812 2.60352 5.30859 3.06055C5.78906 3.51758 6.0293 4.08398 6.0293 4.75977C6.0293 5.10352 5.95898 5.44141 5.81836 5.77344C5.67773 6.10547 5.44336 6.45508 5.11523 6.82227C4.79102 7.18945 4.25 7.69336 3.49219 8.33398C2.85938 8.86523 2.45312 9.22656 2.27344 9.41797C2.09375 9.60547 1.94531 9.79492 1.82812 9.98633H6.04102ZM7.17773 6.76367C7.17773 5.74805 7.28125 4.93164 7.48828 4.31445C7.69922 3.69336 8.00977 3.21484 8.41992 2.87891C8.83398 2.54297 9.35352 2.375 9.97852 2.375C10.4395 2.375 10.8438 2.46875 11.1914 2.65625C11.5391 2.83984 11.8262 3.10742 12.0527 3.45898C12.2793 3.80664 12.457 4.23242 12.5859 4.73633C12.7148 5.23633 12.7793 5.91211 12.7793 6.76367C12.7793 7.77148 12.6758 8.58594 12.4688 9.20703C12.2617 9.82422 11.9512 10.3027 11.5371 10.6426C11.127 10.9785 10.6074 11.1465 9.97852 11.1465C9.15039 11.1465 8.5 10.8496 8.02734 10.2559C7.46094 9.54102 7.17773 8.37695 7.17773 6.76367ZM8.26172 6.76367C8.26172 8.17383 8.42578 9.11328 8.75391 9.58203C9.08594 10.0469 9.49414 10.2793 9.97852 10.2793C10.4629 10.2793 10.8691 10.0449 11.1973 9.57617C11.5293 9.10742 11.6953 8.16992 11.6953 6.76367C11.6953 5.34961 11.5293 4.41016 11.1973 3.94531C10.8691 3.48047 10.459 3.24805 9.9668 3.24805C9.48242 3.24805 9.0957 3.45312 8.80664 3.86328C8.44336 4.38672 8.26172 5.35352 8.26172 6.76367ZM17.8301 11H16.7754V4.2793C16.5215 4.52148 16.1875 4.76367 15.7734 5.00586C15.3633 5.24805 14.9941 5.42969 14.666 5.55078V4.53125C15.2559 4.25391 15.7715 3.91797 16.2129 3.52344C16.6543 3.12891 16.9668 2.74609 17.1504 2.375H17.8301V11ZM26.0801 9.98633V11H20.4023C20.3945 10.7461 20.4355 10.502 20.5254 10.2676C20.6699 9.88086 20.9004 9.5 21.2168 9.125C21.5371 8.75 21.998 8.31641 22.5996 7.82422C23.5332 7.05859 24.1641 6.45312 24.4922 6.00781C24.8203 5.55859 24.9844 5.13477 24.9844 4.73633C24.9844 4.31836 24.834 3.9668 24.5332 3.68164C24.2363 3.39258 23.8477 3.24805 23.3672 3.24805C22.8594 3.24805 22.4531 3.40039 22.1484 3.70508C21.8438 4.00977 21.6895 4.43164 21.6855 4.9707L20.6016 4.85938C20.6758 4.05078 20.9551 3.43555 21.4395 3.01367C21.9238 2.58789 22.5742 2.375 23.3906 2.375C24.2148 2.375 24.8672 2.60352 25.3477 3.06055C25.8281 3.51758 26.0684 4.08398 26.0684 4.75977C26.0684 5.10352 25.998 5.44141 25.8574 5.77344C25.7168 6.10547 25.4824 6.45508 25.1543 6.82227C24.8301 7.18945 24.2891 7.69336 23.5312 8.33398C22.8984 8.86523 22.4922 9.22656 22.3125 9.41797C22.1328 9.60547 21.9844 9.79492 21.8672 9.98633H26.0801Z" fill="black"/>
</svg>
