<svg width="295" height="173" viewBox="0 0 295 173" fill="none" xmlns="http://www.w3.org/2000/svg">
<path d="M56.1545 86.0832C66.6974 86.0832 66.6974 86.0832 77.2403 86.0832C87.7831 86.0832 87.7831 86.0832 98.326 86.0832C108.869 86.0832 108.869 152.301 119.412 152.301C129.955 152.301 129.955 86.0832 140.497 86.0832C151.04 86.0832 151.04 152.301 161.583 152.301C172.126 152.301 172.126 152.301 182.669 152.301C193.212 152.301 193.212 86.0832 203.755 86.0832C214.298 86.0832 214.298 86.0832 224.84 86.0832C235.383 86.0832 235.383 86.0832 245.926 86.0832C256.469 86.0832 256.469 86.0832 267.012 86.0832C277.555 86.0832 277.555 152.301 288.098 152.301C277.555 152.301 277.555 152.301 267.012 152.301C256.469 152.301 256.469 152.301 245.926 152.301C235.383 152.301 235.383 152.301 224.84 152.301C214.298 152.301 214.298 152.301 203.755 152.301C193.212 152.301 193.212 152.301 182.669 152.301C172.126 152.301 172.126 152.301 161.583 152.301C151.04 152.301 151.04 152.301 140.497 152.301C129.955 152.301 129.955 152.301 119.412 152.301C108.869 152.301 108.869 152.301 98.326 152.301C87.7831 152.301 87.7831 152.301 77.2403 152.301C66.6974 152.301 66.6974 152.301 56.1545 152.301V86.0832Z" fill="#F8E21D"/>
<path d="M56.1545 86.0832C66.6974 86.0832 66.6974 86.0832 77.2403 86.0832C87.7831 86.0832 87.7831 86.0832 98.326 86.0832C108.869 86.0832 108.869 36.4198 119.412 36.4198C129.955 36.4198 129.955 86.0832 140.497 86.0832C151.04 86.0832 151.04 69.5287 161.583 69.5287C172.126 69.5287 172.126 152.301 182.669 152.301C193.212 152.301 193.212 86.0832 203.755 86.0832C214.298 86.0832 214.298 86.0832 224.84 86.0832C235.383 86.0832 235.383 86.0832 245.926 86.0832C256.469 86.0832 256.469 86.0832 267.012 86.0832C277.555 86.0832 277.555 152.301 288.098 152.301C277.555 152.301 277.555 86.0832 267.012 86.0832C256.469 86.0832 256.469 86.0832 245.926 86.0832C235.383 86.0832 235.383 86.0832 224.84 86.0832C214.298 86.0832 214.298 86.0832 203.755 86.0832C193.212 86.0832 193.212 152.301 182.669 152.301C172.126 152.301 172.126 152.301 161.583 152.301C151.04 152.301 151.04 86.0832 140.497 86.0832C129.955 86.0832 129.955 36.4198 119.412 36.4198C108.869 36.4198 108.869 86.0832 98.326 86.0832C87.7831 86.0832 87.7831 86.0832 77.2403 86.0832C66.6974 86.0832 66.6974 86.0832 56.1545 86.0832Z" fill="#F8E01D"/>
<path d="M56.1545 86.0832C66.6974 86.0832 66.6974 86.0832 77.2403 86.0832C87.7831 86.0832 87.7831 86.0832 98.326 86.0832C108.869 86.0832 108.869 152.301 119.412 152.301C129.955 152.301 129.955 86.0832 140.497 86.0832C151.04 86.0832 151.04 152.301 161.583 152.301C172.126 152.301 172.126 152.301 182.669 152.301C193.212 152.301 193.212 86.0832 203.755 86.0832C214.298 86.0832 214.298 86.0832 224.84 86.0832C235.383 86.0832 235.383 86.0832 245.926 86.0832C256.469 86.0832 256.469 86.0832 267.012 86.0832C277.555 86.0832 277.555 152.301 288.098 152.301C277.555 152.301 277.555 86.0832 267.012 86.0832C256.469 86.0832 256.469 86.0832 245.926 86.0832C235.383 86.0832 235.383 86.0832 224.84 86.0832C214.298 86.0832 214.298 86.0832 203.755 86.0832C193.212 86.0832 193.212 152.301 182.669 152.301C172.126 152.301 172.126 152.301 161.583 152.301C151.04 152.301 151.04 86.0832 140.497 86.0832C129.955 86.0832 129.955 152.301 119.412 152.301C108.869 152.301 108.869 86.0832 98.326 86.0832C87.7831 86.0832 87.7831 86.0832 77.2403 86.0832C66.6974 86.0832 66.6974 86.0832 56.1545 86.0832Z" fill="#F8DF1D"/>
<path d="M56.1545 86.0832C66.6974 86.0832 66.6974 86.0832 77.2403 86.0832C87.7831 86.0832 87.7831 86.0832 98.326 86.0832C108.869 86.0832 108.869 36.4198 119.412 36.4198C129.955 36.4198 129.955 86.0832 140.497 86.0832C151.04 86.0832 151.04 152.301 161.583 152.301C172.126 152.301 172.126 152.301 182.669 152.301C193.212 152.301 193.212 86.0832 203.755 86.0832C214.298 86.0832 214.298 86.0832 224.84 86.0832C235.383 86.0832 235.383 86.0832 245.926 86.0832C256.469 86.0832 256.469 86.0832 267.012 86.0832C277.555 86.0832 277.555 152.301 288.098 152.301C277.555 152.301 277.555 86.0832 267.012 86.0832C256.469 86.0832 256.469 86.0832 245.926 86.0832C235.383 86.0832 235.383 86.0832 224.84 86.0832C214.298 86.0832 214.298 86.0832 203.755 86.0832C193.212 86.0832 193.212 152.301 182.669 152.301C172.126 152.301 172.126 152.301 161.583 152.301C151.04 152.301 151.04 86.0832 140.497 86.0832C129.955 86.0832 129.955 152.301 119.412 152.301C108.869 152.301 108.869 86.0832 98.326 86.0832C87.7831 86.0832 87.7831 86.0832 77.2403 86.0832C66.6974 86.0832 66.6974 86.0832 56.1545 86.0832Z" fill="#F8DE1D"/>
<path d="M56.1545 86.0832C66.6974 86.0832 66.6974 86.0832 77.2403 86.0832C87.7831 86.0832 87.7831 86.0832 98.326 86.0832C108.869 86.0832 108.869 36.4198 119.412 36.4198C129.955 36.4198 129.955 86.0832 140.497 86.0832C151.04 86.0832 151.04 69.5287 161.583 69.5287C172.126 69.5287 172.126 102.638 182.669 102.638C193.212 102.638 193.212 86.0832 203.755 86.0832C214.298 86.0832 214.298 86.0832 224.84 86.0832C235.383 86.0832 235.383 86.0832 245.926 86.0832C256.469 86.0832 256.469 86.0832 267.012 86.0832C277.555 86.0832 277.555 102.638 288.098 102.638V152.301C277.555 152.301 277.555 86.0832 267.012 86.0832C256.469 86.0832 256.469 86.0832 245.926 86.0832C235.383 86.0832 235.383 86.0832 224.84 86.0832C214.298 86.0832 214.298 86.0832 203.755 86.0832C193.212 86.0832 193.212 152.301 182.669 152.301C172.126 152.301 172.126 69.5287 161.583 69.5287C151.04 69.5287 151.04 86.0832 140.497 86.0832C129.955 86.0832 129.955 36.4198 119.412 36.4198C108.869 36.4198 108.869 86.0832 98.326 86.0832C87.7831 86.0832 87.7831 86.0832 77.2403 86.0832C66.6974 86.0832 66.6974 86.0832 56.1545 86.0832Z" fill="#F8E31C"/>
<path d="M56.1545 86.0832C66.6974 86.0832 66.6974 86.0832 77.2403 86.0832C87.7831 86.0832 87.7831 86.0832 98.326 86.0832C108.869 86.0832 108.869 152.301 119.412 152.301C129.955 152.301 129.955 86.0832 140.497 86.0832C151.04 86.0832 151.04 152.301 161.583 152.301C172.126 152.301 172.126 152.301 182.669 152.301C193.212 152.301 193.212 86.0832 203.755 86.0832C214.298 86.0832 214.298 86.0832 224.84 86.0832C235.383 86.0832 235.383 86.0832 245.926 86.0832C256.469 86.0832 256.469 86.0832 267.012 86.0832C277.555 86.0832 277.555 152.301 288.098 152.301C277.555 152.301 277.555 86.0832 267.012 86.0832C256.469 86.0832 256.469 86.0832 245.926 86.0832C235.383 86.0832 235.383 86.0832 224.84 86.0832C214.298 86.0832 214.298 86.0832 203.755 86.0832C193.212 86.0832 193.212 152.301 182.669 152.301C172.126 152.301 172.126 152.301 161.583 152.301C151.04 152.301 151.04 86.0832 140.497 86.0832C129.955 86.0832 129.955 152.301 119.412 152.301C108.869 152.301 108.869 86.0832 98.326 86.0832C87.7831 86.0832 87.7831 86.0832 77.2403 86.0832C66.6974 86.0832 66.6974 86.0832 56.1545 86.0832Z" fill="#F8E41C"/>
<path d="M56.1545 86.0832C66.6974 86.0832 66.6974 86.0832 77.2403 86.0832C87.7831 86.0832 87.7831 86.0832 98.326 86.0832C108.869 86.0832 108.869 152.301 119.412 152.301C129.955 152.301 129.955 86.0832 140.497 86.0832C151.04 86.0832 151.04 152.301 161.583 152.301C172.126 152.301 172.126 152.301 182.669 152.301C193.212 152.301 193.212 86.0832 203.755 86.0832C214.298 86.0832 214.298 86.0832 224.84 86.0832C235.383 86.0832 235.383 86.0832 245.926 86.0832C256.469 86.0832 256.469 86.0832 267.012 86.0832C277.555 86.0832 277.555 152.301 288.098 152.301C277.555 152.301 277.555 86.0832 267.012 86.0832C256.469 86.0832 256.469 86.0832 245.926 86.0832C235.383 86.0832 235.383 86.0832 224.84 86.0832C214.298 86.0832 214.298 86.0832 203.755 86.0832C193.212 86.0832 193.212 152.301 182.669 152.301C172.126 152.301 172.126 152.301 161.583 152.301C151.04 152.301 151.04 86.0832 140.497 86.0832C129.955 86.0832 129.955 152.301 119.412 152.301C108.869 152.301 108.869 86.0832 98.326 86.0832C87.7831 86.0832 87.7831 86.0832 77.2403 86.0832C66.6974 86.0832 66.6974 86.0832 56.1545 86.0832Z" fill="#F7DD1D"/>
<path d="M56.1545 86.0832C66.6974 86.0832 66.6974 86.0832 77.2403 86.0832C87.7831 86.0832 87.7831 86.0832 98.326 86.0832C108.869 86.0832 108.869 152.301 119.412 152.301C129.955 152.301 129.955 86.0832 140.497 86.0832C151.04 86.0832 151.04 152.301 161.583 152.301C172.126 152.301 172.126 152.301 182.669 152.301C193.212 152.301 193.212 86.0832 203.755 86.0832C214.298 86.0832 214.298 86.0832 224.84 86.0832C235.383 86.0832 235.383 86.0832 245.926 86.0832C256.469 86.0832 256.469 86.0832 267.012 86.0832C277.555 86.0832 277.555 152.301 288.098 152.301C277.555 152.301 277.555 86.0832 267.012 86.0832C256.469 86.0832 256.469 86.0832 245.926 86.0832C235.383 86.0832 235.383 86.0832 224.84 86.0832C214.298 86.0832 214.298 86.0832 203.755 86.0832C193.212 86.0832 193.212 152.301 182.669 152.301C172.126 152.301 172.126 152.301 161.583 152.301C151.04 152.301 151.04 86.0832 140.497 86.0832C129.955 86.0832 129.955 152.301 119.412 152.301C108.869 152.301 108.869 86.0832 98.326 86.0832C87.7831 86.0832 87.7831 86.0832 77.2403 86.0832C66.6974 86.0832 66.6974 86.0832 56.1545 86.0832Z" fill="#F7DB1D"/>
<path d="M56.1545 86.0832C66.6974 86.0832 66.6974 86.0832 77.2403 86.0832C87.7831 86.0832 87.7831 86.0832 98.326 86.0832C108.869 86.0832 108.869 152.301 119.412 152.301C129.955 152.301 129.955 86.0832 140.497 86.0832C151.04 86.0832 151.04 152.301 161.583 152.301C172.126 152.301 172.126 152.301 182.669 152.301C193.212 152.301 193.212 86.0832 203.755 86.0832C214.298 86.0832 214.298 86.0832 224.84 86.0832C235.383 86.0832 235.383 86.0832 245.926 86.0832C256.469 86.0832 256.469 86.0832 267.012 86.0832C277.555 86.0832 277.555 152.301 288.098 152.301C277.555 152.301 277.555 86.0832 267.012 86.0832C256.469 86.0832 256.469 86.0832 245.926 86.0832C235.383 86.0832 235.383 86.0832 224.84 86.0832C214.298 86.0832 214.298 86.0832 203.755 86.0832C193.212 86.0832 193.212 152.301 182.669 152.301C172.126 152.301 172.126 152.301 161.583 152.301C151.04 152.301 151.04 86.0832 140.497 86.0832C129.955 86.0832 129.955 152.301 119.412 152.301C108.869 152.301 108.869 86.0832 98.326 86.0832C87.7831 86.0832 87.7831 86.0832 77.2403 86.0832C66.6974 86.0832 66.6974 86.0832 56.1545 86.0832Z" fill="#F7D71E"/>
<path d="M56.1545 86.0832C66.6974 86.0832 66.6974 86.0832 77.2403 86.0832C87.7831 86.0832 87.7831 86.0832 98.326 86.0832C108.869 86.0832 108.869 152.301 119.412 152.301C129.955 152.301 129.955 86.0832 140.497 86.0832C151.04 86.0832 151.04 152.301 161.583 152.301C172.126 152.301 172.126 152.301 182.669 152.301C193.212 152.301 193.212 86.0832 203.755 86.0832C214.298 86.0832 214.298 86.0832 224.84 86.0832C235.383 86.0832 235.383 86.0832 245.926 86.0832C256.469 86.0832 256.469 86.0832 267.012 86.0832C277.555 86.0832 277.555 152.301 288.098 152.301C277.555 152.301 277.555 86.0832 267.012 86.0832C256.469 86.0832 256.469 86.0832 245.926 86.0832C235.383 86.0832 235.383 86.0832 224.84 86.0832C214.298 86.0832 214.298 86.0832 203.755 86.0832C193.212 86.0832 193.212 152.301 182.669 152.301C172.126 152.301 172.126 152.301 161.583 152.301C151.04 152.301 151.04 86.0832 140.497 86.0832C129.955 86.0832 129.955 152.301 119.412 152.301C108.869 152.301 108.869 86.0832 98.326 86.0832C87.7831 86.0832 87.7831 86.0832 77.2403 86.0832C66.6974 86.0832 66.6974 86.0832 56.1545 86.0832Z" fill="#F7D61E"/>
<path d="M56.1545 86.0832C66.6974 86.0832 66.6974 86.0832 77.2403 86.0832C87.7831 86.0832 87.7831 86.0832 98.326 86.0832C108.869 86.0832 108.869 152.301 119.412 152.301C129.955 152.301 129.955 86.0832 140.497 86.0832C151.04 86.0832 151.04 152.301 161.583 152.301C172.126 152.301 172.126 152.301 182.669 152.301C193.212 152.301 193.212 86.0832 203.755 86.0832C214.298 86.0832 214.298 86.0832 224.84 86.0832C235.383 86.0832 235.383 86.0832 245.926 86.0832C256.469 86.0832 256.469 86.0832 267.012 86.0832C277.555 86.0832 277.555 152.301 288.098 152.301C277.555 152.301 277.555 86.0832 267.012 86.0832C256.469 86.0832 256.469 86.0832 245.926 86.0832C235.383 86.0832 235.383 86.0832 224.84 86.0832C214.298 86.0832 214.298 86.0832 203.755 86.0832C193.212 86.0832 193.212 152.301 182.669 152.301C172.126 152.301 172.126 152.301 161.583 152.301C151.04 152.301 151.04 86.0832 140.497 86.0832C129.955 86.0832 129.955 152.301 119.412 152.301C108.869 152.301 108.869 86.0832 98.326 86.0832C87.7831 86.0832 87.7831 86.0832 77.2403 86.0832C66.6974 86.0832 66.6974 86.0832 56.1545 86.0832Z" fill="#F7D91E"/>
<path d="M56.1545 86.0832C66.6974 86.0832 66.6974 86.0832 77.2403 86.0832C87.7831 86.0832 87.7831 86.0832 98.326 86.0832C108.869 86.0832 108.869 152.301 119.412 152.301C129.955 152.301 129.955 86.0832 140.497 86.0832C151.04 86.0832 151.04 152.301 161.583 152.301C172.126 152.301 172.126 152.301 182.669 152.301C193.212 152.301 193.212 86.0832 203.755 86.0832C214.298 86.0832 214.298 86.0832 224.84 86.0832C235.383 86.0832 235.383 86.0832 245.926 86.0832C256.469 86.0832 256.469 86.0832 267.012 86.0832C277.555 86.0832 277.555 152.301 288.098 152.301C277.555 152.301 277.555 86.0832 267.012 86.0832C256.469 86.0832 256.469 86.0832 245.926 86.0832C235.383 86.0832 235.383 86.0832 224.84 86.0832C214.298 86.0832 214.298 86.0832 203.755 86.0832C193.212 86.0832 193.212 152.301 182.669 152.301C172.126 152.301 172.126 152.301 161.583 152.301C151.04 152.301 151.04 86.0832 140.497 86.0832C129.955 86.0832 129.955 152.301 119.412 152.301C108.869 152.301 108.869 86.0832 98.326 86.0832C87.7831 86.0832 87.7831 86.0832 77.2403 86.0832C66.6974 86.0832 66.6974 86.0832 56.1545 86.0832Z" fill="#F7D41E"/>
<path d="M56.1545 86.0832C66.6974 86.0832 66.6974 86.0832 77.2403 86.0832C87.7831 86.0832 87.7831 86.0832 98.326 86.0832C108.869 86.0832 108.869 152.301 119.412 152.301C129.955 152.301 129.955 86.0832 140.497 86.0832C151.04 86.0832 151.04 152.301 161.583 152.301C172.126 152.301 172.126 152.301 182.669 152.301C193.212 152.301 193.212 86.0832 203.755 86.0832C214.298 86.0832 214.298 86.0832 224.84 86.0832C235.383 86.0832 235.383 86.0832 245.926 86.0832C256.469 86.0832 256.469 86.0832 267.012 86.0832C277.555 86.0832 277.555 152.301 288.098 152.301C277.555 152.301 277.555 86.0832 267.012 86.0832C256.469 86.0832 256.469 86.0832 245.926 86.0832C235.383 86.0832 235.383 86.0832 224.84 86.0832C214.298 86.0832 214.298 86.0832 203.755 86.0832C193.212 86.0832 193.212 152.301 182.669 152.301C172.126 152.301 172.126 152.301 161.583 152.301C151.04 152.301 151.04 86.0832 140.497 86.0832C129.955 86.0832 129.955 152.301 119.412 152.301C108.869 152.301 108.869 86.0832 98.326 86.0832C87.7831 86.0832 87.7831 86.0832 77.2403 86.0832C66.6974 86.0832 66.6974 86.0832 56.1545 86.0832Z" fill="#F7D31E"/>
<path d="M56.1545 86.0832C66.6974 86.0832 66.6974 86.0832 77.2403 86.0832C87.7831 86.0832 87.7831 86.0832 98.326 86.0832C108.869 86.0832 108.869 152.301 119.412 152.301C129.955 152.301 129.955 86.0832 140.497 86.0832C151.04 86.0832 151.04 152.301 161.583 152.301C172.126 152.301 172.126 152.301 182.669 152.301C193.212 152.301 193.212 86.0832 203.755 86.0832C214.298 86.0832 214.298 86.0832 224.84 86.0832C235.383 86.0832 235.383 86.0832 245.926 86.0832C256.469 86.0832 256.469 86.0832 267.012 86.0832C277.555 86.0832 277.555 152.301 288.098 152.301C277.555 152.301 277.555 86.0832 267.012 86.0832C256.469 86.0832 256.469 86.0832 245.926 86.0832C235.383 86.0832 235.383 86.0832 224.84 86.0832C214.298 86.0832 214.298 86.0832 203.755 86.0832C193.212 86.0832 193.212 152.301 182.669 152.301C172.126 152.301 172.126 152.301 161.583 152.301C151.04 152.301 151.04 86.0832 140.497 86.0832C129.955 86.0832 129.955 152.301 119.412 152.301C108.869 152.301 108.869 86.0832 98.326 86.0832C87.7831 86.0832 87.7831 86.0832 77.2403 86.0832C66.6974 86.0832 66.6974 86.0832 56.1545 86.0832Z" fill="#F7D21E"/>
<path d="M56.1545 86.0832C66.6974 86.0832 66.6974 86.0832 77.2403 86.0832C87.7831 86.0832 87.7831 86.0832 98.326 86.0832C108.869 86.0832 108.869 152.301 119.412 152.301C129.955 152.301 129.955 86.0832 140.497 86.0832C151.04 86.0832 151.04 152.301 161.583 152.301C172.126 152.301 172.126 152.301 182.669 152.301C193.212 152.301 193.212 86.0832 203.755 86.0832C214.298 86.0832 214.298 86.0832 224.84 86.0832C235.383 86.0832 235.383 86.0832 245.926 86.0832C256.469 86.0832 256.469 86.0832 267.012 86.0832C277.555 86.0832 277.555 152.301 288.098 152.301C277.555 152.301 277.555 86.0832 267.012 86.0832C256.469 86.0832 256.469 86.0832 245.926 86.0832C235.383 86.0832 235.383 86.0832 224.84 86.0832C214.298 86.0832 214.298 86.0832 203.755 86.0832C193.212 86.0832 193.212 152.301 182.669 152.301C172.126 152.301 172.126 152.301 161.583 152.301C151.04 152.301 151.04 86.0832 140.497 86.0832C129.955 86.0832 129.955 152.301 119.412 152.301C108.869 152.301 108.869 86.0832 98.326 86.0832C87.7831 86.0832 87.7831 86.0832 77.2403 86.0832C66.6974 86.0832 66.6974 86.0832 56.1545 86.0832Z" fill="#F7CD1F"/>
<path d="M56.1545 86.0832C66.6974 86.0832 66.6974 86.0832 77.2403 86.0832C87.7831 86.0832 87.7831 86.0832 98.326 86.0832C108.869 86.0832 108.869 152.301 119.412 152.301C129.955 152.301 129.955 86.0832 140.497 86.0832C151.04 86.0832 151.04 152.301 161.583 152.301C172.126 152.301 172.126 152.301 182.669 152.301C193.212 152.301 193.212 86.0832 203.755 86.0832C214.298 86.0832 214.298 86.0832 224.84 86.0832C235.383 86.0832 235.383 86.0832 245.926 86.0832C256.469 86.0832 256.469 86.0832 267.012 86.0832C277.555 86.0832 277.555 152.301 288.098 152.301C277.555 152.301 277.555 86.0832 267.012 86.0832C256.469 86.0832 256.469 86.0832 245.926 86.0832C235.383 86.0832 235.383 86.0832 224.84 86.0832C214.298 86.0832 214.298 86.0832 203.755 86.0832C193.212 86.0832 193.212 152.301 182.669 152.301C172.126 152.301 172.126 152.301 161.583 152.301C151.04 152.301 151.04 86.0832 140.497 86.0832C129.955 86.0832 129.955 152.301 119.412 152.301C108.869 152.301 108.869 86.0832 98.326 86.0832C87.7831 86.0832 87.7831 86.0832 77.2403 86.0832C66.6974 86.0832 66.6974 86.0832 56.1545 86.0832Z" fill="#F7D01E"/>
<path d="M56.1545 86.0832C66.6974 86.0832 66.6974 86.0832 77.2403 86.0832C87.7831 86.0832 87.7831 86.0832 98.326 86.0832C108.869 86.0832 108.869 152.301 119.412 152.301C129.955 152.301 129.955 86.0832 140.497 86.0832C151.04 86.0832 151.04 152.301 161.583 152.301C172.126 152.301 172.126 152.301 182.669 152.301C193.212 152.301 193.212 86.0832 203.755 86.0832C214.298 86.0832 214.298 86.0832 224.84 86.0832C235.383 86.0832 235.383 86.0832 245.926 86.0832C256.469 86.0832 256.469 86.0832 267.012 86.0832C277.555 86.0832 277.555 152.301 288.098 152.301C277.555 152.301 277.555 86.0832 267.012 86.0832C256.469 86.0832 256.469 86.0832 245.926 86.0832C235.383 86.0832 235.383 86.0832 224.84 86.0832C214.298 86.0832 214.298 86.0832 203.755 86.0832C193.212 86.0832 193.212 152.301 182.669 152.301C172.126 152.301 172.126 152.301 161.583 152.301C151.04 152.301 151.04 86.0832 140.497 86.0832C129.955 86.0832 129.955 152.301 119.412 152.301C108.869 152.301 108.869 86.0832 98.326 86.0832C87.7831 86.0832 87.7831 86.0832 77.2403 86.0832C66.6974 86.0832 66.6974 86.0832 56.1545 86.0832Z" fill="#F7CF1E"/>
<path d="M56.1545 86.0832C66.6974 86.0832 66.6974 86.0832 77.2403 86.0832C87.7831 86.0832 87.7831 86.0832 98.326 86.0832C108.869 86.0832 108.869 152.301 119.412 152.301C129.955 152.301 129.955 86.0832 140.497 86.0832C151.04 86.0832 151.04 152.301 161.583 152.301C172.126 152.301 172.126 152.301 182.669 152.301C193.212 152.301 193.212 86.0832 203.755 86.0832C214.298 86.0832 214.298 86.0832 224.84 86.0832C235.383 86.0832 235.383 86.0832 245.926 86.0832C256.469 86.0832 256.469 86.0832 267.012 86.0832C277.555 86.0832 277.555 152.301 288.098 152.301C277.555 152.301 277.555 86.0832 267.012 86.0832C256.469 86.0832 256.469 86.0832 245.926 86.0832C235.383 86.0832 235.383 86.0832 224.84 86.0832C214.298 86.0832 214.298 86.0832 203.755 86.0832C193.212 86.0832 193.212 152.301 182.669 152.301C172.126 152.301 172.126 152.301 161.583 152.301C151.04 152.301 151.04 86.0832 140.497 86.0832C129.955 86.0832 129.955 152.301 119.412 152.301C108.869 152.301 108.869 86.0832 98.326 86.0832C87.7831 86.0832 87.7831 86.0832 77.2403 86.0832C66.6974 86.0832 66.6974 86.0832 56.1545 86.0832Z" fill="#F6CC1F"/>
<path d="M56.1545 86.0832C66.6974 86.0832 66.6974 86.0832 77.2403 86.0832C87.7831 86.0832 87.7831 86.0832 98.326 86.0832C108.869 86.0832 108.869 152.301 119.412 152.301C129.955 152.301 129.955 86.0832 140.497 86.0832C151.04 86.0832 151.04 152.301 161.583 152.301C172.126 152.301 172.126 152.301 182.669 152.301C193.212 152.301 193.212 86.0832 203.755 86.0832C214.298 86.0832 214.298 86.0832 224.84 86.0832C235.383 86.0832 235.383 86.0832 245.926 86.0832C256.469 86.0832 256.469 86.0832 267.012 86.0832C277.555 86.0832 277.555 152.301 288.098 152.301C277.555 152.301 277.555 86.0832 267.012 86.0832C256.469 86.0832 256.469 86.0832 245.926 86.0832C235.383 86.0832 235.383 86.0832 224.84 86.0832C214.298 86.0832 214.298 86.0832 203.755 86.0832C193.212 86.0832 193.212 152.301 182.669 152.301C172.126 152.301 172.126 152.301 161.583 152.301C151.04 152.301 151.04 86.0832 140.497 86.0832C129.955 86.0832 129.955 152.301 119.412 152.301C108.869 152.301 108.869 86.0832 98.326 86.0832C87.7831 86.0832 87.7831 86.0832 77.2403 86.0832C66.6974 86.0832 66.6974 86.0832 56.1545 86.0832Z" fill="#F6C91F"/>
<path d="M56.1545 86.0832C66.6974 86.0832 66.6974 86.0832 77.2403 86.0832C87.7831 86.0832 87.7831 86.0832 98.326 86.0832C108.869 86.0832 108.869 152.301 119.412 152.301C129.955 152.301 129.955 86.0832 140.497 86.0832C151.04 86.0832 151.04 152.301 161.583 152.301C172.126 152.301 172.126 152.301 182.669 152.301C193.212 152.301 193.212 86.0832 203.755 86.0832C214.298 86.0832 214.298 86.0832 224.84 86.0832C235.383 86.0832 235.383 86.0832 245.926 86.0832C256.469 86.0832 256.469 86.0832 267.012 86.0832C277.555 86.0832 277.555 152.301 288.098 152.301C277.555 152.301 277.555 86.0832 267.012 86.0832C256.469 86.0832 256.469 86.0832 245.926 86.0832C235.383 86.0832 235.383 86.0832 224.84 86.0832C214.298 86.0832 214.298 86.0832 203.755 86.0832C193.212 86.0832 193.212 152.301 182.669 152.301C172.126 152.301 172.126 152.301 161.583 152.301C151.04 152.301 151.04 86.0832 140.497 86.0832C129.955 86.0832 129.955 152.301 119.412 152.301C108.869 152.301 108.869 86.0832 98.326 86.0832C87.7831 86.0832 87.7831 86.0832 77.2403 86.0832C66.6974 86.0832 66.6974 86.0832 56.1545 86.0832Z" fill="#F6C61F"/>
<path d="M56.1545 86.0832C66.6974 86.0832 66.6974 86.0832 77.2403 86.0832C87.7831 86.0832 87.7831 86.0832 98.326 86.0832C108.869 86.0832 108.869 152.301 119.412 152.301C129.955 152.301 129.955 86.0832 140.497 86.0832C151.04 86.0832 151.04 152.301 161.583 152.301C172.126 152.301 172.126 152.301 182.669 152.301C193.212 152.301 193.212 86.0832 203.755 86.0832C214.298 86.0832 214.298 86.0832 224.84 86.0832C235.383 86.0832 235.383 86.0832 245.926 86.0832C256.469 86.0832 256.469 86.0832 267.012 86.0832C277.555 86.0832 277.555 152.301 288.098 152.301C277.555 152.301 277.555 86.0832 267.012 86.0832C256.469 86.0832 256.469 86.0832 245.926 86.0832C235.383 86.0832 235.383 86.0832 224.84 86.0832C214.298 86.0832 214.298 86.0832 203.755 86.0832C193.212 86.0832 193.212 152.301 182.669 152.301C172.126 152.301 172.126 152.301 161.583 152.301C151.04 152.301 151.04 86.0832 140.497 86.0832C129.955 86.0832 129.955 152.301 119.412 152.301C108.869 152.301 108.869 86.0832 98.326 86.0832C87.7831 86.0832 87.7831 86.0832 77.2403 86.0832C66.6974 86.0832 66.6974 86.0832 56.1545 86.0832Z" fill="#F6C41F"/>
<path d="M56.1545 86.0832C66.6974 86.0832 66.6974 86.0832 77.2403 86.0832C87.7831 86.0832 87.7831 86.0832 98.326 86.0832C108.869 86.0832 108.869 152.301 119.412 152.301C129.955 152.301 129.955 86.0832 140.497 86.0832C151.04 86.0832 151.04 152.301 161.583 152.301C172.126 152.301 172.126 152.301 182.669 152.301C193.212 152.301 193.212 86.0832 203.755 86.0832C214.298 86.0832 214.298 86.0832 224.84 86.0832C235.383 86.0832 235.383 86.0832 245.926 86.0832C256.469 86.0832 256.469 86.0832 267.012 86.0832C277.555 86.0832 277.555 152.301 288.098 152.301C277.555 152.301 277.555 86.0832 267.012 86.0832C256.469 86.0832 256.469 86.0832 245.926 86.0832C235.383 86.0832 235.383 86.0832 224.84 86.0832C214.298 86.0832 214.298 86.0832 203.755 86.0832C193.212 86.0832 193.212 152.301 182.669 152.301C172.126 152.301 172.126 152.301 161.583 152.301C151.04 152.301 151.04 86.0832 140.497 86.0832C129.955 86.0832 129.955 152.301 119.412 152.301C108.869 152.301 108.869 86.0832 98.326 86.0832C87.7831 86.0832 87.7831 86.0832 77.2403 86.0832C66.6974 86.0832 66.6974 86.0832 56.1545 86.0832Z" fill="#F5B920"/>
<path d="M56.1545 86.0832C66.6974 86.0832 66.6974 86.0832 77.2403 86.0832C87.7831 86.0832 87.7831 86.0832 98.326 86.0832C108.869 86.0832 108.869 152.301 119.412 152.301C129.955 152.301 129.955 86.0832 140.497 86.0832C151.04 86.0832 151.04 152.301 161.583 152.301C172.126 152.301 172.126 152.301 182.669 152.301C193.212 152.301 193.212 86.0832 203.755 86.0832C214.298 86.0832 214.298 86.0832 224.84 86.0832C235.383 86.0832 235.383 86.0832 245.926 86.0832C256.469 86.0832 256.469 86.0832 267.012 86.0832C277.555 86.0832 277.555 152.301 288.098 152.301C277.555 152.301 277.555 86.0832 267.012 86.0832C256.469 86.0832 256.469 86.0832 245.926 86.0832C235.383 86.0832 235.383 86.0832 224.84 86.0832C214.298 86.0832 214.298 86.0832 203.755 86.0832C193.212 86.0832 193.212 152.301 182.669 152.301C172.126 152.301 172.126 152.301 161.583 152.301C151.04 152.301 151.04 86.0832 140.497 86.0832C129.955 86.0832 129.955 152.301 119.412 152.301C108.869 152.301 108.869 86.0832 98.326 86.0832C87.7831 86.0832 87.7831 86.0832 77.2403 86.0832C66.6974 86.0832 66.6974 86.0832 56.1545 86.0832Z" fill="#F3B020"/>
<path d="M56.1545 86.0832C66.6974 86.0832 66.6974 86.0832 77.2403 86.0832C87.7831 86.0832 87.7831 86.0832 98.326 86.0832C108.869 86.0832 108.869 152.301 119.412 152.301C129.955 152.301 129.955 86.0832 140.497 86.0832C151.04 86.0832 151.04 152.301 161.583 152.301C172.126 152.301 172.126 152.301 182.669 152.301C193.212 152.301 193.212 86.0832 203.755 86.0832C214.298 86.0832 214.298 86.0832 224.84 86.0832C235.383 86.0832 235.383 86.0832 245.926 86.0832C256.469 86.0832 256.469 86.0832 267.012 86.0832C277.555 86.0832 277.555 152.301 288.098 152.301C277.555 152.301 277.555 86.0832 267.012 86.0832C256.469 86.0832 256.469 86.0832 245.926 86.0832C235.383 86.0832 235.383 86.0832 224.84 86.0832C214.298 86.0832 214.298 86.0832 203.755 86.0832C193.212 86.0832 193.212 152.301 182.669 152.301C172.126 152.301 172.126 152.301 161.583 152.301C151.04 152.301 151.04 86.0832 140.497 86.0832C129.955 86.0832 129.955 152.301 119.412 152.301C108.869 152.301 108.869 86.0832 98.326 86.0832C87.7831 86.0832 87.7831 86.0832 77.2403 86.0832C66.6974 86.0832 66.6974 86.0832 56.1545 86.0832Z" fill="#F4B220"/>
<path d="M56.1545 86.0832C66.6974 86.0832 66.6974 86.0832 77.2403 86.0832C87.7831 86.0832 87.7831 86.0832 98.326 86.0832C108.869 86.0832 108.869 152.301 119.412 152.301C129.955 152.301 129.955 86.0832 140.497 86.0832C151.04 86.0832 151.04 152.301 161.583 152.301C172.126 152.301 172.126 152.301 182.669 152.301C193.212 152.301 193.212 86.0832 203.755 86.0832C214.298 86.0832 214.298 86.0832 224.84 86.0832C235.383 86.0832 235.383 86.0832 245.926 86.0832C256.469 86.0832 256.469 86.0832 267.012 86.0832C277.555 86.0832 277.555 152.301 288.098 152.301C277.555 152.301 277.555 86.0832 267.012 86.0832C256.469 86.0832 256.469 86.0832 245.926 86.0832C235.383 86.0832 235.383 86.0832 224.84 86.0832C214.298 86.0832 214.298 86.0832 203.755 86.0832C193.212 86.0832 193.212 152.301 182.669 152.301C172.126 152.301 172.126 152.301 161.583 152.301C151.04 152.301 151.04 86.0832 140.497 86.0832C129.955 86.0832 129.955 152.301 119.412 152.301C108.869 152.301 108.869 86.0832 98.326 86.0832C87.7831 86.0832 87.7831 86.0832 77.2403 86.0832C66.6974 86.0832 66.6974 86.0832 56.1545 86.0832Z" fill="#F3AB20"/>
<path d="M56.1545 86.0832C66.6974 86.0832 66.6974 86.0832 77.2403 86.0832C87.7831 86.0832 87.7831 86.0832 98.326 86.0832C108.869 86.0832 108.869 152.301 119.412 152.301C129.955 152.301 129.955 86.0832 140.497 86.0832C151.04 86.0832 151.04 152.301 161.583 152.301C172.126 152.301 172.126 152.301 182.669 152.301C193.212 152.301 193.212 86.0832 203.755 86.0832C214.298 86.0832 214.298 86.0832 224.84 86.0832C235.383 86.0832 235.383 86.0832 245.926 86.0832C256.469 86.0832 256.469 86.0832 267.012 86.0832C277.555 86.0832 277.555 152.301 288.098 152.301C277.555 152.301 277.555 86.0832 267.012 86.0832C256.469 86.0832 256.469 86.0832 245.926 86.0832C235.383 86.0832 235.383 86.0832 224.84 86.0832C214.298 86.0832 214.298 86.0832 203.755 86.0832C193.212 86.0832 193.212 152.301 182.669 152.301C172.126 152.301 172.126 152.301 161.583 152.301C151.04 152.301 151.04 86.0832 140.497 86.0832C129.955 86.0832 129.955 152.301 119.412 152.301C108.869 152.301 108.869 86.0832 98.326 86.0832C87.7831 86.0832 87.7831 86.0832 77.2403 86.0832C66.6974 86.0832 66.6974 86.0832 56.1545 86.0832Z" fill="#F3AC20"/>
<path d="M56.1545 86.0832C66.6974 86.0832 66.6974 86.0832 77.2403 86.0832C87.7831 86.0832 87.7831 86.0832 98.326 86.0832C108.869 86.0832 108.869 152.301 119.412 152.301C129.955 152.301 129.955 86.0832 140.497 86.0832C151.04 86.0832 151.04 152.301 161.583 152.301C172.126 152.301 172.126 152.301 182.669 152.301C193.212 152.301 193.212 86.0832 203.755 86.0832C214.298 86.0832 214.298 86.0832 224.84 86.0832C235.383 86.0832 235.383 86.0832 245.926 86.0832C256.469 86.0832 256.469 86.0832 267.012 86.0832C277.555 86.0832 277.555 152.301 288.098 152.301C277.555 152.301 277.555 86.0832 267.012 86.0832C256.469 86.0832 256.469 86.0832 245.926 86.0832C235.383 86.0832 235.383 86.0832 224.84 86.0832C214.298 86.0832 214.298 86.0832 203.755 86.0832C193.212 86.0832 193.212 152.301 182.669 152.301C172.126 152.301 172.126 152.301 161.583 152.301C151.04 152.301 151.04 86.0832 140.497 86.0832C129.955 86.0832 129.955 152.301 119.412 152.301C108.869 152.301 108.869 86.0832 98.326 86.0832C87.7831 86.0832 87.7831 86.0832 77.2403 86.0832C66.6974 86.0832 66.6974 86.0832 56.1545 86.0832Z" fill="#F3AE20"/>
<path d="M56.1545 86.0832C66.6974 86.0832 66.6974 86.0832 77.2403 86.0832C87.7831 86.0832 87.7831 86.0832 98.326 86.0832C108.869 86.0832 108.869 152.301 119.412 152.301C129.955 152.301 129.955 86.0832 140.497 86.0832C151.04 86.0832 151.04 152.301 161.583 152.301C172.126 152.301 172.126 152.301 182.669 152.301C193.212 152.301 193.212 86.0832 203.755 86.0832C214.298 86.0832 214.298 86.0832 224.84 86.0832C235.383 86.0832 235.383 86.0832 245.926 86.0832C256.469 86.0832 256.469 86.0832 267.012 86.0832C277.555 86.0832 277.555 152.301 288.098 152.301C277.555 152.301 277.555 86.0832 267.012 86.0832C256.469 86.0832 256.469 86.0832 245.926 86.0832C235.383 86.0832 235.383 86.0832 224.84 86.0832C214.298 86.0832 214.298 86.0832 203.755 86.0832C193.212 86.0832 193.212 152.301 182.669 152.301C172.126 152.301 172.126 152.301 161.583 152.301C151.04 152.301 151.04 86.0832 140.497 86.0832C129.955 86.0832 129.955 152.301 119.412 152.301C108.869 152.301 108.869 86.0832 98.326 86.0832C87.7831 86.0832 87.7831 86.0832 77.2403 86.0832C66.6974 86.0832 66.6974 86.0832 56.1545 86.0832Z" fill="#F4B420"/>
<path d="M56.1545 86.0832C66.6974 86.0832 66.6974 86.0832 77.2403 86.0832C87.7831 86.0832 87.7831 86.0832 98.326 86.0832C108.869 86.0832 108.869 152.301 119.412 152.301C129.955 152.301 129.955 86.0832 140.497 86.0832C151.04 86.0832 151.04 152.301 161.583 152.301C172.126 152.301 172.126 152.301 182.669 152.301C193.212 152.301 193.212 86.0832 203.755 86.0832C214.298 86.0832 214.298 86.0832 224.84 86.0832C235.383 86.0832 235.383 86.0832 245.926 86.0832C256.469 86.0832 256.469 86.0832 267.012 86.0832C277.555 86.0832 277.555 152.301 288.098 152.301C277.555 152.301 277.555 86.0832 267.012 86.0832C256.469 86.0832 256.469 86.0832 245.926 86.0832C235.383 86.0832 235.383 86.0832 224.84 86.0832C214.298 86.0832 214.298 86.0832 203.755 86.0832C193.212 86.0832 193.212 152.301 182.669 152.301C172.126 152.301 172.126 152.301 161.583 152.301C151.04 152.301 151.04 86.0832 140.497 86.0832C129.955 86.0832 129.955 152.301 119.412 152.301C108.869 152.301 108.869 86.0832 98.326 86.0832C87.7831 86.0832 87.7831 86.0832 77.2403 86.0832C66.6974 86.0832 66.6974 86.0832 56.1545 86.0832Z" fill="#F2A720"/>
<path d="M56.1545 86.0832C66.6974 86.0832 66.6974 86.0832 77.2403 86.0832C87.7831 86.0832 87.7831 86.0832 98.326 86.0832C108.869 86.0832 108.869 152.301 119.412 152.301C129.955 152.301 129.955 86.0832 140.497 86.0832C151.04 86.0832 151.04 152.301 161.583 152.301C172.126 152.301 172.126 152.301 182.669 152.301C193.212 152.301 193.212 86.0832 203.755 86.0832C214.298 86.0832 214.298 86.0832 224.84 86.0832C235.383 86.0832 235.383 86.0832 245.926 86.0832C256.469 86.0832 256.469 86.0832 267.012 86.0832C277.555 86.0832 277.555 152.301 288.098 152.301C277.555 152.301 277.555 86.0832 267.012 86.0832C256.469 86.0832 256.469 86.0832 245.926 86.0832C235.383 86.0832 235.383 86.0832 224.84 86.0832C214.298 86.0832 214.298 86.0832 203.755 86.0832C193.212 86.0832 193.212 152.301 182.669 152.301C172.126 152.301 172.126 152.301 161.583 152.301C151.04 152.301 151.04 86.0832 140.497 86.0832C129.955 86.0832 129.955 152.301 119.412 152.301C108.869 152.301 108.869 86.0832 98.326 86.0832C87.7831 86.0832 87.7831 86.0832 77.2403 86.0832C66.6974 86.0832 66.6974 86.0832 56.1545 86.0832Z" fill="#F19E20"/>
<path d="M56.1545 86.0832C66.6974 86.0832 66.6974 86.0832 77.2403 86.0832C87.7831 86.0832 87.7831 86.0832 98.326 86.0832C108.869 86.0832 108.869 152.301 119.412 152.301C129.955 152.301 129.955 86.0832 140.497 86.0832C151.04 86.0832 151.04 152.301 161.583 152.301C172.126 152.301 172.126 152.301 182.669 152.301C193.212 152.301 193.212 86.0832 203.755 86.0832C214.298 86.0832 214.298 86.0832 224.84 86.0832C235.383 86.0832 235.383 86.0832 245.926 86.0832C256.469 86.0832 256.469 86.0832 267.012 86.0832C277.555 86.0832 277.555 152.301 288.098 152.301C277.555 152.301 277.555 86.0832 267.012 86.0832C256.469 86.0832 256.469 86.0832 245.926 86.0832C235.383 86.0832 235.383 86.0832 224.84 86.0832C214.298 86.0832 214.298 86.0832 203.755 86.0832C193.212 86.0832 193.212 152.301 182.669 152.301C172.126 152.301 172.126 152.301 161.583 152.301C151.04 152.301 151.04 86.0832 140.497 86.0832C129.955 86.0832 129.955 152.301 119.412 152.301C108.869 152.301 108.869 86.0832 98.326 86.0832C87.7831 86.0832 87.7831 86.0832 77.2403 86.0832C66.6974 86.0832 66.6974 86.0832 56.1545 86.0832Z" fill="#F1A020"/>
<path d="M56.1545 86.0832C66.6974 86.0832 66.6974 86.0832 77.2403 86.0832C87.7831 86.0832 87.7831 86.0832 98.326 86.0832C108.869 86.0832 108.869 152.301 119.412 152.301C129.955 152.301 129.955 86.0832 140.497 86.0832C151.04 86.0832 151.04 152.301 161.583 152.301C172.126 152.301 172.126 152.301 182.669 152.301C193.212 152.301 193.212 86.0832 203.755 86.0832C214.298 86.0832 214.298 86.0832 224.84 86.0832C235.383 86.0832 235.383 86.0832 245.926 86.0832C256.469 86.0832 256.469 86.0832 267.012 86.0832C277.555 86.0832 277.555 152.301 288.098 152.301C277.555 152.301 277.555 86.0832 267.012 86.0832C256.469 86.0832 256.469 86.0832 245.926 86.0832C235.383 86.0832 235.383 86.0832 224.84 86.0832C214.298 86.0832 214.298 86.0832 203.755 86.0832C193.212 86.0832 193.212 152.301 182.669 152.301C172.126 152.301 172.126 152.301 161.583 152.301C151.04 152.301 151.04 86.0832 140.497 86.0832C129.955 86.0832 129.955 152.301 119.412 152.301C108.869 152.301 108.869 86.0832 98.326 86.0832C87.7831 86.0832 87.7831 86.0832 77.2403 86.0832C66.6974 86.0832 66.6974 86.0832 56.1545 86.0832Z" fill="#EC8520"/>
<path d="M56.1545 86.0832C66.6974 86.0832 66.6974 86.0832 77.2403 86.0832C87.7831 86.0832 87.7831 86.0832 98.326 86.0832C108.869 86.0832 108.869 152.301 119.412 152.301C129.955 152.301 129.955 86.0832 140.497 86.0832C151.04 86.0832 151.04 152.301 161.583 152.301C172.126 152.301 172.126 152.301 182.669 152.301C193.212 152.301 193.212 86.0832 203.755 86.0832C214.298 86.0832 214.298 86.0832 224.84 86.0832C235.383 86.0832 235.383 86.0832 245.926 86.0832C256.469 86.0832 256.469 86.0832 267.012 86.0832C277.555 86.0832 277.555 152.301 288.098 152.301C277.555 152.301 277.555 86.0832 267.012 86.0832C256.469 86.0832 256.469 86.0832 245.926 86.0832C235.383 86.0832 235.383 86.0832 224.84 86.0832C214.298 86.0832 214.298 86.0832 203.755 86.0832C193.212 86.0832 193.212 152.301 182.669 152.301C172.126 152.301 172.126 152.301 161.583 152.301C151.04 152.301 151.04 86.0832 140.497 86.0832C129.955 86.0832 129.955 152.301 119.412 152.301C108.869 152.301 108.869 86.0832 98.326 86.0832C87.7831 86.0832 87.7831 86.0832 77.2403 86.0832C66.6974 86.0832 66.6974 86.0832 56.1545 86.0832Z" fill="#EE8C20"/>
<path d="M56.1545 86.0832C66.6974 86.0832 66.6974 86.0832 77.2403 86.0832C87.7831 86.0832 87.7831 86.0832 98.326 86.0832C108.869 86.0832 108.869 152.301 119.412 152.301C129.955 152.301 129.955 86.0832 140.497 86.0832C151.04 86.0832 151.04 152.301 161.583 152.301C172.126 152.301 172.126 152.301 182.669 152.301C193.212 152.301 193.212 86.0832 203.755 86.0832C214.298 86.0832 214.298 86.0832 224.84 86.0832C235.383 86.0832 235.383 86.0832 245.926 86.0832C256.469 86.0832 256.469 86.0832 267.012 86.0832C277.555 86.0832 277.555 152.301 288.098 152.301C277.555 152.301 277.555 86.0832 267.012 86.0832C256.469 86.0832 256.469 86.0832 245.926 86.0832C235.383 86.0832 235.383 86.0832 224.84 86.0832C214.298 86.0832 214.298 86.0832 203.755 86.0832C193.212 86.0832 193.212 152.301 182.669 152.301C172.126 152.301 172.126 152.301 161.583 152.301C151.04 152.301 151.04 86.0832 140.497 86.0832C129.955 86.0832 129.955 152.301 119.412 152.301C108.869 152.301 108.869 86.0832 98.326 86.0832C87.7831 86.0832 87.7831 86.0832 77.2403 86.0832C66.6974 86.0832 66.6974 86.0832 56.1545 86.0832Z" fill="#E6641F"/>
<path d="M56.1545 86.0832C66.6974 86.0832 66.6974 86.0832 77.2403 86.0832C87.7831 86.0832 87.7831 86.0832 98.326 86.0832C108.869 86.0832 108.869 152.301 119.412 152.301C129.955 152.301 129.955 86.0832 140.497 86.0832C151.04 86.0832 151.04 152.301 161.583 152.301C172.126 152.301 172.126 152.301 182.669 152.301C193.212 152.301 193.212 86.0832 203.755 86.0832C214.298 86.0832 214.298 86.0832 224.84 86.0832C235.383 86.0832 235.383 86.0832 245.926 86.0832C256.469 86.0832 256.469 86.0832 267.012 86.0832C277.555 86.0832 277.555 152.301 288.098 152.301C277.555 152.301 277.555 86.0832 267.012 86.0832C256.469 86.0832 256.469 86.0832 245.926 86.0832C235.383 86.0832 235.383 86.0832 224.84 86.0832C214.298 86.0832 214.298 86.0832 203.755 86.0832C193.212 86.0832 193.212 152.301 182.669 152.301C172.126 152.301 172.126 152.301 161.583 152.301C151.04 152.301 151.04 86.0832 140.497 86.0832C129.955 86.0832 129.955 152.301 119.412 152.301C108.869 152.301 108.869 86.0832 98.326 86.0832C87.7831 86.0832 87.7831 86.0832 77.2403 86.0832C66.6974 86.0832 66.6974 86.0832 56.1545 86.0832Z" fill="#E0491E"/>
<path d="M56.1545 86.0832C66.6974 86.0832 66.6974 86.0832 77.2403 86.0832C87.7831 86.0832 87.7831 86.0832 98.326 86.0832C108.869 86.0832 108.869 152.301 119.412 152.301C129.955 152.301 129.955 86.0832 140.497 86.0832C151.04 86.0832 151.04 152.301 161.583 152.301C172.126 152.301 172.126 152.301 182.669 152.301C193.212 152.301 193.212 86.0832 203.755 86.0832C214.298 86.0832 214.298 86.0832 224.84 86.0832C235.383 86.0832 235.383 86.0832 245.926 86.0832C256.469 86.0832 256.469 86.0832 267.012 86.0832C277.555 86.0832 277.555 152.301 288.098 152.301C277.555 152.301 277.555 86.0832 267.012 86.0832C256.469 86.0832 256.469 86.0832 245.926 86.0832C235.383 86.0832 235.383 86.0832 224.84 86.0832C214.298 86.0832 214.298 86.0832 203.755 86.0832C193.212 86.0832 193.212 152.301 182.669 152.301C172.126 152.301 172.126 152.301 161.583 152.301C151.04 152.301 151.04 86.0832 140.497 86.0832C129.955 86.0832 129.955 152.301 119.412 152.301C108.869 152.301 108.869 86.0832 98.326 86.0832C87.7831 86.0832 87.7831 86.0832 77.2403 86.0832C66.6974 86.0832 66.6974 86.0832 56.1545 86.0832Z" fill="#E04C1E"/>
<path d="M56.1545 86.0832C66.6974 86.0832 66.6974 86.0832 77.2403 86.0832C87.7831 86.0832 87.7831 86.0832 98.326 86.0832C108.869 86.0832 108.869 152.301 119.412 152.301C129.955 152.301 129.955 86.0832 140.497 86.0832C151.04 86.0832 151.04 152.301 161.583 152.301C172.126 152.301 172.126 152.301 182.669 152.301C193.212 152.301 193.212 86.0832 203.755 86.0832C214.298 86.0832 214.298 86.0832 224.84 86.0832C235.383 86.0832 235.383 86.0832 245.926 86.0832C256.469 86.0832 256.469 86.0832 267.012 86.0832C277.555 86.0832 277.555 152.301 288.098 152.301C277.555 152.301 277.555 86.0832 267.012 86.0832C256.469 86.0832 256.469 86.0832 245.926 86.0832C235.383 86.0832 235.383 86.0832 224.84 86.0832C214.298 86.0832 214.298 86.0832 203.755 86.0832C193.212 86.0832 193.212 152.301 182.669 152.301C172.126 152.301 172.126 152.301 161.583 152.301C151.04 152.301 151.04 86.0832 140.497 86.0832C129.955 86.0832 129.955 152.301 119.412 152.301C108.869 152.301 108.869 86.0832 98.326 86.0832C87.7831 86.0832 87.7831 86.0832 77.2403 86.0832C66.6974 86.0832 66.6974 86.0832 56.1545 86.0832Z" fill="#D0021B"/>
<path d="M56.1545 86.0832C66.6974 86.0832 66.6974 86.0832 77.2403 86.0832C87.7831 86.0832 87.7831 86.0832 98.326 86.0832C108.869 86.0832 108.869 152.301 119.412 152.301C129.955 152.301 129.955 86.0832 140.497 86.0832C151.04 86.0832 151.04 152.301 161.583 152.301C172.126 152.301 172.126 152.301 182.669 152.301C193.212 152.301 193.212 86.0832 203.755 86.0832C214.298 86.0832 214.298 86.0832 224.84 86.0832C235.383 86.0832 235.383 86.0832 245.926 86.0832C256.469 86.0832 256.469 86.0832 267.012 86.0832C277.555 86.0832 277.555 152.301 288.098 152.301C277.555 152.301 277.555 86.0832 267.012 86.0832C256.469 86.0832 256.469 86.0832 245.926 86.0832C235.383 86.0832 235.383 86.0832 224.84 86.0832C214.298 86.0832 214.298 86.0832 203.755 86.0832C193.212 86.0832 193.212 152.301 182.669 152.301C172.126 152.301 172.126 152.301 161.583 152.301C151.04 152.301 151.04 86.0832 140.497 86.0832C129.955 86.0832 129.955 152.301 119.412 152.301C108.869 152.301 108.869 86.0832 98.326 86.0832C87.7831 86.0832 87.7831 86.0832 77.2403 86.0832C66.6974 86.0832 66.6974 86.0832 56.1545 86.0832Z" fill="#D5191C"/>
<path d="M56.1545 86.0832C66.6974 86.0832 66.6974 86.0832 77.2403 86.0832C87.7831 86.0832 87.7831 86.0832 98.326 86.0832C108.869 86.0832 108.869 152.301 119.412 152.301C129.955 152.301 129.955 86.0832 140.497 86.0832C151.04 86.0832 151.04 152.301 161.583 152.301C172.126 152.301 172.126 152.301 182.669 152.301C193.212 152.301 193.212 86.0832 203.755 86.0832C214.298 86.0832 214.298 86.0832 224.84 86.0832C235.383 86.0832 235.383 86.0832 245.926 86.0832C256.469 86.0832 256.469 86.0832 267.012 86.0832C277.555 86.0832 277.555 152.301 288.098 152.301C277.555 152.301 277.555 86.0832 267.012 86.0832C256.469 86.0832 256.469 86.0832 245.926 86.0832C235.383 86.0832 235.383 86.0832 224.84 86.0832C214.298 86.0832 214.298 86.0832 203.755 86.0832C193.212 86.0832 193.212 152.301 182.669 152.301C172.126 152.301 172.126 152.301 161.583 152.301C151.04 152.301 151.04 86.0832 140.497 86.0832C129.955 86.0832 129.955 152.301 119.412 152.301C108.869 152.301 108.869 86.0832 98.326 86.0832C87.7831 86.0832 87.7831 86.0832 77.2403 86.0832C66.6974 86.0832 66.6974 86.0832 56.1545 86.0832Z" fill="#E2521F"/>
<path d="M56.1545 86.0832C66.6974 86.0832 66.6974 86.0832 77.2403 86.0832C87.7831 86.0832 87.7831 86.0832 98.326 86.0832C108.869 86.0832 108.869 152.301 119.412 152.301C129.955 152.301 129.955 86.0832 140.497 86.0832C151.04 86.0832 151.04 152.301 161.583 152.301C172.126 152.301 172.126 152.301 182.669 152.301C193.212 152.301 193.212 86.0832 203.755 86.0832C214.298 86.0832 214.298 86.0832 224.84 86.0832C235.383 86.0832 235.383 86.0832 245.926 86.0832C256.469 86.0832 256.469 86.0832 267.012 86.0832C277.555 86.0832 277.555 152.301 288.098 152.301C277.555 152.301 277.555 86.0832 267.012 86.0832C256.469 86.0832 256.469 86.0832 245.926 86.0832C235.383 86.0832 235.383 86.0832 224.84 86.0832C214.298 86.0832 214.298 86.0832 203.755 86.0832C193.212 86.0832 193.212 152.301 182.669 152.301C172.126 152.301 172.126 152.301 161.583 152.301C151.04 152.301 151.04 86.0832 140.497 86.0832C129.955 86.0832 129.955 152.301 119.412 152.301C108.869 152.301 108.869 86.0832 98.326 86.0832C87.7831 86.0832 87.7831 86.0832 77.2403 86.0832C66.6974 86.0832 66.6974 86.0832 56.1545 86.0832Z" fill="#E6671F"/>
<path d="M56.1545 86.0832C66.6974 86.0832 66.6974 86.0832 77.2403 86.0832C87.7831 86.0832 87.7831 86.0832 98.326 86.0832C108.869 86.0832 108.869 152.301 119.412 152.301C129.955 152.301 129.955 86.0832 140.497 86.0832C151.04 86.0832 151.04 152.301 161.583 152.301C172.126 152.301 172.126 152.301 182.669 152.301C193.212 152.301 193.212 86.0832 203.755 86.0832C214.298 86.0832 214.298 86.0832 224.84 86.0832C235.383 86.0832 235.383 86.0832 245.926 86.0832C256.469 86.0832 256.469 86.0832 267.012 86.0832C277.555 86.0832 277.555 152.301 288.098 152.301C277.555 152.301 277.555 86.0832 267.012 86.0832C256.469 86.0832 256.469 86.0832 245.926 86.0832C235.383 86.0832 235.383 86.0832 224.84 86.0832C214.298 86.0832 214.298 86.0832 203.755 86.0832C193.212 86.0832 193.212 152.301 182.669 152.301C172.126 152.301 172.126 152.301 161.583 152.301C151.04 152.301 151.04 86.0832 140.497 86.0832C129.955 86.0832 129.955 152.301 119.412 152.301C108.869 152.301 108.869 86.0832 98.326 86.0832C87.7831 86.0832 87.7831 86.0832 77.2403 86.0832C66.6974 86.0832 66.6974 86.0832 56.1545 86.0832Z" fill="#F09821"/>
<path d="M56.1545 86.0832C66.6974 86.0832 66.6974 86.0832 77.2403 86.0832C87.7831 86.0832 87.7831 86.0832 98.326 86.0832C108.869 86.0832 108.869 152.301 119.412 152.301C129.955 152.301 129.955 86.0832 140.497 86.0832C151.04 86.0832 151.04 152.301 161.583 152.301C172.126 152.301 172.126 152.301 182.669 152.301C193.212 152.301 193.212 86.0832 203.755 86.0832C214.298 86.0832 214.298 86.0832 224.84 86.0832C235.383 86.0832 235.383 86.0832 245.926 86.0832C256.469 86.0832 256.469 86.0832 267.012 86.0832C277.555 86.0832 277.555 152.301 288.098 152.301C277.555 152.301 277.555 86.0832 267.012 86.0832C256.469 86.0832 256.469 86.0832 245.926 86.0832C235.383 86.0832 235.383 86.0832 224.84 86.0832C214.298 86.0832 214.298 86.0832 203.755 86.0832C193.212 86.0832 193.212 152.301 182.669 152.301C172.126 152.301 172.126 152.301 161.583 152.301C151.04 152.301 151.04 86.0832 140.497 86.0832C129.955 86.0832 129.955 152.301 119.412 152.301C108.869 152.301 108.869 86.0832 98.326 86.0832C87.7831 86.0832 87.7831 86.0832 77.2403 86.0832C66.6974 86.0832 66.6974 86.0832 56.1545 86.0832Z" fill="#E97520"/>
<path d="M56.1545 86.0832C66.6974 86.0832 66.6974 86.0832 77.2403 86.0832C87.7831 86.0832 87.7831 86.0832 98.326 86.0832C108.869 86.0832 108.869 152.301 119.412 152.301C129.955 152.301 129.955 86.0832 140.497 86.0832C151.04 86.0832 151.04 152.301 161.583 152.301C172.126 152.301 172.126 152.301 182.669 152.301C193.212 152.301 193.212 86.0832 203.755 86.0832C214.298 86.0832 214.298 86.0832 224.84 86.0832C235.383 86.0832 235.383 86.0832 245.926 86.0832C256.469 86.0832 256.469 86.0832 267.012 86.0832C277.555 86.0832 277.555 152.301 288.098 152.301C277.555 152.301 277.555 86.0832 267.012 86.0832C256.469 86.0832 256.469 86.0832 245.926 86.0832C235.383 86.0832 235.383 86.0832 224.84 86.0832C214.298 86.0832 214.298 86.0832 203.755 86.0832C193.212 86.0832 193.212 152.301 182.669 152.301C172.126 152.301 172.126 152.301 161.583 152.301C151.04 152.301 151.04 86.0832 140.497 86.0832C129.955 86.0832 129.955 152.301 119.412 152.301C108.869 152.301 108.869 86.0832 98.326 86.0832C87.7831 86.0832 87.7831 86.0832 77.2403 86.0832C66.6974 86.0832 66.6974 86.0832 56.1545 86.0832Z" fill="#E45E1F"/>
<path d="M56.1545 86.0832C66.6974 86.0832 66.6974 86.0832 77.2403 86.0832C87.7831 86.0832 87.7831 86.0832 98.326 86.0832C108.869 86.0832 108.869 152.301 119.412 152.301C129.955 152.301 129.955 86.0832 140.497 86.0832C151.04 86.0832 151.04 152.301 161.583 152.301C172.126 152.301 172.126 152.301 182.669 152.301C193.212 152.301 193.212 86.0832 203.755 86.0832C214.298 86.0832 214.298 86.0832 224.84 86.0832C235.383 86.0832 235.383 86.0832 245.926 86.0832C256.469 86.0832 256.469 86.0832 267.012 86.0832C277.555 86.0832 277.555 152.301 288.098 152.301C277.555 152.301 277.555 86.0832 267.012 86.0832C256.469 86.0832 256.469 86.0832 245.926 86.0832C235.383 86.0832 235.383 86.0832 224.84 86.0832C214.298 86.0832 214.298 86.0832 203.755 86.0832C193.212 86.0832 193.212 152.301 182.669 152.301C172.126 152.301 172.126 152.301 161.583 152.301C151.04 152.301 151.04 86.0832 140.497 86.0832C129.955 86.0832 129.955 152.301 119.412 152.301C108.869 152.301 108.869 86.0832 98.326 86.0832C87.7831 86.0832 87.7831 86.0832 77.2403 86.0832C66.6974 86.0832 66.6974 86.0832 56.1545 86.0832Z" fill="#E2551F"/>
<path d="M56.1545 86.0832C66.6974 86.0832 66.6974 86.0832 77.2403 86.0832C87.7831 86.0832 87.7831 86.0832 98.326 86.0832C108.869 86.0832 108.869 152.301 119.412 152.301C129.955 152.301 129.955 86.0832 140.497 86.0832C151.04 86.0832 151.04 152.301 161.583 152.301C172.126 152.301 172.126 152.301 182.669 152.301C193.212 152.301 193.212 86.0832 203.755 86.0832C214.298 86.0832 214.298 86.0832 224.84 86.0832C235.383 86.0832 235.383 86.0832 245.926 86.0832C256.469 86.0832 256.469 86.0832 267.012 86.0832C277.555 86.0832 277.555 152.301 288.098 152.301C277.555 152.301 277.555 86.0832 267.012 86.0832C256.469 86.0832 256.469 86.0832 245.926 86.0832C235.383 86.0832 235.383 86.0832 224.84 86.0832C214.298 86.0832 214.298 86.0832 203.755 86.0832C193.212 86.0832 193.212 152.301 182.669 152.301C172.126 152.301 172.126 152.301 161.583 152.301C151.04 152.301 151.04 86.0832 140.497 86.0832C129.955 86.0832 129.955 152.301 119.412 152.301C108.869 152.301 108.869 86.0832 98.326 86.0832C87.7831 86.0832 87.7831 86.0832 77.2403 86.0832C66.6974 86.0832 66.6974 86.0832 56.1545 86.0832Z" fill="#EF9120"/>
<path d="M56.1545 86.0832C66.6974 86.0832 66.6974 86.0832 77.2403 86.0832C87.7831 86.0832 87.7831 86.0832 98.326 86.0832C108.869 86.0832 108.869 152.301 119.412 152.301C129.955 152.301 129.955 86.0832 140.497 86.0832C151.04 86.0832 151.04 152.301 161.583 152.301C172.126 152.301 172.126 152.301 182.669 152.301C193.212 152.301 193.212 86.0832 203.755 86.0832C214.298 86.0832 214.298 86.0832 224.84 86.0832C235.383 86.0832 235.383 86.0832 245.926 86.0832C256.469 86.0832 256.469 86.0832 267.012 86.0832C277.555 86.0832 277.555 152.301 288.098 152.301C277.555 152.301 277.555 86.0832 267.012 86.0832C256.469 86.0832 256.469 86.0832 245.926 86.0832C235.383 86.0832 235.383 86.0832 224.84 86.0832C214.298 86.0832 214.298 86.0832 203.755 86.0832C193.212 86.0832 193.212 152.301 182.669 152.301C172.126 152.301 172.126 152.301 161.583 152.301C151.04 152.301 151.04 86.0832 140.497 86.0832C129.955 86.0832 129.955 152.301 119.412 152.301C108.869 152.301 108.869 86.0832 98.326 86.0832C87.7831 86.0832 87.7831 86.0832 77.2403 86.0832C66.6974 86.0832 66.6974 86.0832 56.1545 86.0832Z" fill="#F09C21"/>
<path d="M56.1545 86.0832C66.6974 86.0832 66.6974 86.0832 77.2403 86.0832C87.7831 86.0832 87.7831 86.0832 98.326 86.0832C108.869 86.0832 108.869 152.301 119.412 152.301C129.955 152.301 129.955 86.0832 140.497 86.0832C151.04 86.0832 151.04 152.301 161.583 152.301C172.126 152.301 172.126 152.301 182.669 152.301C193.212 152.301 193.212 86.0832 203.755 86.0832C214.298 86.0832 214.298 86.0832 224.84 86.0832C235.383 86.0832 235.383 86.0832 245.926 86.0832C256.469 86.0832 256.469 86.0832 267.012 86.0832C277.555 86.0832 277.555 152.301 288.098 152.301C277.555 152.301 277.555 86.0832 267.012 86.0832C256.469 86.0832 256.469 86.0832 245.926 86.0832C235.383 86.0832 235.383 86.0832 224.84 86.0832C214.298 86.0832 214.298 86.0832 203.755 86.0832C193.212 86.0832 193.212 152.301 182.669 152.301C172.126 152.301 172.126 152.301 161.583 152.301C151.04 152.301 151.04 86.0832 140.497 86.0832C129.955 86.0832 129.955 152.301 119.412 152.301C108.869 152.301 108.869 86.0832 98.326 86.0832C87.7831 86.0832 87.7831 86.0832 77.2403 86.0832C66.6974 86.0832 66.6974 86.0832 56.1545 86.0832Z" fill="#F2A920"/>
<path d="M56.1545 86.0832C66.6974 86.0832 66.6974 86.0832 77.2403 86.0832C87.7831 86.0832 87.7831 86.0832 98.326 86.0832C108.869 86.0832 108.869 152.301 119.412 152.301C129.955 152.301 129.955 86.0832 140.497 86.0832C151.04 86.0832 151.04 152.301 161.583 152.301C172.126 152.301 172.126 152.301 182.669 152.301C193.212 152.301 193.212 86.0832 203.755 86.0832C214.298 86.0832 214.298 86.0832 224.84 86.0832C235.383 86.0832 235.383 86.0832 245.926 86.0832C256.469 86.0832 256.469 86.0832 267.012 86.0832C277.555 86.0832 277.555 152.301 288.098 152.301C277.555 152.301 277.555 86.0832 267.012 86.0832C256.469 86.0832 256.469 86.0832 245.926 86.0832C235.383 86.0832 235.383 86.0832 224.84 86.0832C214.298 86.0832 214.298 86.0832 203.755 86.0832C193.212 86.0832 193.212 152.301 182.669 152.301C172.126 152.301 172.126 152.301 161.583 152.301C151.04 152.301 151.04 86.0832 140.497 86.0832C129.955 86.0832 129.955 152.301 119.412 152.301C108.869 152.301 108.869 86.0832 98.326 86.0832C87.7831 86.0832 87.7831 86.0832 77.2403 86.0832C66.6974 86.0832 66.6974 86.0832 56.1545 86.0832Z" fill="#F4B720"/>
<path d="M56.1545 86.0832C66.6974 86.0832 66.6974 86.0832 77.2403 86.0832C87.7831 86.0832 87.7831 86.0832 98.326 86.0832C108.869 86.0832 108.869 152.301 119.412 152.301C129.955 152.301 129.955 86.0832 140.497 86.0832C151.04 86.0832 151.04 152.301 161.583 152.301C172.126 152.301 172.126 152.301 182.669 152.301C193.212 152.301 193.212 86.0832 203.755 86.0832C214.298 86.0832 214.298 86.0832 224.84 86.0832C235.383 86.0832 235.383 86.0832 245.926 86.0832C256.469 86.0832 256.469 86.0832 267.012 86.0832C277.555 86.0832 277.555 152.301 288.098 152.301C277.555 152.301 277.555 86.0832 267.012 86.0832C256.469 86.0832 256.469 86.0832 245.926 86.0832C235.383 86.0832 235.383 86.0832 224.84 86.0832C214.298 86.0832 214.298 86.0832 203.755 86.0832C193.212 86.0832 193.212 152.301 182.669 152.301C172.126 152.301 172.126 152.301 161.583 152.301C151.04 152.301 151.04 86.0832 140.497 86.0832C129.955 86.0832 129.955 152.301 119.412 152.301C108.869 152.301 108.869 86.0832 98.326 86.0832C87.7831 86.0832 87.7831 86.0832 77.2403 86.0832C66.6974 86.0832 66.6974 86.0832 56.1545 86.0832Z" fill="#F2A520"/>
<path d="M56.1543 152.301H288.097" stroke="black"/>
<path d="M56.1543 152.301V158.923" stroke="black"/>
<path d="M57.1399 161.76V169.033H56.2592V162.684H56.2166L54.441 163.863V162.968L56.2592 161.76H57.1399Z" fill="black"/>
<path d="M77.2401 152.301V158.923" stroke="black"/>
<path d="M74.9657 169.033V168.394L77.3662 165.766C77.648 165.458 77.88 165.191 78.0623 164.964C78.2445 164.734 78.3795 164.519 78.4671 164.317C78.557 164.114 78.602 163.901 78.602 163.678C78.602 163.422 78.5405 163.201 78.4174 163.014C78.2966 162.827 78.1309 162.683 77.9202 162.581C77.7095 162.479 77.4728 162.428 77.21 162.428C76.9306 162.428 76.6868 162.486 76.4784 162.602C76.2725 162.716 76.1127 162.876 75.999 163.081C75.8878 163.287 75.8321 163.529 75.8321 163.806H74.9941C74.9941 163.38 75.0923 163.006 75.2888 162.684C75.4853 162.362 75.7528 162.111 76.0914 161.931C76.4323 161.751 76.8146 161.661 77.2384 161.661C77.6645 161.661 78.0421 161.751 78.3712 161.931C78.7003 162.111 78.9583 162.353 79.1453 162.659C79.3324 162.964 79.4259 163.304 79.4259 163.678C79.4259 163.946 79.3774 164.207 79.2803 164.463C79.1856 164.716 79.0199 164.999 78.7831 165.312C78.5488 165.622 78.2232 166.001 77.8066 166.448L76.173 168.195V168.252H79.5537V169.033H74.9657Z" fill="black"/>
<path d="M98.3258 152.301V158.923" stroke="black"/>
<path d="M98.3525 169.133C97.8837 169.133 97.4659 169.052 97.0989 168.891C96.7344 168.73 96.4443 168.506 96.2289 168.22C96.0158 167.931 95.8998 167.596 95.8809 167.215H96.7758C96.7947 167.449 96.8752 167.652 97.0173 167.822C97.1593 167.99 97.3452 168.121 97.5748 168.213C97.8044 168.305 98.0589 168.351 98.3383 168.351C98.6508 168.351 98.9278 168.297 99.1693 168.188C99.4107 168.079 99.6001 167.928 99.7374 167.733C99.8747 167.539 99.9434 167.314 99.9434 167.059C99.9434 166.791 99.8771 166.556 99.7445 166.352C99.612 166.146 99.4178 165.985 99.1622 165.869C98.9065 165.753 98.594 165.695 98.2247 165.695H97.6423V164.914H98.2247C98.5135 164.914 98.7668 164.862 98.9846 164.758C99.2048 164.653 99.3764 164.507 99.4995 164.317C99.625 164.128 99.6877 163.905 99.6877 163.65C99.6877 163.403 99.6333 163.189 99.5244 163.007C99.4155 162.825 99.2616 162.683 99.0627 162.581C98.8662 162.479 98.6342 162.428 98.3667 162.428C98.1157 162.428 97.879 162.474 97.6565 162.567C97.4363 162.657 97.2564 162.788 97.1167 162.961C96.977 163.131 96.9013 163.337 96.8894 163.579H96.0372C96.0514 163.197 96.1662 162.864 96.3816 162.577C96.597 162.288 96.8788 162.063 97.2268 161.903C97.5772 161.742 97.9619 161.661 98.3809 161.661C98.8307 161.661 99.2166 161.752 99.5386 161.934C99.8605 162.114 100.108 162.352 100.281 162.648C100.454 162.944 100.54 163.264 100.54 163.607C100.54 164.017 100.432 164.366 100.217 164.655C100.004 164.943 99.7138 165.144 99.3468 165.255V165.312C99.8061 165.387 100.165 165.583 100.423 165.898C100.681 166.21 100.81 166.597 100.81 167.059C100.81 167.454 100.702 167.809 100.487 168.124C100.274 168.437 99.9825 168.683 99.6131 168.863C99.2438 169.043 98.8236 169.133 98.3525 169.133Z" fill="black"/>
<path d="M119.411 152.301V158.923" stroke="black"/>
<path d="M116.786 167.542V166.817L119.982 161.76H120.508V162.883H120.152L117.738 166.704V166.76H122.042V167.542H116.786ZM120.209 169.033V167.322V166.984V161.76H121.047V169.033H120.209Z" fill="black"/>
<path d="M140.497 152.301V158.923" stroke="black"/>
<path d="M140.481 169.133C140.064 169.133 139.689 169.05 139.355 168.884C139.021 168.718 138.754 168.491 138.553 168.202C138.351 167.913 138.241 167.584 138.222 167.215H139.075C139.108 167.544 139.257 167.816 139.522 168.032C139.79 168.245 140.109 168.351 140.481 168.351C140.779 168.351 141.044 168.282 141.276 168.142C141.511 168.002 141.694 167.81 141.827 167.567C141.962 167.32 142.029 167.042 142.029 166.732C142.029 166.415 141.959 166.132 141.82 165.883C141.682 165.632 141.493 165.435 141.252 165.29C141.01 165.146 140.734 165.072 140.424 165.07C140.202 165.068 139.973 165.102 139.739 165.173C139.504 165.242 139.311 165.331 139.16 165.439L138.336 165.34L138.776 161.76H142.555V162.542H139.515L139.259 164.687H139.302C139.451 164.568 139.638 164.47 139.863 164.392C140.088 164.314 140.322 164.275 140.566 164.275C141.011 164.275 141.408 164.381 141.756 164.594C142.106 164.805 142.381 165.094 142.58 165.461C142.781 165.828 142.882 166.247 142.882 166.718C142.882 167.182 142.777 167.596 142.569 167.961C142.363 168.323 142.079 168.609 141.717 168.82C141.355 169.028 140.943 169.133 140.481 169.133Z" fill="black"/>
<path d="M161.583 152.301V158.923" stroke="black"/>
<path d="M161.631 169.133C161.332 169.128 161.034 169.071 160.736 168.962C160.437 168.853 160.165 168.67 159.919 168.412C159.673 168.151 159.475 167.8 159.326 167.357C159.177 166.912 159.102 166.353 159.102 165.681C159.102 165.037 159.163 164.466 159.283 163.969C159.404 163.47 159.579 163.05 159.809 162.709C160.038 162.365 160.315 162.105 160.64 161.927C160.966 161.75 161.335 161.661 161.744 161.661C162.151 161.661 162.514 161.743 162.831 161.906C163.15 162.067 163.411 162.292 163.612 162.581C163.813 162.87 163.944 163.202 164.003 163.579H163.136C163.056 163.252 162.899 162.981 162.667 162.765C162.435 162.55 162.128 162.442 161.744 162.442C161.181 162.442 160.737 162.687 160.413 163.177C160.091 163.667 159.928 164.355 159.926 165.241H159.983C160.115 165.039 160.273 164.868 160.455 164.726C160.64 164.581 160.843 164.47 161.066 164.392C161.288 164.314 161.524 164.275 161.773 164.275C162.189 164.275 162.57 164.379 162.916 164.587C163.262 164.793 163.539 165.078 163.747 165.443C163.955 165.805 164.06 166.221 164.06 166.689C164.06 167.139 163.959 167.551 163.758 167.925C163.556 168.297 163.274 168.593 162.909 168.813C162.547 169.031 162.121 169.137 161.631 169.133ZM161.631 168.351C161.929 168.351 162.196 168.277 162.433 168.128C162.672 167.979 162.86 167.778 162.998 167.528C163.137 167.277 163.207 166.997 163.207 166.689C163.207 166.389 163.14 166.115 163.005 165.869C162.872 165.621 162.689 165.423 162.454 165.276C162.222 165.129 161.957 165.056 161.659 165.056C161.434 165.056 161.225 165.101 161.03 165.191C160.836 165.278 160.666 165.399 160.519 165.553C160.375 165.707 160.261 165.883 160.178 166.082C160.095 166.279 160.054 166.486 160.054 166.704C160.054 166.992 160.121 167.262 160.256 167.513C160.394 167.764 160.581 167.967 160.817 168.121C161.056 168.274 161.328 168.351 161.631 168.351Z" fill="black"/>
<path d="M182.669 152.301V158.923" stroke="black"/>
<path d="M180.793 169.033L184.045 162.599V162.542H180.295V161.76H184.954V162.584L181.716 169.033H180.793Z" fill="black"/>
<path d="M203.755 152.301V158.923" stroke="black"/>
<path d="M203.756 169.133C203.268 169.133 202.837 169.046 202.463 168.873C202.092 168.698 201.802 168.458 201.593 168.153C201.385 167.845 201.282 167.494 201.284 167.101C201.282 166.794 201.342 166.51 201.465 166.249C201.589 165.986 201.757 165.767 201.97 165.592C202.185 165.415 202.425 165.302 202.691 165.255V165.212C202.343 165.122 202.066 164.927 201.86 164.626C201.654 164.323 201.552 163.979 201.554 163.593C201.552 163.224 201.645 162.893 201.835 162.602C202.024 162.311 202.285 162.081 202.616 161.913C202.95 161.745 203.33 161.661 203.756 161.661C204.177 161.661 204.554 161.745 204.885 161.913C205.217 162.081 205.477 162.311 205.666 162.602C205.858 162.893 205.955 163.224 205.958 163.593C205.955 163.979 205.85 164.323 205.642 164.626C205.436 164.927 205.162 165.122 204.821 165.212V165.255C205.084 165.302 205.321 165.415 205.531 165.592C205.742 165.767 205.91 165.986 206.036 166.249C206.161 166.51 206.225 166.794 206.227 167.101C206.225 167.494 206.119 167.845 205.908 168.153C205.7 168.458 205.41 168.698 205.038 168.873C204.669 169.046 204.241 169.133 203.756 169.133ZM203.756 168.351C204.085 168.351 204.369 168.298 204.608 168.192C204.847 168.085 205.032 167.935 205.162 167.741C205.292 167.546 205.359 167.319 205.361 167.059C205.359 166.784 205.288 166.541 205.148 166.331C205.008 166.12 204.818 165.954 204.576 165.834C204.337 165.713 204.064 165.653 203.756 165.653C203.446 165.653 203.169 165.713 202.925 165.834C202.683 165.954 202.493 166.12 202.353 166.331C202.216 166.541 202.148 166.784 202.151 167.059C202.148 167.319 202.211 167.546 202.339 167.741C202.469 167.935 202.655 168.085 202.897 168.192C203.138 168.298 203.424 168.351 203.756 168.351ZM203.756 164.9C204.016 164.9 204.247 164.848 204.448 164.743C204.652 164.639 204.812 164.494 204.928 164.307C205.044 164.12 205.103 163.901 205.105 163.65C205.103 163.403 205.045 163.189 204.931 163.007C204.818 162.822 204.66 162.68 204.459 162.581C204.258 162.479 204.023 162.428 203.756 162.428C203.484 162.428 203.246 162.479 203.042 162.581C202.839 162.68 202.681 162.822 202.57 163.007C202.459 163.189 202.404 163.403 202.406 163.65C202.404 163.901 202.46 164.12 202.573 164.307C202.689 164.494 202.849 164.639 203.053 164.743C203.256 164.848 203.491 164.9 203.756 164.9Z" fill="black"/>
<path d="M224.84 152.301V158.923" stroke="black"/>
<path d="M224.788 161.661C225.087 161.663 225.385 161.72 225.683 161.831C225.982 161.943 226.254 162.127 226.5 162.385C226.746 162.641 226.944 162.99 227.093 163.433C227.242 163.876 227.317 164.431 227.317 165.099C227.317 165.745 227.255 166.319 227.132 166.821C227.011 167.32 226.836 167.742 226.607 168.085C226.379 168.428 226.102 168.689 225.776 168.866C225.451 169.044 225.084 169.133 224.675 169.133C224.267 169.133 223.904 169.052 223.584 168.891C223.267 168.728 223.007 168.502 222.803 168.213C222.602 167.922 222.473 167.584 222.416 167.201H223.283C223.361 167.535 223.516 167.81 223.748 168.028C223.982 168.244 224.291 168.351 224.675 168.351C225.236 168.351 225.678 168.106 226.003 167.616C226.33 167.126 226.493 166.434 226.493 165.539H226.436C226.303 165.738 226.146 165.909 225.964 166.054C225.781 166.198 225.579 166.309 225.357 166.388C225.134 166.466 224.897 166.505 224.646 166.505C224.23 166.505 223.847 166.402 223.499 166.196C223.154 165.987 222.877 165.702 222.668 165.34C222.462 164.975 222.359 164.559 222.359 164.09C222.359 163.645 222.459 163.238 222.658 162.868C222.859 162.497 223.141 162.201 223.503 161.981C223.867 161.76 224.296 161.654 224.788 161.661ZM224.788 162.442C224.49 162.442 224.221 162.517 223.982 162.666C223.745 162.813 223.557 163.012 223.418 163.263C223.28 163.511 223.212 163.787 223.212 164.09C223.212 164.393 223.278 164.669 223.41 164.917C223.545 165.164 223.729 165.36 223.961 165.507C224.195 165.651 224.462 165.724 224.76 165.724C224.985 165.724 225.194 165.68 225.388 165.592C225.583 165.502 225.752 165.38 225.896 165.226C226.043 165.07 226.158 164.894 226.241 164.697C226.324 164.498 226.365 164.291 226.365 164.076C226.365 163.792 226.296 163.525 226.159 163.277C226.024 163.028 225.837 162.827 225.598 162.673C225.361 162.519 225.091 162.442 224.788 162.442Z" fill="black"/>
<path d="M245.926 152.301V158.923" stroke="black"/>
<path d="M243.786 161.76V169.033H242.906V162.684H242.863L241.088 163.863V162.968L242.906 161.76H243.786ZM248.25 169.133C247.715 169.133 247.26 168.987 246.883 168.696C246.507 168.402 246.219 167.977 246.02 167.421C245.821 166.862 245.722 166.188 245.722 165.397C245.722 164.611 245.821 163.94 246.02 163.383C246.221 162.825 246.51 162.398 246.887 162.105C247.265 161.809 247.72 161.661 248.25 161.661C248.781 161.661 249.234 161.809 249.61 162.105C249.989 162.398 250.278 162.825 250.477 163.383C250.678 163.94 250.779 164.611 250.779 165.397C250.779 166.188 250.679 166.862 250.48 167.421C250.282 167.977 249.994 168.402 249.617 168.696C249.241 168.987 248.785 169.133 248.25 169.133ZM248.25 168.351C248.781 168.351 249.193 168.096 249.486 167.584C249.78 167.073 249.926 166.344 249.926 165.397C249.926 164.767 249.859 164.231 249.724 163.788C249.591 163.345 249.4 163.008 249.149 162.776C248.9 162.544 248.601 162.428 248.25 162.428C247.725 162.428 247.314 162.687 247.018 163.206C246.722 163.722 246.574 164.452 246.574 165.397C246.574 166.027 246.64 166.562 246.773 167.002C246.906 167.442 247.096 167.777 247.345 168.007C247.596 168.237 247.898 168.351 248.25 168.351Z" fill="black"/>
<path d="M267.012 152.301V158.923" stroke="black"/>
<path d="M265.673 161.76V169.033H264.792V162.684H264.75L262.974 163.863V162.968L264.792 161.76H265.673ZM270.321 161.76V169.033H269.441V162.684H269.398L267.623 163.863V162.968L269.441 161.76H270.321Z" fill="black"/>
<path d="M288.097 152.301V158.923" stroke="black"/>
<path d="M286.056 161.76V169.033H285.175V162.684H285.132L283.357 163.863V162.968L285.175 161.76H286.056ZM288.147 169.033V168.394L290.548 165.766C290.829 165.458 291.061 165.191 291.244 164.964C291.426 164.734 291.561 164.519 291.649 164.317C291.739 164.114 291.784 163.901 291.784 163.678C291.784 163.422 291.722 163.201 291.599 163.014C291.478 162.827 291.312 162.683 291.102 162.581C290.891 162.479 290.654 162.428 290.391 162.428C290.112 162.428 289.868 162.486 289.66 162.602C289.454 162.716 289.294 162.876 289.181 163.081C289.069 163.287 289.014 163.529 289.014 163.806H288.176C288.176 163.38 288.274 163.006 288.47 162.684C288.667 162.362 288.934 162.111 289.273 161.931C289.614 161.751 289.996 161.661 290.42 161.661C290.846 161.661 291.224 161.751 291.553 161.931C291.882 162.111 292.14 162.353 292.327 162.659C292.514 162.964 292.607 163.304 292.607 163.678C292.607 163.946 292.559 164.207 292.462 164.463C292.367 164.716 292.201 164.999 291.965 165.312C291.73 165.622 291.405 166.001 290.988 166.448L289.355 168.195V168.252H292.735V169.033H288.147Z" fill="black"/>
<path d="M56.1545 152.301V36.4198" stroke="black"/>
<path d="M56.1545 152.301H48.83" stroke="black"/>
<path d="M42.0427 154.896C41.5077 154.896 41.052 154.75 40.6756 154.459C40.2991 154.165 40.0115 153.741 39.8126 153.184C39.6138 152.625 39.5143 151.951 39.5143 151.16C39.5143 150.374 39.6138 149.703 39.8126 149.147C40.0139 148.588 40.3027 148.162 40.6791 147.868C41.0579 147.572 41.5124 147.424 42.0427 147.424C42.573 147.424 43.0264 147.572 43.4028 147.868C43.7816 148.162 44.0704 148.588 44.2693 149.147C44.4705 149.703 44.5711 150.374 44.5711 151.16C44.5711 151.951 44.4717 152.625 44.2729 153.184C44.074 153.741 43.7863 154.165 43.4099 154.459C43.0335 154.75 42.5778 154.896 42.0427 154.896ZM42.0427 154.115C42.573 154.115 42.985 153.859 43.2785 153.348C43.5721 152.836 43.7189 152.107 43.7189 151.16C43.7189 150.53 43.6514 149.994 43.5165 149.551C43.3839 149.109 43.1921 148.771 42.9412 148.539C42.6926 148.307 42.3931 148.191 42.0427 148.191C41.5172 148.191 41.1064 148.45 40.8105 148.969C40.5146 149.485 40.3666 150.215 40.3666 151.16C40.3666 151.79 40.4329 152.325 40.5655 152.765C40.698 153.205 40.8886 153.54 41.1372 153.77C41.3881 154 41.69 154.115 42.0427 154.115Z" fill="black"/>
<path d="M56.1545 102.638H48.83" stroke="black"/>
<path d="M42.0108 105.232C41.542 105.232 41.1242 105.152 40.7572 104.991C40.3926 104.83 40.1026 104.606 39.8872 104.32C39.6741 104.031 39.5581 103.696 39.5392 103.315H40.4341C40.453 103.549 40.5335 103.752 40.6756 103.922C40.8176 104.09 41.0034 104.22 41.2331 104.313C41.4627 104.405 41.7172 104.451 41.9966 104.451C42.3091 104.451 42.5861 104.397 42.8275 104.288C43.069 104.179 43.2584 104.027 43.3957 103.833C43.533 103.639 43.6017 103.414 43.6017 103.159C43.6017 102.891 43.5354 102.655 43.4028 102.452C43.2702 102.246 43.0761 102.085 42.8204 101.969C42.5648 101.853 42.2523 101.795 41.8829 101.795H41.3006V101.014H41.8829C42.1718 101.014 42.4251 100.962 42.6429 100.857C42.8631 100.753 43.0347 100.606 43.1578 100.417C43.2833 100.228 43.346 100.005 43.346 99.7494C43.346 99.5032 43.2916 99.289 43.1827 99.1067C43.0738 98.9244 42.9199 98.7823 42.721 98.6806C42.5245 98.5788 42.2925 98.5279 42.025 98.5279C41.774 98.5279 41.5373 98.574 41.3148 98.6663C41.0946 98.7563 40.9147 98.8877 40.775 99.0605C40.6353 99.231 40.5595 99.4369 40.5477 99.6784H39.6954C39.7096 99.2973 39.8245 98.9635 40.0399 98.677C40.2553 98.3882 40.5371 98.1633 40.8851 98.0023C41.2354 97.8413 41.6202 97.7608 42.0392 97.7608C42.489 97.7608 42.8749 97.852 43.1969 98.0342C43.5188 98.2142 43.7662 98.4521 43.939 98.748C44.1119 99.0439 44.1983 99.3636 44.1983 99.7068C44.1983 100.116 44.0906 100.466 43.8751 100.754C43.6621 101.043 43.372 101.243 43.0051 101.355V101.411C43.4644 101.487 43.823 101.682 44.0811 101.997C44.3391 102.31 44.4682 102.697 44.4682 103.159C44.4682 103.554 44.3604 103.909 44.145 104.224C43.9319 104.536 43.6407 104.783 43.2714 104.963C42.9021 105.142 42.4819 105.232 42.0108 105.232Z" fill="black"/>
<path d="M56.1545 86.0832H48.83" stroke="black"/>
<path d="M39.3341 87.087V86.3626L42.5301 81.3058H43.0557V82.4279H42.7006L40.2858 86.249V86.3058H44.5898V87.087H39.3341ZM42.7574 88.5785V86.8669V86.5295V81.3058H43.5955V88.5785H42.7574Z" fill="black"/>
<path d="M56.1545 69.5288H48.83" stroke="black"/>
<path d="M42.1093 72.1234C41.6927 72.1234 41.3174 72.0406 40.9836 71.8749C40.6498 71.7091 40.3823 71.4819 40.1811 71.193C39.9798 70.9042 39.8697 70.5751 39.8508 70.2058H40.7031C40.7362 70.5349 40.8854 70.8071 41.1505 71.0226C41.418 71.2356 41.7376 71.3422 42.1093 71.3422C42.4076 71.3422 42.6728 71.2723 42.9048 71.1327C43.1392 70.993 43.3226 70.8012 43.4552 70.5574C43.5901 70.3112 43.6576 70.033 43.6576 69.7229C43.6576 69.4056 43.5878 69.1227 43.4481 68.8741C43.3108 68.6232 43.1214 68.4255 42.8799 68.2811C42.6384 68.1367 42.3626 68.0633 42.0525 68.0609C41.83 68.0586 41.6015 68.0929 41.3671 68.1639C41.1328 68.2326 40.9398 68.3214 40.7883 68.4303L39.9644 68.3308L40.4048 64.7513H44.1832V65.5325H41.1434L40.8877 67.6774H40.9303C41.0795 67.559 41.2665 67.4608 41.4914 67.3827C41.7163 67.3045 41.9507 67.2655 42.1945 67.2655C42.6396 67.2655 43.0362 67.372 43.3842 67.5851C43.7346 67.7958 44.0092 68.0846 44.208 68.4516C44.4093 68.8185 44.5099 69.2375 44.5099 69.7087C44.5099 70.1727 44.4057 70.587 44.1974 70.9516C43.9914 71.3138 43.7073 71.6002 43.3451 71.8109C42.9829 72.0193 42.571 72.1234 42.1093 72.1234Z" fill="black"/>
<path d="M56.1545 52.9743H48.83" stroke="black"/>
<path d="M42.0951 55.569C41.7968 55.5643 41.4985 55.5074 41.2002 55.3985C40.9019 55.2896 40.6297 55.1062 40.3835 54.8481C40.1373 54.5877 39.9396 54.2361 39.7904 53.7934C39.6413 53.3483 39.5667 52.7896 39.5667 52.1173C39.5667 51.4733 39.6271 50.9028 39.7478 50.4056C39.8686 49.9061 40.0437 49.4859 40.2734 49.145C40.503 48.8017 40.78 48.5413 41.1044 48.3637C41.4311 48.1862 41.7992 48.0974 42.2088 48.0974C42.616 48.0974 42.9782 48.1791 43.2954 48.3424C43.615 48.5034 43.8754 48.7283 44.0767 49.0171C44.2779 49.306 44.4081 49.6386 44.4673 50.015H43.6008C43.5203 49.6883 43.3641 49.4172 43.132 49.2018C42.9 48.9864 42.5923 48.8786 42.2088 48.8786C41.6453 48.8786 41.2014 49.1237 40.8771 49.6137C40.5551 50.1038 40.3929 50.7915 40.3906 51.6769H40.4474C40.58 51.4757 40.7374 51.3041 40.9197 51.162C41.1044 51.0176 41.3079 50.9063 41.5305 50.8282C41.753 50.7501 41.9886 50.711 42.2372 50.711C42.6538 50.711 43.035 50.8152 43.3806 51.0235C43.7263 51.2295 44.0033 51.5148 44.2116 51.8794C44.4199 52.2416 44.5241 52.6571 44.5241 53.1258C44.5241 53.5756 44.4235 53.9876 44.2222 54.3616C44.021 54.7333 43.7381 55.0292 43.3735 55.2494C43.0113 55.4672 42.5852 55.5737 42.0951 55.569ZM42.0951 54.7877C42.3934 54.7877 42.6609 54.7132 42.8977 54.564C43.1368 54.4149 43.325 54.2148 43.4623 53.9639C43.602 53.7129 43.6718 53.4336 43.6718 53.1258C43.6718 52.8251 43.6044 52.5517 43.4694 52.3055C43.3368 52.0569 43.1534 51.8592 42.919 51.7125C42.687 51.5657 42.4218 51.4923 42.1235 51.4923C41.8986 51.4923 41.6891 51.5373 41.495 51.6272C41.3008 51.7148 41.1304 51.8356 40.9836 51.9894C40.8392 52.1433 40.7256 52.3197 40.6427 52.5186C40.5598 52.7151 40.5184 52.9222 40.5184 53.14C40.5184 53.4288 40.5859 53.6987 40.7208 53.9497C40.8581 54.2006 41.0452 54.403 41.2819 54.5569C41.521 54.7108 41.7921 54.7877 42.0951 54.7877Z" fill="black"/>
<path d="M56.1545 36.4198H48.83" stroke="black"/>
<path d="M40.435 38.9151L43.6879 32.4804V32.4236H39.9379V31.6424H44.597V32.4662L41.3583 38.9151H40.435Z" fill="black"/>
<path d="M6.04102 9.98633V11H0.363281C0.355469 10.7461 0.396484 10.502 0.486328 10.2676C0.630859 9.88086 0.861328 9.5 1.17773 9.125C1.49805 8.75 1.95898 8.31641 2.56055 7.82422C3.49414 7.05859 4.125 6.45312 4.45312 6.00781C4.78125 5.55859 4.94531 5.13477 4.94531 4.73633C4.94531 4.31836 4.79492 3.9668 4.49414 3.68164C4.19727 3.39258 3.80859 3.24805 3.32812 3.24805C2.82031 3.24805 2.41406 3.40039 2.10938 3.70508C1.80469 4.00977 1.65039 4.43164 1.64648 4.9707L0.5625 4.85938C0.636719 4.05078 0.916016 3.43555 1.40039 3.01367C1.88477 2.58789 2.53516 2.375 3.35156 2.375C4.17578 2.375 4.82812 2.60352 5.30859 3.06055C5.78906 3.51758 6.0293 4.08398 6.0293 4.75977C6.0293 5.10352 5.95898 5.44141 5.81836 5.77344C5.67773 6.10547 5.44336 6.45508 5.11523 6.82227C4.79102 7.18945 4.25 7.69336 3.49219 8.33398C2.85938 8.86523 2.45312 9.22656 2.27344 9.41797C2.09375 9.60547 1.94531 9.79492 1.82812 9.98633H6.04102ZM7.17773 6.76367C7.17773 5.74805 7.28125 4.93164 7.48828 4.31445C7.69922 3.69336 8.00977 3.21484 8.41992 2.87891C8.83398 2.54297 9.35352 2.375 9.97852 2.375C10.4395 2.375 10.8438 2.46875 11.1914 2.65625C11.5391 2.83984 11.8262 3.10742 12.0527 3.45898C12.2793 3.80664 12.457 4.23242 12.5859 4.73633C12.7148 5.23633 12.7793 5.91211 12.7793 6.76367C12.7793 7.77148 12.6758 8.58594 12.4688 9.20703C12.2617 9.82422 11.9512 10.3027 11.5371 10.6426C11.127 10.9785 10.6074 11.1465 9.97852 11.1465C9.15039 11.1465 8.5 10.8496 8.02734 10.2559C7.46094 9.54102 7.17773 8.37695 7.17773 6.76367ZM8.26172 6.76367C8.26172 8.17383 8.42578 9.11328 8.75391 9.58203C9.08594 10.0469 9.49414 10.2793 9.97852 10.2793C10.4629 10.2793 10.8691 10.0449 11.1973 9.57617C11.5293 9.10742 11.6953 8.16992 11.6953 6.76367C11.6953 5.34961 11.5293 4.41016 11.1973 3.94531C10.8691 3.48047 10.459 3.24805 9.9668 3.24805C9.48242 3.24805 9.0957 3.45312 8.80664 3.86328C8.44336 4.38672 8.26172 5.35352 8.26172 6.76367ZM17.8301 11H16.7754V4.2793C16.5215 4.52148 16.1875 4.76367 15.7734 5.00586C15.3633 5.24805 14.9941 5.42969 14.666 5.55078V4.53125C15.2559 4.25391 15.7715 3.91797 16.2129 3.52344C16.6543 3.12891 16.9668 2.74609 17.1504 2.375H17.8301V11ZM20.543 8.73242L21.5977 8.5918C21.7188 9.18945 21.9238 9.62109 22.2129 9.88672C22.5059 10.1484 22.8613 10.2793 23.2793 10.2793C23.7754 10.2793 24.1934 10.1074 24.5332 9.76367C24.877 9.41992 25.0488 8.99414 25.0488 8.48633C25.0488 8.00195 24.8906 7.60352 24.5742 7.29102C24.2578 6.97461 23.8555 6.81641 23.3672 6.81641C23.168 6.81641 22.9199 6.85547 22.623 6.93359L22.7402 6.00781C22.8105 6.01562 22.8672 6.01953 22.9102 6.01953C23.3594 6.01953 23.7637 5.90234 24.123 5.66797C24.4824 5.43359 24.6621 5.07227 24.6621 4.58398C24.6621 4.19727 24.5312 3.87695 24.2695 3.62305C24.0078 3.36914 23.6699 3.24219 23.2559 3.24219C22.8457 3.24219 22.5039 3.37109 22.2305 3.62891C21.957 3.88672 21.7812 4.27344 21.7031 4.78906L20.6484 4.60156C20.7773 3.89453 21.0703 3.34766 21.5273 2.96094C21.9844 2.57031 22.5527 2.375 23.2324 2.375C23.7012 2.375 24.1328 2.47656 24.5273 2.67969C24.9219 2.87891 25.2227 3.15234 25.4297 3.5C25.6406 3.84766 25.7461 4.2168 25.7461 4.60742C25.7461 4.97852 25.6465 5.31641 25.4473 5.62109C25.248 5.92578 24.9531 6.16797 24.5625 6.34766C25.0703 6.46484 25.4648 6.70898 25.7461 7.08008C26.0273 7.44727 26.168 7.9082 26.168 8.46289C26.168 9.21289 25.8945 9.84961 25.3477 10.373C24.8008 10.8926 24.1094 11.1523 23.2734 11.1523C22.5195 11.1523 21.8926 10.9277 21.3926 10.4785C20.8965 10.0293 20.6133 9.44727 20.543 8.73242Z" fill="black"/>
</svg>
