<svg width="295" height="173" viewBox="0 0 295 173" fill="none" xmlns="http://www.w3.org/2000/svg">
<path d="M56.1547 60.1407C66.6975 60.1407 66.6975 60.1407 77.2404 60.1407C87.7833 60.1407 87.7833 152.846 98.3261 152.846C108.869 152.846 108.869 60.1407 119.412 60.1407C129.955 60.1407 129.955 152.846 140.498 152.846C151.04 152.846 151.04 152.846 161.583 152.846C172.126 152.846 172.126 152.846 182.669 152.846C193.212 152.846 193.212 152.846 203.755 152.846C214.298 152.846 214.298 60.1407 224.84 60.1407C235.383 60.1407 235.383 60.1407 245.926 60.1407C256.469 60.1407 256.469 152.846 267.012 152.846C277.555 152.846 277.555 152.846 288.098 152.846C277.555 152.846 277.555 152.846 267.012 152.846C256.469 152.846 256.469 152.846 245.926 152.846C235.383 152.846 235.383 152.846 224.84 152.846C214.298 152.846 214.298 152.846 203.755 152.846C193.212 152.846 193.212 152.846 182.669 152.846C172.126 152.846 172.126 152.846 161.583 152.846C151.04 152.846 151.04 152.846 140.498 152.846C129.955 152.846 129.955 152.846 119.412 152.846C108.869 152.846 108.869 152.846 98.3261 152.846C87.7833 152.846 87.7833 152.846 77.2404 152.846C66.6975 152.846 66.6975 152.846 56.1547 152.846V60.1407Z" fill="#F8E21D"/>
<path d="M56.1547 60.1408C66.6975 60.1408 66.6975 60.1408 77.2404 60.1408C87.7833 60.1408 87.7833 36.9645 98.3261 36.9645C108.869 36.9645 108.869 60.1408 119.412 60.1408C129.955 60.1408 129.955 152.846 140.498 152.846C151.04 152.846 151.04 152.846 161.583 152.846C172.126 152.846 172.126 152.846 182.669 152.846C193.212 152.846 193.212 152.846 203.755 152.846C214.298 152.846 214.298 60.1408 224.84 60.1408C235.383 60.1408 235.383 60.1408 245.926 60.1408C256.469 60.1408 256.469 36.9645 267.012 36.9645C277.555 36.9645 277.555 36.9645 288.098 36.9645V152.846C277.555 152.846 277.555 152.846 267.012 152.846C256.469 152.846 256.469 60.1408 245.926 60.1408C235.383 60.1408 235.383 60.1408 224.84 60.1408C214.298 60.1408 214.298 152.846 203.755 152.846C193.212 152.846 193.212 152.846 182.669 152.846C172.126 152.846 172.126 152.846 161.583 152.846C151.04 152.846 151.04 152.846 140.498 152.846C129.955 152.846 129.955 60.1408 119.412 60.1408C108.869 60.1408 108.869 152.846 98.3261 152.846C87.7833 152.846 87.7833 60.1408 77.2404 60.1408C66.6975 60.1408 66.6975 60.1408 56.1547 60.1408Z" fill="#F8E01D"/>
<path d="M56.1547 60.1407C66.6975 60.1407 66.6975 60.1407 77.2404 60.1407C87.7833 60.1407 87.7833 152.846 98.3261 152.846C108.869 152.846 108.869 60.1407 119.412 60.1407C129.955 60.1407 129.955 152.846 140.498 152.846C151.04 152.846 151.04 152.846 161.583 152.846C172.126 152.846 172.126 152.846 182.669 152.846C193.212 152.846 193.212 152.846 203.755 152.846C214.298 152.846 214.298 60.1407 224.84 60.1407C235.383 60.1407 235.383 60.1407 245.926 60.1407C256.469 60.1407 256.469 152.846 267.012 152.846C277.555 152.846 277.555 152.846 288.098 152.846C277.555 152.846 277.555 152.846 267.012 152.846C256.469 152.846 256.469 60.1407 245.926 60.1407C235.383 60.1407 235.383 60.1407 224.84 60.1407C214.298 60.1407 214.298 152.846 203.755 152.846C193.212 152.846 193.212 152.846 182.669 152.846C172.126 152.846 172.126 152.846 161.583 152.846C151.04 152.846 151.04 152.846 140.498 152.846C129.955 152.846 129.955 60.1407 119.412 60.1407C108.869 60.1407 108.869 152.846 98.3261 152.846C87.7833 152.846 87.7833 60.1407 77.2404 60.1407C66.6975 60.1407 66.6975 60.1407 56.1547 60.1407Z" fill="#F8DF1D"/>
<path d="M56.1547 60.1407C66.6975 60.1407 66.6975 60.1407 77.2404 60.1407C87.7833 60.1407 87.7833 152.846 98.3261 152.846C108.869 152.846 108.869 60.1407 119.412 60.1407C129.955 60.1407 129.955 152.846 140.498 152.846C151.04 152.846 151.04 152.846 161.583 152.846C172.126 152.846 172.126 152.846 182.669 152.846C193.212 152.846 193.212 152.846 203.755 152.846C214.298 152.846 214.298 60.1407 224.84 60.1407C235.383 60.1407 235.383 60.1407 245.926 60.1407C256.469 60.1407 256.469 152.846 267.012 152.846C277.555 152.846 277.555 152.846 288.098 152.846C277.555 152.846 277.555 152.846 267.012 152.846C256.469 152.846 256.469 60.1407 245.926 60.1407C235.383 60.1407 235.383 60.1407 224.84 60.1407C214.298 60.1407 214.298 152.846 203.755 152.846C193.212 152.846 193.212 152.846 182.669 152.846C172.126 152.846 172.126 152.846 161.583 152.846C151.04 152.846 151.04 152.846 140.498 152.846C129.955 152.846 129.955 60.1407 119.412 60.1407C108.869 60.1407 108.869 152.846 98.3261 152.846C87.7833 152.846 87.7833 60.1407 77.2404 60.1407C66.6975 60.1407 66.6975 60.1407 56.1547 60.1407Z" fill="#F8DE1D"/>
<path d="M56.1547 60.1408C66.6975 60.1408 66.6975 60.1408 77.2404 60.1408C87.7833 60.1408 87.7833 36.9645 98.3261 36.9645C108.869 36.9645 108.869 60.1408 119.412 60.1408C129.955 60.1408 129.955 106.493 140.498 106.493C151.04 106.493 151.04 83.317 161.583 83.317C172.126 83.317 172.126 83.317 182.669 83.317C193.212 83.317 193.212 83.317 203.755 83.317C214.298 83.317 214.298 60.1408 224.84 60.1408C235.383 60.1408 235.383 60.1408 245.926 60.1408C256.469 60.1408 256.469 36.9645 267.012 36.9645C277.555 36.9645 277.555 36.9645 288.098 36.9645C277.555 36.9645 277.555 36.9645 267.012 36.9645C256.469 36.9645 256.469 60.1408 245.926 60.1408C235.383 60.1408 235.383 60.1408 224.84 60.1408C214.298 60.1408 214.298 152.846 203.755 152.846C193.212 152.846 193.212 152.846 182.669 152.846C172.126 152.846 172.126 152.846 161.583 152.846C151.04 152.846 151.04 106.493 140.498 106.493C129.955 106.493 129.955 60.1408 119.412 60.1408C108.869 60.1408 108.869 36.9645 98.3261 36.9645C87.7833 36.9645 87.7833 60.1408 77.2404 60.1408C66.6975 60.1408 66.6975 60.1408 56.1547 60.1408Z" fill="#F8E31C"/>
<path d="M56.1547 60.1408C66.6975 60.1408 66.6975 60.1408 77.2404 60.1408C87.7833 60.1408 87.7833 36.9645 98.3261 36.9645C108.869 36.9645 108.869 60.1408 119.412 60.1408C129.955 60.1408 129.955 106.493 140.498 106.493C151.04 106.493 151.04 152.846 161.583 152.846C172.126 152.846 172.126 152.846 182.669 152.846C193.212 152.846 193.212 152.846 203.755 152.846C214.298 152.846 214.298 60.1408 224.84 60.1408C235.383 60.1408 235.383 60.1408 245.926 60.1408C256.469 60.1408 256.469 36.9645 267.012 36.9645C277.555 36.9645 277.555 36.9645 288.098 36.9645C277.555 36.9645 277.555 36.9645 267.012 36.9645C256.469 36.9645 256.469 60.1408 245.926 60.1408C235.383 60.1408 235.383 60.1408 224.84 60.1408C214.298 60.1408 214.298 152.846 203.755 152.846C193.212 152.846 193.212 152.846 182.669 152.846C172.126 152.846 172.126 152.846 161.583 152.846C151.04 152.846 151.04 152.846 140.498 152.846C129.955 152.846 129.955 60.1408 119.412 60.1408C108.869 60.1408 108.869 36.9645 98.3261 36.9645C87.7833 36.9645 87.7833 60.1408 77.2404 60.1408C66.6975 60.1408 66.6975 60.1408 56.1547 60.1408Z" fill="#F8E41C"/>
<path d="M56.1547 60.1407C66.6975 60.1407 66.6975 60.1407 77.2404 60.1407C87.7833 60.1407 87.7833 152.846 98.3261 152.846C108.869 152.846 108.869 60.1407 119.412 60.1407C129.955 60.1407 129.955 152.846 140.498 152.846C151.04 152.846 151.04 152.846 161.583 152.846C172.126 152.846 172.126 152.846 182.669 152.846C193.212 152.846 193.212 152.846 203.755 152.846C214.298 152.846 214.298 60.1407 224.84 60.1407C235.383 60.1407 235.383 60.1407 245.926 60.1407C256.469 60.1407 256.469 152.846 267.012 152.846C277.555 152.846 277.555 152.846 288.098 152.846C277.555 152.846 277.555 152.846 267.012 152.846C256.469 152.846 256.469 60.1407 245.926 60.1407C235.383 60.1407 235.383 60.1407 224.84 60.1407C214.298 60.1407 214.298 152.846 203.755 152.846C193.212 152.846 193.212 152.846 182.669 152.846C172.126 152.846 172.126 152.846 161.583 152.846C151.04 152.846 151.04 152.846 140.498 152.846C129.955 152.846 129.955 60.1407 119.412 60.1407C108.869 60.1407 108.869 152.846 98.3261 152.846C87.7833 152.846 87.7833 60.1407 77.2404 60.1407C66.6975 60.1407 66.6975 60.1407 56.1547 60.1407Z" fill="#F7DD1D"/>
<path d="M56.1547 60.1407C66.6975 60.1407 66.6975 60.1407 77.2404 60.1407C87.7833 60.1407 87.7833 152.846 98.3261 152.846C108.869 152.846 108.869 60.1407 119.412 60.1407C129.955 60.1407 129.955 152.846 140.498 152.846C151.04 152.846 151.04 152.846 161.583 152.846C172.126 152.846 172.126 152.846 182.669 152.846C193.212 152.846 193.212 152.846 203.755 152.846C214.298 152.846 214.298 60.1407 224.84 60.1407C235.383 60.1407 235.383 60.1407 245.926 60.1407C256.469 60.1407 256.469 152.846 267.012 152.846C277.555 152.846 277.555 152.846 288.098 152.846C277.555 152.846 277.555 152.846 267.012 152.846C256.469 152.846 256.469 60.1407 245.926 60.1407C235.383 60.1407 235.383 60.1407 224.84 60.1407C214.298 60.1407 214.298 152.846 203.755 152.846C193.212 152.846 193.212 152.846 182.669 152.846C172.126 152.846 172.126 152.846 161.583 152.846C151.04 152.846 151.04 152.846 140.498 152.846C129.955 152.846 129.955 60.1407 119.412 60.1407C108.869 60.1407 108.869 152.846 98.3261 152.846C87.7833 152.846 87.7833 60.1407 77.2404 60.1407C66.6975 60.1407 66.6975 60.1407 56.1547 60.1407Z" fill="#F7DB1D"/>
<path d="M56.1547 60.1407C66.6975 60.1407 66.6975 60.1407 77.2404 60.1407C87.7833 60.1407 87.7833 152.846 98.3261 152.846C108.869 152.846 108.869 60.1407 119.412 60.1407C129.955 60.1407 129.955 152.846 140.498 152.846C151.04 152.846 151.04 152.846 161.583 152.846C172.126 152.846 172.126 152.846 182.669 152.846C193.212 152.846 193.212 152.846 203.755 152.846C214.298 152.846 214.298 60.1407 224.84 60.1407C235.383 60.1407 235.383 60.1407 245.926 60.1407C256.469 60.1407 256.469 152.846 267.012 152.846C277.555 152.846 277.555 152.846 288.098 152.846C277.555 152.846 277.555 152.846 267.012 152.846C256.469 152.846 256.469 60.1407 245.926 60.1407C235.383 60.1407 235.383 60.1407 224.84 60.1407C214.298 60.1407 214.298 152.846 203.755 152.846C193.212 152.846 193.212 152.846 182.669 152.846C172.126 152.846 172.126 152.846 161.583 152.846C151.04 152.846 151.04 152.846 140.498 152.846C129.955 152.846 129.955 60.1407 119.412 60.1407C108.869 60.1407 108.869 152.846 98.3261 152.846C87.7833 152.846 87.7833 60.1407 77.2404 60.1407C66.6975 60.1407 66.6975 60.1407 56.1547 60.1407Z" fill="#F7D71E"/>
<path d="M56.1547 60.1407C66.6975 60.1407 66.6975 60.1407 77.2404 60.1407C87.7833 60.1407 87.7833 152.846 98.3261 152.846C108.869 152.846 108.869 60.1407 119.412 60.1407C129.955 60.1407 129.955 152.846 140.498 152.846C151.04 152.846 151.04 152.846 161.583 152.846C172.126 152.846 172.126 152.846 182.669 152.846C193.212 152.846 193.212 152.846 203.755 152.846C214.298 152.846 214.298 60.1407 224.84 60.1407C235.383 60.1407 235.383 60.1407 245.926 60.1407C256.469 60.1407 256.469 152.846 267.012 152.846C277.555 152.846 277.555 152.846 288.098 152.846C277.555 152.846 277.555 152.846 267.012 152.846C256.469 152.846 256.469 60.1407 245.926 60.1407C235.383 60.1407 235.383 60.1407 224.84 60.1407C214.298 60.1407 214.298 152.846 203.755 152.846C193.212 152.846 193.212 152.846 182.669 152.846C172.126 152.846 172.126 152.846 161.583 152.846C151.04 152.846 151.04 152.846 140.498 152.846C129.955 152.846 129.955 60.1407 119.412 60.1407C108.869 60.1407 108.869 152.846 98.3261 152.846C87.7833 152.846 87.7833 60.1407 77.2404 60.1407C66.6975 60.1407 66.6975 60.1407 56.1547 60.1407Z" fill="#F7D61E"/>
<path d="M56.1547 60.1407C66.6975 60.1407 66.6975 60.1407 77.2404 60.1407C87.7833 60.1407 87.7833 152.846 98.3261 152.846C108.869 152.846 108.869 60.1407 119.412 60.1407C129.955 60.1407 129.955 152.846 140.498 152.846C151.04 152.846 151.04 152.846 161.583 152.846C172.126 152.846 172.126 152.846 182.669 152.846C193.212 152.846 193.212 152.846 203.755 152.846C214.298 152.846 214.298 60.1407 224.84 60.1407C235.383 60.1407 235.383 60.1407 245.926 60.1407C256.469 60.1407 256.469 152.846 267.012 152.846C277.555 152.846 277.555 152.846 288.098 152.846C277.555 152.846 277.555 152.846 267.012 152.846C256.469 152.846 256.469 60.1407 245.926 60.1407C235.383 60.1407 235.383 60.1407 224.84 60.1407C214.298 60.1407 214.298 152.846 203.755 152.846C193.212 152.846 193.212 152.846 182.669 152.846C172.126 152.846 172.126 152.846 161.583 152.846C151.04 152.846 151.04 152.846 140.498 152.846C129.955 152.846 129.955 60.1407 119.412 60.1407C108.869 60.1407 108.869 152.846 98.3261 152.846C87.7833 152.846 87.7833 60.1407 77.2404 60.1407C66.6975 60.1407 66.6975 60.1407 56.1547 60.1407Z" fill="#F7D91E"/>
<path d="M56.1547 60.1407C66.6975 60.1407 66.6975 60.1407 77.2404 60.1407C87.7833 60.1407 87.7833 152.846 98.3261 152.846C108.869 152.846 108.869 60.1407 119.412 60.1407C129.955 60.1407 129.955 152.846 140.498 152.846C151.04 152.846 151.04 152.846 161.583 152.846C172.126 152.846 172.126 152.846 182.669 152.846C193.212 152.846 193.212 152.846 203.755 152.846C214.298 152.846 214.298 60.1407 224.84 60.1407C235.383 60.1407 235.383 60.1407 245.926 60.1407C256.469 60.1407 256.469 152.846 267.012 152.846C277.555 152.846 277.555 152.846 288.098 152.846C277.555 152.846 277.555 152.846 267.012 152.846C256.469 152.846 256.469 60.1407 245.926 60.1407C235.383 60.1407 235.383 60.1407 224.84 60.1407C214.298 60.1407 214.298 152.846 203.755 152.846C193.212 152.846 193.212 152.846 182.669 152.846C172.126 152.846 172.126 152.846 161.583 152.846C151.04 152.846 151.04 152.846 140.498 152.846C129.955 152.846 129.955 60.1407 119.412 60.1407C108.869 60.1407 108.869 152.846 98.3261 152.846C87.7833 152.846 87.7833 60.1407 77.2404 60.1407C66.6975 60.1407 66.6975 60.1407 56.1547 60.1407Z" fill="#F7D41E"/>
<path d="M56.1547 60.1407C66.6975 60.1407 66.6975 60.1407 77.2404 60.1407C87.7833 60.1407 87.7833 152.846 98.3261 152.846C108.869 152.846 108.869 60.1407 119.412 60.1407C129.955 60.1407 129.955 152.846 140.498 152.846C151.04 152.846 151.04 152.846 161.583 152.846C172.126 152.846 172.126 152.846 182.669 152.846C193.212 152.846 193.212 152.846 203.755 152.846C214.298 152.846 214.298 60.1407 224.84 60.1407C235.383 60.1407 235.383 60.1407 245.926 60.1407C256.469 60.1407 256.469 152.846 267.012 152.846C277.555 152.846 277.555 152.846 288.098 152.846C277.555 152.846 277.555 152.846 267.012 152.846C256.469 152.846 256.469 60.1407 245.926 60.1407C235.383 60.1407 235.383 60.1407 224.84 60.1407C214.298 60.1407 214.298 152.846 203.755 152.846C193.212 152.846 193.212 152.846 182.669 152.846C172.126 152.846 172.126 152.846 161.583 152.846C151.04 152.846 151.04 152.846 140.498 152.846C129.955 152.846 129.955 60.1407 119.412 60.1407C108.869 60.1407 108.869 152.846 98.3261 152.846C87.7833 152.846 87.7833 60.1407 77.2404 60.1407C66.6975 60.1407 66.6975 60.1407 56.1547 60.1407Z" fill="#F7D31E"/>
<path d="M56.1547 60.1407C66.6975 60.1407 66.6975 60.1407 77.2404 60.1407C87.7833 60.1407 87.7833 152.846 98.3261 152.846C108.869 152.846 108.869 60.1407 119.412 60.1407C129.955 60.1407 129.955 152.846 140.498 152.846C151.04 152.846 151.04 152.846 161.583 152.846C172.126 152.846 172.126 152.846 182.669 152.846C193.212 152.846 193.212 152.846 203.755 152.846C214.298 152.846 214.298 60.1407 224.84 60.1407C235.383 60.1407 235.383 60.1407 245.926 60.1407C256.469 60.1407 256.469 152.846 267.012 152.846C277.555 152.846 277.555 152.846 288.098 152.846C277.555 152.846 277.555 152.846 267.012 152.846C256.469 152.846 256.469 60.1407 245.926 60.1407C235.383 60.1407 235.383 60.1407 224.84 60.1407C214.298 60.1407 214.298 152.846 203.755 152.846C193.212 152.846 193.212 152.846 182.669 152.846C172.126 152.846 172.126 152.846 161.583 152.846C151.04 152.846 151.04 152.846 140.498 152.846C129.955 152.846 129.955 60.1407 119.412 60.1407C108.869 60.1407 108.869 152.846 98.3261 152.846C87.7833 152.846 87.7833 60.1407 77.2404 60.1407C66.6975 60.1407 66.6975 60.1407 56.1547 60.1407Z" fill="#F7D21E"/>
<path d="M56.1547 60.1407C66.6975 60.1407 66.6975 60.1407 77.2404 60.1407C87.7833 60.1407 87.7833 152.846 98.3261 152.846C108.869 152.846 108.869 60.1407 119.412 60.1407C129.955 60.1407 129.955 152.846 140.498 152.846C151.04 152.846 151.04 152.846 161.583 152.846C172.126 152.846 172.126 152.846 182.669 152.846C193.212 152.846 193.212 152.846 203.755 152.846C214.298 152.846 214.298 60.1407 224.84 60.1407C235.383 60.1407 235.383 60.1407 245.926 60.1407C256.469 60.1407 256.469 152.846 267.012 152.846C277.555 152.846 277.555 152.846 288.098 152.846C277.555 152.846 277.555 152.846 267.012 152.846C256.469 152.846 256.469 60.1407 245.926 60.1407C235.383 60.1407 235.383 60.1407 224.84 60.1407C214.298 60.1407 214.298 152.846 203.755 152.846C193.212 152.846 193.212 152.846 182.669 152.846C172.126 152.846 172.126 152.846 161.583 152.846C151.04 152.846 151.04 152.846 140.498 152.846C129.955 152.846 129.955 60.1407 119.412 60.1407C108.869 60.1407 108.869 152.846 98.3261 152.846C87.7833 152.846 87.7833 60.1407 77.2404 60.1407C66.6975 60.1407 66.6975 60.1407 56.1547 60.1407Z" fill="#F7CD1F"/>
<path d="M56.1547 60.1407C66.6975 60.1407 66.6975 60.1407 77.2404 60.1407C87.7833 60.1407 87.7833 152.846 98.3261 152.846C108.869 152.846 108.869 60.1407 119.412 60.1407C129.955 60.1407 129.955 152.846 140.498 152.846C151.04 152.846 151.04 152.846 161.583 152.846C172.126 152.846 172.126 152.846 182.669 152.846C193.212 152.846 193.212 152.846 203.755 152.846C214.298 152.846 214.298 60.1407 224.84 60.1407C235.383 60.1407 235.383 60.1407 245.926 60.1407C256.469 60.1407 256.469 152.846 267.012 152.846C277.555 152.846 277.555 152.846 288.098 152.846C277.555 152.846 277.555 152.846 267.012 152.846C256.469 152.846 256.469 60.1407 245.926 60.1407C235.383 60.1407 235.383 60.1407 224.84 60.1407C214.298 60.1407 214.298 152.846 203.755 152.846C193.212 152.846 193.212 152.846 182.669 152.846C172.126 152.846 172.126 152.846 161.583 152.846C151.04 152.846 151.04 152.846 140.498 152.846C129.955 152.846 129.955 60.1407 119.412 60.1407C108.869 60.1407 108.869 152.846 98.3261 152.846C87.7833 152.846 87.7833 60.1407 77.2404 60.1407C66.6975 60.1407 66.6975 60.1407 56.1547 60.1407Z" fill="#F7D01E"/>
<path d="M56.1547 60.1407C66.6975 60.1407 66.6975 60.1407 77.2404 60.1407C87.7833 60.1407 87.7833 152.846 98.3261 152.846C108.869 152.846 108.869 60.1407 119.412 60.1407C129.955 60.1407 129.955 152.846 140.498 152.846C151.04 152.846 151.04 152.846 161.583 152.846C172.126 152.846 172.126 152.846 182.669 152.846C193.212 152.846 193.212 152.846 203.755 152.846C214.298 152.846 214.298 60.1407 224.84 60.1407C235.383 60.1407 235.383 60.1407 245.926 60.1407C256.469 60.1407 256.469 152.846 267.012 152.846C277.555 152.846 277.555 152.846 288.098 152.846C277.555 152.846 277.555 152.846 267.012 152.846C256.469 152.846 256.469 60.1407 245.926 60.1407C235.383 60.1407 235.383 60.1407 224.84 60.1407C214.298 60.1407 214.298 152.846 203.755 152.846C193.212 152.846 193.212 152.846 182.669 152.846C172.126 152.846 172.126 152.846 161.583 152.846C151.04 152.846 151.04 152.846 140.498 152.846C129.955 152.846 129.955 60.1407 119.412 60.1407C108.869 60.1407 108.869 152.846 98.3261 152.846C87.7833 152.846 87.7833 60.1407 77.2404 60.1407C66.6975 60.1407 66.6975 60.1407 56.1547 60.1407Z" fill="#F7CF1E"/>
<path d="M56.1547 60.1407C66.6975 60.1407 66.6975 60.1407 77.2404 60.1407C87.7833 60.1407 87.7833 152.846 98.3261 152.846C108.869 152.846 108.869 60.1407 119.412 60.1407C129.955 60.1407 129.955 152.846 140.498 152.846C151.04 152.846 151.04 152.846 161.583 152.846C172.126 152.846 172.126 152.846 182.669 152.846C193.212 152.846 193.212 152.846 203.755 152.846C214.298 152.846 214.298 60.1407 224.84 60.1407C235.383 60.1407 235.383 60.1407 245.926 60.1407C256.469 60.1407 256.469 152.846 267.012 152.846C277.555 152.846 277.555 152.846 288.098 152.846C277.555 152.846 277.555 152.846 267.012 152.846C256.469 152.846 256.469 60.1407 245.926 60.1407C235.383 60.1407 235.383 60.1407 224.84 60.1407C214.298 60.1407 214.298 152.846 203.755 152.846C193.212 152.846 193.212 152.846 182.669 152.846C172.126 152.846 172.126 152.846 161.583 152.846C151.04 152.846 151.04 152.846 140.498 152.846C129.955 152.846 129.955 60.1407 119.412 60.1407C108.869 60.1407 108.869 152.846 98.3261 152.846C87.7833 152.846 87.7833 60.1407 77.2404 60.1407C66.6975 60.1407 66.6975 60.1407 56.1547 60.1407Z" fill="#F6CC1F"/>
<path d="M56.1547 60.1407C66.6975 60.1407 66.6975 60.1407 77.2404 60.1407C87.7833 60.1407 87.7833 152.846 98.3261 152.846C108.869 152.846 108.869 60.1407 119.412 60.1407C129.955 60.1407 129.955 152.846 140.498 152.846C151.04 152.846 151.04 152.846 161.583 152.846C172.126 152.846 172.126 152.846 182.669 152.846C193.212 152.846 193.212 152.846 203.755 152.846C214.298 152.846 214.298 60.1407 224.84 60.1407C235.383 60.1407 235.383 60.1407 245.926 60.1407C256.469 60.1407 256.469 152.846 267.012 152.846C277.555 152.846 277.555 152.846 288.098 152.846C277.555 152.846 277.555 152.846 267.012 152.846C256.469 152.846 256.469 60.1407 245.926 60.1407C235.383 60.1407 235.383 60.1407 224.84 60.1407C214.298 60.1407 214.298 152.846 203.755 152.846C193.212 152.846 193.212 152.846 182.669 152.846C172.126 152.846 172.126 152.846 161.583 152.846C151.04 152.846 151.04 152.846 140.498 152.846C129.955 152.846 129.955 60.1407 119.412 60.1407C108.869 60.1407 108.869 152.846 98.3261 152.846C87.7833 152.846 87.7833 60.1407 77.2404 60.1407C66.6975 60.1407 66.6975 60.1407 56.1547 60.1407Z" fill="#F6C91F"/>
<path d="M56.1547 60.1407C66.6975 60.1407 66.6975 60.1407 77.2404 60.1407C87.7833 60.1407 87.7833 152.846 98.3261 152.846C108.869 152.846 108.869 60.1407 119.412 60.1407C129.955 60.1407 129.955 152.846 140.498 152.846C151.04 152.846 151.04 152.846 161.583 152.846C172.126 152.846 172.126 152.846 182.669 152.846C193.212 152.846 193.212 152.846 203.755 152.846C214.298 152.846 214.298 60.1407 224.84 60.1407C235.383 60.1407 235.383 60.1407 245.926 60.1407C256.469 60.1407 256.469 152.846 267.012 152.846C277.555 152.846 277.555 152.846 288.098 152.846C277.555 152.846 277.555 152.846 267.012 152.846C256.469 152.846 256.469 60.1407 245.926 60.1407C235.383 60.1407 235.383 60.1407 224.84 60.1407C214.298 60.1407 214.298 152.846 203.755 152.846C193.212 152.846 193.212 152.846 182.669 152.846C172.126 152.846 172.126 152.846 161.583 152.846C151.04 152.846 151.04 152.846 140.498 152.846C129.955 152.846 129.955 60.1407 119.412 60.1407C108.869 60.1407 108.869 152.846 98.3261 152.846C87.7833 152.846 87.7833 60.1407 77.2404 60.1407C66.6975 60.1407 66.6975 60.1407 56.1547 60.1407Z" fill="#F6C61F"/>
<path d="M56.1547 60.1407C66.6975 60.1407 66.6975 60.1407 77.2404 60.1407C87.7833 60.1407 87.7833 152.846 98.3261 152.846C108.869 152.846 108.869 60.1407 119.412 60.1407C129.955 60.1407 129.955 152.846 140.498 152.846C151.04 152.846 151.04 152.846 161.583 152.846C172.126 152.846 172.126 152.846 182.669 152.846C193.212 152.846 193.212 152.846 203.755 152.846C214.298 152.846 214.298 60.1407 224.84 60.1407C235.383 60.1407 235.383 60.1407 245.926 60.1407C256.469 60.1407 256.469 152.846 267.012 152.846C277.555 152.846 277.555 152.846 288.098 152.846C277.555 152.846 277.555 152.846 267.012 152.846C256.469 152.846 256.469 60.1407 245.926 60.1407C235.383 60.1407 235.383 60.1407 224.84 60.1407C214.298 60.1407 214.298 152.846 203.755 152.846C193.212 152.846 193.212 152.846 182.669 152.846C172.126 152.846 172.126 152.846 161.583 152.846C151.04 152.846 151.04 152.846 140.498 152.846C129.955 152.846 129.955 60.1407 119.412 60.1407C108.869 60.1407 108.869 152.846 98.3261 152.846C87.7833 152.846 87.7833 60.1407 77.2404 60.1407C66.6975 60.1407 66.6975 60.1407 56.1547 60.1407Z" fill="#F6C41F"/>
<path d="M56.1547 60.1407C66.6975 60.1407 66.6975 60.1407 77.2404 60.1407C87.7833 60.1407 87.7833 152.846 98.3261 152.846C108.869 152.846 108.869 60.1407 119.412 60.1407C129.955 60.1407 129.955 152.846 140.498 152.846C151.04 152.846 151.04 152.846 161.583 152.846C172.126 152.846 172.126 152.846 182.669 152.846C193.212 152.846 193.212 152.846 203.755 152.846C214.298 152.846 214.298 60.1407 224.84 60.1407C235.383 60.1407 235.383 60.1407 245.926 60.1407C256.469 60.1407 256.469 152.846 267.012 152.846C277.555 152.846 277.555 152.846 288.098 152.846C277.555 152.846 277.555 152.846 267.012 152.846C256.469 152.846 256.469 60.1407 245.926 60.1407C235.383 60.1407 235.383 60.1407 224.84 60.1407C214.298 60.1407 214.298 152.846 203.755 152.846C193.212 152.846 193.212 152.846 182.669 152.846C172.126 152.846 172.126 152.846 161.583 152.846C151.04 152.846 151.04 152.846 140.498 152.846C129.955 152.846 129.955 60.1407 119.412 60.1407C108.869 60.1407 108.869 152.846 98.3261 152.846C87.7833 152.846 87.7833 60.1407 77.2404 60.1407C66.6975 60.1407 66.6975 60.1407 56.1547 60.1407Z" fill="#F5B920"/>
<path d="M56.1547 60.1407C66.6975 60.1407 66.6975 60.1407 77.2404 60.1407C87.7833 60.1407 87.7833 152.846 98.3261 152.846C108.869 152.846 108.869 60.1407 119.412 60.1407C129.955 60.1407 129.955 152.846 140.498 152.846C151.04 152.846 151.04 152.846 161.583 152.846C172.126 152.846 172.126 152.846 182.669 152.846C193.212 152.846 193.212 152.846 203.755 152.846C214.298 152.846 214.298 60.1407 224.84 60.1407C235.383 60.1407 235.383 60.1407 245.926 60.1407C256.469 60.1407 256.469 152.846 267.012 152.846C277.555 152.846 277.555 152.846 288.098 152.846C277.555 152.846 277.555 152.846 267.012 152.846C256.469 152.846 256.469 60.1407 245.926 60.1407C235.383 60.1407 235.383 60.1407 224.84 60.1407C214.298 60.1407 214.298 152.846 203.755 152.846C193.212 152.846 193.212 152.846 182.669 152.846C172.126 152.846 172.126 152.846 161.583 152.846C151.04 152.846 151.04 152.846 140.498 152.846C129.955 152.846 129.955 60.1407 119.412 60.1407C108.869 60.1407 108.869 152.846 98.3261 152.846C87.7833 152.846 87.7833 60.1407 77.2404 60.1407C66.6975 60.1407 66.6975 60.1407 56.1547 60.1407Z" fill="#F3B020"/>
<path d="M56.1547 60.1407C66.6975 60.1407 66.6975 60.1407 77.2404 60.1407C87.7833 60.1407 87.7833 152.846 98.3261 152.846C108.869 152.846 108.869 60.1407 119.412 60.1407C129.955 60.1407 129.955 152.846 140.498 152.846C151.04 152.846 151.04 152.846 161.583 152.846C172.126 152.846 172.126 152.846 182.669 152.846C193.212 152.846 193.212 152.846 203.755 152.846C214.298 152.846 214.298 60.1407 224.84 60.1407C235.383 60.1407 235.383 60.1407 245.926 60.1407C256.469 60.1407 256.469 152.846 267.012 152.846C277.555 152.846 277.555 152.846 288.098 152.846C277.555 152.846 277.555 152.846 267.012 152.846C256.469 152.846 256.469 60.1407 245.926 60.1407C235.383 60.1407 235.383 60.1407 224.84 60.1407C214.298 60.1407 214.298 152.846 203.755 152.846C193.212 152.846 193.212 152.846 182.669 152.846C172.126 152.846 172.126 152.846 161.583 152.846C151.04 152.846 151.04 152.846 140.498 152.846C129.955 152.846 129.955 60.1407 119.412 60.1407C108.869 60.1407 108.869 152.846 98.3261 152.846C87.7833 152.846 87.7833 60.1407 77.2404 60.1407C66.6975 60.1407 66.6975 60.1407 56.1547 60.1407Z" fill="#F4B220"/>
<path d="M56.1547 60.1407C66.6975 60.1407 66.6975 60.1407 77.2404 60.1407C87.7833 60.1407 87.7833 152.846 98.3261 152.846C108.869 152.846 108.869 60.1407 119.412 60.1407C129.955 60.1407 129.955 152.846 140.498 152.846C151.04 152.846 151.04 152.846 161.583 152.846C172.126 152.846 172.126 152.846 182.669 152.846C193.212 152.846 193.212 152.846 203.755 152.846C214.298 152.846 214.298 60.1407 224.84 60.1407C235.383 60.1407 235.383 60.1407 245.926 60.1407C256.469 60.1407 256.469 152.846 267.012 152.846C277.555 152.846 277.555 152.846 288.098 152.846C277.555 152.846 277.555 152.846 267.012 152.846C256.469 152.846 256.469 60.1407 245.926 60.1407C235.383 60.1407 235.383 60.1407 224.84 60.1407C214.298 60.1407 214.298 152.846 203.755 152.846C193.212 152.846 193.212 152.846 182.669 152.846C172.126 152.846 172.126 152.846 161.583 152.846C151.04 152.846 151.04 152.846 140.498 152.846C129.955 152.846 129.955 60.1407 119.412 60.1407C108.869 60.1407 108.869 152.846 98.3261 152.846C87.7833 152.846 87.7833 60.1407 77.2404 60.1407C66.6975 60.1407 66.6975 60.1407 56.1547 60.1407Z" fill="#F3AB20"/>
<path d="M56.1547 60.1407C66.6975 60.1407 66.6975 60.1407 77.2404 60.1407C87.7833 60.1407 87.7833 152.846 98.3261 152.846C108.869 152.846 108.869 60.1407 119.412 60.1407C129.955 60.1407 129.955 152.846 140.498 152.846C151.04 152.846 151.04 152.846 161.583 152.846C172.126 152.846 172.126 152.846 182.669 152.846C193.212 152.846 193.212 152.846 203.755 152.846C214.298 152.846 214.298 60.1407 224.84 60.1407C235.383 60.1407 235.383 60.1407 245.926 60.1407C256.469 60.1407 256.469 152.846 267.012 152.846C277.555 152.846 277.555 152.846 288.098 152.846C277.555 152.846 277.555 152.846 267.012 152.846C256.469 152.846 256.469 60.1407 245.926 60.1407C235.383 60.1407 235.383 60.1407 224.84 60.1407C214.298 60.1407 214.298 152.846 203.755 152.846C193.212 152.846 193.212 152.846 182.669 152.846C172.126 152.846 172.126 152.846 161.583 152.846C151.04 152.846 151.04 152.846 140.498 152.846C129.955 152.846 129.955 60.1407 119.412 60.1407C108.869 60.1407 108.869 152.846 98.3261 152.846C87.7833 152.846 87.7833 60.1407 77.2404 60.1407C66.6975 60.1407 66.6975 60.1407 56.1547 60.1407Z" fill="#F3AC20"/>
<path d="M56.1547 60.1407C66.6975 60.1407 66.6975 60.1407 77.2404 60.1407C87.7833 60.1407 87.7833 152.846 98.3261 152.846C108.869 152.846 108.869 60.1407 119.412 60.1407C129.955 60.1407 129.955 152.846 140.498 152.846C151.04 152.846 151.04 152.846 161.583 152.846C172.126 152.846 172.126 152.846 182.669 152.846C193.212 152.846 193.212 152.846 203.755 152.846C214.298 152.846 214.298 60.1407 224.84 60.1407C235.383 60.1407 235.383 60.1407 245.926 60.1407C256.469 60.1407 256.469 152.846 267.012 152.846C277.555 152.846 277.555 152.846 288.098 152.846C277.555 152.846 277.555 152.846 267.012 152.846C256.469 152.846 256.469 60.1407 245.926 60.1407C235.383 60.1407 235.383 60.1407 224.84 60.1407C214.298 60.1407 214.298 152.846 203.755 152.846C193.212 152.846 193.212 152.846 182.669 152.846C172.126 152.846 172.126 152.846 161.583 152.846C151.04 152.846 151.04 152.846 140.498 152.846C129.955 152.846 129.955 60.1407 119.412 60.1407C108.869 60.1407 108.869 152.846 98.3261 152.846C87.7833 152.846 87.7833 60.1407 77.2404 60.1407C66.6975 60.1407 66.6975 60.1407 56.1547 60.1407Z" fill="#F3AE20"/>
<path d="M56.1547 60.1407C66.6975 60.1407 66.6975 60.1407 77.2404 60.1407C87.7833 60.1407 87.7833 152.846 98.3261 152.846C108.869 152.846 108.869 60.1407 119.412 60.1407C129.955 60.1407 129.955 152.846 140.498 152.846C151.04 152.846 151.04 152.846 161.583 152.846C172.126 152.846 172.126 152.846 182.669 152.846C193.212 152.846 193.212 152.846 203.755 152.846C214.298 152.846 214.298 60.1407 224.84 60.1407C235.383 60.1407 235.383 60.1407 245.926 60.1407C256.469 60.1407 256.469 152.846 267.012 152.846C277.555 152.846 277.555 152.846 288.098 152.846C277.555 152.846 277.555 152.846 267.012 152.846C256.469 152.846 256.469 60.1407 245.926 60.1407C235.383 60.1407 235.383 60.1407 224.84 60.1407C214.298 60.1407 214.298 152.846 203.755 152.846C193.212 152.846 193.212 152.846 182.669 152.846C172.126 152.846 172.126 152.846 161.583 152.846C151.04 152.846 151.04 152.846 140.498 152.846C129.955 152.846 129.955 60.1407 119.412 60.1407C108.869 60.1407 108.869 152.846 98.3261 152.846C87.7833 152.846 87.7833 60.1407 77.2404 60.1407C66.6975 60.1407 66.6975 60.1407 56.1547 60.1407Z" fill="#F4B420"/>
<path d="M56.1547 60.1407C66.6975 60.1407 66.6975 60.1407 77.2404 60.1407C87.7833 60.1407 87.7833 152.846 98.3261 152.846C108.869 152.846 108.869 60.1407 119.412 60.1407C129.955 60.1407 129.955 152.846 140.498 152.846C151.04 152.846 151.04 152.846 161.583 152.846C172.126 152.846 172.126 152.846 182.669 152.846C193.212 152.846 193.212 152.846 203.755 152.846C214.298 152.846 214.298 60.1407 224.84 60.1407C235.383 60.1407 235.383 60.1407 245.926 60.1407C256.469 60.1407 256.469 152.846 267.012 152.846C277.555 152.846 277.555 152.846 288.098 152.846C277.555 152.846 277.555 152.846 267.012 152.846C256.469 152.846 256.469 60.1407 245.926 60.1407C235.383 60.1407 235.383 60.1407 224.84 60.1407C214.298 60.1407 214.298 152.846 203.755 152.846C193.212 152.846 193.212 152.846 182.669 152.846C172.126 152.846 172.126 152.846 161.583 152.846C151.04 152.846 151.04 152.846 140.498 152.846C129.955 152.846 129.955 60.1407 119.412 60.1407C108.869 60.1407 108.869 152.846 98.3261 152.846C87.7833 152.846 87.7833 60.1407 77.2404 60.1407C66.6975 60.1407 66.6975 60.1407 56.1547 60.1407Z" fill="#F2A720"/>
<path d="M56.1547 60.1407C66.6975 60.1407 66.6975 60.1407 77.2404 60.1407C87.7833 60.1407 87.7833 152.846 98.3261 152.846C108.869 152.846 108.869 60.1407 119.412 60.1407C129.955 60.1407 129.955 152.846 140.498 152.846C151.04 152.846 151.04 152.846 161.583 152.846C172.126 152.846 172.126 152.846 182.669 152.846C193.212 152.846 193.212 152.846 203.755 152.846C214.298 152.846 214.298 60.1407 224.84 60.1407C235.383 60.1407 235.383 60.1407 245.926 60.1407C256.469 60.1407 256.469 152.846 267.012 152.846C277.555 152.846 277.555 152.846 288.098 152.846C277.555 152.846 277.555 152.846 267.012 152.846C256.469 152.846 256.469 60.1407 245.926 60.1407C235.383 60.1407 235.383 60.1407 224.84 60.1407C214.298 60.1407 214.298 152.846 203.755 152.846C193.212 152.846 193.212 152.846 182.669 152.846C172.126 152.846 172.126 152.846 161.583 152.846C151.04 152.846 151.04 152.846 140.498 152.846C129.955 152.846 129.955 60.1407 119.412 60.1407C108.869 60.1407 108.869 152.846 98.3261 152.846C87.7833 152.846 87.7833 60.1407 77.2404 60.1407C66.6975 60.1407 66.6975 60.1407 56.1547 60.1407Z" fill="#F19E20"/>
<path d="M56.1547 60.1407C66.6975 60.1407 66.6975 60.1407 77.2404 60.1407C87.7833 60.1407 87.7833 152.846 98.3261 152.846C108.869 152.846 108.869 60.1407 119.412 60.1407C129.955 60.1407 129.955 152.846 140.498 152.846C151.04 152.846 151.04 152.846 161.583 152.846C172.126 152.846 172.126 152.846 182.669 152.846C193.212 152.846 193.212 152.846 203.755 152.846C214.298 152.846 214.298 60.1407 224.84 60.1407C235.383 60.1407 235.383 60.1407 245.926 60.1407C256.469 60.1407 256.469 152.846 267.012 152.846C277.555 152.846 277.555 152.846 288.098 152.846C277.555 152.846 277.555 152.846 267.012 152.846C256.469 152.846 256.469 60.1407 245.926 60.1407C235.383 60.1407 235.383 60.1407 224.84 60.1407C214.298 60.1407 214.298 152.846 203.755 152.846C193.212 152.846 193.212 152.846 182.669 152.846C172.126 152.846 172.126 152.846 161.583 152.846C151.04 152.846 151.04 152.846 140.498 152.846C129.955 152.846 129.955 60.1407 119.412 60.1407C108.869 60.1407 108.869 152.846 98.3261 152.846C87.7833 152.846 87.7833 60.1407 77.2404 60.1407C66.6975 60.1407 66.6975 60.1407 56.1547 60.1407Z" fill="#F1A020"/>
<path d="M56.1547 60.1407C66.6975 60.1407 66.6975 60.1407 77.2404 60.1407C87.7833 60.1407 87.7833 152.846 98.3261 152.846C108.869 152.846 108.869 60.1407 119.412 60.1407C129.955 60.1407 129.955 152.846 140.498 152.846C151.04 152.846 151.04 152.846 161.583 152.846C172.126 152.846 172.126 152.846 182.669 152.846C193.212 152.846 193.212 152.846 203.755 152.846C214.298 152.846 214.298 60.1407 224.84 60.1407C235.383 60.1407 235.383 60.1407 245.926 60.1407C256.469 60.1407 256.469 152.846 267.012 152.846C277.555 152.846 277.555 152.846 288.098 152.846C277.555 152.846 277.555 152.846 267.012 152.846C256.469 152.846 256.469 60.1407 245.926 60.1407C235.383 60.1407 235.383 60.1407 224.84 60.1407C214.298 60.1407 214.298 152.846 203.755 152.846C193.212 152.846 193.212 152.846 182.669 152.846C172.126 152.846 172.126 152.846 161.583 152.846C151.04 152.846 151.04 152.846 140.498 152.846C129.955 152.846 129.955 60.1407 119.412 60.1407C108.869 60.1407 108.869 152.846 98.3261 152.846C87.7833 152.846 87.7833 60.1407 77.2404 60.1407C66.6975 60.1407 66.6975 60.1407 56.1547 60.1407Z" fill="#EC8520"/>
<path d="M56.1547 60.1407C66.6975 60.1407 66.6975 60.1407 77.2404 60.1407C87.7833 60.1407 87.7833 152.846 98.3261 152.846C108.869 152.846 108.869 60.1407 119.412 60.1407C129.955 60.1407 129.955 152.846 140.498 152.846C151.04 152.846 151.04 152.846 161.583 152.846C172.126 152.846 172.126 152.846 182.669 152.846C193.212 152.846 193.212 152.846 203.755 152.846C214.298 152.846 214.298 60.1407 224.84 60.1407C235.383 60.1407 235.383 60.1407 245.926 60.1407C256.469 60.1407 256.469 152.846 267.012 152.846C277.555 152.846 277.555 152.846 288.098 152.846C277.555 152.846 277.555 152.846 267.012 152.846C256.469 152.846 256.469 60.1407 245.926 60.1407C235.383 60.1407 235.383 60.1407 224.84 60.1407C214.298 60.1407 214.298 152.846 203.755 152.846C193.212 152.846 193.212 152.846 182.669 152.846C172.126 152.846 172.126 152.846 161.583 152.846C151.04 152.846 151.04 152.846 140.498 152.846C129.955 152.846 129.955 60.1407 119.412 60.1407C108.869 60.1407 108.869 152.846 98.3261 152.846C87.7833 152.846 87.7833 60.1407 77.2404 60.1407C66.6975 60.1407 66.6975 60.1407 56.1547 60.1407Z" fill="#EE8C20"/>
<path d="M56.1547 60.1407C66.6975 60.1407 66.6975 60.1407 77.2404 60.1407C87.7833 60.1407 87.7833 152.846 98.3261 152.846C108.869 152.846 108.869 60.1407 119.412 60.1407C129.955 60.1407 129.955 152.846 140.498 152.846C151.04 152.846 151.04 152.846 161.583 152.846C172.126 152.846 172.126 152.846 182.669 152.846C193.212 152.846 193.212 152.846 203.755 152.846C214.298 152.846 214.298 60.1407 224.84 60.1407C235.383 60.1407 235.383 60.1407 245.926 60.1407C256.469 60.1407 256.469 152.846 267.012 152.846C277.555 152.846 277.555 152.846 288.098 152.846C277.555 152.846 277.555 152.846 267.012 152.846C256.469 152.846 256.469 60.1407 245.926 60.1407C235.383 60.1407 235.383 60.1407 224.84 60.1407C214.298 60.1407 214.298 152.846 203.755 152.846C193.212 152.846 193.212 152.846 182.669 152.846C172.126 152.846 172.126 152.846 161.583 152.846C151.04 152.846 151.04 152.846 140.498 152.846C129.955 152.846 129.955 60.1407 119.412 60.1407C108.869 60.1407 108.869 152.846 98.3261 152.846C87.7833 152.846 87.7833 60.1407 77.2404 60.1407C66.6975 60.1407 66.6975 60.1407 56.1547 60.1407Z" fill="#E6641F"/>
<path d="M56.1547 60.1407C66.6975 60.1407 66.6975 60.1407 77.2404 60.1407C87.7833 60.1407 87.7833 152.846 98.3261 152.846C108.869 152.846 108.869 60.1407 119.412 60.1407C129.955 60.1407 129.955 152.846 140.498 152.846C151.04 152.846 151.04 152.846 161.583 152.846C172.126 152.846 172.126 152.846 182.669 152.846C193.212 152.846 193.212 152.846 203.755 152.846C214.298 152.846 214.298 60.1407 224.84 60.1407C235.383 60.1407 235.383 60.1407 245.926 60.1407C256.469 60.1407 256.469 152.846 267.012 152.846C277.555 152.846 277.555 152.846 288.098 152.846C277.555 152.846 277.555 152.846 267.012 152.846C256.469 152.846 256.469 60.1407 245.926 60.1407C235.383 60.1407 235.383 60.1407 224.84 60.1407C214.298 60.1407 214.298 152.846 203.755 152.846C193.212 152.846 193.212 152.846 182.669 152.846C172.126 152.846 172.126 152.846 161.583 152.846C151.04 152.846 151.04 152.846 140.498 152.846C129.955 152.846 129.955 60.1407 119.412 60.1407C108.869 60.1407 108.869 152.846 98.3261 152.846C87.7833 152.846 87.7833 60.1407 77.2404 60.1407C66.6975 60.1407 66.6975 60.1407 56.1547 60.1407Z" fill="#E0491E"/>
<path d="M56.1547 60.1407C66.6975 60.1407 66.6975 60.1407 77.2404 60.1407C87.7833 60.1407 87.7833 152.846 98.3261 152.846C108.869 152.846 108.869 60.1407 119.412 60.1407C129.955 60.1407 129.955 152.846 140.498 152.846C151.04 152.846 151.04 152.846 161.583 152.846C172.126 152.846 172.126 152.846 182.669 152.846C193.212 152.846 193.212 152.846 203.755 152.846C214.298 152.846 214.298 60.1407 224.84 60.1407C235.383 60.1407 235.383 60.1407 245.926 60.1407C256.469 60.1407 256.469 152.846 267.012 152.846C277.555 152.846 277.555 152.846 288.098 152.846C277.555 152.846 277.555 152.846 267.012 152.846C256.469 152.846 256.469 60.1407 245.926 60.1407C235.383 60.1407 235.383 60.1407 224.84 60.1407C214.298 60.1407 214.298 152.846 203.755 152.846C193.212 152.846 193.212 152.846 182.669 152.846C172.126 152.846 172.126 152.846 161.583 152.846C151.04 152.846 151.04 152.846 140.498 152.846C129.955 152.846 129.955 60.1407 119.412 60.1407C108.869 60.1407 108.869 152.846 98.3261 152.846C87.7833 152.846 87.7833 60.1407 77.2404 60.1407C66.6975 60.1407 66.6975 60.1407 56.1547 60.1407Z" fill="#E04C1E"/>
<path d="M56.1547 60.1407C66.6975 60.1407 66.6975 60.1407 77.2404 60.1407C87.7833 60.1407 87.7833 152.846 98.3261 152.846C108.869 152.846 108.869 60.1407 119.412 60.1407C129.955 60.1407 129.955 152.846 140.498 152.846C151.04 152.846 151.04 152.846 161.583 152.846C172.126 152.846 172.126 152.846 182.669 152.846C193.212 152.846 193.212 152.846 203.755 152.846C214.298 152.846 214.298 60.1407 224.84 60.1407C235.383 60.1407 235.383 60.1407 245.926 60.1407C256.469 60.1407 256.469 152.846 267.012 152.846C277.555 152.846 277.555 152.846 288.098 152.846C277.555 152.846 277.555 152.846 267.012 152.846C256.469 152.846 256.469 60.1407 245.926 60.1407C235.383 60.1407 235.383 60.1407 224.84 60.1407C214.298 60.1407 214.298 152.846 203.755 152.846C193.212 152.846 193.212 152.846 182.669 152.846C172.126 152.846 172.126 152.846 161.583 152.846C151.04 152.846 151.04 152.846 140.498 152.846C129.955 152.846 129.955 60.1407 119.412 60.1407C108.869 60.1407 108.869 152.846 98.3261 152.846C87.7833 152.846 87.7833 60.1407 77.2404 60.1407C66.6975 60.1407 66.6975 60.1407 56.1547 60.1407Z" fill="#D0021B"/>
<path d="M56.1547 60.1407C66.6975 60.1407 66.6975 60.1407 77.2404 60.1407C87.7833 60.1407 87.7833 152.846 98.3261 152.846C108.869 152.846 108.869 60.1407 119.412 60.1407C129.955 60.1407 129.955 152.846 140.498 152.846C151.04 152.846 151.04 152.846 161.583 152.846C172.126 152.846 172.126 152.846 182.669 152.846C193.212 152.846 193.212 152.846 203.755 152.846C214.298 152.846 214.298 60.1407 224.84 60.1407C235.383 60.1407 235.383 60.1407 245.926 60.1407C256.469 60.1407 256.469 152.846 267.012 152.846C277.555 152.846 277.555 152.846 288.098 152.846C277.555 152.846 277.555 152.846 267.012 152.846C256.469 152.846 256.469 60.1407 245.926 60.1407C235.383 60.1407 235.383 60.1407 224.84 60.1407C214.298 60.1407 214.298 152.846 203.755 152.846C193.212 152.846 193.212 152.846 182.669 152.846C172.126 152.846 172.126 152.846 161.583 152.846C151.04 152.846 151.04 152.846 140.498 152.846C129.955 152.846 129.955 60.1407 119.412 60.1407C108.869 60.1407 108.869 152.846 98.3261 152.846C87.7833 152.846 87.7833 60.1407 77.2404 60.1407C66.6975 60.1407 66.6975 60.1407 56.1547 60.1407Z" fill="#D5191C"/>
<path d="M56.1547 60.1407C66.6975 60.1407 66.6975 60.1407 77.2404 60.1407C87.7833 60.1407 87.7833 152.846 98.3261 152.846C108.869 152.846 108.869 60.1407 119.412 60.1407C129.955 60.1407 129.955 152.846 140.498 152.846C151.04 152.846 151.04 152.846 161.583 152.846C172.126 152.846 172.126 152.846 182.669 152.846C193.212 152.846 193.212 152.846 203.755 152.846C214.298 152.846 214.298 60.1407 224.84 60.1407C235.383 60.1407 235.383 60.1407 245.926 60.1407C256.469 60.1407 256.469 152.846 267.012 152.846C277.555 152.846 277.555 152.846 288.098 152.846C277.555 152.846 277.555 152.846 267.012 152.846C256.469 152.846 256.469 60.1407 245.926 60.1407C235.383 60.1407 235.383 60.1407 224.84 60.1407C214.298 60.1407 214.298 152.846 203.755 152.846C193.212 152.846 193.212 152.846 182.669 152.846C172.126 152.846 172.126 152.846 161.583 152.846C151.04 152.846 151.04 152.846 140.498 152.846C129.955 152.846 129.955 60.1407 119.412 60.1407C108.869 60.1407 108.869 152.846 98.3261 152.846C87.7833 152.846 87.7833 60.1407 77.2404 60.1407C66.6975 60.1407 66.6975 60.1407 56.1547 60.1407Z" fill="#E2521F"/>
<path d="M56.1547 60.1407C66.6975 60.1407 66.6975 60.1407 77.2404 60.1407C87.7833 60.1407 87.7833 152.846 98.3261 152.846C108.869 152.846 108.869 60.1407 119.412 60.1407C129.955 60.1407 129.955 152.846 140.498 152.846C151.04 152.846 151.04 152.846 161.583 152.846C172.126 152.846 172.126 152.846 182.669 152.846C193.212 152.846 193.212 152.846 203.755 152.846C214.298 152.846 214.298 60.1407 224.84 60.1407C235.383 60.1407 235.383 60.1407 245.926 60.1407C256.469 60.1407 256.469 152.846 267.012 152.846C277.555 152.846 277.555 152.846 288.098 152.846C277.555 152.846 277.555 152.846 267.012 152.846C256.469 152.846 256.469 60.1407 245.926 60.1407C235.383 60.1407 235.383 60.1407 224.84 60.1407C214.298 60.1407 214.298 152.846 203.755 152.846C193.212 152.846 193.212 152.846 182.669 152.846C172.126 152.846 172.126 152.846 161.583 152.846C151.04 152.846 151.04 152.846 140.498 152.846C129.955 152.846 129.955 60.1407 119.412 60.1407C108.869 60.1407 108.869 152.846 98.3261 152.846C87.7833 152.846 87.7833 60.1407 77.2404 60.1407C66.6975 60.1407 66.6975 60.1407 56.1547 60.1407Z" fill="#E6671F"/>
<path d="M56.1547 60.1407C66.6975 60.1407 66.6975 60.1407 77.2404 60.1407C87.7833 60.1407 87.7833 152.846 98.3261 152.846C108.869 152.846 108.869 60.1407 119.412 60.1407C129.955 60.1407 129.955 152.846 140.498 152.846C151.04 152.846 151.04 152.846 161.583 152.846C172.126 152.846 172.126 152.846 182.669 152.846C193.212 152.846 193.212 152.846 203.755 152.846C214.298 152.846 214.298 60.1407 224.84 60.1407C235.383 60.1407 235.383 60.1407 245.926 60.1407C256.469 60.1407 256.469 152.846 267.012 152.846C277.555 152.846 277.555 152.846 288.098 152.846C277.555 152.846 277.555 152.846 267.012 152.846C256.469 152.846 256.469 60.1407 245.926 60.1407C235.383 60.1407 235.383 60.1407 224.84 60.1407C214.298 60.1407 214.298 152.846 203.755 152.846C193.212 152.846 193.212 152.846 182.669 152.846C172.126 152.846 172.126 152.846 161.583 152.846C151.04 152.846 151.04 152.846 140.498 152.846C129.955 152.846 129.955 60.1407 119.412 60.1407C108.869 60.1407 108.869 152.846 98.3261 152.846C87.7833 152.846 87.7833 60.1407 77.2404 60.1407C66.6975 60.1407 66.6975 60.1407 56.1547 60.1407Z" fill="#F09821"/>
<path d="M56.1547 60.1407C66.6975 60.1407 66.6975 60.1407 77.2404 60.1407C87.7833 60.1407 87.7833 152.846 98.3261 152.846C108.869 152.846 108.869 60.1407 119.412 60.1407C129.955 60.1407 129.955 152.846 140.498 152.846C151.04 152.846 151.04 152.846 161.583 152.846C172.126 152.846 172.126 152.846 182.669 152.846C193.212 152.846 193.212 152.846 203.755 152.846C214.298 152.846 214.298 60.1407 224.84 60.1407C235.383 60.1407 235.383 60.1407 245.926 60.1407C256.469 60.1407 256.469 152.846 267.012 152.846C277.555 152.846 277.555 152.846 288.098 152.846C277.555 152.846 277.555 152.846 267.012 152.846C256.469 152.846 256.469 60.1407 245.926 60.1407C235.383 60.1407 235.383 60.1407 224.84 60.1407C214.298 60.1407 214.298 152.846 203.755 152.846C193.212 152.846 193.212 152.846 182.669 152.846C172.126 152.846 172.126 152.846 161.583 152.846C151.04 152.846 151.04 152.846 140.498 152.846C129.955 152.846 129.955 60.1407 119.412 60.1407C108.869 60.1407 108.869 152.846 98.3261 152.846C87.7833 152.846 87.7833 60.1407 77.2404 60.1407C66.6975 60.1407 66.6975 60.1407 56.1547 60.1407Z" fill="#E97520"/>
<path d="M56.1547 60.1407C66.6975 60.1407 66.6975 60.1407 77.2404 60.1407C87.7833 60.1407 87.7833 152.846 98.3261 152.846C108.869 152.846 108.869 60.1407 119.412 60.1407C129.955 60.1407 129.955 152.846 140.498 152.846C151.04 152.846 151.04 152.846 161.583 152.846C172.126 152.846 172.126 152.846 182.669 152.846C193.212 152.846 193.212 152.846 203.755 152.846C214.298 152.846 214.298 60.1407 224.84 60.1407C235.383 60.1407 235.383 60.1407 245.926 60.1407C256.469 60.1407 256.469 152.846 267.012 152.846C277.555 152.846 277.555 152.846 288.098 152.846C277.555 152.846 277.555 152.846 267.012 152.846C256.469 152.846 256.469 60.1407 245.926 60.1407C235.383 60.1407 235.383 60.1407 224.84 60.1407C214.298 60.1407 214.298 152.846 203.755 152.846C193.212 152.846 193.212 152.846 182.669 152.846C172.126 152.846 172.126 152.846 161.583 152.846C151.04 152.846 151.04 152.846 140.498 152.846C129.955 152.846 129.955 60.1407 119.412 60.1407C108.869 60.1407 108.869 152.846 98.3261 152.846C87.7833 152.846 87.7833 60.1407 77.2404 60.1407C66.6975 60.1407 66.6975 60.1407 56.1547 60.1407Z" fill="#E45E1F"/>
<path d="M56.1547 60.1407C66.6975 60.1407 66.6975 60.1407 77.2404 60.1407C87.7833 60.1407 87.7833 152.846 98.3261 152.846C108.869 152.846 108.869 60.1407 119.412 60.1407C129.955 60.1407 129.955 152.846 140.498 152.846C151.04 152.846 151.04 152.846 161.583 152.846C172.126 152.846 172.126 152.846 182.669 152.846C193.212 152.846 193.212 152.846 203.755 152.846C214.298 152.846 214.298 60.1407 224.84 60.1407C235.383 60.1407 235.383 60.1407 245.926 60.1407C256.469 60.1407 256.469 152.846 267.012 152.846C277.555 152.846 277.555 152.846 288.098 152.846C277.555 152.846 277.555 152.846 267.012 152.846C256.469 152.846 256.469 60.1407 245.926 60.1407C235.383 60.1407 235.383 60.1407 224.84 60.1407C214.298 60.1407 214.298 152.846 203.755 152.846C193.212 152.846 193.212 152.846 182.669 152.846C172.126 152.846 172.126 152.846 161.583 152.846C151.04 152.846 151.04 152.846 140.498 152.846C129.955 152.846 129.955 60.1407 119.412 60.1407C108.869 60.1407 108.869 152.846 98.3261 152.846C87.7833 152.846 87.7833 60.1407 77.2404 60.1407C66.6975 60.1407 66.6975 60.1407 56.1547 60.1407Z" fill="#E2551F"/>
<path d="M56.1547 60.1407C66.6975 60.1407 66.6975 60.1407 77.2404 60.1407C87.7833 60.1407 87.7833 152.846 98.3261 152.846C108.869 152.846 108.869 60.1407 119.412 60.1407C129.955 60.1407 129.955 152.846 140.498 152.846C151.04 152.846 151.04 152.846 161.583 152.846C172.126 152.846 172.126 152.846 182.669 152.846C193.212 152.846 193.212 152.846 203.755 152.846C214.298 152.846 214.298 60.1407 224.84 60.1407C235.383 60.1407 235.383 60.1407 245.926 60.1407C256.469 60.1407 256.469 152.846 267.012 152.846C277.555 152.846 277.555 152.846 288.098 152.846C277.555 152.846 277.555 152.846 267.012 152.846C256.469 152.846 256.469 60.1407 245.926 60.1407C235.383 60.1407 235.383 60.1407 224.84 60.1407C214.298 60.1407 214.298 152.846 203.755 152.846C193.212 152.846 193.212 152.846 182.669 152.846C172.126 152.846 172.126 152.846 161.583 152.846C151.04 152.846 151.04 152.846 140.498 152.846C129.955 152.846 129.955 60.1407 119.412 60.1407C108.869 60.1407 108.869 152.846 98.3261 152.846C87.7833 152.846 87.7833 60.1407 77.2404 60.1407C66.6975 60.1407 66.6975 60.1407 56.1547 60.1407Z" fill="#EF9120"/>
<path d="M56.1547 60.1407C66.6975 60.1407 66.6975 60.1407 77.2404 60.1407C87.7833 60.1407 87.7833 152.846 98.3261 152.846C108.869 152.846 108.869 60.1407 119.412 60.1407C129.955 60.1407 129.955 152.846 140.498 152.846C151.04 152.846 151.04 152.846 161.583 152.846C172.126 152.846 172.126 152.846 182.669 152.846C193.212 152.846 193.212 152.846 203.755 152.846C214.298 152.846 214.298 60.1407 224.84 60.1407C235.383 60.1407 235.383 60.1407 245.926 60.1407C256.469 60.1407 256.469 152.846 267.012 152.846C277.555 152.846 277.555 152.846 288.098 152.846C277.555 152.846 277.555 152.846 267.012 152.846C256.469 152.846 256.469 60.1407 245.926 60.1407C235.383 60.1407 235.383 60.1407 224.84 60.1407C214.298 60.1407 214.298 152.846 203.755 152.846C193.212 152.846 193.212 152.846 182.669 152.846C172.126 152.846 172.126 152.846 161.583 152.846C151.04 152.846 151.04 152.846 140.498 152.846C129.955 152.846 129.955 60.1407 119.412 60.1407C108.869 60.1407 108.869 152.846 98.3261 152.846C87.7833 152.846 87.7833 60.1407 77.2404 60.1407C66.6975 60.1407 66.6975 60.1407 56.1547 60.1407Z" fill="#F09C21"/>
<path d="M56.1547 60.1407C66.6975 60.1407 66.6975 60.1407 77.2404 60.1407C87.7833 60.1407 87.7833 152.846 98.3261 152.846C108.869 152.846 108.869 60.1407 119.412 60.1407C129.955 60.1407 129.955 152.846 140.498 152.846C151.04 152.846 151.04 152.846 161.583 152.846C172.126 152.846 172.126 152.846 182.669 152.846C193.212 152.846 193.212 152.846 203.755 152.846C214.298 152.846 214.298 60.1407 224.84 60.1407C235.383 60.1407 235.383 60.1407 245.926 60.1407C256.469 60.1407 256.469 152.846 267.012 152.846C277.555 152.846 277.555 152.846 288.098 152.846C277.555 152.846 277.555 152.846 267.012 152.846C256.469 152.846 256.469 60.1407 245.926 60.1407C235.383 60.1407 235.383 60.1407 224.84 60.1407C214.298 60.1407 214.298 152.846 203.755 152.846C193.212 152.846 193.212 152.846 182.669 152.846C172.126 152.846 172.126 152.846 161.583 152.846C151.04 152.846 151.04 152.846 140.498 152.846C129.955 152.846 129.955 60.1407 119.412 60.1407C108.869 60.1407 108.869 152.846 98.3261 152.846C87.7833 152.846 87.7833 60.1407 77.2404 60.1407C66.6975 60.1407 66.6975 60.1407 56.1547 60.1407Z" fill="#F2A920"/>
<path d="M56.1547 60.1407C66.6975 60.1407 66.6975 60.1407 77.2404 60.1407C87.7833 60.1407 87.7833 152.846 98.3261 152.846C108.869 152.846 108.869 60.1407 119.412 60.1407C129.955 60.1407 129.955 152.846 140.498 152.846C151.04 152.846 151.04 152.846 161.583 152.846C172.126 152.846 172.126 152.846 182.669 152.846C193.212 152.846 193.212 152.846 203.755 152.846C214.298 152.846 214.298 60.1407 224.84 60.1407C235.383 60.1407 235.383 60.1407 245.926 60.1407C256.469 60.1407 256.469 152.846 267.012 152.846C277.555 152.846 277.555 152.846 288.098 152.846C277.555 152.846 277.555 152.846 267.012 152.846C256.469 152.846 256.469 60.1407 245.926 60.1407C235.383 60.1407 235.383 60.1407 224.84 60.1407C214.298 60.1407 214.298 152.846 203.755 152.846C193.212 152.846 193.212 152.846 182.669 152.846C172.126 152.846 172.126 152.846 161.583 152.846C151.04 152.846 151.04 152.846 140.498 152.846C129.955 152.846 129.955 60.1407 119.412 60.1407C108.869 60.1407 108.869 152.846 98.3261 152.846C87.7833 152.846 87.7833 60.1407 77.2404 60.1407C66.6975 60.1407 66.6975 60.1407 56.1547 60.1407Z" fill="#F4B720"/>
<path d="M56.1547 60.1407C66.6975 60.1407 66.6975 60.1407 77.2404 60.1407C87.7833 60.1407 87.7833 152.846 98.3261 152.846C108.869 152.846 108.869 60.1407 119.412 60.1407C129.955 60.1407 129.955 152.846 140.498 152.846C151.04 152.846 151.04 152.846 161.583 152.846C172.126 152.846 172.126 152.846 182.669 152.846C193.212 152.846 193.212 152.846 203.755 152.846C214.298 152.846 214.298 60.1407 224.84 60.1407C235.383 60.1407 235.383 60.1407 245.926 60.1407C256.469 60.1407 256.469 152.846 267.012 152.846C277.555 152.846 277.555 152.846 288.098 152.846C277.555 152.846 277.555 152.846 267.012 152.846C256.469 152.846 256.469 60.1407 245.926 60.1407C235.383 60.1407 235.383 60.1407 224.84 60.1407C214.298 60.1407 214.298 152.846 203.755 152.846C193.212 152.846 193.212 152.846 182.669 152.846C172.126 152.846 172.126 152.846 161.583 152.846C151.04 152.846 151.04 152.846 140.498 152.846C129.955 152.846 129.955 60.1407 119.412 60.1407C108.869 60.1407 108.869 152.846 98.3261 152.846C87.7833 152.846 87.7833 60.1407 77.2404 60.1407C66.6975 60.1407 66.6975 60.1407 56.1547 60.1407Z" fill="#F2A520"/>
<path d="M56.1546 152.846H288.098" stroke="black"/>
<path d="M56.1546 152.846V159.467" stroke="black"/>
<path d="M57.14 162.305V169.578H56.2594V163.228H56.2167L54.4412 164.407V163.513L56.2594 162.305H57.14Z" fill="black"/>
<path d="M77.2404 152.846V159.467" stroke="black"/>
<path d="M74.9658 169.578V168.939L77.3664 166.311C77.6481 166.003 77.8801 165.736 78.0624 165.508C78.2447 165.279 78.3797 165.063 78.4673 164.862C78.5572 164.658 78.6022 164.445 78.6022 164.223C78.6022 163.967 78.5407 163.746 78.4175 163.559C78.2968 163.372 78.1311 163.227 77.9204 163.125C77.7097 163.024 77.4729 162.973 77.2102 162.973C76.9308 162.973 76.687 163.031 76.4786 163.147C76.2727 163.26 76.1129 163.42 75.9992 163.626C75.888 163.832 75.8323 164.074 75.8323 164.351H74.9943C74.9943 163.925 75.0925 163.55 75.289 163.228C75.4855 162.907 75.753 162.656 76.0916 162.476C76.4325 162.296 76.8148 162.206 77.2386 162.206C77.6647 162.206 78.0423 162.296 78.3714 162.476C78.7005 162.656 78.9585 162.898 79.1455 163.204C79.3326 163.509 79.4261 163.849 79.4261 164.223C79.4261 164.49 79.3775 164.752 79.2805 165.008C79.1858 165.261 79.0201 165.544 78.7833 165.856C78.5489 166.166 78.2234 166.545 77.8068 166.993L76.1732 168.74V168.797H79.5539V169.578H74.9658Z" fill="black"/>
<path d="M98.3261 152.846V159.467" stroke="black"/>
<path d="M98.3527 169.677C97.884 169.677 97.4661 169.597 97.0992 169.436C96.7346 169.275 96.4446 169.051 96.2292 168.765C96.0161 168.476 95.9001 168.141 95.8811 167.76H96.776C96.795 167.994 96.8755 168.197 97.0175 168.367C97.1596 168.535 97.3454 168.665 97.575 168.758C97.8047 168.85 98.0592 168.896 98.3385 168.896C98.651 168.896 98.928 168.842 99.1695 168.733C99.411 168.624 99.6004 168.472 99.7377 168.278C99.875 168.084 99.9436 167.859 99.9436 167.603C99.9436 167.336 99.8774 167.1 99.7448 166.897C99.6122 166.691 99.4181 166.53 99.1624 166.414C98.9067 166.298 98.5942 166.24 98.2249 166.24H97.6425V165.459H98.2249C98.5137 165.459 98.767 165.407 98.9848 165.302C99.205 165.198 99.3766 165.051 99.4998 164.862C99.6252 164.673 99.688 164.45 99.688 164.194C99.688 163.948 99.6335 163.734 99.5246 163.552C99.4157 163.369 99.2618 163.227 99.063 163.125C98.8665 163.024 98.6345 162.973 98.3669 162.973C98.116 162.973 97.8793 163.019 97.6567 163.111C97.4365 163.201 97.2566 163.333 97.1169 163.505C96.9773 163.676 96.9015 163.882 96.8897 164.123H96.0374C96.0516 163.742 96.1664 163.408 96.3819 163.122C96.5973 162.833 96.879 162.608 97.227 162.447C97.5774 162.286 97.9621 162.206 98.3811 162.206C98.831 162.206 99.2168 162.297 99.5388 162.479C99.8608 162.659 100.108 162.897 100.281 163.193C100.454 163.489 100.54 163.808 100.54 164.152C100.54 164.561 100.433 164.911 100.217 165.199C100.004 165.488 99.714 165.688 99.3471 165.8V165.856C99.8063 165.932 100.165 166.127 100.423 166.442C100.681 166.755 100.81 167.142 100.81 167.603C100.81 167.999 100.702 168.354 100.487 168.669C100.274 168.981 99.9827 169.228 99.6134 169.407C99.2441 169.587 98.8239 169.677 98.3527 169.677Z" fill="black"/>
<path d="M119.412 152.846V159.467" stroke="black"/>
<path d="M116.786 168.086V167.362L119.982 162.305H120.508V163.427H120.153L117.738 167.248V167.305H122.042V168.086H116.786ZM120.209 169.578V167.866V167.529V162.305H121.048V169.578H120.209Z" fill="black"/>
<path d="M140.498 152.846V159.467" stroke="black"/>
<path d="M140.481 169.677C140.064 169.677 139.689 169.594 139.355 169.429C139.022 169.263 138.754 169.036 138.553 168.747C138.352 168.458 138.241 168.129 138.223 167.76H139.075C139.108 168.089 139.257 168.361 139.522 168.576C139.79 168.79 140.109 168.896 140.481 168.896C140.779 168.896 141.045 168.826 141.277 168.687C141.511 168.547 141.694 168.355 141.827 168.111C141.962 167.865 142.029 167.587 142.029 167.277C142.029 166.96 141.96 166.677 141.82 166.428C141.683 166.177 141.493 165.979 141.252 165.835C141.01 165.691 140.734 165.617 140.424 165.615C140.202 165.612 139.973 165.647 139.739 165.718C139.505 165.786 139.312 165.875 139.16 165.984L138.336 165.885L138.777 162.305H142.555V163.086H139.515L139.259 165.231H139.302C139.451 165.113 139.638 165.015 139.863 164.937C140.088 164.858 140.322 164.819 140.566 164.819C141.011 164.819 141.408 164.926 141.756 165.139C142.106 165.35 142.381 165.639 142.58 166.005C142.781 166.372 142.882 166.791 142.882 167.263C142.882 167.727 142.777 168.141 142.569 168.505C142.363 168.868 142.079 169.154 141.717 169.365C141.355 169.573 140.943 169.677 140.481 169.677Z" fill="black"/>
<path d="M161.583 152.846V159.467" stroke="black"/>
<path d="M161.631 169.677C161.333 169.673 161.034 169.616 160.736 169.507C160.438 169.398 160.165 169.215 159.919 168.956C159.673 168.696 159.475 168.344 159.326 167.902C159.177 167.457 159.102 166.898 159.102 166.226C159.102 165.582 159.163 165.011 159.283 164.514C159.404 164.014 159.579 163.594 159.809 163.253C160.039 162.91 160.316 162.65 160.64 162.472C160.967 162.295 161.335 162.206 161.744 162.206C162.152 162.206 162.514 162.287 162.831 162.451C163.151 162.612 163.411 162.837 163.612 163.125C163.814 163.414 163.944 163.747 164.003 164.123H163.136C163.056 163.797 162.9 163.526 162.668 163.31C162.436 163.095 162.128 162.987 161.744 162.987C161.181 162.987 160.737 163.232 160.413 163.722C160.091 164.212 159.929 164.9 159.926 165.785H159.983C160.116 165.584 160.273 165.412 160.455 165.27C160.64 165.126 160.844 165.015 161.066 164.937C161.289 164.858 161.524 164.819 161.773 164.819C162.19 164.819 162.571 164.924 162.916 165.132C163.262 165.338 163.539 165.623 163.747 165.988C163.956 166.35 164.06 166.765 164.06 167.234C164.06 167.684 163.959 168.096 163.758 168.47C163.557 168.842 163.274 169.138 162.909 169.358C162.547 169.576 162.121 169.682 161.631 169.677ZM161.631 168.896C161.929 168.896 162.197 168.822 162.433 168.672C162.672 168.523 162.861 168.323 162.998 168.072C163.138 167.821 163.208 167.542 163.208 167.234C163.208 166.933 163.14 166.66 163.005 166.414C162.873 166.165 162.689 165.968 162.455 165.821C162.223 165.674 161.958 165.601 161.659 165.601C161.434 165.601 161.225 165.646 161.031 165.736C160.837 165.823 160.666 165.944 160.519 166.098C160.375 166.252 160.261 166.428 160.178 166.627C160.096 166.823 160.054 167.031 160.054 167.248C160.054 167.537 160.122 167.807 160.257 168.058C160.394 168.309 160.581 168.511 160.818 168.665C161.057 168.819 161.328 168.896 161.631 168.896Z" fill="black"/>
<path d="M182.669 152.846V159.467" stroke="black"/>
<path d="M180.793 169.578L184.045 163.143V163.086H180.295V162.305H184.955V163.129L181.716 169.578H180.793Z" fill="black"/>
<path d="M203.755 152.846V159.467" stroke="black"/>
<path d="M203.756 169.677C203.268 169.677 202.837 169.591 202.463 169.418C202.092 169.243 201.802 169.003 201.593 168.697C201.385 168.389 201.282 168.039 201.284 167.646C201.282 167.338 201.342 167.054 201.466 166.794C201.589 166.531 201.757 166.312 201.97 166.137C202.185 165.959 202.426 165.847 202.691 165.8V165.757C202.343 165.667 202.066 165.472 201.86 165.171C201.654 164.868 201.552 164.523 201.554 164.138C201.552 163.768 201.645 163.438 201.835 163.147C202.024 162.856 202.285 162.626 202.616 162.458C202.95 162.29 203.33 162.206 203.756 162.206C204.177 162.206 204.554 162.29 204.885 162.458C205.217 162.626 205.477 162.856 205.667 163.147C205.858 163.438 205.955 163.768 205.958 164.138C205.955 164.523 205.85 164.868 205.642 165.171C205.436 165.472 205.162 165.667 204.821 165.757V165.8C205.084 165.847 205.321 165.959 205.532 166.137C205.742 166.312 205.91 166.531 206.036 166.794C206.161 167.054 206.225 167.338 206.228 167.646C206.225 168.039 206.119 168.389 205.908 168.697C205.7 169.003 205.41 169.243 205.038 169.418C204.669 169.591 204.241 169.677 203.756 169.677ZM203.756 168.896C204.085 168.896 204.369 168.843 204.608 168.736C204.847 168.63 205.032 168.479 205.162 168.285C205.292 168.091 205.359 167.864 205.361 167.603C205.359 167.329 205.288 167.086 205.148 166.875C205.008 166.665 204.818 166.499 204.576 166.378C204.337 166.258 204.064 166.197 203.756 166.197C203.446 166.197 203.169 166.258 202.925 166.378C202.684 166.499 202.493 166.665 202.353 166.875C202.216 167.086 202.149 167.329 202.151 167.603C202.149 167.864 202.211 168.091 202.339 168.285C202.469 168.479 202.655 168.63 202.897 168.736C203.138 168.843 203.425 168.896 203.756 168.896ZM203.756 165.444C204.016 165.444 204.247 165.392 204.448 165.288C204.652 165.184 204.812 165.038 204.928 164.851C205.044 164.664 205.103 164.445 205.105 164.194C205.103 163.948 205.045 163.734 204.931 163.552C204.818 163.367 204.66 163.225 204.459 163.125C204.258 163.024 204.024 162.973 203.756 162.973C203.484 162.973 203.246 163.024 203.042 163.125C202.839 163.225 202.681 163.367 202.57 163.552C202.459 163.734 202.404 163.948 202.407 164.194C202.404 164.445 202.46 164.664 202.573 164.851C202.689 165.038 202.849 165.184 203.053 165.288C203.256 165.392 203.491 165.444 203.756 165.444Z" fill="black"/>
<path d="M224.84 152.846V159.467" stroke="black"/>
<path d="M224.788 162.206C225.087 162.208 225.385 162.265 225.683 162.376C225.982 162.487 226.254 162.672 226.5 162.93C226.746 163.186 226.944 163.535 227.093 163.978C227.242 164.42 227.317 164.976 227.317 165.643C227.317 166.29 227.255 166.864 227.132 167.366C227.011 167.865 226.836 168.286 226.607 168.63C226.379 168.973 226.102 169.233 225.776 169.411C225.451 169.589 225.084 169.677 224.675 169.677C224.268 169.677 223.904 169.597 223.585 169.436C223.267 169.273 223.007 169.046 222.803 168.758C222.602 168.466 222.473 168.129 222.416 167.746H223.283C223.361 168.079 223.516 168.355 223.748 168.573C223.982 168.788 224.291 168.896 224.675 168.896C225.236 168.896 225.679 168.651 226.003 168.161C226.33 167.671 226.493 166.978 226.493 166.084H226.436C226.304 166.282 226.146 166.454 225.964 166.599C225.782 166.743 225.579 166.854 225.357 166.932C225.134 167.01 224.897 167.05 224.646 167.05C224.23 167.05 223.847 166.947 223.499 166.741C223.154 166.532 222.877 166.247 222.668 165.885C222.462 165.52 222.359 165.103 222.359 164.635C222.359 164.19 222.459 163.782 222.658 163.413C222.859 163.041 223.141 162.746 223.503 162.525C223.868 162.305 224.296 162.199 224.788 162.206ZM224.788 162.987C224.49 162.987 224.221 163.062 223.982 163.211C223.746 163.358 223.557 163.556 223.418 163.807C223.28 164.056 223.212 164.332 223.212 164.635C223.212 164.938 223.278 165.214 223.411 165.462C223.546 165.708 223.729 165.905 223.961 166.052C224.195 166.196 224.462 166.268 224.76 166.268C224.985 166.268 225.194 166.224 225.389 166.137C225.583 166.047 225.752 165.925 225.896 165.771C226.043 165.615 226.158 165.438 226.241 165.242C226.324 165.043 226.365 164.836 226.365 164.621C226.365 164.336 226.296 164.07 226.159 163.822C226.024 163.573 225.837 163.372 225.598 163.218C225.361 163.064 225.091 162.987 224.788 162.987Z" fill="black"/>
<path d="M245.926 152.846V159.467" stroke="black"/>
<path d="M243.787 162.305V169.578H242.906V163.228H242.863L241.088 164.407V163.513L242.906 162.305H243.787ZM248.25 169.677C247.715 169.677 247.26 169.532 246.883 169.241C246.507 168.947 246.219 168.522 246.02 167.966C245.821 167.407 245.722 166.732 245.722 165.942C245.722 165.156 245.821 164.484 246.02 163.928C246.222 163.369 246.51 162.943 246.887 162.65C247.266 162.354 247.72 162.206 248.25 162.206C248.781 162.206 249.234 162.354 249.61 162.65C249.989 162.943 250.278 163.369 250.477 163.928C250.678 164.484 250.779 165.156 250.779 165.942C250.779 166.732 250.679 167.407 250.481 167.966C250.282 168.522 249.994 168.947 249.618 169.241C249.241 169.532 248.785 169.677 248.25 169.677ZM248.25 168.896C248.781 168.896 249.193 168.64 249.486 168.129C249.78 167.618 249.927 166.889 249.927 165.942C249.927 165.312 249.859 164.776 249.724 164.333C249.592 163.89 249.4 163.553 249.149 163.321C248.9 163.089 248.601 162.973 248.25 162.973C247.725 162.973 247.314 163.232 247.018 163.75C246.722 164.267 246.574 164.997 246.574 165.942C246.574 166.571 246.641 167.106 246.773 167.547C246.906 167.987 247.096 168.322 247.345 168.552C247.596 168.781 247.898 168.896 248.25 168.896Z" fill="black"/>
<path d="M267.012 152.846V159.467" stroke="black"/>
<path d="M265.673 162.305V169.578H264.793V163.228H264.75L262.974 164.407V163.513L264.793 162.305H265.673ZM270.322 162.305V169.578H269.441V163.228H269.398L267.623 164.407V163.513L269.441 162.305H270.322Z" fill="black"/>
<path d="M288.098 152.846V159.467" stroke="black"/>
<path d="M286.056 162.305V169.578H285.175V163.228H285.132L283.357 164.407V163.513L285.175 162.305H286.056ZM288.147 169.578V168.939L290.548 166.311C290.83 166.003 291.062 165.736 291.244 165.508C291.426 165.279 291.561 165.063 291.649 164.862C291.739 164.658 291.784 164.445 291.784 164.223C291.784 163.967 291.722 163.746 291.599 163.559C291.478 163.372 291.313 163.227 291.102 163.125C290.891 163.024 290.655 162.973 290.392 162.973C290.112 162.973 289.869 163.031 289.66 163.147C289.454 163.26 289.294 163.42 289.181 163.626C289.07 163.832 289.014 164.074 289.014 164.351H288.176C288.176 163.925 288.274 163.55 288.471 163.228C288.667 162.907 288.935 162.656 289.273 162.476C289.614 162.296 289.996 162.206 290.42 162.206C290.846 162.206 291.224 162.296 291.553 162.476C291.882 162.656 292.14 162.898 292.327 163.204C292.514 163.509 292.608 163.849 292.608 164.223C292.608 164.49 292.559 164.752 292.462 165.008C292.367 165.261 292.202 165.544 291.965 165.856C291.73 166.166 291.405 166.545 290.988 166.993L289.355 168.74V168.797H292.735V169.578H288.147Z" fill="black"/>
<path d="M56.1547 152.846V36.9645" stroke="black"/>
<path d="M56.1547 152.846H48.8301" stroke="black"/>
<path d="M42.0429 155.44C41.5078 155.44 41.0521 155.295 40.6757 155.004C40.2993 154.71 40.0116 154.285 39.8127 153.729C39.6139 153.17 39.5145 152.495 39.5145 151.705C39.5145 150.919 39.6139 150.247 39.8127 149.691C40.014 149.132 40.3028 148.706 40.6792 148.413C41.058 148.117 41.5126 147.969 42.0429 147.969C42.5732 147.969 43.0265 148.117 43.4029 148.413C43.7817 148.706 44.0706 149.132 44.2694 149.691C44.4707 150.247 44.5713 150.919 44.5713 151.705C44.5713 152.495 44.4718 153.17 44.273 153.729C44.0741 154.285 43.7865 154.71 43.41 155.004C43.0336 155.295 42.5779 155.44 42.0429 155.44ZM42.0429 154.659C42.5732 154.659 42.9851 154.404 43.2787 153.892C43.5722 153.381 43.719 152.652 43.719 151.705C43.719 151.075 43.6515 150.539 43.5166 150.096C43.384 149.653 43.1922 149.316 42.9413 149.084C42.6927 148.852 42.3932 148.736 42.0429 148.736C41.5173 148.736 41.1065 148.995 40.8106 149.514C40.5147 150.03 40.3667 150.76 40.3667 151.705C40.3667 152.334 40.433 152.869 40.5656 153.31C40.6982 153.75 40.8887 154.085 41.1373 154.315C41.3883 154.544 41.6901 154.659 42.0429 154.659Z" fill="black"/>
<path d="M56.1547 106.493H48.8301" stroke="black"/>
<path d="M39.866 108.989V108.349L42.2666 105.722C42.5483 105.414 42.7803 105.146 42.9626 104.919C43.1449 104.689 43.2798 104.474 43.3674 104.273C43.4574 104.069 43.5024 103.856 43.5024 103.633C43.5024 103.378 43.4408 103.156 43.3177 102.969C43.197 102.782 43.0313 102.638 42.8206 102.536C42.6099 102.434 42.3731 102.383 42.1103 102.383C41.831 102.383 41.5871 102.441 41.3788 102.557C41.1728 102.671 41.013 102.831 40.8994 103.037C40.7881 103.243 40.7325 103.484 40.7325 103.761H39.8944C39.8944 103.335 39.9927 102.961 40.1892 102.639C40.3857 102.317 40.6532 102.066 40.9917 101.886C41.3326 101.706 41.715 101.616 42.1387 101.616C42.5649 101.616 42.9425 101.706 43.2716 101.886C43.6006 102.066 43.8587 102.309 44.0457 102.614C44.2327 102.92 44.3262 103.259 44.3262 103.633C44.3262 103.901 44.2777 104.163 44.1806 104.418C44.0859 104.672 43.9202 104.954 43.6835 105.267C43.4491 105.577 43.1236 105.956 42.7069 106.403L41.0734 108.151V108.207H44.4541V108.989H39.866Z" fill="black"/>
<path d="M56.1547 83.3169H48.8301" stroke="black"/>
<path d="M42.0109 85.9117C41.5422 85.9117 41.1243 85.8312 40.7573 85.6702C40.3928 85.5092 40.1028 85.2855 39.8873 84.999C39.6743 84.7102 39.5582 84.3752 39.5393 83.9941H40.4342C40.4531 84.2284 40.5336 84.4309 40.6757 84.6013C40.8177 84.7694 41.0036 84.8996 41.2332 84.9919C41.4628 85.0843 41.7173 85.1304 41.9967 85.1304C42.3092 85.1304 42.5862 85.076 42.8277 84.9671C43.0691 84.8582 43.2585 84.7067 43.3958 84.5125C43.5332 84.3184 43.6018 84.0935 43.6018 83.8378C43.6018 83.5703 43.5355 83.3347 43.4029 83.1311C43.2704 82.9252 43.0762 82.7642 42.8206 82.6482C42.5649 82.5322 42.2524 82.4742 41.8831 82.4742H41.3007V81.6929H41.8831C42.1719 81.6929 42.4252 81.6409 42.643 81.5367C42.8632 81.4325 43.0348 81.2857 43.1579 81.0963C43.2834 80.907 43.3461 80.6844 43.3461 80.4287C43.3461 80.1825 43.2917 79.9683 43.1828 79.786C43.0739 79.6037 42.92 79.4616 42.7211 79.3598C42.5246 79.258 42.2926 79.2071 42.0251 79.2071C41.7742 79.2071 41.5374 79.2533 41.3149 79.3456C41.0947 79.4356 40.9148 79.567 40.7751 79.7398C40.6354 79.9103 40.5597 80.1162 40.5478 80.3577H39.6956C39.7098 79.9766 39.8246 79.6427 40.04 79.3563C40.2555 79.0675 40.5372 78.8426 40.8852 78.6816C41.2356 78.5206 41.6203 78.4401 42.0393 78.4401C42.4891 78.4401 42.875 78.5312 43.197 78.7135C43.5189 78.8935 43.7663 79.1314 43.9392 79.4273C44.112 79.7232 44.1984 80.0428 44.1984 80.3861C44.1984 80.7957 44.0907 81.1449 43.8752 81.4337C43.6622 81.7225 43.3722 81.9226 43.0052 82.0338V82.0907C43.4645 82.1664 43.8232 82.3617 44.0812 82.6766C44.3393 82.9891 44.4683 83.3762 44.4683 83.8378C44.4683 84.2332 44.3606 84.5883 44.1451 84.9032C43.9321 85.2157 43.6409 85.4619 43.2716 85.6418C42.9022 85.8217 42.482 85.9117 42.0109 85.9117Z" fill="black"/>
<path d="M56.1547 60.1406H48.8301" stroke="black"/>
<path d="M39.3342 61.1445V60.4201L42.5303 55.3633H43.0558V56.4854H42.7007L40.2859 60.3064V60.3633H44.5899V61.1445H39.3342ZM42.7575 62.636V60.9243V60.587V55.3633H43.5956V62.636H42.7575Z" fill="black"/>
<path d="M56.1547 36.9645H48.8301" stroke="black"/>
<path d="M42.1094 39.5592C41.6928 39.5592 41.3175 39.4763 40.9837 39.3106C40.6499 39.1449 40.3824 38.9176 40.1812 38.6288C39.9799 38.34 39.8699 38.0109 39.8509 37.6416H40.7032C40.7363 37.9707 40.8855 38.2429 41.1506 38.4584C41.4182 38.6714 41.7378 38.778 42.1094 38.778C42.4077 38.778 42.6729 38.7081 42.9049 38.5684C43.1393 38.4288 43.3227 38.237 43.4553 37.9932C43.5903 37.7469 43.6577 37.4688 43.6577 37.1586C43.6577 36.8414 43.5879 36.5585 43.4482 36.3099C43.3109 36.059 43.1215 35.8613 42.88 35.7169C42.6386 35.5725 42.3628 35.4991 42.0526 35.4967C41.8301 35.4943 41.6016 35.5287 41.3673 35.5997C41.1329 35.6683 40.9399 35.7571 40.7884 35.866L39.9646 35.7666L40.4049 32.1871H44.1833V32.9683H41.1435L40.8879 35.1132H40.9305C41.0796 34.9948 41.2666 34.8966 41.4915 34.8184C41.7165 34.7403 41.9508 34.7013 42.1947 34.7013C42.6397 34.7013 43.0363 34.8078 43.3843 35.0209C43.7347 35.2316 44.0093 35.5204 44.2082 35.8873C44.4094 36.2543 44.51 36.6733 44.51 37.1444C44.51 37.6085 44.4058 38.0228 44.1975 38.3873C43.9915 38.7496 43.7075 39.036 43.3452 39.2467C42.983 39.455 42.5711 39.5592 42.1094 39.5592Z" fill="black"/>
<path d="M6.04102 10.531V11.5447H0.363281C0.355469 11.2908 0.396484 11.0466 0.486328 10.8123C0.630859 10.4255 0.861328 10.0447 1.17773 9.66968C1.49805 9.29468 1.95898 8.86108 2.56055 8.3689C3.49414 7.60327 4.125 6.9978 4.45312 6.55249C4.78125 6.10327 4.94531 5.67944 4.94531 5.28101C4.94531 4.86304 4.79492 4.51147 4.49414 4.22632C4.19727 3.93726 3.80859 3.79272 3.32812 3.79272C2.82031 3.79272 2.41406 3.94507 2.10938 4.24976C1.80469 4.55444 1.65039 4.97632 1.64648 5.51538L0.5625 5.40405C0.636719 4.59546 0.916016 3.98022 1.40039 3.55835C1.88477 3.13257 2.53516 2.91968 3.35156 2.91968C4.17578 2.91968 4.82812 3.14819 5.30859 3.60522C5.78906 4.06226 6.0293 4.62866 6.0293 5.30444C6.0293 5.64819 5.95898 5.98608 5.81836 6.31812C5.67773 6.65015 5.44336 6.99976 5.11523 7.36694C4.79102 7.73413 4.25 8.23804 3.49219 8.87866C2.85938 9.40991 2.45312 9.77124 2.27344 9.96265C2.09375 10.1501 1.94531 10.3396 1.82812 10.531H6.04102ZM7.17773 7.30835C7.17773 6.29272 7.28125 5.47632 7.48828 4.85913C7.69922 4.23804 8.00977 3.75952 8.41992 3.42358C8.83398 3.08765 9.35352 2.91968 9.97852 2.91968C10.4395 2.91968 10.8438 3.01343 11.1914 3.20093C11.5391 3.38452 11.8262 3.6521 12.0527 4.00366C12.2793 4.35132 12.457 4.7771 12.5859 5.28101C12.7148 5.78101 12.7793 6.45679 12.7793 7.30835C12.7793 8.31616 12.6758 9.13062 12.4688 9.75171C12.2617 10.3689 11.9512 10.8474 11.5371 11.1873C11.127 11.5232 10.6074 11.6912 9.97852 11.6912C9.15039 11.6912 8.5 11.3943 8.02734 10.8005C7.46094 10.0857 7.17773 8.92163 7.17773 7.30835ZM8.26172 7.30835C8.26172 8.71851 8.42578 9.65796 8.75391 10.1267C9.08594 10.5916 9.49414 10.824 9.97852 10.824C10.4629 10.824 10.8691 10.5896 11.1973 10.1208C11.5293 9.6521 11.6953 8.7146 11.6953 7.30835C11.6953 5.89429 11.5293 4.95483 11.1973 4.48999C10.8691 4.02515 10.459 3.79272 9.9668 3.79272C9.48242 3.79272 9.0957 3.9978 8.80664 4.40796C8.44336 4.9314 8.26172 5.89819 8.26172 7.30835ZM17.8301 11.5447H16.7754V4.82397C16.5215 5.06616 16.1875 5.30835 15.7734 5.55054C15.3633 5.79272 14.9941 5.97437 14.666 6.09546V5.07593C15.2559 4.79858 15.7715 4.46265 16.2129 4.06812C16.6543 3.67358 16.9668 3.29077 17.1504 2.91968H17.8301V11.5447ZM23.918 11.5447V9.48804H20.1914V8.52124L24.1113 2.95483H24.9727V8.52124H26.1328V9.48804H24.9727V11.5447H23.918ZM23.918 8.52124V4.64819L21.2285 8.52124H23.918Z" fill="black"/>
</svg>
