<svg width="295" height="173" viewBox="0 0 295 173" fill="none" xmlns="http://www.w3.org/2000/svg">
<path d="M56.1547 80.42C66.6975 80.42 66.6975 152.846 77.2404 152.846C87.7833 152.846 87.7833 152.846 98.3261 152.846C108.869 152.846 108.869 152.846 119.412 152.846C129.955 152.846 129.955 80.42 140.498 80.42C151.04 80.42 151.04 80.42 161.583 80.42C172.126 80.42 172.126 80.42 182.669 80.42C193.212 80.42 193.212 80.42 203.755 80.42C214.298 80.42 214.298 80.42 224.84 80.42C235.383 80.42 235.383 80.42 245.926 80.42C256.469 80.42 256.469 152.846 267.012 152.846C277.555 152.846 277.555 152.846 288.098 152.846C277.555 152.846 277.555 152.846 267.012 152.846C256.469 152.846 256.469 152.846 245.926 152.846C235.383 152.846 235.383 152.846 224.84 152.846C214.298 152.846 214.298 152.846 203.755 152.846C193.212 152.846 193.212 152.846 182.669 152.846C172.126 152.846 172.126 152.846 161.583 152.846C151.04 152.846 151.04 152.846 140.498 152.846C129.955 152.846 129.955 152.846 119.412 152.846C108.869 152.846 108.869 152.846 98.3261 152.846C87.7833 152.846 87.7833 152.846 77.2404 152.846C66.6975 152.846 66.6975 152.846 56.1547 152.846V80.42Z" fill="#F8E01D"/>
<path d="M56.1547 80.42C66.6975 80.42 66.6975 51.4497 77.2404 51.4497C87.7833 51.4497 87.7833 51.4497 98.3261 51.4497C108.869 51.4497 108.869 36.9645 119.412 36.9645C129.955 36.9645 129.955 80.42 140.498 80.42C151.04 80.42 151.04 80.42 161.583 80.42C172.126 80.42 172.126 80.42 182.669 80.42C193.212 80.42 193.212 80.42 203.755 80.42C214.298 80.42 214.298 80.42 224.84 80.42C235.383 80.42 235.383 80.42 245.926 80.42C256.469 80.42 256.469 65.9348 267.012 65.9348C277.555 65.9348 277.555 152.846 288.098 152.846C277.555 152.846 277.555 152.846 267.012 152.846C256.469 152.846 256.469 80.42 245.926 80.42C235.383 80.42 235.383 80.42 224.84 80.42C214.298 80.42 214.298 80.42 203.755 80.42C193.212 80.42 193.212 80.42 182.669 80.42C172.126 80.42 172.126 80.42 161.583 80.42C151.04 80.42 151.04 80.42 140.498 80.42C129.955 80.42 129.955 36.9645 119.412 36.9645C108.869 36.9645 108.869 51.4497 98.3261 51.4497C87.7833 51.4497 87.7833 51.4497 77.2404 51.4497C66.6975 51.4497 66.6975 80.42 56.1547 80.42Z" fill="#F8DF1D"/>
<path d="M56.1547 80.4199C66.6975 80.4199 66.6975 51.4496 77.2404 51.4496C87.7833 51.4496 87.7833 51.4496 98.3261 51.4496C108.869 51.4496 108.869 152.846 119.412 152.846C129.955 152.846 129.955 80.4199 140.498 80.4199C151.04 80.4199 151.04 80.4199 161.583 80.4199C172.126 80.4199 172.126 80.4199 182.669 80.4199C193.212 80.4199 193.212 80.4199 203.755 80.4199C214.298 80.4199 214.298 80.4199 224.84 80.4199C235.383 80.4199 235.383 80.4199 245.926 80.4199C256.469 80.4199 256.469 152.846 267.012 152.846C277.555 152.846 277.555 152.846 288.098 152.846C277.555 152.846 277.555 152.846 267.012 152.846C256.469 152.846 256.469 80.4199 245.926 80.4199C235.383 80.4199 235.383 80.4199 224.84 80.4199C214.298 80.4199 214.298 80.4199 203.755 80.4199C193.212 80.4199 193.212 80.4199 182.669 80.4199C172.126 80.4199 172.126 80.4199 161.583 80.4199C151.04 80.4199 151.04 80.4199 140.498 80.4199C129.955 80.4199 129.955 152.846 119.412 152.846C108.869 152.846 108.869 152.846 98.3261 152.846C87.7833 152.846 87.7833 152.846 77.2404 152.846C66.6975 152.846 66.6975 80.4199 56.1547 80.4199Z" fill="#F8DE1D"/>
<path d="M56.1547 80.42C66.6975 80.42 66.6975 51.4497 77.2404 51.4497C87.7833 51.4497 87.7833 51.4497 98.3261 51.4497C108.869 51.4497 108.869 36.9645 119.412 36.9645C129.955 36.9645 129.955 80.42 140.498 80.42C151.04 80.42 151.04 80.42 161.583 80.42C172.126 80.42 172.126 80.42 182.669 80.42C193.212 80.42 193.212 80.42 203.755 80.42C214.298 80.42 214.298 80.42 224.84 80.42C235.383 80.42 235.383 80.42 245.926 80.42C256.469 80.42 256.469 65.9348 267.012 65.9348C277.555 65.9348 277.555 109.39 288.098 109.39V152.846C277.555 152.846 277.555 65.9348 267.012 65.9348C256.469 65.9348 256.469 80.42 245.926 80.42C235.383 80.42 235.383 80.42 224.84 80.42C214.298 80.42 214.298 80.42 203.755 80.42C193.212 80.42 193.212 80.42 182.669 80.42C172.126 80.42 172.126 80.42 161.583 80.42C151.04 80.42 151.04 80.42 140.498 80.42C129.955 80.42 129.955 36.9645 119.412 36.9645C108.869 36.9645 108.869 51.4497 98.3261 51.4497C87.7833 51.4497 87.7833 51.4497 77.2404 51.4497C66.6975 51.4497 66.6975 80.42 56.1547 80.42Z" fill="#F8E31C"/>
<path d="M56.1547 80.42C66.6975 80.42 66.6975 152.846 77.2404 152.846C87.7833 152.846 87.7833 152.846 98.3261 152.846C108.869 152.846 108.869 152.846 119.412 152.846C129.955 152.846 129.955 80.42 140.498 80.42C151.04 80.42 151.04 80.42 161.583 80.42C172.126 80.42 172.126 80.42 182.669 80.42C193.212 80.42 193.212 80.42 203.755 80.42C214.298 80.42 214.298 80.42 224.84 80.42C235.383 80.42 235.383 80.42 245.926 80.42C256.469 80.42 256.469 152.846 267.012 152.846C277.555 152.846 277.555 152.846 288.098 152.846C277.555 152.846 277.555 152.846 267.012 152.846C256.469 152.846 256.469 80.42 245.926 80.42C235.383 80.42 235.383 80.42 224.84 80.42C214.298 80.42 214.298 80.42 203.755 80.42C193.212 80.42 193.212 80.42 182.669 80.42C172.126 80.42 172.126 80.42 161.583 80.42C151.04 80.42 151.04 80.42 140.498 80.42C129.955 80.42 129.955 152.846 119.412 152.846C108.869 152.846 108.869 152.846 98.3261 152.846C87.7833 152.846 87.7833 152.846 77.2404 152.846C66.6975 152.846 66.6975 80.42 56.1547 80.42Z" fill="#F8E41C"/>
<path d="M56.1547 80.42C66.6975 80.42 66.6975 51.4497 77.2404 51.4497C87.7833 51.4497 87.7833 51.4497 98.3261 51.4497C108.869 51.4497 108.869 36.9645 119.412 36.9645C129.955 36.9645 129.955 80.42 140.498 80.42C151.04 80.42 151.04 80.42 161.583 80.42C172.126 80.42 172.126 80.42 182.669 80.42C193.212 80.42 193.212 80.42 203.755 80.42C214.298 80.42 214.298 80.42 224.84 80.42C235.383 80.42 235.383 80.42 245.926 80.42C256.469 80.42 256.469 152.846 267.012 152.846C277.555 152.846 277.555 152.846 288.098 152.846C277.555 152.846 277.555 152.846 267.012 152.846C256.469 152.846 256.469 80.42 245.926 80.42C235.383 80.42 235.383 80.42 224.84 80.42C214.298 80.42 214.298 80.42 203.755 80.42C193.212 80.42 193.212 80.42 182.669 80.42C172.126 80.42 172.126 80.42 161.583 80.42C151.04 80.42 151.04 80.42 140.498 80.42C129.955 80.42 129.955 152.846 119.412 152.846C108.869 152.846 108.869 51.4497 98.3261 51.4497C87.7833 51.4497 87.7833 51.4497 77.2404 51.4497C66.6975 51.4497 66.6975 80.42 56.1547 80.42Z" fill="#F7DD1D"/>
<path d="M56.1547 80.42C66.6975 80.42 66.6975 152.846 77.2404 152.846C87.7833 152.846 87.7833 152.846 98.3261 152.846C108.869 152.846 108.869 152.846 119.412 152.846C129.955 152.846 129.955 80.42 140.498 80.42C151.04 80.42 151.04 80.42 161.583 80.42C172.126 80.42 172.126 80.42 182.669 80.42C193.212 80.42 193.212 80.42 203.755 80.42C214.298 80.42 214.298 80.42 224.84 80.42C235.383 80.42 235.383 80.42 245.926 80.42C256.469 80.42 256.469 152.846 267.012 152.846C277.555 152.846 277.555 152.846 288.098 152.846C277.555 152.846 277.555 152.846 267.012 152.846C256.469 152.846 256.469 80.42 245.926 80.42C235.383 80.42 235.383 80.42 224.84 80.42C214.298 80.42 214.298 80.42 203.755 80.42C193.212 80.42 193.212 80.42 182.669 80.42C172.126 80.42 172.126 80.42 161.583 80.42C151.04 80.42 151.04 80.42 140.498 80.42C129.955 80.42 129.955 152.846 119.412 152.846C108.869 152.846 108.869 152.846 98.3261 152.846C87.7833 152.846 87.7833 152.846 77.2404 152.846C66.6975 152.846 66.6975 80.42 56.1547 80.42Z" fill="#F7DB1D"/>
<path d="M56.1547 80.42C66.6975 80.42 66.6975 152.846 77.2404 152.846C87.7833 152.846 87.7833 152.846 98.3261 152.846C108.869 152.846 108.869 152.846 119.412 152.846C129.955 152.846 129.955 80.42 140.498 80.42C151.04 80.42 151.04 80.42 161.583 80.42C172.126 80.42 172.126 80.42 182.669 80.42C193.212 80.42 193.212 80.42 203.755 80.42C214.298 80.42 214.298 80.42 224.84 80.42C235.383 80.42 235.383 80.42 245.926 80.42C256.469 80.42 256.469 152.846 267.012 152.846C277.555 152.846 277.555 152.846 288.098 152.846C277.555 152.846 277.555 152.846 267.012 152.846C256.469 152.846 256.469 80.42 245.926 80.42C235.383 80.42 235.383 80.42 224.84 80.42C214.298 80.42 214.298 80.42 203.755 80.42C193.212 80.42 193.212 80.42 182.669 80.42C172.126 80.42 172.126 80.42 161.583 80.42C151.04 80.42 151.04 80.42 140.498 80.42C129.955 80.42 129.955 152.846 119.412 152.846C108.869 152.846 108.869 152.846 98.3261 152.846C87.7833 152.846 87.7833 152.846 77.2404 152.846C66.6975 152.846 66.6975 80.42 56.1547 80.42Z" fill="#F7D71E"/>
<path d="M56.1547 80.42C66.6975 80.42 66.6975 152.846 77.2404 152.846C87.7833 152.846 87.7833 152.846 98.3261 152.846C108.869 152.846 108.869 152.846 119.412 152.846C129.955 152.846 129.955 80.42 140.498 80.42C151.04 80.42 151.04 80.42 161.583 80.42C172.126 80.42 172.126 80.42 182.669 80.42C193.212 80.42 193.212 80.42 203.755 80.42C214.298 80.42 214.298 80.42 224.84 80.42C235.383 80.42 235.383 80.42 245.926 80.42C256.469 80.42 256.469 152.846 267.012 152.846C277.555 152.846 277.555 152.846 288.098 152.846C277.555 152.846 277.555 152.846 267.012 152.846C256.469 152.846 256.469 80.42 245.926 80.42C235.383 80.42 235.383 80.42 224.84 80.42C214.298 80.42 214.298 80.42 203.755 80.42C193.212 80.42 193.212 80.42 182.669 80.42C172.126 80.42 172.126 80.42 161.583 80.42C151.04 80.42 151.04 80.42 140.498 80.42C129.955 80.42 129.955 152.846 119.412 152.846C108.869 152.846 108.869 152.846 98.3261 152.846C87.7833 152.846 87.7833 152.846 77.2404 152.846C66.6975 152.846 66.6975 80.42 56.1547 80.42Z" fill="#F7D61E"/>
<path d="M56.1547 80.42C66.6975 80.42 66.6975 152.846 77.2404 152.846C87.7833 152.846 87.7833 152.846 98.3261 152.846C108.869 152.846 108.869 152.846 119.412 152.846C129.955 152.846 129.955 80.42 140.498 80.42C151.04 80.42 151.04 80.42 161.583 80.42C172.126 80.42 172.126 80.42 182.669 80.42C193.212 80.42 193.212 80.42 203.755 80.42C214.298 80.42 214.298 80.42 224.84 80.42C235.383 80.42 235.383 80.42 245.926 80.42C256.469 80.42 256.469 152.846 267.012 152.846C277.555 152.846 277.555 152.846 288.098 152.846C277.555 152.846 277.555 152.846 267.012 152.846C256.469 152.846 256.469 80.42 245.926 80.42C235.383 80.42 235.383 80.42 224.84 80.42C214.298 80.42 214.298 80.42 203.755 80.42C193.212 80.42 193.212 80.42 182.669 80.42C172.126 80.42 172.126 80.42 161.583 80.42C151.04 80.42 151.04 80.42 140.498 80.42C129.955 80.42 129.955 152.846 119.412 152.846C108.869 152.846 108.869 152.846 98.3261 152.846C87.7833 152.846 87.7833 152.846 77.2404 152.846C66.6975 152.846 66.6975 80.42 56.1547 80.42Z" fill="#F7D91E"/>
<path d="M56.1547 80.42C66.6975 80.42 66.6975 152.846 77.2404 152.846C87.7833 152.846 87.7833 152.846 98.3261 152.846C108.869 152.846 108.869 152.846 119.412 152.846C129.955 152.846 129.955 80.42 140.498 80.42C151.04 80.42 151.04 80.42 161.583 80.42C172.126 80.42 172.126 80.42 182.669 80.42C193.212 80.42 193.212 80.42 203.755 80.42C214.298 80.42 214.298 80.42 224.84 80.42C235.383 80.42 235.383 80.42 245.926 80.42C256.469 80.42 256.469 152.846 267.012 152.846C277.555 152.846 277.555 152.846 288.098 152.846C277.555 152.846 277.555 152.846 267.012 152.846C256.469 152.846 256.469 80.42 245.926 80.42C235.383 80.42 235.383 80.42 224.84 80.42C214.298 80.42 214.298 80.42 203.755 80.42C193.212 80.42 193.212 80.42 182.669 80.42C172.126 80.42 172.126 80.42 161.583 80.42C151.04 80.42 151.04 80.42 140.498 80.42C129.955 80.42 129.955 152.846 119.412 152.846C108.869 152.846 108.869 152.846 98.3261 152.846C87.7833 152.846 87.7833 152.846 77.2404 152.846C66.6975 152.846 66.6975 80.42 56.1547 80.42Z" fill="#F7D41E"/>
<path d="M56.1547 80.42C66.6975 80.42 66.6975 152.846 77.2404 152.846C87.7833 152.846 87.7833 152.846 98.3261 152.846C108.869 152.846 108.869 152.846 119.412 152.846C129.955 152.846 129.955 80.42 140.498 80.42C151.04 80.42 151.04 80.42 161.583 80.42C172.126 80.42 172.126 80.42 182.669 80.42C193.212 80.42 193.212 80.42 203.755 80.42C214.298 80.42 214.298 80.42 224.84 80.42C235.383 80.42 235.383 80.42 245.926 80.42C256.469 80.42 256.469 152.846 267.012 152.846C277.555 152.846 277.555 152.846 288.098 152.846C277.555 152.846 277.555 152.846 267.012 152.846C256.469 152.846 256.469 80.42 245.926 80.42C235.383 80.42 235.383 80.42 224.84 80.42C214.298 80.42 214.298 80.42 203.755 80.42C193.212 80.42 193.212 80.42 182.669 80.42C172.126 80.42 172.126 80.42 161.583 80.42C151.04 80.42 151.04 80.42 140.498 80.42C129.955 80.42 129.955 152.846 119.412 152.846C108.869 152.846 108.869 152.846 98.3261 152.846C87.7833 152.846 87.7833 152.846 77.2404 152.846C66.6975 152.846 66.6975 80.42 56.1547 80.42Z" fill="#F7D31E"/>
<path d="M56.1547 80.42C66.6975 80.42 66.6975 152.846 77.2404 152.846C87.7833 152.846 87.7833 152.846 98.3261 152.846C108.869 152.846 108.869 152.846 119.412 152.846C129.955 152.846 129.955 80.42 140.498 80.42C151.04 80.42 151.04 80.42 161.583 80.42C172.126 80.42 172.126 80.42 182.669 80.42C193.212 80.42 193.212 80.42 203.755 80.42C214.298 80.42 214.298 80.42 224.84 80.42C235.383 80.42 235.383 80.42 245.926 80.42C256.469 80.42 256.469 152.846 267.012 152.846C277.555 152.846 277.555 152.846 288.098 152.846C277.555 152.846 277.555 152.846 267.012 152.846C256.469 152.846 256.469 80.42 245.926 80.42C235.383 80.42 235.383 80.42 224.84 80.42C214.298 80.42 214.298 80.42 203.755 80.42C193.212 80.42 193.212 80.42 182.669 80.42C172.126 80.42 172.126 80.42 161.583 80.42C151.04 80.42 151.04 80.42 140.498 80.42C129.955 80.42 129.955 152.846 119.412 152.846C108.869 152.846 108.869 152.846 98.3261 152.846C87.7833 152.846 87.7833 152.846 77.2404 152.846C66.6975 152.846 66.6975 80.42 56.1547 80.42Z" fill="#F7D21E"/>
<path d="M56.1547 80.42C66.6975 80.42 66.6975 152.846 77.2404 152.846C87.7833 152.846 87.7833 152.846 98.3261 152.846C108.869 152.846 108.869 152.846 119.412 152.846C129.955 152.846 129.955 80.42 140.498 80.42C151.04 80.42 151.04 80.42 161.583 80.42C172.126 80.42 172.126 80.42 182.669 80.42C193.212 80.42 193.212 80.42 203.755 80.42C214.298 80.42 214.298 80.42 224.84 80.42C235.383 80.42 235.383 80.42 245.926 80.42C256.469 80.42 256.469 152.846 267.012 152.846C277.555 152.846 277.555 152.846 288.098 152.846C277.555 152.846 277.555 152.846 267.012 152.846C256.469 152.846 256.469 80.42 245.926 80.42C235.383 80.42 235.383 80.42 224.84 80.42C214.298 80.42 214.298 80.42 203.755 80.42C193.212 80.42 193.212 80.42 182.669 80.42C172.126 80.42 172.126 80.42 161.583 80.42C151.04 80.42 151.04 80.42 140.498 80.42C129.955 80.42 129.955 152.846 119.412 152.846C108.869 152.846 108.869 152.846 98.3261 152.846C87.7833 152.846 87.7833 152.846 77.2404 152.846C66.6975 152.846 66.6975 80.42 56.1547 80.42Z" fill="#F7CD1F"/>
<path d="M56.1547 80.42C66.6975 80.42 66.6975 152.846 77.2404 152.846C87.7833 152.846 87.7833 152.846 98.3261 152.846C108.869 152.846 108.869 152.846 119.412 152.846C129.955 152.846 129.955 80.42 140.498 80.42C151.04 80.42 151.04 80.42 161.583 80.42C172.126 80.42 172.126 80.42 182.669 80.42C193.212 80.42 193.212 80.42 203.755 80.42C214.298 80.42 214.298 80.42 224.84 80.42C235.383 80.42 235.383 80.42 245.926 80.42C256.469 80.42 256.469 152.846 267.012 152.846C277.555 152.846 277.555 152.846 288.098 152.846C277.555 152.846 277.555 152.846 267.012 152.846C256.469 152.846 256.469 80.42 245.926 80.42C235.383 80.42 235.383 80.42 224.84 80.42C214.298 80.42 214.298 80.42 203.755 80.42C193.212 80.42 193.212 80.42 182.669 80.42C172.126 80.42 172.126 80.42 161.583 80.42C151.04 80.42 151.04 80.42 140.498 80.42C129.955 80.42 129.955 152.846 119.412 152.846C108.869 152.846 108.869 152.846 98.3261 152.846C87.7833 152.846 87.7833 152.846 77.2404 152.846C66.6975 152.846 66.6975 80.42 56.1547 80.42Z" fill="#F7D01E"/>
<path d="M56.1547 80.42C66.6975 80.42 66.6975 152.846 77.2404 152.846C87.7833 152.846 87.7833 152.846 98.3261 152.846C108.869 152.846 108.869 152.846 119.412 152.846C129.955 152.846 129.955 80.42 140.498 80.42C151.04 80.42 151.04 80.42 161.583 80.42C172.126 80.42 172.126 80.42 182.669 80.42C193.212 80.42 193.212 80.42 203.755 80.42C214.298 80.42 214.298 80.42 224.84 80.42C235.383 80.42 235.383 80.42 245.926 80.42C256.469 80.42 256.469 152.846 267.012 152.846C277.555 152.846 277.555 152.846 288.098 152.846C277.555 152.846 277.555 152.846 267.012 152.846C256.469 152.846 256.469 80.42 245.926 80.42C235.383 80.42 235.383 80.42 224.84 80.42C214.298 80.42 214.298 80.42 203.755 80.42C193.212 80.42 193.212 80.42 182.669 80.42C172.126 80.42 172.126 80.42 161.583 80.42C151.04 80.42 151.04 80.42 140.498 80.42C129.955 80.42 129.955 152.846 119.412 152.846C108.869 152.846 108.869 152.846 98.3261 152.846C87.7833 152.846 87.7833 152.846 77.2404 152.846C66.6975 152.846 66.6975 80.42 56.1547 80.42Z" fill="#F7CF1E"/>
<path d="M56.1547 80.42C66.6975 80.42 66.6975 152.846 77.2404 152.846C87.7833 152.846 87.7833 152.846 98.3261 152.846C108.869 152.846 108.869 152.846 119.412 152.846C129.955 152.846 129.955 80.42 140.498 80.42C151.04 80.42 151.04 80.42 161.583 80.42C172.126 80.42 172.126 80.42 182.669 80.42C193.212 80.42 193.212 80.42 203.755 80.42C214.298 80.42 214.298 80.42 224.84 80.42C235.383 80.42 235.383 80.42 245.926 80.42C256.469 80.42 256.469 152.846 267.012 152.846C277.555 152.846 277.555 152.846 288.098 152.846C277.555 152.846 277.555 152.846 267.012 152.846C256.469 152.846 256.469 80.42 245.926 80.42C235.383 80.42 235.383 80.42 224.84 80.42C214.298 80.42 214.298 80.42 203.755 80.42C193.212 80.42 193.212 80.42 182.669 80.42C172.126 80.42 172.126 80.42 161.583 80.42C151.04 80.42 151.04 80.42 140.498 80.42C129.955 80.42 129.955 152.846 119.412 152.846C108.869 152.846 108.869 152.846 98.3261 152.846C87.7833 152.846 87.7833 152.846 77.2404 152.846C66.6975 152.846 66.6975 80.42 56.1547 80.42Z" fill="#F6CC1F"/>
<path d="M56.1547 80.42C66.6975 80.42 66.6975 152.846 77.2404 152.846C87.7833 152.846 87.7833 152.846 98.3261 152.846C108.869 152.846 108.869 152.846 119.412 152.846C129.955 152.846 129.955 80.42 140.498 80.42C151.04 80.42 151.04 80.42 161.583 80.42C172.126 80.42 172.126 80.42 182.669 80.42C193.212 80.42 193.212 80.42 203.755 80.42C214.298 80.42 214.298 80.42 224.84 80.42C235.383 80.42 235.383 80.42 245.926 80.42C256.469 80.42 256.469 152.846 267.012 152.846C277.555 152.846 277.555 152.846 288.098 152.846C277.555 152.846 277.555 152.846 267.012 152.846C256.469 152.846 256.469 80.42 245.926 80.42C235.383 80.42 235.383 80.42 224.84 80.42C214.298 80.42 214.298 80.42 203.755 80.42C193.212 80.42 193.212 80.42 182.669 80.42C172.126 80.42 172.126 80.42 161.583 80.42C151.04 80.42 151.04 80.42 140.498 80.42C129.955 80.42 129.955 152.846 119.412 152.846C108.869 152.846 108.869 152.846 98.3261 152.846C87.7833 152.846 87.7833 152.846 77.2404 152.846C66.6975 152.846 66.6975 80.42 56.1547 80.42Z" fill="#F6C91F"/>
<path d="M56.1547 80.42C66.6975 80.42 66.6975 152.846 77.2404 152.846C87.7833 152.846 87.7833 152.846 98.3261 152.846C108.869 152.846 108.869 152.846 119.412 152.846C129.955 152.846 129.955 80.42 140.498 80.42C151.04 80.42 151.04 80.42 161.583 80.42C172.126 80.42 172.126 80.42 182.669 80.42C193.212 80.42 193.212 80.42 203.755 80.42C214.298 80.42 214.298 80.42 224.84 80.42C235.383 80.42 235.383 80.42 245.926 80.42C256.469 80.42 256.469 152.846 267.012 152.846C277.555 152.846 277.555 152.846 288.098 152.846C277.555 152.846 277.555 152.846 267.012 152.846C256.469 152.846 256.469 80.42 245.926 80.42C235.383 80.42 235.383 80.42 224.84 80.42C214.298 80.42 214.298 80.42 203.755 80.42C193.212 80.42 193.212 80.42 182.669 80.42C172.126 80.42 172.126 80.42 161.583 80.42C151.04 80.42 151.04 80.42 140.498 80.42C129.955 80.42 129.955 152.846 119.412 152.846C108.869 152.846 108.869 152.846 98.3261 152.846C87.7833 152.846 87.7833 152.846 77.2404 152.846C66.6975 152.846 66.6975 80.42 56.1547 80.42Z" fill="#F6C61F"/>
<path d="M56.1547 80.42C66.6975 80.42 66.6975 152.846 77.2404 152.846C87.7833 152.846 87.7833 152.846 98.3261 152.846C108.869 152.846 108.869 152.846 119.412 152.846C129.955 152.846 129.955 80.42 140.498 80.42C151.04 80.42 151.04 80.42 161.583 80.42C172.126 80.42 172.126 80.42 182.669 80.42C193.212 80.42 193.212 80.42 203.755 80.42C214.298 80.42 214.298 80.42 224.84 80.42C235.383 80.42 235.383 80.42 245.926 80.42C256.469 80.42 256.469 152.846 267.012 152.846C277.555 152.846 277.555 152.846 288.098 152.846C277.555 152.846 277.555 152.846 267.012 152.846C256.469 152.846 256.469 80.42 245.926 80.42C235.383 80.42 235.383 80.42 224.84 80.42C214.298 80.42 214.298 80.42 203.755 80.42C193.212 80.42 193.212 80.42 182.669 80.42C172.126 80.42 172.126 80.42 161.583 80.42C151.04 80.42 151.04 80.42 140.498 80.42C129.955 80.42 129.955 152.846 119.412 152.846C108.869 152.846 108.869 152.846 98.3261 152.846C87.7833 152.846 87.7833 152.846 77.2404 152.846C66.6975 152.846 66.6975 80.42 56.1547 80.42Z" fill="#F6C41F"/>
<path d="M56.1547 80.42C66.6975 80.42 66.6975 152.846 77.2404 152.846C87.7833 152.846 87.7833 152.846 98.3261 152.846C108.869 152.846 108.869 152.846 119.412 152.846C129.955 152.846 129.955 80.42 140.498 80.42C151.04 80.42 151.04 80.42 161.583 80.42C172.126 80.42 172.126 80.42 182.669 80.42C193.212 80.42 193.212 80.42 203.755 80.42C214.298 80.42 214.298 80.42 224.84 80.42C235.383 80.42 235.383 80.42 245.926 80.42C256.469 80.42 256.469 152.846 267.012 152.846C277.555 152.846 277.555 152.846 288.098 152.846C277.555 152.846 277.555 152.846 267.012 152.846C256.469 152.846 256.469 80.42 245.926 80.42C235.383 80.42 235.383 80.42 224.84 80.42C214.298 80.42 214.298 80.42 203.755 80.42C193.212 80.42 193.212 80.42 182.669 80.42C172.126 80.42 172.126 80.42 161.583 80.42C151.04 80.42 151.04 80.42 140.498 80.42C129.955 80.42 129.955 152.846 119.412 152.846C108.869 152.846 108.869 152.846 98.3261 152.846C87.7833 152.846 87.7833 152.846 77.2404 152.846C66.6975 152.846 66.6975 80.42 56.1547 80.42Z" fill="#F5B920"/>
<path d="M56.1547 80.42C66.6975 80.42 66.6975 152.846 77.2404 152.846C87.7833 152.846 87.7833 152.846 98.3261 152.846C108.869 152.846 108.869 152.846 119.412 152.846C129.955 152.846 129.955 80.42 140.498 80.42C151.04 80.42 151.04 80.42 161.583 80.42C172.126 80.42 172.126 80.42 182.669 80.42C193.212 80.42 193.212 80.42 203.755 80.42C214.298 80.42 214.298 80.42 224.84 80.42C235.383 80.42 235.383 80.42 245.926 80.42C256.469 80.42 256.469 152.846 267.012 152.846C277.555 152.846 277.555 152.846 288.098 152.846C277.555 152.846 277.555 152.846 267.012 152.846C256.469 152.846 256.469 80.42 245.926 80.42C235.383 80.42 235.383 80.42 224.84 80.42C214.298 80.42 214.298 80.42 203.755 80.42C193.212 80.42 193.212 80.42 182.669 80.42C172.126 80.42 172.126 80.42 161.583 80.42C151.04 80.42 151.04 80.42 140.498 80.42C129.955 80.42 129.955 152.846 119.412 152.846C108.869 152.846 108.869 152.846 98.3261 152.846C87.7833 152.846 87.7833 152.846 77.2404 152.846C66.6975 152.846 66.6975 80.42 56.1547 80.42Z" fill="#F3B020"/>
<path d="M56.1547 80.42C66.6975 80.42 66.6975 152.846 77.2404 152.846C87.7833 152.846 87.7833 152.846 98.3261 152.846C108.869 152.846 108.869 152.846 119.412 152.846C129.955 152.846 129.955 80.42 140.498 80.42C151.04 80.42 151.04 80.42 161.583 80.42C172.126 80.42 172.126 80.42 182.669 80.42C193.212 80.42 193.212 80.42 203.755 80.42C214.298 80.42 214.298 80.42 224.84 80.42C235.383 80.42 235.383 80.42 245.926 80.42C256.469 80.42 256.469 152.846 267.012 152.846C277.555 152.846 277.555 152.846 288.098 152.846C277.555 152.846 277.555 152.846 267.012 152.846C256.469 152.846 256.469 80.42 245.926 80.42C235.383 80.42 235.383 80.42 224.84 80.42C214.298 80.42 214.298 80.42 203.755 80.42C193.212 80.42 193.212 80.42 182.669 80.42C172.126 80.42 172.126 80.42 161.583 80.42C151.04 80.42 151.04 80.42 140.498 80.42C129.955 80.42 129.955 152.846 119.412 152.846C108.869 152.846 108.869 152.846 98.3261 152.846C87.7833 152.846 87.7833 152.846 77.2404 152.846C66.6975 152.846 66.6975 80.42 56.1547 80.42Z" fill="#F4B220"/>
<path d="M56.1547 80.42C66.6975 80.42 66.6975 152.846 77.2404 152.846C87.7833 152.846 87.7833 152.846 98.3261 152.846C108.869 152.846 108.869 152.846 119.412 152.846C129.955 152.846 129.955 80.42 140.498 80.42C151.04 80.42 151.04 80.42 161.583 80.42C172.126 80.42 172.126 80.42 182.669 80.42C193.212 80.42 193.212 80.42 203.755 80.42C214.298 80.42 214.298 80.42 224.84 80.42C235.383 80.42 235.383 80.42 245.926 80.42C256.469 80.42 256.469 152.846 267.012 152.846C277.555 152.846 277.555 152.846 288.098 152.846C277.555 152.846 277.555 152.846 267.012 152.846C256.469 152.846 256.469 80.42 245.926 80.42C235.383 80.42 235.383 80.42 224.84 80.42C214.298 80.42 214.298 80.42 203.755 80.42C193.212 80.42 193.212 80.42 182.669 80.42C172.126 80.42 172.126 80.42 161.583 80.42C151.04 80.42 151.04 80.42 140.498 80.42C129.955 80.42 129.955 152.846 119.412 152.846C108.869 152.846 108.869 152.846 98.3261 152.846C87.7833 152.846 87.7833 152.846 77.2404 152.846C66.6975 152.846 66.6975 80.42 56.1547 80.42Z" fill="#F3AB20"/>
<path d="M56.1547 80.42C66.6975 80.42 66.6975 152.846 77.2404 152.846C87.7833 152.846 87.7833 152.846 98.3261 152.846C108.869 152.846 108.869 152.846 119.412 152.846C129.955 152.846 129.955 80.42 140.498 80.42C151.04 80.42 151.04 80.42 161.583 80.42C172.126 80.42 172.126 80.42 182.669 80.42C193.212 80.42 193.212 80.42 203.755 80.42C214.298 80.42 214.298 80.42 224.84 80.42C235.383 80.42 235.383 80.42 245.926 80.42C256.469 80.42 256.469 152.846 267.012 152.846C277.555 152.846 277.555 152.846 288.098 152.846C277.555 152.846 277.555 152.846 267.012 152.846C256.469 152.846 256.469 80.42 245.926 80.42C235.383 80.42 235.383 80.42 224.84 80.42C214.298 80.42 214.298 80.42 203.755 80.42C193.212 80.42 193.212 80.42 182.669 80.42C172.126 80.42 172.126 80.42 161.583 80.42C151.04 80.42 151.04 80.42 140.498 80.42C129.955 80.42 129.955 152.846 119.412 152.846C108.869 152.846 108.869 152.846 98.3261 152.846C87.7833 152.846 87.7833 152.846 77.2404 152.846C66.6975 152.846 66.6975 80.42 56.1547 80.42Z" fill="#F3AC20"/>
<path d="M56.1547 80.42C66.6975 80.42 66.6975 152.846 77.2404 152.846C87.7833 152.846 87.7833 152.846 98.3261 152.846C108.869 152.846 108.869 152.846 119.412 152.846C129.955 152.846 129.955 80.42 140.498 80.42C151.04 80.42 151.04 80.42 161.583 80.42C172.126 80.42 172.126 80.42 182.669 80.42C193.212 80.42 193.212 80.42 203.755 80.42C214.298 80.42 214.298 80.42 224.84 80.42C235.383 80.42 235.383 80.42 245.926 80.42C256.469 80.42 256.469 152.846 267.012 152.846C277.555 152.846 277.555 152.846 288.098 152.846C277.555 152.846 277.555 152.846 267.012 152.846C256.469 152.846 256.469 80.42 245.926 80.42C235.383 80.42 235.383 80.42 224.84 80.42C214.298 80.42 214.298 80.42 203.755 80.42C193.212 80.42 193.212 80.42 182.669 80.42C172.126 80.42 172.126 80.42 161.583 80.42C151.04 80.42 151.04 80.42 140.498 80.42C129.955 80.42 129.955 152.846 119.412 152.846C108.869 152.846 108.869 152.846 98.3261 152.846C87.7833 152.846 87.7833 152.846 77.2404 152.846C66.6975 152.846 66.6975 80.42 56.1547 80.42Z" fill="#F3AE20"/>
<path d="M56.1547 80.42C66.6975 80.42 66.6975 152.846 77.2404 152.846C87.7833 152.846 87.7833 152.846 98.3261 152.846C108.869 152.846 108.869 152.846 119.412 152.846C129.955 152.846 129.955 80.42 140.498 80.42C151.04 80.42 151.04 80.42 161.583 80.42C172.126 80.42 172.126 80.42 182.669 80.42C193.212 80.42 193.212 80.42 203.755 80.42C214.298 80.42 214.298 80.42 224.84 80.42C235.383 80.42 235.383 80.42 245.926 80.42C256.469 80.42 256.469 152.846 267.012 152.846C277.555 152.846 277.555 152.846 288.098 152.846C277.555 152.846 277.555 152.846 267.012 152.846C256.469 152.846 256.469 80.42 245.926 80.42C235.383 80.42 235.383 80.42 224.84 80.42C214.298 80.42 214.298 80.42 203.755 80.42C193.212 80.42 193.212 80.42 182.669 80.42C172.126 80.42 172.126 80.42 161.583 80.42C151.04 80.42 151.04 80.42 140.498 80.42C129.955 80.42 129.955 152.846 119.412 152.846C108.869 152.846 108.869 152.846 98.3261 152.846C87.7833 152.846 87.7833 152.846 77.2404 152.846C66.6975 152.846 66.6975 80.42 56.1547 80.42Z" fill="#F4B420"/>
<path d="M56.1547 80.42C66.6975 80.42 66.6975 152.846 77.2404 152.846C87.7833 152.846 87.7833 152.846 98.3261 152.846C108.869 152.846 108.869 152.846 119.412 152.846C129.955 152.846 129.955 80.42 140.498 80.42C151.04 80.42 151.04 80.42 161.583 80.42C172.126 80.42 172.126 80.42 182.669 80.42C193.212 80.42 193.212 80.42 203.755 80.42C214.298 80.42 214.298 80.42 224.84 80.42C235.383 80.42 235.383 80.42 245.926 80.42C256.469 80.42 256.469 152.846 267.012 152.846C277.555 152.846 277.555 152.846 288.098 152.846C277.555 152.846 277.555 152.846 267.012 152.846C256.469 152.846 256.469 80.42 245.926 80.42C235.383 80.42 235.383 80.42 224.84 80.42C214.298 80.42 214.298 80.42 203.755 80.42C193.212 80.42 193.212 80.42 182.669 80.42C172.126 80.42 172.126 80.42 161.583 80.42C151.04 80.42 151.04 80.42 140.498 80.42C129.955 80.42 129.955 152.846 119.412 152.846C108.869 152.846 108.869 152.846 98.3261 152.846C87.7833 152.846 87.7833 152.846 77.2404 152.846C66.6975 152.846 66.6975 80.42 56.1547 80.42Z" fill="#F2A720"/>
<path d="M56.1547 80.42C66.6975 80.42 66.6975 152.846 77.2404 152.846C87.7833 152.846 87.7833 152.846 98.3261 152.846C108.869 152.846 108.869 152.846 119.412 152.846C129.955 152.846 129.955 80.42 140.498 80.42C151.04 80.42 151.04 80.42 161.583 80.42C172.126 80.42 172.126 80.42 182.669 80.42C193.212 80.42 193.212 80.42 203.755 80.42C214.298 80.42 214.298 80.42 224.84 80.42C235.383 80.42 235.383 80.42 245.926 80.42C256.469 80.42 256.469 152.846 267.012 152.846C277.555 152.846 277.555 152.846 288.098 152.846C277.555 152.846 277.555 152.846 267.012 152.846C256.469 152.846 256.469 80.42 245.926 80.42C235.383 80.42 235.383 80.42 224.84 80.42C214.298 80.42 214.298 80.42 203.755 80.42C193.212 80.42 193.212 80.42 182.669 80.42C172.126 80.42 172.126 80.42 161.583 80.42C151.04 80.42 151.04 80.42 140.498 80.42C129.955 80.42 129.955 152.846 119.412 152.846C108.869 152.846 108.869 152.846 98.3261 152.846C87.7833 152.846 87.7833 152.846 77.2404 152.846C66.6975 152.846 66.6975 80.42 56.1547 80.42Z" fill="#F19E20"/>
<path d="M56.1547 80.42C66.6975 80.42 66.6975 152.846 77.2404 152.846C87.7833 152.846 87.7833 152.846 98.3261 152.846C108.869 152.846 108.869 152.846 119.412 152.846C129.955 152.846 129.955 80.42 140.498 80.42C151.04 80.42 151.04 80.42 161.583 80.42C172.126 80.42 172.126 80.42 182.669 80.42C193.212 80.42 193.212 80.42 203.755 80.42C214.298 80.42 214.298 80.42 224.84 80.42C235.383 80.42 235.383 80.42 245.926 80.42C256.469 80.42 256.469 152.846 267.012 152.846C277.555 152.846 277.555 152.846 288.098 152.846C277.555 152.846 277.555 152.846 267.012 152.846C256.469 152.846 256.469 80.42 245.926 80.42C235.383 80.42 235.383 80.42 224.84 80.42C214.298 80.42 214.298 80.42 203.755 80.42C193.212 80.42 193.212 80.42 182.669 80.42C172.126 80.42 172.126 80.42 161.583 80.42C151.04 80.42 151.04 80.42 140.498 80.42C129.955 80.42 129.955 152.846 119.412 152.846C108.869 152.846 108.869 152.846 98.3261 152.846C87.7833 152.846 87.7833 152.846 77.2404 152.846C66.6975 152.846 66.6975 80.42 56.1547 80.42Z" fill="#F1A020"/>
<path d="M56.1547 80.42C66.6975 80.42 66.6975 152.846 77.2404 152.846C87.7833 152.846 87.7833 152.846 98.3261 152.846C108.869 152.846 108.869 152.846 119.412 152.846C129.955 152.846 129.955 80.42 140.498 80.42C151.04 80.42 151.04 80.42 161.583 80.42C172.126 80.42 172.126 80.42 182.669 80.42C193.212 80.42 193.212 80.42 203.755 80.42C214.298 80.42 214.298 80.42 224.84 80.42C235.383 80.42 235.383 80.42 245.926 80.42C256.469 80.42 256.469 152.846 267.012 152.846C277.555 152.846 277.555 152.846 288.098 152.846C277.555 152.846 277.555 152.846 267.012 152.846C256.469 152.846 256.469 80.42 245.926 80.42C235.383 80.42 235.383 80.42 224.84 80.42C214.298 80.42 214.298 80.42 203.755 80.42C193.212 80.42 193.212 80.42 182.669 80.42C172.126 80.42 172.126 80.42 161.583 80.42C151.04 80.42 151.04 80.42 140.498 80.42C129.955 80.42 129.955 152.846 119.412 152.846C108.869 152.846 108.869 152.846 98.3261 152.846C87.7833 152.846 87.7833 152.846 77.2404 152.846C66.6975 152.846 66.6975 80.42 56.1547 80.42Z" fill="#EC8520"/>
<path d="M56.1547 80.42C66.6975 80.42 66.6975 152.846 77.2404 152.846C87.7833 152.846 87.7833 152.846 98.3261 152.846C108.869 152.846 108.869 152.846 119.412 152.846C129.955 152.846 129.955 80.42 140.498 80.42C151.04 80.42 151.04 80.42 161.583 80.42C172.126 80.42 172.126 80.42 182.669 80.42C193.212 80.42 193.212 80.42 203.755 80.42C214.298 80.42 214.298 80.42 224.84 80.42C235.383 80.42 235.383 80.42 245.926 80.42C256.469 80.42 256.469 152.846 267.012 152.846C277.555 152.846 277.555 152.846 288.098 152.846C277.555 152.846 277.555 152.846 267.012 152.846C256.469 152.846 256.469 80.42 245.926 80.42C235.383 80.42 235.383 80.42 224.84 80.42C214.298 80.42 214.298 80.42 203.755 80.42C193.212 80.42 193.212 80.42 182.669 80.42C172.126 80.42 172.126 80.42 161.583 80.42C151.04 80.42 151.04 80.42 140.498 80.42C129.955 80.42 129.955 152.846 119.412 152.846C108.869 152.846 108.869 152.846 98.3261 152.846C87.7833 152.846 87.7833 152.846 77.2404 152.846C66.6975 152.846 66.6975 80.42 56.1547 80.42Z" fill="#EE8C20"/>
<path d="M56.1547 80.42C66.6975 80.42 66.6975 152.846 77.2404 152.846C87.7833 152.846 87.7833 152.846 98.3261 152.846C108.869 152.846 108.869 152.846 119.412 152.846C129.955 152.846 129.955 80.42 140.498 80.42C151.04 80.42 151.04 80.42 161.583 80.42C172.126 80.42 172.126 80.42 182.669 80.42C193.212 80.42 193.212 80.42 203.755 80.42C214.298 80.42 214.298 80.42 224.84 80.42C235.383 80.42 235.383 80.42 245.926 80.42C256.469 80.42 256.469 152.846 267.012 152.846C277.555 152.846 277.555 152.846 288.098 152.846C277.555 152.846 277.555 152.846 267.012 152.846C256.469 152.846 256.469 80.42 245.926 80.42C235.383 80.42 235.383 80.42 224.84 80.42C214.298 80.42 214.298 80.42 203.755 80.42C193.212 80.42 193.212 80.42 182.669 80.42C172.126 80.42 172.126 80.42 161.583 80.42C151.04 80.42 151.04 80.42 140.498 80.42C129.955 80.42 129.955 152.846 119.412 152.846C108.869 152.846 108.869 152.846 98.3261 152.846C87.7833 152.846 87.7833 152.846 77.2404 152.846C66.6975 152.846 66.6975 80.42 56.1547 80.42Z" fill="#E6641F"/>
<path d="M56.1547 80.42C66.6975 80.42 66.6975 152.846 77.2404 152.846C87.7833 152.846 87.7833 152.846 98.3261 152.846C108.869 152.846 108.869 152.846 119.412 152.846C129.955 152.846 129.955 80.42 140.498 80.42C151.04 80.42 151.04 80.42 161.583 80.42C172.126 80.42 172.126 80.42 182.669 80.42C193.212 80.42 193.212 80.42 203.755 80.42C214.298 80.42 214.298 80.42 224.84 80.42C235.383 80.42 235.383 80.42 245.926 80.42C256.469 80.42 256.469 152.846 267.012 152.846C277.555 152.846 277.555 152.846 288.098 152.846C277.555 152.846 277.555 152.846 267.012 152.846C256.469 152.846 256.469 80.42 245.926 80.42C235.383 80.42 235.383 80.42 224.84 80.42C214.298 80.42 214.298 80.42 203.755 80.42C193.212 80.42 193.212 80.42 182.669 80.42C172.126 80.42 172.126 80.42 161.583 80.42C151.04 80.42 151.04 80.42 140.498 80.42C129.955 80.42 129.955 152.846 119.412 152.846C108.869 152.846 108.869 152.846 98.3261 152.846C87.7833 152.846 87.7833 152.846 77.2404 152.846C66.6975 152.846 66.6975 80.42 56.1547 80.42Z" fill="#E0491E"/>
<path d="M56.1547 80.42C66.6975 80.42 66.6975 152.846 77.2404 152.846C87.7833 152.846 87.7833 152.846 98.3261 152.846C108.869 152.846 108.869 152.846 119.412 152.846C129.955 152.846 129.955 80.42 140.498 80.42C151.04 80.42 151.04 80.42 161.583 80.42C172.126 80.42 172.126 80.42 182.669 80.42C193.212 80.42 193.212 80.42 203.755 80.42C214.298 80.42 214.298 80.42 224.84 80.42C235.383 80.42 235.383 80.42 245.926 80.42C256.469 80.42 256.469 152.846 267.012 152.846C277.555 152.846 277.555 152.846 288.098 152.846C277.555 152.846 277.555 152.846 267.012 152.846C256.469 152.846 256.469 80.42 245.926 80.42C235.383 80.42 235.383 80.42 224.84 80.42C214.298 80.42 214.298 80.42 203.755 80.42C193.212 80.42 193.212 80.42 182.669 80.42C172.126 80.42 172.126 80.42 161.583 80.42C151.04 80.42 151.04 80.42 140.498 80.42C129.955 80.42 129.955 152.846 119.412 152.846C108.869 152.846 108.869 152.846 98.3261 152.846C87.7833 152.846 87.7833 152.846 77.2404 152.846C66.6975 152.846 66.6975 80.42 56.1547 80.42Z" fill="#E04C1E"/>
<path d="M56.1547 80.42C66.6975 80.42 66.6975 152.846 77.2404 152.846C87.7833 152.846 87.7833 152.846 98.3261 152.846C108.869 152.846 108.869 152.846 119.412 152.846C129.955 152.846 129.955 80.42 140.498 80.42C151.04 80.42 151.04 80.42 161.583 80.42C172.126 80.42 172.126 80.42 182.669 80.42C193.212 80.42 193.212 80.42 203.755 80.42C214.298 80.42 214.298 80.42 224.84 80.42C235.383 80.42 235.383 80.42 245.926 80.42C256.469 80.42 256.469 152.846 267.012 152.846C277.555 152.846 277.555 152.846 288.098 152.846C277.555 152.846 277.555 152.846 267.012 152.846C256.469 152.846 256.469 80.42 245.926 80.42C235.383 80.42 235.383 80.42 224.84 80.42C214.298 80.42 214.298 80.42 203.755 80.42C193.212 80.42 193.212 80.42 182.669 80.42C172.126 80.42 172.126 80.42 161.583 80.42C151.04 80.42 151.04 80.42 140.498 80.42C129.955 80.42 129.955 152.846 119.412 152.846C108.869 152.846 108.869 152.846 98.3261 152.846C87.7833 152.846 87.7833 152.846 77.2404 152.846C66.6975 152.846 66.6975 80.42 56.1547 80.42Z" fill="#D0021B"/>
<path d="M56.1547 80.42C66.6975 80.42 66.6975 152.846 77.2404 152.846C87.7833 152.846 87.7833 152.846 98.3261 152.846C108.869 152.846 108.869 152.846 119.412 152.846C129.955 152.846 129.955 80.42 140.498 80.42C151.04 80.42 151.04 80.42 161.583 80.42C172.126 80.42 172.126 80.42 182.669 80.42C193.212 80.42 193.212 80.42 203.755 80.42C214.298 80.42 214.298 80.42 224.84 80.42C235.383 80.42 235.383 80.42 245.926 80.42C256.469 80.42 256.469 152.846 267.012 152.846C277.555 152.846 277.555 152.846 288.098 152.846C277.555 152.846 277.555 152.846 267.012 152.846C256.469 152.846 256.469 80.42 245.926 80.42C235.383 80.42 235.383 80.42 224.84 80.42C214.298 80.42 214.298 80.42 203.755 80.42C193.212 80.42 193.212 80.42 182.669 80.42C172.126 80.42 172.126 80.42 161.583 80.42C151.04 80.42 151.04 80.42 140.498 80.42C129.955 80.42 129.955 152.846 119.412 152.846C108.869 152.846 108.869 152.846 98.3261 152.846C87.7833 152.846 87.7833 152.846 77.2404 152.846C66.6975 152.846 66.6975 80.42 56.1547 80.42Z" fill="#D5191C"/>
<path d="M56.1547 80.42C66.6975 80.42 66.6975 152.846 77.2404 152.846C87.7833 152.846 87.7833 152.846 98.3261 152.846C108.869 152.846 108.869 152.846 119.412 152.846C129.955 152.846 129.955 80.42 140.498 80.42C151.04 80.42 151.04 80.42 161.583 80.42C172.126 80.42 172.126 80.42 182.669 80.42C193.212 80.42 193.212 80.42 203.755 80.42C214.298 80.42 214.298 80.42 224.84 80.42C235.383 80.42 235.383 80.42 245.926 80.42C256.469 80.42 256.469 152.846 267.012 152.846C277.555 152.846 277.555 152.846 288.098 152.846C277.555 152.846 277.555 152.846 267.012 152.846C256.469 152.846 256.469 80.42 245.926 80.42C235.383 80.42 235.383 80.42 224.84 80.42C214.298 80.42 214.298 80.42 203.755 80.42C193.212 80.42 193.212 80.42 182.669 80.42C172.126 80.42 172.126 80.42 161.583 80.42C151.04 80.42 151.04 80.42 140.498 80.42C129.955 80.42 129.955 152.846 119.412 152.846C108.869 152.846 108.869 152.846 98.3261 152.846C87.7833 152.846 87.7833 152.846 77.2404 152.846C66.6975 152.846 66.6975 80.42 56.1547 80.42Z" fill="#E2521F"/>
<path d="M56.1547 80.42C66.6975 80.42 66.6975 152.846 77.2404 152.846C87.7833 152.846 87.7833 152.846 98.3261 152.846C108.869 152.846 108.869 152.846 119.412 152.846C129.955 152.846 129.955 80.42 140.498 80.42C151.04 80.42 151.04 80.42 161.583 80.42C172.126 80.42 172.126 80.42 182.669 80.42C193.212 80.42 193.212 80.42 203.755 80.42C214.298 80.42 214.298 80.42 224.84 80.42C235.383 80.42 235.383 80.42 245.926 80.42C256.469 80.42 256.469 152.846 267.012 152.846C277.555 152.846 277.555 152.846 288.098 152.846C277.555 152.846 277.555 152.846 267.012 152.846C256.469 152.846 256.469 80.42 245.926 80.42C235.383 80.42 235.383 80.42 224.84 80.42C214.298 80.42 214.298 80.42 203.755 80.42C193.212 80.42 193.212 80.42 182.669 80.42C172.126 80.42 172.126 80.42 161.583 80.42C151.04 80.42 151.04 80.42 140.498 80.42C129.955 80.42 129.955 152.846 119.412 152.846C108.869 152.846 108.869 152.846 98.3261 152.846C87.7833 152.846 87.7833 152.846 77.2404 152.846C66.6975 152.846 66.6975 80.42 56.1547 80.42Z" fill="#E6671F"/>
<path d="M56.1547 80.42C66.6975 80.42 66.6975 152.846 77.2404 152.846C87.7833 152.846 87.7833 152.846 98.3261 152.846C108.869 152.846 108.869 152.846 119.412 152.846C129.955 152.846 129.955 80.42 140.498 80.42C151.04 80.42 151.04 80.42 161.583 80.42C172.126 80.42 172.126 80.42 182.669 80.42C193.212 80.42 193.212 80.42 203.755 80.42C214.298 80.42 214.298 80.42 224.84 80.42C235.383 80.42 235.383 80.42 245.926 80.42C256.469 80.42 256.469 152.846 267.012 152.846C277.555 152.846 277.555 152.846 288.098 152.846C277.555 152.846 277.555 152.846 267.012 152.846C256.469 152.846 256.469 80.42 245.926 80.42C235.383 80.42 235.383 80.42 224.84 80.42C214.298 80.42 214.298 80.42 203.755 80.42C193.212 80.42 193.212 80.42 182.669 80.42C172.126 80.42 172.126 80.42 161.583 80.42C151.04 80.42 151.04 80.42 140.498 80.42C129.955 80.42 129.955 152.846 119.412 152.846C108.869 152.846 108.869 152.846 98.3261 152.846C87.7833 152.846 87.7833 152.846 77.2404 152.846C66.6975 152.846 66.6975 80.42 56.1547 80.42Z" fill="#F09821"/>
<path d="M56.1547 80.42C66.6975 80.42 66.6975 152.846 77.2404 152.846C87.7833 152.846 87.7833 152.846 98.3261 152.846C108.869 152.846 108.869 152.846 119.412 152.846C129.955 152.846 129.955 80.42 140.498 80.42C151.04 80.42 151.04 80.42 161.583 80.42C172.126 80.42 172.126 80.42 182.669 80.42C193.212 80.42 193.212 80.42 203.755 80.42C214.298 80.42 214.298 80.42 224.84 80.42C235.383 80.42 235.383 80.42 245.926 80.42C256.469 80.42 256.469 152.846 267.012 152.846C277.555 152.846 277.555 152.846 288.098 152.846C277.555 152.846 277.555 152.846 267.012 152.846C256.469 152.846 256.469 80.42 245.926 80.42C235.383 80.42 235.383 80.42 224.84 80.42C214.298 80.42 214.298 80.42 203.755 80.42C193.212 80.42 193.212 80.42 182.669 80.42C172.126 80.42 172.126 80.42 161.583 80.42C151.04 80.42 151.04 80.42 140.498 80.42C129.955 80.42 129.955 152.846 119.412 152.846C108.869 152.846 108.869 152.846 98.3261 152.846C87.7833 152.846 87.7833 152.846 77.2404 152.846C66.6975 152.846 66.6975 80.42 56.1547 80.42Z" fill="#E97520"/>
<path d="M56.1547 80.42C66.6975 80.42 66.6975 152.846 77.2404 152.846C87.7833 152.846 87.7833 152.846 98.3261 152.846C108.869 152.846 108.869 152.846 119.412 152.846C129.955 152.846 129.955 80.42 140.498 80.42C151.04 80.42 151.04 80.42 161.583 80.42C172.126 80.42 172.126 80.42 182.669 80.42C193.212 80.42 193.212 80.42 203.755 80.42C214.298 80.42 214.298 80.42 224.84 80.42C235.383 80.42 235.383 80.42 245.926 80.42C256.469 80.42 256.469 152.846 267.012 152.846C277.555 152.846 277.555 152.846 288.098 152.846C277.555 152.846 277.555 152.846 267.012 152.846C256.469 152.846 256.469 80.42 245.926 80.42C235.383 80.42 235.383 80.42 224.84 80.42C214.298 80.42 214.298 80.42 203.755 80.42C193.212 80.42 193.212 80.42 182.669 80.42C172.126 80.42 172.126 80.42 161.583 80.42C151.04 80.42 151.04 80.42 140.498 80.42C129.955 80.42 129.955 152.846 119.412 152.846C108.869 152.846 108.869 152.846 98.3261 152.846C87.7833 152.846 87.7833 152.846 77.2404 152.846C66.6975 152.846 66.6975 80.42 56.1547 80.42Z" fill="#E45E1F"/>
<path d="M56.1547 80.42C66.6975 80.42 66.6975 152.846 77.2404 152.846C87.7833 152.846 87.7833 152.846 98.3261 152.846C108.869 152.846 108.869 152.846 119.412 152.846C129.955 152.846 129.955 80.42 140.498 80.42C151.04 80.42 151.04 80.42 161.583 80.42C172.126 80.42 172.126 80.42 182.669 80.42C193.212 80.42 193.212 80.42 203.755 80.42C214.298 80.42 214.298 80.42 224.84 80.42C235.383 80.42 235.383 80.42 245.926 80.42C256.469 80.42 256.469 152.846 267.012 152.846C277.555 152.846 277.555 152.846 288.098 152.846C277.555 152.846 277.555 152.846 267.012 152.846C256.469 152.846 256.469 80.42 245.926 80.42C235.383 80.42 235.383 80.42 224.84 80.42C214.298 80.42 214.298 80.42 203.755 80.42C193.212 80.42 193.212 80.42 182.669 80.42C172.126 80.42 172.126 80.42 161.583 80.42C151.04 80.42 151.04 80.42 140.498 80.42C129.955 80.42 129.955 152.846 119.412 152.846C108.869 152.846 108.869 152.846 98.3261 152.846C87.7833 152.846 87.7833 152.846 77.2404 152.846C66.6975 152.846 66.6975 80.42 56.1547 80.42Z" fill="#E2551F"/>
<path d="M56.1547 80.42C66.6975 80.42 66.6975 152.846 77.2404 152.846C87.7833 152.846 87.7833 152.846 98.3261 152.846C108.869 152.846 108.869 152.846 119.412 152.846C129.955 152.846 129.955 80.42 140.498 80.42C151.04 80.42 151.04 80.42 161.583 80.42C172.126 80.42 172.126 80.42 182.669 80.42C193.212 80.42 193.212 80.42 203.755 80.42C214.298 80.42 214.298 80.42 224.84 80.42C235.383 80.42 235.383 80.42 245.926 80.42C256.469 80.42 256.469 152.846 267.012 152.846C277.555 152.846 277.555 152.846 288.098 152.846C277.555 152.846 277.555 152.846 267.012 152.846C256.469 152.846 256.469 80.42 245.926 80.42C235.383 80.42 235.383 80.42 224.84 80.42C214.298 80.42 214.298 80.42 203.755 80.42C193.212 80.42 193.212 80.42 182.669 80.42C172.126 80.42 172.126 80.42 161.583 80.42C151.04 80.42 151.04 80.42 140.498 80.42C129.955 80.42 129.955 152.846 119.412 152.846C108.869 152.846 108.869 152.846 98.3261 152.846C87.7833 152.846 87.7833 152.846 77.2404 152.846C66.6975 152.846 66.6975 80.42 56.1547 80.42Z" fill="#EF9120"/>
<path d="M56.1547 80.42C66.6975 80.42 66.6975 152.846 77.2404 152.846C87.7833 152.846 87.7833 152.846 98.3261 152.846C108.869 152.846 108.869 152.846 119.412 152.846C129.955 152.846 129.955 80.42 140.498 80.42C151.04 80.42 151.04 80.42 161.583 80.42C172.126 80.42 172.126 80.42 182.669 80.42C193.212 80.42 193.212 80.42 203.755 80.42C214.298 80.42 214.298 80.42 224.84 80.42C235.383 80.42 235.383 80.42 245.926 80.42C256.469 80.42 256.469 152.846 267.012 152.846C277.555 152.846 277.555 152.846 288.098 152.846C277.555 152.846 277.555 152.846 267.012 152.846C256.469 152.846 256.469 80.42 245.926 80.42C235.383 80.42 235.383 80.42 224.84 80.42C214.298 80.42 214.298 80.42 203.755 80.42C193.212 80.42 193.212 80.42 182.669 80.42C172.126 80.42 172.126 80.42 161.583 80.42C151.04 80.42 151.04 80.42 140.498 80.42C129.955 80.42 129.955 152.846 119.412 152.846C108.869 152.846 108.869 152.846 98.3261 152.846C87.7833 152.846 87.7833 152.846 77.2404 152.846C66.6975 152.846 66.6975 80.42 56.1547 80.42Z" fill="#F09C21"/>
<path d="M56.1547 80.42C66.6975 80.42 66.6975 152.846 77.2404 152.846C87.7833 152.846 87.7833 152.846 98.3261 152.846C108.869 152.846 108.869 152.846 119.412 152.846C129.955 152.846 129.955 80.42 140.498 80.42C151.04 80.42 151.04 80.42 161.583 80.42C172.126 80.42 172.126 80.42 182.669 80.42C193.212 80.42 193.212 80.42 203.755 80.42C214.298 80.42 214.298 80.42 224.84 80.42C235.383 80.42 235.383 80.42 245.926 80.42C256.469 80.42 256.469 152.846 267.012 152.846C277.555 152.846 277.555 152.846 288.098 152.846C277.555 152.846 277.555 152.846 267.012 152.846C256.469 152.846 256.469 80.42 245.926 80.42C235.383 80.42 235.383 80.42 224.84 80.42C214.298 80.42 214.298 80.42 203.755 80.42C193.212 80.42 193.212 80.42 182.669 80.42C172.126 80.42 172.126 80.42 161.583 80.42C151.04 80.42 151.04 80.42 140.498 80.42C129.955 80.42 129.955 152.846 119.412 152.846C108.869 152.846 108.869 152.846 98.3261 152.846C87.7833 152.846 87.7833 152.846 77.2404 152.846C66.6975 152.846 66.6975 80.42 56.1547 80.42Z" fill="#F2A920"/>
<path d="M56.1547 80.42C66.6975 80.42 66.6975 152.846 77.2404 152.846C87.7833 152.846 87.7833 152.846 98.3261 152.846C108.869 152.846 108.869 152.846 119.412 152.846C129.955 152.846 129.955 80.42 140.498 80.42C151.04 80.42 151.04 80.42 161.583 80.42C172.126 80.42 172.126 80.42 182.669 80.42C193.212 80.42 193.212 80.42 203.755 80.42C214.298 80.42 214.298 80.42 224.84 80.42C235.383 80.42 235.383 80.42 245.926 80.42C256.469 80.42 256.469 152.846 267.012 152.846C277.555 152.846 277.555 152.846 288.098 152.846C277.555 152.846 277.555 152.846 267.012 152.846C256.469 152.846 256.469 80.42 245.926 80.42C235.383 80.42 235.383 80.42 224.84 80.42C214.298 80.42 214.298 80.42 203.755 80.42C193.212 80.42 193.212 80.42 182.669 80.42C172.126 80.42 172.126 80.42 161.583 80.42C151.04 80.42 151.04 80.42 140.498 80.42C129.955 80.42 129.955 152.846 119.412 152.846C108.869 152.846 108.869 152.846 98.3261 152.846C87.7833 152.846 87.7833 152.846 77.2404 152.846C66.6975 152.846 66.6975 80.42 56.1547 80.42Z" fill="#F4B720"/>
<path d="M56.1547 80.42C66.6975 80.42 66.6975 152.846 77.2404 152.846C87.7833 152.846 87.7833 152.846 98.3261 152.846C108.869 152.846 108.869 152.846 119.412 152.846C129.955 152.846 129.955 80.42 140.498 80.42C151.04 80.42 151.04 80.42 161.583 80.42C172.126 80.42 172.126 80.42 182.669 80.42C193.212 80.42 193.212 80.42 203.755 80.42C214.298 80.42 214.298 80.42 224.84 80.42C235.383 80.42 235.383 80.42 245.926 80.42C256.469 80.42 256.469 152.846 267.012 152.846C277.555 152.846 277.555 152.846 288.098 152.846C277.555 152.846 277.555 152.846 267.012 152.846C256.469 152.846 256.469 80.42 245.926 80.42C235.383 80.42 235.383 80.42 224.84 80.42C214.298 80.42 214.298 80.42 203.755 80.42C193.212 80.42 193.212 80.42 182.669 80.42C172.126 80.42 172.126 80.42 161.583 80.42C151.04 80.42 151.04 80.42 140.498 80.42C129.955 80.42 129.955 152.846 119.412 152.846C108.869 152.846 108.869 152.846 98.3261 152.846C87.7833 152.846 87.7833 152.846 77.2404 152.846C66.6975 152.846 66.6975 80.42 56.1547 80.42Z" fill="#F2A520"/>
<path d="M56.1545 152.846H288.098" stroke="black"/>
<path d="M56.1545 152.846V159.467" stroke="black"/>
<path d="M57.1401 162.305V169.578H56.2594V163.228H56.2168L54.4412 164.407V163.513L56.2594 162.305H57.1401Z" fill="black"/>
<path d="M77.2404 152.846V159.467" stroke="black"/>
<path d="M74.9659 169.578V168.939L77.3665 166.311C77.6482 166.003 77.8802 165.736 78.0625 165.508C78.2448 165.279 78.3797 165.063 78.4673 164.862C78.5573 164.658 78.6023 164.445 78.6023 164.223C78.6023 163.967 78.5407 163.746 78.4176 163.559C78.2969 163.372 78.1312 163.227 77.9205 163.125C77.7098 163.024 77.473 162.973 77.2102 162.973C76.9309 162.973 76.687 163.031 76.4787 163.147C76.2727 163.26 76.1129 163.42 75.9993 163.626C75.888 163.832 75.8324 164.074 75.8324 164.351H74.9943C74.9943 163.925 75.0926 163.55 75.2891 163.228C75.4856 162.907 75.7531 162.656 76.0916 162.476C76.4325 162.296 76.8149 162.206 77.2386 162.206C77.6648 162.206 78.0424 162.296 78.3714 162.476C78.7005 162.656 78.9586 162.898 79.1456 163.204C79.3326 163.509 79.4261 163.849 79.4261 164.223C79.4261 164.49 79.3776 164.752 79.2805 165.008C79.1858 165.261 79.0201 165.544 78.7834 165.856C78.549 166.166 78.2235 166.545 77.8068 166.993L76.1733 168.74V168.797H79.554V169.578H74.9659Z" fill="black"/>
<path d="M98.326 152.846V159.467" stroke="black"/>
<path d="M98.3527 169.677C97.884 169.677 97.4661 169.597 97.0992 169.436C96.7346 169.275 96.4446 169.051 96.2292 168.765C96.0161 168.476 95.9001 168.141 95.8811 167.76H96.776C96.795 167.994 96.8755 168.197 97.0175 168.367C97.1596 168.535 97.3454 168.665 97.575 168.758C97.8047 168.85 98.0592 168.896 98.3385 168.896C98.651 168.896 98.928 168.842 99.1695 168.733C99.411 168.624 99.6004 168.472 99.7377 168.278C99.875 168.084 99.9436 167.859 99.9436 167.603C99.9436 167.336 99.8774 167.1 99.7448 166.897C99.6122 166.691 99.4181 166.53 99.1624 166.414C98.9067 166.298 98.5942 166.24 98.2249 166.24H97.6425V165.459H98.2249C98.5137 165.459 98.767 165.407 98.9848 165.302C99.205 165.198 99.3766 165.051 99.4998 164.862C99.6252 164.673 99.688 164.45 99.688 164.194C99.688 163.948 99.6335 163.734 99.5246 163.552C99.4157 163.369 99.2618 163.227 99.063 163.125C98.8665 163.024 98.6345 162.973 98.3669 162.973C98.116 162.973 97.8793 163.019 97.6567 163.111C97.4365 163.201 97.2566 163.333 97.1169 163.505C96.9773 163.676 96.9015 163.882 96.8897 164.123H96.0374C96.0516 163.742 96.1664 163.408 96.3819 163.122C96.5973 162.833 96.879 162.608 97.227 162.447C97.5774 162.286 97.9621 162.206 98.3811 162.206C98.831 162.206 99.2168 162.297 99.5388 162.479C99.8608 162.659 100.108 162.897 100.281 163.193C100.454 163.489 100.54 163.808 100.54 164.152C100.54 164.561 100.433 164.911 100.217 165.199C100.004 165.488 99.714 165.688 99.3471 165.8V165.856C99.8063 165.932 100.165 166.127 100.423 166.442C100.681 166.755 100.81 167.142 100.81 167.603C100.81 167.999 100.702 168.354 100.487 168.669C100.274 168.981 99.9827 169.228 99.6134 169.407C99.2441 169.587 98.8239 169.677 98.3527 169.677Z" fill="black"/>
<path d="M119.412 152.846V159.467" stroke="black"/>
<path d="M116.786 168.086V167.362L119.982 162.305H120.508V163.427H120.153L117.738 167.248V167.305H122.042V168.086H116.786ZM120.209 169.578V167.866V167.529V162.305H121.048V169.578H120.209Z" fill="black"/>
<path d="M140.498 152.846V159.467" stroke="black"/>
<path d="M140.481 169.677C140.065 169.677 139.689 169.594 139.355 169.429C139.022 169.263 138.754 169.036 138.553 168.747C138.352 168.458 138.242 168.129 138.223 167.76H139.075C139.108 168.089 139.257 168.361 139.522 168.576C139.79 168.79 140.11 168.896 140.481 168.896C140.779 168.896 141.045 168.826 141.277 168.687C141.511 168.547 141.694 168.355 141.827 168.111C141.962 167.865 142.029 167.587 142.029 167.277C142.029 166.96 141.96 166.677 141.82 166.428C141.683 166.177 141.493 165.979 141.252 165.835C141.01 165.691 140.735 165.617 140.424 165.615C140.202 165.612 139.973 165.647 139.739 165.718C139.505 165.786 139.312 165.875 139.16 165.984L138.336 165.885L138.777 162.305H142.555V163.086H139.515L139.26 165.231H139.302C139.451 165.113 139.638 165.015 139.863 164.937C140.088 164.858 140.323 164.819 140.566 164.819C141.011 164.819 141.408 164.926 141.756 165.139C142.106 165.35 142.381 165.639 142.58 166.005C142.781 166.372 142.882 166.791 142.882 167.263C142.882 167.727 142.778 168.141 142.569 168.505C142.363 168.868 142.079 169.154 141.717 169.365C141.355 169.573 140.943 169.677 140.481 169.677Z" fill="black"/>
<path d="M161.583 152.846V159.467" stroke="black"/>
<path d="M161.631 169.677C161.333 169.673 161.034 169.616 160.736 169.507C160.438 169.398 160.165 169.215 159.919 168.956C159.673 168.696 159.475 168.344 159.326 167.902C159.177 167.457 159.102 166.898 159.102 166.226C159.102 165.582 159.163 165.011 159.283 164.514C159.404 164.014 159.579 163.594 159.809 163.253C160.039 162.91 160.316 162.65 160.64 162.472C160.967 162.295 161.335 162.206 161.744 162.206C162.152 162.206 162.514 162.287 162.831 162.451C163.151 162.612 163.411 162.837 163.612 163.125C163.814 163.414 163.944 163.747 164.003 164.123H163.136C163.056 163.797 162.9 163.526 162.668 163.31C162.436 163.095 162.128 162.987 161.744 162.987C161.181 162.987 160.737 163.232 160.413 163.722C160.091 164.212 159.929 164.9 159.926 165.785H159.983C160.116 165.584 160.273 165.412 160.455 165.27C160.64 165.126 160.844 165.015 161.066 164.937C161.289 164.858 161.524 164.819 161.773 164.819C162.19 164.819 162.571 164.924 162.916 165.132C163.262 165.338 163.539 165.623 163.747 165.988C163.956 166.35 164.06 166.765 164.06 167.234C164.06 167.684 163.959 168.096 163.758 168.47C163.557 168.842 163.274 169.138 162.909 169.358C162.547 169.576 162.121 169.682 161.631 169.677ZM161.631 168.896C161.929 168.896 162.197 168.822 162.433 168.672C162.672 168.523 162.861 168.323 162.998 168.072C163.138 167.821 163.208 167.542 163.208 167.234C163.208 166.933 163.14 166.66 163.005 166.414C162.873 166.165 162.689 165.968 162.455 165.821C162.223 165.674 161.958 165.601 161.659 165.601C161.434 165.601 161.225 165.646 161.031 165.736C160.837 165.823 160.666 165.944 160.519 166.098C160.375 166.252 160.261 166.428 160.178 166.627C160.096 166.823 160.054 167.031 160.054 167.248C160.054 167.537 160.122 167.807 160.257 168.058C160.394 168.309 160.581 168.511 160.818 168.665C161.057 168.819 161.328 168.896 161.631 168.896Z" fill="black"/>
<path d="M182.669 152.846V159.467" stroke="black"/>
<path d="M180.793 169.578L184.046 163.143V163.086H180.296V162.305H184.955V163.129L181.716 169.578H180.793Z" fill="black"/>
<path d="M203.755 152.846V159.467" stroke="black"/>
<path d="M203.756 169.677C203.268 169.677 202.838 169.591 202.464 169.418C202.092 169.243 201.802 169.003 201.594 168.697C201.385 168.389 201.282 168.039 201.285 167.646C201.282 167.338 201.343 167.054 201.466 166.794C201.589 166.531 201.757 166.312 201.97 166.137C202.185 165.959 202.426 165.847 202.691 165.8V165.757C202.343 165.667 202.066 165.472 201.86 165.171C201.654 164.868 201.552 164.523 201.554 164.138C201.552 163.768 201.646 163.438 201.835 163.147C202.024 162.856 202.285 162.626 202.616 162.458C202.95 162.29 203.33 162.206 203.756 162.206C204.178 162.206 204.554 162.29 204.885 162.458C205.217 162.626 205.477 162.856 205.667 163.147C205.858 163.438 205.955 163.768 205.958 164.138C205.955 164.523 205.85 164.868 205.642 165.171C205.436 165.472 205.162 165.667 204.821 165.757V165.8C205.084 165.847 205.321 165.959 205.532 166.137C205.742 166.312 205.911 166.531 206.036 166.794C206.161 167.054 206.225 167.338 206.228 167.646C206.225 168.039 206.119 168.389 205.908 168.697C205.7 169.003 205.41 169.243 205.038 169.418C204.669 169.591 204.241 169.677 203.756 169.677ZM203.756 168.896C204.085 168.896 204.369 168.843 204.608 168.736C204.848 168.63 205.032 168.479 205.162 168.285C205.293 168.091 205.359 167.864 205.361 167.603C205.359 167.329 205.288 167.086 205.148 166.875C205.009 166.665 204.818 166.499 204.576 166.378C204.337 166.258 204.064 166.197 203.756 166.197C203.446 166.197 203.169 166.258 202.925 166.378C202.684 166.499 202.493 166.665 202.353 166.875C202.216 167.086 202.149 167.329 202.151 167.603C202.149 167.864 202.211 168.091 202.339 168.285C202.469 168.479 202.655 168.63 202.897 168.736C203.138 168.843 203.425 168.896 203.756 168.896ZM203.756 165.444C204.017 165.444 204.247 165.392 204.449 165.288C204.652 165.184 204.812 165.038 204.928 164.851C205.044 164.664 205.103 164.445 205.106 164.194C205.103 163.948 205.045 163.734 204.932 163.552C204.818 163.367 204.661 163.225 204.459 163.125C204.258 163.024 204.024 162.973 203.756 162.973C203.484 162.973 203.246 163.024 203.042 163.125C202.839 163.225 202.681 163.367 202.57 163.552C202.459 163.734 202.404 163.948 202.407 164.194C202.404 164.445 202.46 164.664 202.574 164.851C202.69 165.038 202.849 165.184 203.053 165.288C203.257 165.392 203.491 165.444 203.756 165.444Z" fill="black"/>
<path d="M224.84 152.846V159.467" stroke="black"/>
<path d="M224.789 162.206C225.087 162.208 225.385 162.265 225.683 162.376C225.982 162.487 226.254 162.672 226.5 162.93C226.746 163.186 226.944 163.535 227.093 163.978C227.242 164.42 227.317 164.976 227.317 165.643C227.317 166.29 227.255 166.864 227.132 167.366C227.012 167.865 226.836 168.286 226.607 168.63C226.379 168.973 226.102 169.233 225.776 169.411C225.451 169.589 225.084 169.677 224.675 169.677C224.268 169.677 223.904 169.597 223.585 169.436C223.268 169.273 223.007 169.046 222.803 168.758C222.602 168.466 222.473 168.129 222.416 167.746H223.283C223.361 168.079 223.516 168.355 223.748 168.573C223.982 168.788 224.291 168.896 224.675 168.896C225.236 168.896 225.679 168.651 226.003 168.161C226.33 167.671 226.493 166.978 226.493 166.084H226.436C226.304 166.282 226.146 166.454 225.964 166.599C225.782 166.743 225.579 166.854 225.357 166.932C225.134 167.01 224.897 167.05 224.647 167.05C224.23 167.05 223.848 166.947 223.5 166.741C223.154 166.532 222.877 166.247 222.669 165.885C222.463 165.52 222.36 165.103 222.36 164.635C222.36 164.19 222.459 163.782 222.658 163.413C222.859 163.041 223.141 162.746 223.503 162.525C223.868 162.305 224.296 162.199 224.789 162.206ZM224.789 162.987C224.49 162.987 224.222 163.062 223.982 163.211C223.746 163.358 223.558 163.556 223.418 163.807C223.281 164.056 223.212 164.332 223.212 164.635C223.212 164.938 223.278 165.214 223.411 165.462C223.546 165.708 223.729 165.905 223.961 166.052C224.196 166.196 224.462 166.268 224.76 166.268C224.985 166.268 225.195 166.224 225.389 166.137C225.583 166.047 225.752 165.925 225.897 165.771C226.043 165.615 226.158 165.438 226.241 165.242C226.324 165.043 226.365 164.836 226.365 164.621C226.365 164.336 226.297 164.07 226.159 163.822C226.024 163.573 225.837 163.372 225.598 163.218C225.361 163.064 225.092 162.987 224.789 162.987Z" fill="black"/>
<path d="M245.926 152.846V159.467" stroke="black"/>
<path d="M243.787 162.305V169.578H242.906V163.228H242.863L241.088 164.407V163.513L242.906 162.305H243.787ZM248.251 169.677C247.715 169.677 247.26 169.532 246.883 169.241C246.507 168.947 246.219 168.522 246.02 167.966C245.822 167.407 245.722 166.732 245.722 165.942C245.722 165.156 245.822 164.484 246.02 163.928C246.222 163.369 246.51 162.943 246.887 162.65C247.266 162.354 247.72 162.206 248.251 162.206C248.781 162.206 249.234 162.354 249.611 162.65C249.989 162.943 250.278 163.369 250.477 163.928C250.678 164.484 250.779 165.156 250.779 165.942C250.779 166.732 250.679 167.407 250.481 167.966C250.282 168.522 249.994 168.947 249.618 169.241C249.241 169.532 248.786 169.677 248.251 169.677ZM248.251 168.896C248.781 168.896 249.193 168.64 249.486 168.129C249.78 167.618 249.927 166.889 249.927 165.942C249.927 165.312 249.859 164.776 249.724 164.333C249.592 163.89 249.4 163.553 249.149 163.321C248.9 163.089 248.601 162.973 248.251 162.973C247.725 162.973 247.314 163.232 247.018 163.75C246.722 164.267 246.574 164.997 246.574 165.942C246.574 166.571 246.641 167.106 246.773 167.547C246.906 167.987 247.096 168.322 247.345 168.552C247.596 168.781 247.898 168.896 248.251 168.896Z" fill="black"/>
<path d="M267.012 152.846V159.467" stroke="black"/>
<path d="M265.673 162.305V169.578H264.793V163.228H264.75L262.974 164.407V163.513L264.793 162.305H265.673ZM270.322 162.305V169.578H269.441V163.228H269.398L267.623 164.407V163.513L269.441 162.305H270.322Z" fill="black"/>
<path d="M288.098 152.846V159.467" stroke="black"/>
<path d="M286.056 162.305V169.578H285.175V163.228H285.132L283.357 164.407V163.513L285.175 162.305H286.056ZM288.147 169.578V168.939L290.548 166.311C290.83 166.003 291.062 165.736 291.244 165.508C291.426 165.279 291.561 165.063 291.649 164.862C291.739 164.658 291.784 164.445 291.784 164.223C291.784 163.967 291.722 163.746 291.599 163.559C291.478 163.372 291.313 163.227 291.102 163.125C290.891 163.024 290.655 162.973 290.392 162.973C290.112 162.973 289.869 163.031 289.66 163.147C289.454 163.26 289.294 163.42 289.181 163.626C289.07 163.832 289.014 164.074 289.014 164.351H288.176C288.176 163.925 288.274 163.55 288.471 163.228C288.667 162.907 288.935 162.656 289.273 162.476C289.614 162.296 289.996 162.206 290.42 162.206C290.846 162.206 291.224 162.296 291.553 162.476C291.882 162.656 292.14 162.898 292.327 163.204C292.514 163.509 292.608 163.849 292.608 164.223C292.608 164.49 292.559 164.752 292.462 165.008C292.367 165.261 292.202 165.544 291.965 165.856C291.73 166.166 291.405 166.545 290.988 166.993L289.355 168.74V168.797H292.735V169.578H288.147Z" fill="black"/>
<path d="M56.1547 152.846V36.9645" stroke="black"/>
<path d="M56.1546 152.846H48.8301" stroke="black"/>
<path d="M42.0428 155.44C41.5078 155.44 41.0521 155.295 40.6756 155.004C40.2992 154.71 40.0116 154.285 39.8127 153.729C39.6139 153.17 39.5144 152.495 39.5144 151.705C39.5144 150.919 39.6139 150.247 39.8127 149.691C40.0139 149.132 40.3028 148.706 40.6792 148.413C41.058 148.117 41.5125 147.969 42.0428 147.969C42.5731 147.969 43.0265 148.117 43.4029 148.413C43.7817 148.706 44.0705 149.132 44.2694 149.691C44.4706 150.247 44.5712 150.919 44.5712 151.705C44.5712 152.495 44.4718 153.17 44.2729 153.729C44.0741 154.285 43.7864 154.71 43.41 155.004C43.0336 155.295 42.5779 155.44 42.0428 155.44ZM42.0428 154.659C42.5731 154.659 42.9851 154.404 43.2786 153.892C43.5722 153.381 43.719 152.652 43.719 151.705C43.719 151.075 43.6515 150.539 43.5166 150.096C43.384 149.653 43.1922 149.316 42.9413 149.084C42.6927 148.852 42.3932 148.736 42.0428 148.736C41.5173 148.736 41.1065 148.995 40.8106 149.514C40.5147 150.03 40.3667 150.76 40.3667 151.705C40.3667 152.334 40.433 152.869 40.5656 153.31C40.6981 153.75 40.8887 154.085 41.1373 154.315C41.3882 154.544 41.6901 154.659 42.0428 154.659Z" fill="black"/>
<path d="M56.1546 80.42H48.8301" stroke="black"/>
<path d="M42.1094 83.0147C41.6927 83.0147 41.3175 82.9319 40.9837 82.7661C40.6499 82.6004 40.3824 82.3731 40.1811 82.0843C39.9799 81.7955 39.8698 81.4664 39.8509 81.0971H40.7032C40.7363 81.4262 40.8855 81.6984 41.1506 81.9139C41.4181 82.1269 41.7377 82.2335 42.1094 82.2335C42.4077 82.2335 42.6729 82.1636 42.9049 82.0239C43.1392 81.8843 43.3227 81.6925 43.4553 81.4487C43.5902 81.2025 43.6577 80.9243 43.6577 80.6141C43.6577 80.2969 43.5879 80.014 43.4482 79.7654C43.3109 79.5145 43.1215 79.3168 42.88 79.1724C42.6385 79.028 42.3627 78.9546 42.0526 78.9522C41.8301 78.9498 41.6016 78.9842 41.3672 79.0552C41.1328 79.1239 40.9399 79.2126 40.7884 79.3215L39.9645 79.2221L40.4049 75.6426H44.1833V76.4238H41.1435L40.8878 78.5687H40.9304C41.0796 78.4503 41.2666 78.3521 41.4915 78.2739C41.7164 78.1958 41.9508 78.1568 42.1946 78.1568C42.6397 78.1568 43.0363 78.2633 43.3843 78.4764C43.7346 78.6871 44.0093 78.9759 44.2081 79.3428C44.4094 79.7098 44.51 80.1288 44.51 80.5999C44.51 81.064 44.4058 81.4783 44.1975 81.8428C43.9915 82.2051 43.7074 82.4915 43.3452 82.7022C42.983 82.9105 42.5711 83.0147 42.1094 83.0147Z" fill="black"/>
<path d="M56.1546 113.42H48.8301" stroke="black"/>
<path d="M39.866 115.915V115.276L42.2666 112.648C42.5483 112.34 42.7803 112.073 42.9626 111.846C43.1449 111.616 43.2798 111.401 43.3674 111.199C43.4574 110.996 43.5023 110.783 43.5023 110.56C43.5023 110.304 43.4408 110.083 43.3177 109.896C43.1969 109.709 43.0312 109.565 42.8205 109.463C42.6098 109.361 42.3731 109.31 42.1103 109.31C41.8309 109.31 41.5871 109.368 41.3788 109.484C41.1728 109.598 41.013 109.758 40.8994 109.964C40.7881 110.17 40.7325 110.411 40.7325 110.688H39.8944C39.8944 110.262 39.9926 109.888 40.1891 109.566C40.3856 109.244 40.6532 108.993 40.9917 108.813C41.3326 108.633 41.7149 108.543 42.1387 108.543C42.5648 108.543 42.9424 108.633 43.2715 108.813C43.6006 108.993 43.8586 109.236 44.0457 109.541C44.2327 109.846 44.3262 110.186 44.3262 110.56C44.3262 110.828 44.2777 111.089 44.1806 111.345C44.0859 111.598 43.9202 111.881 43.6835 112.194C43.4491 112.504 43.1236 112.883 42.7069 113.33L41.0734 115.077V115.134H44.4541V115.915H39.866Z" fill="black"/>
<path d="M56.1546 65.9348H48.8301" stroke="black"/>
<path d="M42.0952 68.5295C41.7969 68.5248 41.4986 68.468 41.2003 68.3591C40.902 68.2502 40.6298 68.0667 40.3836 67.8087C40.1373 67.5482 39.9397 67.1967 39.7905 66.754C39.6414 66.3089 39.5668 65.7502 39.5668 65.0778C39.5668 64.4339 39.6272 63.8634 39.7479 63.3662C39.8686 62.8667 40.0438 62.4464 40.2735 62.1055C40.5031 61.7623 40.7801 61.5018 41.1044 61.3243C41.4311 61.1467 41.7993 61.058 42.2088 61.058C42.616 61.058 42.9783 61.1396 43.2955 61.303C43.6151 61.464 43.8755 61.6889 44.0767 61.9777C44.278 62.2665 44.4082 62.5991 44.4674 62.9756H43.6009C43.5204 62.6489 43.3641 62.3778 43.1321 62.1624C42.9001 61.9469 42.5924 61.8392 42.2088 61.8392C41.6454 61.8392 41.2015 62.0842 40.8772 62.5743C40.5552 63.0643 40.393 63.7521 40.3907 64.6375H40.4475C40.5801 64.4363 40.7375 64.2646 40.9198 64.1226C41.1044 63.9782 41.308 63.8669 41.5306 63.7888C41.7531 63.7107 41.9887 63.6716 42.2373 63.6716C42.6539 63.6716 43.0351 63.7758 43.3807 63.9841C43.7264 64.1901 44.0034 64.4753 44.2117 64.8399C44.42 65.2021 44.5242 65.6176 44.5242 66.0864C44.5242 66.5362 44.4236 66.9481 44.2223 67.3222C44.0211 67.6938 43.7382 67.9898 43.3736 68.2099C43.0114 68.4277 42.5853 68.5343 42.0952 68.5295ZM42.0952 67.7483C42.3935 67.7483 42.661 67.6737 42.8978 67.5246C43.1369 67.3754 43.3251 67.1754 43.4624 66.9244C43.6021 66.6735 43.6719 66.3941 43.6719 66.0864C43.6719 65.7857 43.6044 65.5123 43.4695 65.2661C43.3369 65.0175 43.1534 64.8198 42.9191 64.673C42.6871 64.5262 42.4219 64.4528 42.1236 64.4528C41.8987 64.4528 41.6892 64.4978 41.4951 64.5878C41.3009 64.6754 41.1305 64.7961 40.9837 64.95C40.8393 65.1039 40.7257 65.2803 40.6428 65.4791C40.5599 65.6756 40.5185 65.8828 40.5185 66.1006C40.5185 66.3894 40.586 66.6593 40.7209 66.9102C40.8582 67.1612 41.0453 67.3636 41.282 67.5175C41.5211 67.6714 41.7922 67.7483 42.0952 67.7483Z" fill="black"/>
<path d="M56.1547 51.4496H48.8302" stroke="black"/>
<path d="M40.4351 53.9449L43.688 47.5102V47.4534H39.938V46.6722H44.5971V47.496L41.3584 53.9449H40.4351Z" fill="black"/>
<path d="M56.1546 36.9645H48.8301" stroke="black"/>
<path d="M42.0881 39.5592C41.6004 39.5592 41.1695 39.4728 40.7955 39.3C40.4238 39.1248 40.1338 38.8845 39.9255 38.5791C39.7171 38.2713 39.6141 37.921 39.6165 37.528C39.6141 37.2202 39.6745 36.9361 39.7976 36.6757C39.9207 36.4129 40.0888 36.1939 40.3019 36.0187C40.5173 35.8412 40.7576 35.7287 41.0228 35.6814V35.6388C40.6748 35.5488 40.3978 35.3535 40.1918 35.0528C39.9858 34.7498 39.884 34.4053 39.8864 34.0194C39.884 33.6501 39.9775 33.3199 40.1669 33.0287C40.3563 32.7375 40.6168 32.5078 40.9482 32.3397C41.282 32.1717 41.662 32.0876 42.0881 32.0876C42.5095 32.0876 42.8859 32.1717 43.2174 32.3397C43.5488 32.5078 43.8092 32.7375 43.9986 33.0287C44.1904 33.3199 44.2874 33.6501 44.2898 34.0194C44.2874 34.4053 44.1821 34.7498 43.9738 35.0528C43.7678 35.3535 43.4944 35.5488 43.1534 35.6388V35.6814C43.4162 35.7287 43.653 35.8412 43.8637 36.0187C44.0744 36.1939 44.2425 36.4129 44.3679 36.6757C44.4934 36.9361 44.5573 37.2202 44.5597 37.528C44.5573 37.921 44.4508 38.2713 44.2401 38.5791C44.0318 38.8845 43.7418 39.1248 43.3701 39.3C43.0007 39.4728 42.5734 39.5592 42.0881 39.5592ZM42.0881 38.778C42.4172 38.778 42.7013 38.7247 42.9404 38.6182C43.1795 38.5116 43.3641 38.3613 43.4944 38.1672C43.6246 37.973 43.6909 37.7458 43.6932 37.4853C43.6909 37.2107 43.6198 36.9681 43.4802 36.7574C43.3405 36.5467 43.1499 36.3809 42.9084 36.2602C42.6693 36.1395 42.3959 36.0791 42.0881 36.0791C41.778 36.0791 41.501 36.1395 41.2571 36.2602C41.0157 36.3809 40.8251 36.5467 40.6854 36.7574C40.5481 36.9681 40.4806 37.2107 40.483 37.4853C40.4806 37.7458 40.5434 37.973 40.6712 38.1672C40.8014 38.3613 40.9873 38.5116 41.2287 38.6182C41.4702 38.7247 41.7567 38.778 42.0881 38.778ZM42.0881 35.3263C42.3485 35.3263 42.5793 35.2742 42.7806 35.17C42.9842 35.0658 43.144 34.9202 43.26 34.7332C43.376 34.5462 43.4352 34.3272 43.4375 34.0763C43.4352 33.83 43.3772 33.6158 43.2635 33.4335C43.1499 33.2488 42.9925 33.1068 42.7912 33.0074C42.59 32.9056 42.3556 32.8547 42.0881 32.8547C41.8159 32.8547 41.5779 32.9056 41.3743 33.0074C41.1707 33.1068 41.0133 33.2488 40.902 33.4335C40.7908 33.6158 40.7363 33.83 40.7387 34.0763C40.7363 34.3272 40.7919 34.5462 40.9056 34.7332C41.0216 34.9202 41.1814 35.0658 41.385 35.17C41.5886 35.2742 41.823 35.3263 42.0881 35.3263Z" fill="black"/>
<path d="M6.04102 10.531V11.5447H0.363281C0.355469 11.2908 0.396484 11.0466 0.486328 10.8123C0.630859 10.4255 0.861328 10.0447 1.17773 9.66968C1.49805 9.29468 1.95898 8.86108 2.56055 8.3689C3.49414 7.60327 4.125 6.9978 4.45312 6.55249C4.78125 6.10327 4.94531 5.67944 4.94531 5.28101C4.94531 4.86304 4.79492 4.51147 4.49414 4.22632C4.19727 3.93726 3.80859 3.79272 3.32812 3.79272C2.82031 3.79272 2.41406 3.94507 2.10938 4.24976C1.80469 4.55444 1.65039 4.97632 1.64648 5.51538L0.5625 5.40405C0.636719 4.59546 0.916016 3.98022 1.40039 3.55835C1.88477 3.13257 2.53516 2.91968 3.35156 2.91968C4.17578 2.91968 4.82812 3.14819 5.30859 3.60522C5.78906 4.06226 6.0293 4.62866 6.0293 5.30444C6.0293 5.64819 5.95898 5.98608 5.81836 6.31812C5.67773 6.65015 5.44336 6.99976 5.11523 7.36694C4.79102 7.73413 4.25 8.23804 3.49219 8.87866C2.85938 9.40991 2.45312 9.77124 2.27344 9.96265C2.09375 10.1501 1.94531 10.3396 1.82812 10.531H6.04102ZM7.17773 7.30835C7.17773 6.29272 7.28125 5.47632 7.48828 4.85913C7.69922 4.23804 8.00977 3.75952 8.41992 3.42358C8.83398 3.08765 9.35352 2.91968 9.97852 2.91968C10.4395 2.91968 10.8438 3.01343 11.1914 3.20093C11.5391 3.38452 11.8262 3.6521 12.0527 4.00366C12.2793 4.35132 12.457 4.7771 12.5859 5.28101C12.7148 5.78101 12.7793 6.45679 12.7793 7.30835C12.7793 8.31616 12.6758 9.13062 12.4688 9.75171C12.2617 10.3689 11.9512 10.8474 11.5371 11.1873C11.127 11.5232 10.6074 11.6912 9.97852 11.6912C9.15039 11.6912 8.5 11.3943 8.02734 10.8005C7.46094 10.0857 7.17773 8.92163 7.17773 7.30835ZM8.26172 7.30835C8.26172 8.71851 8.42578 9.65796 8.75391 10.1267C9.08594 10.5916 9.49414 10.824 9.97852 10.824C10.4629 10.824 10.8691 10.5896 11.1973 10.1208C11.5293 9.6521 11.6953 8.7146 11.6953 7.30835C11.6953 5.89429 11.5293 4.95483 11.1973 4.48999C10.8691 4.02515 10.459 3.79272 9.9668 3.79272C9.48242 3.79272 9.0957 3.9978 8.80664 4.40796C8.44336 4.9314 8.26172 5.89819 8.26172 7.30835ZM17.8301 11.5447H16.7754V4.82397C16.5215 5.06616 16.1875 5.30835 15.7734 5.55054C15.3633 5.79272 14.9941 5.97437 14.666 6.09546V5.07593C15.2559 4.79858 15.7715 4.46265 16.2129 4.06812C16.6543 3.67358 16.9668 3.29077 17.1504 2.91968H17.8301V11.5447ZM20.5371 9.29468L21.6445 9.20093C21.7266 9.73999 21.916 10.1462 22.2129 10.4197C22.5137 10.6892 22.875 10.824 23.2969 10.824C23.8047 10.824 24.2344 10.6326 24.5859 10.2498C24.9375 9.86694 25.1133 9.35913 25.1133 8.72632C25.1133 8.12476 24.9434 7.65015 24.6035 7.30249C24.2676 6.95483 23.8262 6.78101 23.2793 6.78101C22.9395 6.78101 22.6328 6.85913 22.3594 7.01538C22.0859 7.16772 21.8711 7.36694 21.7148 7.61304L20.7246 7.48413L21.5566 3.07202H25.8281V4.07983H22.4004L21.9375 6.38843C22.4531 6.02905 22.9941 5.84937 23.5605 5.84937C24.3105 5.84937 24.9434 6.10913 25.459 6.62866C25.9746 7.14819 26.2324 7.81616 26.2324 8.63257C26.2324 9.40991 26.0059 10.0818 25.5527 10.6482C25.002 11.3435 24.25 11.6912 23.2969 11.6912C22.5156 11.6912 21.877 11.4724 21.3809 11.0349C20.8887 10.5974 20.6074 10.0173 20.5371 9.29468Z" fill="black"/>
</svg>
