<svg width="295" height="173" viewBox="0 0 295 173" fill="none" xmlns="http://www.w3.org/2000/svg">
<path d="M56.1547 98.9067C66.6975 98.9067 66.6975 152.39 77.2404 152.39C87.7833 152.39 87.7833 152.39 98.3261 152.39C108.869 152.39 108.869 152.39 119.412 152.39C129.955 152.39 129.955 152.39 140.498 152.39C151.04 152.39 151.04 152.39 161.583 152.39C172.126 152.39 172.126 152.39 182.669 152.39C193.212 152.39 193.212 152.39 203.755 152.39C214.298 152.39 214.298 152.39 224.84 152.39C235.383 152.39 235.383 152.39 245.926 152.39C256.469 152.39 256.469 152.39 267.012 152.39C277.555 152.39 277.555 152.39 288.098 152.39C277.555 152.39 277.555 152.39 267.012 152.39C256.469 152.39 256.469 152.39 245.926 152.39C235.383 152.39 235.383 152.39 224.84 152.39C214.298 152.39 214.298 152.39 203.755 152.39C193.212 152.39 193.212 152.39 182.669 152.39C172.126 152.39 172.126 152.39 161.583 152.39C151.04 152.39 151.04 152.39 140.498 152.39C129.955 152.39 129.955 152.39 119.412 152.39C108.869 152.39 108.869 152.39 98.3261 152.39C87.7833 152.39 87.7833 152.39 77.2404 152.39C66.6975 152.39 66.6975 152.39 56.1547 152.39V98.9067Z" fill="#F8DF1D"/>
<path d="M56.1547 98.9066C66.6975 98.9066 66.6975 89.9927 77.2404 89.9927C87.7833 89.9927 87.7833 152.39 98.3261 152.39C108.869 152.39 108.869 152.39 119.412 152.39C129.955 152.39 129.955 89.9927 140.498 89.9927C151.04 89.9927 151.04 152.39 161.583 152.39C172.126 152.39 172.126 152.39 182.669 152.39C193.212 152.39 193.212 152.39 203.755 152.39C214.298 152.39 214.298 152.39 224.84 152.39C235.383 152.39 235.383 152.39 245.926 152.39C256.469 152.39 256.469 152.39 267.012 152.39C277.555 152.39 277.555 152.39 288.098 152.39C277.555 152.39 277.555 152.39 267.012 152.39C256.469 152.39 256.469 152.39 245.926 152.39C235.383 152.39 235.383 152.39 224.84 152.39C214.298 152.39 214.298 152.39 203.755 152.39C193.212 152.39 193.212 152.39 182.669 152.39C172.126 152.39 172.126 152.39 161.583 152.39C151.04 152.39 151.04 152.39 140.498 152.39C129.955 152.39 129.955 152.39 119.412 152.39C108.869 152.39 108.869 152.39 98.3261 152.39C87.7833 152.39 87.7833 152.39 77.2404 152.39C66.6975 152.39 66.6975 98.9066 56.1547 98.9066Z" fill="#F8DE1D"/>
<path d="M56.1547 98.9067C66.6975 98.9067 66.6975 152.39 77.2404 152.39C87.7833 152.39 87.7833 152.39 98.3261 152.39C108.869 152.39 108.869 152.39 119.412 152.39C129.955 152.39 129.955 152.39 140.498 152.39C151.04 152.39 151.04 152.39 161.583 152.39C172.126 152.39 172.126 152.39 182.669 152.39C193.212 152.39 193.212 152.39 203.755 152.39C214.298 152.39 214.298 152.39 224.84 152.39C235.383 152.39 235.383 152.39 245.926 152.39C256.469 152.39 256.469 152.39 267.012 152.39C277.555 152.39 277.555 152.39 288.098 152.39C277.555 152.39 277.555 152.39 267.012 152.39C256.469 152.39 256.469 152.39 245.926 152.39C235.383 152.39 235.383 152.39 224.84 152.39C214.298 152.39 214.298 152.39 203.755 152.39C193.212 152.39 193.212 152.39 182.669 152.39C172.126 152.39 172.126 152.39 161.583 152.39C151.04 152.39 151.04 152.39 140.498 152.39C129.955 152.39 129.955 152.39 119.412 152.39C108.869 152.39 108.869 152.39 98.3261 152.39C87.7833 152.39 87.7833 152.39 77.2404 152.39C66.6975 152.39 66.6975 98.9067 56.1547 98.9067Z" fill="#F8E31C"/>
<path d="M56.1547 98.9067C66.6975 98.9067 66.6975 152.39 77.2404 152.39C87.7833 152.39 87.7833 152.39 98.3261 152.39C108.869 152.39 108.869 152.39 119.412 152.39C129.955 152.39 129.955 152.39 140.498 152.39C151.04 152.39 151.04 152.39 161.583 152.39C172.126 152.39 172.126 152.39 182.669 152.39C193.212 152.39 193.212 152.39 203.755 152.39C214.298 152.39 214.298 152.39 224.84 152.39C235.383 152.39 235.383 152.39 245.926 152.39C256.469 152.39 256.469 152.39 267.012 152.39C277.555 152.39 277.555 152.39 288.098 152.39C277.555 152.39 277.555 152.39 267.012 152.39C256.469 152.39 256.469 152.39 245.926 152.39C235.383 152.39 235.383 152.39 224.84 152.39C214.298 152.39 214.298 152.39 203.755 152.39C193.212 152.39 193.212 152.39 182.669 152.39C172.126 152.39 172.126 152.39 161.583 152.39C151.04 152.39 151.04 152.39 140.498 152.39C129.955 152.39 129.955 152.39 119.412 152.39C108.869 152.39 108.869 152.39 98.3261 152.39C87.7833 152.39 87.7833 152.39 77.2404 152.39C66.6975 152.39 66.6975 98.9067 56.1547 98.9067Z" fill="#F8E41C"/>
<path d="M56.1547 98.9067C66.6975 98.9067 66.6975 89.9928 77.2404 89.9928C87.7833 89.9928 87.7833 72.1649 98.3261 72.1649C108.869 72.1649 108.869 72.1649 119.412 72.1649C129.955 72.1649 129.955 89.9928 140.498 89.9928C151.04 89.9928 151.04 81.0789 161.583 81.0789C172.126 81.0789 172.126 81.0789 182.669 81.0789C193.212 81.0789 193.212 81.0789 203.755 81.0789C214.298 81.0789 214.298 152.39 224.84 152.39C235.383 152.39 235.383 152.39 245.926 152.39C256.469 152.39 256.469 152.39 267.012 152.39C277.555 152.39 277.555 152.39 288.098 152.39C277.555 152.39 277.555 152.39 267.012 152.39C256.469 152.39 256.469 152.39 245.926 152.39C235.383 152.39 235.383 152.39 224.84 152.39C214.298 152.39 214.298 152.39 203.755 152.39C193.212 152.39 193.212 152.39 182.669 152.39C172.126 152.39 172.126 152.39 161.583 152.39C151.04 152.39 151.04 89.9928 140.498 89.9928C129.955 89.9928 129.955 72.1649 119.412 72.1649C108.869 72.1649 108.869 72.1649 98.3261 72.1649C87.7833 72.1649 87.7833 89.9928 77.2404 89.9928C66.6975 89.9928 66.6975 98.9067 56.1547 98.9067Z" fill="#F7DD1D"/>
<path d="M56.1547 98.9067C66.6975 98.9067 66.6975 89.9928 77.2404 89.9928C87.7833 89.9928 87.7833 72.1649 98.3261 72.1649C108.869 72.1649 108.869 72.1649 119.412 72.1649C129.955 72.1649 129.955 89.9928 140.498 89.9928C151.04 89.9928 151.04 152.39 161.583 152.39C172.126 152.39 172.126 152.39 182.669 152.39C193.212 152.39 193.212 152.39 203.755 152.39C214.298 152.39 214.298 152.39 224.84 152.39C235.383 152.39 235.383 152.39 245.926 152.39C256.469 152.39 256.469 152.39 267.012 152.39C277.555 152.39 277.555 152.39 288.098 152.39C277.555 152.39 277.555 152.39 267.012 152.39C256.469 152.39 256.469 152.39 245.926 152.39C235.383 152.39 235.383 152.39 224.84 152.39C214.298 152.39 214.298 152.39 203.755 152.39C193.212 152.39 193.212 152.39 182.669 152.39C172.126 152.39 172.126 152.39 161.583 152.39C151.04 152.39 151.04 89.9928 140.498 89.9928C129.955 89.9928 129.955 152.39 119.412 152.39C108.869 152.39 108.869 152.39 98.3261 152.39C87.7833 152.39 87.7833 89.9928 77.2404 89.9928C66.6975 89.9928 66.6975 98.9067 56.1547 98.9067Z" fill="#F7DB1D"/>
<path d="M56.1547 98.9067C66.6975 98.9067 66.6975 89.9927 77.2404 89.9927C87.7833 89.9927 87.7833 72.1648 98.3261 72.1648C108.869 72.1648 108.869 72.1648 119.412 72.1648C129.955 72.1648 129.955 89.9927 140.498 89.9927C151.04 89.9927 151.04 81.0788 161.583 81.0788C172.126 81.0788 172.126 81.0788 182.669 81.0788C193.212 81.0788 193.212 81.0788 203.755 81.0788C214.298 81.0788 214.298 45.423 224.84 45.423C235.383 45.423 235.383 152.39 245.926 152.39C256.469 152.39 256.469 152.39 267.012 152.39C277.555 152.39 277.555 152.39 288.098 152.39C277.555 152.39 277.555 152.39 267.012 152.39C256.469 152.39 256.469 152.39 245.926 152.39C235.383 152.39 235.383 152.39 224.84 152.39C214.298 152.39 214.298 81.0788 203.755 81.0788C193.212 81.0788 193.212 81.0788 182.669 81.0788C172.126 81.0788 172.126 81.0788 161.583 81.0788C151.04 81.0788 151.04 89.9927 140.498 89.9927C129.955 89.9927 129.955 72.1648 119.412 72.1648C108.869 72.1648 108.869 72.1648 98.3261 72.1648C87.7833 72.1648 87.7833 89.9927 77.2404 89.9927C66.6975 89.9927 66.6975 98.9067 56.1547 98.9067Z" fill="#F7D71E"/>
<path d="M56.1547 98.9068C66.6975 98.9068 66.6975 89.9928 77.2404 89.9928C87.7833 89.9928 87.7833 72.1649 98.3261 72.1649C108.869 72.1649 108.869 72.1649 119.412 72.1649C129.955 72.1649 129.955 89.9928 140.498 89.9928C151.04 89.9928 151.04 81.0789 161.583 81.0789C172.126 81.0789 172.126 81.0789 182.669 81.0789C193.212 81.0789 193.212 81.0789 203.755 81.0789C214.298 81.0789 214.298 45.4231 224.84 45.4231C235.383 45.4231 235.383 36.5092 245.926 36.5092C256.469 36.5092 256.469 36.5092 267.012 36.5092C277.555 36.5092 277.555 152.39 288.098 152.39C277.555 152.39 277.555 152.39 267.012 152.39C256.469 152.39 256.469 152.39 245.926 152.39C235.383 152.39 235.383 45.4231 224.84 45.4231C214.298 45.4231 214.298 81.0789 203.755 81.0789C193.212 81.0789 193.212 81.0789 182.669 81.0789C172.126 81.0789 172.126 81.0789 161.583 81.0789C151.04 81.0789 151.04 89.9928 140.498 89.9928C129.955 89.9928 129.955 72.1649 119.412 72.1649C108.869 72.1649 108.869 72.1649 98.3261 72.1649C87.7833 72.1649 87.7833 89.9928 77.2404 89.9928C66.6975 89.9928 66.6975 98.9068 56.1547 98.9068Z" fill="#F7D61E"/>
<path d="M56.1547 98.9068C66.6975 98.9068 66.6975 89.9928 77.2404 89.9928C87.7833 89.9928 87.7833 72.1649 98.3261 72.1649C108.869 72.1649 108.869 72.1649 119.412 72.1649C129.955 72.1649 129.955 89.9928 140.498 89.9928C151.04 89.9928 151.04 81.0789 161.583 81.0789C172.126 81.0789 172.126 81.0789 182.669 81.0789C193.212 81.0789 193.212 81.0789 203.755 81.0789C214.298 81.0789 214.298 45.4231 224.84 45.4231C235.383 45.4231 235.383 36.5092 245.926 36.5092C256.469 36.5092 256.469 36.5092 267.012 36.5092C277.555 36.5092 277.555 54.337 288.098 54.337V152.39C277.555 152.39 277.555 36.5092 267.012 36.5092C256.469 36.5092 256.469 36.5092 245.926 36.5092C235.383 36.5092 235.383 45.4231 224.84 45.4231C214.298 45.4231 214.298 81.0789 203.755 81.0789C193.212 81.0789 193.212 81.0789 182.669 81.0789C172.126 81.0789 172.126 81.0789 161.583 81.0789C151.04 81.0789 151.04 89.9928 140.498 89.9928C129.955 89.9928 129.955 72.1649 119.412 72.1649C108.869 72.1649 108.869 72.1649 98.3261 72.1649C87.7833 72.1649 87.7833 89.9928 77.2404 89.9928C66.6975 89.9928 66.6975 98.9068 56.1547 98.9068Z" fill="#F7D91E"/>
<path d="M56.1547 98.9067C66.6975 98.9067 66.6975 152.39 77.2404 152.39C87.7833 152.39 87.7833 152.39 98.3261 152.39C108.869 152.39 108.869 152.39 119.412 152.39C129.955 152.39 129.955 152.39 140.498 152.39C151.04 152.39 151.04 152.39 161.583 152.39C172.126 152.39 172.126 152.39 182.669 152.39C193.212 152.39 193.212 152.39 203.755 152.39C214.298 152.39 214.298 152.39 224.84 152.39C235.383 152.39 235.383 152.39 245.926 152.39C256.469 152.39 256.469 152.39 267.012 152.39C277.555 152.39 277.555 152.39 288.098 152.39C277.555 152.39 277.555 152.39 267.012 152.39C256.469 152.39 256.469 152.39 245.926 152.39C235.383 152.39 235.383 152.39 224.84 152.39C214.298 152.39 214.298 152.39 203.755 152.39C193.212 152.39 193.212 152.39 182.669 152.39C172.126 152.39 172.126 152.39 161.583 152.39C151.04 152.39 151.04 152.39 140.498 152.39C129.955 152.39 129.955 152.39 119.412 152.39C108.869 152.39 108.869 152.39 98.3261 152.39C87.7833 152.39 87.7833 152.39 77.2404 152.39C66.6975 152.39 66.6975 98.9067 56.1547 98.9067Z" fill="#F7D41E"/>
<path d="M56.1547 98.9067C66.6975 98.9067 66.6975 152.39 77.2404 152.39C87.7833 152.39 87.7833 152.39 98.3261 152.39C108.869 152.39 108.869 152.39 119.412 152.39C129.955 152.39 129.955 152.39 140.498 152.39C151.04 152.39 151.04 152.39 161.583 152.39C172.126 152.39 172.126 152.39 182.669 152.39C193.212 152.39 193.212 152.39 203.755 152.39C214.298 152.39 214.298 152.39 224.84 152.39C235.383 152.39 235.383 152.39 245.926 152.39C256.469 152.39 256.469 152.39 267.012 152.39C277.555 152.39 277.555 152.39 288.098 152.39C277.555 152.39 277.555 152.39 267.012 152.39C256.469 152.39 256.469 152.39 245.926 152.39C235.383 152.39 235.383 152.39 224.84 152.39C214.298 152.39 214.298 152.39 203.755 152.39C193.212 152.39 193.212 152.39 182.669 152.39C172.126 152.39 172.126 152.39 161.583 152.39C151.04 152.39 151.04 152.39 140.498 152.39C129.955 152.39 129.955 152.39 119.412 152.39C108.869 152.39 108.869 152.39 98.3261 152.39C87.7833 152.39 87.7833 152.39 77.2404 152.39C66.6975 152.39 66.6975 98.9067 56.1547 98.9067Z" fill="#F7D31E"/>
<path d="M56.1547 98.9067C66.6975 98.9067 66.6975 152.39 77.2404 152.39C87.7833 152.39 87.7833 152.39 98.3261 152.39C108.869 152.39 108.869 152.39 119.412 152.39C129.955 152.39 129.955 152.39 140.498 152.39C151.04 152.39 151.04 152.39 161.583 152.39C172.126 152.39 172.126 152.39 182.669 152.39C193.212 152.39 193.212 152.39 203.755 152.39C214.298 152.39 214.298 152.39 224.84 152.39C235.383 152.39 235.383 152.39 245.926 152.39C256.469 152.39 256.469 152.39 267.012 152.39C277.555 152.39 277.555 152.39 288.098 152.39C277.555 152.39 277.555 152.39 267.012 152.39C256.469 152.39 256.469 152.39 245.926 152.39C235.383 152.39 235.383 152.39 224.84 152.39C214.298 152.39 214.298 152.39 203.755 152.39C193.212 152.39 193.212 152.39 182.669 152.39C172.126 152.39 172.126 152.39 161.583 152.39C151.04 152.39 151.04 152.39 140.498 152.39C129.955 152.39 129.955 152.39 119.412 152.39C108.869 152.39 108.869 152.39 98.3261 152.39C87.7833 152.39 87.7833 152.39 77.2404 152.39C66.6975 152.39 66.6975 98.9067 56.1547 98.9067Z" fill="#F7D21E"/>
<path d="M56.1547 98.9067C66.6975 98.9067 66.6975 152.39 77.2404 152.39C87.7833 152.39 87.7833 152.39 98.3261 152.39C108.869 152.39 108.869 152.39 119.412 152.39C129.955 152.39 129.955 152.39 140.498 152.39C151.04 152.39 151.04 152.39 161.583 152.39C172.126 152.39 172.126 152.39 182.669 152.39C193.212 152.39 193.212 152.39 203.755 152.39C214.298 152.39 214.298 152.39 224.84 152.39C235.383 152.39 235.383 152.39 245.926 152.39C256.469 152.39 256.469 152.39 267.012 152.39C277.555 152.39 277.555 152.39 288.098 152.39C277.555 152.39 277.555 152.39 267.012 152.39C256.469 152.39 256.469 152.39 245.926 152.39C235.383 152.39 235.383 152.39 224.84 152.39C214.298 152.39 214.298 152.39 203.755 152.39C193.212 152.39 193.212 152.39 182.669 152.39C172.126 152.39 172.126 152.39 161.583 152.39C151.04 152.39 151.04 152.39 140.498 152.39C129.955 152.39 129.955 152.39 119.412 152.39C108.869 152.39 108.869 152.39 98.3261 152.39C87.7833 152.39 87.7833 152.39 77.2404 152.39C66.6975 152.39 66.6975 98.9067 56.1547 98.9067Z" fill="#F7CD1F"/>
<path d="M56.1547 98.9067C66.6975 98.9067 66.6975 152.39 77.2404 152.39C87.7833 152.39 87.7833 152.39 98.3261 152.39C108.869 152.39 108.869 152.39 119.412 152.39C129.955 152.39 129.955 152.39 140.498 152.39C151.04 152.39 151.04 152.39 161.583 152.39C172.126 152.39 172.126 152.39 182.669 152.39C193.212 152.39 193.212 152.39 203.755 152.39C214.298 152.39 214.298 152.39 224.84 152.39C235.383 152.39 235.383 152.39 245.926 152.39C256.469 152.39 256.469 152.39 267.012 152.39C277.555 152.39 277.555 152.39 288.098 152.39C277.555 152.39 277.555 152.39 267.012 152.39C256.469 152.39 256.469 152.39 245.926 152.39C235.383 152.39 235.383 152.39 224.84 152.39C214.298 152.39 214.298 152.39 203.755 152.39C193.212 152.39 193.212 152.39 182.669 152.39C172.126 152.39 172.126 152.39 161.583 152.39C151.04 152.39 151.04 152.39 140.498 152.39C129.955 152.39 129.955 152.39 119.412 152.39C108.869 152.39 108.869 152.39 98.3261 152.39C87.7833 152.39 87.7833 152.39 77.2404 152.39C66.6975 152.39 66.6975 98.9067 56.1547 98.9067Z" fill="#F7D01E"/>
<path d="M56.1547 98.9067C66.6975 98.9067 66.6975 152.39 77.2404 152.39C87.7833 152.39 87.7833 152.39 98.3261 152.39C108.869 152.39 108.869 152.39 119.412 152.39C129.955 152.39 129.955 152.39 140.498 152.39C151.04 152.39 151.04 152.39 161.583 152.39C172.126 152.39 172.126 152.39 182.669 152.39C193.212 152.39 193.212 152.39 203.755 152.39C214.298 152.39 214.298 152.39 224.84 152.39C235.383 152.39 235.383 152.39 245.926 152.39C256.469 152.39 256.469 152.39 267.012 152.39C277.555 152.39 277.555 152.39 288.098 152.39C277.555 152.39 277.555 152.39 267.012 152.39C256.469 152.39 256.469 152.39 245.926 152.39C235.383 152.39 235.383 152.39 224.84 152.39C214.298 152.39 214.298 152.39 203.755 152.39C193.212 152.39 193.212 152.39 182.669 152.39C172.126 152.39 172.126 152.39 161.583 152.39C151.04 152.39 151.04 152.39 140.498 152.39C129.955 152.39 129.955 152.39 119.412 152.39C108.869 152.39 108.869 152.39 98.3261 152.39C87.7833 152.39 87.7833 152.39 77.2404 152.39C66.6975 152.39 66.6975 98.9067 56.1547 98.9067Z" fill="#F7CF1E"/>
<path d="M56.1547 98.9067C66.6975 98.9067 66.6975 152.39 77.2404 152.39C87.7833 152.39 87.7833 152.39 98.3261 152.39C108.869 152.39 108.869 152.39 119.412 152.39C129.955 152.39 129.955 152.39 140.498 152.39C151.04 152.39 151.04 152.39 161.583 152.39C172.126 152.39 172.126 152.39 182.669 152.39C193.212 152.39 193.212 152.39 203.755 152.39C214.298 152.39 214.298 152.39 224.84 152.39C235.383 152.39 235.383 152.39 245.926 152.39C256.469 152.39 256.469 152.39 267.012 152.39C277.555 152.39 277.555 152.39 288.098 152.39C277.555 152.39 277.555 152.39 267.012 152.39C256.469 152.39 256.469 152.39 245.926 152.39C235.383 152.39 235.383 152.39 224.84 152.39C214.298 152.39 214.298 152.39 203.755 152.39C193.212 152.39 193.212 152.39 182.669 152.39C172.126 152.39 172.126 152.39 161.583 152.39C151.04 152.39 151.04 152.39 140.498 152.39C129.955 152.39 129.955 152.39 119.412 152.39C108.869 152.39 108.869 152.39 98.3261 152.39C87.7833 152.39 87.7833 152.39 77.2404 152.39C66.6975 152.39 66.6975 98.9067 56.1547 98.9067Z" fill="#F6CC1F"/>
<path d="M56.1547 98.9067C66.6975 98.9067 66.6975 152.39 77.2404 152.39C87.7833 152.39 87.7833 152.39 98.3261 152.39C108.869 152.39 108.869 152.39 119.412 152.39C129.955 152.39 129.955 152.39 140.498 152.39C151.04 152.39 151.04 152.39 161.583 152.39C172.126 152.39 172.126 152.39 182.669 152.39C193.212 152.39 193.212 152.39 203.755 152.39C214.298 152.39 214.298 152.39 224.84 152.39C235.383 152.39 235.383 152.39 245.926 152.39C256.469 152.39 256.469 152.39 267.012 152.39C277.555 152.39 277.555 152.39 288.098 152.39C277.555 152.39 277.555 152.39 267.012 152.39C256.469 152.39 256.469 152.39 245.926 152.39C235.383 152.39 235.383 152.39 224.84 152.39C214.298 152.39 214.298 152.39 203.755 152.39C193.212 152.39 193.212 152.39 182.669 152.39C172.126 152.39 172.126 152.39 161.583 152.39C151.04 152.39 151.04 152.39 140.498 152.39C129.955 152.39 129.955 152.39 119.412 152.39C108.869 152.39 108.869 152.39 98.3261 152.39C87.7833 152.39 87.7833 152.39 77.2404 152.39C66.6975 152.39 66.6975 98.9067 56.1547 98.9067Z" fill="#F6C91F"/>
<path d="M56.1547 98.9067C66.6975 98.9067 66.6975 152.39 77.2404 152.39C87.7833 152.39 87.7833 152.39 98.3261 152.39C108.869 152.39 108.869 152.39 119.412 152.39C129.955 152.39 129.955 152.39 140.498 152.39C151.04 152.39 151.04 152.39 161.583 152.39C172.126 152.39 172.126 152.39 182.669 152.39C193.212 152.39 193.212 152.39 203.755 152.39C214.298 152.39 214.298 152.39 224.84 152.39C235.383 152.39 235.383 152.39 245.926 152.39C256.469 152.39 256.469 152.39 267.012 152.39C277.555 152.39 277.555 152.39 288.098 152.39C277.555 152.39 277.555 152.39 267.012 152.39C256.469 152.39 256.469 152.39 245.926 152.39C235.383 152.39 235.383 152.39 224.84 152.39C214.298 152.39 214.298 152.39 203.755 152.39C193.212 152.39 193.212 152.39 182.669 152.39C172.126 152.39 172.126 152.39 161.583 152.39C151.04 152.39 151.04 152.39 140.498 152.39C129.955 152.39 129.955 152.39 119.412 152.39C108.869 152.39 108.869 152.39 98.3261 152.39C87.7833 152.39 87.7833 152.39 77.2404 152.39C66.6975 152.39 66.6975 98.9067 56.1547 98.9067Z" fill="#F6C61F"/>
<path d="M56.1547 98.9067C66.6975 98.9067 66.6975 152.39 77.2404 152.39C87.7833 152.39 87.7833 152.39 98.3261 152.39C108.869 152.39 108.869 152.39 119.412 152.39C129.955 152.39 129.955 152.39 140.498 152.39C151.04 152.39 151.04 152.39 161.583 152.39C172.126 152.39 172.126 152.39 182.669 152.39C193.212 152.39 193.212 152.39 203.755 152.39C214.298 152.39 214.298 152.39 224.84 152.39C235.383 152.39 235.383 152.39 245.926 152.39C256.469 152.39 256.469 152.39 267.012 152.39C277.555 152.39 277.555 152.39 288.098 152.39C277.555 152.39 277.555 152.39 267.012 152.39C256.469 152.39 256.469 152.39 245.926 152.39C235.383 152.39 235.383 152.39 224.84 152.39C214.298 152.39 214.298 152.39 203.755 152.39C193.212 152.39 193.212 152.39 182.669 152.39C172.126 152.39 172.126 152.39 161.583 152.39C151.04 152.39 151.04 152.39 140.498 152.39C129.955 152.39 129.955 152.39 119.412 152.39C108.869 152.39 108.869 152.39 98.3261 152.39C87.7833 152.39 87.7833 152.39 77.2404 152.39C66.6975 152.39 66.6975 98.9067 56.1547 98.9067Z" fill="#F6C41F"/>
<path d="M56.1547 98.9067C66.6975 98.9067 66.6975 152.39 77.2404 152.39C87.7833 152.39 87.7833 152.39 98.3261 152.39C108.869 152.39 108.869 152.39 119.412 152.39C129.955 152.39 129.955 152.39 140.498 152.39C151.04 152.39 151.04 152.39 161.583 152.39C172.126 152.39 172.126 152.39 182.669 152.39C193.212 152.39 193.212 152.39 203.755 152.39C214.298 152.39 214.298 152.39 224.84 152.39C235.383 152.39 235.383 152.39 245.926 152.39C256.469 152.39 256.469 152.39 267.012 152.39C277.555 152.39 277.555 152.39 288.098 152.39C277.555 152.39 277.555 152.39 267.012 152.39C256.469 152.39 256.469 152.39 245.926 152.39C235.383 152.39 235.383 152.39 224.84 152.39C214.298 152.39 214.298 152.39 203.755 152.39C193.212 152.39 193.212 152.39 182.669 152.39C172.126 152.39 172.126 152.39 161.583 152.39C151.04 152.39 151.04 152.39 140.498 152.39C129.955 152.39 129.955 152.39 119.412 152.39C108.869 152.39 108.869 152.39 98.3261 152.39C87.7833 152.39 87.7833 152.39 77.2404 152.39C66.6975 152.39 66.6975 98.9067 56.1547 98.9067Z" fill="#F5B920"/>
<path d="M56.1547 98.9067C66.6975 98.9067 66.6975 152.39 77.2404 152.39C87.7833 152.39 87.7833 152.39 98.3261 152.39C108.869 152.39 108.869 152.39 119.412 152.39C129.955 152.39 129.955 152.39 140.498 152.39C151.04 152.39 151.04 152.39 161.583 152.39C172.126 152.39 172.126 152.39 182.669 152.39C193.212 152.39 193.212 152.39 203.755 152.39C214.298 152.39 214.298 152.39 224.84 152.39C235.383 152.39 235.383 152.39 245.926 152.39C256.469 152.39 256.469 152.39 267.012 152.39C277.555 152.39 277.555 152.39 288.098 152.39C277.555 152.39 277.555 152.39 267.012 152.39C256.469 152.39 256.469 152.39 245.926 152.39C235.383 152.39 235.383 152.39 224.84 152.39C214.298 152.39 214.298 152.39 203.755 152.39C193.212 152.39 193.212 152.39 182.669 152.39C172.126 152.39 172.126 152.39 161.583 152.39C151.04 152.39 151.04 152.39 140.498 152.39C129.955 152.39 129.955 152.39 119.412 152.39C108.869 152.39 108.869 152.39 98.3261 152.39C87.7833 152.39 87.7833 152.39 77.2404 152.39C66.6975 152.39 66.6975 98.9067 56.1547 98.9067Z" fill="#F3B020"/>
<path d="M56.1547 98.9067C66.6975 98.9067 66.6975 152.39 77.2404 152.39C87.7833 152.39 87.7833 152.39 98.3261 152.39C108.869 152.39 108.869 152.39 119.412 152.39C129.955 152.39 129.955 152.39 140.498 152.39C151.04 152.39 151.04 152.39 161.583 152.39C172.126 152.39 172.126 152.39 182.669 152.39C193.212 152.39 193.212 152.39 203.755 152.39C214.298 152.39 214.298 152.39 224.84 152.39C235.383 152.39 235.383 152.39 245.926 152.39C256.469 152.39 256.469 152.39 267.012 152.39C277.555 152.39 277.555 152.39 288.098 152.39C277.555 152.39 277.555 152.39 267.012 152.39C256.469 152.39 256.469 152.39 245.926 152.39C235.383 152.39 235.383 152.39 224.84 152.39C214.298 152.39 214.298 152.39 203.755 152.39C193.212 152.39 193.212 152.39 182.669 152.39C172.126 152.39 172.126 152.39 161.583 152.39C151.04 152.39 151.04 152.39 140.498 152.39C129.955 152.39 129.955 152.39 119.412 152.39C108.869 152.39 108.869 152.39 98.3261 152.39C87.7833 152.39 87.7833 152.39 77.2404 152.39C66.6975 152.39 66.6975 98.9067 56.1547 98.9067Z" fill="#F4B220"/>
<path d="M56.1547 98.9067C66.6975 98.9067 66.6975 152.39 77.2404 152.39C87.7833 152.39 87.7833 152.39 98.3261 152.39C108.869 152.39 108.869 152.39 119.412 152.39C129.955 152.39 129.955 152.39 140.498 152.39C151.04 152.39 151.04 152.39 161.583 152.39C172.126 152.39 172.126 152.39 182.669 152.39C193.212 152.39 193.212 152.39 203.755 152.39C214.298 152.39 214.298 152.39 224.84 152.39C235.383 152.39 235.383 152.39 245.926 152.39C256.469 152.39 256.469 152.39 267.012 152.39C277.555 152.39 277.555 152.39 288.098 152.39C277.555 152.39 277.555 152.39 267.012 152.39C256.469 152.39 256.469 152.39 245.926 152.39C235.383 152.39 235.383 152.39 224.84 152.39C214.298 152.39 214.298 152.39 203.755 152.39C193.212 152.39 193.212 152.39 182.669 152.39C172.126 152.39 172.126 152.39 161.583 152.39C151.04 152.39 151.04 152.39 140.498 152.39C129.955 152.39 129.955 152.39 119.412 152.39C108.869 152.39 108.869 152.39 98.3261 152.39C87.7833 152.39 87.7833 152.39 77.2404 152.39C66.6975 152.39 66.6975 98.9067 56.1547 98.9067Z" fill="#F3AB20"/>
<path d="M56.1547 98.9067C66.6975 98.9067 66.6975 152.39 77.2404 152.39C87.7833 152.39 87.7833 152.39 98.3261 152.39C108.869 152.39 108.869 152.39 119.412 152.39C129.955 152.39 129.955 152.39 140.498 152.39C151.04 152.39 151.04 152.39 161.583 152.39C172.126 152.39 172.126 152.39 182.669 152.39C193.212 152.39 193.212 152.39 203.755 152.39C214.298 152.39 214.298 152.39 224.84 152.39C235.383 152.39 235.383 152.39 245.926 152.39C256.469 152.39 256.469 152.39 267.012 152.39C277.555 152.39 277.555 152.39 288.098 152.39C277.555 152.39 277.555 152.39 267.012 152.39C256.469 152.39 256.469 152.39 245.926 152.39C235.383 152.39 235.383 152.39 224.84 152.39C214.298 152.39 214.298 152.39 203.755 152.39C193.212 152.39 193.212 152.39 182.669 152.39C172.126 152.39 172.126 152.39 161.583 152.39C151.04 152.39 151.04 152.39 140.498 152.39C129.955 152.39 129.955 152.39 119.412 152.39C108.869 152.39 108.869 152.39 98.3261 152.39C87.7833 152.39 87.7833 152.39 77.2404 152.39C66.6975 152.39 66.6975 98.9067 56.1547 98.9067Z" fill="#F3AC20"/>
<path d="M56.1547 98.9067C66.6975 98.9067 66.6975 152.39 77.2404 152.39C87.7833 152.39 87.7833 152.39 98.3261 152.39C108.869 152.39 108.869 152.39 119.412 152.39C129.955 152.39 129.955 152.39 140.498 152.39C151.04 152.39 151.04 152.39 161.583 152.39C172.126 152.39 172.126 152.39 182.669 152.39C193.212 152.39 193.212 152.39 203.755 152.39C214.298 152.39 214.298 152.39 224.84 152.39C235.383 152.39 235.383 152.39 245.926 152.39C256.469 152.39 256.469 152.39 267.012 152.39C277.555 152.39 277.555 152.39 288.098 152.39C277.555 152.39 277.555 152.39 267.012 152.39C256.469 152.39 256.469 152.39 245.926 152.39C235.383 152.39 235.383 152.39 224.84 152.39C214.298 152.39 214.298 152.39 203.755 152.39C193.212 152.39 193.212 152.39 182.669 152.39C172.126 152.39 172.126 152.39 161.583 152.39C151.04 152.39 151.04 152.39 140.498 152.39C129.955 152.39 129.955 152.39 119.412 152.39C108.869 152.39 108.869 152.39 98.3261 152.39C87.7833 152.39 87.7833 152.39 77.2404 152.39C66.6975 152.39 66.6975 98.9067 56.1547 98.9067Z" fill="#F3AE20"/>
<path d="M56.1547 98.9067C66.6975 98.9067 66.6975 152.39 77.2404 152.39C87.7833 152.39 87.7833 152.39 98.3261 152.39C108.869 152.39 108.869 152.39 119.412 152.39C129.955 152.39 129.955 152.39 140.498 152.39C151.04 152.39 151.04 152.39 161.583 152.39C172.126 152.39 172.126 152.39 182.669 152.39C193.212 152.39 193.212 152.39 203.755 152.39C214.298 152.39 214.298 152.39 224.84 152.39C235.383 152.39 235.383 152.39 245.926 152.39C256.469 152.39 256.469 152.39 267.012 152.39C277.555 152.39 277.555 152.39 288.098 152.39C277.555 152.39 277.555 152.39 267.012 152.39C256.469 152.39 256.469 152.39 245.926 152.39C235.383 152.39 235.383 152.39 224.84 152.39C214.298 152.39 214.298 152.39 203.755 152.39C193.212 152.39 193.212 152.39 182.669 152.39C172.126 152.39 172.126 152.39 161.583 152.39C151.04 152.39 151.04 152.39 140.498 152.39C129.955 152.39 129.955 152.39 119.412 152.39C108.869 152.39 108.869 152.39 98.3261 152.39C87.7833 152.39 87.7833 152.39 77.2404 152.39C66.6975 152.39 66.6975 98.9067 56.1547 98.9067Z" fill="#F4B420"/>
<path d="M56.1547 98.9067C66.6975 98.9067 66.6975 152.39 77.2404 152.39C87.7833 152.39 87.7833 152.39 98.3261 152.39C108.869 152.39 108.869 152.39 119.412 152.39C129.955 152.39 129.955 152.39 140.498 152.39C151.04 152.39 151.04 152.39 161.583 152.39C172.126 152.39 172.126 152.39 182.669 152.39C193.212 152.39 193.212 152.39 203.755 152.39C214.298 152.39 214.298 152.39 224.84 152.39C235.383 152.39 235.383 152.39 245.926 152.39C256.469 152.39 256.469 152.39 267.012 152.39C277.555 152.39 277.555 152.39 288.098 152.39C277.555 152.39 277.555 152.39 267.012 152.39C256.469 152.39 256.469 152.39 245.926 152.39C235.383 152.39 235.383 152.39 224.84 152.39C214.298 152.39 214.298 152.39 203.755 152.39C193.212 152.39 193.212 152.39 182.669 152.39C172.126 152.39 172.126 152.39 161.583 152.39C151.04 152.39 151.04 152.39 140.498 152.39C129.955 152.39 129.955 152.39 119.412 152.39C108.869 152.39 108.869 152.39 98.3261 152.39C87.7833 152.39 87.7833 152.39 77.2404 152.39C66.6975 152.39 66.6975 98.9067 56.1547 98.9067Z" fill="#F2A720"/>
<path d="M56.1547 98.9067C66.6975 98.9067 66.6975 152.39 77.2404 152.39C87.7833 152.39 87.7833 152.39 98.3261 152.39C108.869 152.39 108.869 152.39 119.412 152.39C129.955 152.39 129.955 152.39 140.498 152.39C151.04 152.39 151.04 152.39 161.583 152.39C172.126 152.39 172.126 152.39 182.669 152.39C193.212 152.39 193.212 152.39 203.755 152.39C214.298 152.39 214.298 152.39 224.84 152.39C235.383 152.39 235.383 152.39 245.926 152.39C256.469 152.39 256.469 152.39 267.012 152.39C277.555 152.39 277.555 152.39 288.098 152.39C277.555 152.39 277.555 152.39 267.012 152.39C256.469 152.39 256.469 152.39 245.926 152.39C235.383 152.39 235.383 152.39 224.84 152.39C214.298 152.39 214.298 152.39 203.755 152.39C193.212 152.39 193.212 152.39 182.669 152.39C172.126 152.39 172.126 152.39 161.583 152.39C151.04 152.39 151.04 152.39 140.498 152.39C129.955 152.39 129.955 152.39 119.412 152.39C108.869 152.39 108.869 152.39 98.3261 152.39C87.7833 152.39 87.7833 152.39 77.2404 152.39C66.6975 152.39 66.6975 98.9067 56.1547 98.9067Z" fill="#F19E20"/>
<path d="M56.1547 98.9067C66.6975 98.9067 66.6975 152.39 77.2404 152.39C87.7833 152.39 87.7833 152.39 98.3261 152.39C108.869 152.39 108.869 152.39 119.412 152.39C129.955 152.39 129.955 152.39 140.498 152.39C151.04 152.39 151.04 152.39 161.583 152.39C172.126 152.39 172.126 152.39 182.669 152.39C193.212 152.39 193.212 152.39 203.755 152.39C214.298 152.39 214.298 152.39 224.84 152.39C235.383 152.39 235.383 152.39 245.926 152.39C256.469 152.39 256.469 152.39 267.012 152.39C277.555 152.39 277.555 152.39 288.098 152.39C277.555 152.39 277.555 152.39 267.012 152.39C256.469 152.39 256.469 152.39 245.926 152.39C235.383 152.39 235.383 152.39 224.84 152.39C214.298 152.39 214.298 152.39 203.755 152.39C193.212 152.39 193.212 152.39 182.669 152.39C172.126 152.39 172.126 152.39 161.583 152.39C151.04 152.39 151.04 152.39 140.498 152.39C129.955 152.39 129.955 152.39 119.412 152.39C108.869 152.39 108.869 152.39 98.3261 152.39C87.7833 152.39 87.7833 152.39 77.2404 152.39C66.6975 152.39 66.6975 98.9067 56.1547 98.9067Z" fill="#F1A020"/>
<path d="M56.1547 98.9067C66.6975 98.9067 66.6975 152.39 77.2404 152.39C87.7833 152.39 87.7833 152.39 98.3261 152.39C108.869 152.39 108.869 152.39 119.412 152.39C129.955 152.39 129.955 152.39 140.498 152.39C151.04 152.39 151.04 152.39 161.583 152.39C172.126 152.39 172.126 152.39 182.669 152.39C193.212 152.39 193.212 152.39 203.755 152.39C214.298 152.39 214.298 152.39 224.84 152.39C235.383 152.39 235.383 152.39 245.926 152.39C256.469 152.39 256.469 152.39 267.012 152.39C277.555 152.39 277.555 152.39 288.098 152.39C277.555 152.39 277.555 152.39 267.012 152.39C256.469 152.39 256.469 152.39 245.926 152.39C235.383 152.39 235.383 152.39 224.84 152.39C214.298 152.39 214.298 152.39 203.755 152.39C193.212 152.39 193.212 152.39 182.669 152.39C172.126 152.39 172.126 152.39 161.583 152.39C151.04 152.39 151.04 152.39 140.498 152.39C129.955 152.39 129.955 152.39 119.412 152.39C108.869 152.39 108.869 152.39 98.3261 152.39C87.7833 152.39 87.7833 152.39 77.2404 152.39C66.6975 152.39 66.6975 98.9067 56.1547 98.9067Z" fill="#EC8520"/>
<path d="M56.1547 98.9067C66.6975 98.9067 66.6975 152.39 77.2404 152.39C87.7833 152.39 87.7833 152.39 98.3261 152.39C108.869 152.39 108.869 152.39 119.412 152.39C129.955 152.39 129.955 152.39 140.498 152.39C151.04 152.39 151.04 152.39 161.583 152.39C172.126 152.39 172.126 152.39 182.669 152.39C193.212 152.39 193.212 152.39 203.755 152.39C214.298 152.39 214.298 152.39 224.84 152.39C235.383 152.39 235.383 152.39 245.926 152.39C256.469 152.39 256.469 152.39 267.012 152.39C277.555 152.39 277.555 152.39 288.098 152.39C277.555 152.39 277.555 152.39 267.012 152.39C256.469 152.39 256.469 152.39 245.926 152.39C235.383 152.39 235.383 152.39 224.84 152.39C214.298 152.39 214.298 152.39 203.755 152.39C193.212 152.39 193.212 152.39 182.669 152.39C172.126 152.39 172.126 152.39 161.583 152.39C151.04 152.39 151.04 152.39 140.498 152.39C129.955 152.39 129.955 152.39 119.412 152.39C108.869 152.39 108.869 152.39 98.3261 152.39C87.7833 152.39 87.7833 152.39 77.2404 152.39C66.6975 152.39 66.6975 98.9067 56.1547 98.9067Z" fill="#EE8C20"/>
<path d="M56.1547 98.9067C66.6975 98.9067 66.6975 152.39 77.2404 152.39C87.7833 152.39 87.7833 152.39 98.3261 152.39C108.869 152.39 108.869 152.39 119.412 152.39C129.955 152.39 129.955 152.39 140.498 152.39C151.04 152.39 151.04 152.39 161.583 152.39C172.126 152.39 172.126 152.39 182.669 152.39C193.212 152.39 193.212 152.39 203.755 152.39C214.298 152.39 214.298 152.39 224.84 152.39C235.383 152.39 235.383 152.39 245.926 152.39C256.469 152.39 256.469 152.39 267.012 152.39C277.555 152.39 277.555 152.39 288.098 152.39C277.555 152.39 277.555 152.39 267.012 152.39C256.469 152.39 256.469 152.39 245.926 152.39C235.383 152.39 235.383 152.39 224.84 152.39C214.298 152.39 214.298 152.39 203.755 152.39C193.212 152.39 193.212 152.39 182.669 152.39C172.126 152.39 172.126 152.39 161.583 152.39C151.04 152.39 151.04 152.39 140.498 152.39C129.955 152.39 129.955 152.39 119.412 152.39C108.869 152.39 108.869 152.39 98.3261 152.39C87.7833 152.39 87.7833 152.39 77.2404 152.39C66.6975 152.39 66.6975 98.9067 56.1547 98.9067Z" fill="#E6641F"/>
<path d="M56.1547 98.9067C66.6975 98.9067 66.6975 152.39 77.2404 152.39C87.7833 152.39 87.7833 152.39 98.3261 152.39C108.869 152.39 108.869 152.39 119.412 152.39C129.955 152.39 129.955 152.39 140.498 152.39C151.04 152.39 151.04 152.39 161.583 152.39C172.126 152.39 172.126 152.39 182.669 152.39C193.212 152.39 193.212 152.39 203.755 152.39C214.298 152.39 214.298 152.39 224.84 152.39C235.383 152.39 235.383 152.39 245.926 152.39C256.469 152.39 256.469 152.39 267.012 152.39C277.555 152.39 277.555 152.39 288.098 152.39C277.555 152.39 277.555 152.39 267.012 152.39C256.469 152.39 256.469 152.39 245.926 152.39C235.383 152.39 235.383 152.39 224.84 152.39C214.298 152.39 214.298 152.39 203.755 152.39C193.212 152.39 193.212 152.39 182.669 152.39C172.126 152.39 172.126 152.39 161.583 152.39C151.04 152.39 151.04 152.39 140.498 152.39C129.955 152.39 129.955 152.39 119.412 152.39C108.869 152.39 108.869 152.39 98.3261 152.39C87.7833 152.39 87.7833 152.39 77.2404 152.39C66.6975 152.39 66.6975 98.9067 56.1547 98.9067Z" fill="#E0491E"/>
<path d="M56.1547 98.9067C66.6975 98.9067 66.6975 152.39 77.2404 152.39C87.7833 152.39 87.7833 152.39 98.3261 152.39C108.869 152.39 108.869 152.39 119.412 152.39C129.955 152.39 129.955 152.39 140.498 152.39C151.04 152.39 151.04 152.39 161.583 152.39C172.126 152.39 172.126 152.39 182.669 152.39C193.212 152.39 193.212 152.39 203.755 152.39C214.298 152.39 214.298 152.39 224.84 152.39C235.383 152.39 235.383 152.39 245.926 152.39C256.469 152.39 256.469 152.39 267.012 152.39C277.555 152.39 277.555 152.39 288.098 152.39C277.555 152.39 277.555 152.39 267.012 152.39C256.469 152.39 256.469 152.39 245.926 152.39C235.383 152.39 235.383 152.39 224.84 152.39C214.298 152.39 214.298 152.39 203.755 152.39C193.212 152.39 193.212 152.39 182.669 152.39C172.126 152.39 172.126 152.39 161.583 152.39C151.04 152.39 151.04 152.39 140.498 152.39C129.955 152.39 129.955 152.39 119.412 152.39C108.869 152.39 108.869 152.39 98.3261 152.39C87.7833 152.39 87.7833 152.39 77.2404 152.39C66.6975 152.39 66.6975 98.9067 56.1547 98.9067Z" fill="#E04C1E"/>
<path d="M56.1547 98.9067C66.6975 98.9067 66.6975 152.39 77.2404 152.39C87.7833 152.39 87.7833 152.39 98.3261 152.39C108.869 152.39 108.869 152.39 119.412 152.39C129.955 152.39 129.955 152.39 140.498 152.39C151.04 152.39 151.04 152.39 161.583 152.39C172.126 152.39 172.126 152.39 182.669 152.39C193.212 152.39 193.212 152.39 203.755 152.39C214.298 152.39 214.298 152.39 224.84 152.39C235.383 152.39 235.383 152.39 245.926 152.39C256.469 152.39 256.469 152.39 267.012 152.39C277.555 152.39 277.555 152.39 288.098 152.39C277.555 152.39 277.555 152.39 267.012 152.39C256.469 152.39 256.469 152.39 245.926 152.39C235.383 152.39 235.383 152.39 224.84 152.39C214.298 152.39 214.298 152.39 203.755 152.39C193.212 152.39 193.212 152.39 182.669 152.39C172.126 152.39 172.126 152.39 161.583 152.39C151.04 152.39 151.04 152.39 140.498 152.39C129.955 152.39 129.955 152.39 119.412 152.39C108.869 152.39 108.869 152.39 98.3261 152.39C87.7833 152.39 87.7833 152.39 77.2404 152.39C66.6975 152.39 66.6975 98.9067 56.1547 98.9067Z" fill="#D0021B"/>
<path d="M56.1547 98.9067C66.6975 98.9067 66.6975 152.39 77.2404 152.39C87.7833 152.39 87.7833 152.39 98.3261 152.39C108.869 152.39 108.869 152.39 119.412 152.39C129.955 152.39 129.955 152.39 140.498 152.39C151.04 152.39 151.04 152.39 161.583 152.39C172.126 152.39 172.126 152.39 182.669 152.39C193.212 152.39 193.212 152.39 203.755 152.39C214.298 152.39 214.298 152.39 224.84 152.39C235.383 152.39 235.383 152.39 245.926 152.39C256.469 152.39 256.469 152.39 267.012 152.39C277.555 152.39 277.555 152.39 288.098 152.39C277.555 152.39 277.555 152.39 267.012 152.39C256.469 152.39 256.469 152.39 245.926 152.39C235.383 152.39 235.383 152.39 224.84 152.39C214.298 152.39 214.298 152.39 203.755 152.39C193.212 152.39 193.212 152.39 182.669 152.39C172.126 152.39 172.126 152.39 161.583 152.39C151.04 152.39 151.04 152.39 140.498 152.39C129.955 152.39 129.955 152.39 119.412 152.39C108.869 152.39 108.869 152.39 98.3261 152.39C87.7833 152.39 87.7833 152.39 77.2404 152.39C66.6975 152.39 66.6975 98.9067 56.1547 98.9067Z" fill="#D5191C"/>
<path d="M56.1547 98.9067C66.6975 98.9067 66.6975 152.39 77.2404 152.39C87.7833 152.39 87.7833 152.39 98.3261 152.39C108.869 152.39 108.869 152.39 119.412 152.39C129.955 152.39 129.955 152.39 140.498 152.39C151.04 152.39 151.04 152.39 161.583 152.39C172.126 152.39 172.126 152.39 182.669 152.39C193.212 152.39 193.212 152.39 203.755 152.39C214.298 152.39 214.298 152.39 224.84 152.39C235.383 152.39 235.383 152.39 245.926 152.39C256.469 152.39 256.469 152.39 267.012 152.39C277.555 152.39 277.555 152.39 288.098 152.39C277.555 152.39 277.555 152.39 267.012 152.39C256.469 152.39 256.469 152.39 245.926 152.39C235.383 152.39 235.383 152.39 224.84 152.39C214.298 152.39 214.298 152.39 203.755 152.39C193.212 152.39 193.212 152.39 182.669 152.39C172.126 152.39 172.126 152.39 161.583 152.39C151.04 152.39 151.04 152.39 140.498 152.39C129.955 152.39 129.955 152.39 119.412 152.39C108.869 152.39 108.869 152.39 98.3261 152.39C87.7833 152.39 87.7833 152.39 77.2404 152.39C66.6975 152.39 66.6975 98.9067 56.1547 98.9067Z" fill="#E2521F"/>
<path d="M56.1547 98.9067C66.6975 98.9067 66.6975 152.39 77.2404 152.39C87.7833 152.39 87.7833 152.39 98.3261 152.39C108.869 152.39 108.869 152.39 119.412 152.39C129.955 152.39 129.955 152.39 140.498 152.39C151.04 152.39 151.04 152.39 161.583 152.39C172.126 152.39 172.126 152.39 182.669 152.39C193.212 152.39 193.212 152.39 203.755 152.39C214.298 152.39 214.298 152.39 224.84 152.39C235.383 152.39 235.383 152.39 245.926 152.39C256.469 152.39 256.469 152.39 267.012 152.39C277.555 152.39 277.555 152.39 288.098 152.39C277.555 152.39 277.555 152.39 267.012 152.39C256.469 152.39 256.469 152.39 245.926 152.39C235.383 152.39 235.383 152.39 224.84 152.39C214.298 152.39 214.298 152.39 203.755 152.39C193.212 152.39 193.212 152.39 182.669 152.39C172.126 152.39 172.126 152.39 161.583 152.39C151.04 152.39 151.04 152.39 140.498 152.39C129.955 152.39 129.955 152.39 119.412 152.39C108.869 152.39 108.869 152.39 98.3261 152.39C87.7833 152.39 87.7833 152.39 77.2404 152.39C66.6975 152.39 66.6975 98.9067 56.1547 98.9067Z" fill="#E6671F"/>
<path d="M56.1547 98.9067C66.6975 98.9067 66.6975 152.39 77.2404 152.39C87.7833 152.39 87.7833 152.39 98.3261 152.39C108.869 152.39 108.869 152.39 119.412 152.39C129.955 152.39 129.955 152.39 140.498 152.39C151.04 152.39 151.04 152.39 161.583 152.39C172.126 152.39 172.126 152.39 182.669 152.39C193.212 152.39 193.212 152.39 203.755 152.39C214.298 152.39 214.298 152.39 224.84 152.39C235.383 152.39 235.383 152.39 245.926 152.39C256.469 152.39 256.469 152.39 267.012 152.39C277.555 152.39 277.555 152.39 288.098 152.39C277.555 152.39 277.555 152.39 267.012 152.39C256.469 152.39 256.469 152.39 245.926 152.39C235.383 152.39 235.383 152.39 224.84 152.39C214.298 152.39 214.298 152.39 203.755 152.39C193.212 152.39 193.212 152.39 182.669 152.39C172.126 152.39 172.126 152.39 161.583 152.39C151.04 152.39 151.04 152.39 140.498 152.39C129.955 152.39 129.955 152.39 119.412 152.39C108.869 152.39 108.869 152.39 98.3261 152.39C87.7833 152.39 87.7833 152.39 77.2404 152.39C66.6975 152.39 66.6975 98.9067 56.1547 98.9067Z" fill="#F09821"/>
<path d="M56.1547 98.9067C66.6975 98.9067 66.6975 152.39 77.2404 152.39C87.7833 152.39 87.7833 152.39 98.3261 152.39C108.869 152.39 108.869 152.39 119.412 152.39C129.955 152.39 129.955 152.39 140.498 152.39C151.04 152.39 151.04 152.39 161.583 152.39C172.126 152.39 172.126 152.39 182.669 152.39C193.212 152.39 193.212 152.39 203.755 152.39C214.298 152.39 214.298 152.39 224.84 152.39C235.383 152.39 235.383 152.39 245.926 152.39C256.469 152.39 256.469 152.39 267.012 152.39C277.555 152.39 277.555 152.39 288.098 152.39C277.555 152.39 277.555 152.39 267.012 152.39C256.469 152.39 256.469 152.39 245.926 152.39C235.383 152.39 235.383 152.39 224.84 152.39C214.298 152.39 214.298 152.39 203.755 152.39C193.212 152.39 193.212 152.39 182.669 152.39C172.126 152.39 172.126 152.39 161.583 152.39C151.04 152.39 151.04 152.39 140.498 152.39C129.955 152.39 129.955 152.39 119.412 152.39C108.869 152.39 108.869 152.39 98.3261 152.39C87.7833 152.39 87.7833 152.39 77.2404 152.39C66.6975 152.39 66.6975 98.9067 56.1547 98.9067Z" fill="#E97520"/>
<path d="M56.1547 98.9067C66.6975 98.9067 66.6975 152.39 77.2404 152.39C87.7833 152.39 87.7833 152.39 98.3261 152.39C108.869 152.39 108.869 152.39 119.412 152.39C129.955 152.39 129.955 152.39 140.498 152.39C151.04 152.39 151.04 152.39 161.583 152.39C172.126 152.39 172.126 152.39 182.669 152.39C193.212 152.39 193.212 152.39 203.755 152.39C214.298 152.39 214.298 152.39 224.84 152.39C235.383 152.39 235.383 152.39 245.926 152.39C256.469 152.39 256.469 152.39 267.012 152.39C277.555 152.39 277.555 152.39 288.098 152.39C277.555 152.39 277.555 152.39 267.012 152.39C256.469 152.39 256.469 152.39 245.926 152.39C235.383 152.39 235.383 152.39 224.84 152.39C214.298 152.39 214.298 152.39 203.755 152.39C193.212 152.39 193.212 152.39 182.669 152.39C172.126 152.39 172.126 152.39 161.583 152.39C151.04 152.39 151.04 152.39 140.498 152.39C129.955 152.39 129.955 152.39 119.412 152.39C108.869 152.39 108.869 152.39 98.3261 152.39C87.7833 152.39 87.7833 152.39 77.2404 152.39C66.6975 152.39 66.6975 98.9067 56.1547 98.9067Z" fill="#E45E1F"/>
<path d="M56.1547 98.9067C66.6975 98.9067 66.6975 152.39 77.2404 152.39C87.7833 152.39 87.7833 152.39 98.3261 152.39C108.869 152.39 108.869 152.39 119.412 152.39C129.955 152.39 129.955 152.39 140.498 152.39C151.04 152.39 151.04 152.39 161.583 152.39C172.126 152.39 172.126 152.39 182.669 152.39C193.212 152.39 193.212 152.39 203.755 152.39C214.298 152.39 214.298 152.39 224.84 152.39C235.383 152.39 235.383 152.39 245.926 152.39C256.469 152.39 256.469 152.39 267.012 152.39C277.555 152.39 277.555 152.39 288.098 152.39C277.555 152.39 277.555 152.39 267.012 152.39C256.469 152.39 256.469 152.39 245.926 152.39C235.383 152.39 235.383 152.39 224.84 152.39C214.298 152.39 214.298 152.39 203.755 152.39C193.212 152.39 193.212 152.39 182.669 152.39C172.126 152.39 172.126 152.39 161.583 152.39C151.04 152.39 151.04 152.39 140.498 152.39C129.955 152.39 129.955 152.39 119.412 152.39C108.869 152.39 108.869 152.39 98.3261 152.39C87.7833 152.39 87.7833 152.39 77.2404 152.39C66.6975 152.39 66.6975 98.9067 56.1547 98.9067Z" fill="#E2551F"/>
<path d="M56.1547 98.9067C66.6975 98.9067 66.6975 152.39 77.2404 152.39C87.7833 152.39 87.7833 152.39 98.3261 152.39C108.869 152.39 108.869 152.39 119.412 152.39C129.955 152.39 129.955 152.39 140.498 152.39C151.04 152.39 151.04 152.39 161.583 152.39C172.126 152.39 172.126 152.39 182.669 152.39C193.212 152.39 193.212 152.39 203.755 152.39C214.298 152.39 214.298 152.39 224.84 152.39C235.383 152.39 235.383 152.39 245.926 152.39C256.469 152.39 256.469 152.39 267.012 152.39C277.555 152.39 277.555 152.39 288.098 152.39C277.555 152.39 277.555 152.39 267.012 152.39C256.469 152.39 256.469 152.39 245.926 152.39C235.383 152.39 235.383 152.39 224.84 152.39C214.298 152.39 214.298 152.39 203.755 152.39C193.212 152.39 193.212 152.39 182.669 152.39C172.126 152.39 172.126 152.39 161.583 152.39C151.04 152.39 151.04 152.39 140.498 152.39C129.955 152.39 129.955 152.39 119.412 152.39C108.869 152.39 108.869 152.39 98.3261 152.39C87.7833 152.39 87.7833 152.39 77.2404 152.39C66.6975 152.39 66.6975 98.9067 56.1547 98.9067Z" fill="#EF9120"/>
<path d="M56.1547 98.9067C66.6975 98.9067 66.6975 152.39 77.2404 152.39C87.7833 152.39 87.7833 152.39 98.3261 152.39C108.869 152.39 108.869 152.39 119.412 152.39C129.955 152.39 129.955 152.39 140.498 152.39C151.04 152.39 151.04 152.39 161.583 152.39C172.126 152.39 172.126 152.39 182.669 152.39C193.212 152.39 193.212 152.39 203.755 152.39C214.298 152.39 214.298 152.39 224.84 152.39C235.383 152.39 235.383 152.39 245.926 152.39C256.469 152.39 256.469 152.39 267.012 152.39C277.555 152.39 277.555 152.39 288.098 152.39C277.555 152.39 277.555 152.39 267.012 152.39C256.469 152.39 256.469 152.39 245.926 152.39C235.383 152.39 235.383 152.39 224.84 152.39C214.298 152.39 214.298 152.39 203.755 152.39C193.212 152.39 193.212 152.39 182.669 152.39C172.126 152.39 172.126 152.39 161.583 152.39C151.04 152.39 151.04 152.39 140.498 152.39C129.955 152.39 129.955 152.39 119.412 152.39C108.869 152.39 108.869 152.39 98.3261 152.39C87.7833 152.39 87.7833 152.39 77.2404 152.39C66.6975 152.39 66.6975 98.9067 56.1547 98.9067Z" fill="#F09C21"/>
<path d="M56.1547 98.9067C66.6975 98.9067 66.6975 152.39 77.2404 152.39C87.7833 152.39 87.7833 152.39 98.3261 152.39C108.869 152.39 108.869 152.39 119.412 152.39C129.955 152.39 129.955 152.39 140.498 152.39C151.04 152.39 151.04 152.39 161.583 152.39C172.126 152.39 172.126 152.39 182.669 152.39C193.212 152.39 193.212 152.39 203.755 152.39C214.298 152.39 214.298 152.39 224.84 152.39C235.383 152.39 235.383 152.39 245.926 152.39C256.469 152.39 256.469 152.39 267.012 152.39C277.555 152.39 277.555 152.39 288.098 152.39C277.555 152.39 277.555 152.39 267.012 152.39C256.469 152.39 256.469 152.39 245.926 152.39C235.383 152.39 235.383 152.39 224.84 152.39C214.298 152.39 214.298 152.39 203.755 152.39C193.212 152.39 193.212 152.39 182.669 152.39C172.126 152.39 172.126 152.39 161.583 152.39C151.04 152.39 151.04 152.39 140.498 152.39C129.955 152.39 129.955 152.39 119.412 152.39C108.869 152.39 108.869 152.39 98.3261 152.39C87.7833 152.39 87.7833 152.39 77.2404 152.39C66.6975 152.39 66.6975 98.9067 56.1547 98.9067Z" fill="#F2A920"/>
<path d="M56.1547 98.9067C66.6975 98.9067 66.6975 152.39 77.2404 152.39C87.7833 152.39 87.7833 152.39 98.3261 152.39C108.869 152.39 108.869 152.39 119.412 152.39C129.955 152.39 129.955 152.39 140.498 152.39C151.04 152.39 151.04 152.39 161.583 152.39C172.126 152.39 172.126 152.39 182.669 152.39C193.212 152.39 193.212 152.39 203.755 152.39C214.298 152.39 214.298 152.39 224.84 152.39C235.383 152.39 235.383 152.39 245.926 152.39C256.469 152.39 256.469 152.39 267.012 152.39C277.555 152.39 277.555 152.39 288.098 152.39C277.555 152.39 277.555 152.39 267.012 152.39C256.469 152.39 256.469 152.39 245.926 152.39C235.383 152.39 235.383 152.39 224.84 152.39C214.298 152.39 214.298 152.39 203.755 152.39C193.212 152.39 193.212 152.39 182.669 152.39C172.126 152.39 172.126 152.39 161.583 152.39C151.04 152.39 151.04 152.39 140.498 152.39C129.955 152.39 129.955 152.39 119.412 152.39C108.869 152.39 108.869 152.39 98.3261 152.39C87.7833 152.39 87.7833 152.39 77.2404 152.39C66.6975 152.39 66.6975 98.9067 56.1547 98.9067Z" fill="#F4B720"/>
<path d="M56.1547 98.9067C66.6975 98.9067 66.6975 152.39 77.2404 152.39C87.7833 152.39 87.7833 152.39 98.3261 152.39C108.869 152.39 108.869 152.39 119.412 152.39C129.955 152.39 129.955 152.39 140.498 152.39C151.04 152.39 151.04 152.39 161.583 152.39C172.126 152.39 172.126 152.39 182.669 152.39C193.212 152.39 193.212 152.39 203.755 152.39C214.298 152.39 214.298 152.39 224.84 152.39C235.383 152.39 235.383 152.39 245.926 152.39C256.469 152.39 256.469 152.39 267.012 152.39C277.555 152.39 277.555 152.39 288.098 152.39C277.555 152.39 277.555 152.39 267.012 152.39C256.469 152.39 256.469 152.39 245.926 152.39C235.383 152.39 235.383 152.39 224.84 152.39C214.298 152.39 214.298 152.39 203.755 152.39C193.212 152.39 193.212 152.39 182.669 152.39C172.126 152.39 172.126 152.39 161.583 152.39C151.04 152.39 151.04 152.39 140.498 152.39C129.955 152.39 129.955 152.39 119.412 152.39C108.869 152.39 108.869 152.39 98.3261 152.39C87.7833 152.39 87.7833 152.39 77.2404 152.39C66.6975 152.39 66.6975 98.9067 56.1547 98.9067Z" fill="#F2A520"/>
<path d="M56.1546 152.391H288.098" stroke="black"/>
<path d="M56.1546 152.391V159.012" stroke="black"/>
<path d="M57.14 161.85V169.123H56.2594V162.773H56.2167L54.4412 163.952V163.057L56.2594 161.85H57.14Z" fill="black"/>
<path d="M77.2404 152.391V159.012" stroke="black"/>
<path d="M74.9658 169.123V168.483L77.3664 165.856C77.6481 165.548 77.8801 165.28 78.0624 165.053C78.2447 164.823 78.3797 164.608 78.4673 164.407C78.5572 164.203 78.6022 163.99 78.6022 163.768C78.6022 163.512 78.5407 163.291 78.4175 163.103C78.2968 162.916 78.1311 162.772 77.9204 162.67C77.7097 162.568 77.4729 162.518 77.2102 162.518C76.9308 162.518 76.687 162.576 76.4786 162.692C76.2727 162.805 76.1129 162.965 75.9992 163.171C75.888 163.377 75.8323 163.618 75.8323 163.895H74.9943C74.9943 163.469 75.0925 163.095 75.289 162.773C75.4855 162.451 75.753 162.2 76.0916 162.02C76.4325 161.84 76.8148 161.75 77.2386 161.75C77.6647 161.75 78.0423 161.84 78.3714 162.02C78.7005 162.2 78.9585 162.443 79.1455 162.748C79.3326 163.054 79.4261 163.393 79.4261 163.768C79.4261 164.035 79.3775 164.297 79.2805 164.552C79.1858 164.806 79.0201 165.089 78.7833 165.401C78.5489 165.711 78.2234 166.09 77.8068 166.537L76.1732 168.285V168.341H79.5539V169.123H74.9658Z" fill="black"/>
<path d="M98.3261 152.391V159.012" stroke="black"/>
<path d="M98.3527 169.222C97.884 169.222 97.4661 169.142 97.0992 168.981C96.7346 168.82 96.4446 168.596 96.2292 168.309C96.0161 168.021 95.9001 167.686 95.8811 167.304H96.776C96.795 167.539 96.8755 167.741 97.0175 167.912C97.1596 168.08 97.3454 168.21 97.575 168.302C97.8047 168.395 98.0592 168.441 98.3385 168.441C98.651 168.441 98.928 168.386 99.1695 168.277C99.411 168.169 99.6004 168.017 99.7377 167.823C99.875 167.629 99.9436 167.404 99.9436 167.148C99.9436 166.881 99.8774 166.645 99.7448 166.442C99.6122 166.236 99.4181 166.075 99.1624 165.959C98.9067 165.843 98.5942 165.785 98.2249 165.785H97.6425V165.003H98.2249C98.5137 165.003 98.767 164.951 98.9848 164.847C99.205 164.743 99.3766 164.596 99.4998 164.407C99.6252 164.217 99.688 163.995 99.688 163.739C99.688 163.493 99.6335 163.279 99.5246 163.096C99.4157 162.914 99.2618 162.772 99.063 162.67C98.8665 162.568 98.6345 162.518 98.3669 162.518C98.116 162.518 97.8793 162.564 97.6567 162.656C97.4365 162.746 97.2566 162.877 97.1169 163.05C96.9773 163.221 96.9015 163.427 96.8897 163.668H96.0374C96.0516 163.287 96.1664 162.953 96.3819 162.667C96.5973 162.378 96.879 162.153 97.227 161.992C97.5774 161.831 97.9621 161.75 98.3811 161.75C98.831 161.75 99.2168 161.842 99.5388 162.024C99.8608 162.204 100.108 162.442 100.281 162.738C100.454 163.034 100.54 163.353 100.54 163.697C100.54 164.106 100.433 164.455 100.217 164.744C100.004 165.033 99.714 165.233 99.3471 165.344V165.401C99.8063 165.477 100.165 165.672 100.423 165.987C100.681 166.299 100.81 166.687 100.81 167.148C100.81 167.544 100.702 167.899 100.487 168.214C100.274 168.526 99.9827 168.772 99.6134 168.952C99.2441 169.132 98.8239 169.222 98.3527 169.222Z" fill="black"/>
<path d="M119.412 152.391V159.012" stroke="black"/>
<path d="M116.786 167.631V166.907L119.982 161.85H120.508V162.972H120.153L117.738 166.793V166.85H122.042V167.631H116.786ZM120.209 169.123V167.411V167.074V161.85H121.048V169.123H120.209Z" fill="black"/>
<path d="M140.498 152.391V159.012" stroke="black"/>
<path d="M140.481 169.222C140.064 169.222 139.689 169.139 139.355 168.974C139.022 168.808 138.754 168.581 138.553 168.292C138.352 168.003 138.241 167.674 138.223 167.304H139.075C139.108 167.634 139.257 167.906 139.522 168.121C139.79 168.334 140.109 168.441 140.481 168.441C140.779 168.441 141.045 168.371 141.277 168.231C141.511 168.092 141.694 167.9 141.827 167.656C141.962 167.41 142.029 167.132 142.029 166.822C142.029 166.504 141.96 166.221 141.82 165.973C141.683 165.722 141.493 165.524 141.252 165.38C141.01 165.235 140.734 165.162 140.424 165.16C140.202 165.157 139.973 165.192 139.739 165.263C139.505 165.331 139.312 165.42 139.16 165.529L138.336 165.429L138.777 161.85H142.555V162.631H139.515L139.259 164.776H139.302C139.451 164.658 139.638 164.559 139.863 164.481C140.088 164.403 140.322 164.364 140.566 164.364C141.011 164.364 141.408 164.471 141.756 164.684C142.106 164.894 142.381 165.183 142.58 165.55C142.781 165.917 142.882 166.336 142.882 166.807C142.882 167.271 142.777 167.686 142.569 168.05C142.363 168.412 142.079 168.699 141.717 168.91C141.355 169.118 140.943 169.222 140.481 169.222Z" fill="black"/>
<path d="M161.583 152.391V159.012" stroke="black"/>
<path d="M161.631 169.222C161.333 169.217 161.034 169.161 160.736 169.052C160.438 168.943 160.165 168.759 159.919 168.501C159.673 168.241 159.475 167.889 159.326 167.447C159.177 167.001 159.102 166.443 159.102 165.77C159.102 165.126 159.163 164.556 159.283 164.059C159.404 163.559 159.579 163.139 159.809 162.798C160.039 162.455 160.316 162.194 160.64 162.017C160.967 161.839 161.335 161.75 161.744 161.75C162.152 161.75 162.514 161.832 162.831 161.996C163.151 162.157 163.411 162.381 163.612 162.67C163.814 162.959 163.944 163.292 164.003 163.668H163.136C163.056 163.341 162.9 163.07 162.668 162.855C162.436 162.639 162.128 162.532 161.744 162.532C161.181 162.532 160.737 162.777 160.413 163.267C160.091 163.757 159.929 164.445 159.926 165.33H159.983C160.116 165.129 160.273 164.957 160.455 164.815C160.64 164.671 160.844 164.559 161.066 164.481C161.289 164.403 161.524 164.364 161.773 164.364C162.19 164.364 162.571 164.468 162.916 164.677C163.262 164.883 163.539 165.168 163.747 165.532C163.956 165.895 164.06 166.31 164.06 166.779C164.06 167.229 163.959 167.641 163.758 168.015C163.557 168.386 163.274 168.682 162.909 168.902C162.547 169.12 162.121 169.227 161.631 169.222ZM161.631 168.441C161.929 168.441 162.197 168.366 162.433 168.217C162.672 168.068 162.861 167.868 162.998 167.617C163.138 167.366 163.208 167.087 163.208 166.779C163.208 166.478 163.14 166.205 163.005 165.959C162.873 165.71 162.689 165.512 162.455 165.366C162.223 165.219 161.958 165.145 161.659 165.145C161.434 165.145 161.225 165.19 161.031 165.28C160.837 165.368 160.666 165.489 160.519 165.643C160.375 165.796 160.261 165.973 160.178 166.172C160.096 166.368 160.054 166.575 160.054 166.793C160.054 167.082 160.122 167.352 160.257 167.603C160.394 167.854 160.581 168.056 160.818 168.21C161.057 168.364 161.328 168.441 161.631 168.441Z" fill="black"/>
<path d="M182.669 152.391V159.012" stroke="black"/>
<path d="M180.793 169.123L184.045 162.688V162.631H180.295V161.85H184.955V162.674L181.716 169.123H180.793Z" fill="black"/>
<path d="M203.755 152.391V159.012" stroke="black"/>
<path d="M203.756 169.222C203.268 169.222 202.837 169.136 202.463 168.963C202.092 168.788 201.802 168.547 201.593 168.242C201.385 167.934 201.282 167.584 201.284 167.191C201.282 166.883 201.342 166.599 201.466 166.339C201.589 166.076 201.757 165.857 201.97 165.682C202.185 165.504 202.426 165.392 202.691 165.344V165.302C202.343 165.212 202.066 165.016 201.86 164.716C201.654 164.413 201.552 164.068 201.554 163.682C201.552 163.313 201.645 162.983 201.835 162.692C202.024 162.4 202.285 162.171 202.616 162.003C202.95 161.835 203.33 161.75 203.756 161.75C204.177 161.75 204.554 161.835 204.885 162.003C205.217 162.171 205.477 162.4 205.667 162.692C205.858 162.983 205.955 163.313 205.958 163.682C205.955 164.068 205.85 164.413 205.642 164.716C205.436 165.016 205.162 165.212 204.821 165.302V165.344C205.084 165.392 205.321 165.504 205.532 165.682C205.742 165.857 205.91 166.076 206.036 166.339C206.161 166.599 206.225 166.883 206.228 167.191C206.225 167.584 206.119 167.934 205.908 168.242C205.7 168.547 205.41 168.788 205.038 168.963C204.669 169.136 204.241 169.222 203.756 169.222ZM203.756 168.441C204.085 168.441 204.369 168.388 204.608 168.281C204.847 168.174 205.032 168.024 205.162 167.83C205.292 167.636 205.359 167.409 205.361 167.148C205.359 166.874 205.288 166.631 205.148 166.42C205.008 166.21 204.818 166.044 204.576 165.923C204.337 165.802 204.064 165.742 203.756 165.742C203.446 165.742 203.169 165.802 202.925 165.923C202.684 166.044 202.493 166.21 202.353 166.42C202.216 166.631 202.149 166.874 202.151 167.148C202.149 167.409 202.211 167.636 202.339 167.83C202.469 168.024 202.655 168.174 202.897 168.281C203.138 168.388 203.425 168.441 203.756 168.441ZM203.756 164.989C204.016 164.989 204.247 164.937 204.448 164.833C204.652 164.729 204.812 164.583 204.928 164.396C205.044 164.209 205.103 163.99 205.105 163.739C205.103 163.493 205.045 163.279 204.931 163.096C204.818 162.912 204.66 162.77 204.459 162.67C204.258 162.568 204.024 162.518 203.756 162.518C203.484 162.518 203.246 162.568 203.042 162.67C202.839 162.77 202.681 162.912 202.57 163.096C202.459 163.279 202.404 163.493 202.407 163.739C202.404 163.99 202.46 164.209 202.573 164.396C202.689 164.583 202.849 164.729 203.053 164.833C203.256 164.937 203.491 164.989 203.756 164.989Z" fill="black"/>
<path d="M224.84 152.391V159.012" stroke="black"/>
<path d="M224.788 161.75C225.087 161.753 225.385 161.81 225.683 161.921C225.982 162.032 226.254 162.217 226.5 162.475C226.746 162.731 226.944 163.08 227.093 163.523C227.242 163.965 227.317 164.52 227.317 165.188C227.317 165.834 227.255 166.408 227.132 166.91C227.011 167.41 226.836 167.831 226.607 168.174C226.379 168.518 226.102 168.778 225.776 168.956C225.451 169.133 225.084 169.222 224.675 169.222C224.268 169.222 223.904 169.142 223.585 168.981C223.267 168.817 223.007 168.591 222.803 168.302C222.602 168.011 222.473 167.674 222.416 167.29H223.283C223.361 167.624 223.516 167.9 223.748 168.118C223.982 168.333 224.291 168.441 224.675 168.441C225.236 168.441 225.679 168.196 226.003 167.706C226.33 167.216 226.493 166.523 226.493 165.628H226.436C226.304 165.827 226.146 165.999 225.964 166.143C225.782 166.288 225.579 166.399 225.357 166.477C225.134 166.555 224.897 166.594 224.646 166.594C224.23 166.594 223.847 166.491 223.499 166.285C223.154 166.077 222.877 165.792 222.668 165.429C222.462 165.065 222.359 164.648 222.359 164.179C222.359 163.734 222.459 163.327 222.658 162.958C222.859 162.586 223.141 162.29 223.503 162.07C223.868 161.85 224.296 161.743 224.788 161.75ZM224.788 162.532C224.49 162.532 224.221 162.606 223.982 162.755C223.746 162.902 223.557 163.101 223.418 163.352C223.28 163.601 223.212 163.876 223.212 164.179C223.212 164.482 223.278 164.758 223.411 165.007C223.546 165.253 223.729 165.45 223.961 165.596C224.195 165.741 224.462 165.813 224.76 165.813C224.985 165.813 225.194 165.769 225.389 165.682C225.583 165.592 225.752 165.47 225.896 165.316C226.043 165.16 226.158 164.983 226.241 164.787C226.324 164.588 226.365 164.381 226.365 164.165C226.365 163.881 226.296 163.615 226.159 163.366C226.024 163.118 225.837 162.916 225.598 162.763C225.361 162.609 225.091 162.532 224.788 162.532Z" fill="black"/>
<path d="M245.926 152.391V159.012" stroke="black"/>
<path d="M243.787 161.85V169.123H242.906V162.773H242.863L241.088 163.952V163.057L242.906 161.85H243.787ZM248.25 169.222C247.715 169.222 247.26 169.076 246.883 168.785C246.507 168.492 246.219 168.067 246.02 167.51C245.821 166.952 245.722 166.277 245.722 165.486C245.722 164.7 245.821 164.029 246.02 163.473C246.222 162.914 246.51 162.488 246.887 162.194C247.266 161.898 247.72 161.75 248.25 161.75C248.781 161.75 249.234 161.898 249.61 162.194C249.989 162.488 250.278 162.914 250.477 163.473C250.678 164.029 250.779 164.7 250.779 165.486C250.779 166.277 250.679 166.952 250.481 167.51C250.282 168.067 249.994 168.492 249.618 168.785C249.241 169.076 248.785 169.222 248.25 169.222ZM248.25 168.441C248.781 168.441 249.193 168.185 249.486 167.674C249.78 167.162 249.927 166.433 249.927 165.486C249.927 164.857 249.859 164.32 249.724 163.878C249.592 163.435 249.4 163.098 249.149 162.866C248.9 162.634 248.601 162.518 248.25 162.518C247.725 162.518 247.314 162.777 247.018 163.295C246.722 163.811 246.574 164.542 246.574 165.486C246.574 166.116 246.641 166.651 246.773 167.091C246.906 167.532 247.096 167.867 247.345 168.096C247.596 168.326 247.898 168.441 248.25 168.441Z" fill="black"/>
<path d="M267.012 152.391V159.012" stroke="black"/>
<path d="M265.673 161.85V169.123H264.793V162.773H264.75L262.974 163.952V163.057L264.793 161.85H265.673ZM270.322 161.85V169.123H269.441V162.773H269.398L267.623 163.952V163.057L269.441 161.85H270.322Z" fill="black"/>
<path d="M288.098 152.391V159.012" stroke="black"/>
<path d="M286.056 161.85V169.123H285.175V162.773H285.132L283.357 163.952V163.057L285.175 161.85H286.056ZM288.147 169.123V168.483L290.548 165.856C290.83 165.548 291.062 165.28 291.244 165.053C291.426 164.823 291.561 164.608 291.649 164.407C291.739 164.203 291.784 163.99 291.784 163.768C291.784 163.512 291.722 163.291 291.599 163.103C291.478 162.916 291.313 162.772 291.102 162.67C290.891 162.568 290.655 162.518 290.392 162.518C290.112 162.518 289.869 162.576 289.66 162.692C289.454 162.805 289.294 162.965 289.181 163.171C289.07 163.377 289.014 163.618 289.014 163.895H288.176C288.176 163.469 288.274 163.095 288.471 162.773C288.667 162.451 288.935 162.2 289.273 162.02C289.614 161.84 289.996 161.75 290.42 161.75C290.846 161.75 291.224 161.84 291.553 162.02C291.882 162.2 292.14 162.443 292.327 162.748C292.514 163.054 292.608 163.393 292.608 163.768C292.608 164.035 292.559 164.297 292.462 164.552C292.367 164.806 292.202 165.089 291.965 165.401C291.73 165.711 291.405 166.09 290.988 166.537L289.355 168.285V168.341H292.735V169.123H288.147Z" fill="black"/>
<path d="M56.1547 152.39V36.5092" stroke="black"/>
<path d="M56.1547 152.39H48.8301" stroke="black"/>
<path d="M42.0429 154.985C41.5079 154.985 41.0521 154.839 40.6757 154.548C40.2993 154.255 40.0116 153.83 39.8128 153.273C39.6139 152.715 39.5145 152.04 39.5145 151.249C39.5145 150.463 39.6139 149.792 39.8128 149.236C40.014 148.677 40.3028 148.251 40.6793 147.957C41.058 147.661 41.5126 147.513 42.0429 147.513C42.5732 147.513 43.0266 147.661 43.403 147.957C43.7818 148.251 44.0706 148.677 44.2695 149.236C44.4707 149.792 44.5713 150.463 44.5713 151.249C44.5713 152.04 44.4719 152.715 44.273 153.273C44.0741 153.83 43.7865 154.255 43.4101 154.548C43.0337 154.839 42.5779 154.985 42.0429 154.985ZM42.0429 154.204C42.5732 154.204 42.9851 153.948 43.2787 153.437C43.5722 152.925 43.719 152.196 43.719 151.249C43.719 150.62 43.6516 150.083 43.5166 149.641C43.384 149.198 43.1923 148.861 42.9413 148.629C42.6927 148.397 42.3933 148.281 42.0429 148.281C41.5173 148.281 41.1066 148.54 40.8106 149.058C40.5147 149.574 40.3668 150.305 40.3668 151.249C40.3668 151.879 40.433 152.414 40.5656 152.854C40.6982 153.295 40.8888 153.63 41.1373 153.859C41.3883 154.089 41.6901 154.204 42.0429 154.204Z" fill="black"/>
<path d="M56.1547 107.821H48.8301" stroke="black"/>
<path d="M42.1095 110.415C41.6928 110.415 41.3176 110.333 40.9838 110.167C40.65 110.001 40.3824 109.774 40.1812 109.485C39.98 109.196 39.8699 108.867 39.851 108.498H40.7032C40.7364 108.827 40.8855 109.099 41.1507 109.315C41.4182 109.528 41.7378 109.634 42.1095 109.634C42.4078 109.634 42.6729 109.564 42.9049 109.425C43.1393 109.285 43.3228 109.093 43.4554 108.849C43.5903 108.603 43.6578 108.325 43.6578 108.015C43.6578 107.698 43.5879 107.415 43.4483 107.166C43.3109 106.915 43.1215 106.718 42.8801 106.573C42.6386 106.429 42.3628 106.355 42.0527 106.353C41.8301 106.351 41.6017 106.385 41.3673 106.456C41.1329 106.525 40.94 106.613 40.7885 106.722L39.9646 106.623L40.4049 103.043H44.1833V103.825H41.1436L40.8879 105.969H40.9305C41.0796 105.851 41.2667 105.753 41.4916 105.675C41.7165 105.597 41.9509 105.558 42.1947 105.558C42.6398 105.558 43.0363 105.664 43.3843 105.877C43.7347 106.088 44.0093 106.377 44.2082 106.744C44.4094 107.111 44.51 107.53 44.51 108.001C44.51 108.465 44.4059 108.879 44.1975 109.244C43.9916 109.606 43.7075 109.892 43.3453 110.103C42.9831 110.311 42.5711 110.415 42.1095 110.415Z" fill="black"/>
<path d="M56.1547 89.9926H48.8301" stroke="black"/>
<path d="M40.4351 92.488L43.6879 86.0534V85.9966H39.9379V85.2153H44.597V86.0392L41.3584 92.488H40.4351Z" fill="black"/>
<path d="M56.1547 72.1648H48.8301" stroke="black"/>
<path d="M41.9958 67.2879C42.2941 67.2902 42.5924 67.3471 42.8907 67.4583C43.189 67.5696 43.4613 67.7543 43.7075 68.0123C43.9537 68.268 44.1514 68.6172 44.3005 69.0599C44.4497 69.5026 44.5242 70.0578 44.5242 70.7254C44.5242 71.3717 44.4627 71.9458 44.3396 72.4477C44.2188 72.9472 44.0437 73.3686 43.814 73.7119C43.5867 74.0552 43.3098 74.3156 42.9831 74.4931C42.6587 74.6707 42.2918 74.7595 41.8822 74.7595C41.475 74.7595 41.1116 74.679 40.792 74.518C40.4748 74.3546 40.2144 74.1285 40.0108 73.8397C39.8095 73.5485 39.6805 73.2112 39.6237 72.8276H40.4902C40.5683 73.1615 40.7233 73.4373 40.9554 73.6551C41.1897 73.8705 41.4987 73.9782 41.8822 73.9782C42.4433 73.9782 42.886 73.7332 43.2103 73.2431C43.537 72.7531 43.7004 72.0606 43.7004 71.1657H43.6436C43.511 71.3646 43.3536 71.5362 43.1713 71.6806C42.989 71.825 42.7866 71.9363 42.564 72.0144C42.3415 72.0926 42.1047 72.1316 41.8538 72.1316C41.4371 72.1316 41.0548 72.0286 40.7068 71.8227C40.3611 71.6143 40.0841 71.3291 39.8758 70.9669C39.6698 70.6023 39.5669 70.1856 39.5669 69.7169C39.5669 69.2718 39.6663 68.8646 39.8652 68.4953C40.0664 68.1236 40.3481 67.8276 40.7103 67.6075C41.0749 67.3873 41.5034 67.2808 41.9958 67.2879ZM41.9958 68.0691C41.6975 68.0691 41.4288 68.1437 41.1897 68.2928C40.953 68.4396 40.7648 68.6385 40.6251 68.8894C40.4878 69.138 40.4191 69.4138 40.4191 69.7169C40.4191 70.0199 40.4854 70.2957 40.618 70.5443C40.7529 70.7905 40.9364 70.987 41.1684 71.1338C41.4028 71.2782 41.6691 71.3504 41.9674 71.3504C42.1923 71.3504 42.4019 71.3066 42.596 71.219C42.7901 71.129 42.9594 71.0071 43.1038 70.8532C43.2506 70.697 43.3654 70.5206 43.4483 70.3241C43.5311 70.1252 43.5725 69.9181 43.5725 69.7026C43.5725 69.4186 43.5039 69.1522 43.3666 68.9036C43.2316 68.6551 43.0446 68.4538 42.8055 68.2999C42.5688 68.1461 42.2989 68.0691 41.9958 68.0691Z" fill="black"/>
<path d="M56.1547 54.337H48.8301" stroke="black"/>
<path d="M39.1806 49.5595V56.8323H38.3V50.4828H38.2573L36.4818 51.6618V50.7669L38.3 49.5595H39.1806ZM43.8291 49.5595V56.8323H42.9484V50.4828H42.9058L41.1302 51.6618V50.7669L42.9484 49.5595H43.8291Z" fill="black"/>
<path d="M56.1547 36.5092H48.8301" stroke="black"/>
<path d="M37.4619 31.7317V39.0044H36.5812V32.655H36.5386L34.763 33.8339V32.9391L36.5812 31.7317H37.4619ZM42.0109 39.1038C41.5421 39.1038 41.1243 39.0233 40.7573 38.8623C40.3927 38.7014 40.1027 38.4776 39.8873 38.1912C39.6742 37.9024 39.5582 37.5674 39.5393 37.1862H40.4342C40.4531 37.4206 40.5336 37.623 40.6756 37.7935C40.8177 37.9615 41.0035 38.0918 41.2332 38.1841C41.4628 38.2764 41.7173 38.3226 41.9967 38.3226C42.3092 38.3226 42.5862 38.2681 42.8276 38.1592C43.0691 38.0503 43.2585 37.8988 43.3958 37.7047C43.5331 37.5105 43.6018 37.2856 43.6018 37.03C43.6018 36.7624 43.5355 36.5269 43.4029 36.3233C43.2703 36.1173 43.0762 35.9563 42.8205 35.8403C42.5648 35.7243 42.2523 35.6663 41.883 35.6663H41.3006V34.8851H41.883C42.1719 34.8851 42.4252 34.833 42.643 34.7288C42.8631 34.6247 43.0348 34.4779 43.1579 34.2885C43.2834 34.0991 43.3461 33.8766 43.3461 33.6209C43.3461 33.3747 43.2916 33.1604 43.1827 32.9781C43.0738 32.7958 42.92 32.6538 42.7211 32.552C42.5246 32.4502 42.2926 32.3993 42.0251 32.3993C41.7741 32.3993 41.5374 32.4454 41.3148 32.5378C41.0947 32.6277 40.9148 32.7591 40.7751 32.932C40.6354 33.1024 40.5596 33.3084 40.5478 33.5498H39.6955C39.7097 33.1687 39.8246 32.8349 40.04 32.5484C40.2554 32.2596 40.5372 32.0347 40.8852 31.8737C41.2355 31.7127 41.6202 31.6322 42.0393 31.6322C42.4891 31.6322 42.875 31.7234 43.197 31.9057C43.5189 32.0856 43.7663 32.3235 43.9391 32.6195C44.112 32.9154 44.1984 33.235 44.1984 33.5783C44.1984 33.9878 44.0907 34.337 43.8752 34.6258C43.6622 34.9147 43.3721 35.1147 43.0052 35.226V35.2828C43.4645 35.3586 43.8231 35.5539 44.0812 35.8687C44.3392 36.1812 44.4683 36.5683 44.4683 37.03C44.4683 37.4253 44.3605 37.7804 44.1451 38.0953C43.932 38.4078 43.6408 38.654 43.2715 38.8339C42.9022 39.0139 42.482 39.1038 42.0109 39.1038Z" fill="black"/>
<path d="M6.04102 10.0757V11.0894H0.363281C0.355469 10.8354 0.396484 10.5913 0.486328 10.3569C0.630859 9.97021 0.861328 9.58936 1.17773 9.21436C1.49805 8.83936 1.95898 8.40576 2.56055 7.91357C3.49414 7.14795 4.125 6.54248 4.45312 6.09717C4.78125 5.64795 4.94531 5.22412 4.94531 4.82568C4.94531 4.40771 4.79492 4.05615 4.49414 3.771C4.19727 3.48193 3.80859 3.3374 3.32812 3.3374C2.82031 3.3374 2.41406 3.48975 2.10938 3.79443C1.80469 4.09912 1.65039 4.521 1.64648 5.06006L0.5625 4.94873C0.636719 4.14014 0.916016 3.5249 1.40039 3.10303C1.88477 2.67725 2.53516 2.46436 3.35156 2.46436C4.17578 2.46436 4.82812 2.69287 5.30859 3.1499C5.78906 3.60693 6.0293 4.17334 6.0293 4.84912C6.0293 5.19287 5.95898 5.53076 5.81836 5.86279C5.67773 6.19482 5.44336 6.54443 5.11523 6.91162C4.79102 7.27881 4.25 7.78271 3.49219 8.42334C2.85938 8.95459 2.45312 9.31592 2.27344 9.50732C2.09375 9.69482 1.94531 9.88428 1.82812 10.0757H6.04102ZM7.17773 6.85303C7.17773 5.8374 7.28125 5.021 7.48828 4.40381C7.69922 3.78271 8.00977 3.3042 8.41992 2.96826C8.83398 2.63232 9.35352 2.46436 9.97852 2.46436C10.4395 2.46436 10.8438 2.55811 11.1914 2.74561C11.5391 2.9292 11.8262 3.19678 12.0527 3.54834C12.2793 3.896 12.457 4.32178 12.5859 4.82568C12.7148 5.32568 12.7793 6.00146 12.7793 6.85303C12.7793 7.86084 12.6758 8.67529 12.4688 9.29639C12.2617 9.91357 11.9512 10.3921 11.5371 10.7319C11.127 11.0679 10.6074 11.2358 9.97852 11.2358C9.15039 11.2358 8.5 10.939 8.02734 10.3452C7.46094 9.63037 7.17773 8.46631 7.17773 6.85303ZM8.26172 6.85303C8.26172 8.26318 8.42578 9.20264 8.75391 9.67139C9.08594 10.1362 9.49414 10.3687 9.97852 10.3687C10.4629 10.3687 10.8691 10.1343 11.1973 9.66553C11.5293 9.19678 11.6953 8.25928 11.6953 6.85303C11.6953 5.43896 11.5293 4.49951 11.1973 4.03467C10.8691 3.56982 10.459 3.3374 9.9668 3.3374C9.48242 3.3374 9.0957 3.54248 8.80664 3.95264C8.44336 4.47607 8.26172 5.44287 8.26172 6.85303ZM17.8301 11.0894H16.7754V4.36865C16.5215 4.61084 16.1875 4.85303 15.7734 5.09521C15.3633 5.3374 14.9941 5.51904 14.666 5.64014V4.62061C15.2559 4.34326 15.7715 4.00732 16.2129 3.61279C16.6543 3.21826 16.9668 2.83545 17.1504 2.46436H17.8301V11.0894ZM26.0098 4.60303L24.9609 4.68506C24.8672 4.271 24.7344 3.97021 24.5625 3.78271C24.2773 3.48193 23.9258 3.33154 23.5078 3.33154C23.1719 3.33154 22.877 3.42529 22.623 3.61279C22.291 3.85498 22.0293 4.2085 21.8379 4.67334C21.6465 5.13818 21.5469 5.80029 21.5391 6.65967C21.793 6.27295 22.1035 5.98584 22.4707 5.79834C22.8379 5.61084 23.2227 5.51709 23.625 5.51709C24.3281 5.51709 24.9258 5.77686 25.418 6.29639C25.9141 6.81201 26.1621 7.47998 26.1621 8.30029C26.1621 8.83936 26.0449 9.34131 25.8105 9.80615C25.5801 10.2671 25.2617 10.6206 24.8555 10.8667C24.4492 11.1128 23.9883 11.2358 23.4727 11.2358C22.5938 11.2358 21.877 10.9136 21.3223 10.269C20.7676 9.62061 20.4902 8.5542 20.4902 7.06982C20.4902 5.40967 20.7969 4.20264 21.4102 3.44873C21.9453 2.79248 22.666 2.46436 23.5723 2.46436C24.248 2.46436 24.8008 2.65381 25.2305 3.03271C25.6641 3.41162 25.9238 3.93506 26.0098 4.60303ZM21.7031 8.30615C21.7031 8.66943 21.7793 9.01709 21.9316 9.34912C22.0879 9.68115 22.3047 9.93506 22.582 10.1108C22.8594 10.2827 23.1504 10.3687 23.4551 10.3687C23.9004 10.3687 24.2832 10.189 24.6035 9.82959C24.9238 9.47021 25.084 8.98193 25.084 8.36475C25.084 7.771 24.9258 7.3042 24.6094 6.96436C24.293 6.62061 23.8945 6.44873 23.4141 6.44873C22.9375 6.44873 22.5332 6.62061 22.2012 6.96436C21.8691 7.3042 21.7031 7.75146 21.7031 8.30615Z" fill="black"/>
</svg>
