<svg width="295" height="173" viewBox="0 0 295 173" fill="none" xmlns="http://www.w3.org/2000/svg">
<path d="M56.1547 50.9943C66.6975 50.9943 66.6975 58.2369 77.2404 58.2369C87.7833 58.2369 87.7833 50.9943 98.3261 50.9943C108.869 50.9943 108.869 43.7517 119.412 43.7517C129.955 43.7517 129.955 58.2369 140.498 58.2369C151.04 58.2369 151.04 87.2072 161.583 87.2072C172.126 87.2072 172.126 152.39 182.669 152.39C193.212 152.39 193.212 152.39 203.755 152.39C214.298 152.39 214.298 58.2369 224.84 58.2369C235.383 58.2369 235.383 58.2369 245.926 58.2369C256.469 58.2369 256.469 152.39 267.012 152.39C277.555 152.39 277.555 50.9943 288.098 50.9943C277.555 50.9943 277.555 152.39 267.012 152.39C256.469 152.39 256.469 58.2369 245.926 58.2369C235.383 58.2369 235.383 58.2369 224.84 58.2369C214.298 58.2369 214.298 152.39 203.755 152.39C193.212 152.39 193.212 152.39 182.669 152.39C172.126 152.39 172.126 152.39 161.583 152.39C151.04 152.39 151.04 58.2369 140.498 58.2369C129.955 58.2369 129.955 43.7517 119.412 43.7517C108.869 43.7517 108.869 50.9943 98.3261 50.9943C87.7833 50.9943 87.7833 58.2369 77.2404 58.2369C66.6975 58.2369 66.6975 50.9943 56.1547 50.9943Z" fill="#F7DB1D"/>
<path d="M56.1547 50.9943C66.6975 50.9943 66.6975 58.2369 77.2404 58.2369C87.7833 58.2369 87.7833 50.9943 98.3261 50.9943C108.869 50.9943 108.869 43.7517 119.412 43.7517C129.955 43.7517 129.955 58.2369 140.498 58.2369C151.04 58.2369 151.04 87.2072 161.583 87.2072C172.126 87.2072 172.126 72.722 182.669 72.722C193.212 72.722 193.212 65.4794 203.755 65.4794C214.298 65.4794 214.298 58.2369 224.84 58.2369C235.383 58.2369 235.383 58.2369 245.926 58.2369C256.469 58.2369 256.469 65.4794 267.012 65.4794C277.555 65.4794 277.555 50.9943 288.098 50.9943C277.555 50.9943 277.555 152.39 267.012 152.39C256.469 152.39 256.469 58.2369 245.926 58.2369C235.383 58.2369 235.383 58.2369 224.84 58.2369C214.298 58.2369 214.298 152.39 203.755 152.39C193.212 152.39 193.212 72.722 182.669 72.722C172.126 72.722 172.126 87.2072 161.583 87.2072C151.04 87.2072 151.04 58.2369 140.498 58.2369C129.955 58.2369 129.955 43.7517 119.412 43.7517C108.869 43.7517 108.869 50.9943 98.3261 50.9943C87.7833 50.9943 87.7833 58.2369 77.2404 58.2369C66.6975 58.2369 66.6975 50.9943 56.1547 50.9943Z" fill="#F7D71E"/>
<path d="M56.1547 50.9943C66.6975 50.9943 66.6975 58.2369 77.2404 58.2369C87.7833 58.2369 87.7833 50.9943 98.3261 50.9943C108.869 50.9943 108.869 152.39 119.412 152.39C129.955 152.39 129.955 58.2369 140.498 58.2369C151.04 58.2369 151.04 152.39 161.583 152.39C172.126 152.39 172.126 152.39 182.669 152.39C193.212 152.39 193.212 152.39 203.755 152.39C214.298 152.39 214.298 58.2369 224.84 58.2369C235.383 58.2369 235.383 58.2369 245.926 58.2369C256.469 58.2369 256.469 152.39 267.012 152.39C277.555 152.39 277.555 50.9943 288.098 50.9943C277.555 50.9943 277.555 152.39 267.012 152.39C256.469 152.39 256.469 152.39 245.926 152.39C235.383 152.39 235.383 152.39 224.84 152.39C214.298 152.39 214.298 152.39 203.755 152.39C193.212 152.39 193.212 152.39 182.669 152.39C172.126 152.39 172.126 152.39 161.583 152.39C151.04 152.39 151.04 152.39 140.498 152.39C129.955 152.39 129.955 152.39 119.412 152.39C108.869 152.39 108.869 50.9943 98.3261 50.9943C87.7833 50.9943 87.7833 152.39 77.2404 152.39C66.6975 152.39 66.6975 50.9943 56.1547 50.9943Z" fill="#F7D61E"/>
<path d="M56.1547 50.9943C66.6975 50.9943 66.6975 58.2369 77.2404 58.2369C87.7833 58.2369 87.7833 50.9943 98.3261 50.9943C108.869 50.9943 108.869 43.7517 119.412 43.7517C129.955 43.7517 129.955 58.2369 140.498 58.2369C151.04 58.2369 151.04 87.2072 161.583 87.2072C172.126 87.2072 172.126 72.722 182.669 72.722C193.212 72.722 193.212 152.39 203.755 152.39C214.298 152.39 214.298 58.2369 224.84 58.2369C235.383 58.2369 235.383 58.2369 245.926 58.2369C256.469 58.2369 256.469 152.39 267.012 152.39C277.555 152.39 277.555 50.9943 288.098 50.9943C277.555 50.9943 277.555 152.39 267.012 152.39C256.469 152.39 256.469 58.2369 245.926 58.2369C235.383 58.2369 235.383 58.2369 224.84 58.2369C214.298 58.2369 214.298 152.39 203.755 152.39C193.212 152.39 193.212 152.39 182.669 152.39C172.126 152.39 172.126 87.2072 161.583 87.2072C151.04 87.2072 151.04 58.2369 140.498 58.2369C129.955 58.2369 129.955 43.7517 119.412 43.7517C108.869 43.7517 108.869 50.9943 98.3261 50.9943C87.7833 50.9943 87.7833 58.2369 77.2404 58.2369C66.6975 58.2369 66.6975 50.9943 56.1547 50.9943Z" fill="#F7D91E"/>
<path d="M56.1547 50.9943C66.6975 50.9943 66.6975 152.39 77.2404 152.39C87.7833 152.39 87.7833 50.9943 98.3261 50.9943C108.869 50.9943 108.869 152.39 119.412 152.39C129.955 152.39 129.955 152.39 140.498 152.39C151.04 152.39 151.04 152.39 161.583 152.39C172.126 152.39 172.126 152.39 182.669 152.39C193.212 152.39 193.212 152.39 203.755 152.39C214.298 152.39 214.298 152.39 224.84 152.39C235.383 152.39 235.383 152.39 245.926 152.39C256.469 152.39 256.469 152.39 267.012 152.39C277.555 152.39 277.555 50.9943 288.098 50.9943V152.39C277.555 152.39 277.555 152.39 267.012 152.39C256.469 152.39 256.469 152.39 245.926 152.39C235.383 152.39 235.383 152.39 224.84 152.39C214.298 152.39 214.298 152.39 203.755 152.39C193.212 152.39 193.212 152.39 182.669 152.39C172.126 152.39 172.126 152.39 161.583 152.39C151.04 152.39 151.04 152.39 140.498 152.39C129.955 152.39 129.955 152.39 119.412 152.39C108.869 152.39 108.869 152.39 98.3261 152.39C87.7833 152.39 87.7833 152.39 77.2404 152.39C66.6975 152.39 66.6975 152.39 56.1547 152.39V50.9943Z" fill="#F7D41E"/>
<path d="M56.1547 50.9943C66.6975 50.9943 66.6975 58.2369 77.2404 58.2369C87.7833 58.2369 87.7833 50.9943 98.3261 50.9943C108.869 50.9943 108.869 43.7517 119.412 43.7517C129.955 43.7517 129.955 58.2369 140.498 58.2369C151.04 58.2369 151.04 152.39 161.583 152.39C172.126 152.39 172.126 152.39 182.669 152.39C193.212 152.39 193.212 152.39 203.755 152.39C214.298 152.39 214.298 58.2369 224.84 58.2369C235.383 58.2369 235.383 58.2369 245.926 58.2369C256.469 58.2369 256.469 152.39 267.012 152.39C277.555 152.39 277.555 50.9943 288.098 50.9943C277.555 50.9943 277.555 152.39 267.012 152.39C256.469 152.39 256.469 58.2369 245.926 58.2369C235.383 58.2369 235.383 58.2369 224.84 58.2369C214.298 58.2369 214.298 152.39 203.755 152.39C193.212 152.39 193.212 152.39 182.669 152.39C172.126 152.39 172.126 152.39 161.583 152.39C151.04 152.39 151.04 58.2369 140.498 58.2369C129.955 58.2369 129.955 152.39 119.412 152.39C108.869 152.39 108.869 50.9943 98.3261 50.9943C87.7833 50.9943 87.7833 58.2369 77.2404 58.2369C66.6975 58.2369 66.6975 50.9943 56.1547 50.9943Z" fill="#F7D31E"/>
<path d="M56.1547 50.9943C66.6975 50.9943 66.6975 152.39 77.2404 152.39C87.7833 152.39 87.7833 50.9943 98.3261 50.9943C108.869 50.9943 108.869 152.39 119.412 152.39C129.955 152.39 129.955 152.39 140.498 152.39C151.04 152.39 151.04 152.39 161.583 152.39C172.126 152.39 172.126 152.39 182.669 152.39C193.212 152.39 193.212 152.39 203.755 152.39C214.298 152.39 214.298 152.39 224.84 152.39C235.383 152.39 235.383 152.39 245.926 152.39C256.469 152.39 256.469 152.39 267.012 152.39C277.555 152.39 277.555 50.9943 288.098 50.9943C277.555 50.9943 277.555 152.39 267.012 152.39C256.469 152.39 256.469 152.39 245.926 152.39C235.383 152.39 235.383 152.39 224.84 152.39C214.298 152.39 214.298 152.39 203.755 152.39C193.212 152.39 193.212 152.39 182.669 152.39C172.126 152.39 172.126 152.39 161.583 152.39C151.04 152.39 151.04 152.39 140.498 152.39C129.955 152.39 129.955 152.39 119.412 152.39C108.869 152.39 108.869 50.9943 98.3261 50.9943C87.7833 50.9943 87.7833 152.39 77.2404 152.39C66.6975 152.39 66.6975 50.9943 56.1547 50.9943Z" fill="#F7D21E"/>
<path d="M56.1547 50.9943C66.6975 50.9943 66.6975 152.39 77.2404 152.39C87.7833 152.39 87.7833 50.9943 98.3261 50.9943C108.869 50.9943 108.869 152.39 119.412 152.39C129.955 152.39 129.955 152.39 140.498 152.39C151.04 152.39 151.04 152.39 161.583 152.39C172.126 152.39 172.126 152.39 182.669 152.39C193.212 152.39 193.212 152.39 203.755 152.39C214.298 152.39 214.298 152.39 224.84 152.39C235.383 152.39 235.383 152.39 245.926 152.39C256.469 152.39 256.469 152.39 267.012 152.39C277.555 152.39 277.555 50.9943 288.098 50.9943C277.555 50.9943 277.555 152.39 267.012 152.39C256.469 152.39 256.469 152.39 245.926 152.39C235.383 152.39 235.383 152.39 224.84 152.39C214.298 152.39 214.298 152.39 203.755 152.39C193.212 152.39 193.212 152.39 182.669 152.39C172.126 152.39 172.126 152.39 161.583 152.39C151.04 152.39 151.04 152.39 140.498 152.39C129.955 152.39 129.955 152.39 119.412 152.39C108.869 152.39 108.869 50.9943 98.3261 50.9943C87.7833 50.9943 87.7833 152.39 77.2404 152.39C66.6975 152.39 66.6975 50.9943 56.1547 50.9943Z" fill="#F7CD1F"/>
<path d="M56.1547 50.9943C66.6975 50.9943 66.6975 152.39 77.2404 152.39C87.7833 152.39 87.7833 50.9943 98.3261 50.9943C108.869 50.9943 108.869 152.39 119.412 152.39C129.955 152.39 129.955 152.39 140.498 152.39C151.04 152.39 151.04 152.39 161.583 152.39C172.126 152.39 172.126 152.39 182.669 152.39C193.212 152.39 193.212 152.39 203.755 152.39C214.298 152.39 214.298 152.39 224.84 152.39C235.383 152.39 235.383 152.39 245.926 152.39C256.469 152.39 256.469 152.39 267.012 152.39C277.555 152.39 277.555 50.9943 288.098 50.9943C277.555 50.9943 277.555 152.39 267.012 152.39C256.469 152.39 256.469 152.39 245.926 152.39C235.383 152.39 235.383 152.39 224.84 152.39C214.298 152.39 214.298 152.39 203.755 152.39C193.212 152.39 193.212 152.39 182.669 152.39C172.126 152.39 172.126 152.39 161.583 152.39C151.04 152.39 151.04 152.39 140.498 152.39C129.955 152.39 129.955 152.39 119.412 152.39C108.869 152.39 108.869 50.9943 98.3261 50.9943C87.7833 50.9943 87.7833 152.39 77.2404 152.39C66.6975 152.39 66.6975 50.9943 56.1547 50.9943Z" fill="#F7D01E"/>
<path d="M56.1547 50.9943C66.6975 50.9943 66.6975 152.39 77.2404 152.39C87.7833 152.39 87.7833 50.9943 98.3261 50.9943C108.869 50.9943 108.869 152.39 119.412 152.39C129.955 152.39 129.955 152.39 140.498 152.39C151.04 152.39 151.04 152.39 161.583 152.39C172.126 152.39 172.126 152.39 182.669 152.39C193.212 152.39 193.212 152.39 203.755 152.39C214.298 152.39 214.298 152.39 224.84 152.39C235.383 152.39 235.383 152.39 245.926 152.39C256.469 152.39 256.469 152.39 267.012 152.39C277.555 152.39 277.555 50.9943 288.098 50.9943C277.555 50.9943 277.555 152.39 267.012 152.39C256.469 152.39 256.469 152.39 245.926 152.39C235.383 152.39 235.383 152.39 224.84 152.39C214.298 152.39 214.298 152.39 203.755 152.39C193.212 152.39 193.212 152.39 182.669 152.39C172.126 152.39 172.126 152.39 161.583 152.39C151.04 152.39 151.04 152.39 140.498 152.39C129.955 152.39 129.955 152.39 119.412 152.39C108.869 152.39 108.869 50.9943 98.3261 50.9943C87.7833 50.9943 87.7833 152.39 77.2404 152.39C66.6975 152.39 66.6975 50.9943 56.1547 50.9943Z" fill="#F7CF1E"/>
<path d="M56.1547 50.9943C66.6975 50.9943 66.6975 152.39 77.2404 152.39C87.7833 152.39 87.7833 50.9943 98.3261 50.9943C108.869 50.9943 108.869 152.39 119.412 152.39C129.955 152.39 129.955 152.39 140.498 152.39C151.04 152.39 151.04 152.39 161.583 152.39C172.126 152.39 172.126 152.39 182.669 152.39C193.212 152.39 193.212 152.39 203.755 152.39C214.298 152.39 214.298 152.39 224.84 152.39C235.383 152.39 235.383 152.39 245.926 152.39C256.469 152.39 256.469 152.39 267.012 152.39C277.555 152.39 277.555 50.9943 288.098 50.9943C277.555 50.9943 277.555 152.39 267.012 152.39C256.469 152.39 256.469 152.39 245.926 152.39C235.383 152.39 235.383 152.39 224.84 152.39C214.298 152.39 214.298 152.39 203.755 152.39C193.212 152.39 193.212 152.39 182.669 152.39C172.126 152.39 172.126 152.39 161.583 152.39C151.04 152.39 151.04 152.39 140.498 152.39C129.955 152.39 129.955 152.39 119.412 152.39C108.869 152.39 108.869 50.9943 98.3261 50.9943C87.7833 50.9943 87.7833 152.39 77.2404 152.39C66.6975 152.39 66.6975 50.9943 56.1547 50.9943Z" fill="#F6CC1F"/>
<path d="M56.1547 50.9943C66.6975 50.9943 66.6975 152.39 77.2404 152.39C87.7833 152.39 87.7833 50.9943 98.3261 50.9943C108.869 50.9943 108.869 152.39 119.412 152.39C129.955 152.39 129.955 152.39 140.498 152.39C151.04 152.39 151.04 152.39 161.583 152.39C172.126 152.39 172.126 152.39 182.669 152.39C193.212 152.39 193.212 152.39 203.755 152.39C214.298 152.39 214.298 152.39 224.84 152.39C235.383 152.39 235.383 152.39 245.926 152.39C256.469 152.39 256.469 152.39 267.012 152.39C277.555 152.39 277.555 50.9943 288.098 50.9943C277.555 50.9943 277.555 152.39 267.012 152.39C256.469 152.39 256.469 152.39 245.926 152.39C235.383 152.39 235.383 152.39 224.84 152.39C214.298 152.39 214.298 152.39 203.755 152.39C193.212 152.39 193.212 152.39 182.669 152.39C172.126 152.39 172.126 152.39 161.583 152.39C151.04 152.39 151.04 152.39 140.498 152.39C129.955 152.39 129.955 152.39 119.412 152.39C108.869 152.39 108.869 50.9943 98.3261 50.9943C87.7833 50.9943 87.7833 152.39 77.2404 152.39C66.6975 152.39 66.6975 50.9943 56.1547 50.9943Z" fill="#F6C91F"/>
<path d="M56.1547 50.9943C66.6975 50.9943 66.6975 152.39 77.2404 152.39C87.7833 152.39 87.7833 50.9943 98.3261 50.9943C108.869 50.9943 108.869 152.39 119.412 152.39C129.955 152.39 129.955 152.39 140.498 152.39C151.04 152.39 151.04 152.39 161.583 152.39C172.126 152.39 172.126 152.39 182.669 152.39C193.212 152.39 193.212 152.39 203.755 152.39C214.298 152.39 214.298 152.39 224.84 152.39C235.383 152.39 235.383 152.39 245.926 152.39C256.469 152.39 256.469 152.39 267.012 152.39C277.555 152.39 277.555 50.9943 288.098 50.9943C277.555 50.9943 277.555 152.39 267.012 152.39C256.469 152.39 256.469 152.39 245.926 152.39C235.383 152.39 235.383 152.39 224.84 152.39C214.298 152.39 214.298 152.39 203.755 152.39C193.212 152.39 193.212 152.39 182.669 152.39C172.126 152.39 172.126 152.39 161.583 152.39C151.04 152.39 151.04 152.39 140.498 152.39C129.955 152.39 129.955 152.39 119.412 152.39C108.869 152.39 108.869 50.9943 98.3261 50.9943C87.7833 50.9943 87.7833 152.39 77.2404 152.39C66.6975 152.39 66.6975 50.9943 56.1547 50.9943Z" fill="#F6C61F"/>
<path d="M56.1547 50.9943C66.6975 50.9943 66.6975 152.39 77.2404 152.39C87.7833 152.39 87.7833 50.9943 98.3261 50.9943C108.869 50.9943 108.869 152.39 119.412 152.39C129.955 152.39 129.955 152.39 140.498 152.39C151.04 152.39 151.04 152.39 161.583 152.39C172.126 152.39 172.126 152.39 182.669 152.39C193.212 152.39 193.212 152.39 203.755 152.39C214.298 152.39 214.298 152.39 224.84 152.39C235.383 152.39 235.383 152.39 245.926 152.39C256.469 152.39 256.469 152.39 267.012 152.39C277.555 152.39 277.555 50.9943 288.098 50.9943C277.555 50.9943 277.555 152.39 267.012 152.39C256.469 152.39 256.469 152.39 245.926 152.39C235.383 152.39 235.383 152.39 224.84 152.39C214.298 152.39 214.298 152.39 203.755 152.39C193.212 152.39 193.212 152.39 182.669 152.39C172.126 152.39 172.126 152.39 161.583 152.39C151.04 152.39 151.04 152.39 140.498 152.39C129.955 152.39 129.955 152.39 119.412 152.39C108.869 152.39 108.869 50.9943 98.3261 50.9943C87.7833 50.9943 87.7833 152.39 77.2404 152.39C66.6975 152.39 66.6975 50.9943 56.1547 50.9943Z" fill="#F6C41F"/>
<path d="M56.1547 50.9943C66.6975 50.9943 66.6975 152.39 77.2404 152.39C87.7833 152.39 87.7833 50.9943 98.3261 50.9943C108.869 50.9943 108.869 152.39 119.412 152.39C129.955 152.39 129.955 152.39 140.498 152.39C151.04 152.39 151.04 152.39 161.583 152.39C172.126 152.39 172.126 152.39 182.669 152.39C193.212 152.39 193.212 152.39 203.755 152.39C214.298 152.39 214.298 152.39 224.84 152.39C235.383 152.39 235.383 152.39 245.926 152.39C256.469 152.39 256.469 152.39 267.012 152.39C277.555 152.39 277.555 50.9943 288.098 50.9943C277.555 50.9943 277.555 152.39 267.012 152.39C256.469 152.39 256.469 152.39 245.926 152.39C235.383 152.39 235.383 152.39 224.84 152.39C214.298 152.39 214.298 152.39 203.755 152.39C193.212 152.39 193.212 152.39 182.669 152.39C172.126 152.39 172.126 152.39 161.583 152.39C151.04 152.39 151.04 152.39 140.498 152.39C129.955 152.39 129.955 152.39 119.412 152.39C108.869 152.39 108.869 50.9943 98.3261 50.9943C87.7833 50.9943 87.7833 152.39 77.2404 152.39C66.6975 152.39 66.6975 50.9943 56.1547 50.9943Z" fill="#F5B920"/>
<path d="M56.1547 50.9943C66.6975 50.9943 66.6975 152.39 77.2404 152.39C87.7833 152.39 87.7833 50.9943 98.3261 50.9943C108.869 50.9943 108.869 152.39 119.412 152.39C129.955 152.39 129.955 152.39 140.498 152.39C151.04 152.39 151.04 152.39 161.583 152.39C172.126 152.39 172.126 152.39 182.669 152.39C193.212 152.39 193.212 152.39 203.755 152.39C214.298 152.39 214.298 152.39 224.84 152.39C235.383 152.39 235.383 152.39 245.926 152.39C256.469 152.39 256.469 152.39 267.012 152.39C277.555 152.39 277.555 50.9943 288.098 50.9943C277.555 50.9943 277.555 152.39 267.012 152.39C256.469 152.39 256.469 152.39 245.926 152.39C235.383 152.39 235.383 152.39 224.84 152.39C214.298 152.39 214.298 152.39 203.755 152.39C193.212 152.39 193.212 152.39 182.669 152.39C172.126 152.39 172.126 152.39 161.583 152.39C151.04 152.39 151.04 152.39 140.498 152.39C129.955 152.39 129.955 152.39 119.412 152.39C108.869 152.39 108.869 50.9943 98.3261 50.9943C87.7833 50.9943 87.7833 152.39 77.2404 152.39C66.6975 152.39 66.6975 50.9943 56.1547 50.9943Z" fill="#F3B020"/>
<path d="M56.1547 50.9943C66.6975 50.9943 66.6975 152.39 77.2404 152.39C87.7833 152.39 87.7833 50.9943 98.3261 50.9943C108.869 50.9943 108.869 152.39 119.412 152.39C129.955 152.39 129.955 152.39 140.498 152.39C151.04 152.39 151.04 152.39 161.583 152.39C172.126 152.39 172.126 152.39 182.669 152.39C193.212 152.39 193.212 152.39 203.755 152.39C214.298 152.39 214.298 152.39 224.84 152.39C235.383 152.39 235.383 152.39 245.926 152.39C256.469 152.39 256.469 152.39 267.012 152.39C277.555 152.39 277.555 50.9943 288.098 50.9943C277.555 50.9943 277.555 152.39 267.012 152.39C256.469 152.39 256.469 152.39 245.926 152.39C235.383 152.39 235.383 152.39 224.84 152.39C214.298 152.39 214.298 152.39 203.755 152.39C193.212 152.39 193.212 152.39 182.669 152.39C172.126 152.39 172.126 152.39 161.583 152.39C151.04 152.39 151.04 152.39 140.498 152.39C129.955 152.39 129.955 152.39 119.412 152.39C108.869 152.39 108.869 50.9943 98.3261 50.9943C87.7833 50.9943 87.7833 152.39 77.2404 152.39C66.6975 152.39 66.6975 50.9943 56.1547 50.9943Z" fill="#F4B220"/>
<path d="M56.1547 50.9943C66.6975 50.9943 66.6975 152.39 77.2404 152.39C87.7833 152.39 87.7833 50.9943 98.3261 50.9943C108.869 50.9943 108.869 152.39 119.412 152.39C129.955 152.39 129.955 152.39 140.498 152.39C151.04 152.39 151.04 152.39 161.583 152.39C172.126 152.39 172.126 152.39 182.669 152.39C193.212 152.39 193.212 152.39 203.755 152.39C214.298 152.39 214.298 152.39 224.84 152.39C235.383 152.39 235.383 152.39 245.926 152.39C256.469 152.39 256.469 152.39 267.012 152.39C277.555 152.39 277.555 50.9943 288.098 50.9943C277.555 50.9943 277.555 152.39 267.012 152.39C256.469 152.39 256.469 152.39 245.926 152.39C235.383 152.39 235.383 152.39 224.84 152.39C214.298 152.39 214.298 152.39 203.755 152.39C193.212 152.39 193.212 152.39 182.669 152.39C172.126 152.39 172.126 152.39 161.583 152.39C151.04 152.39 151.04 152.39 140.498 152.39C129.955 152.39 129.955 152.39 119.412 152.39C108.869 152.39 108.869 50.9943 98.3261 50.9943C87.7833 50.9943 87.7833 152.39 77.2404 152.39C66.6975 152.39 66.6975 50.9943 56.1547 50.9943Z" fill="#F3AB20"/>
<path d="M56.1547 50.9943C66.6975 50.9943 66.6975 152.39 77.2404 152.39C87.7833 152.39 87.7833 50.9943 98.3261 50.9943C108.869 50.9943 108.869 152.39 119.412 152.39C129.955 152.39 129.955 152.39 140.498 152.39C151.04 152.39 151.04 152.39 161.583 152.39C172.126 152.39 172.126 152.39 182.669 152.39C193.212 152.39 193.212 152.39 203.755 152.39C214.298 152.39 214.298 152.39 224.84 152.39C235.383 152.39 235.383 152.39 245.926 152.39C256.469 152.39 256.469 152.39 267.012 152.39C277.555 152.39 277.555 50.9943 288.098 50.9943C277.555 50.9943 277.555 152.39 267.012 152.39C256.469 152.39 256.469 152.39 245.926 152.39C235.383 152.39 235.383 152.39 224.84 152.39C214.298 152.39 214.298 152.39 203.755 152.39C193.212 152.39 193.212 152.39 182.669 152.39C172.126 152.39 172.126 152.39 161.583 152.39C151.04 152.39 151.04 152.39 140.498 152.39C129.955 152.39 129.955 152.39 119.412 152.39C108.869 152.39 108.869 50.9943 98.3261 50.9943C87.7833 50.9943 87.7833 152.39 77.2404 152.39C66.6975 152.39 66.6975 50.9943 56.1547 50.9943Z" fill="#F3AC20"/>
<path d="M56.1547 50.9943C66.6975 50.9943 66.6975 152.39 77.2404 152.39C87.7833 152.39 87.7833 50.9943 98.3261 50.9943C108.869 50.9943 108.869 152.39 119.412 152.39C129.955 152.39 129.955 152.39 140.498 152.39C151.04 152.39 151.04 152.39 161.583 152.39C172.126 152.39 172.126 152.39 182.669 152.39C193.212 152.39 193.212 152.39 203.755 152.39C214.298 152.39 214.298 152.39 224.84 152.39C235.383 152.39 235.383 152.39 245.926 152.39C256.469 152.39 256.469 152.39 267.012 152.39C277.555 152.39 277.555 50.9943 288.098 50.9943C277.555 50.9943 277.555 152.39 267.012 152.39C256.469 152.39 256.469 152.39 245.926 152.39C235.383 152.39 235.383 152.39 224.84 152.39C214.298 152.39 214.298 152.39 203.755 152.39C193.212 152.39 193.212 152.39 182.669 152.39C172.126 152.39 172.126 152.39 161.583 152.39C151.04 152.39 151.04 152.39 140.498 152.39C129.955 152.39 129.955 152.39 119.412 152.39C108.869 152.39 108.869 50.9943 98.3261 50.9943C87.7833 50.9943 87.7833 152.39 77.2404 152.39C66.6975 152.39 66.6975 50.9943 56.1547 50.9943Z" fill="#F3AE20"/>
<path d="M56.1547 50.9943C66.6975 50.9943 66.6975 152.39 77.2404 152.39C87.7833 152.39 87.7833 50.9943 98.3261 50.9943C108.869 50.9943 108.869 152.39 119.412 152.39C129.955 152.39 129.955 152.39 140.498 152.39C151.04 152.39 151.04 152.39 161.583 152.39C172.126 152.39 172.126 152.39 182.669 152.39C193.212 152.39 193.212 152.39 203.755 152.39C214.298 152.39 214.298 152.39 224.84 152.39C235.383 152.39 235.383 152.39 245.926 152.39C256.469 152.39 256.469 152.39 267.012 152.39C277.555 152.39 277.555 50.9943 288.098 50.9943C277.555 50.9943 277.555 152.39 267.012 152.39C256.469 152.39 256.469 152.39 245.926 152.39C235.383 152.39 235.383 152.39 224.84 152.39C214.298 152.39 214.298 152.39 203.755 152.39C193.212 152.39 193.212 152.39 182.669 152.39C172.126 152.39 172.126 152.39 161.583 152.39C151.04 152.39 151.04 152.39 140.498 152.39C129.955 152.39 129.955 152.39 119.412 152.39C108.869 152.39 108.869 50.9943 98.3261 50.9943C87.7833 50.9943 87.7833 152.39 77.2404 152.39C66.6975 152.39 66.6975 50.9943 56.1547 50.9943Z" fill="#F4B420"/>
<path d="M56.1547 50.9943C66.6975 50.9943 66.6975 152.39 77.2404 152.39C87.7833 152.39 87.7833 50.9943 98.3261 50.9943C108.869 50.9943 108.869 152.39 119.412 152.39C129.955 152.39 129.955 152.39 140.498 152.39C151.04 152.39 151.04 152.39 161.583 152.39C172.126 152.39 172.126 152.39 182.669 152.39C193.212 152.39 193.212 152.39 203.755 152.39C214.298 152.39 214.298 152.39 224.84 152.39C235.383 152.39 235.383 152.39 245.926 152.39C256.469 152.39 256.469 152.39 267.012 152.39C277.555 152.39 277.555 50.9943 288.098 50.9943C277.555 50.9943 277.555 152.39 267.012 152.39C256.469 152.39 256.469 152.39 245.926 152.39C235.383 152.39 235.383 152.39 224.84 152.39C214.298 152.39 214.298 152.39 203.755 152.39C193.212 152.39 193.212 152.39 182.669 152.39C172.126 152.39 172.126 152.39 161.583 152.39C151.04 152.39 151.04 152.39 140.498 152.39C129.955 152.39 129.955 152.39 119.412 152.39C108.869 152.39 108.869 50.9943 98.3261 50.9943C87.7833 50.9943 87.7833 152.39 77.2404 152.39C66.6975 152.39 66.6975 50.9943 56.1547 50.9943Z" fill="#F2A720"/>
<path d="M56.1547 50.9943C66.6975 50.9943 66.6975 152.39 77.2404 152.39C87.7833 152.39 87.7833 50.9943 98.3261 50.9943C108.869 50.9943 108.869 152.39 119.412 152.39C129.955 152.39 129.955 152.39 140.498 152.39C151.04 152.39 151.04 152.39 161.583 152.39C172.126 152.39 172.126 152.39 182.669 152.39C193.212 152.39 193.212 152.39 203.755 152.39C214.298 152.39 214.298 152.39 224.84 152.39C235.383 152.39 235.383 152.39 245.926 152.39C256.469 152.39 256.469 152.39 267.012 152.39C277.555 152.39 277.555 50.9943 288.098 50.9943C277.555 50.9943 277.555 152.39 267.012 152.39C256.469 152.39 256.469 152.39 245.926 152.39C235.383 152.39 235.383 152.39 224.84 152.39C214.298 152.39 214.298 152.39 203.755 152.39C193.212 152.39 193.212 152.39 182.669 152.39C172.126 152.39 172.126 152.39 161.583 152.39C151.04 152.39 151.04 152.39 140.498 152.39C129.955 152.39 129.955 152.39 119.412 152.39C108.869 152.39 108.869 50.9943 98.3261 50.9943C87.7833 50.9943 87.7833 152.39 77.2404 152.39C66.6975 152.39 66.6975 50.9943 56.1547 50.9943Z" fill="#F19E20"/>
<path d="M56.1547 50.9943C66.6975 50.9943 66.6975 152.39 77.2404 152.39C87.7833 152.39 87.7833 50.9943 98.3261 50.9943C108.869 50.9943 108.869 152.39 119.412 152.39C129.955 152.39 129.955 152.39 140.498 152.39C151.04 152.39 151.04 152.39 161.583 152.39C172.126 152.39 172.126 152.39 182.669 152.39C193.212 152.39 193.212 152.39 203.755 152.39C214.298 152.39 214.298 152.39 224.84 152.39C235.383 152.39 235.383 152.39 245.926 152.39C256.469 152.39 256.469 152.39 267.012 152.39C277.555 152.39 277.555 50.9943 288.098 50.9943C277.555 50.9943 277.555 152.39 267.012 152.39C256.469 152.39 256.469 152.39 245.926 152.39C235.383 152.39 235.383 152.39 224.84 152.39C214.298 152.39 214.298 152.39 203.755 152.39C193.212 152.39 193.212 152.39 182.669 152.39C172.126 152.39 172.126 152.39 161.583 152.39C151.04 152.39 151.04 152.39 140.498 152.39C129.955 152.39 129.955 152.39 119.412 152.39C108.869 152.39 108.869 50.9943 98.3261 50.9943C87.7833 50.9943 87.7833 152.39 77.2404 152.39C66.6975 152.39 66.6975 50.9943 56.1547 50.9943Z" fill="#F1A020"/>
<path d="M56.1547 50.9943C66.6975 50.9943 66.6975 152.39 77.2404 152.39C87.7833 152.39 87.7833 50.9943 98.3261 50.9943C108.869 50.9943 108.869 152.39 119.412 152.39C129.955 152.39 129.955 152.39 140.498 152.39C151.04 152.39 151.04 152.39 161.583 152.39C172.126 152.39 172.126 152.39 182.669 152.39C193.212 152.39 193.212 152.39 203.755 152.39C214.298 152.39 214.298 152.39 224.84 152.39C235.383 152.39 235.383 152.39 245.926 152.39C256.469 152.39 256.469 152.39 267.012 152.39C277.555 152.39 277.555 50.9943 288.098 50.9943C277.555 50.9943 277.555 152.39 267.012 152.39C256.469 152.39 256.469 152.39 245.926 152.39C235.383 152.39 235.383 152.39 224.84 152.39C214.298 152.39 214.298 152.39 203.755 152.39C193.212 152.39 193.212 152.39 182.669 152.39C172.126 152.39 172.126 152.39 161.583 152.39C151.04 152.39 151.04 152.39 140.498 152.39C129.955 152.39 129.955 152.39 119.412 152.39C108.869 152.39 108.869 50.9943 98.3261 50.9943C87.7833 50.9943 87.7833 152.39 77.2404 152.39C66.6975 152.39 66.6975 50.9943 56.1547 50.9943Z" fill="#EC8520"/>
<path d="M56.1547 50.9943C66.6975 50.9943 66.6975 152.39 77.2404 152.39C87.7833 152.39 87.7833 50.9943 98.3261 50.9943C108.869 50.9943 108.869 152.39 119.412 152.39C129.955 152.39 129.955 152.39 140.498 152.39C151.04 152.39 151.04 152.39 161.583 152.39C172.126 152.39 172.126 152.39 182.669 152.39C193.212 152.39 193.212 152.39 203.755 152.39C214.298 152.39 214.298 152.39 224.84 152.39C235.383 152.39 235.383 152.39 245.926 152.39C256.469 152.39 256.469 152.39 267.012 152.39C277.555 152.39 277.555 50.9943 288.098 50.9943C277.555 50.9943 277.555 152.39 267.012 152.39C256.469 152.39 256.469 152.39 245.926 152.39C235.383 152.39 235.383 152.39 224.84 152.39C214.298 152.39 214.298 152.39 203.755 152.39C193.212 152.39 193.212 152.39 182.669 152.39C172.126 152.39 172.126 152.39 161.583 152.39C151.04 152.39 151.04 152.39 140.498 152.39C129.955 152.39 129.955 152.39 119.412 152.39C108.869 152.39 108.869 50.9943 98.3261 50.9943C87.7833 50.9943 87.7833 152.39 77.2404 152.39C66.6975 152.39 66.6975 50.9943 56.1547 50.9943Z" fill="#EE8C20"/>
<path d="M56.1547 50.9943C66.6975 50.9943 66.6975 152.39 77.2404 152.39C87.7833 152.39 87.7833 50.9943 98.3261 50.9943C108.869 50.9943 108.869 152.39 119.412 152.39C129.955 152.39 129.955 152.39 140.498 152.39C151.04 152.39 151.04 152.39 161.583 152.39C172.126 152.39 172.126 152.39 182.669 152.39C193.212 152.39 193.212 152.39 203.755 152.39C214.298 152.39 214.298 152.39 224.84 152.39C235.383 152.39 235.383 152.39 245.926 152.39C256.469 152.39 256.469 152.39 267.012 152.39C277.555 152.39 277.555 50.9943 288.098 50.9943C277.555 50.9943 277.555 152.39 267.012 152.39C256.469 152.39 256.469 152.39 245.926 152.39C235.383 152.39 235.383 152.39 224.84 152.39C214.298 152.39 214.298 152.39 203.755 152.39C193.212 152.39 193.212 152.39 182.669 152.39C172.126 152.39 172.126 152.39 161.583 152.39C151.04 152.39 151.04 152.39 140.498 152.39C129.955 152.39 129.955 152.39 119.412 152.39C108.869 152.39 108.869 50.9943 98.3261 50.9943C87.7833 50.9943 87.7833 152.39 77.2404 152.39C66.6975 152.39 66.6975 50.9943 56.1547 50.9943Z" fill="#E6641F"/>
<path d="M56.1547 50.9943C66.6975 50.9943 66.6975 152.39 77.2404 152.39C87.7833 152.39 87.7833 50.9943 98.3261 50.9943C108.869 50.9943 108.869 152.39 119.412 152.39C129.955 152.39 129.955 152.39 140.498 152.39C151.04 152.39 151.04 152.39 161.583 152.39C172.126 152.39 172.126 152.39 182.669 152.39C193.212 152.39 193.212 152.39 203.755 152.39C214.298 152.39 214.298 152.39 224.84 152.39C235.383 152.39 235.383 152.39 245.926 152.39C256.469 152.39 256.469 152.39 267.012 152.39C277.555 152.39 277.555 50.9943 288.098 50.9943C277.555 50.9943 277.555 152.39 267.012 152.39C256.469 152.39 256.469 152.39 245.926 152.39C235.383 152.39 235.383 152.39 224.84 152.39C214.298 152.39 214.298 152.39 203.755 152.39C193.212 152.39 193.212 152.39 182.669 152.39C172.126 152.39 172.126 152.39 161.583 152.39C151.04 152.39 151.04 152.39 140.498 152.39C129.955 152.39 129.955 152.39 119.412 152.39C108.869 152.39 108.869 50.9943 98.3261 50.9943C87.7833 50.9943 87.7833 152.39 77.2404 152.39C66.6975 152.39 66.6975 50.9943 56.1547 50.9943Z" fill="#E0491E"/>
<path d="M56.1547 50.9943C66.6975 50.9943 66.6975 152.39 77.2404 152.39C87.7833 152.39 87.7833 50.9943 98.3261 50.9943C108.869 50.9943 108.869 152.39 119.412 152.39C129.955 152.39 129.955 152.39 140.498 152.39C151.04 152.39 151.04 152.39 161.583 152.39C172.126 152.39 172.126 152.39 182.669 152.39C193.212 152.39 193.212 152.39 203.755 152.39C214.298 152.39 214.298 152.39 224.84 152.39C235.383 152.39 235.383 152.39 245.926 152.39C256.469 152.39 256.469 152.39 267.012 152.39C277.555 152.39 277.555 50.9943 288.098 50.9943C277.555 50.9943 277.555 152.39 267.012 152.39C256.469 152.39 256.469 152.39 245.926 152.39C235.383 152.39 235.383 152.39 224.84 152.39C214.298 152.39 214.298 152.39 203.755 152.39C193.212 152.39 193.212 152.39 182.669 152.39C172.126 152.39 172.126 152.39 161.583 152.39C151.04 152.39 151.04 152.39 140.498 152.39C129.955 152.39 129.955 152.39 119.412 152.39C108.869 152.39 108.869 50.9943 98.3261 50.9943C87.7833 50.9943 87.7833 152.39 77.2404 152.39C66.6975 152.39 66.6975 50.9943 56.1547 50.9943Z" fill="#E04C1E"/>
<path d="M56.1547 50.9943C66.6975 50.9943 66.6975 152.39 77.2404 152.39C87.7833 152.39 87.7833 50.9943 98.3261 50.9943C108.869 50.9943 108.869 152.39 119.412 152.39C129.955 152.39 129.955 152.39 140.498 152.39C151.04 152.39 151.04 152.39 161.583 152.39C172.126 152.39 172.126 152.39 182.669 152.39C193.212 152.39 193.212 152.39 203.755 152.39C214.298 152.39 214.298 152.39 224.84 152.39C235.383 152.39 235.383 152.39 245.926 152.39C256.469 152.39 256.469 152.39 267.012 152.39C277.555 152.39 277.555 50.9943 288.098 50.9943C277.555 50.9943 277.555 152.39 267.012 152.39C256.469 152.39 256.469 152.39 245.926 152.39C235.383 152.39 235.383 152.39 224.84 152.39C214.298 152.39 214.298 152.39 203.755 152.39C193.212 152.39 193.212 152.39 182.669 152.39C172.126 152.39 172.126 152.39 161.583 152.39C151.04 152.39 151.04 152.39 140.498 152.39C129.955 152.39 129.955 152.39 119.412 152.39C108.869 152.39 108.869 50.9943 98.3261 50.9943C87.7833 50.9943 87.7833 152.39 77.2404 152.39C66.6975 152.39 66.6975 50.9943 56.1547 50.9943Z" fill="#D0021B"/>
<path d="M56.1547 50.9943C66.6975 50.9943 66.6975 152.39 77.2404 152.39C87.7833 152.39 87.7833 50.9943 98.3261 50.9943C108.869 50.9943 108.869 152.39 119.412 152.39C129.955 152.39 129.955 152.39 140.498 152.39C151.04 152.39 151.04 152.39 161.583 152.39C172.126 152.39 172.126 152.39 182.669 152.39C193.212 152.39 193.212 152.39 203.755 152.39C214.298 152.39 214.298 152.39 224.84 152.39C235.383 152.39 235.383 152.39 245.926 152.39C256.469 152.39 256.469 152.39 267.012 152.39C277.555 152.39 277.555 50.9943 288.098 50.9943C277.555 50.9943 277.555 152.39 267.012 152.39C256.469 152.39 256.469 152.39 245.926 152.39C235.383 152.39 235.383 152.39 224.84 152.39C214.298 152.39 214.298 152.39 203.755 152.39C193.212 152.39 193.212 152.39 182.669 152.39C172.126 152.39 172.126 152.39 161.583 152.39C151.04 152.39 151.04 152.39 140.498 152.39C129.955 152.39 129.955 152.39 119.412 152.39C108.869 152.39 108.869 50.9943 98.3261 50.9943C87.7833 50.9943 87.7833 152.39 77.2404 152.39C66.6975 152.39 66.6975 50.9943 56.1547 50.9943Z" fill="#D5191C"/>
<path d="M56.1547 50.9943C66.6975 50.9943 66.6975 152.39 77.2404 152.39C87.7833 152.39 87.7833 50.9943 98.3261 50.9943C108.869 50.9943 108.869 152.39 119.412 152.39C129.955 152.39 129.955 152.39 140.498 152.39C151.04 152.39 151.04 152.39 161.583 152.39C172.126 152.39 172.126 152.39 182.669 152.39C193.212 152.39 193.212 152.39 203.755 152.39C214.298 152.39 214.298 152.39 224.84 152.39C235.383 152.39 235.383 152.39 245.926 152.39C256.469 152.39 256.469 152.39 267.012 152.39C277.555 152.39 277.555 50.9943 288.098 50.9943C277.555 50.9943 277.555 152.39 267.012 152.39C256.469 152.39 256.469 152.39 245.926 152.39C235.383 152.39 235.383 152.39 224.84 152.39C214.298 152.39 214.298 152.39 203.755 152.39C193.212 152.39 193.212 152.39 182.669 152.39C172.126 152.39 172.126 152.39 161.583 152.39C151.04 152.39 151.04 152.39 140.498 152.39C129.955 152.39 129.955 152.39 119.412 152.39C108.869 152.39 108.869 50.9943 98.3261 50.9943C87.7833 50.9943 87.7833 152.39 77.2404 152.39C66.6975 152.39 66.6975 50.9943 56.1547 50.9943Z" fill="#E2521F"/>
<path d="M56.1547 50.9943C66.6975 50.9943 66.6975 152.39 77.2404 152.39C87.7833 152.39 87.7833 50.9943 98.3261 50.9943C108.869 50.9943 108.869 152.39 119.412 152.39C129.955 152.39 129.955 152.39 140.498 152.39C151.04 152.39 151.04 152.39 161.583 152.39C172.126 152.39 172.126 152.39 182.669 152.39C193.212 152.39 193.212 152.39 203.755 152.39C214.298 152.39 214.298 152.39 224.84 152.39C235.383 152.39 235.383 152.39 245.926 152.39C256.469 152.39 256.469 152.39 267.012 152.39C277.555 152.39 277.555 50.9943 288.098 50.9943C277.555 50.9943 277.555 152.39 267.012 152.39C256.469 152.39 256.469 152.39 245.926 152.39C235.383 152.39 235.383 152.39 224.84 152.39C214.298 152.39 214.298 152.39 203.755 152.39C193.212 152.39 193.212 152.39 182.669 152.39C172.126 152.39 172.126 152.39 161.583 152.39C151.04 152.39 151.04 152.39 140.498 152.39C129.955 152.39 129.955 152.39 119.412 152.39C108.869 152.39 108.869 50.9943 98.3261 50.9943C87.7833 50.9943 87.7833 152.39 77.2404 152.39C66.6975 152.39 66.6975 50.9943 56.1547 50.9943Z" fill="#E6671F"/>
<path d="M56.1547 50.9943C66.6975 50.9943 66.6975 152.39 77.2404 152.39C87.7833 152.39 87.7833 50.9943 98.3261 50.9943C108.869 50.9943 108.869 152.39 119.412 152.39C129.955 152.39 129.955 152.39 140.498 152.39C151.04 152.39 151.04 152.39 161.583 152.39C172.126 152.39 172.126 152.39 182.669 152.39C193.212 152.39 193.212 152.39 203.755 152.39C214.298 152.39 214.298 152.39 224.84 152.39C235.383 152.39 235.383 152.39 245.926 152.39C256.469 152.39 256.469 152.39 267.012 152.39C277.555 152.39 277.555 50.9943 288.098 50.9943C277.555 50.9943 277.555 152.39 267.012 152.39C256.469 152.39 256.469 152.39 245.926 152.39C235.383 152.39 235.383 152.39 224.84 152.39C214.298 152.39 214.298 152.39 203.755 152.39C193.212 152.39 193.212 152.39 182.669 152.39C172.126 152.39 172.126 152.39 161.583 152.39C151.04 152.39 151.04 152.39 140.498 152.39C129.955 152.39 129.955 152.39 119.412 152.39C108.869 152.39 108.869 50.9943 98.3261 50.9943C87.7833 50.9943 87.7833 152.39 77.2404 152.39C66.6975 152.39 66.6975 50.9943 56.1547 50.9943Z" fill="#F09821"/>
<path d="M56.1547 50.9943C66.6975 50.9943 66.6975 152.39 77.2404 152.39C87.7833 152.39 87.7833 50.9943 98.3261 50.9943C108.869 50.9943 108.869 152.39 119.412 152.39C129.955 152.39 129.955 152.39 140.498 152.39C151.04 152.39 151.04 152.39 161.583 152.39C172.126 152.39 172.126 152.39 182.669 152.39C193.212 152.39 193.212 152.39 203.755 152.39C214.298 152.39 214.298 152.39 224.84 152.39C235.383 152.39 235.383 152.39 245.926 152.39C256.469 152.39 256.469 152.39 267.012 152.39C277.555 152.39 277.555 50.9943 288.098 50.9943C277.555 50.9943 277.555 152.39 267.012 152.39C256.469 152.39 256.469 152.39 245.926 152.39C235.383 152.39 235.383 152.39 224.84 152.39C214.298 152.39 214.298 152.39 203.755 152.39C193.212 152.39 193.212 152.39 182.669 152.39C172.126 152.39 172.126 152.39 161.583 152.39C151.04 152.39 151.04 152.39 140.498 152.39C129.955 152.39 129.955 152.39 119.412 152.39C108.869 152.39 108.869 50.9943 98.3261 50.9943C87.7833 50.9943 87.7833 152.39 77.2404 152.39C66.6975 152.39 66.6975 50.9943 56.1547 50.9943Z" fill="#E97520"/>
<path d="M56.1547 50.9943C66.6975 50.9943 66.6975 152.39 77.2404 152.39C87.7833 152.39 87.7833 50.9943 98.3261 50.9943C108.869 50.9943 108.869 152.39 119.412 152.39C129.955 152.39 129.955 152.39 140.498 152.39C151.04 152.39 151.04 152.39 161.583 152.39C172.126 152.39 172.126 152.39 182.669 152.39C193.212 152.39 193.212 152.39 203.755 152.39C214.298 152.39 214.298 152.39 224.84 152.39C235.383 152.39 235.383 152.39 245.926 152.39C256.469 152.39 256.469 152.39 267.012 152.39C277.555 152.39 277.555 50.9943 288.098 50.9943C277.555 50.9943 277.555 152.39 267.012 152.39C256.469 152.39 256.469 152.39 245.926 152.39C235.383 152.39 235.383 152.39 224.84 152.39C214.298 152.39 214.298 152.39 203.755 152.39C193.212 152.39 193.212 152.39 182.669 152.39C172.126 152.39 172.126 152.39 161.583 152.39C151.04 152.39 151.04 152.39 140.498 152.39C129.955 152.39 129.955 152.39 119.412 152.39C108.869 152.39 108.869 50.9943 98.3261 50.9943C87.7833 50.9943 87.7833 152.39 77.2404 152.39C66.6975 152.39 66.6975 50.9943 56.1547 50.9943Z" fill="#E45E1F"/>
<path d="M56.1547 50.9943C66.6975 50.9943 66.6975 152.39 77.2404 152.39C87.7833 152.39 87.7833 50.9943 98.3261 50.9943C108.869 50.9943 108.869 152.39 119.412 152.39C129.955 152.39 129.955 152.39 140.498 152.39C151.04 152.39 151.04 152.39 161.583 152.39C172.126 152.39 172.126 152.39 182.669 152.39C193.212 152.39 193.212 152.39 203.755 152.39C214.298 152.39 214.298 152.39 224.84 152.39C235.383 152.39 235.383 152.39 245.926 152.39C256.469 152.39 256.469 152.39 267.012 152.39C277.555 152.39 277.555 50.9943 288.098 50.9943C277.555 50.9943 277.555 152.39 267.012 152.39C256.469 152.39 256.469 152.39 245.926 152.39C235.383 152.39 235.383 152.39 224.84 152.39C214.298 152.39 214.298 152.39 203.755 152.39C193.212 152.39 193.212 152.39 182.669 152.39C172.126 152.39 172.126 152.39 161.583 152.39C151.04 152.39 151.04 152.39 140.498 152.39C129.955 152.39 129.955 152.39 119.412 152.39C108.869 152.39 108.869 50.9943 98.3261 50.9943C87.7833 50.9943 87.7833 152.39 77.2404 152.39C66.6975 152.39 66.6975 50.9943 56.1547 50.9943Z" fill="#E2551F"/>
<path d="M56.1547 50.9943C66.6975 50.9943 66.6975 152.39 77.2404 152.39C87.7833 152.39 87.7833 50.9943 98.3261 50.9943C108.869 50.9943 108.869 152.39 119.412 152.39C129.955 152.39 129.955 152.39 140.498 152.39C151.04 152.39 151.04 152.39 161.583 152.39C172.126 152.39 172.126 152.39 182.669 152.39C193.212 152.39 193.212 152.39 203.755 152.39C214.298 152.39 214.298 152.39 224.84 152.39C235.383 152.39 235.383 152.39 245.926 152.39C256.469 152.39 256.469 152.39 267.012 152.39C277.555 152.39 277.555 50.9943 288.098 50.9943C277.555 50.9943 277.555 152.39 267.012 152.39C256.469 152.39 256.469 152.39 245.926 152.39C235.383 152.39 235.383 152.39 224.84 152.39C214.298 152.39 214.298 152.39 203.755 152.39C193.212 152.39 193.212 152.39 182.669 152.39C172.126 152.39 172.126 152.39 161.583 152.39C151.04 152.39 151.04 152.39 140.498 152.39C129.955 152.39 129.955 152.39 119.412 152.39C108.869 152.39 108.869 50.9943 98.3261 50.9943C87.7833 50.9943 87.7833 152.39 77.2404 152.39C66.6975 152.39 66.6975 50.9943 56.1547 50.9943Z" fill="#EF9120"/>
<path d="M56.1547 50.9943C66.6975 50.9943 66.6975 152.39 77.2404 152.39C87.7833 152.39 87.7833 50.9943 98.3261 50.9943C108.869 50.9943 108.869 152.39 119.412 152.39C129.955 152.39 129.955 152.39 140.498 152.39C151.04 152.39 151.04 152.39 161.583 152.39C172.126 152.39 172.126 152.39 182.669 152.39C193.212 152.39 193.212 152.39 203.755 152.39C214.298 152.39 214.298 152.39 224.84 152.39C235.383 152.39 235.383 152.39 245.926 152.39C256.469 152.39 256.469 152.39 267.012 152.39C277.555 152.39 277.555 50.9943 288.098 50.9943C277.555 50.9943 277.555 152.39 267.012 152.39C256.469 152.39 256.469 152.39 245.926 152.39C235.383 152.39 235.383 152.39 224.84 152.39C214.298 152.39 214.298 152.39 203.755 152.39C193.212 152.39 193.212 152.39 182.669 152.39C172.126 152.39 172.126 152.39 161.583 152.39C151.04 152.39 151.04 152.39 140.498 152.39C129.955 152.39 129.955 152.39 119.412 152.39C108.869 152.39 108.869 50.9943 98.3261 50.9943C87.7833 50.9943 87.7833 152.39 77.2404 152.39C66.6975 152.39 66.6975 50.9943 56.1547 50.9943Z" fill="#F09C21"/>
<path d="M56.1547 50.9943C66.6975 50.9943 66.6975 152.39 77.2404 152.39C87.7833 152.39 87.7833 50.9943 98.3261 50.9943C108.869 50.9943 108.869 152.39 119.412 152.39C129.955 152.39 129.955 152.39 140.498 152.39C151.04 152.39 151.04 152.39 161.583 152.39C172.126 152.39 172.126 152.39 182.669 152.39C193.212 152.39 193.212 152.39 203.755 152.39C214.298 152.39 214.298 152.39 224.84 152.39C235.383 152.39 235.383 152.39 245.926 152.39C256.469 152.39 256.469 152.39 267.012 152.39C277.555 152.39 277.555 50.9943 288.098 50.9943C277.555 50.9943 277.555 152.39 267.012 152.39C256.469 152.39 256.469 152.39 245.926 152.39C235.383 152.39 235.383 152.39 224.84 152.39C214.298 152.39 214.298 152.39 203.755 152.39C193.212 152.39 193.212 152.39 182.669 152.39C172.126 152.39 172.126 152.39 161.583 152.39C151.04 152.39 151.04 152.39 140.498 152.39C129.955 152.39 129.955 152.39 119.412 152.39C108.869 152.39 108.869 50.9943 98.3261 50.9943C87.7833 50.9943 87.7833 152.39 77.2404 152.39C66.6975 152.39 66.6975 50.9943 56.1547 50.9943Z" fill="#F2A920"/>
<path d="M56.1547 50.9943C66.6975 50.9943 66.6975 152.39 77.2404 152.39C87.7833 152.39 87.7833 50.9943 98.3261 50.9943C108.869 50.9943 108.869 152.39 119.412 152.39C129.955 152.39 129.955 152.39 140.498 152.39C151.04 152.39 151.04 152.39 161.583 152.39C172.126 152.39 172.126 152.39 182.669 152.39C193.212 152.39 193.212 152.39 203.755 152.39C214.298 152.39 214.298 152.39 224.84 152.39C235.383 152.39 235.383 152.39 245.926 152.39C256.469 152.39 256.469 152.39 267.012 152.39C277.555 152.39 277.555 50.9943 288.098 50.9943C277.555 50.9943 277.555 152.39 267.012 152.39C256.469 152.39 256.469 152.39 245.926 152.39C235.383 152.39 235.383 152.39 224.84 152.39C214.298 152.39 214.298 152.39 203.755 152.39C193.212 152.39 193.212 152.39 182.669 152.39C172.126 152.39 172.126 152.39 161.583 152.39C151.04 152.39 151.04 152.39 140.498 152.39C129.955 152.39 129.955 152.39 119.412 152.39C108.869 152.39 108.869 50.9943 98.3261 50.9943C87.7833 50.9943 87.7833 152.39 77.2404 152.39C66.6975 152.39 66.6975 50.9943 56.1547 50.9943Z" fill="#F4B720"/>
<path d="M56.1547 50.9943C66.6975 50.9943 66.6975 152.39 77.2404 152.39C87.7833 152.39 87.7833 50.9943 98.3261 50.9943C108.869 50.9943 108.869 152.39 119.412 152.39C129.955 152.39 129.955 152.39 140.498 152.39C151.04 152.39 151.04 152.39 161.583 152.39C172.126 152.39 172.126 152.39 182.669 152.39C193.212 152.39 193.212 152.39 203.755 152.39C214.298 152.39 214.298 152.39 224.84 152.39C235.383 152.39 235.383 152.39 245.926 152.39C256.469 152.39 256.469 152.39 267.012 152.39C277.555 152.39 277.555 50.9943 288.098 50.9943C277.555 50.9943 277.555 152.39 267.012 152.39C256.469 152.39 256.469 152.39 245.926 152.39C235.383 152.39 235.383 152.39 224.84 152.39C214.298 152.39 214.298 152.39 203.755 152.39C193.212 152.39 193.212 152.39 182.669 152.39C172.126 152.39 172.126 152.39 161.583 152.39C151.04 152.39 151.04 152.39 140.498 152.39C129.955 152.39 129.955 152.39 119.412 152.39C108.869 152.39 108.869 50.9943 98.3261 50.9943C87.7833 50.9943 87.7833 152.39 77.2404 152.39C66.6975 152.39 66.6975 50.9943 56.1547 50.9943Z" fill="#F2A520"/>
<path d="M56.1545 152.391H288.098" stroke="black"/>
<path d="M56.1545 152.391V159.012" stroke="black"/>
<path d="M57.1401 161.85V169.123H56.2594V162.773H56.2168L54.4412 163.952V163.057L56.2594 161.85H57.1401Z" fill="black"/>
<path d="M77.2404 152.391V159.012" stroke="black"/>
<path d="M74.9659 169.123V168.483L77.3665 165.856C77.6482 165.548 77.8802 165.28 78.0625 165.053C78.2448 164.823 78.3797 164.608 78.4673 164.407C78.5573 164.203 78.6023 163.99 78.6023 163.768C78.6023 163.512 78.5407 163.291 78.4176 163.103C78.2969 162.916 78.1312 162.772 77.9205 162.67C77.7098 162.568 77.473 162.518 77.2102 162.518C76.9309 162.518 76.687 162.576 76.4787 162.692C76.2727 162.805 76.1129 162.965 75.9993 163.171C75.888 163.377 75.8324 163.618 75.8324 163.895H74.9943C74.9943 163.469 75.0926 163.095 75.2891 162.773C75.4856 162.451 75.7531 162.2 76.0916 162.02C76.4325 161.84 76.8149 161.75 77.2386 161.75C77.6648 161.75 78.0424 161.84 78.3714 162.02C78.7005 162.2 78.9586 162.443 79.1456 162.748C79.3326 163.054 79.4261 163.393 79.4261 163.768C79.4261 164.035 79.3776 164.297 79.2805 164.552C79.1858 164.806 79.0201 165.089 78.7834 165.401C78.549 165.711 78.2235 166.09 77.8068 166.537L76.1733 168.285V168.341H79.554V169.123H74.9659Z" fill="black"/>
<path d="M98.326 152.391V159.012" stroke="black"/>
<path d="M98.3527 169.222C97.884 169.222 97.4661 169.142 97.0992 168.981C96.7346 168.82 96.4446 168.596 96.2292 168.309C96.0161 168.021 95.9001 167.686 95.8811 167.304H96.776C96.795 167.539 96.8755 167.741 97.0175 167.912C97.1596 168.08 97.3454 168.21 97.575 168.302C97.8047 168.395 98.0592 168.441 98.3385 168.441C98.651 168.441 98.928 168.386 99.1695 168.277C99.411 168.169 99.6004 168.017 99.7377 167.823C99.875 167.629 99.9436 167.404 99.9436 167.148C99.9436 166.881 99.8774 166.645 99.7448 166.442C99.6122 166.236 99.4181 166.075 99.1624 165.959C98.9067 165.843 98.5942 165.785 98.2249 165.785H97.6425V165.003H98.2249C98.5137 165.003 98.767 164.951 98.9848 164.847C99.205 164.743 99.3766 164.596 99.4998 164.407C99.6252 164.217 99.688 163.995 99.688 163.739C99.688 163.493 99.6335 163.279 99.5246 163.096C99.4157 162.914 99.2618 162.772 99.063 162.67C98.8665 162.568 98.6345 162.518 98.3669 162.518C98.116 162.518 97.8793 162.564 97.6567 162.656C97.4365 162.746 97.2566 162.877 97.1169 163.05C96.9773 163.221 96.9015 163.427 96.8897 163.668H96.0374C96.0516 163.287 96.1664 162.953 96.3819 162.667C96.5973 162.378 96.879 162.153 97.227 161.992C97.5774 161.831 97.9621 161.75 98.3811 161.75C98.831 161.75 99.2168 161.842 99.5388 162.024C99.8608 162.204 100.108 162.442 100.281 162.738C100.454 163.034 100.54 163.353 100.54 163.697C100.54 164.106 100.433 164.455 100.217 164.744C100.004 165.033 99.714 165.233 99.3471 165.344V165.401C99.8063 165.477 100.165 165.672 100.423 165.987C100.681 166.299 100.81 166.687 100.81 167.148C100.81 167.544 100.702 167.899 100.487 168.214C100.274 168.526 99.9827 168.772 99.6134 168.952C99.2441 169.132 98.8239 169.222 98.3527 169.222Z" fill="black"/>
<path d="M119.412 152.391V159.012" stroke="black"/>
<path d="M116.786 167.631V166.907L119.982 161.85H120.508V162.972H120.153L117.738 166.793V166.85H122.042V167.631H116.786ZM120.209 169.123V167.411V167.074V161.85H121.048V169.123H120.209Z" fill="black"/>
<path d="M140.498 152.391V159.012" stroke="black"/>
<path d="M140.481 169.222C140.065 169.222 139.689 169.139 139.355 168.974C139.022 168.808 138.754 168.581 138.553 168.292C138.352 168.003 138.242 167.674 138.223 167.304H139.075C139.108 167.634 139.257 167.906 139.522 168.121C139.79 168.334 140.11 168.441 140.481 168.441C140.779 168.441 141.045 168.371 141.277 168.231C141.511 168.092 141.694 167.9 141.827 167.656C141.962 167.41 142.029 167.132 142.029 166.822C142.029 166.504 141.96 166.221 141.82 165.973C141.683 165.722 141.493 165.524 141.252 165.38C141.01 165.235 140.735 165.162 140.424 165.16C140.202 165.157 139.973 165.192 139.739 165.263C139.505 165.331 139.312 165.42 139.16 165.529L138.336 165.429L138.777 161.85H142.555V162.631H139.515L139.26 164.776H139.302C139.451 164.658 139.638 164.559 139.863 164.481C140.088 164.403 140.323 164.364 140.566 164.364C141.011 164.364 141.408 164.471 141.756 164.684C142.106 164.894 142.381 165.183 142.58 165.55C142.781 165.917 142.882 166.336 142.882 166.807C142.882 167.271 142.778 167.686 142.569 168.05C142.363 168.412 142.079 168.699 141.717 168.91C141.355 169.118 140.943 169.222 140.481 169.222Z" fill="black"/>
<path d="M161.583 152.391V159.012" stroke="black"/>
<path d="M161.631 169.222C161.333 169.217 161.034 169.161 160.736 169.052C160.438 168.943 160.165 168.759 159.919 168.501C159.673 168.241 159.475 167.889 159.326 167.447C159.177 167.001 159.102 166.443 159.102 165.77C159.102 165.126 159.163 164.556 159.283 164.059C159.404 163.559 159.579 163.139 159.809 162.798C160.039 162.455 160.316 162.194 160.64 162.017C160.967 161.839 161.335 161.75 161.744 161.75C162.152 161.75 162.514 161.832 162.831 161.996C163.151 162.157 163.411 162.381 163.612 162.67C163.814 162.959 163.944 163.292 164.003 163.668H163.136C163.056 163.341 162.9 163.07 162.668 162.855C162.436 162.639 162.128 162.532 161.744 162.532C161.181 162.532 160.737 162.777 160.413 163.267C160.091 163.757 159.929 164.445 159.926 165.33H159.983C160.116 165.129 160.273 164.957 160.455 164.815C160.64 164.671 160.844 164.559 161.066 164.481C161.289 164.403 161.524 164.364 161.773 164.364C162.19 164.364 162.571 164.468 162.916 164.677C163.262 164.883 163.539 165.168 163.747 165.532C163.956 165.895 164.06 166.31 164.06 166.779C164.06 167.229 163.959 167.641 163.758 168.015C163.557 168.386 163.274 168.682 162.909 168.902C162.547 169.12 162.121 169.227 161.631 169.222ZM161.631 168.441C161.929 168.441 162.197 168.366 162.433 168.217C162.672 168.068 162.861 167.868 162.998 167.617C163.138 167.366 163.208 167.087 163.208 166.779C163.208 166.478 163.14 166.205 163.005 165.959C162.873 165.71 162.689 165.512 162.455 165.366C162.223 165.219 161.958 165.145 161.659 165.145C161.434 165.145 161.225 165.19 161.031 165.28C160.837 165.368 160.666 165.489 160.519 165.643C160.375 165.796 160.261 165.973 160.178 166.172C160.096 166.368 160.054 166.575 160.054 166.793C160.054 167.082 160.122 167.352 160.257 167.603C160.394 167.854 160.581 168.056 160.818 168.21C161.057 168.364 161.328 168.441 161.631 168.441Z" fill="black"/>
<path d="M182.669 152.391V159.012" stroke="black"/>
<path d="M180.793 169.123L184.046 162.688V162.631H180.296V161.85H184.955V162.674L181.716 169.123H180.793Z" fill="black"/>
<path d="M203.755 152.391V159.012" stroke="black"/>
<path d="M203.756 169.222C203.268 169.222 202.838 169.136 202.464 168.963C202.092 168.788 201.802 168.547 201.594 168.242C201.385 167.934 201.282 167.584 201.285 167.191C201.282 166.883 201.343 166.599 201.466 166.339C201.589 166.076 201.757 165.857 201.97 165.682C202.185 165.504 202.426 165.392 202.691 165.344V165.302C202.343 165.212 202.066 165.016 201.86 164.716C201.654 164.413 201.552 164.068 201.554 163.682C201.552 163.313 201.646 162.983 201.835 162.692C202.024 162.4 202.285 162.171 202.616 162.003C202.95 161.835 203.33 161.75 203.756 161.75C204.178 161.75 204.554 161.835 204.885 162.003C205.217 162.171 205.477 162.4 205.667 162.692C205.858 162.983 205.955 163.313 205.958 163.682C205.955 164.068 205.85 164.413 205.642 164.716C205.436 165.016 205.162 165.212 204.821 165.302V165.344C205.084 165.392 205.321 165.504 205.532 165.682C205.742 165.857 205.911 166.076 206.036 166.339C206.161 166.599 206.225 166.883 206.228 167.191C206.225 167.584 206.119 167.934 205.908 168.242C205.7 168.547 205.41 168.788 205.038 168.963C204.669 169.136 204.241 169.222 203.756 169.222ZM203.756 168.441C204.085 168.441 204.369 168.388 204.608 168.281C204.848 168.174 205.032 168.024 205.162 167.83C205.293 167.636 205.359 167.409 205.361 167.148C205.359 166.874 205.288 166.631 205.148 166.42C205.009 166.21 204.818 166.044 204.576 165.923C204.337 165.802 204.064 165.742 203.756 165.742C203.446 165.742 203.169 165.802 202.925 165.923C202.684 166.044 202.493 166.21 202.353 166.42C202.216 166.631 202.149 166.874 202.151 167.148C202.149 167.409 202.211 167.636 202.339 167.83C202.469 168.024 202.655 168.174 202.897 168.281C203.138 168.388 203.425 168.441 203.756 168.441ZM203.756 164.989C204.017 164.989 204.247 164.937 204.449 164.833C204.652 164.729 204.812 164.583 204.928 164.396C205.044 164.209 205.103 163.99 205.106 163.739C205.103 163.493 205.045 163.279 204.932 163.096C204.818 162.912 204.661 162.77 204.459 162.67C204.258 162.568 204.024 162.518 203.756 162.518C203.484 162.518 203.246 162.568 203.042 162.67C202.839 162.77 202.681 162.912 202.57 163.096C202.459 163.279 202.404 163.493 202.407 163.739C202.404 163.99 202.46 164.209 202.574 164.396C202.69 164.583 202.849 164.729 203.053 164.833C203.257 164.937 203.491 164.989 203.756 164.989Z" fill="black"/>
<path d="M224.84 152.391V159.012" stroke="black"/>
<path d="M224.789 161.75C225.087 161.753 225.385 161.81 225.683 161.921C225.982 162.032 226.254 162.217 226.5 162.475C226.746 162.731 226.944 163.08 227.093 163.523C227.242 163.965 227.317 164.52 227.317 165.188C227.317 165.834 227.255 166.408 227.132 166.91C227.012 167.41 226.836 167.831 226.607 168.174C226.379 168.518 226.102 168.778 225.776 168.956C225.451 169.133 225.084 169.222 224.675 169.222C224.268 169.222 223.904 169.142 223.585 168.981C223.268 168.817 223.007 168.591 222.803 168.302C222.602 168.011 222.473 167.674 222.416 167.29H223.283C223.361 167.624 223.516 167.9 223.748 168.118C223.982 168.333 224.291 168.441 224.675 168.441C225.236 168.441 225.679 168.196 226.003 167.706C226.33 167.216 226.493 166.523 226.493 165.628H226.436C226.304 165.827 226.146 165.999 225.964 166.143C225.782 166.288 225.579 166.399 225.357 166.477C225.134 166.555 224.897 166.594 224.647 166.594C224.23 166.594 223.848 166.491 223.5 166.285C223.154 166.077 222.877 165.792 222.669 165.429C222.463 165.065 222.36 164.648 222.36 164.179C222.36 163.734 222.459 163.327 222.658 162.958C222.859 162.586 223.141 162.29 223.503 162.07C223.868 161.85 224.296 161.743 224.789 161.75ZM224.789 162.532C224.49 162.532 224.222 162.606 223.982 162.755C223.746 162.902 223.558 163.101 223.418 163.352C223.281 163.601 223.212 163.876 223.212 164.179C223.212 164.482 223.278 164.758 223.411 165.007C223.546 165.253 223.729 165.45 223.961 165.596C224.196 165.741 224.462 165.813 224.76 165.813C224.985 165.813 225.195 165.769 225.389 165.682C225.583 165.592 225.752 165.47 225.897 165.316C226.043 165.16 226.158 164.983 226.241 164.787C226.324 164.588 226.365 164.381 226.365 164.165C226.365 163.881 226.297 163.615 226.159 163.366C226.024 163.118 225.837 162.916 225.598 162.763C225.361 162.609 225.092 162.532 224.789 162.532Z" fill="black"/>
<path d="M245.926 152.391V159.012" stroke="black"/>
<path d="M243.787 161.85V169.123H242.906V162.773H242.863L241.088 163.952V163.057L242.906 161.85H243.787ZM248.251 169.222C247.715 169.222 247.26 169.076 246.883 168.785C246.507 168.492 246.219 168.067 246.02 167.51C245.822 166.952 245.722 166.277 245.722 165.486C245.722 164.7 245.822 164.029 246.02 163.473C246.222 162.914 246.51 162.488 246.887 162.194C247.266 161.898 247.72 161.75 248.251 161.75C248.781 161.75 249.234 161.898 249.611 162.194C249.989 162.488 250.278 162.914 250.477 163.473C250.678 164.029 250.779 164.7 250.779 165.486C250.779 166.277 250.679 166.952 250.481 167.51C250.282 168.067 249.994 168.492 249.618 168.785C249.241 169.076 248.786 169.222 248.251 169.222ZM248.251 168.441C248.781 168.441 249.193 168.185 249.486 167.674C249.78 167.162 249.927 166.433 249.927 165.486C249.927 164.857 249.859 164.32 249.724 163.878C249.592 163.435 249.4 163.098 249.149 162.866C248.9 162.634 248.601 162.518 248.251 162.518C247.725 162.518 247.314 162.777 247.018 163.295C246.722 163.811 246.574 164.542 246.574 165.486C246.574 166.116 246.641 166.651 246.773 167.091C246.906 167.532 247.096 167.867 247.345 168.096C247.596 168.326 247.898 168.441 248.251 168.441Z" fill="black"/>
<path d="M267.012 152.391V159.012" stroke="black"/>
<path d="M265.673 161.85V169.123H264.793V162.773H264.75L262.974 163.952V163.057L264.793 161.85H265.673ZM270.322 161.85V169.123H269.441V162.773H269.398L267.623 163.952V163.057L269.441 161.85H270.322Z" fill="black"/>
<path d="M288.098 152.391V159.012" stroke="black"/>
<path d="M286.056 161.85V169.123H285.175V162.773H285.132L283.357 163.952V163.057L285.175 161.85H286.056ZM288.147 169.123V168.483L290.548 165.856C290.83 165.548 291.062 165.28 291.244 165.053C291.426 164.823 291.561 164.608 291.649 164.407C291.739 164.203 291.784 163.99 291.784 163.768C291.784 163.512 291.722 163.291 291.599 163.103C291.478 162.916 291.313 162.772 291.102 162.67C290.891 162.568 290.655 162.518 290.392 162.518C290.112 162.518 289.869 162.576 289.66 162.692C289.454 162.805 289.294 162.965 289.181 163.171C289.07 163.377 289.014 163.618 289.014 163.895H288.176C288.176 163.469 288.274 163.095 288.471 162.773C288.667 162.451 288.935 162.2 289.273 162.02C289.614 161.84 289.996 161.75 290.42 161.75C290.846 161.75 291.224 161.84 291.553 162.02C291.882 162.2 292.14 162.443 292.327 162.748C292.514 163.054 292.608 163.393 292.608 163.768C292.608 164.035 292.559 164.297 292.462 164.552C292.367 164.806 292.202 165.089 291.965 165.401C291.73 165.711 291.405 166.09 290.988 166.537L289.355 168.285V168.341H292.735V169.123H288.147Z" fill="black"/>
<path d="M56.1547 152.39V36.5092" stroke="black"/>
<path d="M56.1546 152.39H48.8301" stroke="black"/>
<path d="M42.0428 154.985C41.5078 154.985 41.0521 154.839 40.6756 154.548C40.2992 154.255 40.0116 153.83 39.8127 153.273C39.6139 152.715 39.5144 152.04 39.5144 151.249C39.5144 150.463 39.6139 149.792 39.8127 149.236C40.0139 148.677 40.3028 148.251 40.6792 147.957C41.058 147.661 41.5125 147.513 42.0428 147.513C42.5731 147.513 43.0265 147.661 43.4029 147.957C43.7817 148.251 44.0705 148.677 44.2694 149.236C44.4706 149.792 44.5712 150.463 44.5712 151.249C44.5712 152.04 44.4718 152.715 44.2729 153.273C44.0741 153.83 43.7864 154.255 43.41 154.548C43.0336 154.839 42.5779 154.985 42.0428 154.985ZM42.0428 154.204C42.5731 154.204 42.9851 153.948 43.2786 153.437C43.5722 152.925 43.719 152.196 43.719 151.249C43.719 150.62 43.6515 150.083 43.5166 149.641C43.384 149.198 43.1922 148.861 42.9413 148.629C42.6927 148.397 42.3932 148.281 42.0428 148.281C41.5173 148.281 41.1065 148.54 40.8106 149.058C40.5147 149.574 40.3667 150.305 40.3667 151.249C40.3667 151.879 40.433 152.414 40.5656 152.854C40.6981 153.295 40.8887 153.63 41.1373 153.859C41.3882 154.089 41.6901 154.204 42.0428 154.204Z" fill="black"/>
<path d="M56.1546 79.9645H48.8301" stroke="black"/>
<path d="M37.579 75.1871V82.4598H36.6983V76.1104H36.6557L34.8801 77.2894V76.3945L36.6983 75.1871H37.579ZM42.0428 82.5593C41.5077 82.5593 41.052 82.4137 40.6756 82.1225C40.2992 81.8289 40.0115 81.404 39.8127 80.8476C39.6138 80.2889 39.5144 79.6142 39.5144 78.8235C39.5144 78.0375 39.6138 77.3663 39.8127 76.81C40.0139 76.2513 40.3027 75.8251 40.6791 75.5316C41.0579 75.2356 41.5125 75.0877 42.0428 75.0877C42.5731 75.0877 43.0264 75.2356 43.4029 75.5316C43.7817 75.8251 44.0705 76.2513 44.2693 76.81C44.4706 77.3663 44.5712 78.0375 44.5712 78.8235C44.5712 79.6142 44.4718 80.2889 44.2729 80.8476C44.074 81.404 43.7864 81.8289 43.41 82.1225C43.0335 82.4137 42.5778 82.5593 42.0428 82.5593ZM42.0428 81.778C42.5731 81.778 42.985 81.5223 43.2786 81.011C43.5721 80.4996 43.7189 79.7704 43.7189 78.8235C43.7189 78.1937 43.6514 77.6575 43.5165 77.2148C43.3839 76.7721 43.1922 76.4347 42.9412 76.2027C42.6926 75.9707 42.3932 75.8547 42.0428 75.8547C41.5172 75.8547 41.1065 76.114 40.8105 76.6324C40.5146 77.1485 40.3666 77.8789 40.3666 78.8235C40.3666 79.4532 40.4329 79.9882 40.5655 80.4286C40.6981 80.8689 40.8887 81.2039 41.1372 81.4336C41.3882 81.6632 41.69 81.778 42.0428 81.778Z" fill="black"/>
<path d="M56.1546 65.4794H48.8301" stroke="black"/>
<path d="M37.7743 60.702V67.9747H36.8936V61.6253H36.851L35.0755 62.8043V61.9094L36.8936 60.702H37.7743ZM39.8659 67.9747V67.3355L42.2665 64.7077C42.5482 64.3999 42.7802 64.1324 42.9625 63.9051C43.1448 63.6755 43.2798 63.4601 43.3674 63.2588C43.4573 63.0552 43.5023 62.8422 43.5023 62.6196C43.5023 62.3639 43.4407 62.1426 43.3176 61.9556C43.1969 61.7685 43.0312 61.6241 42.8205 61.5223C42.6098 61.4205 42.373 61.3696 42.1103 61.3696C41.8309 61.3696 41.5871 61.4276 41.3787 61.5436C41.1728 61.6573 41.013 61.8171 40.8993 62.023C40.788 62.229 40.7324 62.4705 40.7324 62.7475H39.8943C39.8943 62.3213 39.9926 61.9473 40.1891 61.6253C40.3856 61.3033 40.6531 61.0524 40.9916 60.8725C41.3326 60.6925 41.7149 60.6026 42.1387 60.6026C42.5648 60.6026 42.9424 60.6925 43.2715 60.8725C43.6005 61.0524 43.8586 61.295 44.0456 61.6004C44.2327 61.9058 44.3262 62.2456 44.3262 62.6196C44.3262 62.8871 44.2776 63.1487 44.1806 63.4044C44.0859 63.6577 43.9202 63.9406 43.6834 64.2531C43.449 64.5633 43.1235 64.9421 42.7068 65.3895L41.0733 67.1367V67.1935H44.454V67.9747H39.8659Z" fill="black"/>
<path d="M56.1546 50.9943H48.8301" stroke="black"/>
<path d="M37.413 46.2168V53.4896H36.5324V47.1401H36.4897L34.7142 48.3191V47.4242L36.5324 46.2168H37.413ZM39.3342 51.9981V51.2737L42.5302 46.2168H43.0558V47.339H42.7007L40.2859 51.16V51.2168H44.5899V51.9981H39.3342ZM42.7575 53.4896V51.7779V51.4406V46.2168H43.5956V53.4896H42.7575Z" fill="black"/>
<path d="M56.1546 36.5092H48.8301" stroke="black"/>
<path d="M37.5888 31.7317V39.0044H36.7081V32.655H36.6655L34.8899 33.8339V32.9391L36.7081 31.7317H37.5888ZM42.0952 39.1038C41.7969 39.0991 41.4986 39.0423 41.2003 38.9334C40.902 38.8245 40.6297 38.641 40.3835 38.3829C40.1373 38.1225 39.9396 37.771 39.7905 37.3283C39.6413 36.8832 39.5668 36.3245 39.5668 35.6521C39.5668 35.0082 39.6271 34.4376 39.7479 33.9405C39.8686 33.4409 40.0438 33.0207 40.2734 32.6798C40.5031 32.3365 40.7801 32.0761 41.1044 31.8986C41.4311 31.721 41.7992 31.6322 42.2088 31.6322C42.616 31.6322 42.9782 31.7139 43.2954 31.8773C43.615 32.0382 43.8755 32.2632 44.0767 32.552C44.2779 32.8408 44.4081 33.1734 44.4673 33.5498H43.6008C43.5204 33.2231 43.3641 32.9521 43.1321 32.7366C42.9001 32.5212 42.5923 32.4135 42.2088 32.4135C41.6454 32.4135 41.2015 32.6585 40.8771 33.1486C40.5552 33.6386 40.393 34.3264 40.3906 35.2118H40.4474C40.58 35.0105 40.7374 34.8389 40.9197 34.6969C41.1044 34.5525 41.308 34.4412 41.5305 34.3631C41.7531 34.2849 41.9886 34.2459 42.2372 34.2459C42.6539 34.2459 43.035 34.35 43.3807 34.5584C43.7263 34.7643 44.0033 35.0496 44.2116 35.4142C44.42 35.7764 44.5241 36.1919 44.5241 36.6606C44.5241 37.1105 44.4235 37.5224 44.2223 37.8964C44.0211 38.2681 43.7382 38.5641 43.3736 38.7842C43.0114 39.002 42.5852 39.1086 42.0952 39.1038ZM42.0952 38.3226C42.3935 38.3226 42.661 38.248 42.8977 38.0989C43.1368 37.9497 43.325 37.7497 43.4623 37.4987C43.602 37.2478 43.6719 36.9684 43.6719 36.6606C43.6719 36.36 43.6044 36.0865 43.4695 35.8403C43.3369 35.5918 43.1534 35.3941 42.919 35.2473C42.687 35.1005 42.4219 35.0271 42.1236 35.0271C41.8987 35.0271 41.6891 35.0721 41.495 35.1621C41.3009 35.2497 41.1304 35.3704 40.9837 35.5243C40.8392 35.6782 40.7256 35.8545 40.6427 36.0534C40.5599 36.2499 40.5185 36.457 40.5185 36.6748C40.5185 36.9637 40.5859 37.2336 40.7209 37.4845C40.8582 37.7355 41.0452 37.9379 41.282 38.0918C41.5211 38.2456 41.7921 38.3226 42.0952 38.3226Z" fill="black"/>
<path d="M6.04102 10.0757V11.0894H0.363281C0.355469 10.8354 0.396484 10.5913 0.486328 10.3569C0.630859 9.97021 0.861328 9.58936 1.17773 9.21436C1.49805 8.83936 1.95898 8.40576 2.56055 7.91357C3.49414 7.14795 4.125 6.54248 4.45312 6.09717C4.78125 5.64795 4.94531 5.22412 4.94531 4.82568C4.94531 4.40771 4.79492 4.05615 4.49414 3.771C4.19727 3.48193 3.80859 3.3374 3.32812 3.3374C2.82031 3.3374 2.41406 3.48975 2.10938 3.79443C1.80469 4.09912 1.65039 4.521 1.64648 5.06006L0.5625 4.94873C0.636719 4.14014 0.916016 3.5249 1.40039 3.10303C1.88477 2.67725 2.53516 2.46436 3.35156 2.46436C4.17578 2.46436 4.82812 2.69287 5.30859 3.1499C5.78906 3.60693 6.0293 4.17334 6.0293 4.84912C6.0293 5.19287 5.95898 5.53076 5.81836 5.86279C5.67773 6.19482 5.44336 6.54443 5.11523 6.91162C4.79102 7.27881 4.25 7.78271 3.49219 8.42334C2.85938 8.95459 2.45312 9.31592 2.27344 9.50732C2.09375 9.69482 1.94531 9.88428 1.82812 10.0757H6.04102ZM7.17773 6.85303C7.17773 5.8374 7.28125 5.021 7.48828 4.40381C7.69922 3.78271 8.00977 3.3042 8.41992 2.96826C8.83398 2.63232 9.35352 2.46436 9.97852 2.46436C10.4395 2.46436 10.8438 2.55811 11.1914 2.74561C11.5391 2.9292 11.8262 3.19678 12.0527 3.54834C12.2793 3.896 12.457 4.32178 12.5859 4.82568C12.7148 5.32568 12.7793 6.00146 12.7793 6.85303C12.7793 7.86084 12.6758 8.67529 12.4688 9.29639C12.2617 9.91357 11.9512 10.3921 11.5371 10.7319C11.127 11.0679 10.6074 11.2358 9.97852 11.2358C9.15039 11.2358 8.5 10.939 8.02734 10.3452C7.46094 9.63037 7.17773 8.46631 7.17773 6.85303ZM8.26172 6.85303C8.26172 8.26318 8.42578 9.20264 8.75391 9.67139C9.08594 10.1362 9.49414 10.3687 9.97852 10.3687C10.4629 10.3687 10.8691 10.1343 11.1973 9.66553C11.5293 9.19678 11.6953 8.25928 11.6953 6.85303C11.6953 5.43896 11.5293 4.49951 11.1973 4.03467C10.8691 3.56982 10.459 3.3374 9.9668 3.3374C9.48242 3.3374 9.0957 3.54248 8.80664 3.95264C8.44336 4.47607 8.26172 5.44287 8.26172 6.85303ZM17.8301 11.0894H16.7754V4.36865C16.5215 4.61084 16.1875 4.85303 15.7734 5.09521C15.3633 5.3374 14.9941 5.51904 14.666 5.64014V4.62061C15.2559 4.34326 15.7715 4.00732 16.2129 3.61279C16.6543 3.21826 16.9668 2.83545 17.1504 2.46436H17.8301V11.0894ZM20.6074 3.62451V2.61084H26.168V3.43115C25.6211 4.01318 25.0781 4.78662 24.5391 5.75146C24.0039 6.71631 23.5898 7.7085 23.2969 8.72803C23.0859 9.44678 22.9512 10.2339 22.8926 11.0894H21.8086C21.8203 10.4136 21.9531 9.59717 22.207 8.64014C22.4609 7.68311 22.8242 6.76123 23.2969 5.87451C23.7734 4.98389 24.2793 4.23389 24.8145 3.62451H20.6074Z" fill="black"/>
</svg>
