<svg width="295" height="173" viewBox="0 0 295 173" fill="none" xmlns="http://www.w3.org/2000/svg">
<path d="M56.1547 106.582C66.6975 106.582 66.6975 152.935 77.2404 152.935C87.7833 152.935 87.7833 152.935 98.3261 152.935C108.869 152.935 108.869 152.935 119.412 152.935C129.955 152.935 129.955 152.935 140.498 152.935C151.04 152.935 151.04 152.935 161.583 152.935C172.126 152.935 172.126 152.935 182.669 152.935C193.212 152.935 193.212 152.935 203.755 152.935C214.298 152.935 214.298 152.935 224.84 152.935C235.383 152.935 235.383 152.935 245.926 152.935C256.469 152.935 256.469 152.935 267.012 152.935C277.555 152.935 277.555 152.935 288.098 152.935C277.555 152.935 277.555 152.935 267.012 152.935C256.469 152.935 256.469 152.935 245.926 152.935C235.383 152.935 235.383 152.935 224.84 152.935C214.298 152.935 214.298 152.935 203.755 152.935C193.212 152.935 193.212 152.935 182.669 152.935C172.126 152.935 172.126 152.935 161.583 152.935C151.04 152.935 151.04 152.935 140.498 152.935C129.955 152.935 129.955 152.935 119.412 152.935C108.869 152.935 108.869 152.935 98.3261 152.935C87.7833 152.935 87.7833 152.935 77.2404 152.935C66.6975 152.935 66.6975 152.935 56.1547 152.935V106.582Z" fill="#F7D41E"/>
<path d="M56.1547 106.582C66.6975 106.582 66.6975 103.272 77.2404 103.272C87.7833 103.272 87.7833 152.935 98.3261 152.935C108.869 152.935 108.869 152.935 119.412 152.935C129.955 152.935 129.955 152.935 140.498 152.935C151.04 152.935 151.04 152.935 161.583 152.935C172.126 152.935 172.126 152.935 182.669 152.935C193.212 152.935 193.212 152.935 203.755 152.935C214.298 152.935 214.298 152.935 224.84 152.935C235.383 152.935 235.383 152.935 245.926 152.935C256.469 152.935 256.469 152.935 267.012 152.935C277.555 152.935 277.555 152.935 288.098 152.935C277.555 152.935 277.555 152.935 267.012 152.935C256.469 152.935 256.469 152.935 245.926 152.935C235.383 152.935 235.383 152.935 224.84 152.935C214.298 152.935 214.298 152.935 203.755 152.935C193.212 152.935 193.212 152.935 182.669 152.935C172.126 152.935 172.126 152.935 161.583 152.935C151.04 152.935 151.04 152.935 140.498 152.935C129.955 152.935 129.955 152.935 119.412 152.935C108.869 152.935 108.869 152.935 98.3261 152.935C87.7833 152.935 87.7833 152.935 77.2404 152.935C66.6975 152.935 66.6975 106.582 56.1547 106.582Z" fill="#F7D31E"/>
<path d="M56.1547 106.582C66.6975 106.582 66.6975 103.272 77.2404 103.272C87.7833 103.272 87.7833 99.9606 98.3261 99.9606C108.869 99.9606 108.869 152.935 119.412 152.935C129.955 152.935 129.955 152.935 140.498 152.935C151.04 152.935 151.04 152.935 161.583 152.935C172.126 152.935 172.126 152.935 182.669 152.935C193.212 152.935 193.212 152.935 203.755 152.935C214.298 152.935 214.298 152.935 224.84 152.935C235.383 152.935 235.383 152.935 245.926 152.935C256.469 152.935 256.469 152.935 267.012 152.935C277.555 152.935 277.555 152.935 288.098 152.935C277.555 152.935 277.555 152.935 267.012 152.935C256.469 152.935 256.469 152.935 245.926 152.935C235.383 152.935 235.383 152.935 224.84 152.935C214.298 152.935 214.298 152.935 203.755 152.935C193.212 152.935 193.212 152.935 182.669 152.935C172.126 152.935 172.126 152.935 161.583 152.935C151.04 152.935 151.04 152.935 140.498 152.935C129.955 152.935 129.955 152.935 119.412 152.935C108.869 152.935 108.869 152.935 98.3261 152.935C87.7833 152.935 87.7833 103.272 77.2404 103.272C66.6975 103.272 66.6975 106.582 56.1547 106.582Z" fill="#F7D21E"/>
<path d="M56.1547 106.582C66.6975 106.582 66.6975 103.272 77.2404 103.272C87.7833 103.272 87.7833 99.9607 98.3261 99.9607C108.869 99.9607 108.869 90.028 119.412 90.028C129.955 90.028 129.955 152.935 140.498 152.935C151.04 152.935 151.04 152.935 161.583 152.935C172.126 152.935 172.126 152.935 182.669 152.935C193.212 152.935 193.212 152.935 203.755 152.935C214.298 152.935 214.298 152.935 224.84 152.935C235.383 152.935 235.383 152.935 245.926 152.935C256.469 152.935 256.469 152.935 267.012 152.935C277.555 152.935 277.555 152.935 288.098 152.935C277.555 152.935 277.555 152.935 267.012 152.935C256.469 152.935 256.469 152.935 245.926 152.935C235.383 152.935 235.383 152.935 224.84 152.935C214.298 152.935 214.298 152.935 203.755 152.935C193.212 152.935 193.212 152.935 182.669 152.935C172.126 152.935 172.126 152.935 161.583 152.935C151.04 152.935 151.04 152.935 140.498 152.935C129.955 152.935 129.955 152.935 119.412 152.935C108.869 152.935 108.869 99.9607 98.3261 99.9607C87.7833 99.9607 87.7833 103.272 77.2404 103.272C66.6975 103.272 66.6975 106.582 56.1547 106.582Z" fill="#F7CD1F"/>
<path d="M56.1547 106.582C66.6975 106.582 66.6975 103.272 77.2404 103.272C87.7833 103.272 87.7833 99.9607 98.3261 99.9607C108.869 99.9607 108.869 90.028 119.412 90.028C129.955 90.028 129.955 96.6498 140.498 96.6498C151.04 96.6498 151.04 152.935 161.583 152.935C172.126 152.935 172.126 152.935 182.669 152.935C193.212 152.935 193.212 152.935 203.755 152.935C214.298 152.935 214.298 152.935 224.84 152.935C235.383 152.935 235.383 152.935 245.926 152.935C256.469 152.935 256.469 152.935 267.012 152.935C277.555 152.935 277.555 152.935 288.098 152.935C277.555 152.935 277.555 152.935 267.012 152.935C256.469 152.935 256.469 152.935 245.926 152.935C235.383 152.935 235.383 152.935 224.84 152.935C214.298 152.935 214.298 152.935 203.755 152.935C193.212 152.935 193.212 152.935 182.669 152.935C172.126 152.935 172.126 152.935 161.583 152.935C151.04 152.935 151.04 152.935 140.498 152.935C129.955 152.935 129.955 90.028 119.412 90.028C108.869 90.028 108.869 99.9607 98.3261 99.9607C87.7833 99.9607 87.7833 103.272 77.2404 103.272C66.6975 103.272 66.6975 106.582 56.1547 106.582Z" fill="#F7D01E"/>
<path d="M56.1547 106.582C66.6975 106.582 66.6975 103.272 77.2404 103.272C87.7833 103.272 87.7833 99.9607 98.3261 99.9607C108.869 99.9607 108.869 90.028 119.412 90.028C129.955 90.028 129.955 96.6498 140.498 96.6498C151.04 96.6498 151.04 93.3389 161.583 93.3389C172.126 93.3389 172.126 152.935 182.669 152.935C193.212 152.935 193.212 152.935 203.755 152.935C214.298 152.935 214.298 152.935 224.84 152.935C235.383 152.935 235.383 152.935 245.926 152.935C256.469 152.935 256.469 152.935 267.012 152.935C277.555 152.935 277.555 152.935 288.098 152.935C277.555 152.935 277.555 152.935 267.012 152.935C256.469 152.935 256.469 152.935 245.926 152.935C235.383 152.935 235.383 152.935 224.84 152.935C214.298 152.935 214.298 152.935 203.755 152.935C193.212 152.935 193.212 152.935 182.669 152.935C172.126 152.935 172.126 152.935 161.583 152.935C151.04 152.935 151.04 96.6498 140.498 96.6498C129.955 96.6498 129.955 90.028 119.412 90.028C108.869 90.028 108.869 99.9607 98.3261 99.9607C87.7833 99.9607 87.7833 103.272 77.2404 103.272C66.6975 103.272 66.6975 106.582 56.1547 106.582Z" fill="#F7CF1E"/>
<path d="M56.1547 106.582C66.6975 106.582 66.6975 103.271 77.2404 103.271C87.7833 103.271 87.7833 99.9605 98.3261 99.9605C108.869 99.9605 108.869 90.0278 119.412 90.0278C129.955 90.0278 129.955 96.6496 140.498 96.6496C151.04 96.6496 151.04 93.3387 161.583 93.3387C172.126 93.3387 172.126 86.7169 182.669 86.7169C193.212 86.7169 193.212 152.935 203.755 152.935C214.298 152.935 214.298 152.935 224.84 152.935C235.383 152.935 235.383 152.935 245.926 152.935C256.469 152.935 256.469 152.935 267.012 152.935C277.555 152.935 277.555 152.935 288.098 152.935C277.555 152.935 277.555 152.935 267.012 152.935C256.469 152.935 256.469 152.935 245.926 152.935C235.383 152.935 235.383 152.935 224.84 152.935C214.298 152.935 214.298 152.935 203.755 152.935C193.212 152.935 193.212 152.935 182.669 152.935C172.126 152.935 172.126 93.3387 161.583 93.3387C151.04 93.3387 151.04 96.6496 140.498 96.6496C129.955 96.6496 129.955 90.0278 119.412 90.0278C108.869 90.0278 108.869 99.9605 98.3261 99.9605C87.7833 99.9605 87.7833 103.271 77.2404 103.271C66.6975 103.271 66.6975 106.582 56.1547 106.582Z" fill="#F6CC1F"/>
<path d="M56.1547 106.582C66.6975 106.582 66.6975 103.272 77.2404 103.272C87.7833 103.272 87.7833 99.9606 98.3261 99.9606C108.869 99.9606 108.869 90.028 119.412 90.028C129.955 90.028 129.955 96.6497 140.498 96.6497C151.04 96.6497 151.04 93.3388 161.583 93.3388C172.126 93.3388 172.126 86.7171 182.669 86.7171C193.212 86.7171 193.212 80.0953 203.755 80.0953C214.298 80.0953 214.298 152.935 224.84 152.935C235.383 152.935 235.383 152.935 245.926 152.935C256.469 152.935 256.469 152.935 267.012 152.935C277.555 152.935 277.555 152.935 288.098 152.935C277.555 152.935 277.555 152.935 267.012 152.935C256.469 152.935 256.469 152.935 245.926 152.935C235.383 152.935 235.383 152.935 224.84 152.935C214.298 152.935 214.298 152.935 203.755 152.935C193.212 152.935 193.212 86.7171 182.669 86.7171C172.126 86.7171 172.126 93.3388 161.583 93.3388C151.04 93.3388 151.04 96.6497 140.498 96.6497C129.955 96.6497 129.955 90.028 119.412 90.028C108.869 90.028 108.869 99.9606 98.3261 99.9606C87.7833 99.9606 87.7833 103.272 77.2404 103.272C66.6975 103.272 66.6975 106.582 56.1547 106.582Z" fill="#F6C91F"/>
<path d="M56.1547 106.582C66.6975 106.582 66.6975 103.272 77.2404 103.272C87.7833 103.272 87.7833 99.9606 98.3261 99.9606C108.869 99.9606 108.869 90.028 119.412 90.028C129.955 90.028 129.955 96.6498 140.498 96.6498C151.04 96.6498 151.04 93.3389 161.583 93.3389C172.126 93.3389 172.126 86.7171 182.669 86.7171C193.212 86.7171 193.212 80.0953 203.755 80.0953C214.298 80.0953 214.298 73.4735 224.84 73.4735C235.383 73.4735 235.383 152.935 245.926 152.935C256.469 152.935 256.469 152.935 267.012 152.935C277.555 152.935 277.555 152.935 288.098 152.935C277.555 152.935 277.555 152.935 267.012 152.935C256.469 152.935 256.469 152.935 245.926 152.935C235.383 152.935 235.383 152.935 224.84 152.935C214.298 152.935 214.298 80.0953 203.755 80.0953C193.212 80.0953 193.212 86.7171 182.669 86.7171C172.126 86.7171 172.126 93.3389 161.583 93.3389C151.04 93.3389 151.04 96.6498 140.498 96.6498C129.955 96.6498 129.955 90.028 119.412 90.028C108.869 90.028 108.869 99.9606 98.3261 99.9606C87.7833 99.9606 87.7833 103.272 77.2404 103.272C66.6975 103.272 66.6975 106.582 56.1547 106.582Z" fill="#F6C61F"/>
<path d="M56.1547 106.582C66.6975 106.582 66.6975 103.272 77.2404 103.272C87.7833 103.272 87.7833 99.9607 98.3261 99.9607C108.869 99.9607 108.869 90.028 119.412 90.028C129.955 90.028 129.955 96.6498 140.498 96.6498C151.04 96.6498 151.04 93.3389 161.583 93.3389C172.126 93.3389 172.126 86.7171 182.669 86.7171C193.212 86.7171 193.212 80.0953 203.755 80.0953C214.298 80.0953 214.298 73.4736 224.84 73.4736C235.383 73.4736 235.383 70.1627 245.926 70.1627C256.469 70.1627 256.469 152.935 267.012 152.935C277.555 152.935 277.555 70.1627 288.098 70.1627V152.935C277.555 152.935 277.555 152.935 267.012 152.935C256.469 152.935 256.469 152.935 245.926 152.935C235.383 152.935 235.383 73.4736 224.84 73.4736C214.298 73.4736 214.298 80.0953 203.755 80.0953C193.212 80.0953 193.212 86.7171 182.669 86.7171C172.126 86.7171 172.126 93.3389 161.583 93.3389C151.04 93.3389 151.04 96.6498 140.498 96.6498C129.955 96.6498 129.955 90.028 119.412 90.028C108.869 90.028 108.869 99.9607 98.3261 99.9607C87.7833 99.9607 87.7833 103.272 77.2404 103.272C66.6975 103.272 66.6975 106.582 56.1547 106.582Z" fill="#F6C41F"/>
<path d="M56.1547 106.582C66.6975 106.582 66.6975 103.271 77.2404 103.271C87.7833 103.271 87.7833 99.9606 98.3261 99.9606C108.869 99.9606 108.869 90.0279 119.412 90.0279C129.955 90.0279 129.955 96.6497 140.498 96.6497C151.04 96.6497 151.04 93.3388 161.583 93.3388C172.126 93.3388 172.126 86.717 182.669 86.717C193.212 86.717 193.212 80.0952 203.755 80.0952C214.298 80.0952 214.298 73.4735 224.84 73.4735C235.383 73.4735 235.383 70.1626 245.926 70.1626C256.469 70.1626 256.469 46.9863 267.012 46.9863C277.555 46.9863 277.555 70.1626 288.098 70.1626C277.555 70.1626 277.555 152.935 267.012 152.935C256.469 152.935 256.469 70.1626 245.926 70.1626C235.383 70.1626 235.383 73.4735 224.84 73.4735C214.298 73.4735 214.298 80.0952 203.755 80.0952C193.212 80.0952 193.212 86.717 182.669 86.717C172.126 86.717 172.126 93.3388 161.583 93.3388C151.04 93.3388 151.04 96.6497 140.498 96.6497C129.955 96.6497 129.955 90.0279 119.412 90.0279C108.869 90.0279 108.869 99.9606 98.3261 99.9606C87.7833 99.9606 87.7833 103.271 77.2404 103.271C66.6975 103.271 66.6975 106.582 56.1547 106.582Z" fill="#F5B920"/>
<path d="M56.1547 106.582C66.6975 106.582 66.6975 152.935 77.2404 152.935C87.7833 152.935 87.7833 152.935 98.3261 152.935C108.869 152.935 108.869 152.935 119.412 152.935C129.955 152.935 129.955 152.935 140.498 152.935C151.04 152.935 151.04 152.935 161.583 152.935C172.126 152.935 172.126 152.935 182.669 152.935C193.212 152.935 193.212 152.935 203.755 152.935C214.298 152.935 214.298 152.935 224.84 152.935C235.383 152.935 235.383 152.935 245.926 152.935C256.469 152.935 256.469 152.935 267.012 152.935C277.555 152.935 277.555 152.935 288.098 152.935C277.555 152.935 277.555 152.935 267.012 152.935C256.469 152.935 256.469 152.935 245.926 152.935C235.383 152.935 235.383 152.935 224.84 152.935C214.298 152.935 214.298 152.935 203.755 152.935C193.212 152.935 193.212 152.935 182.669 152.935C172.126 152.935 172.126 152.935 161.583 152.935C151.04 152.935 151.04 152.935 140.498 152.935C129.955 152.935 129.955 152.935 119.412 152.935C108.869 152.935 108.869 152.935 98.3261 152.935C87.7833 152.935 87.7833 152.935 77.2404 152.935C66.6975 152.935 66.6975 106.582 56.1547 106.582Z" fill="#F3B020"/>
<path d="M56.1547 106.582C66.6975 106.582 66.6975 152.935 77.2404 152.935C87.7833 152.935 87.7833 152.935 98.3261 152.935C108.869 152.935 108.869 152.935 119.412 152.935C129.955 152.935 129.955 152.935 140.498 152.935C151.04 152.935 151.04 152.935 161.583 152.935C172.126 152.935 172.126 152.935 182.669 152.935C193.212 152.935 193.212 152.935 203.755 152.935C214.298 152.935 214.298 152.935 224.84 152.935C235.383 152.935 235.383 152.935 245.926 152.935C256.469 152.935 256.469 152.935 267.012 152.935C277.555 152.935 277.555 152.935 288.098 152.935C277.555 152.935 277.555 152.935 267.012 152.935C256.469 152.935 256.469 152.935 245.926 152.935C235.383 152.935 235.383 152.935 224.84 152.935C214.298 152.935 214.298 152.935 203.755 152.935C193.212 152.935 193.212 152.935 182.669 152.935C172.126 152.935 172.126 152.935 161.583 152.935C151.04 152.935 151.04 152.935 140.498 152.935C129.955 152.935 129.955 152.935 119.412 152.935C108.869 152.935 108.869 152.935 98.3261 152.935C87.7833 152.935 87.7833 152.935 77.2404 152.935C66.6975 152.935 66.6975 106.582 56.1547 106.582Z" fill="#F4B220"/>
<path d="M56.1547 106.582C66.6975 106.582 66.6975 152.935 77.2404 152.935C87.7833 152.935 87.7833 152.935 98.3261 152.935C108.869 152.935 108.869 152.935 119.412 152.935C129.955 152.935 129.955 152.935 140.498 152.935C151.04 152.935 151.04 152.935 161.583 152.935C172.126 152.935 172.126 152.935 182.669 152.935C193.212 152.935 193.212 152.935 203.755 152.935C214.298 152.935 214.298 152.935 224.84 152.935C235.383 152.935 235.383 152.935 245.926 152.935C256.469 152.935 256.469 152.935 267.012 152.935C277.555 152.935 277.555 152.935 288.098 152.935C277.555 152.935 277.555 152.935 267.012 152.935C256.469 152.935 256.469 152.935 245.926 152.935C235.383 152.935 235.383 152.935 224.84 152.935C214.298 152.935 214.298 152.935 203.755 152.935C193.212 152.935 193.212 152.935 182.669 152.935C172.126 152.935 172.126 152.935 161.583 152.935C151.04 152.935 151.04 152.935 140.498 152.935C129.955 152.935 129.955 152.935 119.412 152.935C108.869 152.935 108.869 152.935 98.3261 152.935C87.7833 152.935 87.7833 152.935 77.2404 152.935C66.6975 152.935 66.6975 106.582 56.1547 106.582Z" fill="#F3AB20"/>
<path d="M56.1547 106.582C66.6975 106.582 66.6975 152.935 77.2404 152.935C87.7833 152.935 87.7833 152.935 98.3261 152.935C108.869 152.935 108.869 152.935 119.412 152.935C129.955 152.935 129.955 152.935 140.498 152.935C151.04 152.935 151.04 152.935 161.583 152.935C172.126 152.935 172.126 152.935 182.669 152.935C193.212 152.935 193.212 152.935 203.755 152.935C214.298 152.935 214.298 152.935 224.84 152.935C235.383 152.935 235.383 152.935 245.926 152.935C256.469 152.935 256.469 152.935 267.012 152.935C277.555 152.935 277.555 152.935 288.098 152.935C277.555 152.935 277.555 152.935 267.012 152.935C256.469 152.935 256.469 152.935 245.926 152.935C235.383 152.935 235.383 152.935 224.84 152.935C214.298 152.935 214.298 152.935 203.755 152.935C193.212 152.935 193.212 152.935 182.669 152.935C172.126 152.935 172.126 152.935 161.583 152.935C151.04 152.935 151.04 152.935 140.498 152.935C129.955 152.935 129.955 152.935 119.412 152.935C108.869 152.935 108.869 152.935 98.3261 152.935C87.7833 152.935 87.7833 152.935 77.2404 152.935C66.6975 152.935 66.6975 106.582 56.1547 106.582Z" fill="#F3AC20"/>
<path d="M56.1547 106.582C66.6975 106.582 66.6975 152.935 77.2404 152.935C87.7833 152.935 87.7833 152.935 98.3261 152.935C108.869 152.935 108.869 152.935 119.412 152.935C129.955 152.935 129.955 152.935 140.498 152.935C151.04 152.935 151.04 152.935 161.583 152.935C172.126 152.935 172.126 152.935 182.669 152.935C193.212 152.935 193.212 152.935 203.755 152.935C214.298 152.935 214.298 152.935 224.84 152.935C235.383 152.935 235.383 152.935 245.926 152.935C256.469 152.935 256.469 152.935 267.012 152.935C277.555 152.935 277.555 152.935 288.098 152.935C277.555 152.935 277.555 152.935 267.012 152.935C256.469 152.935 256.469 152.935 245.926 152.935C235.383 152.935 235.383 152.935 224.84 152.935C214.298 152.935 214.298 152.935 203.755 152.935C193.212 152.935 193.212 152.935 182.669 152.935C172.126 152.935 172.126 152.935 161.583 152.935C151.04 152.935 151.04 152.935 140.498 152.935C129.955 152.935 129.955 152.935 119.412 152.935C108.869 152.935 108.869 152.935 98.3261 152.935C87.7833 152.935 87.7833 152.935 77.2404 152.935C66.6975 152.935 66.6975 106.582 56.1547 106.582Z" fill="#F3AE20"/>
<path d="M56.1547 106.582C66.6975 106.582 66.6975 152.935 77.2404 152.935C87.7833 152.935 87.7833 152.935 98.3261 152.935C108.869 152.935 108.869 152.935 119.412 152.935C129.955 152.935 129.955 152.935 140.498 152.935C151.04 152.935 151.04 152.935 161.583 152.935C172.126 152.935 172.126 152.935 182.669 152.935C193.212 152.935 193.212 152.935 203.755 152.935C214.298 152.935 214.298 152.935 224.84 152.935C235.383 152.935 235.383 152.935 245.926 152.935C256.469 152.935 256.469 152.935 267.012 152.935C277.555 152.935 277.555 152.935 288.098 152.935C277.555 152.935 277.555 152.935 267.012 152.935C256.469 152.935 256.469 152.935 245.926 152.935C235.383 152.935 235.383 152.935 224.84 152.935C214.298 152.935 214.298 152.935 203.755 152.935C193.212 152.935 193.212 152.935 182.669 152.935C172.126 152.935 172.126 152.935 161.583 152.935C151.04 152.935 151.04 152.935 140.498 152.935C129.955 152.935 129.955 152.935 119.412 152.935C108.869 152.935 108.869 152.935 98.3261 152.935C87.7833 152.935 87.7833 152.935 77.2404 152.935C66.6975 152.935 66.6975 106.582 56.1547 106.582Z" fill="#F4B420"/>
<path d="M56.1547 106.582C66.6975 106.582 66.6975 152.935 77.2404 152.935C87.7833 152.935 87.7833 152.935 98.3261 152.935C108.869 152.935 108.869 152.935 119.412 152.935C129.955 152.935 129.955 152.935 140.498 152.935C151.04 152.935 151.04 152.935 161.583 152.935C172.126 152.935 172.126 152.935 182.669 152.935C193.212 152.935 193.212 152.935 203.755 152.935C214.298 152.935 214.298 152.935 224.84 152.935C235.383 152.935 235.383 152.935 245.926 152.935C256.469 152.935 256.469 152.935 267.012 152.935C277.555 152.935 277.555 152.935 288.098 152.935C277.555 152.935 277.555 152.935 267.012 152.935C256.469 152.935 256.469 152.935 245.926 152.935C235.383 152.935 235.383 152.935 224.84 152.935C214.298 152.935 214.298 152.935 203.755 152.935C193.212 152.935 193.212 152.935 182.669 152.935C172.126 152.935 172.126 152.935 161.583 152.935C151.04 152.935 151.04 152.935 140.498 152.935C129.955 152.935 129.955 152.935 119.412 152.935C108.869 152.935 108.869 152.935 98.3261 152.935C87.7833 152.935 87.7833 152.935 77.2404 152.935C66.6975 152.935 66.6975 106.582 56.1547 106.582Z" fill="#F2A720"/>
<path d="M56.1547 106.582C66.6975 106.582 66.6975 152.935 77.2404 152.935C87.7833 152.935 87.7833 152.935 98.3261 152.935C108.869 152.935 108.869 152.935 119.412 152.935C129.955 152.935 129.955 152.935 140.498 152.935C151.04 152.935 151.04 152.935 161.583 152.935C172.126 152.935 172.126 152.935 182.669 152.935C193.212 152.935 193.212 152.935 203.755 152.935C214.298 152.935 214.298 152.935 224.84 152.935C235.383 152.935 235.383 152.935 245.926 152.935C256.469 152.935 256.469 152.935 267.012 152.935C277.555 152.935 277.555 152.935 288.098 152.935C277.555 152.935 277.555 152.935 267.012 152.935C256.469 152.935 256.469 152.935 245.926 152.935C235.383 152.935 235.383 152.935 224.84 152.935C214.298 152.935 214.298 152.935 203.755 152.935C193.212 152.935 193.212 152.935 182.669 152.935C172.126 152.935 172.126 152.935 161.583 152.935C151.04 152.935 151.04 152.935 140.498 152.935C129.955 152.935 129.955 152.935 119.412 152.935C108.869 152.935 108.869 152.935 98.3261 152.935C87.7833 152.935 87.7833 152.935 77.2404 152.935C66.6975 152.935 66.6975 106.582 56.1547 106.582Z" fill="#F19E20"/>
<path d="M56.1547 106.582C66.6975 106.582 66.6975 152.935 77.2404 152.935C87.7833 152.935 87.7833 152.935 98.3261 152.935C108.869 152.935 108.869 152.935 119.412 152.935C129.955 152.935 129.955 152.935 140.498 152.935C151.04 152.935 151.04 152.935 161.583 152.935C172.126 152.935 172.126 152.935 182.669 152.935C193.212 152.935 193.212 152.935 203.755 152.935C214.298 152.935 214.298 152.935 224.84 152.935C235.383 152.935 235.383 152.935 245.926 152.935C256.469 152.935 256.469 152.935 267.012 152.935C277.555 152.935 277.555 152.935 288.098 152.935C277.555 152.935 277.555 152.935 267.012 152.935C256.469 152.935 256.469 152.935 245.926 152.935C235.383 152.935 235.383 152.935 224.84 152.935C214.298 152.935 214.298 152.935 203.755 152.935C193.212 152.935 193.212 152.935 182.669 152.935C172.126 152.935 172.126 152.935 161.583 152.935C151.04 152.935 151.04 152.935 140.498 152.935C129.955 152.935 129.955 152.935 119.412 152.935C108.869 152.935 108.869 152.935 98.3261 152.935C87.7833 152.935 87.7833 152.935 77.2404 152.935C66.6975 152.935 66.6975 106.582 56.1547 106.582Z" fill="#F1A020"/>
<path d="M56.1547 106.582C66.6975 106.582 66.6975 152.935 77.2404 152.935C87.7833 152.935 87.7833 152.935 98.3261 152.935C108.869 152.935 108.869 152.935 119.412 152.935C129.955 152.935 129.955 152.935 140.498 152.935C151.04 152.935 151.04 152.935 161.583 152.935C172.126 152.935 172.126 152.935 182.669 152.935C193.212 152.935 193.212 152.935 203.755 152.935C214.298 152.935 214.298 152.935 224.84 152.935C235.383 152.935 235.383 152.935 245.926 152.935C256.469 152.935 256.469 152.935 267.012 152.935C277.555 152.935 277.555 152.935 288.098 152.935C277.555 152.935 277.555 152.935 267.012 152.935C256.469 152.935 256.469 152.935 245.926 152.935C235.383 152.935 235.383 152.935 224.84 152.935C214.298 152.935 214.298 152.935 203.755 152.935C193.212 152.935 193.212 152.935 182.669 152.935C172.126 152.935 172.126 152.935 161.583 152.935C151.04 152.935 151.04 152.935 140.498 152.935C129.955 152.935 129.955 152.935 119.412 152.935C108.869 152.935 108.869 152.935 98.3261 152.935C87.7833 152.935 87.7833 152.935 77.2404 152.935C66.6975 152.935 66.6975 106.582 56.1547 106.582Z" fill="#EC8520"/>
<path d="M56.1547 106.582C66.6975 106.582 66.6975 152.935 77.2404 152.935C87.7833 152.935 87.7833 152.935 98.3261 152.935C108.869 152.935 108.869 152.935 119.412 152.935C129.955 152.935 129.955 152.935 140.498 152.935C151.04 152.935 151.04 152.935 161.583 152.935C172.126 152.935 172.126 152.935 182.669 152.935C193.212 152.935 193.212 152.935 203.755 152.935C214.298 152.935 214.298 152.935 224.84 152.935C235.383 152.935 235.383 152.935 245.926 152.935C256.469 152.935 256.469 152.935 267.012 152.935C277.555 152.935 277.555 152.935 288.098 152.935C277.555 152.935 277.555 152.935 267.012 152.935C256.469 152.935 256.469 152.935 245.926 152.935C235.383 152.935 235.383 152.935 224.84 152.935C214.298 152.935 214.298 152.935 203.755 152.935C193.212 152.935 193.212 152.935 182.669 152.935C172.126 152.935 172.126 152.935 161.583 152.935C151.04 152.935 151.04 152.935 140.498 152.935C129.955 152.935 129.955 152.935 119.412 152.935C108.869 152.935 108.869 152.935 98.3261 152.935C87.7833 152.935 87.7833 152.935 77.2404 152.935C66.6975 152.935 66.6975 106.582 56.1547 106.582Z" fill="#EE8C20"/>
<path d="M56.1547 106.582C66.6975 106.582 66.6975 152.935 77.2404 152.935C87.7833 152.935 87.7833 152.935 98.3261 152.935C108.869 152.935 108.869 152.935 119.412 152.935C129.955 152.935 129.955 152.935 140.498 152.935C151.04 152.935 151.04 152.935 161.583 152.935C172.126 152.935 172.126 152.935 182.669 152.935C193.212 152.935 193.212 152.935 203.755 152.935C214.298 152.935 214.298 152.935 224.84 152.935C235.383 152.935 235.383 152.935 245.926 152.935C256.469 152.935 256.469 152.935 267.012 152.935C277.555 152.935 277.555 152.935 288.098 152.935C277.555 152.935 277.555 152.935 267.012 152.935C256.469 152.935 256.469 152.935 245.926 152.935C235.383 152.935 235.383 152.935 224.84 152.935C214.298 152.935 214.298 152.935 203.755 152.935C193.212 152.935 193.212 152.935 182.669 152.935C172.126 152.935 172.126 152.935 161.583 152.935C151.04 152.935 151.04 152.935 140.498 152.935C129.955 152.935 129.955 152.935 119.412 152.935C108.869 152.935 108.869 152.935 98.3261 152.935C87.7833 152.935 87.7833 152.935 77.2404 152.935C66.6975 152.935 66.6975 106.582 56.1547 106.582Z" fill="#E6641F"/>
<path d="M56.1547 106.582C66.6975 106.582 66.6975 152.935 77.2404 152.935C87.7833 152.935 87.7833 152.935 98.3261 152.935C108.869 152.935 108.869 152.935 119.412 152.935C129.955 152.935 129.955 152.935 140.498 152.935C151.04 152.935 151.04 152.935 161.583 152.935C172.126 152.935 172.126 152.935 182.669 152.935C193.212 152.935 193.212 152.935 203.755 152.935C214.298 152.935 214.298 152.935 224.84 152.935C235.383 152.935 235.383 152.935 245.926 152.935C256.469 152.935 256.469 152.935 267.012 152.935C277.555 152.935 277.555 152.935 288.098 152.935C277.555 152.935 277.555 152.935 267.012 152.935C256.469 152.935 256.469 152.935 245.926 152.935C235.383 152.935 235.383 152.935 224.84 152.935C214.298 152.935 214.298 152.935 203.755 152.935C193.212 152.935 193.212 152.935 182.669 152.935C172.126 152.935 172.126 152.935 161.583 152.935C151.04 152.935 151.04 152.935 140.498 152.935C129.955 152.935 129.955 152.935 119.412 152.935C108.869 152.935 108.869 152.935 98.3261 152.935C87.7833 152.935 87.7833 152.935 77.2404 152.935C66.6975 152.935 66.6975 106.582 56.1547 106.582Z" fill="#E0491E"/>
<path d="M56.1547 106.582C66.6975 106.582 66.6975 152.935 77.2404 152.935C87.7833 152.935 87.7833 152.935 98.3261 152.935C108.869 152.935 108.869 152.935 119.412 152.935C129.955 152.935 129.955 152.935 140.498 152.935C151.04 152.935 151.04 152.935 161.583 152.935C172.126 152.935 172.126 152.935 182.669 152.935C193.212 152.935 193.212 152.935 203.755 152.935C214.298 152.935 214.298 152.935 224.84 152.935C235.383 152.935 235.383 152.935 245.926 152.935C256.469 152.935 256.469 152.935 267.012 152.935C277.555 152.935 277.555 152.935 288.098 152.935C277.555 152.935 277.555 152.935 267.012 152.935C256.469 152.935 256.469 152.935 245.926 152.935C235.383 152.935 235.383 152.935 224.84 152.935C214.298 152.935 214.298 152.935 203.755 152.935C193.212 152.935 193.212 152.935 182.669 152.935C172.126 152.935 172.126 152.935 161.583 152.935C151.04 152.935 151.04 152.935 140.498 152.935C129.955 152.935 129.955 152.935 119.412 152.935C108.869 152.935 108.869 152.935 98.3261 152.935C87.7833 152.935 87.7833 152.935 77.2404 152.935C66.6975 152.935 66.6975 106.582 56.1547 106.582Z" fill="#E04C1E"/>
<path d="M56.1547 106.582C66.6975 106.582 66.6975 152.935 77.2404 152.935C87.7833 152.935 87.7833 152.935 98.3261 152.935C108.869 152.935 108.869 152.935 119.412 152.935C129.955 152.935 129.955 152.935 140.498 152.935C151.04 152.935 151.04 152.935 161.583 152.935C172.126 152.935 172.126 152.935 182.669 152.935C193.212 152.935 193.212 152.935 203.755 152.935C214.298 152.935 214.298 152.935 224.84 152.935C235.383 152.935 235.383 152.935 245.926 152.935C256.469 152.935 256.469 152.935 267.012 152.935C277.555 152.935 277.555 152.935 288.098 152.935C277.555 152.935 277.555 152.935 267.012 152.935C256.469 152.935 256.469 152.935 245.926 152.935C235.383 152.935 235.383 152.935 224.84 152.935C214.298 152.935 214.298 152.935 203.755 152.935C193.212 152.935 193.212 152.935 182.669 152.935C172.126 152.935 172.126 152.935 161.583 152.935C151.04 152.935 151.04 152.935 140.498 152.935C129.955 152.935 129.955 152.935 119.412 152.935C108.869 152.935 108.869 152.935 98.3261 152.935C87.7833 152.935 87.7833 152.935 77.2404 152.935C66.6975 152.935 66.6975 106.582 56.1547 106.582Z" fill="#D0021B"/>
<path d="M56.1547 106.582C66.6975 106.582 66.6975 152.935 77.2404 152.935C87.7833 152.935 87.7833 152.935 98.3261 152.935C108.869 152.935 108.869 152.935 119.412 152.935C129.955 152.935 129.955 152.935 140.498 152.935C151.04 152.935 151.04 152.935 161.583 152.935C172.126 152.935 172.126 152.935 182.669 152.935C193.212 152.935 193.212 152.935 203.755 152.935C214.298 152.935 214.298 152.935 224.84 152.935C235.383 152.935 235.383 152.935 245.926 152.935C256.469 152.935 256.469 152.935 267.012 152.935C277.555 152.935 277.555 152.935 288.098 152.935C277.555 152.935 277.555 152.935 267.012 152.935C256.469 152.935 256.469 152.935 245.926 152.935C235.383 152.935 235.383 152.935 224.84 152.935C214.298 152.935 214.298 152.935 203.755 152.935C193.212 152.935 193.212 152.935 182.669 152.935C172.126 152.935 172.126 152.935 161.583 152.935C151.04 152.935 151.04 152.935 140.498 152.935C129.955 152.935 129.955 152.935 119.412 152.935C108.869 152.935 108.869 152.935 98.3261 152.935C87.7833 152.935 87.7833 152.935 77.2404 152.935C66.6975 152.935 66.6975 106.582 56.1547 106.582Z" fill="#D5191C"/>
<path d="M56.1547 106.582C66.6975 106.582 66.6975 152.935 77.2404 152.935C87.7833 152.935 87.7833 152.935 98.3261 152.935C108.869 152.935 108.869 152.935 119.412 152.935C129.955 152.935 129.955 152.935 140.498 152.935C151.04 152.935 151.04 152.935 161.583 152.935C172.126 152.935 172.126 152.935 182.669 152.935C193.212 152.935 193.212 152.935 203.755 152.935C214.298 152.935 214.298 152.935 224.84 152.935C235.383 152.935 235.383 152.935 245.926 152.935C256.469 152.935 256.469 152.935 267.012 152.935C277.555 152.935 277.555 152.935 288.098 152.935C277.555 152.935 277.555 152.935 267.012 152.935C256.469 152.935 256.469 152.935 245.926 152.935C235.383 152.935 235.383 152.935 224.84 152.935C214.298 152.935 214.298 152.935 203.755 152.935C193.212 152.935 193.212 152.935 182.669 152.935C172.126 152.935 172.126 152.935 161.583 152.935C151.04 152.935 151.04 152.935 140.498 152.935C129.955 152.935 129.955 152.935 119.412 152.935C108.869 152.935 108.869 152.935 98.3261 152.935C87.7833 152.935 87.7833 152.935 77.2404 152.935C66.6975 152.935 66.6975 106.582 56.1547 106.582Z" fill="#E2521F"/>
<path d="M56.1547 106.582C66.6975 106.582 66.6975 152.935 77.2404 152.935C87.7833 152.935 87.7833 152.935 98.3261 152.935C108.869 152.935 108.869 152.935 119.412 152.935C129.955 152.935 129.955 152.935 140.498 152.935C151.04 152.935 151.04 152.935 161.583 152.935C172.126 152.935 172.126 152.935 182.669 152.935C193.212 152.935 193.212 152.935 203.755 152.935C214.298 152.935 214.298 152.935 224.84 152.935C235.383 152.935 235.383 152.935 245.926 152.935C256.469 152.935 256.469 152.935 267.012 152.935C277.555 152.935 277.555 152.935 288.098 152.935C277.555 152.935 277.555 152.935 267.012 152.935C256.469 152.935 256.469 152.935 245.926 152.935C235.383 152.935 235.383 152.935 224.84 152.935C214.298 152.935 214.298 152.935 203.755 152.935C193.212 152.935 193.212 152.935 182.669 152.935C172.126 152.935 172.126 152.935 161.583 152.935C151.04 152.935 151.04 152.935 140.498 152.935C129.955 152.935 129.955 152.935 119.412 152.935C108.869 152.935 108.869 152.935 98.3261 152.935C87.7833 152.935 87.7833 152.935 77.2404 152.935C66.6975 152.935 66.6975 106.582 56.1547 106.582Z" fill="#E6671F"/>
<path d="M56.1547 106.582C66.6975 106.582 66.6975 152.935 77.2404 152.935C87.7833 152.935 87.7833 152.935 98.3261 152.935C108.869 152.935 108.869 152.935 119.412 152.935C129.955 152.935 129.955 152.935 140.498 152.935C151.04 152.935 151.04 152.935 161.583 152.935C172.126 152.935 172.126 152.935 182.669 152.935C193.212 152.935 193.212 152.935 203.755 152.935C214.298 152.935 214.298 152.935 224.84 152.935C235.383 152.935 235.383 152.935 245.926 152.935C256.469 152.935 256.469 152.935 267.012 152.935C277.555 152.935 277.555 152.935 288.098 152.935C277.555 152.935 277.555 152.935 267.012 152.935C256.469 152.935 256.469 152.935 245.926 152.935C235.383 152.935 235.383 152.935 224.84 152.935C214.298 152.935 214.298 152.935 203.755 152.935C193.212 152.935 193.212 152.935 182.669 152.935C172.126 152.935 172.126 152.935 161.583 152.935C151.04 152.935 151.04 152.935 140.498 152.935C129.955 152.935 129.955 152.935 119.412 152.935C108.869 152.935 108.869 152.935 98.3261 152.935C87.7833 152.935 87.7833 152.935 77.2404 152.935C66.6975 152.935 66.6975 106.582 56.1547 106.582Z" fill="#F09821"/>
<path d="M56.1547 106.582C66.6975 106.582 66.6975 152.935 77.2404 152.935C87.7833 152.935 87.7833 152.935 98.3261 152.935C108.869 152.935 108.869 152.935 119.412 152.935C129.955 152.935 129.955 152.935 140.498 152.935C151.04 152.935 151.04 152.935 161.583 152.935C172.126 152.935 172.126 152.935 182.669 152.935C193.212 152.935 193.212 152.935 203.755 152.935C214.298 152.935 214.298 152.935 224.84 152.935C235.383 152.935 235.383 152.935 245.926 152.935C256.469 152.935 256.469 152.935 267.012 152.935C277.555 152.935 277.555 152.935 288.098 152.935C277.555 152.935 277.555 152.935 267.012 152.935C256.469 152.935 256.469 152.935 245.926 152.935C235.383 152.935 235.383 152.935 224.84 152.935C214.298 152.935 214.298 152.935 203.755 152.935C193.212 152.935 193.212 152.935 182.669 152.935C172.126 152.935 172.126 152.935 161.583 152.935C151.04 152.935 151.04 152.935 140.498 152.935C129.955 152.935 129.955 152.935 119.412 152.935C108.869 152.935 108.869 152.935 98.3261 152.935C87.7833 152.935 87.7833 152.935 77.2404 152.935C66.6975 152.935 66.6975 106.582 56.1547 106.582Z" fill="#E97520"/>
<path d="M56.1547 106.582C66.6975 106.582 66.6975 152.935 77.2404 152.935C87.7833 152.935 87.7833 152.935 98.3261 152.935C108.869 152.935 108.869 152.935 119.412 152.935C129.955 152.935 129.955 152.935 140.498 152.935C151.04 152.935 151.04 152.935 161.583 152.935C172.126 152.935 172.126 152.935 182.669 152.935C193.212 152.935 193.212 152.935 203.755 152.935C214.298 152.935 214.298 152.935 224.84 152.935C235.383 152.935 235.383 152.935 245.926 152.935C256.469 152.935 256.469 152.935 267.012 152.935C277.555 152.935 277.555 152.935 288.098 152.935C277.555 152.935 277.555 152.935 267.012 152.935C256.469 152.935 256.469 152.935 245.926 152.935C235.383 152.935 235.383 152.935 224.84 152.935C214.298 152.935 214.298 152.935 203.755 152.935C193.212 152.935 193.212 152.935 182.669 152.935C172.126 152.935 172.126 152.935 161.583 152.935C151.04 152.935 151.04 152.935 140.498 152.935C129.955 152.935 129.955 152.935 119.412 152.935C108.869 152.935 108.869 152.935 98.3261 152.935C87.7833 152.935 87.7833 152.935 77.2404 152.935C66.6975 152.935 66.6975 106.582 56.1547 106.582Z" fill="#E45E1F"/>
<path d="M56.1547 106.582C66.6975 106.582 66.6975 152.935 77.2404 152.935C87.7833 152.935 87.7833 152.935 98.3261 152.935C108.869 152.935 108.869 152.935 119.412 152.935C129.955 152.935 129.955 152.935 140.498 152.935C151.04 152.935 151.04 152.935 161.583 152.935C172.126 152.935 172.126 152.935 182.669 152.935C193.212 152.935 193.212 152.935 203.755 152.935C214.298 152.935 214.298 152.935 224.84 152.935C235.383 152.935 235.383 152.935 245.926 152.935C256.469 152.935 256.469 152.935 267.012 152.935C277.555 152.935 277.555 152.935 288.098 152.935C277.555 152.935 277.555 152.935 267.012 152.935C256.469 152.935 256.469 152.935 245.926 152.935C235.383 152.935 235.383 152.935 224.84 152.935C214.298 152.935 214.298 152.935 203.755 152.935C193.212 152.935 193.212 152.935 182.669 152.935C172.126 152.935 172.126 152.935 161.583 152.935C151.04 152.935 151.04 152.935 140.498 152.935C129.955 152.935 129.955 152.935 119.412 152.935C108.869 152.935 108.869 152.935 98.3261 152.935C87.7833 152.935 87.7833 152.935 77.2404 152.935C66.6975 152.935 66.6975 106.582 56.1547 106.582Z" fill="#E2551F"/>
<path d="M56.1547 106.582C66.6975 106.582 66.6975 152.935 77.2404 152.935C87.7833 152.935 87.7833 152.935 98.3261 152.935C108.869 152.935 108.869 152.935 119.412 152.935C129.955 152.935 129.955 152.935 140.498 152.935C151.04 152.935 151.04 152.935 161.583 152.935C172.126 152.935 172.126 152.935 182.669 152.935C193.212 152.935 193.212 152.935 203.755 152.935C214.298 152.935 214.298 152.935 224.84 152.935C235.383 152.935 235.383 152.935 245.926 152.935C256.469 152.935 256.469 152.935 267.012 152.935C277.555 152.935 277.555 152.935 288.098 152.935C277.555 152.935 277.555 152.935 267.012 152.935C256.469 152.935 256.469 152.935 245.926 152.935C235.383 152.935 235.383 152.935 224.84 152.935C214.298 152.935 214.298 152.935 203.755 152.935C193.212 152.935 193.212 152.935 182.669 152.935C172.126 152.935 172.126 152.935 161.583 152.935C151.04 152.935 151.04 152.935 140.498 152.935C129.955 152.935 129.955 152.935 119.412 152.935C108.869 152.935 108.869 152.935 98.3261 152.935C87.7833 152.935 87.7833 152.935 77.2404 152.935C66.6975 152.935 66.6975 106.582 56.1547 106.582Z" fill="#EF9120"/>
<path d="M56.1547 106.582C66.6975 106.582 66.6975 152.935 77.2404 152.935C87.7833 152.935 87.7833 152.935 98.3261 152.935C108.869 152.935 108.869 152.935 119.412 152.935C129.955 152.935 129.955 152.935 140.498 152.935C151.04 152.935 151.04 152.935 161.583 152.935C172.126 152.935 172.126 152.935 182.669 152.935C193.212 152.935 193.212 152.935 203.755 152.935C214.298 152.935 214.298 152.935 224.84 152.935C235.383 152.935 235.383 152.935 245.926 152.935C256.469 152.935 256.469 152.935 267.012 152.935C277.555 152.935 277.555 152.935 288.098 152.935C277.555 152.935 277.555 152.935 267.012 152.935C256.469 152.935 256.469 152.935 245.926 152.935C235.383 152.935 235.383 152.935 224.84 152.935C214.298 152.935 214.298 152.935 203.755 152.935C193.212 152.935 193.212 152.935 182.669 152.935C172.126 152.935 172.126 152.935 161.583 152.935C151.04 152.935 151.04 152.935 140.498 152.935C129.955 152.935 129.955 152.935 119.412 152.935C108.869 152.935 108.869 152.935 98.3261 152.935C87.7833 152.935 87.7833 152.935 77.2404 152.935C66.6975 152.935 66.6975 106.582 56.1547 106.582Z" fill="#F09C21"/>
<path d="M56.1547 106.582C66.6975 106.582 66.6975 152.935 77.2404 152.935C87.7833 152.935 87.7833 152.935 98.3261 152.935C108.869 152.935 108.869 152.935 119.412 152.935C129.955 152.935 129.955 152.935 140.498 152.935C151.04 152.935 151.04 152.935 161.583 152.935C172.126 152.935 172.126 152.935 182.669 152.935C193.212 152.935 193.212 152.935 203.755 152.935C214.298 152.935 214.298 152.935 224.84 152.935C235.383 152.935 235.383 152.935 245.926 152.935C256.469 152.935 256.469 152.935 267.012 152.935C277.555 152.935 277.555 152.935 288.098 152.935C277.555 152.935 277.555 152.935 267.012 152.935C256.469 152.935 256.469 152.935 245.926 152.935C235.383 152.935 235.383 152.935 224.84 152.935C214.298 152.935 214.298 152.935 203.755 152.935C193.212 152.935 193.212 152.935 182.669 152.935C172.126 152.935 172.126 152.935 161.583 152.935C151.04 152.935 151.04 152.935 140.498 152.935C129.955 152.935 129.955 152.935 119.412 152.935C108.869 152.935 108.869 152.935 98.3261 152.935C87.7833 152.935 87.7833 152.935 77.2404 152.935C66.6975 152.935 66.6975 106.582 56.1547 106.582Z" fill="#F2A920"/>
<path d="M56.1547 106.582C66.6975 106.582 66.6975 152.935 77.2404 152.935C87.7833 152.935 87.7833 152.935 98.3261 152.935C108.869 152.935 108.869 152.935 119.412 152.935C129.955 152.935 129.955 152.935 140.498 152.935C151.04 152.935 151.04 152.935 161.583 152.935C172.126 152.935 172.126 152.935 182.669 152.935C193.212 152.935 193.212 152.935 203.755 152.935C214.298 152.935 214.298 152.935 224.84 152.935C235.383 152.935 235.383 152.935 245.926 152.935C256.469 152.935 256.469 152.935 267.012 152.935C277.555 152.935 277.555 152.935 288.098 152.935C277.555 152.935 277.555 152.935 267.012 152.935C256.469 152.935 256.469 152.935 245.926 152.935C235.383 152.935 235.383 152.935 224.84 152.935C214.298 152.935 214.298 152.935 203.755 152.935C193.212 152.935 193.212 152.935 182.669 152.935C172.126 152.935 172.126 152.935 161.583 152.935C151.04 152.935 151.04 152.935 140.498 152.935C129.955 152.935 129.955 152.935 119.412 152.935C108.869 152.935 108.869 152.935 98.3261 152.935C87.7833 152.935 87.7833 152.935 77.2404 152.935C66.6975 152.935 66.6975 106.582 56.1547 106.582Z" fill="#F4B720"/>
<path d="M56.1547 106.582C66.6975 106.582 66.6975 152.935 77.2404 152.935C87.7833 152.935 87.7833 152.935 98.3261 152.935C108.869 152.935 108.869 152.935 119.412 152.935C129.955 152.935 129.955 152.935 140.498 152.935C151.04 152.935 151.04 152.935 161.583 152.935C172.126 152.935 172.126 152.935 182.669 152.935C193.212 152.935 193.212 152.935 203.755 152.935C214.298 152.935 214.298 152.935 224.84 152.935C235.383 152.935 235.383 152.935 245.926 152.935C256.469 152.935 256.469 152.935 267.012 152.935C277.555 152.935 277.555 152.935 288.098 152.935C277.555 152.935 277.555 152.935 267.012 152.935C256.469 152.935 256.469 152.935 245.926 152.935C235.383 152.935 235.383 152.935 224.84 152.935C214.298 152.935 214.298 152.935 203.755 152.935C193.212 152.935 193.212 152.935 182.669 152.935C172.126 152.935 172.126 152.935 161.583 152.935C151.04 152.935 151.04 152.935 140.498 152.935C129.955 152.935 129.955 152.935 119.412 152.935C108.869 152.935 108.869 152.935 98.3261 152.935C87.7833 152.935 87.7833 152.935 77.2404 152.935C66.6975 152.935 66.6975 106.582 56.1547 106.582Z" fill="#F2A520"/>
<path d="M56.1546 152.935H288.098" stroke="black"/>
<path d="M56.1546 152.935V159.557" stroke="black"/>
<path d="M57.14 162.394V169.667H56.2594V163.318H56.2167L54.4412 164.497V163.602L56.2594 162.394H57.14Z" fill="black"/>
<path d="M77.2404 152.935V159.557" stroke="black"/>
<path d="M74.9658 169.667V169.028L77.3664 166.4C77.6481 166.092 77.8801 165.825 78.0624 165.598C78.2447 165.368 78.3797 165.152 78.4673 164.951C78.5572 164.748 78.6022 164.535 78.6022 164.312C78.6022 164.056 78.5407 163.835 78.4175 163.648C78.2968 163.461 78.1311 163.316 77.9204 163.215C77.7097 163.113 77.4729 163.062 77.2102 163.062C76.9308 163.062 76.687 163.12 76.4786 163.236C76.2727 163.35 76.1129 163.509 75.9992 163.715C75.888 163.921 75.8323 164.163 75.8323 164.44H74.9943C74.9943 164.014 75.0925 163.64 75.289 163.318C75.4855 162.996 75.753 162.745 76.0916 162.565C76.4325 162.385 76.8148 162.295 77.2386 162.295C77.6647 162.295 78.0423 162.385 78.3714 162.565C78.7005 162.745 78.9585 162.987 79.1455 163.293C79.3326 163.598 79.4261 163.938 79.4261 164.312C79.4261 164.58 79.3775 164.841 79.2805 165.097C79.1858 165.35 79.0201 165.633 78.7833 165.946C78.5489 166.256 78.2234 166.634 77.8068 167.082L76.1732 168.829V168.886H79.5539V169.667H74.9658Z" fill="black"/>
<path d="M98.3261 152.935V159.557" stroke="black"/>
<path d="M98.3527 169.767C97.884 169.767 97.4661 169.686 97.0992 169.525C96.7346 169.364 96.4446 169.14 96.2292 168.854C96.0161 168.565 95.9001 168.23 95.8811 167.849H96.776C96.795 168.083 96.8755 168.286 97.0175 168.456C97.1596 168.624 97.3454 168.754 97.575 168.847C97.8047 168.939 98.0592 168.985 98.3385 168.985C98.651 168.985 98.928 168.931 99.1695 168.822C99.411 168.713 99.6004 168.562 99.7377 168.367C99.875 168.173 99.9436 167.948 99.9436 167.693C99.9436 167.425 99.8774 167.19 99.7448 166.986C99.6122 166.78 99.4181 166.619 99.1624 166.503C98.9067 166.387 98.5942 166.329 98.2249 166.329H97.6425V165.548H98.2249C98.5137 165.548 98.767 165.496 98.9848 165.392C99.205 165.287 99.3766 165.141 99.4998 164.951C99.6252 164.762 99.688 164.539 99.688 164.284C99.688 164.037 99.6335 163.823 99.5246 163.641C99.4157 163.459 99.2618 163.316 99.063 163.215C98.8665 163.113 98.6345 163.062 98.3669 163.062C98.116 163.062 97.8793 163.108 97.6567 163.2C97.4365 163.29 97.2566 163.422 97.1169 163.595C96.9773 163.765 96.9015 163.971 96.8897 164.213H96.0374C96.0516 163.831 96.1664 163.498 96.3819 163.211C96.5973 162.922 96.879 162.697 97.227 162.536C97.5774 162.375 97.9621 162.295 98.3811 162.295C98.831 162.295 99.2168 162.386 99.5388 162.568C99.8608 162.748 100.108 162.986 100.281 163.282C100.454 163.578 100.54 163.898 100.54 164.241C100.54 164.651 100.433 165 100.217 165.289C100.004 165.577 99.714 165.777 99.3471 165.889V165.946C99.8063 166.021 100.165 166.217 100.423 166.531C100.681 166.844 100.81 167.231 100.81 167.693C100.81 168.088 100.702 168.443 100.487 168.758C100.274 169.071 99.9827 169.317 99.6134 169.497C99.2441 169.677 98.8239 169.767 98.3527 169.767Z" fill="black"/>
<path d="M119.412 152.935V159.557" stroke="black"/>
<path d="M116.786 168.176V167.451L119.982 162.394H120.508V163.517H120.153L117.738 167.338V167.394H122.042V168.176H116.786ZM120.209 169.667V167.955V167.618V162.394H121.048V169.667H120.209Z" fill="black"/>
<path d="M140.498 152.935V159.557" stroke="black"/>
<path d="M140.481 169.767C140.064 169.767 139.689 169.684 139.355 169.518C139.022 169.352 138.754 169.125 138.553 168.836C138.352 168.547 138.241 168.218 138.223 167.849H139.075C139.108 168.178 139.257 168.45 139.522 168.666C139.79 168.879 140.109 168.985 140.481 168.985C140.779 168.985 141.045 168.915 141.277 168.776C141.511 168.636 141.694 168.444 141.827 168.2C141.962 167.954 142.029 167.676 142.029 167.366C142.029 167.049 141.96 166.766 141.82 166.517C141.683 166.266 141.493 166.069 141.252 165.924C141.01 165.78 140.734 165.706 140.424 165.704C140.202 165.702 139.973 165.736 139.739 165.807C139.505 165.876 139.312 165.964 139.16 166.073L138.336 165.974L138.777 162.394H142.555V163.176H139.515L139.259 165.321H139.302C139.451 165.202 139.638 165.104 139.863 165.026C140.088 164.948 140.322 164.909 140.566 164.909C141.011 164.909 141.408 165.015 141.756 165.228C142.106 165.439 142.381 165.728 142.58 166.095C142.781 166.462 142.882 166.881 142.882 167.352C142.882 167.816 142.777 168.23 142.569 168.595C142.363 168.957 142.079 169.243 141.717 169.454C141.355 169.662 140.943 169.767 140.481 169.767Z" fill="black"/>
<path d="M161.583 152.935V159.557" stroke="black"/>
<path d="M161.631 169.767C161.333 169.762 161.034 169.705 160.736 169.596C160.438 169.487 160.165 169.304 159.919 169.046C159.673 168.785 159.475 168.434 159.326 167.991C159.177 167.546 159.102 166.987 159.102 166.315C159.102 165.671 159.163 165.1 159.283 164.603C159.404 164.104 159.579 163.683 159.809 163.343C160.039 162.999 160.316 162.739 160.64 162.561C160.967 162.384 161.335 162.295 161.744 162.295C162.152 162.295 162.514 162.377 162.831 162.54C163.151 162.701 163.411 162.926 163.612 163.215C163.814 163.504 163.944 163.836 164.003 164.213H163.136C163.056 163.886 162.9 163.615 162.668 163.399C162.436 163.184 162.128 163.076 161.744 163.076C161.181 163.076 160.737 163.321 160.413 163.811C160.091 164.301 159.929 164.989 159.926 165.875H159.983C160.116 165.673 160.273 165.502 160.455 165.36C160.64 165.215 160.844 165.104 161.066 165.026C161.289 164.948 161.524 164.909 161.773 164.909C162.19 164.909 162.571 165.013 162.916 165.221C163.262 165.427 163.539 165.712 163.747 166.077C163.956 166.439 164.06 166.855 164.06 167.323C164.06 167.773 163.959 168.185 163.758 168.559C163.557 168.931 163.274 169.227 162.909 169.447C162.547 169.665 162.121 169.771 161.631 169.767ZM161.631 168.985C161.929 168.985 162.197 168.911 162.433 168.762C162.672 168.612 162.861 168.412 162.998 168.161C163.138 167.91 163.208 167.631 163.208 167.323C163.208 167.023 163.14 166.749 163.005 166.503C162.873 166.254 162.689 166.057 162.455 165.91C162.223 165.763 161.958 165.69 161.659 165.69C161.434 165.69 161.225 165.735 161.031 165.825C160.837 165.912 160.666 166.033 160.519 166.187C160.375 166.341 160.261 166.517 160.178 166.716C160.096 166.913 160.054 167.12 160.054 167.338C160.054 167.626 160.122 167.896 160.257 168.147C160.394 168.398 160.581 168.601 160.818 168.754C161.057 168.908 161.328 168.985 161.631 168.985Z" fill="black"/>
<path d="M182.669 152.935V159.557" stroke="black"/>
<path d="M180.793 169.667L184.045 163.232V163.176H180.295V162.394H184.955V163.218L181.716 169.667H180.793Z" fill="black"/>
<path d="M203.755 152.935V159.557" stroke="black"/>
<path d="M203.756 169.767C203.268 169.767 202.837 169.68 202.463 169.507C202.092 169.332 201.802 169.092 201.593 168.786C201.385 168.479 201.282 168.128 201.284 167.735C201.282 167.428 201.342 167.143 201.466 166.883C201.589 166.62 201.757 166.401 201.97 166.226C202.185 166.049 202.426 165.936 202.691 165.889V165.846C202.343 165.756 202.066 165.561 201.86 165.26C201.654 164.957 201.552 164.613 201.554 164.227C201.552 163.857 201.645 163.527 201.835 163.236C202.024 162.945 202.285 162.715 202.616 162.547C202.95 162.379 203.33 162.295 203.756 162.295C204.177 162.295 204.554 162.379 204.885 162.547C205.217 162.715 205.477 162.945 205.667 163.236C205.858 163.527 205.955 163.857 205.958 164.227C205.955 164.613 205.85 164.957 205.642 165.26C205.436 165.561 205.162 165.756 204.821 165.846V165.889C205.084 165.936 205.321 166.049 205.532 166.226C205.742 166.401 205.91 166.62 206.036 166.883C206.161 167.143 206.225 167.428 206.228 167.735C206.225 168.128 206.119 168.479 205.908 168.786C205.7 169.092 205.41 169.332 205.038 169.507C204.669 169.68 204.241 169.767 203.756 169.767ZM203.756 168.985C204.085 168.985 204.369 168.932 204.608 168.825C204.847 168.719 205.032 168.569 205.162 168.375C205.292 168.18 205.359 167.953 205.361 167.693C205.359 167.418 205.288 167.175 205.148 166.965C205.008 166.754 204.818 166.588 204.576 166.468C204.337 166.347 204.064 166.286 203.756 166.286C203.446 166.286 203.169 166.347 202.925 166.468C202.684 166.588 202.493 166.754 202.353 166.965C202.216 167.175 202.149 167.418 202.151 167.693C202.149 167.953 202.211 168.18 202.339 168.375C202.469 168.569 202.655 168.719 202.897 168.825C203.138 168.932 203.425 168.985 203.756 168.985ZM203.756 165.534C204.016 165.534 204.247 165.482 204.448 165.377C204.652 165.273 204.812 165.128 204.928 164.941C205.044 164.754 205.103 164.535 205.105 164.284C205.103 164.037 205.045 163.823 204.931 163.641C204.818 163.456 204.66 163.314 204.459 163.215C204.258 163.113 204.024 163.062 203.756 163.062C203.484 163.062 203.246 163.113 203.042 163.215C202.839 163.314 202.681 163.456 202.57 163.641C202.459 163.823 202.404 164.037 202.407 164.284C202.404 164.535 202.46 164.754 202.573 164.941C202.689 165.128 202.849 165.273 203.053 165.377C203.256 165.482 203.491 165.534 203.756 165.534Z" fill="black"/>
<path d="M224.84 152.935V159.557" stroke="black"/>
<path d="M224.788 162.295C225.087 162.297 225.385 162.354 225.683 162.465C225.982 162.577 226.254 162.761 226.5 163.019C226.746 163.275 226.944 163.624 227.093 164.067C227.242 164.51 227.317 165.065 227.317 165.732C227.317 166.379 227.255 166.953 227.132 167.455C227.011 167.954 226.836 168.376 226.607 168.719C226.379 169.062 226.102 169.323 225.776 169.5C225.451 169.678 225.084 169.767 224.675 169.767C224.268 169.767 223.904 169.686 223.585 169.525C223.267 169.362 223.007 169.136 222.803 168.847C222.602 168.556 222.473 168.218 222.416 167.835H223.283C223.361 168.169 223.516 168.444 223.748 168.662C223.982 168.878 224.291 168.985 224.675 168.985C225.236 168.985 225.679 168.74 226.003 168.25C226.33 167.76 226.493 167.068 226.493 166.173H226.436C226.304 166.372 226.146 166.543 225.964 166.688C225.782 166.832 225.579 166.943 225.357 167.022C225.134 167.1 224.897 167.139 224.646 167.139C224.23 167.139 223.847 167.036 223.499 166.83C223.154 166.621 222.877 166.336 222.668 165.974C222.462 165.609 222.359 165.193 222.359 164.724C222.359 164.279 222.459 163.872 222.658 163.502C222.859 163.131 223.141 162.835 223.503 162.615C223.868 162.394 224.296 162.288 224.788 162.295ZM224.788 163.076C224.49 163.076 224.221 163.151 223.982 163.3C223.746 163.447 223.557 163.646 223.418 163.897C223.28 164.145 223.212 164.421 223.212 164.724C223.212 165.027 223.278 165.303 223.411 165.551C223.546 165.798 223.729 165.994 223.961 166.141C224.195 166.285 224.462 166.357 224.76 166.357C224.985 166.357 225.194 166.314 225.389 166.226C225.583 166.136 225.752 166.014 225.896 165.86C226.043 165.704 226.158 165.528 226.241 165.331C226.324 165.132 226.365 164.925 226.365 164.71C226.365 164.426 226.296 164.159 226.159 163.911C226.024 163.662 225.837 163.461 225.598 163.307C225.361 163.153 225.091 163.076 224.788 163.076Z" fill="black"/>
<path d="M245.926 152.935V159.557" stroke="black"/>
<path d="M243.787 162.394V169.667H242.906V163.318H242.863L241.088 164.497V163.602L242.906 162.394H243.787ZM248.25 169.767C247.715 169.767 247.26 169.621 246.883 169.33C246.507 169.036 246.219 168.611 246.02 168.055C245.821 167.496 245.722 166.821 245.722 166.031C245.722 165.245 245.821 164.574 246.02 164.017C246.222 163.459 246.51 163.032 246.887 162.739C247.266 162.443 247.72 162.295 248.25 162.295C248.781 162.295 249.234 162.443 249.61 162.739C249.989 163.032 250.278 163.459 250.477 164.017C250.678 164.574 250.779 165.245 250.779 166.031C250.779 166.821 250.679 167.496 250.481 168.055C250.282 168.611 249.994 169.036 249.618 169.33C249.241 169.621 248.785 169.767 248.25 169.767ZM248.25 168.985C248.781 168.985 249.193 168.73 249.486 168.218C249.78 167.707 249.927 166.978 249.927 166.031C249.927 165.401 249.859 164.865 249.724 164.422C249.592 163.979 249.4 163.642 249.149 163.41C248.9 163.178 248.601 163.062 248.25 163.062C247.725 163.062 247.314 163.321 247.018 163.84C246.722 164.356 246.574 165.086 246.574 166.031C246.574 166.66 246.641 167.196 246.773 167.636C246.906 168.076 247.096 168.411 247.345 168.641C247.596 168.87 247.898 168.985 248.25 168.985Z" fill="black"/>
<path d="M267.012 152.935V159.557" stroke="black"/>
<path d="M265.673 162.394V169.667H264.793V163.318H264.75L262.974 164.497V163.602L264.793 162.394H265.673ZM270.322 162.394V169.667H269.441V163.318H269.398L267.623 164.497V163.602L269.441 162.394H270.322Z" fill="black"/>
<path d="M288.098 152.935V159.557" stroke="black"/>
<path d="M286.056 162.394V169.667H285.175V163.318H285.132L283.357 164.497V163.602L285.175 162.394H286.056ZM288.147 169.667V169.028L290.548 166.4C290.83 166.092 291.062 165.825 291.244 165.598C291.426 165.368 291.561 165.152 291.649 164.951C291.739 164.748 291.784 164.535 291.784 164.312C291.784 164.056 291.722 163.835 291.599 163.648C291.478 163.461 291.313 163.316 291.102 163.215C290.891 163.113 290.655 163.062 290.392 163.062C290.112 163.062 289.869 163.12 289.66 163.236C289.454 163.35 289.294 163.509 289.181 163.715C289.07 163.921 289.014 164.163 289.014 164.44H288.176C288.176 164.014 288.274 163.64 288.471 163.318C288.667 162.996 288.935 162.745 289.273 162.565C289.614 162.385 289.996 162.295 290.42 162.295C290.846 162.295 291.224 162.385 291.553 162.565C291.882 162.745 292.14 162.987 292.327 163.293C292.514 163.598 292.608 163.938 292.608 164.312C292.608 164.58 292.559 164.841 292.462 165.097C292.367 165.35 292.202 165.633 291.965 165.946C291.73 166.256 291.405 166.634 290.988 167.082L289.355 168.829V168.886H292.735V169.667H288.147Z" fill="black"/>
<path d="M56.1547 152.935V37.0537" stroke="black"/>
<path d="M56.1547 152.935H48.8301" stroke="black"/>
<path d="M42.0429 155.53C41.5079 155.53 41.0521 155.384 40.6757 155.093C40.2993 154.799 40.0116 154.374 39.8128 153.818C39.6139 153.259 39.5145 152.585 39.5145 151.794C39.5145 151.008 39.6139 150.337 39.8128 149.78C40.014 149.222 40.3028 148.795 40.6793 148.502C41.058 148.206 41.5126 148.058 42.0429 148.058C42.5732 148.058 43.0266 148.206 43.403 148.502C43.7818 148.795 44.0706 149.222 44.2695 149.78C44.4707 150.337 44.5713 151.008 44.5713 151.794C44.5713 152.585 44.4719 153.259 44.273 153.818C44.0741 154.374 43.7865 154.799 43.4101 155.093C43.0337 155.384 42.5779 155.53 42.0429 155.53ZM42.0429 154.748C42.5732 154.748 42.9851 154.493 43.2787 153.981C43.5722 153.47 43.719 152.741 43.719 151.794C43.719 151.164 43.6516 150.628 43.5166 150.185C43.384 149.742 43.1923 149.405 42.9413 149.173C42.6927 148.941 42.3933 148.825 42.0429 148.825C41.5173 148.825 41.1066 149.084 40.8106 149.603C40.5147 150.119 40.3668 150.849 40.3668 151.794C40.3668 152.424 40.433 152.959 40.5656 153.399C40.6982 153.839 40.8888 154.174 41.1373 154.404C41.3883 154.634 41.6901 154.748 42.0429 154.748Z" fill="black"/>
<path d="M56.1547 103.271H48.8301" stroke="black"/>
<path d="M37.7451 98.4942V105.767H36.8644V99.4175H36.8218L35.0462 100.597V99.7016L36.8644 98.4942H37.7451ZM42.1094 105.866C41.6928 105.866 41.3175 105.784 40.9837 105.618C40.6499 105.452 40.3824 105.225 40.1812 104.936C39.9799 104.647 39.8698 104.318 39.8509 103.949H40.7032C40.7363 104.278 40.8855 104.55 41.1506 104.766C41.4181 104.979 41.7377 105.085 42.1094 105.085C42.4077 105.085 42.6729 105.015 42.9049 104.876C43.1393 104.736 43.3227 104.544 43.4553 104.3C43.5903 104.054 43.6577 103.776 43.6577 103.466C43.6577 103.149 43.5879 102.866 43.4482 102.617C43.3109 102.366 43.1215 102.168 42.88 102.024C42.6385 101.88 42.3627 101.806 42.0526 101.804C41.8301 101.802 41.6016 101.836 41.3672 101.907C41.1329 101.976 40.9399 102.064 40.7884 102.173L39.9645 102.074L40.4049 98.4942H44.1833V99.2755H41.1435L40.8878 101.42H40.9305C41.0796 101.302 41.2666 101.204 41.4915 101.126C41.7164 101.048 41.9508 101.008 42.1947 101.008C42.6397 101.008 43.0363 101.115 43.3843 101.328C43.7347 101.539 44.0093 101.828 44.2081 102.195C44.4094 102.561 44.51 102.981 44.51 103.452C44.51 103.916 44.4058 104.33 44.1975 104.695C43.9915 105.057 43.7074 105.343 43.3452 105.554C42.983 105.762 42.5711 105.866 42.1094 105.866Z" fill="black"/>
<path d="M56.1547 86.7169H48.8301" stroke="black"/>
<path d="M33.616 89.2124V88.5732L36.0166 85.9454C36.2983 85.6376 36.5303 85.3701 36.7126 85.1428C36.8949 84.9132 37.0299 84.6977 37.1175 84.4965C37.2074 84.2929 37.2524 84.0798 37.2524 83.8573C37.2524 83.6016 37.1908 83.3803 37.0677 83.1932C36.947 83.0062 36.7813 82.8618 36.5706 82.76C36.3599 82.6582 36.1231 82.6073 35.8604 82.6073C35.581 82.6073 35.3372 82.6653 35.1288 82.7813C34.9229 82.8949 34.7631 83.0547 34.6494 83.2607C34.5381 83.4667 34.4825 83.7081 34.4825 83.9851H33.6444C33.6444 83.559 33.7427 83.1849 33.9392 82.863C34.1357 82.541 34.4032 82.2901 34.7417 82.1101C35.0827 81.9302 35.465 81.8402 35.8888 81.8402C36.3149 81.8402 36.6925 81.9302 37.0216 82.1101C37.3506 82.2901 37.6087 82.5327 37.7957 82.8381C37.9827 83.1435 38.0763 83.4832 38.0763 83.8573C38.0763 84.1248 38.0277 84.3864 37.9307 84.6421C37.836 84.8954 37.6702 85.1783 37.4335 85.4908C37.1991 85.8009 36.8736 86.1797 36.4569 86.6272L34.8234 88.3743V88.4312H38.2041V89.2124H33.616ZM42.0429 89.3118C41.5078 89.3118 41.0521 89.1662 40.6757 88.875C40.2993 88.5815 40.0116 88.1565 39.8128 87.6002C39.6139 87.0415 39.5145 86.3668 39.5145 85.576C39.5145 84.7901 39.6139 84.1189 39.8128 83.5625C40.014 83.0038 40.3028 82.5777 40.6792 82.2841C41.058 81.9882 41.5126 81.8402 42.0429 81.8402C42.5732 81.8402 43.0265 81.9882 43.403 82.2841C43.7818 82.5777 44.0706 83.0038 44.2694 83.5625C44.4707 84.1189 44.5713 84.7901 44.5713 85.576C44.5713 86.3668 44.4719 87.0415 44.273 87.6002C44.0741 88.1565 43.7865 88.5815 43.4101 88.875C43.0336 89.1662 42.5779 89.3118 42.0429 89.3118ZM42.0429 88.5306C42.5732 88.5306 42.9851 88.2749 43.2787 87.7635C43.5722 87.2522 43.719 86.523 43.719 85.576C43.719 84.9463 43.6515 84.4101 43.5166 83.9674C43.384 83.5247 43.1923 83.1873 42.9413 82.9553C42.6927 82.7233 42.3933 82.6073 42.0429 82.6073C41.5173 82.6073 41.1066 82.8665 40.8106 83.385C40.5147 83.9011 40.3667 84.6314 40.3667 85.576C40.3667 86.2058 40.433 86.7408 40.5656 87.1812C40.6982 87.6215 40.8888 87.9565 41.1373 88.1861C41.3883 88.4158 41.6901 88.5306 42.0429 88.5306Z" fill="black"/>
<path d="M56.1547 70.1624H48.8301" stroke="black"/>
<path d="M33.7821 72.6578V72.0186L36.1826 69.3907C36.4643 69.083 36.6964 68.8154 36.8786 68.5882C37.0609 68.3585 37.1959 68.1431 37.2835 67.9419C37.3734 67.7383 37.4184 67.5252 37.4184 67.3027C37.4184 67.047 37.3569 66.8256 37.2338 66.6386C37.113 66.4516 36.9473 66.3072 36.7366 66.2054C36.5259 66.1036 36.2892 66.0527 36.0264 66.0527C35.747 66.0527 35.5032 66.1107 35.2948 66.2267C35.0889 66.3403 34.9291 66.5001 34.8154 66.7061C34.7042 66.912 34.6485 67.1535 34.6485 67.4305H33.8105C33.8105 67.0044 33.9087 66.6303 34.1052 66.3083C34.3017 65.9864 34.5692 65.7354 34.9078 65.5555C35.2487 65.3756 35.631 65.2856 36.0548 65.2856C36.4809 65.2856 36.8585 65.3756 37.1876 65.5555C37.5167 65.7354 37.7747 65.9781 37.9617 66.2835C38.1488 66.5889 38.2423 66.9286 38.2423 67.3027C38.2423 67.5702 38.1937 67.8318 38.0967 68.0875C38.002 68.3408 37.8363 68.6237 37.5995 68.9362C37.3651 69.2463 37.0396 69.6251 36.623 70.0725L34.9894 71.8197V71.8765H38.3701V72.6578H33.7821ZM42.1095 72.7572C41.6928 72.7572 41.3176 72.6743 40.9838 72.5086C40.6499 72.3429 40.3824 72.1156 40.1812 71.8268C39.98 71.538 39.8699 71.2089 39.8509 70.8396H40.7032C40.7364 71.1687 40.8855 71.4409 41.1507 71.6564C41.4182 71.8694 41.7378 71.976 42.1095 71.976C42.4078 71.976 42.6729 71.9061 42.9049 71.7664C43.1393 71.6268 43.3228 71.435 43.4553 71.1912C43.5903 70.9449 43.6578 70.6668 43.6578 70.3566C43.6578 70.0394 43.5879 69.7565 43.4482 69.5079C43.3109 69.257 43.1215 69.0593 42.8801 68.9149C42.6386 68.7705 42.3628 68.6971 42.0526 68.6947C41.8301 68.6923 41.6017 68.7267 41.3673 68.7977C41.1329 68.8663 40.94 68.9551 40.7884 69.064L39.9646 68.9646L40.4049 65.385H44.1833V66.1663H41.1436L40.8879 68.3112H40.9305C41.0796 68.1928 41.2667 68.0946 41.4916 68.0164C41.7165 67.9383 41.9508 67.8993 42.1947 67.8993C42.6398 67.8993 43.0363 68.0058 43.3843 68.2189C43.7347 68.4296 44.0093 68.7184 44.2082 69.0853C44.4094 69.4523 44.51 69.8713 44.51 70.3424C44.51 70.8065 44.4059 71.2207 44.1975 71.5853C43.9916 71.9475 43.7075 72.234 43.3453 72.4447C42.983 72.653 42.5711 72.7572 42.1095 72.7572Z" fill="black"/>
<path d="M56.1547 53.6082H48.8301" stroke="black"/>
<path d="M35.7609 56.2028C35.2922 56.2028 34.8743 56.1223 34.5074 55.9613C34.1428 55.8004 33.8528 55.5766 33.6373 55.2902C33.4243 55.0014 33.3083 54.6664 33.2893 54.2852H34.1842C34.2032 54.5196 34.2836 54.722 34.4257 54.8925C34.5677 55.0605 34.7536 55.1908 34.9832 55.2831C35.2129 55.3754 35.4674 55.4216 35.7467 55.4216C36.0592 55.4216 36.3362 55.3671 36.5777 55.2582C36.8192 55.1493 37.0086 54.9978 37.1459 54.8037C37.2832 54.6095 37.3518 54.3846 37.3518 54.129C37.3518 53.8614 37.2855 53.6259 37.153 53.4223C37.0204 53.2163 36.8263 53.0553 36.5706 52.9393C36.3149 52.8233 36.0024 52.7653 35.6331 52.7653H35.0507V51.9841H35.6331C35.9219 51.9841 36.1752 51.932 36.393 51.8278C36.6132 51.7237 36.7848 51.5769 36.9079 51.3875C37.0334 51.1981 37.0961 50.9756 37.0961 50.7199C37.0961 50.4737 37.0417 50.2594 36.9328 50.0771C36.8239 49.8948 36.67 49.7528 36.4711 49.651C36.2747 49.5492 36.0426 49.4983 35.7751 49.4983C35.5242 49.4983 35.2874 49.5444 35.0649 49.6368C34.8447 49.7267 34.6648 49.8581 34.5251 50.031C34.3854 50.2014 34.3097 50.4074 34.2979 50.6488H33.4456C33.4598 50.2677 33.5746 49.9339 33.79 49.6474C34.0055 49.3586 34.2872 49.1337 34.6352 48.9727C34.9856 48.8117 35.3703 48.7312 35.7893 48.7312C36.2391 48.7312 36.625 48.8224 36.947 49.0047C37.269 49.1846 37.5164 49.4225 37.6892 49.7185C37.862 50.0144 37.9484 50.334 37.9484 50.6773C37.9484 51.0868 37.8407 51.436 37.6253 51.7248C37.4122 52.0137 37.1222 52.2137 36.7552 52.325V52.3818C37.2145 52.4576 37.5732 52.6529 37.8312 52.9677C38.0893 53.2802 38.2183 53.6673 38.2183 54.129C38.2183 54.5243 38.1106 54.8794 37.8952 55.1943C37.6821 55.5068 37.3909 55.753 37.0216 55.9329C36.6523 56.1129 36.232 56.2028 35.7609 56.2028ZM42.0429 56.2028C41.5078 56.2028 41.0521 56.0572 40.6757 55.766C40.2993 55.4725 40.0116 55.0475 39.8128 54.4912C39.6139 53.9325 39.5145 53.2577 39.5145 52.467C39.5145 51.681 39.6139 51.0099 39.8128 50.4535C40.014 49.8948 40.3028 49.4687 40.6792 49.1751C41.058 48.8792 41.5126 48.7312 42.0429 48.7312C42.5732 48.7312 43.0265 48.8792 43.403 49.1751C43.7818 49.4687 44.0706 49.8948 44.2694 50.4535C44.4707 51.0099 44.5713 51.681 44.5713 52.467C44.5713 53.2577 44.4719 53.9325 44.273 54.4912C44.0741 55.0475 43.7865 55.4725 43.4101 55.766C43.0336 56.0572 42.5779 56.2028 42.0429 56.2028ZM42.0429 55.4216C42.5732 55.4216 42.9851 55.1659 43.2787 54.6545C43.5722 54.1432 43.719 53.414 43.719 52.467C43.719 51.8373 43.6515 51.3011 43.5166 50.8584C43.384 50.4157 43.1923 50.0783 42.9413 49.8463C42.6927 49.6143 42.3933 49.4983 42.0429 49.4983C41.5173 49.4983 41.1066 49.7575 40.8106 50.276C40.5147 50.7921 40.3667 51.5224 40.3667 52.467C40.3667 53.0968 40.433 53.6318 40.5656 54.0721C40.6982 54.5125 40.8888 54.8475 41.1373 55.0771C41.3883 55.3068 41.6901 55.4216 42.0429 55.4216Z" fill="black"/>
<path d="M56.1547 37.0537H48.8301" stroke="black"/>
<path d="M35.9269 39.6484C35.4582 39.6484 35.0403 39.5679 34.6734 39.4069C34.3088 39.2459 34.0188 39.0222 33.8034 38.7357C33.5903 38.4469 33.4743 38.1119 33.4553 37.7308H34.3502C34.3692 37.9651 34.4497 38.1676 34.5917 38.338C34.7338 38.5061 34.9196 38.6363 35.1492 38.7286C35.3789 38.821 35.6334 38.8671 35.9127 38.8671C36.2252 38.8671 36.5022 38.8127 36.7437 38.7038C36.9852 38.5949 37.1746 38.4434 37.3119 38.2492C37.4492 38.0551 37.5178 37.8302 37.5178 37.5745C37.5178 37.307 37.4516 37.0714 37.319 36.8678C37.1864 36.6619 36.9923 36.5009 36.7366 36.3849C36.4809 36.2689 36.1684 36.2109 35.7991 36.2109H35.2167V35.4296H35.7991C36.0879 35.4296 36.3412 35.3775 36.559 35.2734C36.7792 35.1692 36.9508 35.0224 37.074 34.833C37.1994 34.6436 37.2622 34.4211 37.2622 34.1654C37.2622 33.9192 37.2077 33.705 37.0988 33.5227C36.9899 33.3404 36.836 33.1983 36.6372 33.0965C36.4407 32.9947 36.2087 32.9438 35.9411 32.9438C35.6902 32.9438 35.4535 32.99 35.2309 33.0823C35.0107 33.1723 34.8308 33.3037 34.6911 33.4765C34.5515 33.647 34.4757 33.8529 34.4639 34.0944H33.6116C33.6258 33.7132 33.7406 33.3794 33.9561 33.093C34.1715 32.8042 34.4532 32.5793 34.8012 32.4183C35.1516 32.2573 35.5363 32.1768 35.9553 32.1768C36.4052 32.1768 36.791 32.2679 37.113 32.4502C37.435 32.6302 37.6824 32.8681 37.8552 33.164C38.028 33.4599 38.1144 33.7795 38.1144 34.1228C38.1144 34.5324 38.0067 34.8816 37.7913 35.1704C37.5782 35.4592 37.2882 35.6593 36.9213 35.7705V35.8274C37.3805 35.9031 37.7392 36.0984 37.9973 36.4133C38.2553 36.7258 38.3843 37.1129 38.3843 37.5745C38.3843 37.9699 38.2766 38.325 38.0612 38.6399C37.8481 38.9524 37.5569 39.1986 37.1876 39.3785C36.8183 39.5584 36.3981 39.6484 35.9269 39.6484ZM42.1095 39.6484C41.6928 39.6484 41.3176 39.5655 40.9838 39.3998C40.6499 39.2341 40.3824 39.0068 40.1812 38.718C39.98 38.4292 39.8699 38.1001 39.8509 37.7308H40.7032C40.7364 38.0598 40.8855 38.3321 41.1507 38.5475C41.4182 38.7606 41.7378 38.8671 42.1095 38.8671C42.4078 38.8671 42.6729 38.7973 42.9049 38.6576C43.1393 38.5179 43.3228 38.3262 43.4553 38.0823C43.5903 37.8361 43.6578 37.5579 43.6578 37.2478C43.6578 36.9306 43.5879 36.6477 43.4482 36.3991C43.3109 36.1481 43.1215 35.9505 42.8801 35.8061C42.6386 35.6616 42.3628 35.5882 42.0526 35.5859C41.8301 35.5835 41.6017 35.6178 41.3673 35.6889C41.1329 35.7575 40.94 35.8463 40.7884 35.9552L39.9646 35.8558L40.4049 32.2762H44.1833V33.0575H41.1436L40.8879 35.2024H40.9305C41.0796 35.084 41.2667 34.9857 41.4916 34.9076C41.7165 34.8295 41.9508 34.7904 42.1947 34.7904C42.6398 34.7904 43.0363 34.897 43.3843 35.11C43.7347 35.3207 44.0093 35.6096 44.2082 35.9765C44.4094 36.3435 44.51 36.7625 44.51 37.2336C44.51 37.6976 44.4059 38.1119 44.1975 38.4765C43.9916 38.8387 43.7075 39.1252 43.3453 39.3359C42.983 39.5442 42.5711 39.6484 42.1095 39.6484Z" fill="black"/>
<path d="M6.04102 10.6201V11.6338H0.363281C0.355469 11.3799 0.396484 11.1357 0.486328 10.9014C0.630859 10.5146 0.861328 10.1338 1.17773 9.75879C1.49805 9.38379 1.95898 8.9502 2.56055 8.45801C3.49414 7.69238 4.125 7.08691 4.45312 6.6416C4.78125 6.19238 4.94531 5.76855 4.94531 5.37012C4.94531 4.95215 4.79492 4.60059 4.49414 4.31543C4.19727 4.02637 3.80859 3.88184 3.32812 3.88184C2.82031 3.88184 2.41406 4.03418 2.10938 4.33887C1.80469 4.64355 1.65039 5.06543 1.64648 5.60449L0.5625 5.49316C0.636719 4.68457 0.916016 4.06934 1.40039 3.64746C1.88477 3.22168 2.53516 3.00879 3.35156 3.00879C4.17578 3.00879 4.82812 3.2373 5.30859 3.69434C5.78906 4.15137 6.0293 4.71777 6.0293 5.39355C6.0293 5.7373 5.95898 6.0752 5.81836 6.40723C5.67773 6.73926 5.44336 7.08887 5.11523 7.45605C4.79102 7.82324 4.25 8.32715 3.49219 8.96777C2.85938 9.49902 2.45312 9.86035 2.27344 10.0518C2.09375 10.2393 1.94531 10.4287 1.82812 10.6201H6.04102ZM7.17773 7.39746C7.17773 6.38184 7.28125 5.56543 7.48828 4.94824C7.69922 4.32715 8.00977 3.84863 8.41992 3.5127C8.83398 3.17676 9.35352 3.00879 9.97852 3.00879C10.4395 3.00879 10.8438 3.10254 11.1914 3.29004C11.5391 3.47363 11.8262 3.74121 12.0527 4.09277C12.2793 4.44043 12.457 4.86621 12.5859 5.37012C12.7148 5.87012 12.7793 6.5459 12.7793 7.39746C12.7793 8.40527 12.6758 9.21973 12.4688 9.84082C12.2617 10.458 11.9512 10.9365 11.5371 11.2764C11.127 11.6123 10.6074 11.7803 9.97852 11.7803C9.15039 11.7803 8.5 11.4834 8.02734 10.8896C7.46094 10.1748 7.17773 9.01074 7.17773 7.39746ZM8.26172 7.39746C8.26172 8.80762 8.42578 9.74707 8.75391 10.2158C9.08594 10.6807 9.49414 10.9131 9.97852 10.9131C10.4629 10.9131 10.8691 10.6787 11.1973 10.21C11.5293 9.74121 11.6953 8.80371 11.6953 7.39746C11.6953 5.9834 11.5293 5.04395 11.1973 4.5791C10.8691 4.11426 10.459 3.88184 9.9668 3.88184C9.48242 3.88184 9.0957 4.08691 8.80664 4.49707C8.44336 5.02051 8.26172 5.9873 8.26172 7.39746ZM17.8301 11.6338H16.7754V4.91309C16.5215 5.15527 16.1875 5.39746 15.7734 5.63965C15.3633 5.88184 14.9941 6.06348 14.666 6.18457V5.16504C15.2559 4.8877 15.7715 4.55176 16.2129 4.15723C16.6543 3.7627 16.9668 3.37988 17.1504 3.00879H17.8301V11.6338ZM22.1602 6.97559C21.7227 6.81543 21.3984 6.58691 21.1875 6.29004C20.9766 5.99316 20.8711 5.6377 20.8711 5.22363C20.8711 4.59863 21.0957 4.07324 21.5449 3.64746C21.9941 3.22168 22.5918 3.00879 23.3379 3.00879C24.0879 3.00879 24.6914 3.22754 25.1484 3.66504C25.6055 4.09863 25.834 4.62793 25.834 5.25293C25.834 5.65137 25.7285 5.99902 25.5176 6.2959C25.3105 6.58887 24.9941 6.81543 24.5684 6.97559C25.0957 7.14746 25.4961 7.4248 25.7695 7.80762C26.0469 8.19043 26.1855 8.64746 26.1855 9.17871C26.1855 9.91309 25.9258 10.5303 25.4062 11.0303C24.8867 11.5303 24.2031 11.7803 23.3555 11.7803C22.5078 11.7803 21.8242 11.5303 21.3047 11.0303C20.7852 10.5264 20.5254 9.89941 20.5254 9.14941C20.5254 8.59082 20.666 8.12402 20.9473 7.74902C21.2324 7.37012 21.6367 7.1123 22.1602 6.97559ZM21.9492 5.18848C21.9492 5.59473 22.0801 5.92676 22.3418 6.18457C22.6035 6.44238 22.9434 6.57129 23.3613 6.57129C23.7676 6.57129 24.0996 6.44434 24.3574 6.19043C24.6191 5.93262 24.75 5.61816 24.75 5.24707C24.75 4.86035 24.6152 4.53613 24.3457 4.27441C24.0801 4.00879 23.748 3.87598 23.3496 3.87598C22.9473 3.87598 22.6133 4.00488 22.3477 4.2627C22.082 4.52051 21.9492 4.8291 21.9492 5.18848ZM21.6094 9.15527C21.6094 9.45605 21.6797 9.74707 21.8203 10.0283C21.9648 10.3096 22.1777 10.5283 22.459 10.6846C22.7402 10.8369 23.043 10.9131 23.3672 10.9131C23.8711 10.9131 24.2871 10.751 24.6152 10.4268C24.9434 10.1025 25.1074 9.69043 25.1074 9.19043C25.1074 8.68262 24.9375 8.2627 24.5977 7.93066C24.2617 7.59863 23.8398 7.43262 23.332 7.43262C22.8359 7.43262 22.4238 7.59668 22.0957 7.9248C21.7715 8.25293 21.6094 8.66309 21.6094 9.15527Z" fill="black"/>
</svg>
