<svg width="295" height="173" viewBox="0 0 295 173" fill="none" xmlns="http://www.w3.org/2000/svg">
<path d="M56.1545 67.1829C66.6974 67.1829 66.6974 152.935 77.2403 152.935C87.7831 152.935 87.7831 152.935 98.326 152.935C108.869 152.935 108.869 152.935 119.412 152.935C129.955 152.935 129.955 152.935 140.497 152.935C151.04 152.935 151.04 152.935 161.583 152.935C172.126 152.935 172.126 152.935 182.669 152.935C193.212 152.935 193.212 152.935 203.755 152.935C214.298 152.935 214.298 152.935 224.84 152.935C235.383 152.935 235.383 152.935 245.926 152.935C256.469 152.935 256.469 152.935 267.012 152.935C277.555 152.935 277.555 152.935 288.098 152.935C277.555 152.935 277.555 152.935 267.012 152.935C256.469 152.935 256.469 152.935 245.926 152.935C235.383 152.935 235.383 152.935 224.84 152.935C214.298 152.935 214.298 152.935 203.755 152.935C193.212 152.935 193.212 152.935 182.669 152.935C172.126 152.935 172.126 152.935 161.583 152.935C151.04 152.935 151.04 152.935 140.497 152.935C129.955 152.935 129.955 152.935 119.412 152.935C108.869 152.935 108.869 152.935 98.326 152.935C87.7831 152.935 87.7831 152.935 77.2403 152.935C66.6974 152.935 66.6974 152.935 56.1545 152.935V67.1829Z" fill="#F3B020"/>
<path d="M56.1545 67.1829C66.6974 67.1829 66.6974 69.5005 77.2403 69.5005C87.7831 69.5005 87.7831 152.935 98.326 152.935C108.869 152.935 108.869 152.935 119.412 152.935C129.955 152.935 129.955 152.935 140.497 152.935C151.04 152.935 151.04 152.935 161.583 152.935C172.126 152.935 172.126 152.935 182.669 152.935C193.212 152.935 193.212 152.935 203.755 152.935C214.298 152.935 214.298 152.935 224.84 152.935C235.383 152.935 235.383 152.935 245.926 152.935C256.469 152.935 256.469 152.935 267.012 152.935C277.555 152.935 277.555 152.935 288.098 152.935C277.555 152.935 277.555 152.935 267.012 152.935C256.469 152.935 256.469 152.935 245.926 152.935C235.383 152.935 235.383 152.935 224.84 152.935C214.298 152.935 214.298 152.935 203.755 152.935C193.212 152.935 193.212 152.935 182.669 152.935C172.126 152.935 172.126 152.935 161.583 152.935C151.04 152.935 151.04 152.935 140.497 152.935C129.955 152.935 129.955 152.935 119.412 152.935C108.869 152.935 108.869 152.935 98.326 152.935C87.7831 152.935 87.7831 152.935 77.2403 152.935C66.6974 152.935 66.6974 67.1829 56.1545 67.1829Z" fill="#F4B220"/>
<path d="M56.1545 67.1829C66.6974 67.1829 66.6974 69.5005 77.2403 69.5005C87.7831 69.5005 87.7831 60.23 98.326 60.23C108.869 60.23 108.869 152.935 119.412 152.935C129.955 152.935 129.955 152.935 140.497 152.935C151.04 152.935 151.04 152.935 161.583 152.935C172.126 152.935 172.126 152.935 182.669 152.935C193.212 152.935 193.212 152.935 203.755 152.935C214.298 152.935 214.298 152.935 224.84 152.935C235.383 152.935 235.383 152.935 245.926 152.935C256.469 152.935 256.469 152.935 267.012 152.935C277.555 152.935 277.555 152.935 288.098 152.935C277.555 152.935 277.555 152.935 267.012 152.935C256.469 152.935 256.469 152.935 245.926 152.935C235.383 152.935 235.383 152.935 224.84 152.935C214.298 152.935 214.298 152.935 203.755 152.935C193.212 152.935 193.212 152.935 182.669 152.935C172.126 152.935 172.126 152.935 161.583 152.935C151.04 152.935 151.04 152.935 140.497 152.935C129.955 152.935 129.955 152.935 119.412 152.935C108.869 152.935 108.869 152.935 98.326 152.935C87.7831 152.935 87.7831 69.5005 77.2403 69.5005C66.6974 69.5005 66.6974 67.1829 56.1545 67.1829Z" fill="#F3AB20"/>
<path d="M56.1545 67.1829C66.6974 67.1829 66.6974 69.5005 77.2403 69.5005C87.7831 69.5005 87.7831 60.23 98.326 60.23C108.869 60.23 108.869 62.5476 119.412 62.5476C129.955 62.5476 129.955 152.935 140.497 152.935C151.04 152.935 151.04 152.935 161.583 152.935C172.126 152.935 172.126 152.935 182.669 152.935C193.212 152.935 193.212 152.935 203.755 152.935C214.298 152.935 214.298 152.935 224.84 152.935C235.383 152.935 235.383 152.935 245.926 152.935C256.469 152.935 256.469 152.935 267.012 152.935C277.555 152.935 277.555 62.5476 288.098 62.5476V152.935C277.555 152.935 277.555 152.935 267.012 152.935C256.469 152.935 256.469 152.935 245.926 152.935C235.383 152.935 235.383 152.935 224.84 152.935C214.298 152.935 214.298 152.935 203.755 152.935C193.212 152.935 193.212 152.935 182.669 152.935C172.126 152.935 172.126 152.935 161.583 152.935C151.04 152.935 151.04 152.935 140.497 152.935C129.955 152.935 129.955 152.935 119.412 152.935C108.869 152.935 108.869 60.23 98.326 60.23C87.7831 60.23 87.7831 69.5005 77.2403 69.5005C66.6974 69.5005 66.6974 67.1829 56.1545 67.1829Z" fill="#F3AC20"/>
<path d="M56.1545 67.1829C66.6974 67.1829 66.6974 69.5005 77.2403 69.5005C87.7831 69.5005 87.7831 60.23 98.326 60.23C108.869 60.23 108.869 62.5476 119.412 62.5476C129.955 62.5476 129.955 64.8652 140.497 64.8652C151.04 64.8652 151.04 152.935 161.583 152.935C172.126 152.935 172.126 152.935 182.669 152.935C193.212 152.935 193.212 152.935 203.755 152.935C214.298 152.935 214.298 152.935 224.84 152.935C235.383 152.935 235.383 152.935 245.926 152.935C256.469 152.935 256.469 64.8652 267.012 64.8652C277.555 64.8652 277.555 62.5476 288.098 62.5476C277.555 62.5476 277.555 152.935 267.012 152.935C256.469 152.935 256.469 152.935 245.926 152.935C235.383 152.935 235.383 152.935 224.84 152.935C214.298 152.935 214.298 152.935 203.755 152.935C193.212 152.935 193.212 152.935 182.669 152.935C172.126 152.935 172.126 152.935 161.583 152.935C151.04 152.935 151.04 152.935 140.497 152.935C129.955 152.935 129.955 62.5476 119.412 62.5476C108.869 62.5476 108.869 60.23 98.326 60.23C87.7831 60.23 87.7831 69.5005 77.2403 69.5005C66.6974 69.5005 66.6974 67.1829 56.1545 67.1829Z" fill="#F3AE20"/>
<path d="M56.1545 67.1829C66.6974 67.1829 66.6974 69.5005 77.2403 69.5005C87.7831 69.5005 87.7831 60.23 98.326 60.23C108.869 60.23 108.869 62.5476 119.412 62.5476C129.955 62.5476 129.955 64.8652 140.497 64.8652C151.04 64.8652 151.04 71.8181 161.583 71.8181C172.126 71.8181 172.126 152.935 182.669 152.935C193.212 152.935 193.212 152.935 203.755 152.935C214.298 152.935 214.298 152.935 224.84 152.935C235.383 152.935 235.383 152.935 245.926 152.935C256.469 152.935 256.469 64.8652 267.012 64.8652C277.555 64.8652 277.555 62.5476 288.098 62.5476C277.555 62.5476 277.555 64.8652 267.012 64.8652C256.469 64.8652 256.469 152.935 245.926 152.935C235.383 152.935 235.383 152.935 224.84 152.935C214.298 152.935 214.298 152.935 203.755 152.935C193.212 152.935 193.212 152.935 182.669 152.935C172.126 152.935 172.126 152.935 161.583 152.935C151.04 152.935 151.04 64.8652 140.497 64.8652C129.955 64.8652 129.955 62.5476 119.412 62.5476C108.869 62.5476 108.869 60.23 98.326 60.23C87.7831 60.23 87.7831 69.5005 77.2403 69.5005C66.6974 69.5005 66.6974 67.1829 56.1545 67.1829Z" fill="#F4B420"/>
<path d="M56.1545 67.1827C66.6974 67.1827 66.6974 69.5004 77.2403 69.5004C87.7831 69.5004 87.7831 60.2299 98.326 60.2299C108.869 60.2299 108.869 62.5475 119.412 62.5475C129.955 62.5475 129.955 64.8651 140.497 64.8651C151.04 64.8651 151.04 71.818 161.583 71.818C172.126 71.818 172.126 55.5946 182.669 55.5946C193.212 55.5946 193.212 152.935 203.755 152.935C214.298 152.935 214.298 152.935 224.84 152.935C235.383 152.935 235.383 55.5946 245.926 55.5946C256.469 55.5946 256.469 64.8651 267.012 64.8651C277.555 64.8651 277.555 62.5475 288.098 62.5475C277.555 62.5475 277.555 64.8651 267.012 64.8651C256.469 64.8651 256.469 152.935 245.926 152.935C235.383 152.935 235.383 152.935 224.84 152.935C214.298 152.935 214.298 152.935 203.755 152.935C193.212 152.935 193.212 152.935 182.669 152.935C172.126 152.935 172.126 71.818 161.583 71.818C151.04 71.818 151.04 64.8651 140.497 64.8651C129.955 64.8651 129.955 62.5475 119.412 62.5475C108.869 62.5475 108.869 60.2299 98.326 60.2299C87.7831 60.2299 87.7831 69.5004 77.2403 69.5004C66.6974 69.5004 66.6974 67.1827 56.1545 67.1827Z" fill="#F2A720"/>
<path d="M56.1545 67.1828C66.6974 67.1828 66.6974 69.5005 77.2403 69.5005C87.7831 69.5005 87.7831 60.23 98.326 60.23C108.869 60.23 108.869 62.5476 119.412 62.5476C129.955 62.5476 129.955 64.8652 140.497 64.8652C151.04 64.8652 151.04 71.8181 161.583 71.8181C172.126 71.8181 172.126 55.5947 182.669 55.5947C193.212 55.5947 193.212 46.3242 203.755 46.3242C214.298 46.3242 214.298 152.935 224.84 152.935C235.383 152.935 235.383 55.5947 245.926 55.5947C256.469 55.5947 256.469 64.8652 267.012 64.8652C277.555 64.8652 277.555 62.5476 288.098 62.5476C277.555 62.5476 277.555 64.8652 267.012 64.8652C256.469 64.8652 256.469 55.5947 245.926 55.5947C235.383 55.5947 235.383 152.935 224.84 152.935C214.298 152.935 214.298 152.935 203.755 152.935C193.212 152.935 193.212 55.5947 182.669 55.5947C172.126 55.5947 172.126 71.8181 161.583 71.8181C151.04 71.8181 151.04 64.8652 140.497 64.8652C129.955 64.8652 129.955 62.5476 119.412 62.5476C108.869 62.5476 108.869 60.23 98.326 60.23C87.7831 60.23 87.7831 69.5005 77.2403 69.5005C66.6974 69.5005 66.6974 67.1828 56.1545 67.1828Z" fill="#F19E20"/>
<path d="M56.1545 67.1828C66.6974 67.1828 66.6974 69.5005 77.2403 69.5005C87.7831 69.5005 87.7831 60.23 98.326 60.23C108.869 60.23 108.869 62.5476 119.412 62.5476C129.955 62.5476 129.955 64.8652 140.497 64.8652C151.04 64.8652 151.04 71.8181 161.583 71.8181C172.126 71.8181 172.126 55.5947 182.669 55.5947C193.212 55.5947 193.212 46.3242 203.755 46.3242C214.298 46.3242 214.298 48.6418 224.84 48.6418C235.383 48.6418 235.383 55.5947 245.926 55.5947C256.469 55.5947 256.469 64.8652 267.012 64.8652C277.555 64.8652 277.555 62.5476 288.098 62.5476C277.555 62.5476 277.555 64.8652 267.012 64.8652C256.469 64.8652 256.469 55.5947 245.926 55.5947C235.383 55.5947 235.383 152.935 224.84 152.935C214.298 152.935 214.298 46.3242 203.755 46.3242C193.212 46.3242 193.212 55.5947 182.669 55.5947C172.126 55.5947 172.126 71.8181 161.583 71.8181C151.04 71.8181 151.04 64.8652 140.497 64.8652C129.955 64.8652 129.955 62.5476 119.412 62.5476C108.869 62.5476 108.869 60.23 98.326 60.23C87.7831 60.23 87.7831 69.5005 77.2403 69.5005C66.6974 69.5005 66.6974 67.1828 56.1545 67.1828Z" fill="#F1A020"/>
<path d="M56.1545 67.1829C66.6974 67.1829 66.6974 152.935 77.2403 152.935C87.7831 152.935 87.7831 152.935 98.326 152.935C108.869 152.935 108.869 152.935 119.412 152.935C129.955 152.935 129.955 152.935 140.497 152.935C151.04 152.935 151.04 152.935 161.583 152.935C172.126 152.935 172.126 152.935 182.669 152.935C193.212 152.935 193.212 152.935 203.755 152.935C214.298 152.935 214.298 152.935 224.84 152.935C235.383 152.935 235.383 152.935 245.926 152.935C256.469 152.935 256.469 152.935 267.012 152.935C277.555 152.935 277.555 152.935 288.098 152.935C277.555 152.935 277.555 152.935 267.012 152.935C256.469 152.935 256.469 152.935 245.926 152.935C235.383 152.935 235.383 152.935 224.84 152.935C214.298 152.935 214.298 152.935 203.755 152.935C193.212 152.935 193.212 152.935 182.669 152.935C172.126 152.935 172.126 152.935 161.583 152.935C151.04 152.935 151.04 152.935 140.497 152.935C129.955 152.935 129.955 152.935 119.412 152.935C108.869 152.935 108.869 152.935 98.326 152.935C87.7831 152.935 87.7831 152.935 77.2403 152.935C66.6974 152.935 66.6974 67.1829 56.1545 67.1829Z" fill="#EC8520"/>
<path d="M56.1545 67.1829C66.6974 67.1829 66.6974 152.935 77.2403 152.935C87.7831 152.935 87.7831 152.935 98.326 152.935C108.869 152.935 108.869 152.935 119.412 152.935C129.955 152.935 129.955 152.935 140.497 152.935C151.04 152.935 151.04 152.935 161.583 152.935C172.126 152.935 172.126 152.935 182.669 152.935C193.212 152.935 193.212 152.935 203.755 152.935C214.298 152.935 214.298 152.935 224.84 152.935C235.383 152.935 235.383 152.935 245.926 152.935C256.469 152.935 256.469 152.935 267.012 152.935C277.555 152.935 277.555 152.935 288.098 152.935C277.555 152.935 277.555 152.935 267.012 152.935C256.469 152.935 256.469 152.935 245.926 152.935C235.383 152.935 235.383 152.935 224.84 152.935C214.298 152.935 214.298 152.935 203.755 152.935C193.212 152.935 193.212 152.935 182.669 152.935C172.126 152.935 172.126 152.935 161.583 152.935C151.04 152.935 151.04 152.935 140.497 152.935C129.955 152.935 129.955 152.935 119.412 152.935C108.869 152.935 108.869 152.935 98.326 152.935C87.7831 152.935 87.7831 152.935 77.2403 152.935C66.6974 152.935 66.6974 67.1829 56.1545 67.1829Z" fill="#EE8C20"/>
<path d="M56.1545 67.1829C66.6974 67.1829 66.6974 152.935 77.2403 152.935C87.7831 152.935 87.7831 152.935 98.326 152.935C108.869 152.935 108.869 152.935 119.412 152.935C129.955 152.935 129.955 152.935 140.497 152.935C151.04 152.935 151.04 152.935 161.583 152.935C172.126 152.935 172.126 152.935 182.669 152.935C193.212 152.935 193.212 152.935 203.755 152.935C214.298 152.935 214.298 152.935 224.84 152.935C235.383 152.935 235.383 152.935 245.926 152.935C256.469 152.935 256.469 152.935 267.012 152.935C277.555 152.935 277.555 152.935 288.098 152.935C277.555 152.935 277.555 152.935 267.012 152.935C256.469 152.935 256.469 152.935 245.926 152.935C235.383 152.935 235.383 152.935 224.84 152.935C214.298 152.935 214.298 152.935 203.755 152.935C193.212 152.935 193.212 152.935 182.669 152.935C172.126 152.935 172.126 152.935 161.583 152.935C151.04 152.935 151.04 152.935 140.497 152.935C129.955 152.935 129.955 152.935 119.412 152.935C108.869 152.935 108.869 152.935 98.326 152.935C87.7831 152.935 87.7831 152.935 77.2403 152.935C66.6974 152.935 66.6974 67.1829 56.1545 67.1829Z" fill="#E6641F"/>
<path d="M56.1545 67.1829C66.6974 67.1829 66.6974 152.935 77.2403 152.935C87.7831 152.935 87.7831 152.935 98.326 152.935C108.869 152.935 108.869 152.935 119.412 152.935C129.955 152.935 129.955 152.935 140.497 152.935C151.04 152.935 151.04 152.935 161.583 152.935C172.126 152.935 172.126 152.935 182.669 152.935C193.212 152.935 193.212 152.935 203.755 152.935C214.298 152.935 214.298 152.935 224.84 152.935C235.383 152.935 235.383 152.935 245.926 152.935C256.469 152.935 256.469 152.935 267.012 152.935C277.555 152.935 277.555 152.935 288.098 152.935C277.555 152.935 277.555 152.935 267.012 152.935C256.469 152.935 256.469 152.935 245.926 152.935C235.383 152.935 235.383 152.935 224.84 152.935C214.298 152.935 214.298 152.935 203.755 152.935C193.212 152.935 193.212 152.935 182.669 152.935C172.126 152.935 172.126 152.935 161.583 152.935C151.04 152.935 151.04 152.935 140.497 152.935C129.955 152.935 129.955 152.935 119.412 152.935C108.869 152.935 108.869 152.935 98.326 152.935C87.7831 152.935 87.7831 152.935 77.2403 152.935C66.6974 152.935 66.6974 67.1829 56.1545 67.1829Z" fill="#E0491E"/>
<path d="M56.1545 67.1829C66.6974 67.1829 66.6974 152.935 77.2403 152.935C87.7831 152.935 87.7831 152.935 98.326 152.935C108.869 152.935 108.869 152.935 119.412 152.935C129.955 152.935 129.955 152.935 140.497 152.935C151.04 152.935 151.04 152.935 161.583 152.935C172.126 152.935 172.126 152.935 182.669 152.935C193.212 152.935 193.212 152.935 203.755 152.935C214.298 152.935 214.298 152.935 224.84 152.935C235.383 152.935 235.383 152.935 245.926 152.935C256.469 152.935 256.469 152.935 267.012 152.935C277.555 152.935 277.555 152.935 288.098 152.935C277.555 152.935 277.555 152.935 267.012 152.935C256.469 152.935 256.469 152.935 245.926 152.935C235.383 152.935 235.383 152.935 224.84 152.935C214.298 152.935 214.298 152.935 203.755 152.935C193.212 152.935 193.212 152.935 182.669 152.935C172.126 152.935 172.126 152.935 161.583 152.935C151.04 152.935 151.04 152.935 140.497 152.935C129.955 152.935 129.955 152.935 119.412 152.935C108.869 152.935 108.869 152.935 98.326 152.935C87.7831 152.935 87.7831 152.935 77.2403 152.935C66.6974 152.935 66.6974 67.1829 56.1545 67.1829Z" fill="#E04C1E"/>
<path d="M56.1545 67.1829C66.6974 67.1829 66.6974 152.935 77.2403 152.935C87.7831 152.935 87.7831 152.935 98.326 152.935C108.869 152.935 108.869 152.935 119.412 152.935C129.955 152.935 129.955 152.935 140.497 152.935C151.04 152.935 151.04 152.935 161.583 152.935C172.126 152.935 172.126 152.935 182.669 152.935C193.212 152.935 193.212 152.935 203.755 152.935C214.298 152.935 214.298 152.935 224.84 152.935C235.383 152.935 235.383 152.935 245.926 152.935C256.469 152.935 256.469 152.935 267.012 152.935C277.555 152.935 277.555 152.935 288.098 152.935C277.555 152.935 277.555 152.935 267.012 152.935C256.469 152.935 256.469 152.935 245.926 152.935C235.383 152.935 235.383 152.935 224.84 152.935C214.298 152.935 214.298 152.935 203.755 152.935C193.212 152.935 193.212 152.935 182.669 152.935C172.126 152.935 172.126 152.935 161.583 152.935C151.04 152.935 151.04 152.935 140.497 152.935C129.955 152.935 129.955 152.935 119.412 152.935C108.869 152.935 108.869 152.935 98.326 152.935C87.7831 152.935 87.7831 152.935 77.2403 152.935C66.6974 152.935 66.6974 67.1829 56.1545 67.1829Z" fill="#D0021B"/>
<path d="M56.1545 67.1829C66.6974 67.1829 66.6974 152.935 77.2403 152.935C87.7831 152.935 87.7831 152.935 98.326 152.935C108.869 152.935 108.869 152.935 119.412 152.935C129.955 152.935 129.955 152.935 140.497 152.935C151.04 152.935 151.04 152.935 161.583 152.935C172.126 152.935 172.126 152.935 182.669 152.935C193.212 152.935 193.212 152.935 203.755 152.935C214.298 152.935 214.298 152.935 224.84 152.935C235.383 152.935 235.383 152.935 245.926 152.935C256.469 152.935 256.469 152.935 267.012 152.935C277.555 152.935 277.555 152.935 288.098 152.935C277.555 152.935 277.555 152.935 267.012 152.935C256.469 152.935 256.469 152.935 245.926 152.935C235.383 152.935 235.383 152.935 224.84 152.935C214.298 152.935 214.298 152.935 203.755 152.935C193.212 152.935 193.212 152.935 182.669 152.935C172.126 152.935 172.126 152.935 161.583 152.935C151.04 152.935 151.04 152.935 140.497 152.935C129.955 152.935 129.955 152.935 119.412 152.935C108.869 152.935 108.869 152.935 98.326 152.935C87.7831 152.935 87.7831 152.935 77.2403 152.935C66.6974 152.935 66.6974 67.1829 56.1545 67.1829Z" fill="#D5191C"/>
<path d="M56.1545 67.1829C66.6974 67.1829 66.6974 152.935 77.2403 152.935C87.7831 152.935 87.7831 152.935 98.326 152.935C108.869 152.935 108.869 152.935 119.412 152.935C129.955 152.935 129.955 152.935 140.497 152.935C151.04 152.935 151.04 152.935 161.583 152.935C172.126 152.935 172.126 152.935 182.669 152.935C193.212 152.935 193.212 152.935 203.755 152.935C214.298 152.935 214.298 152.935 224.84 152.935C235.383 152.935 235.383 152.935 245.926 152.935C256.469 152.935 256.469 152.935 267.012 152.935C277.555 152.935 277.555 152.935 288.098 152.935C277.555 152.935 277.555 152.935 267.012 152.935C256.469 152.935 256.469 152.935 245.926 152.935C235.383 152.935 235.383 152.935 224.84 152.935C214.298 152.935 214.298 152.935 203.755 152.935C193.212 152.935 193.212 152.935 182.669 152.935C172.126 152.935 172.126 152.935 161.583 152.935C151.04 152.935 151.04 152.935 140.497 152.935C129.955 152.935 129.955 152.935 119.412 152.935C108.869 152.935 108.869 152.935 98.326 152.935C87.7831 152.935 87.7831 152.935 77.2403 152.935C66.6974 152.935 66.6974 67.1829 56.1545 67.1829Z" fill="#E2521F"/>
<path d="M56.1545 67.1829C66.6974 67.1829 66.6974 152.935 77.2403 152.935C87.7831 152.935 87.7831 152.935 98.326 152.935C108.869 152.935 108.869 152.935 119.412 152.935C129.955 152.935 129.955 152.935 140.497 152.935C151.04 152.935 151.04 152.935 161.583 152.935C172.126 152.935 172.126 152.935 182.669 152.935C193.212 152.935 193.212 152.935 203.755 152.935C214.298 152.935 214.298 152.935 224.84 152.935C235.383 152.935 235.383 152.935 245.926 152.935C256.469 152.935 256.469 152.935 267.012 152.935C277.555 152.935 277.555 152.935 288.098 152.935C277.555 152.935 277.555 152.935 267.012 152.935C256.469 152.935 256.469 152.935 245.926 152.935C235.383 152.935 235.383 152.935 224.84 152.935C214.298 152.935 214.298 152.935 203.755 152.935C193.212 152.935 193.212 152.935 182.669 152.935C172.126 152.935 172.126 152.935 161.583 152.935C151.04 152.935 151.04 152.935 140.497 152.935C129.955 152.935 129.955 152.935 119.412 152.935C108.869 152.935 108.869 152.935 98.326 152.935C87.7831 152.935 87.7831 152.935 77.2403 152.935C66.6974 152.935 66.6974 67.1829 56.1545 67.1829Z" fill="#E6671F"/>
<path d="M56.1545 67.1829C66.6974 67.1829 66.6974 152.935 77.2403 152.935C87.7831 152.935 87.7831 152.935 98.326 152.935C108.869 152.935 108.869 152.935 119.412 152.935C129.955 152.935 129.955 152.935 140.497 152.935C151.04 152.935 151.04 152.935 161.583 152.935C172.126 152.935 172.126 152.935 182.669 152.935C193.212 152.935 193.212 152.935 203.755 152.935C214.298 152.935 214.298 152.935 224.84 152.935C235.383 152.935 235.383 152.935 245.926 152.935C256.469 152.935 256.469 152.935 267.012 152.935C277.555 152.935 277.555 152.935 288.098 152.935C277.555 152.935 277.555 152.935 267.012 152.935C256.469 152.935 256.469 152.935 245.926 152.935C235.383 152.935 235.383 152.935 224.84 152.935C214.298 152.935 214.298 152.935 203.755 152.935C193.212 152.935 193.212 152.935 182.669 152.935C172.126 152.935 172.126 152.935 161.583 152.935C151.04 152.935 151.04 152.935 140.497 152.935C129.955 152.935 129.955 152.935 119.412 152.935C108.869 152.935 108.869 152.935 98.326 152.935C87.7831 152.935 87.7831 152.935 77.2403 152.935C66.6974 152.935 66.6974 67.1829 56.1545 67.1829Z" fill="#F09821"/>
<path d="M56.1545 67.1829C66.6974 67.1829 66.6974 152.935 77.2403 152.935C87.7831 152.935 87.7831 152.935 98.326 152.935C108.869 152.935 108.869 152.935 119.412 152.935C129.955 152.935 129.955 152.935 140.497 152.935C151.04 152.935 151.04 152.935 161.583 152.935C172.126 152.935 172.126 152.935 182.669 152.935C193.212 152.935 193.212 152.935 203.755 152.935C214.298 152.935 214.298 152.935 224.84 152.935C235.383 152.935 235.383 152.935 245.926 152.935C256.469 152.935 256.469 152.935 267.012 152.935C277.555 152.935 277.555 152.935 288.098 152.935C277.555 152.935 277.555 152.935 267.012 152.935C256.469 152.935 256.469 152.935 245.926 152.935C235.383 152.935 235.383 152.935 224.84 152.935C214.298 152.935 214.298 152.935 203.755 152.935C193.212 152.935 193.212 152.935 182.669 152.935C172.126 152.935 172.126 152.935 161.583 152.935C151.04 152.935 151.04 152.935 140.497 152.935C129.955 152.935 129.955 152.935 119.412 152.935C108.869 152.935 108.869 152.935 98.326 152.935C87.7831 152.935 87.7831 152.935 77.2403 152.935C66.6974 152.935 66.6974 67.1829 56.1545 67.1829Z" fill="#E97520"/>
<path d="M56.1545 67.1829C66.6974 67.1829 66.6974 152.935 77.2403 152.935C87.7831 152.935 87.7831 152.935 98.326 152.935C108.869 152.935 108.869 152.935 119.412 152.935C129.955 152.935 129.955 152.935 140.497 152.935C151.04 152.935 151.04 152.935 161.583 152.935C172.126 152.935 172.126 152.935 182.669 152.935C193.212 152.935 193.212 152.935 203.755 152.935C214.298 152.935 214.298 152.935 224.84 152.935C235.383 152.935 235.383 152.935 245.926 152.935C256.469 152.935 256.469 152.935 267.012 152.935C277.555 152.935 277.555 152.935 288.098 152.935C277.555 152.935 277.555 152.935 267.012 152.935C256.469 152.935 256.469 152.935 245.926 152.935C235.383 152.935 235.383 152.935 224.84 152.935C214.298 152.935 214.298 152.935 203.755 152.935C193.212 152.935 193.212 152.935 182.669 152.935C172.126 152.935 172.126 152.935 161.583 152.935C151.04 152.935 151.04 152.935 140.497 152.935C129.955 152.935 129.955 152.935 119.412 152.935C108.869 152.935 108.869 152.935 98.326 152.935C87.7831 152.935 87.7831 152.935 77.2403 152.935C66.6974 152.935 66.6974 67.1829 56.1545 67.1829Z" fill="#E45E1F"/>
<path d="M56.1545 67.1829C66.6974 67.1829 66.6974 152.935 77.2403 152.935C87.7831 152.935 87.7831 152.935 98.326 152.935C108.869 152.935 108.869 152.935 119.412 152.935C129.955 152.935 129.955 152.935 140.497 152.935C151.04 152.935 151.04 152.935 161.583 152.935C172.126 152.935 172.126 152.935 182.669 152.935C193.212 152.935 193.212 152.935 203.755 152.935C214.298 152.935 214.298 152.935 224.84 152.935C235.383 152.935 235.383 152.935 245.926 152.935C256.469 152.935 256.469 152.935 267.012 152.935C277.555 152.935 277.555 152.935 288.098 152.935C277.555 152.935 277.555 152.935 267.012 152.935C256.469 152.935 256.469 152.935 245.926 152.935C235.383 152.935 235.383 152.935 224.84 152.935C214.298 152.935 214.298 152.935 203.755 152.935C193.212 152.935 193.212 152.935 182.669 152.935C172.126 152.935 172.126 152.935 161.583 152.935C151.04 152.935 151.04 152.935 140.497 152.935C129.955 152.935 129.955 152.935 119.412 152.935C108.869 152.935 108.869 152.935 98.326 152.935C87.7831 152.935 87.7831 152.935 77.2403 152.935C66.6974 152.935 66.6974 67.1829 56.1545 67.1829Z" fill="#E2551F"/>
<path d="M56.1545 67.1829C66.6974 67.1829 66.6974 152.935 77.2403 152.935C87.7831 152.935 87.7831 152.935 98.326 152.935C108.869 152.935 108.869 152.935 119.412 152.935C129.955 152.935 129.955 152.935 140.497 152.935C151.04 152.935 151.04 152.935 161.583 152.935C172.126 152.935 172.126 152.935 182.669 152.935C193.212 152.935 193.212 152.935 203.755 152.935C214.298 152.935 214.298 152.935 224.84 152.935C235.383 152.935 235.383 152.935 245.926 152.935C256.469 152.935 256.469 152.935 267.012 152.935C277.555 152.935 277.555 152.935 288.098 152.935C277.555 152.935 277.555 152.935 267.012 152.935C256.469 152.935 256.469 152.935 245.926 152.935C235.383 152.935 235.383 152.935 224.84 152.935C214.298 152.935 214.298 152.935 203.755 152.935C193.212 152.935 193.212 152.935 182.669 152.935C172.126 152.935 172.126 152.935 161.583 152.935C151.04 152.935 151.04 152.935 140.497 152.935C129.955 152.935 129.955 152.935 119.412 152.935C108.869 152.935 108.869 152.935 98.326 152.935C87.7831 152.935 87.7831 152.935 77.2403 152.935C66.6974 152.935 66.6974 67.1829 56.1545 67.1829Z" fill="#EF9120"/>
<path d="M56.1545 67.1829C66.6974 67.1829 66.6974 152.935 77.2403 152.935C87.7831 152.935 87.7831 152.935 98.326 152.935C108.869 152.935 108.869 152.935 119.412 152.935C129.955 152.935 129.955 152.935 140.497 152.935C151.04 152.935 151.04 152.935 161.583 152.935C172.126 152.935 172.126 152.935 182.669 152.935C193.212 152.935 193.212 152.935 203.755 152.935C214.298 152.935 214.298 152.935 224.84 152.935C235.383 152.935 235.383 152.935 245.926 152.935C256.469 152.935 256.469 152.935 267.012 152.935C277.555 152.935 277.555 152.935 288.098 152.935C277.555 152.935 277.555 152.935 267.012 152.935C256.469 152.935 256.469 152.935 245.926 152.935C235.383 152.935 235.383 152.935 224.84 152.935C214.298 152.935 214.298 152.935 203.755 152.935C193.212 152.935 193.212 152.935 182.669 152.935C172.126 152.935 172.126 152.935 161.583 152.935C151.04 152.935 151.04 152.935 140.497 152.935C129.955 152.935 129.955 152.935 119.412 152.935C108.869 152.935 108.869 152.935 98.326 152.935C87.7831 152.935 87.7831 152.935 77.2403 152.935C66.6974 152.935 66.6974 67.1829 56.1545 67.1829Z" fill="#F09C21"/>
<path d="M56.1545 67.1829C66.6974 67.1829 66.6974 152.935 77.2403 152.935C87.7831 152.935 87.7831 152.935 98.326 152.935C108.869 152.935 108.869 152.935 119.412 152.935C129.955 152.935 129.955 152.935 140.497 152.935C151.04 152.935 151.04 152.935 161.583 152.935C172.126 152.935 172.126 152.935 182.669 152.935C193.212 152.935 193.212 152.935 203.755 152.935C214.298 152.935 214.298 152.935 224.84 152.935C235.383 152.935 235.383 152.935 245.926 152.935C256.469 152.935 256.469 152.935 267.012 152.935C277.555 152.935 277.555 152.935 288.098 152.935C277.555 152.935 277.555 152.935 267.012 152.935C256.469 152.935 256.469 152.935 245.926 152.935C235.383 152.935 235.383 152.935 224.84 152.935C214.298 152.935 214.298 152.935 203.755 152.935C193.212 152.935 193.212 152.935 182.669 152.935C172.126 152.935 172.126 152.935 161.583 152.935C151.04 152.935 151.04 152.935 140.497 152.935C129.955 152.935 129.955 152.935 119.412 152.935C108.869 152.935 108.869 152.935 98.326 152.935C87.7831 152.935 87.7831 152.935 77.2403 152.935C66.6974 152.935 66.6974 67.1829 56.1545 67.1829Z" fill="#F2A920"/>
<path d="M56.1545 67.1829C66.6974 67.1829 66.6974 152.935 77.2403 152.935C87.7831 152.935 87.7831 152.935 98.326 152.935C108.869 152.935 108.869 152.935 119.412 152.935C129.955 152.935 129.955 152.935 140.497 152.935C151.04 152.935 151.04 152.935 161.583 152.935C172.126 152.935 172.126 152.935 182.669 152.935C193.212 152.935 193.212 152.935 203.755 152.935C214.298 152.935 214.298 152.935 224.84 152.935C235.383 152.935 235.383 152.935 245.926 152.935C256.469 152.935 256.469 152.935 267.012 152.935C277.555 152.935 277.555 152.935 288.098 152.935C277.555 152.935 277.555 152.935 267.012 152.935C256.469 152.935 256.469 152.935 245.926 152.935C235.383 152.935 235.383 152.935 224.84 152.935C214.298 152.935 214.298 152.935 203.755 152.935C193.212 152.935 193.212 152.935 182.669 152.935C172.126 152.935 172.126 152.935 161.583 152.935C151.04 152.935 151.04 152.935 140.497 152.935C129.955 152.935 129.955 152.935 119.412 152.935C108.869 152.935 108.869 152.935 98.326 152.935C87.7831 152.935 87.7831 152.935 77.2403 152.935C66.6974 152.935 66.6974 67.1829 56.1545 67.1829Z" fill="#F4B720"/>
<path d="M56.1545 67.1829C66.6974 67.1829 66.6974 152.935 77.2403 152.935C87.7831 152.935 87.7831 152.935 98.326 152.935C108.869 152.935 108.869 152.935 119.412 152.935C129.955 152.935 129.955 152.935 140.497 152.935C151.04 152.935 151.04 152.935 161.583 152.935C172.126 152.935 172.126 152.935 182.669 152.935C193.212 152.935 193.212 152.935 203.755 152.935C214.298 152.935 214.298 152.935 224.84 152.935C235.383 152.935 235.383 152.935 245.926 152.935C256.469 152.935 256.469 152.935 267.012 152.935C277.555 152.935 277.555 152.935 288.098 152.935C277.555 152.935 277.555 152.935 267.012 152.935C256.469 152.935 256.469 152.935 245.926 152.935C235.383 152.935 235.383 152.935 224.84 152.935C214.298 152.935 214.298 152.935 203.755 152.935C193.212 152.935 193.212 152.935 182.669 152.935C172.126 152.935 172.126 152.935 161.583 152.935C151.04 152.935 151.04 152.935 140.497 152.935C129.955 152.935 129.955 152.935 119.412 152.935C108.869 152.935 108.869 152.935 98.326 152.935C87.7831 152.935 87.7831 152.935 77.2403 152.935C66.6974 152.935 66.6974 67.1829 56.1545 67.1829Z" fill="#F2A520"/>
<path d="M56.1545 152.935H288.098" stroke="black"/>
<path d="M56.1545 152.935V159.557" stroke="black"/>
<path d="M57.1401 162.394V169.667H56.2594V163.318H56.2168L54.4412 164.497V163.602L56.2594 162.394H57.1401Z" fill="black"/>
<path d="M77.2404 152.935V159.557" stroke="black"/>
<path d="M74.9659 169.667V169.028L77.3665 166.4C77.6482 166.092 77.8802 165.825 78.0625 165.598C78.2448 165.368 78.3797 165.152 78.4673 164.951C78.5573 164.748 78.6023 164.535 78.6023 164.312C78.6023 164.056 78.5407 163.835 78.4176 163.648C78.2969 163.461 78.1312 163.316 77.9205 163.215C77.7098 163.113 77.473 163.062 77.2102 163.062C76.9309 163.062 76.687 163.12 76.4787 163.236C76.2727 163.35 76.1129 163.509 75.9993 163.715C75.888 163.921 75.8324 164.163 75.8324 164.44H74.9943C74.9943 164.014 75.0926 163.64 75.2891 163.318C75.4856 162.996 75.7531 162.745 76.0916 162.565C76.4325 162.385 76.8149 162.295 77.2386 162.295C77.6648 162.295 78.0424 162.385 78.3714 162.565C78.7005 162.745 78.9586 162.987 79.1456 163.293C79.3326 163.598 79.4261 163.938 79.4261 164.312C79.4261 164.58 79.3776 164.841 79.2805 165.097C79.1858 165.35 79.0201 165.633 78.7834 165.946C78.549 166.256 78.2235 166.634 77.8068 167.082L76.1733 168.829V168.886H79.554V169.667H74.9659Z" fill="black"/>
<path d="M98.326 152.935V159.557" stroke="black"/>
<path d="M98.3527 169.767C97.884 169.767 97.4661 169.686 97.0992 169.525C96.7346 169.364 96.4446 169.14 96.2292 168.854C96.0161 168.565 95.9001 168.23 95.8811 167.849H96.776C96.795 168.083 96.8755 168.286 97.0175 168.456C97.1596 168.624 97.3454 168.754 97.575 168.847C97.8047 168.939 98.0592 168.985 98.3385 168.985C98.651 168.985 98.928 168.931 99.1695 168.822C99.411 168.713 99.6004 168.562 99.7377 168.367C99.875 168.173 99.9436 167.948 99.9436 167.693C99.9436 167.425 99.8774 167.19 99.7448 166.986C99.6122 166.78 99.4181 166.619 99.1624 166.503C98.9067 166.387 98.5942 166.329 98.2249 166.329H97.6425V165.548H98.2249C98.5137 165.548 98.767 165.496 98.9848 165.392C99.205 165.287 99.3766 165.141 99.4998 164.951C99.6252 164.762 99.688 164.539 99.688 164.284C99.688 164.037 99.6335 163.823 99.5246 163.641C99.4157 163.459 99.2618 163.316 99.063 163.215C98.8665 163.113 98.6345 163.062 98.3669 163.062C98.116 163.062 97.8793 163.108 97.6567 163.2C97.4365 163.29 97.2566 163.422 97.1169 163.595C96.9773 163.765 96.9015 163.971 96.8897 164.213H96.0374C96.0516 163.831 96.1664 163.498 96.3819 163.211C96.5973 162.922 96.879 162.697 97.227 162.536C97.5774 162.375 97.9621 162.295 98.3811 162.295C98.831 162.295 99.2168 162.386 99.5388 162.568C99.8608 162.748 100.108 162.986 100.281 163.282C100.454 163.578 100.54 163.898 100.54 164.241C100.54 164.651 100.433 165 100.217 165.289C100.004 165.577 99.714 165.777 99.3471 165.889V165.946C99.8063 166.021 100.165 166.217 100.423 166.531C100.681 166.844 100.81 167.231 100.81 167.693C100.81 168.088 100.702 168.443 100.487 168.758C100.274 169.071 99.9827 169.317 99.6134 169.497C99.2441 169.677 98.8239 169.767 98.3527 169.767Z" fill="black"/>
<path d="M119.412 152.935V159.557" stroke="black"/>
<path d="M116.786 168.176V167.451L119.982 162.394H120.508V163.517H120.153L117.738 167.338V167.394H122.042V168.176H116.786ZM120.209 169.667V167.955V167.618V162.394H121.048V169.667H120.209Z" fill="black"/>
<path d="M140.498 152.935V159.557" stroke="black"/>
<path d="M140.481 169.767C140.065 169.767 139.689 169.684 139.355 169.518C139.022 169.352 138.754 169.125 138.553 168.836C138.352 168.547 138.242 168.218 138.223 167.849H139.075C139.108 168.178 139.257 168.45 139.522 168.666C139.79 168.879 140.11 168.985 140.481 168.985C140.779 168.985 141.045 168.915 141.277 168.776C141.511 168.636 141.694 168.444 141.827 168.2C141.962 167.954 142.029 167.676 142.029 167.366C142.029 167.049 141.96 166.766 141.82 166.517C141.683 166.266 141.493 166.069 141.252 165.924C141.01 165.78 140.735 165.706 140.424 165.704C140.202 165.702 139.973 165.736 139.739 165.807C139.505 165.876 139.312 165.964 139.16 166.073L138.336 165.974L138.777 162.394H142.555V163.176H139.515L139.26 165.321H139.302C139.451 165.202 139.638 165.104 139.863 165.026C140.088 164.948 140.323 164.909 140.566 164.909C141.011 164.909 141.408 165.015 141.756 165.228C142.106 165.439 142.381 165.728 142.58 166.095C142.781 166.462 142.882 166.881 142.882 167.352C142.882 167.816 142.778 168.23 142.569 168.595C142.363 168.957 142.079 169.243 141.717 169.454C141.355 169.662 140.943 169.767 140.481 169.767Z" fill="black"/>
<path d="M161.583 152.935V159.557" stroke="black"/>
<path d="M161.631 169.767C161.333 169.762 161.034 169.705 160.736 169.596C160.438 169.487 160.165 169.304 159.919 169.046C159.673 168.785 159.475 168.434 159.326 167.991C159.177 167.546 159.102 166.987 159.102 166.315C159.102 165.671 159.163 165.1 159.283 164.603C159.404 164.104 159.579 163.683 159.809 163.343C160.039 162.999 160.316 162.739 160.64 162.561C160.967 162.384 161.335 162.295 161.744 162.295C162.152 162.295 162.514 162.377 162.831 162.54C163.151 162.701 163.411 162.926 163.612 163.215C163.814 163.504 163.944 163.836 164.003 164.213H163.136C163.056 163.886 162.9 163.615 162.668 163.399C162.436 163.184 162.128 163.076 161.744 163.076C161.181 163.076 160.737 163.321 160.413 163.811C160.091 164.301 159.929 164.989 159.926 165.875H159.983C160.116 165.673 160.273 165.502 160.455 165.36C160.64 165.215 160.844 165.104 161.066 165.026C161.289 164.948 161.524 164.909 161.773 164.909C162.19 164.909 162.571 165.013 162.916 165.221C163.262 165.427 163.539 165.712 163.747 166.077C163.956 166.439 164.06 166.855 164.06 167.323C164.06 167.773 163.959 168.185 163.758 168.559C163.557 168.931 163.274 169.227 162.909 169.447C162.547 169.665 162.121 169.771 161.631 169.767ZM161.631 168.985C161.929 168.985 162.197 168.911 162.433 168.762C162.672 168.612 162.861 168.412 162.998 168.161C163.138 167.91 163.208 167.631 163.208 167.323C163.208 167.023 163.14 166.749 163.005 166.503C162.873 166.254 162.689 166.057 162.455 165.91C162.223 165.763 161.958 165.69 161.659 165.69C161.434 165.69 161.225 165.735 161.031 165.825C160.837 165.912 160.666 166.033 160.519 166.187C160.375 166.341 160.261 166.517 160.178 166.716C160.096 166.913 160.054 167.12 160.054 167.338C160.054 167.626 160.122 167.896 160.257 168.147C160.394 168.398 160.581 168.601 160.818 168.754C161.057 168.908 161.328 168.985 161.631 168.985Z" fill="black"/>
<path d="M182.669 152.935V159.557" stroke="black"/>
<path d="M180.793 169.667L184.046 163.232V163.176H180.296V162.394H184.955V163.218L181.716 169.667H180.793Z" fill="black"/>
<path d="M203.755 152.935V159.557" stroke="black"/>
<path d="M203.756 169.767C203.268 169.767 202.838 169.68 202.464 169.507C202.092 169.332 201.802 169.092 201.594 168.786C201.385 168.479 201.282 168.128 201.285 167.735C201.282 167.428 201.343 167.143 201.466 166.883C201.589 166.62 201.757 166.401 201.97 166.226C202.185 166.049 202.426 165.936 202.691 165.889V165.846C202.343 165.756 202.066 165.561 201.86 165.26C201.654 164.957 201.552 164.613 201.554 164.227C201.552 163.857 201.646 163.527 201.835 163.236C202.024 162.945 202.285 162.715 202.616 162.547C202.95 162.379 203.33 162.295 203.756 162.295C204.178 162.295 204.554 162.379 204.885 162.547C205.217 162.715 205.477 162.945 205.667 163.236C205.858 163.527 205.955 163.857 205.958 164.227C205.955 164.613 205.85 164.957 205.642 165.26C205.436 165.561 205.162 165.756 204.821 165.846V165.889C205.084 165.936 205.321 166.049 205.532 166.226C205.742 166.401 205.911 166.62 206.036 166.883C206.161 167.143 206.225 167.428 206.228 167.735C206.225 168.128 206.119 168.479 205.908 168.786C205.7 169.092 205.41 169.332 205.038 169.507C204.669 169.68 204.241 169.767 203.756 169.767ZM203.756 168.985C204.085 168.985 204.369 168.932 204.608 168.825C204.848 168.719 205.032 168.569 205.162 168.375C205.293 168.18 205.359 167.953 205.361 167.693C205.359 167.418 205.288 167.175 205.148 166.965C205.009 166.754 204.818 166.588 204.576 166.468C204.337 166.347 204.064 166.286 203.756 166.286C203.446 166.286 203.169 166.347 202.925 166.468C202.684 166.588 202.493 166.754 202.353 166.965C202.216 167.175 202.149 167.418 202.151 167.693C202.149 167.953 202.211 168.18 202.339 168.375C202.469 168.569 202.655 168.719 202.897 168.825C203.138 168.932 203.425 168.985 203.756 168.985ZM203.756 165.534C204.017 165.534 204.247 165.482 204.449 165.377C204.652 165.273 204.812 165.128 204.928 164.941C205.044 164.754 205.103 164.535 205.106 164.284C205.103 164.037 205.045 163.823 204.932 163.641C204.818 163.456 204.661 163.314 204.459 163.215C204.258 163.113 204.024 163.062 203.756 163.062C203.484 163.062 203.246 163.113 203.042 163.215C202.839 163.314 202.681 163.456 202.57 163.641C202.459 163.823 202.404 164.037 202.407 164.284C202.404 164.535 202.46 164.754 202.574 164.941C202.69 165.128 202.849 165.273 203.053 165.377C203.257 165.482 203.491 165.534 203.756 165.534Z" fill="black"/>
<path d="M224.84 152.935V159.557" stroke="black"/>
<path d="M224.789 162.295C225.087 162.297 225.385 162.354 225.683 162.465C225.982 162.577 226.254 162.761 226.5 163.019C226.746 163.275 226.944 163.624 227.093 164.067C227.242 164.51 227.317 165.065 227.317 165.732C227.317 166.379 227.255 166.953 227.132 167.455C227.012 167.954 226.836 168.376 226.607 168.719C226.379 169.062 226.102 169.323 225.776 169.5C225.451 169.678 225.084 169.767 224.675 169.767C224.268 169.767 223.904 169.686 223.585 169.525C223.268 169.362 223.007 169.136 222.803 168.847C222.602 168.556 222.473 168.218 222.416 167.835H223.283C223.361 168.169 223.516 168.444 223.748 168.662C223.982 168.878 224.291 168.985 224.675 168.985C225.236 168.985 225.679 168.74 226.003 168.25C226.33 167.76 226.493 167.068 226.493 166.173H226.436C226.304 166.372 226.146 166.543 225.964 166.688C225.782 166.832 225.579 166.943 225.357 167.022C225.134 167.1 224.897 167.139 224.647 167.139C224.23 167.139 223.848 167.036 223.5 166.83C223.154 166.621 222.877 166.336 222.669 165.974C222.463 165.609 222.36 165.193 222.36 164.724C222.36 164.279 222.459 163.872 222.658 163.502C222.859 163.131 223.141 162.835 223.503 162.615C223.868 162.394 224.296 162.288 224.789 162.295ZM224.789 163.076C224.49 163.076 224.222 163.151 223.982 163.3C223.746 163.447 223.558 163.646 223.418 163.897C223.281 164.145 223.212 164.421 223.212 164.724C223.212 165.027 223.278 165.303 223.411 165.551C223.546 165.798 223.729 165.994 223.961 166.141C224.196 166.285 224.462 166.357 224.76 166.357C224.985 166.357 225.195 166.314 225.389 166.226C225.583 166.136 225.752 166.014 225.897 165.86C226.043 165.704 226.158 165.528 226.241 165.331C226.324 165.132 226.365 164.925 226.365 164.71C226.365 164.426 226.297 164.159 226.159 163.911C226.024 163.662 225.837 163.461 225.598 163.307C225.361 163.153 225.092 163.076 224.789 163.076Z" fill="black"/>
<path d="M245.926 152.935V159.557" stroke="black"/>
<path d="M243.787 162.394V169.667H242.906V163.318H242.863L241.088 164.497V163.602L242.906 162.394H243.787ZM248.251 169.767C247.715 169.767 247.26 169.621 246.883 169.33C246.507 169.036 246.219 168.611 246.02 168.055C245.822 167.496 245.722 166.821 245.722 166.031C245.722 165.245 245.822 164.574 246.02 164.017C246.222 163.459 246.51 163.032 246.887 162.739C247.266 162.443 247.72 162.295 248.251 162.295C248.781 162.295 249.234 162.443 249.611 162.739C249.989 163.032 250.278 163.459 250.477 164.017C250.678 164.574 250.779 165.245 250.779 166.031C250.779 166.821 250.679 167.496 250.481 168.055C250.282 168.611 249.994 169.036 249.618 169.33C249.241 169.621 248.786 169.767 248.251 169.767ZM248.251 168.985C248.781 168.985 249.193 168.73 249.486 168.218C249.78 167.707 249.927 166.978 249.927 166.031C249.927 165.401 249.859 164.865 249.724 164.422C249.592 163.979 249.4 163.642 249.149 163.41C248.9 163.178 248.601 163.062 248.251 163.062C247.725 163.062 247.314 163.321 247.018 163.84C246.722 164.356 246.574 165.086 246.574 166.031C246.574 166.66 246.641 167.196 246.773 167.636C246.906 168.076 247.096 168.411 247.345 168.641C247.596 168.87 247.898 168.985 248.251 168.985Z" fill="black"/>
<path d="M267.012 152.935V159.557" stroke="black"/>
<path d="M265.673 162.394V169.667H264.793V163.318H264.75L262.974 164.497V163.602L264.793 162.394H265.673ZM270.322 162.394V169.667H269.441V163.318H269.398L267.623 164.497V163.602L269.441 162.394H270.322Z" fill="black"/>
<path d="M288.098 152.935V159.557" stroke="black"/>
<path d="M286.056 162.394V169.667H285.175V163.318H285.132L283.357 164.497V163.602L285.175 162.394H286.056ZM288.147 169.667V169.028L290.548 166.4C290.83 166.092 291.062 165.825 291.244 165.598C291.426 165.368 291.561 165.152 291.649 164.951C291.739 164.748 291.784 164.535 291.784 164.312C291.784 164.056 291.722 163.835 291.599 163.648C291.478 163.461 291.313 163.316 291.102 163.215C290.891 163.113 290.655 163.062 290.392 163.062C290.112 163.062 289.869 163.12 289.66 163.236C289.454 163.35 289.294 163.509 289.181 163.715C289.07 163.921 289.014 164.163 289.014 164.44H288.176C288.176 164.014 288.274 163.64 288.471 163.318C288.667 162.996 288.935 162.745 289.273 162.565C289.614 162.385 289.996 162.295 290.42 162.295C290.846 162.295 291.224 162.385 291.553 162.565C291.882 162.745 292.14 162.987 292.327 163.293C292.514 163.598 292.608 163.938 292.608 164.312C292.608 164.58 292.559 164.841 292.462 165.097C292.367 165.35 292.202 165.633 291.965 165.946C291.73 166.256 291.405 166.634 290.988 167.082L289.355 168.829V168.886H292.735V169.667H288.147Z" fill="black"/>
<path d="M56.1545 152.935V37.0537" stroke="black"/>
<path d="M56.1546 152.935H48.8301" stroke="black"/>
<path d="M42.0428 155.53C41.5078 155.53 41.0521 155.384 40.6756 155.093C40.2992 154.799 40.0116 154.374 39.8127 153.818C39.6139 153.259 39.5144 152.585 39.5144 151.794C39.5144 151.008 39.6139 150.337 39.8127 149.78C40.0139 149.222 40.3028 148.795 40.6792 148.502C41.058 148.206 41.5125 148.058 42.0428 148.058C42.5731 148.058 43.0265 148.206 43.4029 148.502C43.7817 148.795 44.0705 149.222 44.2694 149.78C44.4706 150.337 44.5712 151.008 44.5712 151.794C44.5712 152.585 44.4718 153.259 44.2729 153.818C44.0741 154.374 43.7864 154.799 43.41 155.093C43.0336 155.384 42.5779 155.53 42.0428 155.53ZM42.0428 154.748C42.5731 154.748 42.9851 154.493 43.2786 153.981C43.5722 153.47 43.719 152.741 43.719 151.794C43.719 151.164 43.6515 150.628 43.5166 150.185C43.384 149.742 43.1922 149.405 42.9413 149.173C42.6927 148.941 42.3932 148.825 42.0428 148.825C41.5173 148.825 41.1065 149.084 40.8106 149.603C40.5147 150.119 40.3667 150.849 40.3667 151.794C40.3667 152.424 40.433 152.959 40.5656 153.399C40.6981 153.839 40.8887 154.174 41.1373 154.404C41.3882 154.634 41.6901 154.748 42.0428 154.748Z" fill="black"/>
<path d="M56.1546 71.8181H48.8301" stroke="black"/>
<path d="M35.9269 74.4128C35.4582 74.4128 35.0403 74.3324 34.6734 74.1714C34.3088 74.0104 34.0188 73.7867 33.8034 73.5002C33.5903 73.2114 33.4743 72.8764 33.4553 72.4952H34.3502C34.3692 72.7296 34.4497 72.932 34.5917 73.1025C34.7338 73.2706 34.9196 73.4008 35.1492 73.4931C35.3789 73.5854 35.6334 73.6316 35.9127 73.6316C36.2252 73.6316 36.5022 73.5771 36.7437 73.4682C36.9852 73.3593 37.1746 73.2078 37.3119 73.0137C37.4492 72.8196 37.5178 72.5947 37.5178 72.339C37.5178 72.0715 37.4516 71.8359 37.319 71.6323C37.1864 71.4263 36.9923 71.2654 36.7366 71.1494C36.4809 71.0333 36.1684 70.9753 35.7991 70.9753H35.2167V70.1941H35.7991C36.0879 70.1941 36.3412 70.142 36.559 70.0378C36.7792 69.9337 36.9508 69.7869 37.074 69.5975C37.1994 69.4081 37.2622 69.1856 37.2622 68.9299C37.2622 68.6837 37.2077 68.4694 37.0988 68.2871C36.9899 68.1048 36.836 67.9628 36.6372 67.861C36.4407 67.7592 36.2087 67.7083 35.9411 67.7083C35.6902 67.7083 35.4535 67.7545 35.2309 67.8468C35.0107 67.9368 34.8308 68.0682 34.6911 68.241C34.5515 68.4114 34.4757 68.6174 34.4639 68.8589H33.6116C33.6258 68.4777 33.7406 68.1439 33.9561 67.8574C34.1715 67.5686 34.4532 67.3437 34.8012 67.1827C35.1516 67.0217 35.5363 66.9413 35.9553 66.9413C36.4052 66.9413 36.791 67.0324 37.113 67.2147C37.435 67.3946 37.6824 67.6325 37.8552 67.9285C38.028 68.2244 38.1144 68.544 38.1144 68.8873C38.1144 69.2968 38.0067 69.646 37.7913 69.9349C37.5782 70.2237 37.2882 70.4237 36.9213 70.535V70.5918C37.3805 70.6676 37.7392 70.8629 37.9973 71.1778C38.2553 71.4903 38.3843 71.8773 38.3843 72.339C38.3843 72.7343 38.2766 73.0895 38.0612 73.4043C37.8481 73.7168 37.5569 73.963 37.1876 74.143C36.8183 74.3229 36.3981 74.4128 35.9269 74.4128ZM42.1095 74.4128C41.6928 74.4128 41.3176 74.33 40.9838 74.1643C40.6499 73.9985 40.3824 73.7713 40.1812 73.4824C39.98 73.1936 39.8699 72.8646 39.8509 72.4952H40.7032C40.7364 72.8243 40.8855 73.0966 41.1507 73.312C41.4182 73.5251 41.7378 73.6316 42.1095 73.6316C42.4078 73.6316 42.6729 73.5618 42.9049 73.4221C43.1393 73.2824 43.3228 73.0906 43.4553 72.8468C43.5903 72.6006 43.6578 72.3224 43.6578 72.0123C43.6578 71.695 43.5879 71.4121 43.4482 71.1636C43.3109 70.9126 43.1215 70.7149 42.8801 70.5705C42.6386 70.4261 42.3628 70.3527 42.0526 70.3503C41.8301 70.348 41.6017 70.3823 41.3673 70.4533C41.1329 70.522 40.94 70.6108 40.7884 70.7197L39.9646 70.6202L40.4049 67.0407H44.1833V67.8219H41.1436L40.8879 69.9668H40.9305C41.0796 69.8485 41.2667 69.7502 41.4916 69.6721C41.7165 69.594 41.9508 69.5549 42.1947 69.5549C42.6398 69.5549 43.0363 69.6614 43.3843 69.8745C43.7347 70.0852 44.0093 70.374 44.2082 70.741C44.4094 71.1079 44.51 71.527 44.51 71.9981C44.51 72.4621 44.4059 72.8764 44.1975 73.241C43.9916 73.6032 43.7075 73.8896 43.3453 74.1003C42.983 74.3087 42.5711 74.4128 42.1095 74.4128Z" fill="black"/>
<path d="M56.1546 60.2299H48.8301" stroke="black"/>
<path d="M33.0843 61.2337V60.5092L36.2803 55.4524H36.8058V56.5746H36.4507L34.036 60.3956V60.4524H38.3399V61.2337H33.0843ZM36.5075 62.7252V61.0135V60.6762V55.4524H37.3456V62.7252H36.5075ZM42.0429 62.8246C41.5078 62.8246 41.0521 62.679 40.6757 62.3878C40.2993 62.0942 40.0116 61.6693 39.8128 61.1129C39.6139 60.5542 39.5145 59.8795 39.5145 59.0888C39.5145 58.3028 39.6139 57.6316 39.8128 57.0753C40.014 56.5166 40.3028 56.0905 40.6792 55.7969C41.058 55.501 41.5126 55.353 42.0429 55.353C42.5732 55.353 43.0265 55.501 43.403 55.7969C43.7818 56.0905 44.0706 56.5166 44.2694 57.0753C44.4707 57.6316 44.5713 58.3028 44.5713 59.0888C44.5713 59.8795 44.4719 60.5542 44.273 61.1129C44.0741 61.6693 43.7865 62.0942 43.4101 62.3878C43.0336 62.679 42.5779 62.8246 42.0429 62.8246ZM42.0429 62.0433C42.5732 62.0433 42.9851 61.7877 43.2787 61.2763C43.5722 60.7649 43.719 60.0358 43.719 59.0888C43.719 58.4591 43.6515 57.9228 43.5166 57.4801C43.384 57.0374 43.1923 56.7001 42.9413 56.4681C42.6927 56.236 42.3933 56.12 42.0429 56.12C41.5173 56.12 41.1066 56.3793 40.8106 56.8977C40.5147 57.4138 40.3667 58.1442 40.3667 59.0888C40.3667 59.7185 40.433 60.2536 40.5656 60.6939C40.6982 61.1342 40.8888 61.4692 41.1373 61.6989C41.3883 61.9285 41.6901 62.0433 42.0429 62.0433Z" fill="black"/>
<path d="M56.1546 48.6419H48.8301" stroke="black"/>
<path d="M33.2503 49.6458V48.9214L36.4463 43.8645H36.9719V44.9867H36.6167L34.202 48.8077V48.8645H38.506V49.6458H33.2503ZM36.6736 51.1373V49.4256V49.0883V43.8645H37.5116V51.1373H36.6736ZM42.1095 51.2367C41.6928 51.2367 41.3176 51.1538 40.9838 50.9881C40.6499 50.8224 40.3824 50.5951 40.1812 50.3063C39.98 50.0175 39.8699 49.6884 39.8509 49.3191H40.7032C40.7364 49.6482 40.8855 49.9204 41.1507 50.1358C41.4182 50.3489 41.7378 50.4554 42.1095 50.4554C42.4078 50.4554 42.6729 50.3856 42.9049 50.2459C43.1393 50.1063 43.3228 49.9145 43.4553 49.6706C43.5903 49.4244 43.6578 49.1463 43.6578 48.8361C43.6578 48.5189 43.5879 48.236 43.4482 47.9874C43.3109 47.7365 43.1215 47.5388 42.8801 47.3944C42.6386 47.25 42.3628 47.1766 42.0526 47.1742C41.8301 47.1718 41.6017 47.2062 41.3673 47.2772C41.1329 47.3458 40.94 47.4346 40.7884 47.5435L39.9646 47.4441L40.4049 43.8645H44.1833V44.6458H41.1436L40.8879 46.7907H40.9305C41.0796 46.6723 41.2667 46.5741 41.4916 46.4959C41.7165 46.4178 41.9508 46.3787 42.1947 46.3787C42.6398 46.3787 43.0363 46.4853 43.3843 46.6983C43.7347 46.909 44.0093 47.1979 44.2082 47.5648C44.4094 47.9318 44.51 48.3508 44.51 48.8219C44.51 49.2859 44.4059 49.7002 44.1975 50.0648C43.9916 50.427 43.7075 50.7135 43.3453 50.9242C42.983 51.1325 42.5711 51.2367 42.1095 51.2367Z" fill="black"/>
<path d="M56.1546 37.0537H48.8301" stroke="black"/>
<path d="M35.8595 39.6484C35.4428 39.6484 35.0676 39.5655 34.7338 39.3998C34.3999 39.2341 34.1324 39.0068 33.9312 38.718C33.73 38.4292 33.6199 38.1001 33.6009 37.7308H34.4532C34.4864 38.0598 34.6355 38.3321 34.9007 38.5475C35.1682 38.7606 35.4878 38.8671 35.8595 38.8671C36.1578 38.8671 36.4229 38.7973 36.6549 38.6576C36.8893 38.5179 37.0728 38.3262 37.2053 38.0823C37.3403 37.8361 37.4078 37.5579 37.4078 37.2478C37.4078 36.9306 37.3379 36.6477 37.1982 36.3991C37.0609 36.1481 36.8715 35.9505 36.6301 35.8061C36.3886 35.6616 36.1128 35.5882 35.8026 35.5859C35.5801 35.5835 35.3517 35.6178 35.1173 35.6889C34.8829 35.7575 34.69 35.8463 34.5384 35.9552L33.7146 35.8558L34.1549 32.2762H37.9333V33.0575H34.8936L34.6379 35.2024H34.6805C34.8296 35.084 35.0167 34.9857 35.2416 34.9076C35.4665 34.8295 35.7008 34.7904 35.9447 34.7904C36.3898 34.7904 36.7863 34.897 37.1343 35.11C37.4847 35.3207 37.7593 35.6096 37.9582 35.9765C38.1594 36.3435 38.26 36.7625 38.26 37.2336C38.26 37.6976 38.1559 38.1119 37.9475 38.4765C37.7416 38.8387 37.4575 39.1252 37.0953 39.3359C36.733 39.5442 36.3211 39.6484 35.8595 39.6484ZM42.0429 39.6484C41.5078 39.6484 41.0521 39.5028 40.6757 39.2116C40.2993 38.918 40.0116 38.4931 39.8128 37.9367C39.6139 37.378 39.5145 36.7033 39.5145 35.9126C39.5145 35.1266 39.6139 34.4554 39.8128 33.8991C40.014 33.3404 40.3028 32.9142 40.6792 32.6207C41.058 32.3248 41.5126 32.1768 42.0429 32.1768C42.5732 32.1768 43.0265 32.3248 43.403 32.6207C43.7818 32.9142 44.0706 33.3404 44.2694 33.8991C44.4707 34.4554 44.5713 35.1266 44.5713 35.9126C44.5713 36.7033 44.4719 37.378 44.273 37.9367C44.0741 38.4931 43.7865 38.918 43.4101 39.2116C43.0336 39.5028 42.5779 39.6484 42.0429 39.6484ZM42.0429 38.8671C42.5732 38.8671 42.9851 38.6115 43.2787 38.1001C43.5722 37.5887 43.719 36.8596 43.719 35.9126C43.719 35.2829 43.6515 34.7466 43.5166 34.3039C43.384 33.8612 43.1923 33.5239 42.9413 33.2918C42.6927 33.0598 42.3933 32.9438 42.0429 32.9438C41.5173 32.9438 41.1066 33.2031 40.8106 33.7215C40.5147 34.2376 40.3667 34.968 40.3667 35.9126C40.3667 36.5423 40.433 37.0774 40.5656 37.5177C40.6982 37.958 40.8888 38.293 41.1373 38.5227C41.3883 38.7523 41.6901 38.8671 42.0429 38.8671Z" fill="black"/>
<path d="M6.04102 10.6201V11.6338H0.363281C0.355469 11.3799 0.396484 11.1357 0.486328 10.9014C0.630859 10.5146 0.861328 10.1338 1.17773 9.75879C1.49805 9.38379 1.95898 8.9502 2.56055 8.45801C3.49414 7.69238 4.125 7.08691 4.45312 6.6416C4.78125 6.19238 4.94531 5.76855 4.94531 5.37012C4.94531 4.95215 4.79492 4.60059 4.49414 4.31543C4.19727 4.02637 3.80859 3.88184 3.32812 3.88184C2.82031 3.88184 2.41406 4.03418 2.10938 4.33887C1.80469 4.64355 1.65039 5.06543 1.64648 5.60449L0.5625 5.49316C0.636719 4.68457 0.916016 4.06934 1.40039 3.64746C1.88477 3.22168 2.53516 3.00879 3.35156 3.00879C4.17578 3.00879 4.82812 3.2373 5.30859 3.69434C5.78906 4.15137 6.0293 4.71777 6.0293 5.39355C6.0293 5.7373 5.95898 6.0752 5.81836 6.40723C5.67773 6.73926 5.44336 7.08887 5.11523 7.45605C4.79102 7.82324 4.25 8.32715 3.49219 8.96777C2.85938 9.49902 2.45312 9.86035 2.27344 10.0518C2.09375 10.2393 1.94531 10.4287 1.82812 10.6201H6.04102ZM7.17773 7.39746C7.17773 6.38184 7.28125 5.56543 7.48828 4.94824C7.69922 4.32715 8.00977 3.84863 8.41992 3.5127C8.83398 3.17676 9.35352 3.00879 9.97852 3.00879C10.4395 3.00879 10.8438 3.10254 11.1914 3.29004C11.5391 3.47363 11.8262 3.74121 12.0527 4.09277C12.2793 4.44043 12.457 4.86621 12.5859 5.37012C12.7148 5.87012 12.7793 6.5459 12.7793 7.39746C12.7793 8.40527 12.6758 9.21973 12.4688 9.84082C12.2617 10.458 11.9512 10.9365 11.5371 11.2764C11.127 11.6123 10.6074 11.7803 9.97852 11.7803C9.15039 11.7803 8.5 11.4834 8.02734 10.8896C7.46094 10.1748 7.17773 9.01074 7.17773 7.39746ZM8.26172 7.39746C8.26172 8.80762 8.42578 9.74707 8.75391 10.2158C9.08594 10.6807 9.49414 10.9131 9.97852 10.9131C10.4629 10.9131 10.8691 10.6787 11.1973 10.21C11.5293 9.74121 11.6953 8.80371 11.6953 7.39746C11.6953 5.9834 11.5293 5.04395 11.1973 4.5791C10.8691 4.11426 10.459 3.88184 9.9668 3.88184C9.48242 3.88184 9.0957 4.08691 8.80664 4.49707C8.44336 5.02051 8.26172 5.9873 8.26172 7.39746ZM17.8301 11.6338H16.7754V4.91309C16.5215 5.15527 16.1875 5.39746 15.7734 5.63965C15.3633 5.88184 14.9941 6.06348 14.666 6.18457V5.16504C15.2559 4.8877 15.7715 4.55176 16.2129 4.15723C16.6543 3.7627 16.9668 3.37988 17.1504 3.00879H17.8301V11.6338ZM20.6953 9.64746L21.709 9.55371C21.7949 10.0303 21.959 10.376 22.2012 10.5908C22.4434 10.8057 22.7539 10.9131 23.1328 10.9131C23.457 10.9131 23.7402 10.8389 23.9824 10.6904C24.2285 10.542 24.4297 10.3447 24.5859 10.0986C24.7422 9.84863 24.873 9.5127 24.9785 9.09082C25.084 8.66895 25.1367 8.23926 25.1367 7.80176C25.1367 7.75488 25.1348 7.68457 25.1309 7.59082C24.9199 7.92676 24.6309 8.2002 24.2637 8.41113C23.9004 8.61816 23.5059 8.72168 23.0801 8.72168C22.3691 8.72168 21.7676 8.46387 21.2754 7.94824C20.7832 7.43262 20.5371 6.75293 20.5371 5.90918C20.5371 5.03809 20.793 4.33691 21.3047 3.80566C21.8203 3.27441 22.4648 3.00879 23.2383 3.00879C23.7969 3.00879 24.3066 3.15918 24.7676 3.45996C25.2324 3.76074 25.584 4.19043 25.8223 4.74902C26.0645 5.30371 26.1855 6.1084 26.1855 7.16309C26.1855 8.26074 26.0664 9.13574 25.8281 9.78809C25.5898 10.4365 25.2344 10.9307 24.7617 11.2705C24.293 11.6104 23.7422 11.7803 23.1094 11.7803C22.4375 11.7803 21.8887 11.5947 21.4629 11.2236C21.0371 10.8486 20.7812 10.3232 20.6953 9.64746ZM25.0137 5.85645C25.0137 5.25098 24.8516 4.77051 24.5273 4.41504C24.207 4.05957 23.8203 3.88184 23.3672 3.88184C22.8984 3.88184 22.4902 4.07324 22.1426 4.45605C21.7949 4.83887 21.6211 5.33496 21.6211 5.94434C21.6211 6.49121 21.7852 6.93652 22.1133 7.28027C22.4453 7.62012 22.8535 7.79004 23.3379 7.79004C23.8262 7.79004 24.2266 7.62012 24.5391 7.28027C24.8555 6.93652 25.0137 6.46191 25.0137 5.85645Z" fill="black"/>
</svg>
