<svg width="295" height="173" viewBox="0 0 295 173" fill="none" xmlns="http://www.w3.org/2000/svg">
<path d="M56.1546 86.4273C66.6975 86.4273 66.6975 89.9038 77.2403 89.9038C87.7832 89.9038 87.7832 72.5216 98.3261 72.5216C108.869 72.5216 108.869 62.0923 119.412 62.0923C129.955 62.0923 129.955 63.2511 140.498 63.2511C151.04 63.2511 151.04 36.5984 161.583 36.5984C172.126 36.5984 172.126 44.7101 182.669 44.7101C193.212 44.7101 193.212 65.5687 203.755 65.5687C214.298 65.5687 214.298 72.5216 224.84 72.5216C235.383 72.5216 235.383 73.6804 245.926 73.6804C256.469 73.6804 256.469 95.6978 267.012 95.6978C277.555 95.6978 277.555 100.333 288.098 100.333V152.48C277.555 152.48 277.555 95.6978 267.012 95.6978C256.469 95.6978 256.469 73.6804 245.926 73.6804C235.383 73.6804 235.383 72.5216 224.84 72.5216C214.298 72.5216 214.298 65.5687 203.755 65.5687C193.212 65.5687 193.212 44.7101 182.669 44.7101C172.126 44.7101 172.126 36.5984 161.583 36.5984C151.04 36.5984 151.04 63.2511 140.498 63.2511C129.955 63.2511 129.955 62.0923 119.412 62.0923C108.869 62.0923 108.869 72.5216 98.3261 72.5216C87.7832 72.5216 87.7832 89.9038 77.2403 89.9038C66.6975 89.9038 66.6975 86.4273 56.1546 86.4273Z" fill="#F1A020"/>
<path d="M56.1546 86.4274C66.6975 86.4274 66.6975 152.48 77.2403 152.48C87.7832 152.48 87.7832 152.48 98.3261 152.48C108.869 152.48 108.869 152.48 119.412 152.48C129.955 152.48 129.955 152.48 140.498 152.48C151.04 152.48 151.04 152.48 161.583 152.48C172.126 152.48 172.126 152.48 182.669 152.48C193.212 152.48 193.212 152.48 203.755 152.48C214.298 152.48 214.298 152.48 224.84 152.48C235.383 152.48 235.383 152.48 245.926 152.48C256.469 152.48 256.469 152.48 267.012 152.48C277.555 152.48 277.555 152.48 288.098 152.48C277.555 152.48 277.555 152.48 267.012 152.48C256.469 152.48 256.469 152.48 245.926 152.48C235.383 152.48 235.383 152.48 224.84 152.48C214.298 152.48 214.298 152.48 203.755 152.48C193.212 152.48 193.212 152.48 182.669 152.48C172.126 152.48 172.126 152.48 161.583 152.48C151.04 152.48 151.04 152.48 140.498 152.48C129.955 152.48 129.955 152.48 119.412 152.48C108.869 152.48 108.869 152.48 98.3261 152.48C87.7832 152.48 87.7832 152.48 77.2403 152.48C66.6975 152.48 66.6975 152.48 56.1546 152.48V86.4274Z" fill="#EC8520"/>
<path d="M56.1546 86.4274C66.6975 86.4274 66.6975 89.9038 77.2403 89.9038C87.7832 89.9038 87.7832 152.48 98.3261 152.48C108.869 152.48 108.869 152.48 119.412 152.48C129.955 152.48 129.955 152.48 140.498 152.48C151.04 152.48 151.04 152.48 161.583 152.48C172.126 152.48 172.126 152.48 182.669 152.48C193.212 152.48 193.212 152.48 203.755 152.48C214.298 152.48 214.298 152.48 224.84 152.48C235.383 152.48 235.383 152.48 245.926 152.48C256.469 152.48 256.469 152.48 267.012 152.48C277.555 152.48 277.555 152.48 288.098 152.48C277.555 152.48 277.555 152.48 267.012 152.48C256.469 152.48 256.469 152.48 245.926 152.48C235.383 152.48 235.383 152.48 224.84 152.48C214.298 152.48 214.298 152.48 203.755 152.48C193.212 152.48 193.212 152.48 182.669 152.48C172.126 152.48 172.126 152.48 161.583 152.48C151.04 152.48 151.04 152.48 140.498 152.48C129.955 152.48 129.955 152.48 119.412 152.48C108.869 152.48 108.869 152.48 98.3261 152.48C87.7832 152.48 87.7832 152.48 77.2403 152.48C66.6975 152.48 66.6975 86.4274 56.1546 86.4274Z" fill="#EE8C20"/>
<path d="M56.1546 86.4273C66.6975 86.4273 66.6975 89.9037 77.2403 89.9037C87.7832 89.9037 87.7832 72.5215 98.3261 72.5215C108.869 72.5215 108.869 152.48 119.412 152.48C129.955 152.48 129.955 152.48 140.498 152.48C151.04 152.48 151.04 152.48 161.583 152.48C172.126 152.48 172.126 152.48 182.669 152.48C193.212 152.48 193.212 152.48 203.755 152.48C214.298 152.48 214.298 72.5215 224.84 72.5215C235.383 72.5215 235.383 152.48 245.926 152.48C256.469 152.48 256.469 152.48 267.012 152.48C277.555 152.48 277.555 152.48 288.098 152.48C277.555 152.48 277.555 152.48 267.012 152.48C256.469 152.48 256.469 152.48 245.926 152.48C235.383 152.48 235.383 152.48 224.84 152.48C214.298 152.48 214.298 152.48 203.755 152.48C193.212 152.48 193.212 152.48 182.669 152.48C172.126 152.48 172.126 152.48 161.583 152.48C151.04 152.48 151.04 152.48 140.498 152.48C129.955 152.48 129.955 152.48 119.412 152.48C108.869 152.48 108.869 152.48 98.3261 152.48C87.7832 152.48 87.7832 89.9037 77.2403 89.9037C66.6975 89.9037 66.6975 86.4273 56.1546 86.4273Z" fill="#E6641F"/>
<path d="M56.1546 86.4272C66.6975 86.4272 66.6975 89.9037 77.2403 89.9037C87.7832 89.9037 87.7832 72.5215 98.3261 72.5215C108.869 72.5215 108.869 62.0922 119.412 62.0922C129.955 62.0922 129.955 152.48 140.498 152.48C151.04 152.48 151.04 152.48 161.583 152.48C172.126 152.48 172.126 152.48 182.669 152.48C193.212 152.48 193.212 152.48 203.755 152.48C214.298 152.48 214.298 72.5215 224.84 72.5215C235.383 72.5215 235.383 152.48 245.926 152.48C256.469 152.48 256.469 152.48 267.012 152.48C277.555 152.48 277.555 152.48 288.098 152.48C277.555 152.48 277.555 152.48 267.012 152.48C256.469 152.48 256.469 152.48 245.926 152.48C235.383 152.48 235.383 72.5215 224.84 72.5215C214.298 72.5215 214.298 152.48 203.755 152.48C193.212 152.48 193.212 152.48 182.669 152.48C172.126 152.48 172.126 152.48 161.583 152.48C151.04 152.48 151.04 152.48 140.498 152.48C129.955 152.48 129.955 152.48 119.412 152.48C108.869 152.48 108.869 72.5215 98.3261 72.5215C87.7832 72.5215 87.7832 89.9037 77.2403 89.9037C66.6975 89.9037 66.6975 86.4272 56.1546 86.4272Z" fill="#E0491E"/>
<path d="M56.1546 86.4272C66.6975 86.4272 66.6975 89.9037 77.2403 89.9037C87.7832 89.9037 87.7832 72.5215 98.3261 72.5215C108.869 72.5215 108.869 62.0922 119.412 62.0922C129.955 62.0922 129.955 63.251 140.498 63.251C151.04 63.251 151.04 152.48 161.583 152.48C172.126 152.48 172.126 152.48 182.669 152.48C193.212 152.48 193.212 152.48 203.755 152.48C214.298 152.48 214.298 72.5215 224.84 72.5215C235.383 72.5215 235.383 152.48 245.926 152.48C256.469 152.48 256.469 152.48 267.012 152.48C277.555 152.48 277.555 152.48 288.098 152.48C277.555 152.48 277.555 152.48 267.012 152.48C256.469 152.48 256.469 152.48 245.926 152.48C235.383 152.48 235.383 72.5215 224.84 72.5215C214.298 72.5215 214.298 152.48 203.755 152.48C193.212 152.48 193.212 152.48 182.669 152.48C172.126 152.48 172.126 152.48 161.583 152.48C151.04 152.48 151.04 152.48 140.498 152.48C129.955 152.48 129.955 62.0922 119.412 62.0922C108.869 62.0922 108.869 72.5215 98.3261 72.5215C87.7832 72.5215 87.7832 89.9037 77.2403 89.9037C66.6975 89.9037 66.6975 86.4272 56.1546 86.4272Z" fill="#E04C1E"/>
<path d="M56.1546 86.4273C66.6975 86.4273 66.6975 89.9038 77.2403 89.9038C87.7832 89.9038 87.7832 72.5216 98.3261 72.5216C108.869 72.5216 108.869 62.0923 119.412 62.0923C129.955 62.0923 129.955 63.2511 140.498 63.2511C151.04 63.2511 151.04 36.5984 161.583 36.5984C172.126 36.5984 172.126 152.48 182.669 152.48C193.212 152.48 193.212 152.48 203.755 152.48C214.298 152.48 214.298 72.5216 224.84 72.5216C235.383 72.5216 235.383 152.48 245.926 152.48C256.469 152.48 256.469 152.48 267.012 152.48C277.555 152.48 277.555 152.48 288.098 152.48C277.555 152.48 277.555 152.48 267.012 152.48C256.469 152.48 256.469 152.48 245.926 152.48C235.383 152.48 235.383 72.5216 224.84 72.5216C214.298 72.5216 214.298 152.48 203.755 152.48C193.212 152.48 193.212 152.48 182.669 152.48C172.126 152.48 172.126 152.48 161.583 152.48C151.04 152.48 151.04 63.2511 140.498 63.2511C129.955 63.2511 129.955 62.0923 119.412 62.0923C108.869 62.0923 108.869 72.5216 98.3261 72.5216C87.7832 72.5216 87.7832 89.9038 77.2403 89.9038C66.6975 89.9038 66.6975 86.4273 56.1546 86.4273Z" fill="#D0021B"/>
<path d="M56.1546 86.4273C66.6975 86.4273 66.6975 89.9038 77.2403 89.9038C87.7832 89.9038 87.7832 72.5216 98.3261 72.5216C108.869 72.5216 108.869 62.0923 119.412 62.0923C129.955 62.0923 129.955 63.2511 140.498 63.2511C151.04 63.2511 151.04 36.5984 161.583 36.5984C172.126 36.5984 172.126 44.7101 182.669 44.7101C193.212 44.7101 193.212 152.48 203.755 152.48C214.298 152.48 214.298 72.5216 224.84 72.5216C235.383 72.5216 235.383 152.48 245.926 152.48C256.469 152.48 256.469 152.48 267.012 152.48C277.555 152.48 277.555 152.48 288.098 152.48C277.555 152.48 277.555 152.48 267.012 152.48C256.469 152.48 256.469 152.48 245.926 152.48C235.383 152.48 235.383 72.5216 224.84 72.5216C214.298 72.5216 214.298 152.48 203.755 152.48C193.212 152.48 193.212 152.48 182.669 152.48C172.126 152.48 172.126 36.5984 161.583 36.5984C151.04 36.5984 151.04 63.2511 140.498 63.2511C129.955 63.2511 129.955 62.0923 119.412 62.0923C108.869 62.0923 108.869 72.5216 98.3261 72.5216C87.7832 72.5216 87.7832 89.9038 77.2403 89.9038C66.6975 89.9038 66.6975 86.4273 56.1546 86.4273Z" fill="#D5191C"/>
<path d="M56.1546 86.4273C66.6975 86.4273 66.6975 89.9038 77.2403 89.9038C87.7832 89.9038 87.7832 72.5216 98.3261 72.5216C108.869 72.5216 108.869 62.0923 119.412 62.0923C129.955 62.0923 129.955 63.2511 140.498 63.2511C151.04 63.2511 151.04 36.5984 161.583 36.5984C172.126 36.5984 172.126 44.7101 182.669 44.7101C193.212 44.7101 193.212 65.5687 203.755 65.5687C214.298 65.5687 214.298 72.5216 224.84 72.5216C235.383 72.5216 235.383 152.48 245.926 152.48C256.469 152.48 256.469 152.48 267.012 152.48C277.555 152.48 277.555 152.48 288.098 152.48C277.555 152.48 277.555 152.48 267.012 152.48C256.469 152.48 256.469 152.48 245.926 152.48C235.383 152.48 235.383 72.5216 224.84 72.5216C214.298 72.5216 214.298 152.48 203.755 152.48C193.212 152.48 193.212 44.7101 182.669 44.7101C172.126 44.7101 172.126 36.5984 161.583 36.5984C151.04 36.5984 151.04 63.2511 140.498 63.2511C129.955 63.2511 129.955 62.0923 119.412 62.0923C108.869 62.0923 108.869 72.5216 98.3261 72.5216C87.7832 72.5216 87.7832 89.9038 77.2403 89.9038C66.6975 89.9038 66.6975 86.4273 56.1546 86.4273Z" fill="#E2521F"/>
<path d="M56.1546 86.4273C66.6975 86.4273 66.6975 89.9038 77.2403 89.9038C87.7832 89.9038 87.7832 72.5216 98.3261 72.5216C108.869 72.5216 108.869 62.0923 119.412 62.0923C129.955 62.0923 129.955 63.2511 140.498 63.2511C151.04 63.2511 151.04 36.5984 161.583 36.5984C172.126 36.5984 172.126 44.7101 182.669 44.7101C193.212 44.7101 193.212 65.5687 203.755 65.5687C214.298 65.5687 214.298 72.5216 224.84 72.5216C235.383 72.5216 235.383 73.6804 245.926 73.6804C256.469 73.6804 256.469 152.48 267.012 152.48C277.555 152.48 277.555 152.48 288.098 152.48C277.555 152.48 277.555 152.48 267.012 152.48C256.469 152.48 256.469 152.48 245.926 152.48C235.383 152.48 235.383 72.5216 224.84 72.5216C214.298 72.5216 214.298 65.5687 203.755 65.5687C193.212 65.5687 193.212 44.7101 182.669 44.7101C172.126 44.7101 172.126 36.5984 161.583 36.5984C151.04 36.5984 151.04 63.2511 140.498 63.2511C129.955 63.2511 129.955 62.0923 119.412 62.0923C108.869 62.0923 108.869 72.5216 98.3261 72.5216C87.7832 72.5216 87.7832 89.9038 77.2403 89.9038C66.6975 89.9038 66.6975 86.4273 56.1546 86.4273Z" fill="#E6671F"/>
<path d="M56.1546 86.4273C66.6975 86.4273 66.6975 89.9038 77.2403 89.9038C87.7832 89.9038 87.7832 72.5216 98.3261 72.5216C108.869 72.5216 108.869 62.0923 119.412 62.0923C129.955 62.0923 129.955 63.2511 140.498 63.2511C151.04 63.2511 151.04 36.5984 161.583 36.5984C172.126 36.5984 172.126 44.7101 182.669 44.7101C193.212 44.7101 193.212 65.5687 203.755 65.5687C214.298 65.5687 214.298 72.5216 224.84 72.5216C235.383 72.5216 235.383 73.6804 245.926 73.6804C256.469 73.6804 256.469 95.6978 267.012 95.6978C277.555 95.6978 277.555 152.48 288.098 152.48C277.555 152.48 277.555 152.48 267.012 152.48C256.469 152.48 256.469 73.6804 245.926 73.6804C235.383 73.6804 235.383 72.5216 224.84 72.5216C214.298 72.5216 214.298 65.5687 203.755 65.5687C193.212 65.5687 193.212 44.7101 182.669 44.7101C172.126 44.7101 172.126 36.5984 161.583 36.5984C151.04 36.5984 151.04 63.2511 140.498 63.2511C129.955 63.2511 129.955 62.0923 119.412 62.0923C108.869 62.0923 108.869 72.5216 98.3261 72.5216C87.7832 72.5216 87.7832 89.9038 77.2403 89.9038C66.6975 89.9038 66.6975 86.4273 56.1546 86.4273Z" fill="#F09821"/>
<path d="M56.1546 86.4274C66.6975 86.4274 66.6975 152.48 77.2403 152.48C87.7832 152.48 87.7832 152.48 98.3261 152.48C108.869 152.48 108.869 152.48 119.412 152.48C129.955 152.48 129.955 152.48 140.498 152.48C151.04 152.48 151.04 152.48 161.583 152.48C172.126 152.48 172.126 152.48 182.669 152.48C193.212 152.48 193.212 152.48 203.755 152.48C214.298 152.48 214.298 152.48 224.84 152.48C235.383 152.48 235.383 152.48 245.926 152.48C256.469 152.48 256.469 152.48 267.012 152.48C277.555 152.48 277.555 152.48 288.098 152.48C277.555 152.48 277.555 152.48 267.012 152.48C256.469 152.48 256.469 152.48 245.926 152.48C235.383 152.48 235.383 152.48 224.84 152.48C214.298 152.48 214.298 152.48 203.755 152.48C193.212 152.48 193.212 152.48 182.669 152.48C172.126 152.48 172.126 152.48 161.583 152.48C151.04 152.48 151.04 152.48 140.498 152.48C129.955 152.48 129.955 152.48 119.412 152.48C108.869 152.48 108.869 152.48 98.3261 152.48C87.7832 152.48 87.7832 152.48 77.2403 152.48C66.6975 152.48 66.6975 86.4274 56.1546 86.4274Z" fill="#E97520"/>
<path d="M56.1546 86.4274C66.6975 86.4274 66.6975 152.48 77.2403 152.48C87.7832 152.48 87.7832 152.48 98.3261 152.48C108.869 152.48 108.869 152.48 119.412 152.48C129.955 152.48 129.955 152.48 140.498 152.48C151.04 152.48 151.04 152.48 161.583 152.48C172.126 152.48 172.126 152.48 182.669 152.48C193.212 152.48 193.212 152.48 203.755 152.48C214.298 152.48 214.298 152.48 224.84 152.48C235.383 152.48 235.383 152.48 245.926 152.48C256.469 152.48 256.469 152.48 267.012 152.48C277.555 152.48 277.555 152.48 288.098 152.48C277.555 152.48 277.555 152.48 267.012 152.48C256.469 152.48 256.469 152.48 245.926 152.48C235.383 152.48 235.383 152.48 224.84 152.48C214.298 152.48 214.298 152.48 203.755 152.48C193.212 152.48 193.212 152.48 182.669 152.48C172.126 152.48 172.126 152.48 161.583 152.48C151.04 152.48 151.04 152.48 140.498 152.48C129.955 152.48 129.955 152.48 119.412 152.48C108.869 152.48 108.869 152.48 98.3261 152.48C87.7832 152.48 87.7832 152.48 77.2403 152.48C66.6975 152.48 66.6975 86.4274 56.1546 86.4274Z" fill="#E45E1F"/>
<path d="M56.1546 86.4274C66.6975 86.4274 66.6975 152.48 77.2403 152.48C87.7832 152.48 87.7832 152.48 98.3261 152.48C108.869 152.48 108.869 152.48 119.412 152.48C129.955 152.48 129.955 152.48 140.498 152.48C151.04 152.48 151.04 152.48 161.583 152.48C172.126 152.48 172.126 152.48 182.669 152.48C193.212 152.48 193.212 152.48 203.755 152.48C214.298 152.48 214.298 152.48 224.84 152.48C235.383 152.48 235.383 152.48 245.926 152.48C256.469 152.48 256.469 152.48 267.012 152.48C277.555 152.48 277.555 152.48 288.098 152.48C277.555 152.48 277.555 152.48 267.012 152.48C256.469 152.48 256.469 152.48 245.926 152.48C235.383 152.48 235.383 152.48 224.84 152.48C214.298 152.48 214.298 152.48 203.755 152.48C193.212 152.48 193.212 152.48 182.669 152.48C172.126 152.48 172.126 152.48 161.583 152.48C151.04 152.48 151.04 152.48 140.498 152.48C129.955 152.48 129.955 152.48 119.412 152.48C108.869 152.48 108.869 152.48 98.3261 152.48C87.7832 152.48 87.7832 152.48 77.2403 152.48C66.6975 152.48 66.6975 86.4274 56.1546 86.4274Z" fill="#E2551F"/>
<path d="M56.1546 86.4274C66.6975 86.4274 66.6975 152.48 77.2403 152.48C87.7832 152.48 87.7832 152.48 98.3261 152.48C108.869 152.48 108.869 152.48 119.412 152.48C129.955 152.48 129.955 152.48 140.498 152.48C151.04 152.48 151.04 152.48 161.583 152.48C172.126 152.48 172.126 152.48 182.669 152.48C193.212 152.48 193.212 152.48 203.755 152.48C214.298 152.48 214.298 152.48 224.84 152.48C235.383 152.48 235.383 152.48 245.926 152.48C256.469 152.48 256.469 152.48 267.012 152.48C277.555 152.48 277.555 152.48 288.098 152.48C277.555 152.48 277.555 152.48 267.012 152.48C256.469 152.48 256.469 152.48 245.926 152.48C235.383 152.48 235.383 152.48 224.84 152.48C214.298 152.48 214.298 152.48 203.755 152.48C193.212 152.48 193.212 152.48 182.669 152.48C172.126 152.48 172.126 152.48 161.583 152.48C151.04 152.48 151.04 152.48 140.498 152.48C129.955 152.48 129.955 152.48 119.412 152.48C108.869 152.48 108.869 152.48 98.3261 152.48C87.7832 152.48 87.7832 152.48 77.2403 152.48C66.6975 152.48 66.6975 86.4274 56.1546 86.4274Z" fill="#EF9120"/>
<path d="M56.1546 86.4274C66.6975 86.4274 66.6975 152.48 77.2403 152.48C87.7832 152.48 87.7832 152.48 98.3261 152.48C108.869 152.48 108.869 152.48 119.412 152.48C129.955 152.48 129.955 152.48 140.498 152.48C151.04 152.48 151.04 152.48 161.583 152.48C172.126 152.48 172.126 152.48 182.669 152.48C193.212 152.48 193.212 152.48 203.755 152.48C214.298 152.48 214.298 152.48 224.84 152.48C235.383 152.48 235.383 152.48 245.926 152.48C256.469 152.48 256.469 152.48 267.012 152.48C277.555 152.48 277.555 152.48 288.098 152.48C277.555 152.48 277.555 152.48 267.012 152.48C256.469 152.48 256.469 152.48 245.926 152.48C235.383 152.48 235.383 152.48 224.84 152.48C214.298 152.48 214.298 152.48 203.755 152.48C193.212 152.48 193.212 152.48 182.669 152.48C172.126 152.48 172.126 152.48 161.583 152.48C151.04 152.48 151.04 152.48 140.498 152.48C129.955 152.48 129.955 152.48 119.412 152.48C108.869 152.48 108.869 152.48 98.3261 152.48C87.7832 152.48 87.7832 152.48 77.2403 152.48C66.6975 152.48 66.6975 86.4274 56.1546 86.4274Z" fill="#F09C21"/>
<path d="M56.1546 86.4274C66.6975 86.4274 66.6975 152.48 77.2403 152.48C87.7832 152.48 87.7832 152.48 98.3261 152.48C108.869 152.48 108.869 152.48 119.412 152.48C129.955 152.48 129.955 152.48 140.498 152.48C151.04 152.48 151.04 152.48 161.583 152.48C172.126 152.48 172.126 152.48 182.669 152.48C193.212 152.48 193.212 152.48 203.755 152.48C214.298 152.48 214.298 152.48 224.84 152.48C235.383 152.48 235.383 152.48 245.926 152.48C256.469 152.48 256.469 152.48 267.012 152.48C277.555 152.48 277.555 152.48 288.098 152.48C277.555 152.48 277.555 152.48 267.012 152.48C256.469 152.48 256.469 152.48 245.926 152.48C235.383 152.48 235.383 152.48 224.84 152.48C214.298 152.48 214.298 152.48 203.755 152.48C193.212 152.48 193.212 152.48 182.669 152.48C172.126 152.48 172.126 152.48 161.583 152.48C151.04 152.48 151.04 152.48 140.498 152.48C129.955 152.48 129.955 152.48 119.412 152.48C108.869 152.48 108.869 152.48 98.3261 152.48C87.7832 152.48 87.7832 152.48 77.2403 152.48C66.6975 152.48 66.6975 86.4274 56.1546 86.4274Z" fill="#F2A920"/>
<path d="M56.1546 86.4274C66.6975 86.4274 66.6975 152.48 77.2403 152.48C87.7832 152.48 87.7832 152.48 98.3261 152.48C108.869 152.48 108.869 152.48 119.412 152.48C129.955 152.48 129.955 152.48 140.498 152.48C151.04 152.48 151.04 152.48 161.583 152.48C172.126 152.48 172.126 152.48 182.669 152.48C193.212 152.48 193.212 152.48 203.755 152.48C214.298 152.48 214.298 152.48 224.84 152.48C235.383 152.48 235.383 152.48 245.926 152.48C256.469 152.48 256.469 152.48 267.012 152.48C277.555 152.48 277.555 152.48 288.098 152.48C277.555 152.48 277.555 152.48 267.012 152.48C256.469 152.48 256.469 152.48 245.926 152.48C235.383 152.48 235.383 152.48 224.84 152.48C214.298 152.48 214.298 152.48 203.755 152.48C193.212 152.48 193.212 152.48 182.669 152.48C172.126 152.48 172.126 152.48 161.583 152.48C151.04 152.48 151.04 152.48 140.498 152.48C129.955 152.48 129.955 152.48 119.412 152.48C108.869 152.48 108.869 152.48 98.3261 152.48C87.7832 152.48 87.7832 152.48 77.2403 152.48C66.6975 152.48 66.6975 86.4274 56.1546 86.4274Z" fill="#F4B720"/>
<path d="M56.1546 86.4274C66.6975 86.4274 66.6975 152.48 77.2403 152.48C87.7832 152.48 87.7832 152.48 98.3261 152.48C108.869 152.48 108.869 152.48 119.412 152.48C129.955 152.48 129.955 152.48 140.498 152.48C151.04 152.48 151.04 152.48 161.583 152.48C172.126 152.48 172.126 152.48 182.669 152.48C193.212 152.48 193.212 152.48 203.755 152.48C214.298 152.48 214.298 152.48 224.84 152.48C235.383 152.48 235.383 152.48 245.926 152.48C256.469 152.48 256.469 152.48 267.012 152.48C277.555 152.48 277.555 152.48 288.098 152.48C277.555 152.48 277.555 152.48 267.012 152.48C256.469 152.48 256.469 152.48 245.926 152.48C235.383 152.48 235.383 152.48 224.84 152.48C214.298 152.48 214.298 152.48 203.755 152.48C193.212 152.48 193.212 152.48 182.669 152.48C172.126 152.48 172.126 152.48 161.583 152.48C151.04 152.48 151.04 152.48 140.498 152.48C129.955 152.48 129.955 152.48 119.412 152.48C108.869 152.48 108.869 152.48 98.3261 152.48C87.7832 152.48 87.7832 152.48 77.2403 152.48C66.6975 152.48 66.6975 86.4274 56.1546 86.4274Z" fill="#F2A520"/>
<path d="M56.1546 152.479H288.098" stroke="black"/>
<path d="M56.1546 152.479V159.101" stroke="black"/>
<path d="M57.14 161.939V169.212H56.2594V162.862H56.2167L54.4412 164.041V163.146L56.2594 161.939H57.14Z" fill="black"/>
<path d="M77.2404 152.479V159.101" stroke="black"/>
<path d="M74.9658 169.212V168.573L77.3664 165.945C77.6481 165.637 77.8801 165.369 78.0624 165.142C78.2447 164.912 78.3797 164.697 78.4673 164.496C78.5572 164.292 78.6022 164.079 78.6022 163.857C78.6022 163.601 78.5407 163.38 78.4175 163.193C78.2968 163.006 78.1311 162.861 77.9204 162.759C77.7097 162.658 77.4729 162.607 77.2102 162.607C76.9308 162.607 76.687 162.665 76.4786 162.781C76.2727 162.894 76.1129 163.054 75.9992 163.26C75.888 163.466 75.8323 163.707 75.8323 163.984H74.9943C74.9943 163.558 75.0925 163.184 75.289 162.862C75.4855 162.54 75.753 162.289 76.0916 162.109C76.4325 161.93 76.8148 161.84 77.2386 161.84C77.6647 161.84 78.0423 161.93 78.3714 162.109C78.7005 162.289 78.9585 162.532 79.1455 162.837C79.3326 163.143 79.4261 163.483 79.4261 163.857C79.4261 164.124 79.3775 164.386 79.2805 164.641C79.1858 164.895 79.0201 165.178 78.7833 165.49C78.5489 165.8 78.2234 166.179 77.8068 166.627L76.1732 168.374V168.43H79.5539V169.212H74.9658Z" fill="black"/>
<path d="M98.3261 152.479V159.101" stroke="black"/>
<path d="M98.3527 169.311C97.884 169.311 97.4661 169.231 97.0992 169.07C96.7346 168.909 96.4446 168.685 96.2292 168.399C96.0161 168.11 95.9001 167.775 95.8811 167.394H96.776C96.795 167.628 96.8755 167.83 97.0175 168.001C97.1596 168.169 97.3454 168.299 97.575 168.391C97.8047 168.484 98.0592 168.53 98.3385 168.53C98.651 168.53 98.928 168.475 99.1695 168.367C99.411 168.258 99.6004 168.106 99.7377 167.912C99.875 167.718 99.9436 167.493 99.9436 167.237C99.9436 166.97 99.8774 166.734 99.7448 166.531C99.6122 166.325 99.4181 166.164 99.1624 166.048C98.9067 165.932 98.5942 165.874 98.2249 165.874H97.6425V165.092H98.2249C98.5137 165.092 98.767 165.04 98.9848 164.936C99.205 164.832 99.3766 164.685 99.4998 164.496C99.6252 164.306 99.688 164.084 99.688 163.828C99.688 163.582 99.6335 163.368 99.5246 163.185C99.4157 163.003 99.2618 162.861 99.063 162.759C98.8665 162.658 98.6345 162.607 98.3669 162.607C98.116 162.607 97.8793 162.653 97.6567 162.745C97.4365 162.835 97.2566 162.966 97.1169 163.139C96.9773 163.31 96.9015 163.516 96.8897 163.757H96.0374C96.0516 163.376 96.1664 163.042 96.3819 162.756C96.5973 162.467 96.879 162.242 97.227 162.081C97.5774 161.92 97.9621 161.84 98.3811 161.84C98.831 161.84 99.2168 161.931 99.5388 162.113C99.8608 162.293 100.108 162.531 100.281 162.827C100.454 163.123 100.54 163.442 100.54 163.786C100.54 164.195 100.433 164.544 100.217 164.833C100.004 165.122 99.714 165.322 99.3471 165.433V165.49C99.8063 165.566 100.165 165.761 100.423 166.076C100.681 166.389 100.81 166.776 100.81 167.237C100.81 167.633 100.702 167.988 100.487 168.303C100.274 168.615 99.9827 168.861 99.6134 169.041C99.2441 169.221 98.8239 169.311 98.3527 169.311Z" fill="black"/>
<path d="M119.412 152.479V159.101" stroke="black"/>
<path d="M116.786 167.72V166.996L119.982 161.939H120.508V163.061H120.153L117.738 166.882V166.939H122.042V167.72H116.786ZM120.209 169.212V167.5V167.163V161.939H121.048V169.212H120.209Z" fill="black"/>
<path d="M140.498 152.479V159.101" stroke="black"/>
<path d="M140.481 169.311C140.064 169.311 139.689 169.228 139.355 169.063C139.022 168.897 138.754 168.67 138.553 168.381C138.352 168.092 138.241 167.763 138.223 167.394H139.075C139.108 167.723 139.257 167.995 139.522 168.21C139.79 168.423 140.109 168.53 140.481 168.53C140.779 168.53 141.045 168.46 141.277 168.32C141.511 168.181 141.694 167.989 141.827 167.745C141.962 167.499 142.029 167.221 142.029 166.911C142.029 166.593 141.96 166.31 141.82 166.062C141.683 165.811 141.493 165.613 141.252 165.469C141.01 165.324 140.734 165.251 140.424 165.249C140.202 165.246 139.973 165.281 139.739 165.352C139.505 165.42 139.312 165.509 139.16 165.618L138.336 165.519L138.777 161.939H142.555V162.72H139.515L139.259 164.865H139.302C139.451 164.747 139.638 164.649 139.863 164.57C140.088 164.492 140.322 164.453 140.566 164.453C141.011 164.453 141.408 164.56 141.756 164.773C142.106 164.984 142.381 165.272 142.58 165.639C142.781 166.006 142.882 166.425 142.882 166.896C142.882 167.36 142.777 167.775 142.569 168.139C142.363 168.502 142.079 168.788 141.717 168.999C141.355 169.207 140.943 169.311 140.481 169.311Z" fill="black"/>
<path d="M161.583 152.479V159.101" stroke="black"/>
<path d="M161.631 169.311C161.333 169.306 161.034 169.25 160.736 169.141C160.438 169.032 160.165 168.848 159.919 168.59C159.673 168.33 159.475 167.978 159.326 167.536C159.177 167.091 159.102 166.532 159.102 165.859C159.102 165.216 159.163 164.645 159.283 164.148C159.404 163.648 159.579 163.228 159.809 162.887C160.039 162.544 160.316 162.283 160.64 162.106C160.967 161.928 161.335 161.84 161.744 161.84C162.152 161.84 162.514 161.921 162.831 162.085C163.151 162.246 163.411 162.47 163.612 162.759C163.814 163.048 163.944 163.381 164.003 163.757H163.136C163.056 163.43 162.9 163.159 162.668 162.944C162.436 162.729 162.128 162.621 161.744 162.621C161.181 162.621 160.737 162.866 160.413 163.356C160.091 163.846 159.929 164.534 159.926 165.419H159.983C160.116 165.218 160.273 165.046 160.455 164.904C160.64 164.76 160.844 164.649 161.066 164.57C161.289 164.492 161.524 164.453 161.773 164.453C162.19 164.453 162.571 164.557 162.916 164.766C163.262 164.972 163.539 165.257 163.747 165.622C163.956 165.984 164.06 166.399 164.06 166.868C164.06 167.318 163.959 167.73 163.758 168.104C163.557 168.475 163.274 168.771 162.909 168.992C162.547 169.209 162.121 169.316 161.631 169.311ZM161.631 168.53C161.929 168.53 162.197 168.455 162.433 168.306C162.672 168.157 162.861 167.957 162.998 167.706C163.138 167.455 163.208 167.176 163.208 166.868C163.208 166.567 163.14 166.294 163.005 166.048C162.873 165.799 162.689 165.601 162.455 165.455C162.223 165.308 161.958 165.234 161.659 165.234C161.434 165.234 161.225 165.279 161.031 165.369C160.837 165.457 160.666 165.578 160.519 165.732C160.375 165.885 160.261 166.062 160.178 166.261C160.096 166.457 160.054 166.664 160.054 166.882C160.054 167.171 160.122 167.441 160.257 167.692C160.394 167.943 160.581 168.145 160.818 168.299C161.057 168.453 161.328 168.53 161.631 168.53Z" fill="black"/>
<path d="M182.669 152.479V159.101" stroke="black"/>
<path d="M180.793 169.212L184.045 162.777V162.72H180.295V161.939H184.955V162.763L181.716 169.212H180.793Z" fill="black"/>
<path d="M203.755 152.479V159.101" stroke="black"/>
<path d="M203.756 169.311C203.268 169.311 202.837 169.225 202.463 169.052C202.092 168.877 201.802 168.636 201.593 168.331C201.385 168.023 201.282 167.673 201.284 167.28C201.282 166.972 201.342 166.688 201.466 166.428C201.589 166.165 201.757 165.946 201.97 165.771C202.185 165.593 202.426 165.481 202.691 165.433V165.391C202.343 165.301 202.066 165.105 201.86 164.805C201.654 164.502 201.552 164.157 201.554 163.771C201.552 163.402 201.645 163.072 201.835 162.781C202.024 162.489 202.285 162.26 202.616 162.092C202.95 161.924 203.33 161.84 203.756 161.84C204.177 161.84 204.554 161.924 204.885 162.092C205.217 162.26 205.477 162.489 205.667 162.781C205.858 163.072 205.955 163.402 205.958 163.771C205.955 164.157 205.85 164.502 205.642 164.805C205.436 165.105 205.162 165.301 204.821 165.391V165.433C205.084 165.481 205.321 165.593 205.532 165.771C205.742 165.946 205.91 166.165 206.036 166.428C206.161 166.688 206.225 166.972 206.228 167.28C206.225 167.673 206.119 168.023 205.908 168.331C205.7 168.636 205.41 168.877 205.038 169.052C204.669 169.225 204.241 169.311 203.756 169.311ZM203.756 168.53C204.085 168.53 204.369 168.477 204.608 168.37C204.847 168.264 205.032 168.113 205.162 167.919C205.292 167.725 205.359 167.498 205.361 167.237C205.359 166.963 205.288 166.72 205.148 166.509C205.008 166.299 204.818 166.133 204.576 166.012C204.337 165.891 204.064 165.831 203.756 165.831C203.446 165.831 203.169 165.891 202.925 166.012C202.684 166.133 202.493 166.299 202.353 166.509C202.216 166.72 202.149 166.963 202.151 167.237C202.149 167.498 202.211 167.725 202.339 167.919C202.469 168.113 202.655 168.264 202.897 168.37C203.138 168.477 203.425 168.53 203.756 168.53ZM203.756 165.078C204.016 165.078 204.247 165.026 204.448 164.922C204.652 164.818 204.812 164.672 204.928 164.485C205.044 164.298 205.103 164.079 205.105 163.828C205.103 163.582 205.045 163.368 204.931 163.185C204.818 163.001 204.66 162.859 204.459 162.759C204.258 162.658 204.024 162.607 203.756 162.607C203.484 162.607 203.246 162.658 203.042 162.759C202.839 162.859 202.681 163.001 202.57 163.185C202.459 163.368 202.404 163.582 202.407 163.828C202.404 164.079 202.46 164.298 202.573 164.485C202.689 164.672 202.849 164.818 203.053 164.922C203.256 165.026 203.491 165.078 203.756 165.078Z" fill="black"/>
<path d="M224.84 152.479V159.101" stroke="black"/>
<path d="M224.788 161.84C225.087 161.842 225.385 161.899 225.683 162.01C225.982 162.121 226.254 162.306 226.5 162.564C226.746 162.82 226.944 163.169 227.093 163.612C227.242 164.054 227.317 164.609 227.317 165.277C227.317 165.923 227.255 166.497 227.132 166.999C227.011 167.499 226.836 167.92 226.607 168.264C226.379 168.607 226.102 168.867 225.776 169.045C225.451 169.222 225.084 169.311 224.675 169.311C224.268 169.311 223.904 169.231 223.585 169.07C223.267 168.906 223.007 168.68 222.803 168.391C222.602 168.1 222.473 167.763 222.416 167.379H223.283C223.361 167.713 223.516 167.989 223.748 168.207C223.982 168.422 224.291 168.53 224.675 168.53C225.236 168.53 225.679 168.285 226.003 167.795C226.33 167.305 226.493 166.612 226.493 165.717H226.436C226.304 165.916 226.146 166.088 225.964 166.232C225.782 166.377 225.579 166.488 225.357 166.566C225.134 166.644 224.897 166.683 224.646 166.683C224.23 166.683 223.847 166.58 223.499 166.374C223.154 166.166 222.877 165.881 222.668 165.519C222.462 165.154 222.359 164.737 222.359 164.269C222.359 163.823 222.459 163.416 222.658 163.047C222.859 162.675 223.141 162.379 223.503 162.159C223.868 161.939 224.296 161.832 224.788 161.84ZM224.788 162.621C224.49 162.621 224.221 162.695 223.982 162.845C223.746 162.991 223.557 163.19 223.418 163.441C223.28 163.69 223.212 163.966 223.212 164.269C223.212 164.572 223.278 164.847 223.411 165.096C223.546 165.342 223.729 165.539 223.961 165.685C224.195 165.83 224.462 165.902 224.76 165.902C224.985 165.902 225.194 165.858 225.389 165.771C225.583 165.681 225.752 165.559 225.896 165.405C226.043 165.249 226.158 165.072 226.241 164.876C226.324 164.677 226.365 164.47 226.365 164.254C226.365 163.97 226.296 163.704 226.159 163.455C226.024 163.207 225.837 163.006 225.598 162.852C225.361 162.698 225.091 162.621 224.788 162.621Z" fill="black"/>
<path d="M245.926 152.479V159.101" stroke="black"/>
<path d="M243.787 161.939V169.212H242.906V162.862H242.863L241.088 164.041V163.146L242.906 161.939H243.787ZM248.25 169.311C247.715 169.311 247.26 169.166 246.883 168.874C246.507 168.581 246.219 168.156 246.02 167.6C245.821 167.041 245.722 166.366 245.722 165.575C245.722 164.789 245.821 164.118 246.02 163.562C246.222 163.003 246.51 162.577 246.887 162.283C247.266 161.988 247.72 161.84 248.25 161.84C248.781 161.84 249.234 161.988 249.61 162.283C249.989 162.577 250.278 163.003 250.477 163.562C250.678 164.118 250.779 164.789 250.779 165.575C250.779 166.366 250.679 167.041 250.481 167.6C250.282 168.156 249.994 168.581 249.618 168.874C249.241 169.166 248.785 169.311 248.25 169.311ZM248.25 168.53C248.781 168.53 249.193 168.274 249.486 167.763C249.78 167.252 249.927 166.522 249.927 165.575C249.927 164.946 249.859 164.409 249.724 163.967C249.592 163.524 249.4 163.187 249.149 162.955C248.9 162.723 248.601 162.607 248.25 162.607C247.725 162.607 247.314 162.866 247.018 163.384C246.722 163.9 246.574 164.631 246.574 165.575C246.574 166.205 246.641 166.74 246.773 167.18C246.906 167.621 247.096 167.956 247.345 168.185C247.596 168.415 247.898 168.53 248.25 168.53Z" fill="black"/>
<path d="M267.012 152.479V159.101" stroke="black"/>
<path d="M265.673 161.939V169.212H264.793V162.862H264.75L262.974 164.041V163.146L264.793 161.939H265.673ZM270.322 161.939V169.212H269.441V162.862H269.398L267.623 164.041V163.146L269.441 161.939H270.322Z" fill="black"/>
<path d="M288.098 152.479V159.101" stroke="black"/>
<path d="M286.056 161.939V169.212H285.175V162.862H285.132L283.357 164.041V163.146L285.175 161.939H286.056ZM288.147 169.212V168.573L290.548 165.945C290.83 165.637 291.062 165.369 291.244 165.142C291.426 164.912 291.561 164.697 291.649 164.496C291.739 164.292 291.784 164.079 291.784 163.857C291.784 163.601 291.722 163.38 291.599 163.193C291.478 163.006 291.313 162.861 291.102 162.759C290.891 162.658 290.655 162.607 290.392 162.607C290.112 162.607 289.869 162.665 289.66 162.781C289.454 162.894 289.294 163.054 289.181 163.26C289.07 163.466 289.014 163.707 289.014 163.984H288.176C288.176 163.558 288.274 163.184 288.471 162.862C288.667 162.54 288.935 162.289 289.273 162.109C289.614 161.93 289.996 161.84 290.42 161.84C290.846 161.84 291.224 161.93 291.553 162.109C291.882 162.289 292.14 162.532 292.327 162.837C292.514 163.143 292.608 163.483 292.608 163.857C292.608 164.124 292.559 164.386 292.462 164.641C292.367 164.895 292.202 165.178 291.965 165.49C291.73 165.8 291.405 166.179 290.988 166.627L289.355 168.374V168.43H292.735V169.212H288.147Z" fill="black"/>
<path d="M56.1546 152.48V36.5984" stroke="black"/>
<path d="M56.1546 152.48H48.8301" stroke="black"/>
<path d="M42.0428 155.075C41.5078 155.075 41.0521 154.929 40.6756 154.638C40.2992 154.344 40.0116 153.919 39.8127 153.363C39.6139 152.804 39.5144 152.129 39.5144 151.339C39.5144 150.553 39.6139 149.882 39.8127 149.325C40.0139 148.767 40.3028 148.34 40.6792 148.047C41.058 147.751 41.5125 147.603 42.0428 147.603C42.5731 147.603 43.0265 147.751 43.4029 148.047C43.7817 148.34 44.0705 148.767 44.2694 149.325C44.4706 149.882 44.5712 150.553 44.5712 151.339C44.5712 152.129 44.4718 152.804 44.2729 153.363C44.0741 153.919 43.7864 154.344 43.41 154.638C43.0336 154.929 42.5779 155.075 42.0428 155.075ZM42.0428 154.293C42.5731 154.293 42.9851 154.038 43.2786 153.526C43.5722 153.015 43.719 152.286 43.719 151.339C43.719 150.709 43.6515 150.173 43.5166 149.73C43.384 149.287 43.1922 148.95 42.9413 148.718C42.6927 148.486 42.3932 148.37 42.0428 148.37C41.5173 148.37 41.1065 148.629 40.8106 149.148C40.5147 149.664 40.3667 150.394 40.3667 151.339C40.3667 151.968 40.433 152.504 40.5656 152.944C40.6981 153.384 40.8887 153.719 41.1373 153.949C41.3882 154.178 41.6901 154.293 42.0428 154.293Z" fill="black"/>
<path d="M56.1546 106.127H48.8301" stroke="black"/>
<path d="M33.0842 107.131V106.407L36.2802 101.35H36.8058V102.472H36.4507L34.0359 106.293V106.35H38.3399V107.131H33.0842ZM36.5075 108.622V106.911V106.573V101.35H37.3456V108.622H36.5075ZM42.0428 108.722C41.5078 108.722 41.0521 108.576 40.6756 108.285C40.2992 107.992 40.0116 107.567 39.8127 107.01C39.6138 106.452 39.5144 105.777 39.5144 104.986C39.5144 104.2 39.6138 103.529 39.8127 102.973C40.0139 102.414 40.3028 101.988 40.6792 101.694C41.058 101.398 41.5125 101.25 42.0428 101.25C42.5731 101.25 43.0265 101.398 43.4029 101.694C43.7817 101.988 44.0705 102.414 44.2694 102.973C44.4706 103.529 44.5712 104.2 44.5712 104.986C44.5712 105.777 44.4718 106.452 44.2729 107.01C44.0741 107.567 43.7864 107.992 43.41 108.285C43.0336 108.576 42.5779 108.722 42.0428 108.722ZM42.0428 107.941C42.5731 107.941 42.9851 107.685 43.2786 107.174C43.5722 106.662 43.719 105.933 43.719 104.986C43.719 104.356 43.6515 103.82 43.5165 103.377C43.384 102.935 43.1922 102.597 42.9413 102.365C42.6927 102.133 42.3932 102.017 42.0428 102.017C41.5173 102.017 41.1065 102.277 40.8106 102.795C40.5146 103.311 40.3667 104.041 40.3667 104.986C40.3667 105.616 40.433 106.151 40.5655 106.591C40.6981 107.032 40.8887 107.367 41.1373 107.596C41.3882 107.826 41.6901 107.941 42.0428 107.941Z" fill="black"/>
<path d="M56.1546 82.951H48.8301" stroke="black"/>
<path d="M35.8452 85.5457C35.5469 85.541 35.2486 85.4842 34.9503 85.3753C34.652 85.2664 34.3798 85.0829 34.1336 84.8248C33.8873 84.5644 33.6897 84.2129 33.5405 83.7702C33.3914 83.3251 33.3168 82.7664 33.3168 82.094C33.3168 81.4501 33.3772 80.8795 33.4979 80.3824C33.6186 79.8828 33.7938 79.4626 34.0235 79.1217C34.2531 78.7784 34.5301 78.518 34.8544 78.3405C35.1811 78.1629 35.5493 78.0741 35.9588 78.0741C36.366 78.0741 36.7282 78.1558 37.0455 78.3192C37.3651 78.4801 37.6255 78.705 37.8267 78.9939C38.028 79.2827 38.1582 79.6153 38.2174 79.9917H37.3509C37.2704 79.665 37.1141 79.394 36.8821 79.1785C36.6501 78.9631 36.3424 78.8554 35.9588 78.8554C35.3954 78.8554 34.9515 79.1004 34.6272 79.5905C34.3052 80.0805 34.143 80.7683 34.1407 81.6537H34.1975C34.33 81.4524 34.4875 81.2808 34.6698 81.1388C34.8544 80.9943 35.058 80.8831 35.2806 80.805C35.5031 80.7268 35.7387 80.6878 35.9872 80.6878C36.4039 80.6878 36.7851 80.7919 37.1307 81.0003C37.4764 81.2062 37.7533 81.4915 37.9617 81.8561C38.17 82.2183 38.2742 82.6338 38.2742 83.1025C38.2742 83.5523 38.1736 83.9643 37.9723 84.3383C37.7711 84.71 37.4882 85.0059 37.1236 85.2261C36.7614 85.4439 36.3353 85.5505 35.8452 85.5457ZM35.8452 84.7645C36.1435 84.7645 36.411 84.6899 36.6478 84.5407C36.8869 84.3916 37.0751 84.1916 37.2124 83.9406C37.3521 83.6897 37.4219 83.4103 37.4219 83.1025C37.4219 82.8019 37.3544 82.5284 37.2195 82.2822C37.0869 82.0336 36.9034 81.836 36.6691 81.6892C36.4371 81.5424 36.1719 81.469 35.8736 81.469C35.6487 81.469 35.4392 81.514 35.2451 81.604C35.0509 81.6916 34.8805 81.8123 34.7337 81.9662C34.5893 82.1201 34.4756 82.2964 34.3928 82.4953C34.3099 82.6918 34.2685 82.8989 34.2685 83.1167C34.2685 83.4056 34.336 83.6755 34.4709 83.9264C34.6082 84.1773 34.7952 84.3798 35.032 84.5336C35.2711 84.6875 35.5422 84.7645 35.8452 84.7645ZM42.0428 85.5457C41.5078 85.5457 41.0521 85.4001 40.6756 85.1089C40.2992 84.8154 40.0116 84.3904 39.8127 83.8341C39.6138 83.2754 39.5144 82.6006 39.5144 81.8099C39.5144 81.0239 39.6138 80.3528 39.8127 79.7964C40.0139 79.2377 40.3028 78.8116 40.6792 78.518C41.058 78.2221 41.5125 78.0741 42.0428 78.0741C42.5731 78.0741 43.0265 78.2221 43.4029 78.518C43.7817 78.8116 44.0705 79.2377 44.2694 79.7964C44.4706 80.3528 44.5712 81.0239 44.5712 81.8099C44.5712 82.6006 44.4718 83.2754 44.2729 83.8341C44.0741 84.3904 43.7864 84.8154 43.41 85.1089C43.0336 85.4001 42.5779 85.5457 42.0428 85.5457ZM42.0428 84.7645C42.5731 84.7645 42.9851 84.5088 43.2786 83.9974C43.5722 83.4861 43.719 82.7569 43.719 81.8099C43.719 81.1802 43.6515 80.644 43.5165 80.2013C43.384 79.7586 43.1922 79.4212 42.9413 79.1892C42.6927 78.9572 42.3932 78.8412 42.0428 78.8412C41.5173 78.8412 41.1065 79.1004 40.8106 79.6189C40.5146 80.135 40.3667 80.8653 40.3667 81.8099C40.3667 82.4397 40.433 82.9747 40.5655 83.415C40.6981 83.8554 40.8887 84.1904 41.1373 84.42C41.3882 84.6497 41.6901 84.7645 42.0428 84.7645Z" fill="black"/>
<path d="M56.1547 71.3628H48.8301" stroke="black"/>
<path d="M34.3413 73.8582L37.5941 67.4235V67.3667H33.8441V66.5854H38.5032V67.4093L35.2646 73.8582H34.3413ZM42.0428 73.9576C41.5078 73.9576 41.0521 73.812 40.6756 73.5208C40.2992 73.2272 40.0116 72.8023 39.8127 72.2459C39.6139 71.6872 39.5144 71.0125 39.5144 70.2218C39.5144 69.4358 39.6139 68.7646 39.8127 68.2083C40.0139 67.6496 40.3028 67.2234 40.6792 66.9299C41.058 66.634 41.5125 66.486 42.0428 66.486C42.5731 66.486 43.0265 66.634 43.4029 66.9299C43.7817 67.2234 44.0705 67.6496 44.2694 68.2083C44.4706 68.7646 44.5712 69.4358 44.5712 70.2218C44.5712 71.0125 44.4718 71.6872 44.2729 72.2459C44.0741 72.8023 43.7864 73.2272 43.41 73.5208C43.0336 73.812 42.5779 73.9576 42.0428 73.9576ZM42.0428 73.1763C42.5731 73.1763 42.9851 72.9207 43.2786 72.4093C43.5722 71.8979 43.719 71.1688 43.719 70.2218C43.719 69.5921 43.6515 69.0558 43.5166 68.6131C43.384 68.1704 43.1922 67.8331 42.9413 67.6011C42.6927 67.369 42.3932 67.253 42.0428 67.253C41.5173 67.253 41.1065 67.5123 40.8106 68.0307C40.5147 68.5468 40.3667 69.2772 40.3667 70.2218C40.3667 70.8515 40.433 71.3866 40.5656 71.8269C40.6981 72.2672 40.8887 72.6022 41.1373 72.8319C41.3882 73.0615 41.6901 73.1763 42.0428 73.1763Z" fill="black"/>
<path d="M56.1546 59.7748H48.8301" stroke="black"/>
<path d="M35.8381 62.3695C35.3504 62.3695 34.9195 62.283 34.5455 62.1102C34.1738 61.935 33.8838 61.6947 33.6755 61.3893C33.4671 61.0816 33.3641 60.7312 33.3665 60.3382C33.3641 60.0304 33.4245 59.7463 33.5476 59.4859C33.6707 59.2231 33.8388 59.0042 34.0519 58.829C34.2673 58.6514 34.5076 58.539 34.7728 58.4916V58.449C34.4247 58.359 34.1478 58.1637 33.9418 57.8631C33.7358 57.56 33.634 57.2156 33.6364 56.8297C33.634 56.4604 33.7275 56.1301 33.9169 55.8389C34.1063 55.5477 34.3667 55.3181 34.6982 55.15C35.032 54.9819 35.412 54.8979 35.8381 54.8979C36.2595 54.8979 36.6359 54.9819 36.9674 55.15C37.2988 55.3181 37.5592 55.5477 37.7486 55.8389C37.9404 56.1301 38.0374 56.4604 38.0398 56.8297C38.0374 57.2156 37.9321 57.56 37.7238 57.8631C37.5178 58.1637 37.2443 58.359 36.9034 58.449V58.4916C37.1662 58.539 37.403 58.6514 37.6137 58.829C37.8244 59.0042 37.9925 59.2231 38.1179 59.4859C38.2434 59.7463 38.3073 60.0304 38.3097 60.3382C38.3073 60.7312 38.2008 61.0816 37.9901 61.3893C37.7818 61.6947 37.4917 61.935 37.1201 62.1102C36.7507 62.283 36.3234 62.3695 35.8381 62.3695ZM35.8381 61.5882C36.1672 61.5882 36.4513 61.5349 36.6904 61.4284C36.9295 61.3219 37.1141 61.1715 37.2443 60.9774C37.3746 60.7833 37.4408 60.556 37.4432 60.2956C37.4408 60.021 37.3698 59.7783 37.2301 59.5676C37.0905 59.3569 36.8999 59.1912 36.6584 59.0704C36.4193 58.9497 36.1459 58.8893 35.8381 58.8893C35.528 58.8893 35.251 58.9497 35.0071 59.0704C34.7657 59.1912 34.5751 59.3569 34.4354 59.5676C34.2981 59.7783 34.2306 60.021 34.233 60.2956C34.2306 60.556 34.2934 60.7833 34.4212 60.9774C34.5514 61.1715 34.7372 61.3219 34.9787 61.4284C35.2202 61.5349 35.5067 61.5882 35.8381 61.5882ZM35.8381 58.1365C36.0985 58.1365 36.3293 58.0844 36.5306 57.9802C36.7342 57.8761 36.894 57.7305 37.01 57.5435C37.126 57.3564 37.1852 57.1374 37.1875 56.8865C37.1852 56.6403 37.1272 56.426 37.0135 56.2437C36.8999 56.0591 36.7425 55.917 36.5412 55.8176C36.34 55.7158 36.1056 55.6649 35.8381 55.6649C35.5658 55.6649 35.3279 55.7158 35.1243 55.8176C34.9207 55.917 34.7633 56.0591 34.652 56.2437C34.5407 56.426 34.4863 56.6403 34.4887 56.8865C34.4863 57.1374 34.5419 57.3564 34.6556 57.5435C34.7716 57.7305 34.9314 57.8761 35.135 57.9802C35.3386 58.0844 35.5729 58.1365 35.8381 58.1365ZM42.0428 62.3695C41.5078 62.3695 41.0521 62.2239 40.6756 61.9327C40.2992 61.6391 40.0116 61.2141 39.8127 60.6578C39.6138 60.0991 39.5144 59.4244 39.5144 58.6337C39.5144 57.8477 39.6138 57.1765 39.8127 56.6202C40.0139 56.0614 40.3028 55.6353 40.6792 55.3418C41.058 55.0458 41.5125 54.8979 42.0428 54.8979C42.5731 54.8979 43.0265 55.0458 43.4029 55.3418C43.7817 55.6353 44.0705 56.0614 44.2694 56.6202C44.4706 57.1765 44.5712 57.8477 44.5712 58.6337C44.5712 59.4244 44.4718 60.0991 44.2729 60.6578C44.0741 61.2141 43.7864 61.6391 43.41 61.9327C43.0336 62.2239 42.5779 62.3695 42.0428 62.3695ZM42.0428 61.5882C42.5731 61.5882 42.9851 61.3325 43.2786 60.8212C43.5722 60.3098 43.719 59.5806 43.719 58.6337C43.719 58.0039 43.6515 57.4677 43.5165 57.025C43.384 56.5823 43.1922 56.2449 42.9413 56.0129C42.6927 55.7809 42.3932 55.6649 42.0428 55.6649C41.5173 55.6649 41.1065 55.9241 40.8106 56.4426C40.5146 56.9587 40.3667 57.6891 40.3667 58.6337C40.3667 59.2634 40.433 59.7984 40.5655 60.2388C40.6981 60.6791 40.8887 61.0141 41.1373 61.2437C41.3882 61.4734 41.6901 61.5882 42.0428 61.5882Z" fill="black"/>
<path d="M56.1546 36.5984H48.8301" stroke="black"/>
<path d="M31.329 31.821V39.0938H30.4484V32.7443H30.4058L28.6302 33.9233V33.0284L30.4484 31.821H31.329ZM35.7928 39.1932C35.2578 39.1932 34.8021 39.0476 34.4256 38.7564C34.0492 38.4628 33.7616 38.0379 33.5627 37.4815C33.3638 36.9228 33.2644 36.2481 33.2644 35.4574C33.2644 34.6714 33.3638 34.0002 33.5627 33.4439C33.7639 32.8852 34.0528 32.459 34.4292 32.1655C34.808 31.8696 35.2625 31.7216 35.7928 31.7216C36.3231 31.7216 36.7765 31.8696 37.1529 32.1655C37.5317 32.459 37.8205 32.8852 38.0194 33.4439C38.2206 34.0002 38.3212 34.6714 38.3212 35.4574C38.3212 36.2481 38.2218 36.9228 38.0229 37.4815C37.8241 38.0379 37.5364 38.4628 37.16 38.7564C36.7836 39.0476 36.3279 39.1932 35.7928 39.1932ZM35.7928 38.4119C36.3231 38.4119 36.7351 38.1562 37.0286 37.6449C37.3222 37.1335 37.469 36.4044 37.469 35.4574C37.469 34.8277 37.4015 34.2914 37.2665 33.8487C37.134 33.406 36.9422 33.0687 36.6913 32.8366C36.4427 32.6046 36.1432 32.4886 35.7928 32.4886C35.2673 32.4886 34.8565 32.7479 34.5606 33.2663C34.2647 33.7824 34.1167 34.5128 34.1167 35.4574C34.1167 36.0871 34.183 36.6222 34.3156 37.0625C34.4481 37.5028 34.6387 37.8378 34.8873 38.0675C35.1382 38.2971 35.4401 38.4119 35.7928 38.4119ZM42.0428 39.1932C41.5078 39.1932 41.0521 39.0476 40.6756 38.7564C40.2992 38.4628 40.0116 38.0379 39.8127 37.4815C39.6138 36.9228 39.5144 36.2481 39.5144 35.4574C39.5144 34.6714 39.6138 34.0002 39.8127 33.4439C40.0139 32.8852 40.3028 32.459 40.6792 32.1655C41.058 31.8696 41.5125 31.7216 42.0428 31.7216C42.5731 31.7216 43.0265 31.8696 43.4029 32.1655C43.7817 32.459 44.0705 32.8852 44.2694 33.4439C44.4706 34.0002 44.5712 34.6714 44.5712 35.4574C44.5712 36.2481 44.4718 36.9228 44.2729 37.4815C44.0741 38.0379 43.7864 38.4628 43.41 38.7564C43.0336 39.0476 42.5779 39.1932 42.0428 39.1932ZM42.0428 38.4119C42.5731 38.4119 42.9851 38.1562 43.2786 37.6449C43.5722 37.1335 43.719 36.4044 43.719 35.4574C43.719 34.8277 43.6515 34.2914 43.5165 33.8487C43.384 33.406 43.1922 33.0687 42.9413 32.8366C42.6927 32.6046 42.3932 32.4886 42.0428 32.4886C41.5173 32.4886 41.1065 32.7479 40.8106 33.2663C40.5147 33.7824 40.3667 34.5128 40.3667 35.4574C40.3667 36.0871 40.433 36.6222 40.5656 37.0625C40.6981 37.5028 40.8887 37.8378 41.1373 38.0675C41.3882 38.2971 41.6901 38.4119 42.0428 38.4119Z" fill="black"/>
<path d="M6.04102 10.165V11.1787H0.363281C0.355469 10.9248 0.396484 10.6807 0.486328 10.4463C0.630859 10.0596 0.861328 9.67871 1.17773 9.30371C1.49805 8.92871 1.95898 8.49512 2.56055 8.00293C3.49414 7.2373 4.125 6.63184 4.45312 6.18652C4.78125 5.7373 4.94531 5.31348 4.94531 4.91504C4.94531 4.49707 4.79492 4.14551 4.49414 3.86035C4.19727 3.57129 3.80859 3.42676 3.32812 3.42676C2.82031 3.42676 2.41406 3.5791 2.10938 3.88379C1.80469 4.18848 1.65039 4.61035 1.64648 5.14941L0.5625 5.03809C0.636719 4.22949 0.916016 3.61426 1.40039 3.19238C1.88477 2.7666 2.53516 2.55371 3.35156 2.55371C4.17578 2.55371 4.82812 2.78223 5.30859 3.23926C5.78906 3.69629 6.0293 4.2627 6.0293 4.93848C6.0293 5.28223 5.95898 5.62012 5.81836 5.95215C5.67773 6.28418 5.44336 6.63379 5.11523 7.00098C4.79102 7.36816 4.25 7.87207 3.49219 8.5127C2.85938 9.04395 2.45312 9.40527 2.27344 9.59668C2.09375 9.78418 1.94531 9.97363 1.82812 10.165H6.04102ZM7.17773 6.94238C7.17773 5.92676 7.28125 5.11035 7.48828 4.49316C7.69922 3.87207 8.00977 3.39355 8.41992 3.05762C8.83398 2.72168 9.35352 2.55371 9.97852 2.55371C10.4395 2.55371 10.8438 2.64746 11.1914 2.83496C11.5391 3.01855 11.8262 3.28613 12.0527 3.6377C12.2793 3.98535 12.457 4.41113 12.5859 4.91504C12.7148 5.41504 12.7793 6.09082 12.7793 6.94238C12.7793 7.9502 12.6758 8.76465 12.4688 9.38574C12.2617 10.0029 11.9512 10.4814 11.5371 10.8213C11.127 11.1572 10.6074 11.3252 9.97852 11.3252C9.15039 11.3252 8.5 11.0283 8.02734 10.4346C7.46094 9.71973 7.17773 8.55566 7.17773 6.94238ZM8.26172 6.94238C8.26172 8.35254 8.42578 9.29199 8.75391 9.76074C9.08594 10.2256 9.49414 10.458 9.97852 10.458C10.4629 10.458 10.8691 10.2236 11.1973 9.75488C11.5293 9.28613 11.6953 8.34863 11.6953 6.94238C11.6953 5.52832 11.5293 4.58887 11.1973 4.12402C10.8691 3.65918 10.459 3.42676 9.9668 3.42676C9.48242 3.42676 9.0957 3.63184 8.80664 4.04199C8.44336 4.56543 8.26172 5.53223 8.26172 6.94238ZM19.4004 10.165V11.1787H13.7227C13.7148 10.9248 13.7559 10.6807 13.8457 10.4463C13.9902 10.0596 14.2207 9.67871 14.5371 9.30371C14.8574 8.92871 15.3184 8.49512 15.9199 8.00293C16.8535 7.2373 17.4844 6.63184 17.8125 6.18652C18.1406 5.7373 18.3047 5.31348 18.3047 4.91504C18.3047 4.49707 18.1543 4.14551 17.8535 3.86035C17.5566 3.57129 17.168 3.42676 16.6875 3.42676C16.1797 3.42676 15.7734 3.5791 15.4688 3.88379C15.1641 4.18848 15.0098 4.61035 15.0059 5.14941L13.9219 5.03809C13.9961 4.22949 14.2754 3.61426 14.7598 3.19238C15.2441 2.7666 15.8945 2.55371 16.7109 2.55371C17.5352 2.55371 18.1875 2.78223 18.668 3.23926C19.1484 3.69629 19.3887 4.2627 19.3887 4.93848C19.3887 5.28223 19.3184 5.62012 19.1777 5.95215C19.0371 6.28418 18.8027 6.63379 18.4746 7.00098C18.1504 7.36816 17.6094 7.87207 16.8516 8.5127C16.2188 9.04395 15.8125 9.40527 15.6328 9.59668C15.4531 9.78418 15.3047 9.97363 15.1875 10.165H19.4004ZM20.5371 6.94238C20.5371 5.92676 20.6406 5.11035 20.8477 4.49316C21.0586 3.87207 21.3691 3.39355 21.7793 3.05762C22.1934 2.72168 22.7129 2.55371 23.3379 2.55371C23.7988 2.55371 24.2031 2.64746 24.5508 2.83496C24.8984 3.01855 25.1855 3.28613 25.4121 3.6377C25.6387 3.98535 25.8164 4.41113 25.9453 4.91504C26.0742 5.41504 26.1387 6.09082 26.1387 6.94238C26.1387 7.9502 26.0352 8.76465 25.8281 9.38574C25.6211 10.0029 25.3105 10.4814 24.8965 10.8213C24.4863 11.1572 23.9668 11.3252 23.3379 11.3252C22.5098 11.3252 21.8594 11.0283 21.3867 10.4346C20.8203 9.71973 20.5371 8.55566 20.5371 6.94238ZM21.6211 6.94238C21.6211 8.35254 21.7852 9.29199 22.1133 9.76074C22.4453 10.2256 22.8535 10.458 23.3379 10.458C23.8223 10.458 24.2285 10.2236 24.5566 9.75488C24.8887 9.28613 25.0547 8.34863 25.0547 6.94238C25.0547 5.52832 24.8887 4.58887 24.5566 4.12402C24.2285 3.65918 23.8184 3.42676 23.3262 3.42676C22.8418 3.42676 22.4551 3.63184 22.166 4.04199C21.8027 4.56543 21.6211 5.53223 21.6211 6.94238Z" fill="black"/>
</svg>
