<svg width="295" height="173" viewBox="0 0 295 173" fill="none" xmlns="http://www.w3.org/2000/svg">
<path d="M56.1545 61.2231C66.6974 61.2231 66.6974 49.635 77.2403 49.635C87.7831 49.635 87.7831 53.9805 98.326 53.9805C108.869 53.9805 108.869 61.2231 119.412 61.2231C129.955 61.2231 129.955 45.2894 140.497 45.2894C151.04 45.2894 151.04 77.1568 161.583 77.1568C172.126 77.1568 172.126 84.3994 182.669 84.3994C193.212 84.3994 193.212 93.0905 203.755 93.0905C214.298 93.0905 214.298 94.539 224.84 94.539C235.383 94.539 235.383 84.3994 245.926 84.3994C256.469 84.3994 256.469 104.679 267.012 104.679C277.555 104.679 277.555 100.333 288.098 100.333V152.48C277.555 152.48 277.555 104.679 267.012 104.679C256.469 104.679 256.469 84.3994 245.926 84.3994C235.383 84.3994 235.383 94.539 224.84 94.539C214.298 94.539 214.298 93.0905 203.755 93.0905C193.212 93.0905 193.212 84.3994 182.669 84.3994C172.126 84.3994 172.126 77.1568 161.583 77.1568C151.04 77.1568 151.04 45.2894 140.497 45.2894C129.955 45.2894 129.955 61.2231 119.412 61.2231C108.869 61.2231 108.869 53.9805 98.326 53.9805C87.7831 53.9805 87.7831 49.635 77.2403 49.635C66.6974 49.635 66.6974 61.2231 56.1545 61.2231Z" fill="#F4B220"/>
<path d="M56.1545 61.2231C66.6974 61.2231 66.6974 49.635 77.2403 49.635C87.7831 49.635 87.7831 53.9805 98.326 53.9805C108.869 53.9805 108.869 61.2231 119.412 61.2231C129.955 61.2231 129.955 45.2894 140.497 45.2894C151.04 45.2894 151.04 77.1568 161.583 77.1568C172.126 77.1568 172.126 84.3994 182.669 84.3994C193.212 84.3994 193.212 93.0905 203.755 93.0905C214.298 93.0905 214.298 94.539 224.84 94.539C235.383 94.539 235.383 84.3994 245.926 84.3994C256.469 84.3994 256.469 152.48 267.012 152.48C277.555 152.48 277.555 152.48 288.098 152.48C277.555 152.48 277.555 152.48 267.012 152.48C256.469 152.48 256.469 84.3994 245.926 84.3994C235.383 84.3994 235.383 152.48 224.84 152.48C214.298 152.48 214.298 93.0905 203.755 93.0905C193.212 93.0905 193.212 84.3994 182.669 84.3994C172.126 84.3994 172.126 77.1568 161.583 77.1568C151.04 77.1568 151.04 45.2894 140.497 45.2894C129.955 45.2894 129.955 61.2231 119.412 61.2231C108.869 61.2231 108.869 53.9805 98.326 53.9805C87.7831 53.9805 87.7831 49.635 77.2403 49.635C66.6974 49.635 66.6974 61.2231 56.1545 61.2231Z" fill="#F3AB20"/>
<path d="M56.1545 61.2231C66.6974 61.2231 66.6974 49.635 77.2403 49.635C87.7831 49.635 87.7831 53.9806 98.326 53.9806C108.869 53.9806 108.869 61.2231 119.412 61.2231C129.955 61.2231 129.955 152.48 140.497 152.48C151.04 152.48 151.04 152.48 161.583 152.48C172.126 152.48 172.126 152.48 182.669 152.48C193.212 152.48 193.212 152.48 203.755 152.48C214.298 152.48 214.298 152.48 224.84 152.48C235.383 152.48 235.383 152.48 245.926 152.48C256.469 152.48 256.469 152.48 267.012 152.48C277.555 152.48 277.555 152.48 288.098 152.48C277.555 152.48 277.555 152.48 267.012 152.48C256.469 152.48 256.469 152.48 245.926 152.48C235.383 152.48 235.383 152.48 224.84 152.48C214.298 152.48 214.298 152.48 203.755 152.48C193.212 152.48 193.212 152.48 182.669 152.48C172.126 152.48 172.126 152.48 161.583 152.48C151.04 152.48 151.04 152.48 140.497 152.48C129.955 152.48 129.955 61.2231 119.412 61.2231C108.869 61.2231 108.869 152.48 98.326 152.48C87.7831 152.48 87.7831 49.635 77.2403 49.635C66.6974 49.635 66.6974 61.2231 56.1545 61.2231Z" fill="#E6671F"/>
<path d="M56.1545 61.2231C66.6974 61.2231 66.6974 152.48 77.2403 152.48C87.7831 152.48 87.7831 152.48 98.326 152.48C108.869 152.48 108.869 61.2231 119.412 61.2231C129.955 61.2231 129.955 152.48 140.497 152.48C151.04 152.48 151.04 152.48 161.583 152.48C172.126 152.48 172.126 152.48 182.669 152.48C193.212 152.48 193.212 152.48 203.755 152.48C214.298 152.48 214.298 152.48 224.84 152.48C235.383 152.48 235.383 152.48 245.926 152.48C256.469 152.48 256.469 152.48 267.012 152.48C277.555 152.48 277.555 152.48 288.098 152.48C277.555 152.48 277.555 152.48 267.012 152.48C256.469 152.48 256.469 152.48 245.926 152.48C235.383 152.48 235.383 152.48 224.84 152.48C214.298 152.48 214.298 152.48 203.755 152.48C193.212 152.48 193.212 152.48 182.669 152.48C172.126 152.48 172.126 152.48 161.583 152.48C151.04 152.48 151.04 152.48 140.497 152.48C129.955 152.48 129.955 152.48 119.412 152.48C108.869 152.48 108.869 152.48 98.326 152.48C87.7831 152.48 87.7831 152.48 77.2403 152.48C66.6974 152.48 66.6974 152.48 56.1545 152.48V61.2231Z" fill="#E97520"/>
<path d="M56.1545 61.2231C66.6974 61.2231 66.6974 49.635 77.2403 49.635C87.7831 49.635 87.7831 152.48 98.326 152.48C108.869 152.48 108.869 61.2231 119.412 61.2231C129.955 61.2231 129.955 152.48 140.497 152.48C151.04 152.48 151.04 152.48 161.583 152.48C172.126 152.48 172.126 152.48 182.669 152.48C193.212 152.48 193.212 152.48 203.755 152.48C214.298 152.48 214.298 152.48 224.84 152.48C235.383 152.48 235.383 152.48 245.926 152.48C256.469 152.48 256.469 152.48 267.012 152.48C277.555 152.48 277.555 152.48 288.098 152.48C277.555 152.48 277.555 152.48 267.012 152.48C256.469 152.48 256.469 152.48 245.926 152.48C235.383 152.48 235.383 152.48 224.84 152.48C214.298 152.48 214.298 152.48 203.755 152.48C193.212 152.48 193.212 152.48 182.669 152.48C172.126 152.48 172.126 152.48 161.583 152.48C151.04 152.48 151.04 152.48 140.497 152.48C129.955 152.48 129.955 61.2231 119.412 61.2231C108.869 61.2231 108.869 152.48 98.326 152.48C87.7831 152.48 87.7831 152.48 77.2403 152.48C66.6974 152.48 66.6974 61.2231 56.1545 61.2231Z" fill="#E45E1F"/>
<path d="M56.1545 61.2231C66.6974 61.2231 66.6974 49.635 77.2403 49.635C87.7831 49.635 87.7831 53.9805 98.326 53.9805C108.869 53.9805 108.869 61.2231 119.412 61.2231C129.955 61.2231 129.955 45.2894 140.497 45.2894C151.04 45.2894 151.04 152.48 161.583 152.48C172.126 152.48 172.126 152.48 182.669 152.48C193.212 152.48 193.212 152.48 203.755 152.48C214.298 152.48 214.298 152.48 224.84 152.48C235.383 152.48 235.383 152.48 245.926 152.48C256.469 152.48 256.469 152.48 267.012 152.48C277.555 152.48 277.555 152.48 288.098 152.48C277.555 152.48 277.555 152.48 267.012 152.48C256.469 152.48 256.469 152.48 245.926 152.48C235.383 152.48 235.383 152.48 224.84 152.48C214.298 152.48 214.298 152.48 203.755 152.48C193.212 152.48 193.212 152.48 182.669 152.48C172.126 152.48 172.126 152.48 161.583 152.48C151.04 152.48 151.04 152.48 140.497 152.48C129.955 152.48 129.955 61.2231 119.412 61.2231C108.869 61.2231 108.869 53.9805 98.326 53.9805C87.7831 53.9805 87.7831 49.635 77.2403 49.635C66.6974 49.635 66.6974 61.2231 56.1545 61.2231Z" fill="#E2551F"/>
<path d="M56.1545 61.2231C66.6974 61.2231 66.6974 49.635 77.2403 49.635C87.7831 49.635 87.7831 53.9805 98.326 53.9805C108.869 53.9805 108.869 61.2231 119.412 61.2231C129.955 61.2231 129.955 45.2894 140.497 45.2894C151.04 45.2894 151.04 77.1568 161.583 77.1568C172.126 77.1568 172.126 152.48 182.669 152.48C193.212 152.48 193.212 152.48 203.755 152.48C214.298 152.48 214.298 152.48 224.84 152.48C235.383 152.48 235.383 152.48 245.926 152.48C256.469 152.48 256.469 152.48 267.012 152.48C277.555 152.48 277.555 152.48 288.098 152.48C277.555 152.48 277.555 152.48 267.012 152.48C256.469 152.48 256.469 152.48 245.926 152.48C235.383 152.48 235.383 152.48 224.84 152.48C214.298 152.48 214.298 152.48 203.755 152.48C193.212 152.48 193.212 152.48 182.669 152.48C172.126 152.48 172.126 152.48 161.583 152.48C151.04 152.48 151.04 45.2894 140.497 45.2894C129.955 45.2894 129.955 61.2231 119.412 61.2231C108.869 61.2231 108.869 53.9805 98.326 53.9805C87.7831 53.9805 87.7831 49.635 77.2403 49.635C66.6974 49.635 66.6974 61.2231 56.1545 61.2231Z" fill="#EF9120"/>
<path d="M56.1545 61.2231C66.6974 61.2231 66.6974 49.635 77.2403 49.635C87.7831 49.635 87.7831 53.9805 98.326 53.9805C108.869 53.9805 108.869 61.2231 119.412 61.2231C129.955 61.2231 129.955 45.2894 140.497 45.2894C151.04 45.2894 151.04 77.1568 161.583 77.1568C172.126 77.1568 172.126 84.3994 182.669 84.3994C193.212 84.3994 193.212 152.48 203.755 152.48C214.298 152.48 214.298 152.48 224.84 152.48C235.383 152.48 235.383 84.3994 245.926 84.3994C256.469 84.3994 256.469 152.48 267.012 152.48C277.555 152.48 277.555 152.48 288.098 152.48C277.555 152.48 277.555 152.48 267.012 152.48C256.469 152.48 256.469 152.48 245.926 152.48C235.383 152.48 235.383 152.48 224.84 152.48C214.298 152.48 214.298 152.48 203.755 152.48C193.212 152.48 193.212 152.48 182.669 152.48C172.126 152.48 172.126 77.1568 161.583 77.1568C151.04 77.1568 151.04 45.2894 140.497 45.2894C129.955 45.2894 129.955 61.2231 119.412 61.2231C108.869 61.2231 108.869 53.9805 98.326 53.9805C87.7831 53.9805 87.7831 49.635 77.2403 49.635C66.6974 49.635 66.6974 61.2231 56.1545 61.2231Z" fill="#F09C21"/>
<path d="M56.1545 61.2231C66.6974 61.2231 66.6974 49.635 77.2403 49.635C87.7831 49.635 87.7831 53.9805 98.326 53.9805C108.869 53.9805 108.869 61.2231 119.412 61.2231C129.955 61.2231 129.955 45.2894 140.497 45.2894C151.04 45.2894 151.04 77.1568 161.583 77.1568C172.126 77.1568 172.126 84.3994 182.669 84.3994C193.212 84.3994 193.212 93.0905 203.755 93.0905C214.298 93.0905 214.298 152.48 224.84 152.48C235.383 152.48 235.383 84.3994 245.926 84.3994C256.469 84.3994 256.469 152.48 267.012 152.48C277.555 152.48 277.555 152.48 288.098 152.48C277.555 152.48 277.555 152.48 267.012 152.48C256.469 152.48 256.469 84.3994 245.926 84.3994C235.383 84.3994 235.383 152.48 224.84 152.48C214.298 152.48 214.298 152.48 203.755 152.48C193.212 152.48 193.212 84.3994 182.669 84.3994C172.126 84.3994 172.126 77.1568 161.583 77.1568C151.04 77.1568 151.04 45.2894 140.497 45.2894C129.955 45.2894 129.955 61.2231 119.412 61.2231C108.869 61.2231 108.869 53.9805 98.326 53.9805C87.7831 53.9805 87.7831 49.635 77.2403 49.635C66.6974 49.635 66.6974 61.2231 56.1545 61.2231Z" fill="#F2A920"/>
<path d="M56.1545 61.2231C66.6974 61.2231 66.6974 49.635 77.2403 49.635C87.7831 49.635 87.7831 53.9805 98.326 53.9805C108.869 53.9805 108.869 61.2231 119.412 61.2231C129.955 61.2231 129.955 45.2894 140.497 45.2894C151.04 45.2894 151.04 77.1568 161.583 77.1568C172.126 77.1568 172.126 84.3994 182.669 84.3994C193.212 84.3994 193.212 93.0905 203.755 93.0905C214.298 93.0905 214.298 94.539 224.84 94.539C235.383 94.539 235.383 84.3994 245.926 84.3994C256.469 84.3994 256.469 104.679 267.012 104.679C277.555 104.679 277.555 152.48 288.098 152.48C277.555 152.48 277.555 152.48 267.012 152.48C256.469 152.48 256.469 84.3994 245.926 84.3994C235.383 84.3994 235.383 94.539 224.84 94.539C214.298 94.539 214.298 93.0905 203.755 93.0905C193.212 93.0905 193.212 84.3994 182.669 84.3994C172.126 84.3994 172.126 77.1568 161.583 77.1568C151.04 77.1568 151.04 45.2894 140.497 45.2894C129.955 45.2894 129.955 61.2231 119.412 61.2231C108.869 61.2231 108.869 53.9805 98.326 53.9805C87.7831 53.9805 87.7831 49.635 77.2403 49.635C66.6974 49.635 66.6974 61.2231 56.1545 61.2231Z" fill="#F4B720"/>
<path d="M56.1545 61.2231C66.6974 61.2231 66.6974 152.48 77.2403 152.48C87.7831 152.48 87.7831 152.48 98.326 152.48C108.869 152.48 108.869 61.2231 119.412 61.2231C129.955 61.2231 129.955 152.48 140.497 152.48C151.04 152.48 151.04 152.48 161.583 152.48C172.126 152.48 172.126 152.48 182.669 152.48C193.212 152.48 193.212 152.48 203.755 152.48C214.298 152.48 214.298 152.48 224.84 152.48C235.383 152.48 235.383 152.48 245.926 152.48C256.469 152.48 256.469 152.48 267.012 152.48C277.555 152.48 277.555 152.48 288.098 152.48C277.555 152.48 277.555 152.48 267.012 152.48C256.469 152.48 256.469 152.48 245.926 152.48C235.383 152.48 235.383 152.48 224.84 152.48C214.298 152.48 214.298 152.48 203.755 152.48C193.212 152.48 193.212 152.48 182.669 152.48C172.126 152.48 172.126 152.48 161.583 152.48C151.04 152.48 151.04 152.48 140.497 152.48C129.955 152.48 129.955 61.2231 119.412 61.2231C108.869 61.2231 108.869 152.48 98.326 152.48C87.7831 152.48 87.7831 152.48 77.2403 152.48C66.6974 152.48 66.6974 61.2231 56.1545 61.2231Z" fill="#F2A520"/>
<path d="M56.1545 152.479H288.098" stroke="black"/>
<path d="M56.1545 152.479V159.101" stroke="black"/>
<path d="M57.1401 161.939V169.212H56.2594V162.862H56.2168L54.4412 164.041V163.146L56.2594 161.939H57.1401Z" fill="black"/>
<path d="M77.2404 152.479V159.101" stroke="black"/>
<path d="M74.9659 169.212V168.573L77.3665 165.945C77.6482 165.637 77.8802 165.369 78.0625 165.142C78.2448 164.912 78.3797 164.697 78.4673 164.496C78.5573 164.292 78.6023 164.079 78.6023 163.857C78.6023 163.601 78.5407 163.38 78.4176 163.193C78.2969 163.006 78.1312 162.861 77.9205 162.759C77.7098 162.658 77.473 162.607 77.2102 162.607C76.9309 162.607 76.687 162.665 76.4787 162.781C76.2727 162.894 76.1129 163.054 75.9993 163.26C75.888 163.466 75.8324 163.707 75.8324 163.984H74.9943C74.9943 163.558 75.0926 163.184 75.2891 162.862C75.4856 162.54 75.7531 162.289 76.0916 162.109C76.4325 161.93 76.8149 161.84 77.2386 161.84C77.6648 161.84 78.0424 161.93 78.3714 162.109C78.7005 162.289 78.9586 162.532 79.1456 162.837C79.3326 163.143 79.4261 163.483 79.4261 163.857C79.4261 164.124 79.3776 164.386 79.2805 164.641C79.1858 164.895 79.0201 165.178 78.7834 165.49C78.549 165.8 78.2235 166.179 77.8068 166.627L76.1733 168.374V168.43H79.554V169.212H74.9659Z" fill="black"/>
<path d="M98.326 152.479V159.101" stroke="black"/>
<path d="M98.3527 169.311C97.884 169.311 97.4661 169.231 97.0992 169.07C96.7346 168.909 96.4446 168.685 96.2292 168.399C96.0161 168.11 95.9001 167.775 95.8811 167.394H96.776C96.795 167.628 96.8755 167.83 97.0175 168.001C97.1596 168.169 97.3454 168.299 97.575 168.391C97.8047 168.484 98.0592 168.53 98.3385 168.53C98.651 168.53 98.928 168.475 99.1695 168.367C99.411 168.258 99.6004 168.106 99.7377 167.912C99.875 167.718 99.9436 167.493 99.9436 167.237C99.9436 166.97 99.8774 166.734 99.7448 166.531C99.6122 166.325 99.4181 166.164 99.1624 166.048C98.9067 165.932 98.5942 165.874 98.2249 165.874H97.6425V165.092H98.2249C98.5137 165.092 98.767 165.04 98.9848 164.936C99.205 164.832 99.3766 164.685 99.4998 164.496C99.6252 164.306 99.688 164.084 99.688 163.828C99.688 163.582 99.6335 163.368 99.5246 163.185C99.4157 163.003 99.2618 162.861 99.063 162.759C98.8665 162.658 98.6345 162.607 98.3669 162.607C98.116 162.607 97.8793 162.653 97.6567 162.745C97.4365 162.835 97.2566 162.966 97.1169 163.139C96.9773 163.31 96.9015 163.516 96.8897 163.757H96.0374C96.0516 163.376 96.1664 163.042 96.3819 162.756C96.5973 162.467 96.879 162.242 97.227 162.081C97.5774 161.92 97.9621 161.84 98.3811 161.84C98.831 161.84 99.2168 161.931 99.5388 162.113C99.8608 162.293 100.108 162.531 100.281 162.827C100.454 163.123 100.54 163.442 100.54 163.786C100.54 164.195 100.433 164.544 100.217 164.833C100.004 165.122 99.714 165.322 99.3471 165.433V165.49C99.8063 165.566 100.165 165.761 100.423 166.076C100.681 166.389 100.81 166.776 100.81 167.237C100.81 167.633 100.702 167.988 100.487 168.303C100.274 168.615 99.9827 168.861 99.6134 169.041C99.2441 169.221 98.8239 169.311 98.3527 169.311Z" fill="black"/>
<path d="M119.412 152.479V159.101" stroke="black"/>
<path d="M116.786 167.72V166.996L119.982 161.939H120.508V163.061H120.153L117.738 166.882V166.939H122.042V167.72H116.786ZM120.209 169.212V167.5V167.163V161.939H121.048V169.212H120.209Z" fill="black"/>
<path d="M140.498 152.479V159.101" stroke="black"/>
<path d="M140.481 169.311C140.065 169.311 139.689 169.228 139.355 169.063C139.022 168.897 138.754 168.67 138.553 168.381C138.352 168.092 138.242 167.763 138.223 167.394H139.075C139.108 167.723 139.257 167.995 139.522 168.21C139.79 168.423 140.11 168.53 140.481 168.53C140.779 168.53 141.045 168.46 141.277 168.32C141.511 168.181 141.694 167.989 141.827 167.745C141.962 167.499 142.029 167.221 142.029 166.911C142.029 166.593 141.96 166.31 141.82 166.062C141.683 165.811 141.493 165.613 141.252 165.469C141.01 165.324 140.735 165.251 140.424 165.249C140.202 165.246 139.973 165.281 139.739 165.352C139.505 165.42 139.312 165.509 139.16 165.618L138.336 165.519L138.777 161.939H142.555V162.72H139.515L139.26 164.865H139.302C139.451 164.747 139.638 164.649 139.863 164.57C140.088 164.492 140.323 164.453 140.566 164.453C141.011 164.453 141.408 164.56 141.756 164.773C142.106 164.984 142.381 165.272 142.58 165.639C142.781 166.006 142.882 166.425 142.882 166.896C142.882 167.36 142.778 167.775 142.569 168.139C142.363 168.502 142.079 168.788 141.717 168.999C141.355 169.207 140.943 169.311 140.481 169.311Z" fill="black"/>
<path d="M161.583 152.479V159.101" stroke="black"/>
<path d="M161.631 169.311C161.333 169.306 161.034 169.25 160.736 169.141C160.438 169.032 160.165 168.848 159.919 168.59C159.673 168.33 159.475 167.978 159.326 167.536C159.177 167.091 159.102 166.532 159.102 165.859C159.102 165.216 159.163 164.645 159.283 164.148C159.404 163.648 159.579 163.228 159.809 162.887C160.039 162.544 160.316 162.283 160.64 162.106C160.967 161.928 161.335 161.84 161.744 161.84C162.152 161.84 162.514 161.921 162.831 162.085C163.151 162.246 163.411 162.47 163.612 162.759C163.814 163.048 163.944 163.381 164.003 163.757H163.136C163.056 163.43 162.9 163.159 162.668 162.944C162.436 162.729 162.128 162.621 161.744 162.621C161.181 162.621 160.737 162.866 160.413 163.356C160.091 163.846 159.929 164.534 159.926 165.419H159.983C160.116 165.218 160.273 165.046 160.455 164.904C160.64 164.76 160.844 164.649 161.066 164.57C161.289 164.492 161.524 164.453 161.773 164.453C162.19 164.453 162.571 164.557 162.916 164.766C163.262 164.972 163.539 165.257 163.747 165.622C163.956 165.984 164.06 166.399 164.06 166.868C164.06 167.318 163.959 167.73 163.758 168.104C163.557 168.475 163.274 168.771 162.909 168.992C162.547 169.209 162.121 169.316 161.631 169.311ZM161.631 168.53C161.929 168.53 162.197 168.455 162.433 168.306C162.672 168.157 162.861 167.957 162.998 167.706C163.138 167.455 163.208 167.176 163.208 166.868C163.208 166.567 163.14 166.294 163.005 166.048C162.873 165.799 162.689 165.601 162.455 165.455C162.223 165.308 161.958 165.234 161.659 165.234C161.434 165.234 161.225 165.279 161.031 165.369C160.837 165.457 160.666 165.578 160.519 165.732C160.375 165.885 160.261 166.062 160.178 166.261C160.096 166.457 160.054 166.664 160.054 166.882C160.054 167.171 160.122 167.441 160.257 167.692C160.394 167.943 160.581 168.145 160.818 168.299C161.057 168.453 161.328 168.53 161.631 168.53Z" fill="black"/>
<path d="M182.669 152.479V159.101" stroke="black"/>
<path d="M180.793 169.212L184.046 162.777V162.72H180.296V161.939H184.955V162.763L181.716 169.212H180.793Z" fill="black"/>
<path d="M203.755 152.479V159.101" stroke="black"/>
<path d="M203.756 169.311C203.268 169.311 202.838 169.225 202.464 169.052C202.092 168.877 201.802 168.636 201.594 168.331C201.385 168.023 201.282 167.673 201.285 167.28C201.282 166.972 201.343 166.688 201.466 166.428C201.589 166.165 201.757 165.946 201.97 165.771C202.185 165.593 202.426 165.481 202.691 165.433V165.391C202.343 165.301 202.066 165.105 201.86 164.805C201.654 164.502 201.552 164.157 201.554 163.771C201.552 163.402 201.646 163.072 201.835 162.781C202.024 162.489 202.285 162.26 202.616 162.092C202.95 161.924 203.33 161.84 203.756 161.84C204.178 161.84 204.554 161.924 204.885 162.092C205.217 162.26 205.477 162.489 205.667 162.781C205.858 163.072 205.955 163.402 205.958 163.771C205.955 164.157 205.85 164.502 205.642 164.805C205.436 165.105 205.162 165.301 204.821 165.391V165.433C205.084 165.481 205.321 165.593 205.532 165.771C205.742 165.946 205.911 166.165 206.036 166.428C206.161 166.688 206.225 166.972 206.228 167.28C206.225 167.673 206.119 168.023 205.908 168.331C205.7 168.636 205.41 168.877 205.038 169.052C204.669 169.225 204.241 169.311 203.756 169.311ZM203.756 168.53C204.085 168.53 204.369 168.477 204.608 168.37C204.848 168.264 205.032 168.113 205.162 167.919C205.293 167.725 205.359 167.498 205.361 167.237C205.359 166.963 205.288 166.72 205.148 166.509C205.009 166.299 204.818 166.133 204.576 166.012C204.337 165.891 204.064 165.831 203.756 165.831C203.446 165.831 203.169 165.891 202.925 166.012C202.684 166.133 202.493 166.299 202.353 166.509C202.216 166.72 202.149 166.963 202.151 167.237C202.149 167.498 202.211 167.725 202.339 167.919C202.469 168.113 202.655 168.264 202.897 168.37C203.138 168.477 203.425 168.53 203.756 168.53ZM203.756 165.078C204.017 165.078 204.247 165.026 204.449 164.922C204.652 164.818 204.812 164.672 204.928 164.485C205.044 164.298 205.103 164.079 205.106 163.828C205.103 163.582 205.045 163.368 204.932 163.185C204.818 163.001 204.661 162.859 204.459 162.759C204.258 162.658 204.024 162.607 203.756 162.607C203.484 162.607 203.246 162.658 203.042 162.759C202.839 162.859 202.681 163.001 202.57 163.185C202.459 163.368 202.404 163.582 202.407 163.828C202.404 164.079 202.46 164.298 202.574 164.485C202.69 164.672 202.849 164.818 203.053 164.922C203.257 165.026 203.491 165.078 203.756 165.078Z" fill="black"/>
<path d="M224.84 152.479V159.101" stroke="black"/>
<path d="M224.789 161.84C225.087 161.842 225.385 161.899 225.683 162.01C225.982 162.121 226.254 162.306 226.5 162.564C226.746 162.82 226.944 163.169 227.093 163.612C227.242 164.054 227.317 164.609 227.317 165.277C227.317 165.923 227.255 166.497 227.132 166.999C227.012 167.499 226.836 167.92 226.607 168.264C226.379 168.607 226.102 168.867 225.776 169.045C225.451 169.222 225.084 169.311 224.675 169.311C224.268 169.311 223.904 169.231 223.585 169.07C223.268 168.906 223.007 168.68 222.803 168.391C222.602 168.1 222.473 167.763 222.416 167.379H223.283C223.361 167.713 223.516 167.989 223.748 168.207C223.982 168.422 224.291 168.53 224.675 168.53C225.236 168.53 225.679 168.285 226.003 167.795C226.33 167.305 226.493 166.612 226.493 165.717H226.436C226.304 165.916 226.146 166.088 225.964 166.232C225.782 166.377 225.579 166.488 225.357 166.566C225.134 166.644 224.897 166.683 224.647 166.683C224.23 166.683 223.848 166.58 223.5 166.374C223.154 166.166 222.877 165.881 222.669 165.519C222.463 165.154 222.36 164.737 222.36 164.269C222.36 163.823 222.459 163.416 222.658 163.047C222.859 162.675 223.141 162.379 223.503 162.159C223.868 161.939 224.296 161.832 224.789 161.84ZM224.789 162.621C224.49 162.621 224.222 162.695 223.982 162.845C223.746 162.991 223.558 163.19 223.418 163.441C223.281 163.69 223.212 163.966 223.212 164.269C223.212 164.572 223.278 164.847 223.411 165.096C223.546 165.342 223.729 165.539 223.961 165.685C224.196 165.83 224.462 165.902 224.76 165.902C224.985 165.902 225.195 165.858 225.389 165.771C225.583 165.681 225.752 165.559 225.897 165.405C226.043 165.249 226.158 165.072 226.241 164.876C226.324 164.677 226.365 164.47 226.365 164.254C226.365 163.97 226.297 163.704 226.159 163.455C226.024 163.207 225.837 163.006 225.598 162.852C225.361 162.698 225.092 162.621 224.789 162.621Z" fill="black"/>
<path d="M245.926 152.479V159.101" stroke="black"/>
<path d="M243.787 161.939V169.212H242.906V162.862H242.863L241.088 164.041V163.146L242.906 161.939H243.787ZM248.251 169.311C247.715 169.311 247.26 169.166 246.883 168.874C246.507 168.581 246.219 168.156 246.02 167.6C245.822 167.041 245.722 166.366 245.722 165.575C245.722 164.789 245.822 164.118 246.02 163.562C246.222 163.003 246.51 162.577 246.887 162.283C247.266 161.988 247.72 161.84 248.251 161.84C248.781 161.84 249.234 161.988 249.611 162.283C249.989 162.577 250.278 163.003 250.477 163.562C250.678 164.118 250.779 164.789 250.779 165.575C250.779 166.366 250.679 167.041 250.481 167.6C250.282 168.156 249.994 168.581 249.618 168.874C249.241 169.166 248.786 169.311 248.251 169.311ZM248.251 168.53C248.781 168.53 249.193 168.274 249.486 167.763C249.78 167.252 249.927 166.522 249.927 165.575C249.927 164.946 249.859 164.409 249.724 163.967C249.592 163.524 249.4 163.187 249.149 162.955C248.9 162.723 248.601 162.607 248.251 162.607C247.725 162.607 247.314 162.866 247.018 163.384C246.722 163.9 246.574 164.631 246.574 165.575C246.574 166.205 246.641 166.74 246.773 167.18C246.906 167.621 247.096 167.956 247.345 168.185C247.596 168.415 247.898 168.53 248.251 168.53Z" fill="black"/>
<path d="M267.012 152.479V159.101" stroke="black"/>
<path d="M265.673 161.939V169.212H264.793V162.862H264.75L262.974 164.041V163.146L264.793 161.939H265.673ZM270.322 161.939V169.212H269.441V162.862H269.398L267.623 164.041V163.146L269.441 161.939H270.322Z" fill="black"/>
<path d="M288.098 152.479V159.101" stroke="black"/>
<path d="M286.056 161.939V169.212H285.175V162.862H285.132L283.357 164.041V163.146L285.175 161.939H286.056ZM288.147 169.212V168.573L290.548 165.945C290.83 165.637 291.062 165.369 291.244 165.142C291.426 164.912 291.561 164.697 291.649 164.496C291.739 164.292 291.784 164.079 291.784 163.857C291.784 163.601 291.722 163.38 291.599 163.193C291.478 163.006 291.313 162.861 291.102 162.759C290.891 162.658 290.655 162.607 290.392 162.607C290.112 162.607 289.869 162.665 289.66 162.781C289.454 162.894 289.294 163.054 289.181 163.26C289.07 163.466 289.014 163.707 289.014 163.984H288.176C288.176 163.558 288.274 163.184 288.471 162.862C288.667 162.54 288.935 162.289 289.273 162.109C289.614 161.93 289.996 161.84 290.42 161.84C290.846 161.84 291.224 161.93 291.553 162.109C291.882 162.289 292.14 162.532 292.327 162.837C292.514 163.143 292.608 163.483 292.608 163.857C292.608 164.124 292.559 164.386 292.462 164.641C292.367 164.895 292.202 165.178 291.965 165.49C291.73 165.8 291.405 166.179 290.988 166.627L289.355 168.374V168.43H292.735V169.212H288.147Z" fill="black"/>
<path d="M56.1545 152.48V36.5984" stroke="black"/>
<path d="M56.1546 152.48H48.8301" stroke="black"/>
<path d="M42.0428 155.075C41.5078 155.075 41.0521 154.929 40.6756 154.638C40.2992 154.344 40.0116 153.919 39.8127 153.363C39.6139 152.804 39.5144 152.129 39.5144 151.339C39.5144 150.553 39.6139 149.882 39.8127 149.325C40.0139 148.767 40.3028 148.34 40.6792 148.047C41.058 147.751 41.5125 147.603 42.0428 147.603C42.5731 147.603 43.0265 147.751 43.4029 148.047C43.7817 148.34 44.0705 148.767 44.2694 149.325C44.4706 149.882 44.5712 150.553 44.5712 151.339C44.5712 152.129 44.4718 152.804 44.2729 153.363C44.0741 153.919 43.7864 154.344 43.41 154.638C43.0336 154.929 42.5779 155.075 42.0428 155.075ZM42.0428 154.293C42.5731 154.293 42.9851 154.038 43.2786 153.526C43.5722 153.015 43.719 152.286 43.719 151.339C43.719 150.709 43.6515 150.173 43.5166 149.73C43.384 149.287 43.1922 148.95 42.9413 148.718C42.6927 148.486 42.3932 148.37 42.0428 148.37C41.5173 148.37 41.1065 148.629 40.8106 149.148C40.5147 149.664 40.3667 150.394 40.3667 151.339C40.3667 151.968 40.433 152.504 40.5656 152.944C40.6981 153.384 40.8887 153.719 41.1373 153.949C41.3882 154.178 41.6901 154.293 42.0428 154.293Z" fill="black"/>
<path d="M56.1546 109.024H48.8301" stroke="black"/>
<path d="M35.7609 111.619C35.2922 111.619 34.8743 111.539 34.5074 111.378C34.1428 111.217 33.8528 110.993 33.6373 110.706C33.4243 110.418 33.3083 110.083 33.2893 109.701H34.1842C34.2032 109.936 34.2836 110.138 34.4257 110.309C34.5677 110.477 34.7536 110.607 34.9832 110.699C35.2129 110.792 35.4674 110.838 35.7467 110.838C36.0592 110.838 36.3362 110.783 36.5777 110.674C36.8192 110.566 37.0086 110.414 37.1459 110.22C37.2832 110.026 37.3518 109.801 37.3518 109.545C37.3518 109.278 37.2855 109.042 37.153 108.838C37.0204 108.633 36.8263 108.472 36.5706 108.356C36.3149 108.24 36.0024 108.182 35.6331 108.182H35.0507V107.4H35.6331C35.9219 107.4 36.1752 107.348 36.393 107.244C36.6132 107.14 36.7848 106.993 36.9079 106.804C37.0334 106.614 37.0961 106.392 37.0961 106.136C37.0961 105.89 37.0417 105.676 36.9328 105.493C36.8239 105.311 36.67 105.169 36.4711 105.067C36.2747 104.965 36.0426 104.914 35.7751 104.914C35.5242 104.914 35.2874 104.961 35.0649 105.053C34.8447 105.143 34.6648 105.274 34.5251 105.447C34.3854 105.618 34.3097 105.824 34.2979 106.065H33.4456C33.4598 105.684 33.5746 105.35 33.79 105.064C34.0055 104.775 34.2872 104.55 34.6352 104.389C34.9856 104.228 35.3703 104.147 35.7893 104.147C36.2391 104.147 36.625 104.239 36.947 104.421C37.269 104.601 37.5164 104.839 37.6892 105.135C37.862 105.431 37.9484 105.75 37.9484 106.093C37.9484 106.503 37.8407 106.852 37.6253 107.141C37.4122 107.43 37.1222 107.63 36.7552 107.741V107.798C37.2145 107.874 37.5732 108.069 37.8312 108.384C38.0893 108.696 38.2183 109.084 38.2183 109.545C38.2183 109.941 38.1106 110.296 37.8952 110.611C37.6821 110.923 37.3909 111.169 37.0216 111.349C36.6523 111.529 36.232 111.619 35.7609 111.619ZM42.0429 111.619C41.5078 111.619 41.0521 111.473 40.6757 111.182C40.2993 110.889 40.0116 110.464 39.8128 109.907C39.6139 109.349 39.5145 108.674 39.5145 107.883C39.5145 107.097 39.6139 106.426 39.8128 105.87C40.014 105.311 40.3028 104.885 40.6792 104.591C41.058 104.295 41.5126 104.147 42.0429 104.147C42.5732 104.147 43.0265 104.295 43.403 104.591C43.7818 104.885 44.0706 105.311 44.2694 105.87C44.4707 106.426 44.5713 107.097 44.5713 107.883C44.5713 108.674 44.4719 109.349 44.273 109.907C44.0741 110.464 43.7865 110.889 43.4101 111.182C43.0336 111.473 42.5779 111.619 42.0429 111.619ZM42.0429 110.838C42.5732 110.838 42.9851 110.582 43.2787 110.071C43.5722 109.559 43.719 108.83 43.719 107.883C43.719 107.253 43.6515 106.717 43.5166 106.275C43.384 105.832 43.1923 105.494 42.9413 105.262C42.6927 105.03 42.3933 104.914 42.0429 104.914C41.5173 104.914 41.1066 105.174 40.8106 105.692C40.5147 106.208 40.3667 106.939 40.3667 107.883C40.3667 108.513 40.433 109.048 40.5656 109.488C40.6982 109.929 40.8888 110.264 41.1373 110.493C41.3883 110.723 41.6901 110.838 42.0429 110.838Z" fill="black"/>
<path d="M56.1546 94.5391H48.8301" stroke="black"/>
<path d="M33.0843 95.5428V94.8184L36.2803 89.7616H36.8058V90.8837H36.4507L34.036 94.7048V94.7616H38.3399V95.5428H33.0843ZM36.5075 97.0343V95.3227V94.9853V89.7616H37.3456V97.0343H36.5075ZM42.0429 97.1337C41.5078 97.1337 41.0521 96.9881 40.6757 96.6969C40.2993 96.4034 40.0116 95.9784 39.8128 95.4221C39.6139 94.8634 39.5145 94.1887 39.5145 93.3979C39.5145 92.612 39.6139 91.9408 39.8128 91.3844C40.014 90.8257 40.3028 90.3996 40.6792 90.106C41.058 89.8101 41.5126 89.6621 42.0429 89.6621C42.5732 89.6621 43.0265 89.8101 43.403 90.106C43.7818 90.3996 44.0706 90.8257 44.2694 91.3844C44.4707 91.9408 44.5713 92.612 44.5713 93.3979C44.5713 94.1887 44.4719 94.8634 44.273 95.4221C44.0741 95.9784 43.7865 96.4034 43.4101 96.6969C43.0336 96.9881 42.5779 97.1337 42.0429 97.1337ZM42.0429 96.3525C42.5732 96.3525 42.9851 96.0968 43.2787 95.5854C43.5722 95.0741 43.719 94.3449 43.719 93.3979C43.719 92.7682 43.6515 92.232 43.5166 91.7893C43.384 91.3466 43.1923 91.0092 42.9413 90.7772C42.6927 90.5452 42.3933 90.4292 42.0429 90.4292C41.5173 90.4292 41.1066 90.6884 40.8106 91.2069C40.5147 91.723 40.3667 92.4533 40.3667 93.3979C40.3667 94.0277 40.433 94.5627 40.5656 95.0031C40.6982 95.4434 40.8888 95.7784 41.1373 96.008C41.3883 96.2377 41.6901 96.3525 42.0429 96.3525Z" fill="black"/>
<path d="M56.1546 80.0539H48.8301" stroke="black"/>
<path d="M35.8595 82.6487C35.4428 82.6487 35.0676 82.5658 34.7338 82.4001C34.3999 82.2344 34.1324 82.0071 33.9312 81.7183C33.73 81.4295 33.6199 81.1004 33.6009 80.7311H34.4532C34.4864 81.0601 34.6355 81.3324 34.9007 81.5478C35.1682 81.7609 35.4878 81.8674 35.8595 81.8674C36.1578 81.8674 36.4229 81.7976 36.6549 81.6579C36.8893 81.5182 37.0728 81.3265 37.2053 81.0826C37.3403 80.8364 37.4078 80.5583 37.4078 80.2481C37.4078 79.9309 37.3379 79.648 37.1982 79.3994C37.0609 79.1485 36.8715 78.9508 36.6301 78.8064C36.3886 78.6619 36.1128 78.5886 35.8026 78.5862C35.5801 78.5838 35.3517 78.6181 35.1173 78.6892C34.8829 78.7578 34.69 78.8466 34.5384 78.9555L33.7146 78.8561L34.1549 75.2765H37.9333V76.0578H34.8936L34.6379 78.2027H34.6805C34.8296 78.0843 35.0167 77.986 35.2416 77.9079C35.4665 77.8298 35.7008 77.7907 35.9447 77.7907C36.3898 77.7907 36.7863 77.8973 37.1343 78.1103C37.4847 78.321 37.7593 78.6099 37.9582 78.9768C38.1594 79.3438 38.26 79.7628 38.26 80.2339C38.26 80.6979 38.1559 81.1122 37.9475 81.4768C37.7416 81.839 37.4575 82.1255 37.0953 82.3362C36.733 82.5445 36.3211 82.6487 35.8595 82.6487ZM42.0429 82.6487C41.5078 82.6487 41.0521 82.5031 40.6757 82.2119C40.2993 81.9183 40.0116 81.4934 39.8128 80.937C39.6139 80.3783 39.5145 79.7036 39.5145 78.9129C39.5145 78.1269 39.6139 77.4557 39.8128 76.8994C40.014 76.3407 40.3028 75.9145 40.6792 75.621C41.058 75.3251 41.5126 75.1771 42.0429 75.1771C42.5732 75.1771 43.0265 75.3251 43.403 75.621C43.7818 75.9145 44.0706 76.3407 44.2694 76.8994C44.4707 77.4557 44.5713 78.1269 44.5713 78.9129C44.5713 79.7036 44.4719 80.3783 44.273 80.937C44.0741 81.4934 43.7865 81.9183 43.4101 82.2119C43.0336 82.5031 42.5779 82.6487 42.0429 82.6487ZM42.0429 81.8674C42.5732 81.8674 42.9851 81.6118 43.2787 81.1004C43.5722 80.589 43.719 79.8599 43.719 78.9129C43.719 78.2832 43.6515 77.7469 43.5166 77.3042C43.384 76.8615 43.1923 76.5242 42.9413 76.2922C42.6927 76.0601 42.3933 75.9441 42.0429 75.9441C41.5173 75.9441 41.1066 76.2034 40.8106 76.7218C40.5147 77.2379 40.3667 77.9683 40.3667 78.9129C40.3667 79.5426 40.433 80.0777 40.5656 80.518C40.6982 80.9583 40.8888 81.2933 41.1373 81.523C41.3883 81.7526 41.6901 81.8674 42.0429 81.8674Z" fill="black"/>
<path d="M56.1546 65.5688H48.8301" stroke="black"/>
<path d="M35.8453 68.1635C35.547 68.1588 35.2487 68.102 34.9504 67.9931C34.6521 67.8842 34.3798 67.7007 34.1336 67.4426C33.8874 67.1822 33.6897 66.8307 33.5406 66.388C33.3914 65.9429 33.3169 65.3842 33.3169 64.7118C33.3169 64.0679 33.3772 63.4973 33.498 63.0002C33.6187 62.5006 33.7939 62.0804 34.0235 61.7395C34.2532 61.3962 34.5302 61.1358 34.8545 60.9583C35.1812 60.7807 35.5493 60.6919 35.9589 60.6919C36.3661 60.6919 36.7283 60.7736 37.0455 60.937C37.3651 61.0979 37.6256 61.3228 37.8268 61.6117C38.028 61.9005 38.1582 62.2331 38.2174 62.6095H37.3509C37.2705 62.2828 37.1142 62.0118 36.8822 61.7963C36.6502 61.5809 36.3424 61.4732 35.9589 61.4732C35.3955 61.4732 34.9516 61.7182 34.6272 62.2083C34.3053 62.6983 34.1431 63.3861 34.1407 64.2715H34.1975C34.3301 64.0702 34.4875 63.8986 34.6698 63.7566C34.8545 63.6121 35.0581 63.5009 35.2806 63.4228C35.5032 63.3446 35.7387 63.3056 35.9873 63.3056C36.404 63.3056 36.7851 63.4097 37.1308 63.6181C37.4764 63.824 37.7534 64.1093 37.9617 64.4739C38.1701 64.8361 38.2742 65.2516 38.2742 65.7203C38.2742 66.1701 38.1736 66.5821 37.9724 66.9561C37.7712 67.3278 37.4883 67.6237 37.1237 67.8439C36.7615 68.0617 36.3353 68.1683 35.8453 68.1635ZM35.8453 67.3823C36.1436 67.3823 36.4111 67.3077 36.6478 67.1585C36.8869 67.0094 37.0751 66.8094 37.2124 66.5584C37.3521 66.3075 37.422 66.0281 37.422 65.7203C37.422 65.4197 37.3545 65.1462 37.2196 64.9C37.087 64.6514 36.9035 64.4538 36.6691 64.307C36.4371 64.1602 36.172 64.0868 35.8737 64.0868C35.6488 64.0868 35.4392 64.1318 35.2451 64.2218C35.051 64.3094 34.8805 64.4301 34.7338 64.584C34.5893 64.7379 34.4757 64.9142 34.3928 65.1131C34.31 65.3096 34.2686 65.5167 34.2686 65.7345C34.2686 66.0234 34.336 66.2933 34.471 66.5442C34.6083 66.7951 34.7953 66.9976 35.0321 67.1514C35.2712 67.3053 35.5422 67.3823 35.8453 67.3823ZM42.0429 68.1635C41.5078 68.1635 41.0521 68.0179 40.6757 67.7267C40.2993 67.4332 40.0116 67.0082 39.8128 66.4519C39.6139 65.8932 39.5145 65.2184 39.5145 64.4277C39.5145 63.6417 39.6139 62.9706 39.8128 62.4142C40.014 61.8555 40.3028 61.4294 40.6792 61.1358C41.058 60.8399 41.5126 60.6919 42.0429 60.6919C42.5732 60.6919 43.0265 60.8399 43.403 61.1358C43.7818 61.4294 44.0706 61.8555 44.2694 62.4142C44.4707 62.9706 44.5713 63.6417 44.5713 64.4277C44.5713 65.2184 44.4719 65.8932 44.273 66.4519C44.0741 67.0082 43.7865 67.4332 43.4101 67.7267C43.0336 68.0179 42.5779 68.1635 42.0429 68.1635ZM42.0429 67.3823C42.5732 67.3823 42.9851 67.1266 43.2787 66.6152C43.5722 66.1039 43.719 65.3747 43.719 64.4277C43.719 63.798 43.6515 63.2618 43.5166 62.8191C43.384 62.3763 43.1923 62.039 42.9413 61.807C42.6927 61.575 42.3933 61.459 42.0429 61.459C41.5173 61.459 41.1066 61.7182 40.8106 62.2367C40.5147 62.7528 40.3667 63.4831 40.3667 64.4277C40.3667 65.0575 40.433 65.5925 40.5656 66.0328C40.6982 66.4732 40.8888 66.8082 41.1373 67.0378C41.3883 67.2674 41.6901 67.3823 42.0429 67.3823Z" fill="black"/>
<path d="M56.1546 51.0836H48.8301" stroke="black"/>
<path d="M34.3413 53.5789L37.5941 47.1442V47.0874H33.8441V46.3061H38.5032V47.13L35.2646 53.5789H34.3413ZM42.0428 53.6783C41.5078 53.6783 41.0521 53.5327 40.6756 53.2415C40.2992 52.9479 40.0116 52.523 39.8127 51.9666C39.6139 51.4079 39.5144 50.7332 39.5144 49.9425C39.5144 49.1565 39.6139 48.4853 39.8127 47.929C40.0139 47.3703 40.3028 46.9442 40.6792 46.6506C41.058 46.3547 41.5125 46.2067 42.0428 46.2067C42.5731 46.2067 43.0265 46.3547 43.4029 46.6506C43.7817 46.9442 44.0705 47.3703 44.2694 47.929C44.4706 48.4853 44.5712 49.1565 44.5712 49.9425C44.5712 50.7332 44.4718 51.4079 44.2729 51.9666C44.0741 52.523 43.7864 52.9479 43.41 53.2415C43.0336 53.5327 42.5779 53.6783 42.0428 53.6783ZM42.0428 52.897C42.5731 52.897 42.9851 52.6414 43.2786 52.13C43.5722 51.6186 43.719 50.8895 43.719 49.9425C43.719 49.3128 43.6515 48.7765 43.5166 48.3338C43.384 47.8911 43.1922 47.5538 42.9413 47.3218C42.6927 47.0897 42.3932 46.9737 42.0428 46.9737C41.5173 46.9737 41.1065 47.233 40.8106 47.7514C40.5147 48.2675 40.3667 48.9979 40.3667 49.9425C40.3667 50.5722 40.433 51.1073 40.5656 51.5476C40.6981 51.9879 40.8887 52.3229 41.1373 52.5526C41.3882 52.7822 41.6901 52.897 42.0428 52.897Z" fill="black"/>
<path d="M56.1546 36.5984H48.8301" stroke="black"/>
<path d="M35.8382 39.1932C35.3505 39.1932 34.9196 39.1068 34.5455 38.9339C34.1739 38.7588 33.8839 38.5185 33.6755 38.2131C33.4672 37.9053 33.3642 37.5549 33.3666 37.1619C33.3642 36.8542 33.4246 36.5701 33.5477 36.3097C33.6708 36.0469 33.8389 35.8279 34.0519 35.6527C34.2674 35.4751 34.5077 35.3627 34.7728 35.3153V35.2727C34.4248 35.1828 34.1478 34.9875 33.9419 34.6868C33.7359 34.3838 33.6341 34.0393 33.6365 33.6534C33.6341 33.2841 33.7276 32.9538 33.917 32.6626C34.1064 32.3714 34.3668 32.1418 34.6982 31.9737C35.0321 31.8056 35.412 31.7216 35.8382 31.7216C36.2596 31.7216 36.636 31.8056 36.9674 31.9737C37.2989 32.1418 37.5593 32.3714 37.7487 32.6626C37.9404 32.9538 38.0375 33.2841 38.0399 33.6534C38.0375 34.0393 37.9321 34.3838 37.7238 34.6868C37.5178 34.9875 37.2444 35.1828 36.9035 35.2727V35.3153C37.1663 35.3627 37.403 35.4751 37.6137 35.6527C37.8244 35.8279 37.9925 36.0469 38.118 36.3097C38.2435 36.5701 38.3074 36.8542 38.3098 37.1619C38.3074 37.5549 38.2008 37.9053 37.9901 38.2131C37.7818 38.5185 37.4918 38.7588 37.1201 38.9339C36.7508 39.1068 36.3235 39.1932 35.8382 39.1932ZM35.8382 38.4119C36.1672 38.4119 36.4513 38.3587 36.6904 38.2521C36.9295 38.1456 37.1142 37.9953 37.2444 37.8011C37.3746 37.607 37.4409 37.3797 37.4433 37.1193C37.4409 36.8447 37.3699 36.602 37.2302 36.3913C37.0905 36.1806 36.8999 36.0149 36.6585 35.8942C36.4194 35.7734 36.1459 35.7131 35.8382 35.7131C35.528 35.7131 35.251 35.7734 35.0072 35.8942C34.7657 36.0149 34.5751 36.1806 34.4355 36.3913C34.2981 36.602 34.2307 36.8447 34.233 37.1193C34.2307 37.3797 34.2934 37.607 34.4213 37.8011C34.5515 37.9953 34.7373 38.1456 34.9788 38.2521C35.2203 38.3587 35.5067 38.4119 35.8382 38.4119ZM35.8382 34.9602C36.0986 34.9602 36.3294 34.9081 36.5306 34.804C36.7342 34.6998 36.894 34.5542 37.01 34.3672C37.126 34.1802 37.1852 33.9612 37.1876 33.7102C37.1852 33.464 37.1272 33.2498 37.0136 33.0675C36.8999 32.8828 36.7425 32.7408 36.5413 32.6413C36.3401 32.5395 36.1057 32.4886 35.8382 32.4886C35.5659 32.4886 35.328 32.5395 35.1244 32.6413C34.9208 32.7408 34.7633 32.8828 34.6521 33.0675C34.5408 33.2498 34.4864 33.464 34.4887 33.7102C34.4864 33.9612 34.542 34.1802 34.6556 34.3672C34.7716 34.5542 34.9314 34.6998 35.135 34.804C35.3386 34.9081 35.573 34.9602 35.8382 34.9602ZM42.0429 39.1932C41.5078 39.1932 41.0521 39.0476 40.6757 38.7564C40.2993 38.4628 40.0116 38.0379 39.8128 37.4815C39.6139 36.9228 39.5145 36.2481 39.5145 35.4574C39.5145 34.6714 39.6139 34.0002 39.8128 33.4439C40.014 32.8852 40.3028 32.459 40.6792 32.1655C41.058 31.8696 41.5126 31.7216 42.0429 31.7216C42.5732 31.7216 43.0265 31.8696 43.403 32.1655C43.7818 32.459 44.0706 32.8852 44.2694 33.4439C44.4707 34.0002 44.5713 34.6714 44.5713 35.4574C44.5713 36.2481 44.4719 36.9228 44.273 37.4815C44.0741 38.0379 43.7865 38.4628 43.4101 38.7564C43.0336 39.0476 42.5779 39.1932 42.0429 39.1932ZM42.0429 38.4119C42.5732 38.4119 42.9851 38.1562 43.2787 37.6449C43.5722 37.1335 43.719 36.4044 43.719 35.4574C43.719 34.8277 43.6515 34.2914 43.5166 33.8487C43.384 33.406 43.1923 33.0687 42.9413 32.8366C42.6927 32.6046 42.3933 32.4886 42.0429 32.4886C41.5173 32.4886 41.1066 32.7479 40.8106 33.2663C40.5147 33.7824 40.3667 34.5128 40.3667 35.4574C40.3667 36.0871 40.433 36.6222 40.5656 37.0625C40.6982 37.5028 40.8888 37.8378 41.1373 38.0675C41.3883 38.2971 41.6901 38.4119 42.0429 38.4119Z" fill="black"/>
<path d="M6.04102 10.165V11.1787H0.363281C0.355469 10.9248 0.396484 10.6807 0.486328 10.4463C0.630859 10.0596 0.861328 9.67871 1.17773 9.30371C1.49805 8.92871 1.95898 8.49512 2.56055 8.00293C3.49414 7.2373 4.125 6.63184 4.45312 6.18652C4.78125 5.7373 4.94531 5.31348 4.94531 4.91504C4.94531 4.49707 4.79492 4.14551 4.49414 3.86035C4.19727 3.57129 3.80859 3.42676 3.32812 3.42676C2.82031 3.42676 2.41406 3.5791 2.10938 3.88379C1.80469 4.18848 1.65039 4.61035 1.64648 5.14941L0.5625 5.03809C0.636719 4.22949 0.916016 3.61426 1.40039 3.19238C1.88477 2.7666 2.53516 2.55371 3.35156 2.55371C4.17578 2.55371 4.82812 2.78223 5.30859 3.23926C5.78906 3.69629 6.0293 4.2627 6.0293 4.93848C6.0293 5.28223 5.95898 5.62012 5.81836 5.95215C5.67773 6.28418 5.44336 6.63379 5.11523 7.00098C4.79102 7.36816 4.25 7.87207 3.49219 8.5127C2.85938 9.04395 2.45312 9.40527 2.27344 9.59668C2.09375 9.78418 1.94531 9.97363 1.82812 10.165H6.04102ZM7.17773 6.94238C7.17773 5.92676 7.28125 5.11035 7.48828 4.49316C7.69922 3.87207 8.00977 3.39355 8.41992 3.05762C8.83398 2.72168 9.35352 2.55371 9.97852 2.55371C10.4395 2.55371 10.8438 2.64746 11.1914 2.83496C11.5391 3.01855 11.8262 3.28613 12.0527 3.6377C12.2793 3.98535 12.457 4.41113 12.5859 4.91504C12.7148 5.41504 12.7793 6.09082 12.7793 6.94238C12.7793 7.9502 12.6758 8.76465 12.4688 9.38574C12.2617 10.0029 11.9512 10.4814 11.5371 10.8213C11.127 11.1572 10.6074 11.3252 9.97852 11.3252C9.15039 11.3252 8.5 11.0283 8.02734 10.4346C7.46094 9.71973 7.17773 8.55566 7.17773 6.94238ZM8.26172 6.94238C8.26172 8.35254 8.42578 9.29199 8.75391 9.76074C9.08594 10.2256 9.49414 10.458 9.97852 10.458C10.4629 10.458 10.8691 10.2236 11.1973 9.75488C11.5293 9.28613 11.6953 8.34863 11.6953 6.94238C11.6953 5.52832 11.5293 4.58887 11.1973 4.12402C10.8691 3.65918 10.459 3.42676 9.9668 3.42676C9.48242 3.42676 9.0957 3.63184 8.80664 4.04199C8.44336 4.56543 8.26172 5.53223 8.26172 6.94238ZM19.4004 10.165V11.1787H13.7227C13.7148 10.9248 13.7559 10.6807 13.8457 10.4463C13.9902 10.0596 14.2207 9.67871 14.5371 9.30371C14.8574 8.92871 15.3184 8.49512 15.9199 8.00293C16.8535 7.2373 17.4844 6.63184 17.8125 6.18652C18.1406 5.7373 18.3047 5.31348 18.3047 4.91504C18.3047 4.49707 18.1543 4.14551 17.8535 3.86035C17.5566 3.57129 17.168 3.42676 16.6875 3.42676C16.1797 3.42676 15.7734 3.5791 15.4688 3.88379C15.1641 4.18848 15.0098 4.61035 15.0059 5.14941L13.9219 5.03809C13.9961 4.22949 14.2754 3.61426 14.7598 3.19238C15.2441 2.7666 15.8945 2.55371 16.7109 2.55371C17.5352 2.55371 18.1875 2.78223 18.668 3.23926C19.1484 3.69629 19.3887 4.2627 19.3887 4.93848C19.3887 5.28223 19.3184 5.62012 19.1777 5.95215C19.0371 6.28418 18.8027 6.63379 18.4746 7.00098C18.1504 7.36816 17.6094 7.87207 16.8516 8.5127C16.2188 9.04395 15.8125 9.40527 15.6328 9.59668C15.4531 9.78418 15.3047 9.97363 15.1875 10.165H19.4004ZM24.5098 11.1787H23.4551V4.45801C23.2012 4.7002 22.8672 4.94238 22.4531 5.18457C22.043 5.42676 21.6738 5.6084 21.3457 5.72949V4.70996C21.9355 4.43262 22.4512 4.09668 22.8926 3.70215C23.334 3.30762 23.6465 2.9248 23.8301 2.55371H24.5098V11.1787Z" fill="black"/>
</svg>
