<svg width="295" height="173" viewBox="0 0 295 173" fill="none" xmlns="http://www.w3.org/2000/svg">
<path d="M56.1547 41.5701C66.6975 41.5701 66.6975 51.8706 77.2404 51.8706C87.7833 51.8706 87.7833 51.8706 98.3261 51.8706V152.301C87.7833 152.301 87.7833 152.301 77.2404 152.301C66.6975 152.301 66.6975 41.5701 56.1547 41.5701Z" fill="#F3AC20"/>
<path d="M56.1547 41.5701C66.6975 41.5701 66.6975 152.301 77.2404 152.301C87.7833 152.301 87.7833 152.301 98.3261 152.301C87.7833 152.301 87.7833 152.301 77.2404 152.301C66.6975 152.301 66.6975 152.301 56.1547 152.301V41.5701Z" fill="#F2A520"/>
<path d="M56.1546 152.301H288.098" stroke="black"/>
<path d="M56.1546 152.301V158.923" stroke="black"/>
<path d="M57.14 161.76V169.033H56.2594V162.684H56.2167L54.4412 163.863V162.968L56.2594 161.76H57.14Z" fill="black"/>
<path d="M77.2404 152.301V158.923" stroke="black"/>
<path d="M74.9658 169.033V168.394L77.3664 165.766C77.6481 165.458 77.8801 165.191 78.0624 164.964C78.2447 164.734 78.3797 164.519 78.4673 164.317C78.5572 164.114 78.6022 163.901 78.6022 163.678C78.6022 163.422 78.5407 163.201 78.4175 163.014C78.2968 162.827 78.1311 162.683 77.9204 162.581C77.7097 162.479 77.4729 162.428 77.2102 162.428C76.9308 162.428 76.687 162.486 76.4786 162.602C76.2727 162.716 76.1129 162.876 75.9992 163.081C75.888 163.287 75.8323 163.529 75.8323 163.806H74.9943C74.9943 163.38 75.0925 163.006 75.289 162.684C75.4855 162.362 75.753 162.111 76.0916 161.931C76.4325 161.751 76.8148 161.661 77.2386 161.661C77.6647 161.661 78.0423 161.751 78.3714 161.931C78.7005 162.111 78.9585 162.354 79.1455 162.659C79.3326 162.964 79.4261 163.304 79.4261 163.678C79.4261 163.946 79.3775 164.207 79.2805 164.463C79.1858 164.716 79.0201 164.999 78.7833 165.312C78.5489 165.622 78.2234 166.001 77.8068 166.448L76.1732 168.195V168.252H79.5539V169.033H74.9658Z" fill="black"/>
<path d="M98.3261 152.301V158.923" stroke="black"/>
<path d="M98.3527 169.133C97.884 169.133 97.4661 169.052 97.0992 168.891C96.7346 168.73 96.4446 168.506 96.2292 168.22C96.0161 167.931 95.9001 167.596 95.8811 167.215H96.776C96.795 167.449 96.8755 167.652 97.0175 167.822C97.1596 167.99 97.3454 168.121 97.575 168.213C97.8047 168.305 98.0592 168.351 98.3385 168.351C98.651 168.351 98.928 168.297 99.1695 168.188C99.411 168.079 99.6004 167.928 99.7377 167.733C99.875 167.539 99.9436 167.314 99.9436 167.059C99.9436 166.791 99.8774 166.556 99.7448 166.352C99.6122 166.146 99.4181 165.985 99.1624 165.869C98.9067 165.753 98.5942 165.695 98.2249 165.695H97.6425V164.914H98.2249C98.5137 164.914 98.767 164.862 98.9848 164.758C99.205 164.653 99.3766 164.507 99.4998 164.317C99.6252 164.128 99.688 163.905 99.688 163.65C99.688 163.403 99.6335 163.189 99.5246 163.007C99.4157 162.825 99.2618 162.683 99.063 162.581C98.8665 162.479 98.6345 162.428 98.3669 162.428C98.116 162.428 97.8793 162.474 97.6567 162.567C97.4365 162.657 97.2566 162.788 97.1169 162.961C96.9773 163.131 96.9015 163.337 96.8897 163.579H96.0374C96.0516 163.198 96.1664 162.864 96.3819 162.577C96.5973 162.288 96.879 162.064 97.227 161.903C97.5774 161.742 97.9621 161.661 98.3811 161.661C98.831 161.661 99.2168 161.752 99.5388 161.934C99.8608 162.114 100.108 162.352 100.281 162.648C100.454 162.944 100.54 163.264 100.54 163.607C100.54 164.017 100.433 164.366 100.217 164.655C100.004 164.943 99.714 165.144 99.3471 165.255V165.312C99.8063 165.387 100.165 165.583 100.423 165.898C100.681 166.21 100.81 166.597 100.81 167.059C100.81 167.454 100.702 167.809 100.487 168.124C100.274 168.437 99.9827 168.683 99.6134 168.863C99.2441 169.043 98.8239 169.133 98.3527 169.133Z" fill="black"/>
<path d="M119.412 152.301V158.923" stroke="black"/>
<path d="M116.786 167.542V166.817L119.982 161.76H120.508V162.883H120.153L117.738 166.704V166.76H122.042V167.542H116.786ZM120.209 169.033V167.322V166.984V161.76H121.048V169.033H120.209Z" fill="black"/>
<path d="M140.498 152.301V158.923" stroke="black"/>
<path d="M140.481 169.133C140.064 169.133 139.689 169.05 139.355 168.884C139.022 168.718 138.754 168.491 138.553 168.202C138.352 167.913 138.241 167.584 138.223 167.215H139.075C139.108 167.544 139.257 167.816 139.522 168.032C139.79 168.245 140.109 168.351 140.481 168.351C140.779 168.351 141.045 168.282 141.277 168.142C141.511 168.002 141.694 167.81 141.827 167.567C141.962 167.32 142.029 167.042 142.029 166.732C142.029 166.415 141.96 166.132 141.82 165.883C141.683 165.632 141.493 165.435 141.252 165.29C141.01 165.146 140.734 165.073 140.424 165.07C140.202 165.068 139.973 165.102 139.739 165.173C139.505 165.242 139.312 165.331 139.16 165.439L138.336 165.34L138.777 161.76H142.555V162.542H139.515L139.259 164.687H139.302C139.451 164.568 139.638 164.47 139.863 164.392C140.088 164.314 140.322 164.275 140.566 164.275C141.011 164.275 141.408 164.381 141.756 164.594C142.106 164.805 142.381 165.094 142.58 165.461C142.781 165.828 142.882 166.247 142.882 166.718C142.882 167.182 142.777 167.596 142.569 167.961C142.363 168.323 142.079 168.609 141.717 168.82C141.355 169.028 140.943 169.133 140.481 169.133Z" fill="black"/>
<path d="M161.583 152.301V158.923" stroke="black"/>
<path d="M161.631 169.133C161.333 169.128 161.034 169.071 160.736 168.962C160.438 168.853 160.165 168.67 159.919 168.412C159.673 168.151 159.475 167.8 159.326 167.357C159.177 166.912 159.102 166.353 159.102 165.681C159.102 165.037 159.163 164.466 159.283 163.969C159.404 163.47 159.579 163.05 159.809 162.709C160.039 162.365 160.316 162.105 160.64 161.927C160.967 161.75 161.335 161.661 161.744 161.661C162.152 161.661 162.514 161.743 162.831 161.906C163.151 162.067 163.411 162.292 163.612 162.581C163.814 162.87 163.944 163.202 164.003 163.579H163.136C163.056 163.252 162.9 162.981 162.668 162.765C162.436 162.55 162.128 162.442 161.744 162.442C161.181 162.442 160.737 162.687 160.413 163.177C160.091 163.667 159.929 164.355 159.926 165.241H159.983C160.116 165.039 160.273 164.868 160.455 164.726C160.64 164.581 160.844 164.47 161.066 164.392C161.289 164.314 161.524 164.275 161.773 164.275C162.19 164.275 162.571 164.379 162.916 164.587C163.262 164.793 163.539 165.078 163.747 165.443C163.956 165.805 164.06 166.221 164.06 166.689C164.06 167.139 163.959 167.551 163.758 167.925C163.557 168.297 163.274 168.593 162.909 168.813C162.547 169.031 162.121 169.137 161.631 169.133ZM161.631 168.351C161.929 168.351 162.197 168.277 162.433 168.128C162.672 167.979 162.861 167.778 162.998 167.528C163.138 167.277 163.208 166.997 163.208 166.689C163.208 166.389 163.14 166.115 163.005 165.869C162.873 165.621 162.689 165.423 162.455 165.276C162.223 165.129 161.958 165.056 161.659 165.056C161.434 165.056 161.225 165.101 161.031 165.191C160.837 165.278 160.666 165.399 160.519 165.553C160.375 165.707 160.261 165.883 160.178 166.082C160.096 166.279 160.054 166.486 160.054 166.704C160.054 166.992 160.122 167.262 160.257 167.513C160.394 167.764 160.581 167.967 160.818 168.121C161.057 168.274 161.328 168.351 161.631 168.351Z" fill="black"/>
<path d="M182.669 152.301V158.923" stroke="black"/>
<path d="M180.793 169.033L184.045 162.599V162.542H180.295V161.76H184.955V162.584L181.716 169.033H180.793Z" fill="black"/>
<path d="M203.755 152.301V158.923" stroke="black"/>
<path d="M203.756 169.133C203.268 169.133 202.837 169.046 202.463 168.873C202.092 168.698 201.802 168.458 201.593 168.153C201.385 167.845 201.282 167.494 201.284 167.101C201.282 166.794 201.342 166.51 201.466 166.249C201.589 165.986 201.757 165.767 201.97 165.592C202.185 165.415 202.426 165.302 202.691 165.255V165.212C202.343 165.122 202.066 164.927 201.86 164.626C201.654 164.323 201.552 163.979 201.554 163.593C201.552 163.224 201.645 162.893 201.835 162.602C202.024 162.311 202.285 162.081 202.616 161.913C202.95 161.745 203.33 161.661 203.756 161.661C204.177 161.661 204.554 161.745 204.885 161.913C205.217 162.081 205.477 162.311 205.667 162.602C205.858 162.893 205.955 163.224 205.958 163.593C205.955 163.979 205.85 164.323 205.642 164.626C205.436 164.927 205.162 165.122 204.821 165.212V165.255C205.084 165.302 205.321 165.415 205.532 165.592C205.742 165.767 205.91 165.986 206.036 166.249C206.161 166.51 206.225 166.794 206.228 167.101C206.225 167.494 206.119 167.845 205.908 168.153C205.7 168.458 205.41 168.698 205.038 168.873C204.669 169.046 204.241 169.133 203.756 169.133ZM203.756 168.351C204.085 168.351 204.369 168.298 204.608 168.192C204.847 168.085 205.032 167.935 205.162 167.741C205.292 167.546 205.359 167.319 205.361 167.059C205.359 166.784 205.288 166.541 205.148 166.331C205.008 166.12 204.818 165.954 204.576 165.834C204.337 165.713 204.064 165.653 203.756 165.653C203.446 165.653 203.169 165.713 202.925 165.834C202.684 165.954 202.493 166.12 202.353 166.331C202.216 166.541 202.149 166.784 202.151 167.059C202.149 167.319 202.211 167.546 202.339 167.741C202.469 167.935 202.655 168.085 202.897 168.192C203.138 168.298 203.425 168.351 203.756 168.351ZM203.756 164.9C204.016 164.9 204.247 164.848 204.448 164.743C204.652 164.639 204.812 164.494 204.928 164.307C205.044 164.12 205.103 163.901 205.105 163.65C205.103 163.403 205.045 163.189 204.931 163.007C204.818 162.822 204.66 162.68 204.459 162.581C204.258 162.479 204.024 162.428 203.756 162.428C203.484 162.428 203.246 162.479 203.042 162.581C202.839 162.68 202.681 162.822 202.57 163.007C202.459 163.189 202.404 163.403 202.407 163.65C202.404 163.901 202.46 164.12 202.573 164.307C202.689 164.494 202.849 164.639 203.053 164.743C203.256 164.848 203.491 164.9 203.756 164.9Z" fill="black"/>
<path d="M224.84 152.301V158.923" stroke="black"/>
<path d="M224.788 161.661C225.087 161.663 225.385 161.72 225.683 161.831C225.982 161.943 226.254 162.127 226.5 162.385C226.746 162.641 226.944 162.99 227.093 163.433C227.242 163.876 227.317 164.431 227.317 165.099C227.317 165.745 227.255 166.319 227.132 166.821C227.011 167.32 226.836 167.742 226.607 168.085C226.379 168.428 226.102 168.689 225.776 168.866C225.451 169.044 225.084 169.133 224.675 169.133C224.268 169.133 223.904 169.052 223.585 168.891C223.267 168.728 223.007 168.502 222.803 168.213C222.602 167.922 222.473 167.584 222.416 167.201H223.283C223.361 167.535 223.516 167.81 223.748 168.028C223.982 168.244 224.291 168.351 224.675 168.351C225.236 168.351 225.679 168.106 226.003 167.616C226.33 167.126 226.493 166.434 226.493 165.539H226.436C226.304 165.738 226.146 165.909 225.964 166.054C225.782 166.198 225.579 166.309 225.357 166.388C225.134 166.466 224.897 166.505 224.646 166.505C224.23 166.505 223.847 166.402 223.499 166.196C223.154 165.988 222.877 165.702 222.668 165.34C222.462 164.975 222.359 164.559 222.359 164.09C222.359 163.645 222.459 163.238 222.658 162.868C222.859 162.497 223.141 162.201 223.503 161.981C223.868 161.76 224.296 161.654 224.788 161.661ZM224.788 162.442C224.49 162.442 224.221 162.517 223.982 162.666C223.746 162.813 223.557 163.012 223.418 163.263C223.28 163.511 223.212 163.787 223.212 164.09C223.212 164.393 223.278 164.669 223.411 164.917C223.546 165.164 223.729 165.36 223.961 165.507C224.195 165.651 224.462 165.724 224.76 165.724C224.985 165.724 225.194 165.68 225.389 165.592C225.583 165.502 225.752 165.38 225.896 165.226C226.043 165.07 226.158 164.894 226.241 164.697C226.324 164.498 226.365 164.291 226.365 164.076C226.365 163.792 226.296 163.525 226.159 163.277C226.024 163.028 225.837 162.827 225.598 162.673C225.361 162.519 225.091 162.442 224.788 162.442Z" fill="black"/>
<path d="M245.926 152.301V158.923" stroke="black"/>
<path d="M243.787 161.76V169.033H242.906V162.684H242.863L241.088 163.863V162.968L242.906 161.76H243.787ZM248.25 169.133C247.715 169.133 247.26 168.987 246.883 168.696C246.507 168.402 246.219 167.977 246.02 167.421C245.821 166.862 245.722 166.188 245.722 165.397C245.722 164.611 245.821 163.94 246.02 163.383C246.222 162.825 246.51 162.398 246.887 162.105C247.266 161.809 247.72 161.661 248.25 161.661C248.781 161.661 249.234 161.809 249.61 162.105C249.989 162.398 250.278 162.825 250.477 163.383C250.678 163.94 250.779 164.611 250.779 165.397C250.779 166.188 250.679 166.862 250.481 167.421C250.282 167.977 249.994 168.402 249.618 168.696C249.241 168.987 248.785 169.133 248.25 169.133ZM248.25 168.351C248.781 168.351 249.193 168.096 249.486 167.584C249.78 167.073 249.927 166.344 249.927 165.397C249.927 164.767 249.859 164.231 249.724 163.788C249.592 163.345 249.4 163.008 249.149 162.776C248.9 162.544 248.601 162.428 248.25 162.428C247.725 162.428 247.314 162.687 247.018 163.206C246.722 163.722 246.574 164.452 246.574 165.397C246.574 166.027 246.641 166.562 246.773 167.002C246.906 167.442 247.096 167.777 247.345 168.007C247.596 168.237 247.898 168.351 248.25 168.351Z" fill="black"/>
<path d="M267.012 152.301V158.923" stroke="black"/>
<path d="M265.673 161.76V169.033H264.793V162.684H264.75L262.974 163.863V162.968L264.793 161.76H265.673ZM270.322 161.76V169.033H269.441V162.684H269.398L267.623 163.863V162.968L269.441 161.76H270.322Z" fill="black"/>
<path d="M288.098 152.301V158.923" stroke="black"/>
<path d="M286.056 161.76V169.033H285.175V162.684H285.132L283.357 163.863V162.968L285.175 161.76H286.056ZM288.147 169.033V168.394L290.548 165.766C290.83 165.458 291.062 165.191 291.244 164.964C291.426 164.734 291.561 164.519 291.649 164.317C291.739 164.114 291.784 163.901 291.784 163.678C291.784 163.422 291.722 163.201 291.599 163.014C291.478 162.827 291.313 162.683 291.102 162.581C290.891 162.479 290.655 162.428 290.392 162.428C290.112 162.428 289.869 162.486 289.66 162.602C289.454 162.716 289.294 162.876 289.181 163.081C289.07 163.287 289.014 163.529 289.014 163.806H288.176C288.176 163.38 288.274 163.006 288.471 162.684C288.667 162.362 288.935 162.111 289.273 161.931C289.614 161.751 289.996 161.661 290.42 161.661C290.846 161.661 291.224 161.751 291.553 161.931C291.882 162.111 292.14 162.354 292.327 162.659C292.514 162.964 292.608 163.304 292.608 163.678C292.608 163.946 292.559 164.207 292.462 164.463C292.367 164.716 292.202 164.999 291.965 165.312C291.73 165.622 291.405 166.001 290.988 166.448L289.355 168.195V168.252H292.735V169.033H288.147Z" fill="black"/>
<path d="M56.1547 152.301V36.4198" stroke="black"/>
<path d="M56.1547 152.301H48.8301" stroke="black"/>
<path d="M42.0429 154.896C41.5079 154.896 41.0521 154.75 40.6757 154.459C40.2993 154.165 40.0116 153.741 39.8128 153.184C39.6139 152.625 39.5145 151.951 39.5145 151.16C39.5145 150.374 39.6139 149.703 39.8128 149.147C40.014 148.588 40.3028 148.162 40.6793 147.868C41.058 147.572 41.5126 147.424 42.0429 147.424C42.5732 147.424 43.0266 147.572 43.403 147.868C43.7818 148.162 44.0706 148.588 44.2695 149.147C44.4707 149.703 44.5713 150.374 44.5713 151.16C44.5713 151.951 44.4719 152.625 44.273 153.184C44.0741 153.741 43.7865 154.165 43.4101 154.459C43.0337 154.75 42.5779 154.896 42.0429 154.896ZM42.0429 154.115C42.5732 154.115 42.9851 153.859 43.2787 153.348C43.5722 152.836 43.719 152.107 43.719 151.16C43.719 150.53 43.6516 149.994 43.5166 149.551C43.384 149.109 43.1923 148.771 42.9413 148.539C42.6927 148.307 42.3933 148.191 42.0429 148.191C41.5173 148.191 41.1066 148.451 40.8106 148.969C40.5147 149.485 40.3668 150.215 40.3668 151.16C40.3668 151.79 40.433 152.325 40.5656 152.765C40.6982 153.205 40.8888 153.54 41.1373 153.77C41.3883 154 41.6901 154.115 42.0429 154.115Z" fill="black"/>
<path d="M56.1547 139.425H48.8301" stroke="black"/>
<path d="M42.1095 142.02C41.6928 142.02 41.3176 141.937 40.9838 141.772C40.65 141.606 40.3824 141.379 40.1812 141.09C39.98 140.801 39.8699 140.472 39.851 140.102H40.7032C40.7364 140.432 40.8855 140.704 41.1507 140.919C41.4182 141.132 41.7378 141.239 42.1095 141.239C42.4078 141.239 42.6729 141.169 42.9049 141.029C43.1393 140.89 43.3228 140.698 43.4554 140.454C43.5903 140.208 43.6578 139.93 43.6578 139.62C43.6578 139.302 43.5879 139.019 43.4483 138.771C43.3109 138.52 43.1215 138.322 42.8801 138.178C42.6386 138.033 42.3628 137.96 42.0527 137.958C41.8301 137.955 41.6017 137.99 41.3673 138.061C41.1329 138.129 40.94 138.218 40.7885 138.327L39.9646 138.227L40.4049 134.648H44.1833V135.429H41.1436L40.8879 137.574H40.9305C41.0796 137.456 41.2667 137.357 41.4916 137.279C41.7165 137.201 41.9509 137.162 42.1947 137.162C42.6398 137.162 43.0363 137.269 43.3843 137.482C43.7347 137.692 44.0093 137.981 44.2082 138.348C44.4094 138.715 44.51 139.134 44.51 139.605C44.51 140.069 44.4059 140.484 44.1975 140.848C43.9916 141.21 43.7075 141.497 43.3453 141.708C42.9831 141.916 42.5711 142.02 42.1095 142.02Z" fill="black"/>
<path d="M56.1547 126.55H48.8301" stroke="black"/>
<path d="M37.5791 121.772V129.045H36.6984V122.695H36.6558L34.8802 123.874V122.979L36.6984 121.772H37.5791ZM42.0428 129.144C41.5078 129.144 41.0521 128.999 40.6757 128.707C40.2992 128.414 40.0116 127.989 39.8127 127.433C39.6139 126.874 39.5144 126.199 39.5144 125.408C39.5144 124.622 39.6139 123.951 39.8127 123.395C40.014 122.836 40.3028 122.41 40.6792 122.117C41.058 121.821 41.5125 121.673 42.0428 121.673C42.5731 121.673 43.0265 121.821 43.4029 122.117C43.7817 122.41 44.0705 122.836 44.2694 123.395C44.4706 123.951 44.5713 124.622 44.5713 125.408C44.5713 126.199 44.4718 126.874 44.273 127.433C44.0741 127.989 43.7865 128.414 43.41 128.707C43.0336 128.999 42.5779 129.144 42.0428 129.144ZM42.0428 128.363C42.5731 128.363 42.9851 128.107 43.2786 127.596C43.5722 127.085 43.719 126.355 43.719 125.408C43.719 124.779 43.6515 124.242 43.5166 123.8C43.384 123.357 43.1922 123.02 42.9413 122.788C42.6927 122.556 42.3932 122.44 42.0428 122.44C41.5173 122.44 41.1065 122.699 40.8106 123.217C40.5147 123.733 40.3667 124.464 40.3667 125.408C40.3667 126.038 40.433 126.573 40.5656 127.014C40.6981 127.454 40.8887 127.789 41.1373 128.019C41.3883 128.248 41.6901 128.363 42.0428 128.363Z" fill="black"/>
<path d="M56.1547 113.674H48.8301" stroke="black"/>
<path d="M37.7451 108.897V116.169H36.8644V109.82H36.8218L35.0462 110.999V110.104L36.8644 108.897H37.7451ZM42.1094 116.269C41.6928 116.269 41.3175 116.186 40.9837 116.02C40.6499 115.854 40.3824 115.627 40.1812 115.338C39.9799 115.05 39.8698 114.72 39.8509 114.351H40.7032C40.7363 114.68 40.8855 114.952 41.1506 115.168C41.4181 115.381 41.7377 115.487 42.1094 115.487C42.4077 115.487 42.6729 115.418 42.9049 115.278C43.1393 115.138 43.3227 114.947 43.4553 114.703C43.5903 114.456 43.6577 114.178 43.6577 113.868C43.6577 113.551 43.5879 113.268 43.4482 113.019C43.3109 112.769 43.1215 112.571 42.88 112.426C42.6385 112.282 42.3627 112.209 42.0526 112.206C41.8301 112.204 41.6016 112.238 41.3672 112.309C41.1329 112.378 40.9399 112.467 40.7884 112.576L39.9645 112.476L40.4049 108.897H44.1833V109.678H41.1435L40.8878 111.823H40.9305C41.0796 111.704 41.2666 111.606 41.4915 111.528C41.7164 111.45 41.9508 111.411 42.1947 111.411C42.6397 111.411 43.0363 111.517 43.3843 111.73C43.7347 111.941 44.0093 112.23 44.2081 112.597C44.4094 112.964 44.51 113.383 44.51 113.854C44.51 114.318 44.4058 114.732 44.1975 115.097C43.9915 115.459 43.7074 115.746 43.3452 115.956C42.983 116.165 42.5711 116.269 42.1094 116.269Z" fill="black"/>
<path d="M56.1547 100.798H48.8301" stroke="black"/>
<path d="M33.616 103.294V102.654L36.0166 100.027C36.2983 99.7188 36.5303 99.4512 36.7126 99.224C36.8949 98.9943 37.0299 98.7789 37.1175 98.5777C37.2074 98.3741 37.2524 98.161 37.2524 97.9385C37.2524 97.6828 37.1908 97.4614 37.0677 97.2744C36.947 97.0874 36.7813 96.943 36.5706 96.8412C36.3599 96.7394 36.1231 96.6885 35.8604 96.6885C35.581 96.6885 35.3372 96.7465 35.1288 96.8625C34.9229 96.9761 34.7631 97.1359 34.6494 97.3419C34.5381 97.5478 34.4825 97.7893 34.4825 98.0663H33.6444C33.6444 97.6402 33.7427 97.2661 33.9392 96.9441C34.1357 96.6222 34.4032 96.3712 34.7417 96.1913C35.0827 96.0114 35.465 95.9214 35.8888 95.9214C36.3149 95.9214 36.6925 96.0114 37.0216 96.1913C37.3506 96.3712 37.6087 96.6139 37.7957 96.9193C37.9827 97.2247 38.0763 97.5644 38.0763 97.9385C38.0763 98.206 38.0277 98.4676 37.9307 98.7233C37.836 98.9766 37.6702 99.2595 37.4335 99.572C37.1991 99.8821 36.8736 100.261 36.4569 100.708L34.8234 102.456V102.512H38.2041V103.294H33.616ZM42.0429 103.393C41.5078 103.393 41.0521 103.247 40.6757 102.956C40.2993 102.663 40.0116 102.238 39.8128 101.681C39.6139 101.123 39.5145 100.448 39.5145 99.6572C39.5145 98.8712 39.6139 98.2001 39.8128 97.6437C40.014 97.085 40.3028 96.6589 40.6792 96.3653C41.058 96.0694 41.5126 95.9214 42.0429 95.9214C42.5732 95.9214 43.0265 96.0694 43.403 96.3653C43.7818 96.6589 44.0706 97.085 44.2694 97.6437C44.4707 98.2001 44.5713 98.8712 44.5713 99.6572C44.5713 100.448 44.4719 101.123 44.273 101.681C44.0741 102.238 43.7865 102.663 43.4101 102.956C43.0336 103.247 42.5779 103.393 42.0429 103.393ZM42.0429 102.612C42.5732 102.612 42.9851 102.356 43.2787 101.845C43.5722 101.333 43.719 100.604 43.719 99.6572C43.719 99.0275 43.6515 98.4913 43.5166 98.0486C43.384 97.6058 43.1923 97.2685 42.9413 97.0365C42.6927 96.8045 42.3933 96.6885 42.0429 96.6885C41.5173 96.6885 41.1066 96.9477 40.8106 97.4662C40.5147 97.9823 40.3667 98.7126 40.3667 99.6572C40.3667 100.287 40.433 100.822 40.5656 101.262C40.6982 101.703 40.8888 102.038 41.1373 102.267C41.3883 102.497 41.6901 102.612 42.0429 102.612Z" fill="black"/>
<path d="M56.1547 87.9224H48.8301" stroke="black"/>
<path d="M33.7821 90.418V89.7788L36.1826 87.151C36.4643 86.8432 36.6964 86.5757 36.8786 86.3484C37.0609 86.1188 37.1959 85.9034 37.2835 85.7021C37.3734 85.4985 37.4184 85.2855 37.4184 85.0629C37.4184 84.8072 37.3569 84.5859 37.2338 84.3989C37.113 84.2118 36.9473 84.0674 36.7366 83.9656C36.5259 83.8638 36.2892 83.8129 36.0264 83.8129C35.747 83.8129 35.5032 83.8709 35.2948 83.9869C35.0889 84.1006 34.9291 84.2604 34.8154 84.4663C34.7042 84.6723 34.6485 84.9138 34.6485 85.1908H33.8105C33.8105 84.7646 33.9087 84.3906 34.1052 84.0686C34.3017 83.7466 34.5692 83.4957 34.9078 83.3158C35.2487 83.1358 35.631 83.0459 36.0548 83.0459C36.4809 83.0459 36.8585 83.1358 37.1876 83.3158C37.5167 83.4957 37.7747 83.7383 37.9617 84.0437C38.1488 84.3491 38.2423 84.6889 38.2423 85.0629C38.2423 85.3304 38.1937 85.592 38.0967 85.8477C38.002 86.101 37.8363 86.3839 37.5995 86.6964C37.3651 87.0066 37.0396 87.3854 36.623 87.8328L34.9894 89.58V89.6368H38.3701V90.418H33.7821ZM42.1095 90.5175C41.6928 90.5175 41.3176 90.4346 40.9838 90.2689C40.6499 90.1032 40.3824 89.8759 40.1812 89.5871C39.98 89.2982 39.8699 88.9692 39.8509 88.5998H40.7032C40.7364 88.9289 40.8855 89.2012 41.1507 89.4166C41.4182 89.6297 41.7378 89.7362 42.1095 89.7362C42.4078 89.7362 42.6729 89.6664 42.9049 89.5267C43.1393 89.387 43.3228 89.1953 43.4553 88.9514C43.5903 88.7052 43.6578 88.427 43.6578 88.1169C43.6578 87.7997 43.5879 87.5168 43.4482 87.2682C43.3109 87.0172 43.1215 86.8195 42.8801 86.6751C42.6386 86.5307 42.3628 86.4573 42.0526 86.455C41.8301 86.4526 41.6017 86.4869 41.3673 86.5579C41.1329 86.6266 40.94 86.7154 40.7884 86.8243L39.9646 86.7248L40.4049 83.1453H44.1833V83.9266H41.1436L40.8879 86.0714H40.9305C41.0796 85.9531 41.2667 85.8548 41.4916 85.7767C41.7165 85.6986 41.9508 85.6595 42.1947 85.6595C42.6398 85.6595 43.0363 85.766 43.3843 85.9791C43.7347 86.1898 44.0093 86.4786 44.2082 86.8456C44.4094 87.2125 44.51 87.6316 44.51 88.1027C44.51 88.5667 44.4059 88.981 44.1975 89.3456C43.9916 89.7078 43.7075 89.9943 43.3453 90.205C42.983 90.4133 42.5711 90.5175 42.1095 90.5175Z" fill="black"/>
<path d="M56.1547 75.0469H48.8301" stroke="black"/>
<path d="M35.7609 77.6415C35.2922 77.6415 34.8743 77.5611 34.5074 77.4001C34.1428 77.2391 33.8528 77.0154 33.6373 76.7289C33.4243 76.4401 33.3083 76.1051 33.2893 75.7239H34.1842C34.2032 75.9583 34.2836 76.1607 34.4257 76.3312C34.5677 76.4993 34.7536 76.6295 34.9832 76.7218C35.2129 76.8141 35.4674 76.8603 35.7467 76.8603C36.0592 76.8603 36.3362 76.8058 36.5777 76.6969C36.8192 76.588 37.0086 76.4365 37.1459 76.2424C37.2832 76.0483 37.3518 75.8234 37.3518 75.5677C37.3518 75.3002 37.2855 75.0646 37.153 74.861C37.0204 74.655 36.8263 74.4941 36.5706 74.3781C36.3149 74.262 36.0024 74.204 35.6331 74.204H35.0507V73.4228H35.6331C35.9219 73.4228 36.1752 73.3707 36.393 73.2665C36.6132 73.1624 36.7848 73.0156 36.9079 72.8262C37.0334 72.6368 37.0961 72.4143 37.0961 72.1586C37.0961 71.9124 37.0417 71.6981 36.9328 71.5158C36.8239 71.3335 36.67 71.1915 36.4711 71.0897C36.2747 70.9879 36.0426 70.937 35.7751 70.937C35.5242 70.937 35.2874 70.9832 35.0649 71.0755C34.8447 71.1655 34.6648 71.2968 34.5251 71.4697C34.3854 71.6401 34.3097 71.8461 34.2979 72.0876H33.4456C33.4598 71.7064 33.5746 71.3726 33.79 71.0861C34.0055 70.7973 34.2872 70.5724 34.6352 70.4114C34.9856 70.2504 35.3703 70.17 35.7893 70.17C36.2391 70.17 36.625 70.2611 36.947 70.4434C37.269 70.6233 37.5164 70.8612 37.6892 71.1572C37.862 71.4531 37.9484 71.7727 37.9484 72.116C37.9484 72.5255 37.8407 72.8747 37.6253 73.1636C37.4122 73.4524 37.1222 73.6524 36.7552 73.7637V73.8205C37.2145 73.8963 37.5732 74.0916 37.8312 74.4065C38.0893 74.719 38.2183 75.106 38.2183 75.5677C38.2183 75.963 38.1106 76.3182 37.8952 76.633C37.6821 76.9455 37.3909 77.1917 37.0216 77.3717C36.6523 77.5516 36.232 77.6415 35.7609 77.6415ZM42.0429 77.6415C41.5078 77.6415 41.0521 77.4959 40.6757 77.2048C40.2993 76.9112 40.0116 76.4862 39.8128 75.9299C39.6139 75.3712 39.5145 74.6965 39.5145 73.9058C39.5145 73.1198 39.6139 72.4486 39.8128 71.8923C40.014 71.3335 40.3028 70.9074 40.6792 70.6138C41.058 70.3179 41.5126 70.17 42.0429 70.17C42.5732 70.17 43.0265 70.3179 43.403 70.6138C43.7818 70.9074 44.0706 71.3335 44.2694 71.8923C44.4707 72.4486 44.5713 73.1198 44.5713 73.9058C44.5713 74.6965 44.4719 75.3712 44.273 75.9299C44.0741 76.4862 43.7865 76.9112 43.4101 77.2048C43.0336 77.4959 42.5779 77.6415 42.0429 77.6415ZM42.0429 76.8603C42.5732 76.8603 42.9851 76.6046 43.2787 76.0933C43.5722 75.5819 43.719 74.8527 43.719 73.9058C43.719 73.276 43.6515 72.7398 43.5166 72.2971C43.384 71.8544 43.1923 71.517 42.9413 71.285C42.6927 71.053 42.3933 70.937 42.0429 70.937C41.5173 70.937 41.1066 71.1962 40.8106 71.7147C40.5147 72.2308 40.3667 72.9611 40.3667 73.9058C40.3667 74.5355 40.433 75.0705 40.5656 75.5109C40.6982 75.9512 40.8888 76.2862 41.1373 76.5158C41.3883 76.7455 41.6901 76.8603 42.0429 76.8603Z" fill="black"/>
<path d="M56.1547 62.1712H48.8301" stroke="black"/>
<path d="M35.9269 64.766C35.4582 64.766 35.0403 64.6855 34.6734 64.5245C34.3088 64.3635 34.0188 64.1398 33.8034 63.8534C33.5903 63.5645 33.4743 63.2295 33.4553 62.8484H34.3502C34.3692 63.0828 34.4497 63.2852 34.5917 63.4556C34.7338 63.6237 34.9196 63.7539 35.1492 63.8463C35.3789 63.9386 35.6334 63.9847 35.9127 63.9847C36.2252 63.9847 36.5022 63.9303 36.7437 63.8214C36.9852 63.7125 37.1746 63.561 37.3119 63.3668C37.4492 63.1727 37.5178 62.9478 37.5178 62.6921C37.5178 62.4246 37.4516 62.1891 37.319 61.9855C37.1864 61.7795 36.9923 61.6185 36.7366 61.5025C36.4809 61.3865 36.1684 61.3285 35.7991 61.3285H35.2167V60.5472H35.7991C36.0879 60.5472 36.3412 60.4952 36.559 60.391C36.7792 60.2868 36.9508 60.14 37.074 59.9507C37.1994 59.7613 37.2622 59.5387 37.2622 59.283C37.2622 59.0368 37.2077 58.8226 37.0988 58.6403C36.9899 58.458 36.836 58.3159 36.6372 58.2141C36.4407 58.1124 36.2087 58.0615 35.9411 58.0615C35.6902 58.0615 35.4535 58.1076 35.2309 58.1999C35.0107 58.2899 34.8308 58.4213 34.6911 58.5941C34.5515 58.7646 34.4757 58.9705 34.4639 59.212H33.6116C33.6258 58.8309 33.7406 58.4971 33.9561 58.2106C34.1715 57.9218 34.4532 57.6969 34.8012 57.5359C35.1516 57.3749 35.5363 57.2944 35.9553 57.2944C36.4052 57.2944 36.791 57.3856 37.113 57.5678C37.435 57.7478 37.6824 57.9857 37.8552 58.2816C38.028 58.5775 38.1144 58.8972 38.1144 59.2404C38.1144 59.65 38.0067 59.9992 37.7913 60.288C37.5782 60.5768 37.2882 60.7769 36.9213 60.8882V60.945C37.3805 61.0207 37.7392 61.216 37.9973 61.5309C38.2553 61.8434 38.3843 62.2305 38.3843 62.6921C38.3843 63.0875 38.2766 63.4426 38.0612 63.7575C37.8481 64.07 37.5569 64.3162 37.1876 64.4961C36.8183 64.676 36.3981 64.766 35.9269 64.766ZM42.1095 64.766C41.6928 64.766 41.3176 64.6831 40.9838 64.5174C40.6499 64.3517 40.3824 64.1244 40.1812 63.8356C39.98 63.5468 39.8699 63.2177 39.8509 62.8484H40.7032C40.7364 63.1775 40.8855 63.4497 41.1507 63.6651C41.4182 63.8782 41.7378 63.9847 42.1095 63.9847C42.4078 63.9847 42.6729 63.9149 42.9049 63.7752C43.1393 63.6356 43.3228 63.4438 43.4553 63.1999C43.5903 62.9537 43.6578 62.6756 43.6578 62.3654C43.6578 62.0482 43.5879 61.7653 43.4482 61.5167C43.3109 61.2658 43.1215 61.0681 42.8801 60.9237C42.6386 60.7793 42.3628 60.7059 42.0526 60.7035C41.8301 60.7011 41.6017 60.7355 41.3673 60.8065C41.1329 60.8751 40.94 60.9639 40.7884 61.0728L39.9646 60.9734L40.4049 57.3938H44.1833V58.1751H41.1436L40.8879 60.32H40.9305C41.0796 60.2016 41.2667 60.1034 41.4916 60.0252C41.7165 59.9471 41.9508 59.908 42.1947 59.908C42.6398 59.908 43.0363 60.0146 43.3843 60.2276C43.7347 60.4383 44.0093 60.7272 44.2082 61.0941C44.4094 61.4611 44.51 61.8801 44.51 62.3512C44.51 62.8152 44.4059 63.2295 44.1975 63.5941C43.9916 63.9563 43.7075 64.2428 43.3453 64.4535C42.983 64.6618 42.5711 64.766 42.1095 64.766Z" fill="black"/>
<path d="M56.1547 49.2958H48.8301" stroke="black"/>
<path d="M33.0843 50.2994V49.575L36.2803 44.5182H36.8058V45.6403H36.4507L34.036 49.4613V49.5182H38.3399V50.2994H33.0843ZM36.5075 51.7909V50.0792V49.7419V44.5182H37.3456V51.7909H36.5075ZM42.0429 51.8903C41.5078 51.8903 41.0521 51.7447 40.6757 51.4535C40.2993 51.16 40.0116 50.735 39.8128 50.1787C39.6139 49.62 39.5145 48.9452 39.5145 48.1545C39.5145 47.3685 39.6139 46.6974 39.8128 46.141C40.014 45.5823 40.3028 45.1562 40.6792 44.8626C41.058 44.5667 41.5126 44.4187 42.0429 44.4187C42.5732 44.4187 43.0265 44.5667 43.403 44.8626C43.7818 45.1562 44.0706 45.5823 44.2694 46.141C44.4707 46.6974 44.5713 47.3685 44.5713 48.1545C44.5713 48.9452 44.4719 49.62 44.273 50.1787C44.0741 50.735 43.7865 51.16 43.4101 51.4535C43.0336 51.7447 42.5779 51.8903 42.0429 51.8903ZM42.0429 51.1091C42.5732 51.1091 42.9851 50.8534 43.2787 50.342C43.5722 49.8307 43.719 49.1015 43.719 48.1545C43.719 47.5248 43.6515 46.9886 43.5166 46.5459C43.384 46.1032 43.1923 45.7658 42.9413 45.5338C42.6927 45.3018 42.3933 45.1858 42.0429 45.1858C41.5173 45.1858 41.1066 45.445 40.8106 45.9635C40.5147 46.4796 40.3667 47.2099 40.3667 48.1545C40.3667 48.7843 40.433 49.3193 40.5656 49.7596C40.6982 50.2 40.8888 50.535 41.1373 50.7646C41.3883 50.9943 41.6901 51.1091 42.0429 51.1091Z" fill="black"/>
<path d="M56.1547 36.4198H48.8301" stroke="black"/>
<path d="M33.2503 37.4237V36.6993L36.4463 31.6424H36.9719V32.7646H36.6167L34.202 36.5856V36.6424H38.506V37.4237H33.2503ZM36.6736 38.9152V37.2035V36.8662V31.6424H37.5116V38.9152H36.6736ZM42.1095 39.0146C41.6928 39.0146 41.3176 38.9317 40.9838 38.766C40.6499 38.6003 40.3824 38.373 40.1812 38.0842C39.98 37.7954 39.8699 37.4663 39.8509 37.097H40.7032C40.7364 37.4261 40.8855 37.6983 41.1507 37.9137C41.4182 38.1268 41.7378 38.2333 42.1095 38.2333C42.4078 38.2333 42.6729 38.1635 42.9049 38.0238C43.1393 37.8841 43.3228 37.6924 43.4553 37.4485C43.5903 37.2023 43.6578 36.9242 43.6578 36.614C43.6578 36.2968 43.5879 36.0139 43.4482 35.7653C43.3109 35.5144 43.1215 35.3167 42.8801 35.1723C42.6386 35.0279 42.3628 34.9545 42.0526 34.9521C41.8301 34.9497 41.6017 34.9841 41.3673 35.0551C41.1329 35.1237 40.94 35.2125 40.7884 35.3214L39.9646 35.222L40.4049 31.6424H44.1833V32.4237H41.1436L40.8879 34.5686H40.9305C41.0796 34.4502 41.2667 34.352 41.4916 34.2738C41.7165 34.1957 41.9508 34.1566 42.1947 34.1566C42.6398 34.1566 43.0363 34.2632 43.3843 34.4762C43.7347 34.6869 44.0093 34.9758 44.2082 35.3427C44.4094 35.7097 44.51 36.1287 44.51 36.5998C44.51 37.0638 44.4059 37.4781 44.1975 37.8427C43.9916 38.2049 43.7075 38.4914 43.3453 38.7021C42.983 38.9104 42.5711 39.0146 42.1095 39.0146Z" fill="black"/>
<path d="M6.04102 9.98633V11H0.363281C0.355469 10.7461 0.396484 10.502 0.486328 10.2676C0.630859 9.88086 0.861328 9.5 1.17773 9.125C1.49805 8.75 1.95898 8.31641 2.56055 7.82422C3.49414 7.05859 4.125 6.45312 4.45312 6.00781C4.78125 5.55859 4.94531 5.13477 4.94531 4.73633C4.94531 4.31836 4.79492 3.9668 4.49414 3.68164C4.19727 3.39258 3.80859 3.24805 3.32812 3.24805C2.82031 3.24805 2.41406 3.40039 2.10938 3.70508C1.80469 4.00977 1.65039 4.43164 1.64648 4.9707L0.5625 4.85938C0.636719 4.05078 0.916016 3.43555 1.40039 3.01367C1.88477 2.58789 2.53516 2.375 3.35156 2.375C4.17578 2.375 4.82812 2.60352 5.30859 3.06055C5.78906 3.51758 6.0293 4.08398 6.0293 4.75977C6.0293 5.10352 5.95898 5.44141 5.81836 5.77344C5.67773 6.10547 5.44336 6.45508 5.11523 6.82227C4.79102 7.18945 4.25 7.69336 3.49219 8.33398C2.85938 8.86523 2.45312 9.22656 2.27344 9.41797C2.09375 9.60547 1.94531 9.79492 1.82812 9.98633H6.04102ZM7.17773 6.76367C7.17773 5.74805 7.28125 4.93164 7.48828 4.31445C7.69922 3.69336 8.00977 3.21484 8.41992 2.87891C8.83398 2.54297 9.35352 2.375 9.97852 2.375C10.4395 2.375 10.8438 2.46875 11.1914 2.65625C11.5391 2.83984 11.8262 3.10742 12.0527 3.45898C12.2793 3.80664 12.457 4.23242 12.5859 4.73633C12.7148 5.23633 12.7793 5.91211 12.7793 6.76367C12.7793 7.77148 12.6758 8.58594 12.4688 9.20703C12.2617 9.82422 11.9512 10.3027 11.5371 10.6426C11.127 10.9785 10.6074 11.1465 9.97852 11.1465C9.15039 11.1465 8.5 10.8496 8.02734 10.2559C7.46094 9.54102 7.17773 8.37695 7.17773 6.76367ZM8.26172 6.76367C8.26172 8.17383 8.42578 9.11328 8.75391 9.58203C9.08594 10.0469 9.49414 10.2793 9.97852 10.2793C10.4629 10.2793 10.8691 10.0449 11.1973 9.57617C11.5293 9.10742 11.6953 8.16992 11.6953 6.76367C11.6953 5.34961 11.5293 4.41016 11.1973 3.94531C10.8691 3.48047 10.459 3.24805 9.9668 3.24805C9.48242 3.24805 9.0957 3.45312 8.80664 3.86328C8.44336 4.38672 8.26172 5.35352 8.26172 6.76367ZM19.4004 9.98633V11H13.7227C13.7148 10.7461 13.7559 10.502 13.8457 10.2676C13.9902 9.88086 14.2207 9.5 14.5371 9.125C14.8574 8.75 15.3184 8.31641 15.9199 7.82422C16.8535 7.05859 17.4844 6.45312 17.8125 6.00781C18.1406 5.55859 18.3047 5.13477 18.3047 4.73633C18.3047 4.31836 18.1543 3.9668 17.8535 3.68164C17.5566 3.39258 17.168 3.24805 16.6875 3.24805C16.1797 3.24805 15.7734 3.40039 15.4688 3.70508C15.1641 4.00977 15.0098 4.43164 15.0059 4.9707L13.9219 4.85938C13.9961 4.05078 14.2754 3.43555 14.7598 3.01367C15.2441 2.58789 15.8945 2.375 16.7109 2.375C17.5352 2.375 18.1875 2.60352 18.668 3.06055C19.1484 3.51758 19.3887 4.08398 19.3887 4.75977C19.3887 5.10352 19.3184 5.44141 19.1777 5.77344C19.0371 6.10547 18.8027 6.45508 18.4746 6.82227C18.1504 7.18945 17.6094 7.69336 16.8516 8.33398C16.2188 8.86523 15.8125 9.22656 15.6328 9.41797C15.4531 9.60547 15.3047 9.79492 15.1875 9.98633H19.4004ZM26.0801 9.98633V11H20.4023C20.3945 10.7461 20.4355 10.502 20.5254 10.2676C20.6699 9.88086 20.9004 9.5 21.2168 9.125C21.5371 8.75 21.998 8.31641 22.5996 7.82422C23.5332 7.05859 24.1641 6.45312 24.4922 6.00781C24.8203 5.55859 24.9844 5.13477 24.9844 4.73633C24.9844 4.31836 24.834 3.9668 24.5332 3.68164C24.2363 3.39258 23.8477 3.24805 23.3672 3.24805C22.8594 3.24805 22.4531 3.40039 22.1484 3.70508C21.8438 4.00977 21.6895 4.43164 21.6855 4.9707L20.6016 4.85938C20.6758 4.05078 20.9551 3.43555 21.4395 3.01367C21.9238 2.58789 22.5742 2.375 23.3906 2.375C24.2148 2.375 24.8672 2.60352 25.3477 3.06055C25.8281 3.51758 26.0684 4.08398 26.0684 4.75977C26.0684 5.10352 25.998 5.44141 25.8574 5.77344C25.7168 6.10547 25.4824 6.45508 25.1543 6.82227C24.8301 7.18945 24.2891 7.69336 23.5312 8.33398C22.8984 8.86523 22.4922 9.22656 22.3125 9.41797C22.1328 9.60547 21.9844 9.79492 21.8672 9.98633H26.0801Z" fill="black"/>
</svg>
